<?xml version="1.0" encoding="utf-8"?>
<svg xmlns="http://www.w3.org/2000/svg" xmlns:xlink="http://www.w3.org/1999/xlink" width="600" height="400" viewBox="0 0 2400 1600">
<defs>
  <clipPath id="clip910">
    <rect x="0" y="0" width="2400" height="1600"/>
  </clipPath>
</defs>
<path clip-path="url(#clip910)" d="M0 1600 L2400 1600 L2400 0 L0 0  Z" fill="#ffffff" fill-rule="evenodd" fill-opacity="1"/>
<defs>
  <clipPath id="clip911">
    <rect x="480" y="0" width="1681" height="1600"/>
  </clipPath>
</defs>
<path clip-path="url(#clip910)" d="M86.9921 1521.01 L2352.76 1521.01 L2352.76 47.2441 L86.9921 47.2441  Z" fill="#ffffff" fill-rule="evenodd" fill-opacity="1"/>
<defs>
  <clipPath id="clip912">
    <rect x="86" y="47" width="2267" height="1475"/>
  </clipPath>
</defs>
<polyline clip-path="url(#clip912)" style="stroke:#000000; stroke-linecap:round; stroke-linejoin:round; stroke-width:2; stroke-opacity:0.1; fill:none" points="151.118,1521.01 151.118,47.2441 "/>
<polyline clip-path="url(#clip912)" style="stroke:#000000; stroke-linecap:round; stroke-linejoin:round; stroke-width:2; stroke-opacity:0.1; fill:none" points="685.496,1521.01 685.496,47.2441 "/>
<polyline clip-path="url(#clip912)" style="stroke:#000000; stroke-linecap:round; stroke-linejoin:round; stroke-width:2; stroke-opacity:0.1; fill:none" points="1219.87,1521.01 1219.87,47.2441 "/>
<polyline clip-path="url(#clip912)" style="stroke:#000000; stroke-linecap:round; stroke-linejoin:round; stroke-width:2; stroke-opacity:0.1; fill:none" points="1754.25,1521.01 1754.25,47.2441 "/>
<polyline clip-path="url(#clip912)" style="stroke:#000000; stroke-linecap:round; stroke-linejoin:round; stroke-width:2; stroke-opacity:0.1; fill:none" points="2288.63,1521.01 2288.63,47.2441 "/>
<polyline clip-path="url(#clip910)" style="stroke:#000000; stroke-linecap:round; stroke-linejoin:round; stroke-width:4; stroke-opacity:1; fill:none" points="86.9921,1521.01 2352.76,1521.01 "/>
<polyline clip-path="url(#clip910)" style="stroke:#000000; stroke-linecap:round; stroke-linejoin:round; stroke-width:4; stroke-opacity:1; fill:none" points="151.118,1521.01 151.118,1502.11 "/>
<polyline clip-path="url(#clip910)" style="stroke:#000000; stroke-linecap:round; stroke-linejoin:round; stroke-width:4; stroke-opacity:1; fill:none" points="685.496,1521.01 685.496,1502.11 "/>
<polyline clip-path="url(#clip910)" style="stroke:#000000; stroke-linecap:round; stroke-linejoin:round; stroke-width:4; stroke-opacity:1; fill:none" points="1219.87,1521.01 1219.87,1502.11 "/>
<polyline clip-path="url(#clip910)" style="stroke:#000000; stroke-linecap:round; stroke-linejoin:round; stroke-width:4; stroke-opacity:1; fill:none" points="1754.25,1521.01 1754.25,1502.11 "/>
<polyline clip-path="url(#clip910)" style="stroke:#000000; stroke-linecap:round; stroke-linejoin:round; stroke-width:4; stroke-opacity:1; fill:none" points="2288.63,1521.01 2288.63,1502.11 "/>
<path clip-path="url(#clip910)" d="M128.502 1551.93 Q124.891 1551.93 123.062 1555.49 Q121.257 1559.03 121.257 1566.16 Q121.257 1573.27 123.062 1576.83 Q124.891 1580.38 128.502 1580.38 Q132.136 1580.38 133.942 1576.83 Q135.77 1573.27 135.77 1566.16 Q135.77 1559.03 133.942 1555.49 Q132.136 1551.93 128.502 1551.93 M128.502 1548.22 Q134.312 1548.22 137.368 1552.83 Q140.446 1557.41 140.446 1566.16 Q140.446 1574.89 137.368 1579.5 Q134.312 1584.08 128.502 1584.08 Q122.692 1584.08 119.613 1579.5 Q116.558 1574.89 116.558 1566.16 Q116.558 1557.41 119.613 1552.83 Q122.692 1548.22 128.502 1548.22 Z" fill="#000000" fill-rule="nonzero" fill-opacity="1" /><path clip-path="url(#clip910)" d="M148.664 1577.53 L153.548 1577.53 L153.548 1583.41 L148.664 1583.41 L148.664 1577.53 Z" fill="#000000" fill-rule="nonzero" fill-opacity="1" /><path clip-path="url(#clip910)" d="M173.733 1551.93 Q170.122 1551.93 168.293 1555.49 Q166.488 1559.03 166.488 1566.16 Q166.488 1573.27 168.293 1576.83 Q170.122 1580.38 173.733 1580.38 Q177.367 1580.38 179.173 1576.83 Q181.002 1573.27 181.002 1566.16 Q181.002 1559.03 179.173 1555.49 Q177.367 1551.93 173.733 1551.93 M173.733 1548.22 Q179.543 1548.22 182.599 1552.83 Q185.678 1557.41 185.678 1566.16 Q185.678 1574.89 182.599 1579.5 Q179.543 1584.08 173.733 1584.08 Q167.923 1584.08 164.844 1579.5 Q161.789 1574.89 161.789 1566.16 Q161.789 1557.41 164.844 1552.83 Q167.923 1548.22 173.733 1548.22 Z" fill="#000000" fill-rule="nonzero" fill-opacity="1" /><path clip-path="url(#clip910)" d="M657.232 1579.47 L673.551 1579.47 L673.551 1583.41 L651.607 1583.41 L651.607 1579.47 Q654.269 1576.72 658.852 1572.09 Q663.459 1567.44 664.639 1566.09 Q666.885 1563.57 667.764 1561.83 Q668.667 1560.07 668.667 1558.38 Q668.667 1555.63 666.723 1553.89 Q664.801 1552.16 661.7 1552.16 Q659.501 1552.16 657.047 1552.92 Q654.616 1553.69 651.839 1555.24 L651.839 1550.51 Q654.663 1549.38 657.116 1548.8 Q659.57 1548.22 661.607 1548.22 Q666.977 1548.22 670.172 1550.91 Q673.366 1553.59 673.366 1558.08 Q673.366 1560.21 672.556 1562.13 Q671.769 1564.03 669.663 1566.63 Q669.084 1567.3 665.982 1570.51 Q662.88 1573.71 657.232 1579.47 Z" fill="#000000" fill-rule="nonzero" fill-opacity="1" /><path clip-path="url(#clip910)" d="M683.366 1577.53 L688.25 1577.53 L688.25 1583.41 L683.366 1583.41 L683.366 1577.53 Z" fill="#000000" fill-rule="nonzero" fill-opacity="1" /><path clip-path="url(#clip910)" d="M698.482 1548.85 L716.838 1548.85 L716.838 1552.78 L702.764 1552.78 L702.764 1561.26 Q703.783 1560.91 704.801 1560.75 Q705.82 1560.56 706.838 1560.56 Q712.625 1560.56 716.005 1563.73 Q719.384 1566.9 719.384 1572.32 Q719.384 1577.9 715.912 1581 Q712.44 1584.08 706.121 1584.08 Q703.945 1584.08 701.676 1583.71 Q699.431 1583.34 697.023 1582.6 L697.023 1577.9 Q699.107 1579.03 701.329 1579.59 Q703.551 1580.14 706.028 1580.14 Q710.033 1580.14 712.371 1578.04 Q714.709 1575.93 714.709 1572.32 Q714.709 1568.71 712.371 1566.6 Q710.033 1564.5 706.028 1564.5 Q704.153 1564.5 702.278 1564.91 Q700.426 1565.33 698.482 1566.21 L698.482 1548.85 Z" fill="#000000" fill-rule="nonzero" fill-opacity="1" /><path clip-path="url(#clip910)" d="M1187.04 1548.85 L1205.39 1548.85 L1205.39 1552.78 L1191.32 1552.78 L1191.32 1561.26 Q1192.34 1560.91 1193.36 1560.75 Q1194.38 1560.56 1195.39 1560.56 Q1201.18 1560.56 1204.56 1563.73 Q1207.94 1566.9 1207.94 1572.32 Q1207.94 1577.9 1204.47 1581 Q1201 1584.08 1194.68 1584.08 Q1192.5 1584.08 1190.23 1583.71 Q1187.99 1583.34 1185.58 1582.6 L1185.58 1577.9 Q1187.66 1579.03 1189.89 1579.59 Q1192.11 1580.14 1194.58 1580.14 Q1198.59 1580.14 1200.93 1578.04 Q1203.27 1575.93 1203.27 1572.32 Q1203.27 1568.71 1200.93 1566.6 Q1198.59 1564.5 1194.58 1564.5 Q1192.71 1564.5 1190.83 1564.91 Q1188.98 1565.33 1187.04 1566.21 L1187.04 1548.85 Z" fill="#000000" fill-rule="nonzero" fill-opacity="1" /><path clip-path="url(#clip910)" d="M1217.15 1577.53 L1222.04 1577.53 L1222.04 1583.41 L1217.15 1583.41 L1217.15 1577.53 Z" fill="#000000" fill-rule="nonzero" fill-opacity="1" /><path clip-path="url(#clip910)" d="M1242.22 1551.93 Q1238.61 1551.93 1236.78 1555.49 Q1234.98 1559.03 1234.98 1566.16 Q1234.98 1573.27 1236.78 1576.83 Q1238.61 1580.38 1242.22 1580.38 Q1245.86 1580.38 1247.66 1576.83 Q1249.49 1573.27 1249.49 1566.16 Q1249.49 1559.03 1247.66 1555.49 Q1245.86 1551.93 1242.22 1551.93 M1242.22 1548.22 Q1248.03 1548.22 1251.09 1552.83 Q1254.17 1557.41 1254.17 1566.16 Q1254.17 1574.89 1251.09 1579.5 Q1248.03 1584.08 1242.22 1584.08 Q1236.41 1584.08 1233.33 1579.5 Q1230.28 1574.89 1230.28 1566.16 Q1230.28 1557.41 1233.33 1552.83 Q1236.41 1548.22 1242.22 1548.22 Z" fill="#000000" fill-rule="nonzero" fill-opacity="1" /><path clip-path="url(#clip910)" d="M1720.57 1548.85 L1742.79 1548.85 L1742.79 1550.84 L1730.25 1583.41 L1725.36 1583.41 L1737.17 1552.78 L1720.57 1552.78 L1720.57 1548.85 Z" fill="#000000" fill-rule="nonzero" fill-opacity="1" /><path clip-path="url(#clip910)" d="M1751.91 1577.53 L1756.8 1577.53 L1756.8 1583.41 L1751.91 1583.41 L1751.91 1577.53 Z" fill="#000000" fill-rule="nonzero" fill-opacity="1" /><path clip-path="url(#clip910)" d="M1767.03 1548.85 L1785.39 1548.85 L1785.39 1552.78 L1771.31 1552.78 L1771.31 1561.26 Q1772.33 1560.91 1773.35 1560.75 Q1774.37 1560.56 1775.39 1560.56 Q1781.17 1560.56 1784.55 1563.73 Q1787.93 1566.9 1787.93 1572.32 Q1787.93 1577.9 1784.46 1581 Q1780.99 1584.08 1774.67 1584.08 Q1772.49 1584.08 1770.22 1583.71 Q1767.98 1583.34 1765.57 1582.6 L1765.57 1577.9 Q1767.65 1579.03 1769.88 1579.59 Q1772.1 1580.14 1774.58 1580.14 Q1778.58 1580.14 1780.92 1578.04 Q1783.26 1575.93 1783.26 1572.32 Q1783.26 1568.71 1780.92 1566.6 Q1778.58 1564.5 1774.58 1564.5 Q1772.7 1564.5 1770.83 1564.91 Q1768.97 1565.33 1767.03 1566.21 L1767.03 1548.85 Z" fill="#000000" fill-rule="nonzero" fill-opacity="1" /><path clip-path="url(#clip910)" d="M2240.7 1579.47 L2248.34 1579.47 L2248.34 1553.11 L2240.03 1554.77 L2240.03 1550.51 L2248.3 1548.85 L2252.97 1548.85 L2252.97 1579.47 L2260.61 1579.47 L2260.61 1583.41 L2240.7 1583.41 L2240.7 1579.47 Z" fill="#000000" fill-rule="nonzero" fill-opacity="1" /><path clip-path="url(#clip910)" d="M2280.05 1551.93 Q2276.44 1551.93 2274.61 1555.49 Q2272.81 1559.03 2272.81 1566.16 Q2272.81 1573.27 2274.61 1576.83 Q2276.44 1580.38 2280.05 1580.38 Q2283.69 1580.38 2285.49 1576.83 Q2287.32 1573.27 2287.32 1566.16 Q2287.32 1559.03 2285.49 1555.49 Q2283.69 1551.93 2280.05 1551.93 M2280.05 1548.22 Q2285.86 1548.22 2288.92 1552.83 Q2292 1557.41 2292 1566.16 Q2292 1574.89 2288.92 1579.5 Q2285.86 1584.08 2280.05 1584.08 Q2274.24 1584.08 2271.17 1579.5 Q2268.11 1574.89 2268.11 1566.16 Q2268.11 1557.41 2271.17 1552.83 Q2274.24 1548.22 2280.05 1548.22 Z" fill="#000000" fill-rule="nonzero" fill-opacity="1" /><path clip-path="url(#clip910)" d="M2300.22 1577.53 L2305.1 1577.53 L2305.1 1583.41 L2300.22 1583.41 L2300.22 1577.53 Z" fill="#000000" fill-rule="nonzero" fill-opacity="1" /><path clip-path="url(#clip910)" d="M2325.29 1551.93 Q2321.67 1551.93 2319.85 1555.49 Q2318.04 1559.03 2318.04 1566.16 Q2318.04 1573.27 2319.85 1576.83 Q2321.67 1580.38 2325.29 1580.38 Q2328.92 1580.38 2330.73 1576.83 Q2332.55 1573.27 2332.55 1566.16 Q2332.55 1559.03 2330.73 1555.49 Q2328.92 1551.93 2325.29 1551.93 M2325.29 1548.22 Q2331.1 1548.22 2334.15 1552.83 Q2337.23 1557.41 2337.23 1566.16 Q2337.23 1574.89 2334.15 1579.5 Q2331.1 1584.08 2325.29 1584.08 Q2319.48 1584.08 2316.4 1579.5 Q2313.34 1574.89 2313.34 1566.16 Q2313.34 1557.41 2316.4 1552.83 Q2319.48 1548.22 2325.29 1548.22 Z" fill="#000000" fill-rule="nonzero" fill-opacity="1" /><polyline clip-path="url(#clip912)" style="stroke:#000000; stroke-linecap:round; stroke-linejoin:round; stroke-width:2; stroke-opacity:0.1; fill:none" points="86.9921,1217.19 2352.76,1217.19 "/>
<polyline clip-path="url(#clip912)" style="stroke:#000000; stroke-linecap:round; stroke-linejoin:round; stroke-width:2; stroke-opacity:0.1; fill:none" points="86.9921,884.428 2352.76,884.428 "/>
<polyline clip-path="url(#clip912)" style="stroke:#000000; stroke-linecap:round; stroke-linejoin:round; stroke-width:2; stroke-opacity:0.1; fill:none" points="86.9921,551.664 2352.76,551.664 "/>
<polyline clip-path="url(#clip912)" style="stroke:#000000; stroke-linecap:round; stroke-linejoin:round; stroke-width:2; stroke-opacity:0.1; fill:none" points="86.9921,218.901 2352.76,218.901 "/>
<polyline clip-path="url(#clip910)" style="stroke:#000000; stroke-linecap:round; stroke-linejoin:round; stroke-width:4; stroke-opacity:1; fill:none" points="86.9921,1521.01 86.9921,47.2441 "/>
<polyline clip-path="url(#clip910)" style="stroke:#000000; stroke-linecap:round; stroke-linejoin:round; stroke-width:4; stroke-opacity:1; fill:none" points="86.9921,1217.19 105.89,1217.19 "/>
<polyline clip-path="url(#clip910)" style="stroke:#000000; stroke-linecap:round; stroke-linejoin:round; stroke-width:4; stroke-opacity:1; fill:none" points="86.9921,884.428 105.89,884.428 "/>
<polyline clip-path="url(#clip910)" style="stroke:#000000; stroke-linecap:round; stroke-linejoin:round; stroke-width:4; stroke-opacity:1; fill:none" points="86.9921,551.664 105.89,551.664 "/>
<polyline clip-path="url(#clip910)" style="stroke:#000000; stroke-linecap:round; stroke-linejoin:round; stroke-width:4; stroke-opacity:1; fill:none" points="86.9921,218.901 105.89,218.901 "/>
<path clip-path="url(#clip910)" d="M-9.72514 1217.64 L19.9506 1217.64 L19.9506 1221.58 L-9.72514 1221.58 L-9.72514 1217.64 Z" fill="#000000" fill-rule="nonzero" fill-opacity="1" /><path clip-path="url(#clip910)" d="M30.0895 1199.91 L48.4458 1199.91 L48.4458 1203.85 L34.3718 1203.85 L34.3718 1212.32 Q35.3904 1211.97 36.4089 1211.81 Q37.4274 1211.63 38.4459 1211.63 Q44.2329 1211.63 47.6125 1214.8 Q50.9921 1217.97 50.9921 1223.38 Q50.9921 1228.96 47.5199 1232.06 Q44.0477 1235.14 37.7283 1235.14 Q35.5524 1235.14 33.2839 1234.77 Q31.0385 1234.4 28.6311 1233.66 L28.6311 1228.96 Q30.7145 1230.1 32.9367 1230.65 Q35.1589 1231.21 37.6357 1231.21 Q41.6403 1231.21 43.9783 1229.1 Q46.3162 1227 46.3162 1223.38 Q46.3162 1219.77 43.9783 1217.67 Q41.6403 1215.56 37.6357 1215.56 Q35.7607 1215.56 33.8857 1215.98 Q32.0339 1216.39 30.0895 1217.27 L30.0895 1199.91 Z" fill="#000000" fill-rule="nonzero" fill-opacity="1" /><path clip-path="url(#clip910)" d="M39.0477 870.227 Q35.4367 870.227 33.608 873.792 Q31.8024 877.333 31.8024 884.463 Q31.8024 891.569 33.608 895.134 Q35.4367 898.676 39.0477 898.676 Q42.682 898.676 44.4875 895.134 Q46.3162 891.569 46.3162 884.463 Q46.3162 877.333 44.4875 873.792 Q42.682 870.227 39.0477 870.227 M39.0477 866.523 Q44.8579 866.523 47.9134 871.13 Q50.9921 875.713 50.9921 884.463 Q50.9921 893.19 47.9134 897.796 Q44.8579 902.38 39.0477 902.38 Q33.2376 902.38 30.1589 897.796 Q27.1034 893.19 27.1034 884.463 Q27.1034 875.713 30.1589 871.13 Q33.2376 866.523 39.0477 866.523 Z" fill="#000000" fill-rule="nonzero" fill-opacity="1" /><path clip-path="url(#clip910)" d="M30.0895 534.384 L48.4458 534.384 L48.4458 538.32 L34.3718 538.32 L34.3718 546.792 Q35.3904 546.445 36.4089 546.283 Q37.4274 546.097 38.4459 546.097 Q44.2329 546.097 47.6125 549.269 Q50.9921 552.44 50.9921 557.857 Q50.9921 563.435 47.5199 566.537 Q44.0477 569.616 37.7283 569.616 Q35.5524 569.616 33.2839 569.245 Q31.0385 568.875 28.6311 568.134 L28.6311 563.435 Q30.7145 564.57 32.9367 565.125 Q35.1589 565.681 37.6357 565.681 Q41.6403 565.681 43.9783 563.574 Q46.3162 561.468 46.3162 557.857 Q46.3162 554.245 43.9783 552.139 Q41.6403 550.033 37.6357 550.033 Q35.7607 550.033 33.8857 550.449 Q32.0339 550.866 30.0895 551.746 L30.0895 534.384 Z" fill="#000000" fill-rule="nonzero" fill-opacity="1" /><path clip-path="url(#clip910)" d="M-0.303895 232.246 L7.33495 232.246 L7.33495 205.88 L-0.975188 207.547 L-0.975188 203.287 L7.28866 201.621 L11.9646 201.621 L11.9646 232.246 L19.6034 232.246 L19.6034 236.181 L-0.303895 236.181 L-0.303895 232.246 Z" fill="#000000" fill-rule="nonzero" fill-opacity="1" /><path clip-path="url(#clip910)" d="M39.0477 204.699 Q35.4367 204.699 33.608 208.264 Q31.8024 211.806 31.8024 218.935 Q31.8024 226.042 33.608 229.607 Q35.4367 233.148 39.0477 233.148 Q42.682 233.148 44.4875 229.607 Q46.3162 226.042 46.3162 218.935 Q46.3162 211.806 44.4875 208.264 Q42.682 204.699 39.0477 204.699 M39.0477 200.996 Q44.8579 200.996 47.9134 205.602 Q50.9921 210.185 50.9921 218.935 Q50.9921 227.662 47.9134 232.269 Q44.8579 236.852 39.0477 236.852 Q33.2376 236.852 30.1589 232.269 Q27.1034 227.662 27.1034 218.935 Q27.1034 210.185 30.1589 205.602 Q33.2376 200.996 39.0477 200.996 Z" fill="#000000" fill-rule="nonzero" fill-opacity="1" /><path clip-path="url(#clip912)" d="M151.118 992.426 L364.869 1399.83 L578.62 1479.3 L792.371 1475.12 L1006.12 1454.96 L1219.87 1431.56 L1433.63 1403.77 L1647.38 1376.9 L1861.13 1349.48 L2074.88 1330.64 L2288.63 1307.22 L2288.63 312.003 L2074.88 283.376 L1861.13 254.85 L1647.38 224.41 L1433.63 190.031 L1219.87 156.961 L1006.12 127.072 L792.371 98.3911 L578.62 88.9544 L364.869 188.69 L151.118 800.143  Z" fill="#009af9" fill-rule="evenodd" fill-opacity="0.2"/>
<polyline clip-path="url(#clip912)" style="stroke:#009af9; stroke-linecap:round; stroke-linejoin:round; stroke-width:12; stroke-opacity:1; fill:none" points="151.118,873.711 364.869,844.132 578.62,831.183 792.371,831.778 1006.12,835.55 1219.87,838.177 1433.63,841.404 1647.38,841.802 1861.13,844.651 2074.88,847.467 2288.63,848.183 "/>
<path clip-path="url(#clip912)" d="M151.118 971.939 L364.869 902.262 L578.62 888.2 L792.371 885.851 L1006.12 885.538 L1219.87 885.804 L1433.63 885.562 L1647.38 885.461 L1861.13 885.881 L2074.88 885.164 L2288.63 885.295 L2288.63 883.278 L2074.88 883.471 L1861.13 883.048 L1647.38 883.389 L1433.63 883.336 L1219.87 883.347 L1006.12 883.424 L792.371 882.843 L578.62 879.629 L364.869 862.706 L151.118 774.587  Z" fill="#e26f46" fill-rule="evenodd" fill-opacity="0.2"/>
<polyline clip-path="url(#clip912)" style="stroke:#e26f46; stroke-linecap:round; stroke-linejoin:round; stroke-width:12; stroke-opacity:1; fill:none" points="151.118,879.289 364.869,883.233 578.62,883.931 792.371,884.171 1006.12,884.426 1219.87,884.369 1433.63,884.353 1647.38,884.41 1861.13,884.741 2074.88,884.331 2288.63,884.333 "/>
</svg>
