<?xml version="1.0" encoding="utf-8"?>
<svg xmlns="http://www.w3.org/2000/svg" xmlns:xlink="http://www.w3.org/1999/xlink" width="600" height="400" viewBox="0 0 2400 1600">
<defs>
  <clipPath id="clip730">
    <rect x="0" y="0" width="2400" height="1600"/>
  </clipPath>
</defs>
<path clip-path="url(#clip730)" d="M0 1600 L2400 1600 L2400 0 L0 0  Z" fill="#ffffff" fill-rule="evenodd" fill-opacity="1"/>
<defs>
  <clipPath id="clip731">
    <rect x="480" y="0" width="1681" height="1600"/>
  </clipPath>
</defs>
<path clip-path="url(#clip730)" d="M86.9921 1505.26 L2352.76 1505.26 L2352.76 47.2441 L86.9921 47.2441  Z" fill="#ffffff" fill-rule="evenodd" fill-opacity="1"/>
<defs>
  <clipPath id="clip732">
    <rect x="86" y="47" width="2267" height="1459"/>
  </clipPath>
</defs>
<polyline clip-path="url(#clip732)" style="stroke:#000000; stroke-linecap:round; stroke-linejoin:round; stroke-width:2; stroke-opacity:0.1; fill:none" points="86.9921,1505.26 86.9921,47.2441 "/>
<polyline clip-path="url(#clip732)" style="stroke:#000000; stroke-linecap:round; stroke-linejoin:round; stroke-width:2; stroke-opacity:0.1; fill:none" points="540.145,1505.26 540.145,47.2441 "/>
<polyline clip-path="url(#clip732)" style="stroke:#000000; stroke-linecap:round; stroke-linejoin:round; stroke-width:2; stroke-opacity:0.1; fill:none" points="993.298,1505.26 993.298,47.2441 "/>
<polyline clip-path="url(#clip732)" style="stroke:#000000; stroke-linecap:round; stroke-linejoin:round; stroke-width:2; stroke-opacity:0.1; fill:none" points="1446.45,1505.26 1446.45,47.2441 "/>
<polyline clip-path="url(#clip732)" style="stroke:#000000; stroke-linecap:round; stroke-linejoin:round; stroke-width:2; stroke-opacity:0.1; fill:none" points="1899.6,1505.26 1899.6,47.2441 "/>
<polyline clip-path="url(#clip732)" style="stroke:#000000; stroke-linecap:round; stroke-linejoin:round; stroke-width:2; stroke-opacity:0.1; fill:none" points="2352.76,1505.26 2352.76,47.2441 "/>
<polyline clip-path="url(#clip730)" style="stroke:#000000; stroke-linecap:round; stroke-linejoin:round; stroke-width:4; stroke-opacity:1; fill:none" points="86.9921,1505.26 2352.76,1505.26 "/>
<polyline clip-path="url(#clip730)" style="stroke:#000000; stroke-linecap:round; stroke-linejoin:round; stroke-width:4; stroke-opacity:1; fill:none" points="86.9921,1505.26 86.9921,1486.36 "/>
<polyline clip-path="url(#clip730)" style="stroke:#000000; stroke-linecap:round; stroke-linejoin:round; stroke-width:4; stroke-opacity:1; fill:none" points="540.145,1505.26 540.145,1486.36 "/>
<polyline clip-path="url(#clip730)" style="stroke:#000000; stroke-linecap:round; stroke-linejoin:round; stroke-width:4; stroke-opacity:1; fill:none" points="993.298,1505.26 993.298,1486.36 "/>
<polyline clip-path="url(#clip730)" style="stroke:#000000; stroke-linecap:round; stroke-linejoin:round; stroke-width:4; stroke-opacity:1; fill:none" points="1446.45,1505.26 1446.45,1486.36 "/>
<polyline clip-path="url(#clip730)" style="stroke:#000000; stroke-linecap:round; stroke-linejoin:round; stroke-width:4; stroke-opacity:1; fill:none" points="1899.6,1505.26 1899.6,1486.36 "/>
<polyline clip-path="url(#clip730)" style="stroke:#000000; stroke-linecap:round; stroke-linejoin:round; stroke-width:4; stroke-opacity:1; fill:none" points="2352.76,1505.26 2352.76,1486.36 "/>
<path clip-path="url(#clip730)" d="M86.9921 1536.18 Q83.381 1536.18 81.5523 1539.74 Q79.7468 1543.28 79.7468 1550.41 Q79.7468 1557.52 81.5523 1561.09 Q83.381 1564.63 86.9921 1564.63 Q90.6264 1564.63 92.4319 1561.09 Q94.2606 1557.52 94.2606 1550.41 Q94.2606 1543.28 92.4319 1539.74 Q90.6264 1536.18 86.9921 1536.18 M86.9921 1532.47 Q92.8023 1532.47 95.8578 1537.08 Q98.9365 1541.66 98.9365 1550.41 Q98.9365 1559.14 95.8578 1563.75 Q92.8023 1568.33 86.9921 1568.33 Q81.182 1568.33 78.1033 1563.75 Q75.0477 1559.14 75.0477 1550.41 Q75.0477 1541.66 78.1033 1537.08 Q81.182 1532.47 86.9921 1532.47 Z" fill="#000000" fill-rule="nonzero" fill-opacity="1" /><path clip-path="url(#clip730)" d="M534.798 1563.72 L551.117 1563.72 L551.117 1567.66 L529.173 1567.66 L529.173 1563.72 Q531.835 1560.97 536.418 1556.34 Q541.025 1551.69 542.205 1550.35 Q544.45 1547.82 545.33 1546.09 Q546.233 1544.33 546.233 1542.64 Q546.233 1539.88 544.288 1538.15 Q542.367 1536.41 539.265 1536.41 Q537.066 1536.41 534.613 1537.17 Q532.182 1537.94 529.404 1539.49 L529.404 1534.77 Q532.228 1533.63 534.682 1533.05 Q537.136 1532.47 539.173 1532.47 Q544.543 1532.47 547.737 1535.16 Q550.932 1537.85 550.932 1542.34 Q550.932 1544.47 550.122 1546.39 Q549.335 1548.28 547.228 1550.88 Q546.649 1551.55 543.548 1554.77 Q540.446 1557.96 534.798 1563.72 Z" fill="#000000" fill-rule="nonzero" fill-opacity="1" /><path clip-path="url(#clip730)" d="M996.307 1537.17 L984.501 1555.62 L996.307 1555.62 L996.307 1537.17 M995.08 1533.1 L1000.96 1533.1 L1000.96 1555.62 L1005.89 1555.62 L1005.89 1559.51 L1000.96 1559.51 L1000.96 1567.66 L996.307 1567.66 L996.307 1559.51 L980.705 1559.51 L980.705 1555 L995.08 1533.1 Z" fill="#000000" fill-rule="nonzero" fill-opacity="1" /><path clip-path="url(#clip730)" d="M1446.86 1548.52 Q1443.71 1548.52 1441.86 1550.67 Q1440.03 1552.82 1440.03 1556.57 Q1440.03 1560.3 1441.86 1562.47 Q1443.71 1564.63 1446.86 1564.63 Q1450 1564.63 1451.83 1562.47 Q1453.68 1560.3 1453.68 1556.57 Q1453.68 1552.82 1451.83 1550.67 Q1450 1548.52 1446.86 1548.52 M1456.14 1533.86 L1456.14 1538.12 Q1454.38 1537.29 1452.57 1536.85 Q1450.79 1536.41 1449.03 1536.41 Q1444.4 1536.41 1441.95 1539.53 Q1439.52 1542.66 1439.17 1548.98 Q1440.54 1546.97 1442.6 1545.9 Q1444.66 1544.81 1447.13 1544.81 Q1452.34 1544.81 1455.35 1547.98 Q1458.38 1551.13 1458.38 1556.57 Q1458.38 1561.9 1455.24 1565.11 Q1452.09 1568.33 1446.86 1568.33 Q1440.86 1568.33 1437.69 1563.75 Q1434.52 1559.14 1434.52 1550.41 Q1434.52 1542.22 1438.41 1537.36 Q1442.3 1532.47 1448.85 1532.47 Q1450.61 1532.47 1452.39 1532.82 Q1454.19 1533.17 1456.14 1533.86 Z" fill="#000000" fill-rule="nonzero" fill-opacity="1" /><path clip-path="url(#clip730)" d="M1899.6 1551.25 Q1896.27 1551.25 1894.35 1553.03 Q1892.45 1554.81 1892.45 1557.94 Q1892.45 1561.06 1894.35 1562.85 Q1896.27 1564.63 1899.6 1564.63 Q1902.94 1564.63 1904.86 1562.85 Q1906.78 1561.04 1906.78 1557.94 Q1906.78 1554.81 1904.86 1553.03 Q1902.96 1551.25 1899.6 1551.25 M1894.93 1549.26 Q1891.92 1548.52 1890.23 1546.46 Q1888.56 1544.4 1888.56 1541.43 Q1888.56 1537.29 1891.5 1534.88 Q1894.46 1532.47 1899.6 1532.47 Q1904.77 1532.47 1907.7 1534.88 Q1910.64 1537.29 1910.64 1541.43 Q1910.64 1544.4 1908.95 1546.46 Q1907.29 1548.52 1904.3 1549.26 Q1907.68 1550.04 1909.56 1552.34 Q1911.45 1554.63 1911.45 1557.94 Q1911.45 1562.96 1908.38 1565.65 Q1905.32 1568.33 1899.6 1568.33 Q1893.89 1568.33 1890.81 1565.65 Q1887.75 1562.96 1887.75 1557.94 Q1887.75 1554.63 1889.65 1552.34 Q1891.55 1550.04 1894.93 1549.26 M1893.21 1541.87 Q1893.21 1544.56 1894.88 1546.06 Q1896.57 1547.57 1899.6 1547.57 Q1902.61 1547.57 1904.3 1546.06 Q1906.02 1544.56 1906.02 1541.87 Q1906.02 1539.19 1904.3 1537.68 Q1902.61 1536.18 1899.6 1536.18 Q1896.57 1536.18 1894.88 1537.68 Q1893.21 1539.19 1893.21 1541.87 Z" fill="#000000" fill-rule="nonzero" fill-opacity="1" /><path clip-path="url(#clip730)" d="M2327.44 1563.72 L2335.08 1563.72 L2335.08 1537.36 L2326.77 1539.03 L2326.77 1534.77 L2335.04 1533.1 L2339.71 1533.1 L2339.71 1563.72 L2347.35 1563.72 L2347.35 1567.66 L2327.44 1567.66 L2327.44 1563.72 Z" fill="#000000" fill-rule="nonzero" fill-opacity="1" /><path clip-path="url(#clip730)" d="M2366.8 1536.18 Q2363.18 1536.18 2361.36 1539.74 Q2359.55 1543.28 2359.55 1550.41 Q2359.55 1557.52 2361.36 1561.09 Q2363.18 1564.63 2366.8 1564.63 Q2370.43 1564.63 2372.23 1561.09 Q2374.06 1557.52 2374.06 1550.41 Q2374.06 1543.28 2372.23 1539.74 Q2370.43 1536.18 2366.8 1536.18 M2366.8 1532.47 Q2372.61 1532.47 2375.66 1537.08 Q2378.74 1541.66 2378.74 1550.41 Q2378.74 1559.14 2375.66 1563.75 Q2372.61 1568.33 2366.8 1568.33 Q2360.99 1568.33 2357.91 1563.75 Q2354.85 1559.14 2354.85 1550.41 Q2354.85 1541.66 2357.91 1537.08 Q2360.99 1532.47 2366.8 1532.47 Z" fill="#000000" fill-rule="nonzero" fill-opacity="1" /><path clip-path="url(#clip730)" d="M1218.94 1604.35 L1218.94 1614.48 L1231 1614.48 L1231 1619.03 L1218.94 1619.03 L1218.94 1638.38 Q1218.94 1642.74 1220.11 1643.98 Q1221.32 1645.22 1224.98 1645.22 L1231 1645.22 L1231 1650.12 L1224.98 1650.12 Q1218.2 1650.12 1215.62 1647.61 Q1213.05 1645.06 1213.05 1638.38 L1213.05 1619.03 L1208.75 1619.03 L1208.75 1614.48 L1213.05 1614.48 L1213.05 1604.35 L1218.94 1604.35 Z" fill="#000000" fill-rule="nonzero" fill-opacity="1" /><polyline clip-path="url(#clip732)" style="stroke:#000000; stroke-linecap:round; stroke-linejoin:round; stroke-width:2; stroke-opacity:0.1; fill:none" points="86.9921,1417.25 2352.76,1417.25 "/>
<polyline clip-path="url(#clip732)" style="stroke:#000000; stroke-linecap:round; stroke-linejoin:round; stroke-width:2; stroke-opacity:0.1; fill:none" points="86.9921,1084.2 2352.76,1084.2 "/>
<polyline clip-path="url(#clip732)" style="stroke:#000000; stroke-linecap:round; stroke-linejoin:round; stroke-width:2; stroke-opacity:0.1; fill:none" points="86.9921,751.141 2352.76,751.141 "/>
<polyline clip-path="url(#clip732)" style="stroke:#000000; stroke-linecap:round; stroke-linejoin:round; stroke-width:2; stroke-opacity:0.1; fill:none" points="86.9921,418.086 2352.76,418.086 "/>
<polyline clip-path="url(#clip732)" style="stroke:#000000; stroke-linecap:round; stroke-linejoin:round; stroke-width:2; stroke-opacity:0.1; fill:none" points="86.9921,85.0304 2352.76,85.0304 "/>
<polyline clip-path="url(#clip730)" style="stroke:#000000; stroke-linecap:round; stroke-linejoin:round; stroke-width:4; stroke-opacity:1; fill:none" points="86.9921,1505.26 86.9921,47.2441 "/>
<polyline clip-path="url(#clip730)" style="stroke:#000000; stroke-linecap:round; stroke-linejoin:round; stroke-width:4; stroke-opacity:1; fill:none" points="86.9921,1417.25 105.89,1417.25 "/>
<polyline clip-path="url(#clip730)" style="stroke:#000000; stroke-linecap:round; stroke-linejoin:round; stroke-width:4; stroke-opacity:1; fill:none" points="86.9921,1084.2 105.89,1084.2 "/>
<polyline clip-path="url(#clip730)" style="stroke:#000000; stroke-linecap:round; stroke-linejoin:round; stroke-width:4; stroke-opacity:1; fill:none" points="86.9921,751.141 105.89,751.141 "/>
<polyline clip-path="url(#clip730)" style="stroke:#000000; stroke-linecap:round; stroke-linejoin:round; stroke-width:4; stroke-opacity:1; fill:none" points="86.9921,418.086 105.89,418.086 "/>
<polyline clip-path="url(#clip730)" style="stroke:#000000; stroke-linecap:round; stroke-linejoin:round; stroke-width:4; stroke-opacity:1; fill:none" points="86.9921,85.0304 105.89,85.0304 "/>
<path clip-path="url(#clip730)" d="M-36.3454 1403.05 Q-39.9565 1403.05 -41.7852 1406.62 Q-43.5907 1410.16 -43.5907 1417.29 Q-43.5907 1424.39 -41.7852 1427.96 Q-39.9565 1431.5 -36.3454 1431.5 Q-32.7111 1431.5 -30.9056 1427.96 Q-29.0769 1424.39 -29.0769 1417.29 Q-29.0769 1410.16 -30.9056 1406.62 Q-32.7111 1403.05 -36.3454 1403.05 M-36.3454 1399.35 Q-30.5352 1399.35 -27.4797 1403.95 Q-24.401 1408.54 -24.401 1417.29 Q-24.401 1426.01 -27.4797 1430.62 Q-30.5352 1435.2 -36.3454 1435.2 Q-42.1555 1435.2 -45.2342 1430.62 Q-48.2897 1426.01 -48.2897 1417.29 Q-48.2897 1408.54 -45.2342 1403.95 Q-42.1555 1399.35 -36.3454 1399.35 Z" fill="#000000" fill-rule="nonzero" fill-opacity="1" /><path clip-path="url(#clip730)" d="M-16.1834 1428.65 L-11.2992 1428.65 L-11.2992 1434.53 L-16.1834 1434.53 L-16.1834 1428.65 Z" fill="#000000" fill-rule="nonzero" fill-opacity="1" /><path clip-path="url(#clip730)" d="M8.88587 1403.05 Q5.27478 1403.05 3.44608 1406.62 Q1.64054 1410.16 1.64054 1417.29 Q1.64054 1424.39 3.44608 1427.96 Q5.27478 1431.5 8.88587 1431.5 Q12.5201 1431.5 14.3257 1427.96 Q16.1543 1424.39 16.1543 1417.29 Q16.1543 1410.16 14.3257 1406.62 Q12.5201 1403.05 8.88587 1403.05 M8.88587 1399.35 Q14.696 1399.35 17.7516 1403.95 Q20.8303 1408.54 20.8303 1417.29 Q20.8303 1426.01 17.7516 1430.62 Q14.696 1435.2 8.88587 1435.2 Q3.07572 1435.2 -0.00297114 1430.62 Q-3.05851 1426.01 -3.05851 1417.29 Q-3.05851 1408.54 -0.00297114 1403.95 Q3.07572 1399.35 8.88587 1399.35 Z" fill="#000000" fill-rule="nonzero" fill-opacity="1" /><path clip-path="url(#clip730)" d="M39.0477 1403.05 Q35.4367 1403.05 33.608 1406.62 Q31.8024 1410.16 31.8024 1417.29 Q31.8024 1424.39 33.608 1427.96 Q35.4367 1431.5 39.0477 1431.5 Q42.682 1431.5 44.4875 1427.96 Q46.3162 1424.39 46.3162 1417.29 Q46.3162 1410.16 44.4875 1406.62 Q42.682 1403.05 39.0477 1403.05 M39.0477 1399.35 Q44.8579 1399.35 47.9134 1403.95 Q50.9921 1408.54 50.9921 1417.29 Q50.9921 1426.01 47.9134 1430.62 Q44.8579 1435.2 39.0477 1435.2 Q33.2376 1435.2 30.1589 1430.62 Q27.1034 1426.01 27.1034 1417.29 Q27.1034 1408.54 30.1589 1403.95 Q33.2376 1399.35 39.0477 1399.35 Z" fill="#000000" fill-rule="nonzero" fill-opacity="1" /><path clip-path="url(#clip730)" d="M-35.35 1070 Q-38.9611 1070 -40.7898 1073.56 Q-42.5953 1077.1 -42.5953 1084.23 Q-42.5953 1091.34 -40.7898 1094.9 Q-38.9611 1098.44 -35.35 1098.44 Q-31.7158 1098.44 -29.9102 1094.9 Q-28.0815 1091.34 -28.0815 1084.23 Q-28.0815 1077.1 -29.9102 1073.56 Q-31.7158 1070 -35.35 1070 M-35.35 1066.29 Q-29.5398 1066.29 -26.4843 1070.9 Q-23.4056 1075.48 -23.4056 1084.23 Q-23.4056 1092.96 -26.4843 1097.56 Q-29.5398 1102.15 -35.35 1102.15 Q-41.1602 1102.15 -44.2388 1097.56 Q-47.2944 1092.96 -47.2944 1084.23 Q-47.2944 1075.48 -44.2388 1070.9 Q-41.1602 1066.29 -35.35 1066.29 Z" fill="#000000" fill-rule="nonzero" fill-opacity="1" /><path clip-path="url(#clip730)" d="M-15.1881 1095.6 L-10.3038 1095.6 L-10.3038 1101.48 L-15.1881 1101.48 L-15.1881 1095.6 Z" fill="#000000" fill-rule="nonzero" fill-opacity="1" /><path clip-path="url(#clip730)" d="M9.88124 1070 Q6.27014 1070 4.44145 1073.56 Q2.6359 1077.1 2.6359 1084.23 Q2.6359 1091.34 4.44145 1094.9 Q6.27014 1098.44 9.88124 1098.44 Q13.5155 1098.44 15.321 1094.9 Q17.1497 1091.34 17.1497 1084.23 Q17.1497 1077.1 15.321 1073.56 Q13.5155 1070 9.88124 1070 M9.88124 1066.29 Q15.6914 1066.29 18.7469 1070.9 Q21.8256 1075.48 21.8256 1084.23 Q21.8256 1092.96 18.7469 1097.56 Q15.6914 1102.15 9.88124 1102.15 Q4.07108 1102.15 0.992394 1097.56 Q-2.06315 1092.96 -2.06315 1084.23 Q-2.06315 1075.48 0.992394 1070.9 Q4.07108 1066.29 9.88124 1066.29 Z" fill="#000000" fill-rule="nonzero" fill-opacity="1" /><path clip-path="url(#clip730)" d="M30.0895 1066.92 L48.4458 1066.92 L48.4458 1070.85 L34.3718 1070.85 L34.3718 1079.32 Q35.3904 1078.98 36.4089 1078.81 Q37.4274 1078.63 38.4459 1078.63 Q44.2329 1078.63 47.6125 1081.8 Q50.9921 1084.97 50.9921 1090.39 Q50.9921 1095.97 47.5199 1099.07 Q44.0477 1102.15 37.7283 1102.15 Q35.5524 1102.15 33.2839 1101.78 Q31.0385 1101.41 28.6311 1100.67 L28.6311 1095.97 Q30.7145 1097.1 32.9367 1097.66 Q35.1589 1098.21 37.6357 1098.21 Q41.6403 1098.21 43.9783 1096.11 Q46.3162 1094 46.3162 1090.39 Q46.3162 1086.78 43.9783 1084.67 Q41.6403 1082.56 37.6357 1082.56 Q35.7607 1082.56 33.8857 1082.98 Q32.0339 1083.4 30.0895 1084.28 L30.0895 1066.92 Z" fill="#000000" fill-rule="nonzero" fill-opacity="1" /><path clip-path="url(#clip730)" d="M-36.3454 736.94 Q-39.9565 736.94 -41.7852 740.505 Q-43.5907 744.046 -43.5907 751.176 Q-43.5907 758.282 -41.7852 761.847 Q-39.9565 765.389 -36.3454 765.389 Q-32.7111 765.389 -30.9056 761.847 Q-29.0769 758.282 -29.0769 751.176 Q-29.0769 744.046 -30.9056 740.505 Q-32.7111 736.94 -36.3454 736.94 M-36.3454 733.236 Q-30.5352 733.236 -27.4797 737.843 Q-24.401 742.426 -24.401 751.176 Q-24.401 759.903 -27.4797 764.509 Q-30.5352 769.093 -36.3454 769.093 Q-42.1555 769.093 -45.2342 764.509 Q-48.2897 759.903 -48.2897 751.176 Q-48.2897 742.426 -45.2342 737.843 Q-42.1555 733.236 -36.3454 733.236 Z" fill="#000000" fill-rule="nonzero" fill-opacity="1" /><path clip-path="url(#clip730)" d="M-16.1834 762.542 L-11.2992 762.542 L-11.2992 768.421 L-16.1834 768.421 L-16.1834 762.542 Z" fill="#000000" fill-rule="nonzero" fill-opacity="1" /><path clip-path="url(#clip730)" d="M-0.303895 764.486 L7.33495 764.486 L7.33495 738.12 L-0.975188 739.787 L-0.975188 735.528 L7.28866 733.861 L11.9646 733.861 L11.9646 764.486 L19.6034 764.486 L19.6034 768.421 L-0.303895 768.421 L-0.303895 764.486 Z" fill="#000000" fill-rule="nonzero" fill-opacity="1" /><path clip-path="url(#clip730)" d="M39.0477 736.94 Q35.4367 736.94 33.608 740.505 Q31.8024 744.046 31.8024 751.176 Q31.8024 758.282 33.608 761.847 Q35.4367 765.389 39.0477 765.389 Q42.682 765.389 44.4875 761.847 Q46.3162 758.282 46.3162 751.176 Q46.3162 744.046 44.4875 740.505 Q42.682 736.94 39.0477 736.94 M39.0477 733.236 Q44.8579 733.236 47.9134 737.843 Q50.9921 742.426 50.9921 751.176 Q50.9921 759.903 47.9134 764.509 Q44.8579 769.093 39.0477 769.093 Q33.2376 769.093 30.1589 764.509 Q27.1034 759.903 27.1034 751.176 Q27.1034 742.426 30.1589 737.843 Q33.2376 733.236 39.0477 733.236 Z" fill="#000000" fill-rule="nonzero" fill-opacity="1" /><path clip-path="url(#clip730)" d="M-35.35 403.885 Q-38.9611 403.885 -40.7898 407.449 Q-42.5953 410.991 -42.5953 418.121 Q-42.5953 425.227 -40.7898 428.792 Q-38.9611 432.333 -35.35 432.333 Q-31.7158 432.333 -29.9102 428.792 Q-28.0815 425.227 -28.0815 418.121 Q-28.0815 410.991 -29.9102 407.449 Q-31.7158 403.885 -35.35 403.885 M-35.35 400.181 Q-29.5398 400.181 -26.4843 404.787 Q-23.4056 409.371 -23.4056 418.121 Q-23.4056 426.847 -26.4843 431.454 Q-29.5398 436.037 -35.35 436.037 Q-41.1602 436.037 -44.2388 431.454 Q-47.2944 426.847 -47.2944 418.121 Q-47.2944 409.371 -44.2388 404.787 Q-41.1602 400.181 -35.35 400.181 Z" fill="#000000" fill-rule="nonzero" fill-opacity="1" /><path clip-path="url(#clip730)" d="M-15.1881 429.486 L-10.3038 429.486 L-10.3038 435.366 L-15.1881 435.366 L-15.1881 429.486 Z" fill="#000000" fill-rule="nonzero" fill-opacity="1" /><path clip-path="url(#clip730)" d="M0.69147 431.431 L8.33032 431.431 L8.33032 405.065 L0.0201769 406.732 L0.0201769 402.472 L8.28402 400.806 L12.9599 400.806 L12.9599 431.431 L20.5988 431.431 L20.5988 435.366 L0.69147 435.366 L0.69147 431.431 Z" fill="#000000" fill-rule="nonzero" fill-opacity="1" /><path clip-path="url(#clip730)" d="M30.0895 400.806 L48.4458 400.806 L48.4458 404.741 L34.3718 404.741 L34.3718 413.213 Q35.3904 412.866 36.4089 412.704 Q37.4274 412.519 38.4459 412.519 Q44.2329 412.519 47.6125 415.69 Q50.9921 418.861 50.9921 424.278 Q50.9921 429.857 47.5199 432.958 Q44.0477 436.037 37.7283 436.037 Q35.5524 436.037 33.2839 435.667 Q31.0385 435.296 28.6311 434.556 L28.6311 429.857 Q30.7145 430.991 32.9367 431.546 Q35.1589 432.102 37.6357 432.102 Q41.6403 432.102 43.9783 429.995 Q46.3162 427.889 46.3162 424.278 Q46.3162 420.667 43.9783 418.56 Q41.6403 416.454 37.6357 416.454 Q35.7607 416.454 33.8857 416.871 Q32.0339 417.287 30.0895 418.167 L30.0895 400.806 Z" fill="#000000" fill-rule="nonzero" fill-opacity="1" /><path clip-path="url(#clip730)" d="M-36.3454 70.8291 Q-39.9565 70.8291 -41.7852 74.3939 Q-43.5907 77.9355 -43.5907 85.0651 Q-43.5907 92.1715 -41.7852 95.7363 Q-39.9565 99.278 -36.3454 99.278 Q-32.7111 99.278 -30.9056 95.7363 Q-29.0769 92.1715 -29.0769 85.0651 Q-29.0769 77.9355 -30.9056 74.3939 Q-32.7111 70.8291 -36.3454 70.8291 M-36.3454 67.1254 Q-30.5352 67.1254 -27.4797 71.7318 Q-24.401 76.3151 -24.401 85.0651 Q-24.401 93.7919 -27.4797 98.3984 Q-30.5352 102.982 -36.3454 102.982 Q-42.1555 102.982 -45.2342 98.3984 Q-48.2897 93.7919 -48.2897 85.0651 Q-48.2897 76.3151 -45.2342 71.7318 Q-42.1555 67.1254 -36.3454 67.1254 Z" fill="#000000" fill-rule="nonzero" fill-opacity="1" /><path clip-path="url(#clip730)" d="M-16.1834 96.4308 L-11.2992 96.4308 L-11.2992 102.31 L-16.1834 102.31 L-16.1834 96.4308 Z" fill="#000000" fill-rule="nonzero" fill-opacity="1" /><path clip-path="url(#clip730)" d="M2.91368 98.3752 L19.233 98.3752 L19.233 102.31 L-2.71129 102.31 L-2.71129 98.3752 Q-0.0492672 95.6206 4.53404 90.991 Q9.1405 86.3382 10.321 84.9957 Q12.5664 82.4725 13.446 80.7364 Q14.3488 78.9772 14.3488 77.2874 Q14.3488 74.5327 12.4044 72.7966 Q10.4831 71.0605 7.38125 71.0605 Q5.18219 71.0605 2.7285 71.8244 Q0.297953 72.5883 -2.47981 74.1392 L-2.47981 69.417 Q0.344249 68.2828 2.79794 67.7041 Q5.25163 67.1254 7.28866 67.1254 Q12.659 67.1254 15.8534 69.8105 Q19.0479 72.4957 19.0479 76.9864 Q19.0479 79.1161 18.2377 81.0373 Q17.4506 82.9355 15.3442 85.5281 Q14.7655 86.1993 11.6636 89.4169 Q8.5618 92.6114 2.91368 98.3752 Z" fill="#000000" fill-rule="nonzero" fill-opacity="1" /><path clip-path="url(#clip730)" d="M39.0477 70.8291 Q35.4367 70.8291 33.608 74.3939 Q31.8024 77.9355 31.8024 85.0651 Q31.8024 92.1715 33.608 95.7363 Q35.4367 99.278 39.0477 99.278 Q42.682 99.278 44.4875 95.7363 Q46.3162 92.1715 46.3162 85.0651 Q46.3162 77.9355 44.4875 74.3939 Q42.682 70.8291 39.0477 70.8291 M39.0477 67.1254 Q44.8579 67.1254 47.9134 71.7318 Q50.9921 76.3151 50.9921 85.0651 Q50.9921 93.7919 47.9134 98.3984 Q44.8579 102.982 39.0477 102.982 Q33.2376 102.982 30.1589 98.3984 Q27.1034 93.7919 27.1034 85.0651 Q27.1034 76.3151 30.1589 71.7318 Q33.2376 67.1254 39.0477 67.1254 Z" fill="#000000" fill-rule="nonzero" fill-opacity="1" /><polyline clip-path="url(#clip732)" style="stroke:#009af9; stroke-linecap:round; stroke-linejoin:round; stroke-width:4; stroke-opacity:1; fill:none" points="86.9921,751.141 313.569,784.447 540.145,476.75 766.721,539.128 993.298,465.764 1219.87,648.18 1446.45,598.167 1673.03,140.572 1899.6,210.237 2126.18,88.5087 2352.76,444.753 "/>
<polyline clip-path="url(#clip732)" style="stroke:#e26f46; stroke-linecap:round; stroke-linejoin:round; stroke-width:4; stroke-opacity:1; fill:none" points="86.9921,1417.25 313.569,1362.52 540.145,1419.73 766.721,1398.34 993.298,1439 1219.87,1402.98 1446.45,1336.84 1673.03,1418.19 1899.6,1387.88 2126.18,1464 2352.76,1348.49 "/>
<path clip-path="url(#clip730)" d="M162.518 251.365 L412.288 251.365 L412.288 95.8446 L162.518 95.8446  Z" fill="#ffffff" fill-rule="evenodd" fill-opacity="1"/>
<polyline clip-path="url(#clip730)" style="stroke:#000000; stroke-linecap:round; stroke-linejoin:round; stroke-width:4; stroke-opacity:1; fill:none" points="162.518,251.365 412.288,251.365 412.288,95.8446 162.518,95.8446 162.518,251.365 "/>
<polyline clip-path="url(#clip730)" style="stroke:#009af9; stroke-linecap:round; stroke-linejoin:round; stroke-width:4; stroke-opacity:1; fill:none" points="187.693,147.685 338.744,147.685 "/>
<path clip-path="url(#clip730)" d="M377.322 151.932 Q372.16 151.932 370.169 153.113 Q368.178 154.293 368.178 157.141 Q368.178 159.409 369.66 160.752 Q371.164 162.071 373.734 162.071 Q377.275 162.071 379.405 159.571 Q381.558 157.048 381.558 152.881 L381.558 151.932 L377.322 151.932 M385.817 150.173 L385.817 164.965 L381.558 164.965 L381.558 161.029 Q380.099 163.391 377.923 164.525 Q375.747 165.636 372.599 165.636 Q368.618 165.636 366.257 163.414 Q363.919 161.168 363.919 157.418 Q363.919 153.043 366.835 150.821 Q369.775 148.599 375.585 148.599 L381.558 148.599 L381.558 148.182 Q381.558 145.243 379.613 143.645 Q377.692 142.025 374.197 142.025 Q371.974 142.025 369.868 142.557 Q367.761 143.09 365.817 144.155 L365.817 140.219 Q368.155 139.317 370.354 138.877 Q372.553 138.414 374.636 138.414 Q380.261 138.414 383.039 141.33 Q385.817 144.247 385.817 150.173 Z" fill="#000000" fill-rule="nonzero" fill-opacity="1" /><polyline clip-path="url(#clip730)" style="stroke:#e26f46; stroke-linecap:round; stroke-linejoin:round; stroke-width:4; stroke-opacity:1; fill:none" points="187.693,199.525 338.744,199.525 "/>
<path clip-path="url(#clip730)" d="M382.692 203.865 Q382.692 199.166 380.747 196.504 Q378.826 193.819 375.447 193.819 Q372.067 193.819 370.122 196.504 Q368.201 199.166 368.201 203.865 Q368.201 208.564 370.122 211.249 Q372.067 213.911 375.447 213.911 Q378.826 213.911 380.747 211.249 Q382.692 208.564 382.692 203.865 M368.201 194.814 Q369.544 192.499 371.581 191.388 Q373.641 190.254 376.488 190.254 Q381.21 190.254 384.15 194.004 Q387.113 197.754 387.113 203.865 Q387.113 209.976 384.15 213.726 Q381.21 217.476 376.488 217.476 Q373.641 217.476 371.581 216.365 Q369.544 215.231 368.201 212.916 L368.201 216.805 L363.919 216.805 L363.919 180.786 L368.201 180.786 L368.201 194.814 Z" fill="#000000" fill-rule="nonzero" fill-opacity="1" /></svg>
