<?xml version="1.0" encoding="utf-8"?>
<svg xmlns="http://www.w3.org/2000/svg" xmlns:xlink="http://www.w3.org/1999/xlink" width="600" height="400" viewBox="0 0 2400 1600">
<defs>
  <clipPath id="clip670">
    <rect x="0" y="0" width="2400" height="1600"/>
  </clipPath>
</defs>
<path clip-path="url(#clip670)" d="M0 1600 L2400 1600 L2400 0 L0 0  Z" fill="#ffffff" fill-rule="evenodd" fill-opacity="1"/>
<defs>
  <clipPath id="clip671">
    <rect x="480" y="0" width="1681" height="1600"/>
  </clipPath>
</defs>
<path clip-path="url(#clip670)" d="M86.9921 1505.26 L2352.76 1505.26 L2352.76 47.2441 L86.9921 47.2441  Z" fill="#ffffff" fill-rule="evenodd" fill-opacity="1"/>
<defs>
  <clipPath id="clip672">
    <rect x="86" y="47" width="2267" height="1459"/>
  </clipPath>
</defs>
<polyline clip-path="url(#clip672)" style="stroke:#000000; stroke-linecap:round; stroke-linejoin:round; stroke-width:2; stroke-opacity:0.1; fill:none" points="86.9921,1505.26 86.9921,47.2441 "/>
<polyline clip-path="url(#clip672)" style="stroke:#000000; stroke-linecap:round; stroke-linejoin:round; stroke-width:2; stroke-opacity:0.1; fill:none" points="540.145,1505.26 540.145,47.2441 "/>
<polyline clip-path="url(#clip672)" style="stroke:#000000; stroke-linecap:round; stroke-linejoin:round; stroke-width:2; stroke-opacity:0.1; fill:none" points="993.298,1505.26 993.298,47.2441 "/>
<polyline clip-path="url(#clip672)" style="stroke:#000000; stroke-linecap:round; stroke-linejoin:round; stroke-width:2; stroke-opacity:0.1; fill:none" points="1446.45,1505.26 1446.45,47.2441 "/>
<polyline clip-path="url(#clip672)" style="stroke:#000000; stroke-linecap:round; stroke-linejoin:round; stroke-width:2; stroke-opacity:0.1; fill:none" points="1899.6,1505.26 1899.6,47.2441 "/>
<polyline clip-path="url(#clip672)" style="stroke:#000000; stroke-linecap:round; stroke-linejoin:round; stroke-width:2; stroke-opacity:0.1; fill:none" points="2352.76,1505.26 2352.76,47.2441 "/>
<polyline clip-path="url(#clip670)" style="stroke:#000000; stroke-linecap:round; stroke-linejoin:round; stroke-width:4; stroke-opacity:1; fill:none" points="86.9921,1505.26 2352.76,1505.26 "/>
<polyline clip-path="url(#clip670)" style="stroke:#000000; stroke-linecap:round; stroke-linejoin:round; stroke-width:4; stroke-opacity:1; fill:none" points="86.9921,1505.26 86.9921,1486.36 "/>
<polyline clip-path="url(#clip670)" style="stroke:#000000; stroke-linecap:round; stroke-linejoin:round; stroke-width:4; stroke-opacity:1; fill:none" points="540.145,1505.26 540.145,1486.36 "/>
<polyline clip-path="url(#clip670)" style="stroke:#000000; stroke-linecap:round; stroke-linejoin:round; stroke-width:4; stroke-opacity:1; fill:none" points="993.298,1505.26 993.298,1486.36 "/>
<polyline clip-path="url(#clip670)" style="stroke:#000000; stroke-linecap:round; stroke-linejoin:round; stroke-width:4; stroke-opacity:1; fill:none" points="1446.45,1505.26 1446.45,1486.36 "/>
<polyline clip-path="url(#clip670)" style="stroke:#000000; stroke-linecap:round; stroke-linejoin:round; stroke-width:4; stroke-opacity:1; fill:none" points="1899.6,1505.26 1899.6,1486.36 "/>
<polyline clip-path="url(#clip670)" style="stroke:#000000; stroke-linecap:round; stroke-linejoin:round; stroke-width:4; stroke-opacity:1; fill:none" points="2352.76,1505.26 2352.76,1486.36 "/>
<path clip-path="url(#clip670)" d="M86.9921 1536.18 Q83.381 1536.18 81.5523 1539.74 Q79.7468 1543.28 79.7468 1550.41 Q79.7468 1557.52 81.5523 1561.09 Q83.381 1564.63 86.9921 1564.63 Q90.6264 1564.63 92.4319 1561.09 Q94.2606 1557.52 94.2606 1550.41 Q94.2606 1543.28 92.4319 1539.74 Q90.6264 1536.18 86.9921 1536.18 M86.9921 1532.47 Q92.8023 1532.47 95.8578 1537.08 Q98.9365 1541.66 98.9365 1550.41 Q98.9365 1559.14 95.8578 1563.75 Q92.8023 1568.33 86.9921 1568.33 Q81.182 1568.33 78.1033 1563.75 Q75.0477 1559.14 75.0477 1550.41 Q75.0477 1541.66 78.1033 1537.08 Q81.182 1532.47 86.9921 1532.47 Z" fill="#000000" fill-rule="nonzero" fill-opacity="1" /><path clip-path="url(#clip670)" d="M534.798 1563.72 L551.117 1563.72 L551.117 1567.66 L529.173 1567.66 L529.173 1563.72 Q531.835 1560.97 536.418 1556.34 Q541.025 1551.69 542.205 1550.35 Q544.45 1547.82 545.33 1546.09 Q546.233 1544.33 546.233 1542.64 Q546.233 1539.88 544.288 1538.15 Q542.367 1536.41 539.265 1536.41 Q537.066 1536.41 534.613 1537.17 Q532.182 1537.94 529.404 1539.49 L529.404 1534.77 Q532.228 1533.63 534.682 1533.05 Q537.136 1532.47 539.173 1532.47 Q544.543 1532.47 547.737 1535.16 Q550.932 1537.85 550.932 1542.34 Q550.932 1544.47 550.122 1546.39 Q549.335 1548.28 547.228 1550.88 Q546.649 1551.55 543.548 1554.77 Q540.446 1557.96 534.798 1563.72 Z" fill="#000000" fill-rule="nonzero" fill-opacity="1" /><path clip-path="url(#clip670)" d="M996.307 1537.17 L984.501 1555.62 L996.307 1555.62 L996.307 1537.17 M995.08 1533.1 L1000.96 1533.1 L1000.96 1555.62 L1005.89 1555.62 L1005.89 1559.51 L1000.96 1559.51 L1000.96 1567.66 L996.307 1567.66 L996.307 1559.51 L980.705 1559.51 L980.705 1555 L995.08 1533.1 Z" fill="#000000" fill-rule="nonzero" fill-opacity="1" /><path clip-path="url(#clip670)" d="M1446.86 1548.52 Q1443.71 1548.52 1441.86 1550.67 Q1440.03 1552.82 1440.03 1556.57 Q1440.03 1560.3 1441.86 1562.47 Q1443.71 1564.63 1446.86 1564.63 Q1450 1564.63 1451.83 1562.47 Q1453.68 1560.3 1453.68 1556.57 Q1453.68 1552.82 1451.83 1550.67 Q1450 1548.52 1446.86 1548.52 M1456.14 1533.86 L1456.14 1538.12 Q1454.38 1537.29 1452.57 1536.85 Q1450.79 1536.41 1449.03 1536.41 Q1444.4 1536.41 1441.95 1539.53 Q1439.52 1542.66 1439.17 1548.98 Q1440.54 1546.97 1442.6 1545.9 Q1444.66 1544.81 1447.13 1544.81 Q1452.34 1544.81 1455.35 1547.98 Q1458.38 1551.13 1458.38 1556.57 Q1458.38 1561.9 1455.24 1565.11 Q1452.09 1568.33 1446.86 1568.33 Q1440.86 1568.33 1437.69 1563.75 Q1434.52 1559.14 1434.52 1550.41 Q1434.52 1542.22 1438.41 1537.36 Q1442.3 1532.47 1448.85 1532.47 Q1450.61 1532.47 1452.39 1532.82 Q1454.19 1533.17 1456.14 1533.86 Z" fill="#000000" fill-rule="nonzero" fill-opacity="1" /><path clip-path="url(#clip670)" d="M1899.6 1551.25 Q1896.27 1551.25 1894.35 1553.03 Q1892.45 1554.81 1892.45 1557.94 Q1892.45 1561.06 1894.35 1562.85 Q1896.27 1564.63 1899.6 1564.63 Q1902.94 1564.63 1904.86 1562.85 Q1906.78 1561.04 1906.78 1557.94 Q1906.78 1554.81 1904.86 1553.03 Q1902.96 1551.25 1899.6 1551.25 M1894.93 1549.26 Q1891.92 1548.52 1890.23 1546.46 Q1888.56 1544.4 1888.56 1541.43 Q1888.56 1537.29 1891.5 1534.88 Q1894.46 1532.47 1899.6 1532.47 Q1904.77 1532.47 1907.7 1534.88 Q1910.64 1537.29 1910.64 1541.43 Q1910.64 1544.4 1908.95 1546.46 Q1907.29 1548.52 1904.3 1549.26 Q1907.68 1550.04 1909.56 1552.34 Q1911.45 1554.63 1911.45 1557.94 Q1911.45 1562.96 1908.38 1565.65 Q1905.32 1568.33 1899.6 1568.33 Q1893.89 1568.33 1890.81 1565.65 Q1887.75 1562.96 1887.75 1557.94 Q1887.75 1554.63 1889.65 1552.34 Q1891.55 1550.04 1894.93 1549.26 M1893.21 1541.87 Q1893.21 1544.56 1894.88 1546.06 Q1896.57 1547.57 1899.6 1547.57 Q1902.61 1547.57 1904.3 1546.06 Q1906.02 1544.56 1906.02 1541.87 Q1906.02 1539.19 1904.3 1537.68 Q1902.61 1536.18 1899.6 1536.18 Q1896.57 1536.18 1894.88 1537.68 Q1893.21 1539.19 1893.21 1541.87 Z" fill="#000000" fill-rule="nonzero" fill-opacity="1" /><path clip-path="url(#clip670)" d="M2327.44 1563.72 L2335.08 1563.72 L2335.08 1537.36 L2326.77 1539.03 L2326.77 1534.77 L2335.04 1533.1 L2339.71 1533.1 L2339.71 1563.72 L2347.35 1563.72 L2347.35 1567.66 L2327.44 1567.66 L2327.44 1563.72 Z" fill="#000000" fill-rule="nonzero" fill-opacity="1" /><path clip-path="url(#clip670)" d="M2366.8 1536.18 Q2363.18 1536.18 2361.36 1539.74 Q2359.55 1543.28 2359.55 1550.41 Q2359.55 1557.52 2361.36 1561.09 Q2363.18 1564.63 2366.8 1564.63 Q2370.43 1564.63 2372.23 1561.09 Q2374.06 1557.52 2374.06 1550.41 Q2374.06 1543.28 2372.23 1539.74 Q2370.43 1536.18 2366.8 1536.18 M2366.8 1532.47 Q2372.61 1532.47 2375.66 1537.08 Q2378.74 1541.66 2378.74 1550.41 Q2378.74 1559.14 2375.66 1563.75 Q2372.61 1568.33 2366.8 1568.33 Q2360.99 1568.33 2357.91 1563.75 Q2354.85 1559.14 2354.85 1550.41 Q2354.85 1541.66 2357.91 1537.08 Q2360.99 1532.47 2366.8 1532.47 Z" fill="#000000" fill-rule="nonzero" fill-opacity="1" /><path clip-path="url(#clip670)" d="M1218.94 1604.35 L1218.94 1614.48 L1231 1614.48 L1231 1619.03 L1218.94 1619.03 L1218.94 1638.38 Q1218.94 1642.74 1220.11 1643.98 Q1221.32 1645.22 1224.98 1645.22 L1231 1645.22 L1231 1650.12 L1224.98 1650.12 Q1218.2 1650.12 1215.62 1647.61 Q1213.05 1645.06 1213.05 1638.38 L1213.05 1619.03 L1208.75 1619.03 L1208.75 1614.48 L1213.05 1614.48 L1213.05 1604.35 L1218.94 1604.35 Z" fill="#000000" fill-rule="nonzero" fill-opacity="1" /><polyline clip-path="url(#clip672)" style="stroke:#000000; stroke-linecap:round; stroke-linejoin:round; stroke-width:2; stroke-opacity:0.1; fill:none" points="86.9921,1396.72 2352.76,1396.72 "/>
<polyline clip-path="url(#clip672)" style="stroke:#000000; stroke-linecap:round; stroke-linejoin:round; stroke-width:2; stroke-opacity:0.1; fill:none" points="86.9921,1109.1 2352.76,1109.1 "/>
<polyline clip-path="url(#clip672)" style="stroke:#000000; stroke-linecap:round; stroke-linejoin:round; stroke-width:2; stroke-opacity:0.1; fill:none" points="86.9921,821.483 2352.76,821.483 "/>
<polyline clip-path="url(#clip672)" style="stroke:#000000; stroke-linecap:round; stroke-linejoin:round; stroke-width:2; stroke-opacity:0.1; fill:none" points="86.9921,533.865 2352.76,533.865 "/>
<polyline clip-path="url(#clip672)" style="stroke:#000000; stroke-linecap:round; stroke-linejoin:round; stroke-width:2; stroke-opacity:0.1; fill:none" points="86.9921,246.247 2352.76,246.247 "/>
<polyline clip-path="url(#clip670)" style="stroke:#000000; stroke-linecap:round; stroke-linejoin:round; stroke-width:4; stroke-opacity:1; fill:none" points="86.9921,1505.26 86.9921,47.2441 "/>
<polyline clip-path="url(#clip670)" style="stroke:#000000; stroke-linecap:round; stroke-linejoin:round; stroke-width:4; stroke-opacity:1; fill:none" points="86.9921,1396.72 105.89,1396.72 "/>
<polyline clip-path="url(#clip670)" style="stroke:#000000; stroke-linecap:round; stroke-linejoin:round; stroke-width:4; stroke-opacity:1; fill:none" points="86.9921,1109.1 105.89,1109.1 "/>
<polyline clip-path="url(#clip670)" style="stroke:#000000; stroke-linecap:round; stroke-linejoin:round; stroke-width:4; stroke-opacity:1; fill:none" points="86.9921,821.483 105.89,821.483 "/>
<polyline clip-path="url(#clip670)" style="stroke:#000000; stroke-linecap:round; stroke-linejoin:round; stroke-width:4; stroke-opacity:1; fill:none" points="86.9921,533.865 105.89,533.865 "/>
<polyline clip-path="url(#clip670)" style="stroke:#000000; stroke-linecap:round; stroke-linejoin:round; stroke-width:4; stroke-opacity:1; fill:none" points="86.9921,246.247 105.89,246.247 "/>
<path clip-path="url(#clip670)" d="M-36.3454 1382.52 Q-39.9565 1382.52 -41.7852 1386.08 Q-43.5907 1389.62 -43.5907 1396.75 Q-43.5907 1403.86 -41.7852 1407.42 Q-39.9565 1410.97 -36.3454 1410.97 Q-32.7111 1410.97 -30.9056 1407.42 Q-29.0769 1403.86 -29.0769 1396.75 Q-29.0769 1389.62 -30.9056 1386.08 Q-32.7111 1382.52 -36.3454 1382.52 M-36.3454 1378.81 Q-30.5352 1378.81 -27.4797 1383.42 Q-24.401 1388 -24.401 1396.75 Q-24.401 1405.48 -27.4797 1410.09 Q-30.5352 1414.67 -36.3454 1414.67 Q-42.1555 1414.67 -45.2342 1410.09 Q-48.2897 1405.48 -48.2897 1396.75 Q-48.2897 1388 -45.2342 1383.42 Q-42.1555 1378.81 -36.3454 1378.81 Z" fill="#000000" fill-rule="nonzero" fill-opacity="1" /><path clip-path="url(#clip670)" d="M-16.1834 1408.12 L-11.2992 1408.12 L-11.2992 1414 L-16.1834 1414 L-16.1834 1408.12 Z" fill="#000000" fill-rule="nonzero" fill-opacity="1" /><path clip-path="url(#clip670)" d="M8.88587 1382.52 Q5.27478 1382.52 3.44608 1386.08 Q1.64054 1389.62 1.64054 1396.75 Q1.64054 1403.86 3.44608 1407.42 Q5.27478 1410.97 8.88587 1410.97 Q12.5201 1410.97 14.3257 1407.42 Q16.1543 1403.86 16.1543 1396.75 Q16.1543 1389.62 14.3257 1386.08 Q12.5201 1382.52 8.88587 1382.52 M8.88587 1378.81 Q14.696 1378.81 17.7516 1383.42 Q20.8303 1388 20.8303 1396.75 Q20.8303 1405.48 17.7516 1410.09 Q14.696 1414.67 8.88587 1414.67 Q3.07572 1414.67 -0.00297114 1410.09 Q-3.05851 1405.48 -3.05851 1396.75 Q-3.05851 1388 -0.00297114 1383.42 Q3.07572 1378.81 8.88587 1378.81 Z" fill="#000000" fill-rule="nonzero" fill-opacity="1" /><path clip-path="url(#clip670)" d="M39.0477 1382.52 Q35.4367 1382.52 33.608 1386.08 Q31.8024 1389.62 31.8024 1396.75 Q31.8024 1403.86 33.608 1407.42 Q35.4367 1410.97 39.0477 1410.97 Q42.682 1410.97 44.4875 1407.42 Q46.3162 1403.86 46.3162 1396.75 Q46.3162 1389.62 44.4875 1386.08 Q42.682 1382.52 39.0477 1382.52 M39.0477 1378.81 Q44.8579 1378.81 47.9134 1383.42 Q50.9921 1388 50.9921 1396.75 Q50.9921 1405.48 47.9134 1410.09 Q44.8579 1414.67 39.0477 1414.67 Q33.2376 1414.67 30.1589 1410.09 Q27.1034 1405.48 27.1034 1396.75 Q27.1034 1388 30.1589 1383.42 Q33.2376 1378.81 39.0477 1378.81 Z" fill="#000000" fill-rule="nonzero" fill-opacity="1" /><path clip-path="url(#clip670)" d="M-35.6972 1094.9 Q-39.3083 1094.9 -41.137 1098.46 Q-42.9426 1102.01 -42.9426 1109.14 Q-42.9426 1116.24 -41.137 1119.81 Q-39.3083 1123.35 -35.6972 1123.35 Q-32.063 1123.35 -30.2574 1119.81 Q-28.4287 1116.24 -28.4287 1109.14 Q-28.4287 1102.01 -30.2574 1098.46 Q-32.063 1094.9 -35.6972 1094.9 M-35.6972 1091.2 Q-29.8871 1091.2 -26.8315 1095.8 Q-23.7528 1100.39 -23.7528 1109.14 Q-23.7528 1117.86 -26.8315 1122.47 Q-29.8871 1127.05 -35.6972 1127.05 Q-41.5074 1127.05 -44.5861 1122.47 Q-47.6416 1117.86 -47.6416 1109.14 Q-47.6416 1100.39 -44.5861 1095.8 Q-41.5074 1091.2 -35.6972 1091.2 Z" fill="#000000" fill-rule="nonzero" fill-opacity="1" /><path clip-path="url(#clip670)" d="M-15.5353 1120.5 L-10.6511 1120.5 L-10.6511 1126.38 L-15.5353 1126.38 L-15.5353 1120.5 Z" fill="#000000" fill-rule="nonzero" fill-opacity="1" /><path clip-path="url(#clip670)" d="M9.53401 1094.9 Q5.92292 1094.9 4.09423 1098.46 Q2.28868 1102.01 2.28868 1109.14 Q2.28868 1116.24 4.09423 1119.81 Q5.92292 1123.35 9.53401 1123.35 Q13.1683 1123.35 14.9738 1119.81 Q16.8025 1116.24 16.8025 1109.14 Q16.8025 1102.01 14.9738 1098.46 Q13.1683 1094.9 9.53401 1094.9 M9.53401 1091.2 Q15.3442 1091.2 18.3997 1095.8 Q21.4784 1100.39 21.4784 1109.14 Q21.4784 1117.86 18.3997 1122.47 Q15.3442 1127.05 9.53401 1127.05 Q3.72386 1127.05 0.645174 1122.47 Q-2.41037 1117.86 -2.41037 1109.14 Q-2.41037 1100.39 0.645174 1095.8 Q3.72386 1091.2 9.53401 1091.2 Z" fill="#000000" fill-rule="nonzero" fill-opacity="1" /><path clip-path="url(#clip670)" d="M43.8625 1107.75 Q47.219 1108.46 49.094 1110.73 Q50.9921 1113 50.9921 1116.33 Q50.9921 1121.45 47.4736 1124.25 Q43.9551 1127.05 37.4737 1127.05 Q35.2978 1127.05 32.983 1126.61 Q30.6913 1126.2 28.2376 1125.34 L28.2376 1120.82 Q30.1821 1121.96 32.4969 1122.54 Q34.8117 1123.12 37.3348 1123.12 Q41.7329 1123.12 44.0246 1121.38 Q46.3394 1119.64 46.3394 1116.33 Q46.3394 1113.28 44.1866 1111.57 Q42.057 1109.83 38.2376 1109.83 L34.2098 1109.83 L34.2098 1105.99 L38.4227 1105.99 Q41.8718 1105.99 43.7005 1104.62 Q45.5292 1103.23 45.5292 1100.64 Q45.5292 1097.98 43.6311 1096.57 Q41.7561 1095.13 38.2376 1095.13 Q36.3163 1095.13 34.1172 1095.55 Q31.9182 1095.96 29.2793 1096.84 L29.2793 1092.68 Q31.9413 1091.94 34.2561 1091.57 Q36.5941 1091.2 38.6542 1091.2 Q43.9783 1091.2 47.0801 1093.63 Q50.1819 1096.03 50.1819 1100.15 Q50.1819 1103.02 48.5384 1105.01 Q46.8949 1106.98 43.8625 1107.75 Z" fill="#000000" fill-rule="nonzero" fill-opacity="1" /><path clip-path="url(#clip670)" d="M-36.5074 807.281 Q-40.1185 807.281 -41.9472 810.846 Q-43.7527 814.388 -43.7527 821.517 Q-43.7527 828.624 -41.9472 832.189 Q-40.1185 835.73 -36.5074 835.73 Q-32.8732 835.73 -31.0676 832.189 Q-29.2389 828.624 -29.2389 821.517 Q-29.2389 814.388 -31.0676 810.846 Q-32.8732 807.281 -36.5074 807.281 M-36.5074 803.578 Q-30.6973 803.578 -27.6417 808.184 Q-24.563 812.767 -24.563 821.517 Q-24.563 830.244 -27.6417 834.851 Q-30.6973 839.434 -36.5074 839.434 Q-42.3176 839.434 -45.3962 834.851 Q-48.4518 830.244 -48.4518 821.517 Q-48.4518 812.767 -45.3962 808.184 Q-42.3176 803.578 -36.5074 803.578 Z" fill="#000000" fill-rule="nonzero" fill-opacity="1" /><path clip-path="url(#clip670)" d="M-16.3455 832.883 L-11.4612 832.883 L-11.4612 838.763 L-16.3455 838.763 L-16.3455 832.883 Z" fill="#000000" fill-rule="nonzero" fill-opacity="1" /><path clip-path="url(#clip670)" d="M8.72383 807.281 Q5.11274 807.281 3.28405 810.846 Q1.4785 814.388 1.4785 821.517 Q1.4785 828.624 3.28405 832.189 Q5.11274 835.73 8.72383 835.73 Q12.3581 835.73 14.1636 832.189 Q15.9923 828.624 15.9923 821.517 Q15.9923 814.388 14.1636 810.846 Q12.3581 807.281 8.72383 807.281 M8.72383 803.578 Q14.534 803.578 17.5895 808.184 Q20.6682 812.767 20.6682 821.517 Q20.6682 830.244 17.5895 834.851 Q14.534 839.434 8.72383 839.434 Q2.91368 839.434 -0.165007 834.851 Q-3.22055 830.244 -3.22055 821.517 Q-3.22055 812.767 -0.165007 808.184 Q2.91368 803.578 8.72383 803.578 Z" fill="#000000" fill-rule="nonzero" fill-opacity="1" /><path clip-path="url(#clip670)" d="M39.4644 819.619 Q36.3163 819.619 34.4644 821.772 Q32.6357 823.925 32.6357 827.675 Q32.6357 831.402 34.4644 833.577 Q36.3163 835.73 39.4644 835.73 Q42.6125 835.73 44.4412 833.577 Q46.2931 831.402 46.2931 827.675 Q46.2931 823.925 44.4412 821.772 Q42.6125 819.619 39.4644 819.619 M48.7468 804.966 L48.7468 809.226 Q46.9875 808.392 45.182 807.953 Q43.3996 807.513 41.6403 807.513 Q37.0107 807.513 34.557 810.638 Q32.1265 813.763 31.7793 820.082 Q33.145 818.068 35.2052 817.003 Q37.2653 815.915 39.7422 815.915 Q44.9505 815.915 47.9597 819.087 Q50.9921 822.235 50.9921 827.675 Q50.9921 832.999 47.844 836.216 Q44.6959 839.434 39.4644 839.434 Q33.4691 839.434 30.2978 834.851 Q27.1265 830.244 27.1265 821.517 Q27.1265 813.323 31.0154 808.462 Q34.9042 803.578 41.4551 803.578 Q43.2144 803.578 44.9968 803.925 Q46.8023 804.272 48.7468 804.966 Z" fill="#000000" fill-rule="nonzero" fill-opacity="1" /><path clip-path="url(#clip670)" d="M-36.1602 519.663 Q-39.7713 519.663 -41.6 523.228 Q-43.4055 526.77 -43.4055 533.899 Q-43.4055 541.006 -41.6 544.571 Q-39.7713 548.112 -36.1602 548.112 Q-32.5259 548.112 -30.7204 544.571 Q-28.8917 541.006 -28.8917 533.899 Q-28.8917 526.77 -30.7204 523.228 Q-32.5259 519.663 -36.1602 519.663 M-36.1602 515.96 Q-30.35 515.96 -27.2945 520.566 Q-24.2158 525.149 -24.2158 533.899 Q-24.2158 542.626 -27.2945 547.233 Q-30.35 551.816 -36.1602 551.816 Q-41.9703 551.816 -45.049 547.233 Q-48.1046 542.626 -48.1046 533.899 Q-48.1046 525.149 -45.049 520.566 Q-41.9703 515.96 -36.1602 515.96 Z" fill="#000000" fill-rule="nonzero" fill-opacity="1" /><path clip-path="url(#clip670)" d="M-15.9983 545.265 L-11.114 545.265 L-11.114 551.145 L-15.9983 551.145 L-15.9983 545.265 Z" fill="#000000" fill-rule="nonzero" fill-opacity="1" /><path clip-path="url(#clip670)" d="M9.07105 519.663 Q5.45996 519.663 3.63127 523.228 Q1.82572 526.77 1.82572 533.899 Q1.82572 541.006 3.63127 544.571 Q5.45996 548.112 9.07105 548.112 Q12.7053 548.112 14.5108 544.571 Q16.3395 541.006 16.3395 533.899 Q16.3395 526.77 14.5108 523.228 Q12.7053 519.663 9.07105 519.663 M9.07105 515.96 Q14.8812 515.96 17.9367 520.566 Q21.0154 525.149 21.0154 533.899 Q21.0154 542.626 17.9367 547.233 Q14.8812 551.816 9.07105 551.816 Q3.2609 551.816 0.182213 547.233 Q-2.87333 542.626 -2.87333 533.899 Q-2.87333 525.149 0.182213 520.566 Q3.2609 515.96 9.07105 515.96 Z" fill="#000000" fill-rule="nonzero" fill-opacity="1" /><path clip-path="url(#clip670)" d="M29.3719 550.427 L29.3719 546.168 Q31.1311 547.001 32.9367 547.441 Q34.7422 547.881 36.4783 547.881 Q41.1079 547.881 43.5385 544.779 Q45.9922 541.654 46.3394 535.311 Q44.9968 537.302 42.9366 538.367 Q40.8764 539.432 38.3765 539.432 Q33.1913 539.432 30.1589 536.307 Q27.1497 533.159 27.1497 527.719 Q27.1497 522.395 30.2978 519.177 Q33.4459 515.96 38.6774 515.96 Q44.6727 515.96 47.8208 520.566 Q50.9921 525.149 50.9921 533.899 Q50.9921 542.071 47.1033 546.955 Q43.2375 551.816 36.6866 551.816 Q34.9274 551.816 33.1219 551.469 Q31.3163 551.122 29.3719 550.427 M38.6774 535.774 Q41.8255 535.774 43.6542 533.622 Q45.506 531.469 45.506 527.719 Q45.506 523.992 43.6542 521.839 Q41.8255 519.663 38.6774 519.663 Q35.5292 519.663 33.6774 521.839 Q31.8487 523.992 31.8487 527.719 Q31.8487 531.469 33.6774 533.622 Q35.5292 535.774 38.6774 535.774 Z" fill="#000000" fill-rule="nonzero" fill-opacity="1" /><path clip-path="url(#clip670)" d="M-34.7482 232.045 Q-38.3592 232.045 -40.1879 235.61 Q-41.9935 239.152 -41.9935 246.281 Q-41.9935 253.388 -40.1879 256.953 Q-38.3592 260.494 -34.7482 260.494 Q-31.1139 260.494 -29.3084 256.953 Q-27.4797 253.388 -27.4797 246.281 Q-27.4797 239.152 -29.3084 235.61 Q-31.1139 232.045 -34.7482 232.045 M-34.7482 228.342 Q-28.938 228.342 -25.8825 232.948 Q-22.8038 237.532 -22.8038 246.281 Q-22.8038 255.008 -25.8825 259.615 Q-28.938 264.198 -34.7482 264.198 Q-40.5583 264.198 -43.637 259.615 Q-46.6925 255.008 -46.6925 246.281 Q-46.6925 237.532 -43.637 232.948 Q-40.5583 228.342 -34.7482 228.342 Z" fill="#000000" fill-rule="nonzero" fill-opacity="1" /><path clip-path="url(#clip670)" d="M-14.5862 257.647 L-9.70199 257.647 L-9.70199 263.527 L-14.5862 263.527 L-14.5862 257.647 Z" fill="#000000" fill-rule="nonzero" fill-opacity="1" /><path clip-path="url(#clip670)" d="M1.29332 259.592 L8.93217 259.592 L8.93217 233.226 L0.622026 234.893 L0.622026 230.633 L8.88587 228.967 L13.5618 228.967 L13.5618 259.592 L21.2006 259.592 L21.2006 263.527 L1.29332 263.527 L1.29332 259.592 Z" fill="#000000" fill-rule="nonzero" fill-opacity="1" /><path clip-path="url(#clip670)" d="M34.6728 259.592 L50.9921 259.592 L50.9921 263.527 L29.0478 263.527 L29.0478 259.592 Q31.7098 256.837 36.2931 252.207 Q40.8996 247.555 42.0801 246.212 Q44.3255 243.689 45.2051 241.953 Q46.1079 240.194 46.1079 238.504 Q46.1079 235.749 44.1635 234.013 Q42.2422 232.277 39.1403 232.277 Q36.9413 232.277 34.4876 233.041 Q32.057 233.805 29.2793 235.356 L29.2793 230.633 Q32.1033 229.499 34.557 228.92 Q37.0107 228.342 39.0477 228.342 Q44.4181 228.342 47.6125 231.027 Q50.8069 233.712 50.8069 238.203 Q50.8069 240.332 49.9968 242.254 Q49.2097 244.152 47.1033 246.744 Q46.5246 247.416 43.4227 250.633 Q40.3209 253.828 34.6728 259.592 Z" fill="#000000" fill-rule="nonzero" fill-opacity="1" /><polyline clip-path="url(#clip672)" style="stroke:#009af9; stroke-linecap:round; stroke-linejoin:round; stroke-width:4; stroke-opacity:1; fill:none" points="86.9921,1396.72 313.569,1396.72 540.145,908.314 766.721,954.832 993.298,808.14 1219.87,1031.64 1446.45,922.57 1673.03,228.721 1899.6,295.513 2126.18,88.5087 2352.76,571.036 "/>
<polyline clip-path="url(#clip672)" style="stroke:#e26f46; stroke-linecap:round; stroke-linejoin:round; stroke-width:4; stroke-opacity:1; fill:none" points="86.9921,1396.72 313.569,1317.94 540.145,1400.28 766.721,1369.49 993.298,1428.02 1219.87,1376.18 1446.45,1280.98 1673.03,1398.07 1899.6,1354.45 2126.18,1464 2352.76,1297.76 "/>
<path clip-path="url(#clip670)" d="M162.518 251.365 L412.288 251.365 L412.288 95.8446 L162.518 95.8446  Z" fill="#ffffff" fill-rule="evenodd" fill-opacity="1"/>
<polyline clip-path="url(#clip670)" style="stroke:#000000; stroke-linecap:round; stroke-linejoin:round; stroke-width:4; stroke-opacity:1; fill:none" points="162.518,251.365 412.288,251.365 412.288,95.8446 162.518,95.8446 162.518,251.365 "/>
<polyline clip-path="url(#clip670)" style="stroke:#009af9; stroke-linecap:round; stroke-linejoin:round; stroke-width:4; stroke-opacity:1; fill:none" points="187.693,147.685 338.744,147.685 "/>
<path clip-path="url(#clip670)" d="M377.322 151.932 Q372.16 151.932 370.169 153.113 Q368.178 154.293 368.178 157.141 Q368.178 159.409 369.66 160.752 Q371.164 162.071 373.734 162.071 Q377.275 162.071 379.405 159.571 Q381.558 157.048 381.558 152.881 L381.558 151.932 L377.322 151.932 M385.817 150.173 L385.817 164.965 L381.558 164.965 L381.558 161.029 Q380.099 163.391 377.923 164.525 Q375.747 165.636 372.599 165.636 Q368.618 165.636 366.257 163.414 Q363.919 161.168 363.919 157.418 Q363.919 153.043 366.835 150.821 Q369.775 148.599 375.585 148.599 L381.558 148.599 L381.558 148.182 Q381.558 145.243 379.613 143.645 Q377.692 142.025 374.197 142.025 Q371.974 142.025 369.868 142.557 Q367.761 143.09 365.817 144.155 L365.817 140.219 Q368.155 139.317 370.354 138.877 Q372.553 138.414 374.636 138.414 Q380.261 138.414 383.039 141.33 Q385.817 144.247 385.817 150.173 Z" fill="#000000" fill-rule="nonzero" fill-opacity="1" /><polyline clip-path="url(#clip670)" style="stroke:#e26f46; stroke-linecap:round; stroke-linejoin:round; stroke-width:4; stroke-opacity:1; fill:none" points="187.693,199.525 338.744,199.525 "/>
<path clip-path="url(#clip670)" d="M382.692 203.865 Q382.692 199.166 380.747 196.504 Q378.826 193.819 375.447 193.819 Q372.067 193.819 370.122 196.504 Q368.201 199.166 368.201 203.865 Q368.201 208.564 370.122 211.249 Q372.067 213.911 375.447 213.911 Q378.826 213.911 380.747 211.249 Q382.692 208.564 382.692 203.865 M368.201 194.814 Q369.544 192.499 371.581 191.388 Q373.641 190.254 376.488 190.254 Q381.21 190.254 384.15 194.004 Q387.113 197.754 387.113 203.865 Q387.113 209.976 384.15 213.726 Q381.21 217.476 376.488 217.476 Q373.641 217.476 371.581 216.365 Q369.544 215.231 368.201 212.916 L368.201 216.805 L363.919 216.805 L363.919 180.786 L368.201 180.786 L368.201 194.814 Z" fill="#000000" fill-rule="nonzero" fill-opacity="1" /></svg>
