<?xml version="1.0" encoding="utf-8"?>
<svg xmlns="http://www.w3.org/2000/svg" xmlns:xlink="http://www.w3.org/1999/xlink" width="600" height="400" viewBox="0 0 2400 1600">
<defs>
  <clipPath id="clip550">
    <rect x="0" y="0" width="2400" height="1600"/>
  </clipPath>
</defs>
<path clip-path="url(#clip550)" d="M0 1600 L2400 1600 L2400 0 L0 0  Z" fill="#ffffff" fill-rule="evenodd" fill-opacity="1"/>
<defs>
  <clipPath id="clip551">
    <rect x="480" y="0" width="1681" height="1600"/>
  </clipPath>
</defs>
<path clip-path="url(#clip550)" d="M86.9921 1505.26 L2352.76 1505.26 L2352.76 47.2441 L86.9921 47.2441  Z" fill="#ffffff" fill-rule="evenodd" fill-opacity="1"/>
<defs>
  <clipPath id="clip552">
    <rect x="86" y="47" width="2267" height="1459"/>
  </clipPath>
</defs>
<polyline clip-path="url(#clip552)" style="stroke:#000000; stroke-linecap:round; stroke-linejoin:round; stroke-width:2; stroke-opacity:0.1; fill:none" points="86.9921,1505.26 86.9921,47.2441 "/>
<polyline clip-path="url(#clip552)" style="stroke:#000000; stroke-linecap:round; stroke-linejoin:round; stroke-width:2; stroke-opacity:0.1; fill:none" points="540.145,1505.26 540.145,47.2441 "/>
<polyline clip-path="url(#clip552)" style="stroke:#000000; stroke-linecap:round; stroke-linejoin:round; stroke-width:2; stroke-opacity:0.1; fill:none" points="993.298,1505.26 993.298,47.2441 "/>
<polyline clip-path="url(#clip552)" style="stroke:#000000; stroke-linecap:round; stroke-linejoin:round; stroke-width:2; stroke-opacity:0.1; fill:none" points="1446.45,1505.26 1446.45,47.2441 "/>
<polyline clip-path="url(#clip552)" style="stroke:#000000; stroke-linecap:round; stroke-linejoin:round; stroke-width:2; stroke-opacity:0.1; fill:none" points="1899.6,1505.26 1899.6,47.2441 "/>
<polyline clip-path="url(#clip552)" style="stroke:#000000; stroke-linecap:round; stroke-linejoin:round; stroke-width:2; stroke-opacity:0.1; fill:none" points="2352.76,1505.26 2352.76,47.2441 "/>
<polyline clip-path="url(#clip550)" style="stroke:#000000; stroke-linecap:round; stroke-linejoin:round; stroke-width:4; stroke-opacity:1; fill:none" points="86.9921,1505.26 2352.76,1505.26 "/>
<polyline clip-path="url(#clip550)" style="stroke:#000000; stroke-linecap:round; stroke-linejoin:round; stroke-width:4; stroke-opacity:1; fill:none" points="86.9921,1505.26 86.9921,1486.36 "/>
<polyline clip-path="url(#clip550)" style="stroke:#000000; stroke-linecap:round; stroke-linejoin:round; stroke-width:4; stroke-opacity:1; fill:none" points="540.145,1505.26 540.145,1486.36 "/>
<polyline clip-path="url(#clip550)" style="stroke:#000000; stroke-linecap:round; stroke-linejoin:round; stroke-width:4; stroke-opacity:1; fill:none" points="993.298,1505.26 993.298,1486.36 "/>
<polyline clip-path="url(#clip550)" style="stroke:#000000; stroke-linecap:round; stroke-linejoin:round; stroke-width:4; stroke-opacity:1; fill:none" points="1446.45,1505.26 1446.45,1486.36 "/>
<polyline clip-path="url(#clip550)" style="stroke:#000000; stroke-linecap:round; stroke-linejoin:round; stroke-width:4; stroke-opacity:1; fill:none" points="1899.6,1505.26 1899.6,1486.36 "/>
<polyline clip-path="url(#clip550)" style="stroke:#000000; stroke-linecap:round; stroke-linejoin:round; stroke-width:4; stroke-opacity:1; fill:none" points="2352.76,1505.26 2352.76,1486.36 "/>
<path clip-path="url(#clip550)" d="M86.9921 1536.18 Q83.381 1536.18 81.5523 1539.74 Q79.7468 1543.28 79.7468 1550.41 Q79.7468 1557.52 81.5523 1561.09 Q83.381 1564.63 86.9921 1564.63 Q90.6264 1564.63 92.4319 1561.09 Q94.2606 1557.52 94.2606 1550.41 Q94.2606 1543.28 92.4319 1539.74 Q90.6264 1536.18 86.9921 1536.18 M86.9921 1532.47 Q92.8023 1532.47 95.8578 1537.08 Q98.9365 1541.66 98.9365 1550.41 Q98.9365 1559.14 95.8578 1563.75 Q92.8023 1568.33 86.9921 1568.33 Q81.182 1568.33 78.1033 1563.75 Q75.0477 1559.14 75.0477 1550.41 Q75.0477 1541.66 78.1033 1537.08 Q81.182 1532.47 86.9921 1532.47 Z" fill="#000000" fill-rule="nonzero" fill-opacity="1" /><path clip-path="url(#clip550)" d="M534.798 1563.72 L551.117 1563.72 L551.117 1567.66 L529.173 1567.66 L529.173 1563.72 Q531.835 1560.97 536.418 1556.34 Q541.025 1551.69 542.205 1550.35 Q544.45 1547.82 545.33 1546.09 Q546.233 1544.33 546.233 1542.64 Q546.233 1539.88 544.288 1538.15 Q542.367 1536.41 539.265 1536.41 Q537.066 1536.41 534.613 1537.17 Q532.182 1537.94 529.404 1539.49 L529.404 1534.77 Q532.228 1533.63 534.682 1533.05 Q537.136 1532.47 539.173 1532.47 Q544.543 1532.47 547.737 1535.16 Q550.932 1537.85 550.932 1542.34 Q550.932 1544.47 550.122 1546.39 Q549.335 1548.28 547.228 1550.88 Q546.649 1551.55 543.548 1554.77 Q540.446 1557.96 534.798 1563.72 Z" fill="#000000" fill-rule="nonzero" fill-opacity="1" /><path clip-path="url(#clip550)" d="M996.307 1537.17 L984.501 1555.62 L996.307 1555.62 L996.307 1537.17 M995.08 1533.1 L1000.96 1533.1 L1000.96 1555.62 L1005.89 1555.62 L1005.89 1559.51 L1000.96 1559.51 L1000.96 1567.66 L996.307 1567.66 L996.307 1559.51 L980.705 1559.51 L980.705 1555 L995.08 1533.1 Z" fill="#000000" fill-rule="nonzero" fill-opacity="1" /><path clip-path="url(#clip550)" d="M1446.86 1548.52 Q1443.71 1548.52 1441.86 1550.67 Q1440.03 1552.82 1440.03 1556.57 Q1440.03 1560.3 1441.86 1562.47 Q1443.71 1564.63 1446.86 1564.63 Q1450 1564.63 1451.83 1562.47 Q1453.68 1560.3 1453.68 1556.57 Q1453.68 1552.82 1451.83 1550.67 Q1450 1548.52 1446.86 1548.52 M1456.14 1533.86 L1456.14 1538.12 Q1454.38 1537.29 1452.57 1536.85 Q1450.79 1536.41 1449.03 1536.41 Q1444.4 1536.41 1441.95 1539.53 Q1439.52 1542.66 1439.17 1548.98 Q1440.54 1546.97 1442.6 1545.9 Q1444.66 1544.81 1447.13 1544.81 Q1452.34 1544.81 1455.35 1547.98 Q1458.38 1551.13 1458.38 1556.57 Q1458.38 1561.9 1455.24 1565.11 Q1452.09 1568.33 1446.86 1568.33 Q1440.86 1568.33 1437.69 1563.75 Q1434.52 1559.14 1434.52 1550.41 Q1434.52 1542.22 1438.41 1537.36 Q1442.3 1532.47 1448.85 1532.47 Q1450.61 1532.47 1452.39 1532.82 Q1454.19 1533.17 1456.14 1533.86 Z" fill="#000000" fill-rule="nonzero" fill-opacity="1" /><path clip-path="url(#clip550)" d="M1899.6 1551.25 Q1896.27 1551.25 1894.35 1553.03 Q1892.45 1554.81 1892.45 1557.94 Q1892.45 1561.06 1894.35 1562.85 Q1896.27 1564.63 1899.6 1564.63 Q1902.94 1564.63 1904.86 1562.85 Q1906.78 1561.04 1906.78 1557.94 Q1906.78 1554.81 1904.86 1553.03 Q1902.96 1551.25 1899.6 1551.25 M1894.93 1549.26 Q1891.92 1548.52 1890.23 1546.46 Q1888.56 1544.4 1888.56 1541.43 Q1888.56 1537.29 1891.5 1534.88 Q1894.46 1532.47 1899.6 1532.47 Q1904.77 1532.47 1907.7 1534.88 Q1910.64 1537.29 1910.64 1541.43 Q1910.64 1544.4 1908.95 1546.46 Q1907.29 1548.52 1904.3 1549.26 Q1907.68 1550.04 1909.56 1552.34 Q1911.45 1554.63 1911.45 1557.94 Q1911.45 1562.96 1908.38 1565.65 Q1905.32 1568.33 1899.6 1568.33 Q1893.89 1568.33 1890.81 1565.65 Q1887.75 1562.96 1887.75 1557.94 Q1887.75 1554.63 1889.65 1552.34 Q1891.55 1550.04 1894.93 1549.26 M1893.21 1541.87 Q1893.21 1544.56 1894.88 1546.06 Q1896.57 1547.57 1899.6 1547.57 Q1902.61 1547.57 1904.3 1546.06 Q1906.02 1544.56 1906.02 1541.87 Q1906.02 1539.19 1904.3 1537.68 Q1902.61 1536.18 1899.6 1536.18 Q1896.57 1536.18 1894.88 1537.68 Q1893.21 1539.19 1893.21 1541.87 Z" fill="#000000" fill-rule="nonzero" fill-opacity="1" /><path clip-path="url(#clip550)" d="M2327.44 1563.72 L2335.08 1563.72 L2335.08 1537.36 L2326.77 1539.03 L2326.77 1534.77 L2335.04 1533.1 L2339.71 1533.1 L2339.71 1563.72 L2347.35 1563.72 L2347.35 1567.66 L2327.44 1567.66 L2327.44 1563.72 Z" fill="#000000" fill-rule="nonzero" fill-opacity="1" /><path clip-path="url(#clip550)" d="M2366.8 1536.18 Q2363.18 1536.18 2361.36 1539.74 Q2359.55 1543.28 2359.55 1550.41 Q2359.55 1557.52 2361.36 1561.09 Q2363.18 1564.63 2366.8 1564.63 Q2370.43 1564.63 2372.23 1561.09 Q2374.06 1557.52 2374.06 1550.41 Q2374.06 1543.28 2372.23 1539.74 Q2370.43 1536.18 2366.8 1536.18 M2366.8 1532.47 Q2372.61 1532.47 2375.66 1537.08 Q2378.74 1541.66 2378.74 1550.41 Q2378.74 1559.14 2375.66 1563.75 Q2372.61 1568.33 2366.8 1568.33 Q2360.99 1568.33 2357.91 1563.75 Q2354.85 1559.14 2354.85 1550.41 Q2354.85 1541.66 2357.91 1537.08 Q2360.99 1532.47 2366.8 1532.47 Z" fill="#000000" fill-rule="nonzero" fill-opacity="1" /><path clip-path="url(#clip550)" d="M1218.94 1604.35 L1218.94 1614.48 L1231 1614.48 L1231 1619.03 L1218.94 1619.03 L1218.94 1638.38 Q1218.94 1642.74 1220.11 1643.98 Q1221.32 1645.22 1224.98 1645.22 L1231 1645.22 L1231 1650.12 L1224.98 1650.12 Q1218.2 1650.12 1215.62 1647.61 Q1213.05 1645.06 1213.05 1638.38 L1213.05 1619.03 L1208.75 1619.03 L1208.75 1614.48 L1213.05 1614.48 L1213.05 1604.35 L1218.94 1604.35 Z" fill="#000000" fill-rule="nonzero" fill-opacity="1" /><polyline clip-path="url(#clip552)" style="stroke:#000000; stroke-linecap:round; stroke-linejoin:round; stroke-width:2; stroke-opacity:0.1; fill:none" points="86.9921,1321.22 2352.76,1321.22 "/>
<polyline clip-path="url(#clip552)" style="stroke:#000000; stroke-linecap:round; stroke-linejoin:round; stroke-width:2; stroke-opacity:0.1; fill:none" points="86.9921,1036.75 2352.76,1036.75 "/>
<polyline clip-path="url(#clip552)" style="stroke:#000000; stroke-linecap:round; stroke-linejoin:round; stroke-width:2; stroke-opacity:0.1; fill:none" points="86.9921,752.278 2352.76,752.278 "/>
<polyline clip-path="url(#clip552)" style="stroke:#000000; stroke-linecap:round; stroke-linejoin:round; stroke-width:2; stroke-opacity:0.1; fill:none" points="86.9921,467.805 2352.76,467.805 "/>
<polyline clip-path="url(#clip552)" style="stroke:#000000; stroke-linecap:round; stroke-linejoin:round; stroke-width:2; stroke-opacity:0.1; fill:none" points="86.9921,183.333 2352.76,183.333 "/>
<polyline clip-path="url(#clip550)" style="stroke:#000000; stroke-linecap:round; stroke-linejoin:round; stroke-width:4; stroke-opacity:1; fill:none" points="86.9921,1505.26 86.9921,47.2441 "/>
<polyline clip-path="url(#clip550)" style="stroke:#000000; stroke-linecap:round; stroke-linejoin:round; stroke-width:4; stroke-opacity:1; fill:none" points="86.9921,1321.22 105.89,1321.22 "/>
<polyline clip-path="url(#clip550)" style="stroke:#000000; stroke-linecap:round; stroke-linejoin:round; stroke-width:4; stroke-opacity:1; fill:none" points="86.9921,1036.75 105.89,1036.75 "/>
<polyline clip-path="url(#clip550)" style="stroke:#000000; stroke-linecap:round; stroke-linejoin:round; stroke-width:4; stroke-opacity:1; fill:none" points="86.9921,752.278 105.89,752.278 "/>
<polyline clip-path="url(#clip550)" style="stroke:#000000; stroke-linecap:round; stroke-linejoin:round; stroke-width:4; stroke-opacity:1; fill:none" points="86.9921,467.805 105.89,467.805 "/>
<polyline clip-path="url(#clip550)" style="stroke:#000000; stroke-linecap:round; stroke-linejoin:round; stroke-width:4; stroke-opacity:1; fill:none" points="86.9921,183.333 105.89,183.333 "/>
<path clip-path="url(#clip550)" d="M-85.4655 1321.67 L-55.7897 1321.67 L-55.7897 1325.61 L-85.4655 1325.61 L-85.4655 1321.67 Z" fill="#000000" fill-rule="nonzero" fill-opacity="1" /><path clip-path="url(#clip550)" d="M-35.6972 1307.02 Q-39.3083 1307.02 -41.137 1310.59 Q-42.9426 1314.13 -42.9426 1321.26 Q-42.9426 1328.36 -41.137 1331.93 Q-39.3083 1335.47 -35.6972 1335.47 Q-32.063 1335.47 -30.2574 1331.93 Q-28.4287 1328.36 -28.4287 1321.26 Q-28.4287 1314.13 -30.2574 1310.59 Q-32.063 1307.02 -35.6972 1307.02 M-35.6972 1303.32 Q-29.8871 1303.32 -26.8315 1307.92 Q-23.7528 1312.51 -23.7528 1321.26 Q-23.7528 1329.98 -26.8315 1334.59 Q-29.8871 1339.17 -35.6972 1339.17 Q-41.5074 1339.17 -44.5861 1334.59 Q-47.6416 1329.98 -47.6416 1321.26 Q-47.6416 1312.51 -44.5861 1307.92 Q-41.5074 1303.32 -35.6972 1303.32 Z" fill="#000000" fill-rule="nonzero" fill-opacity="1" /><path clip-path="url(#clip550)" d="M-15.5353 1332.62 L-10.6511 1332.62 L-10.6511 1338.5 L-15.5353 1338.5 L-15.5353 1332.62 Z" fill="#000000" fill-rule="nonzero" fill-opacity="1" /><path clip-path="url(#clip550)" d="M9.53401 1307.02 Q5.92292 1307.02 4.09423 1310.59 Q2.28868 1314.13 2.28868 1321.26 Q2.28868 1328.36 4.09423 1331.93 Q5.92292 1335.47 9.53401 1335.47 Q13.1683 1335.47 14.9738 1331.93 Q16.8025 1328.36 16.8025 1321.26 Q16.8025 1314.13 14.9738 1310.59 Q13.1683 1307.02 9.53401 1307.02 M9.53401 1303.32 Q15.3442 1303.32 18.3997 1307.92 Q21.4784 1312.51 21.4784 1321.26 Q21.4784 1329.98 18.3997 1334.59 Q15.3442 1339.17 9.53401 1339.17 Q3.72386 1339.17 0.645174 1334.59 Q-2.41037 1329.98 -2.41037 1321.26 Q-2.41037 1312.51 0.645174 1307.92 Q3.72386 1303.32 9.53401 1303.32 Z" fill="#000000" fill-rule="nonzero" fill-opacity="1" /><path clip-path="url(#clip550)" d="M43.8625 1319.87 Q47.219 1320.59 49.094 1322.85 Q50.9921 1325.12 50.9921 1328.46 Q50.9921 1333.57 47.4736 1336.37 Q43.9551 1339.17 37.4737 1339.17 Q35.2978 1339.17 32.983 1338.73 Q30.6913 1338.32 28.2376 1337.46 L28.2376 1332.95 Q30.1821 1334.08 32.4969 1334.66 Q34.8117 1335.24 37.3348 1335.24 Q41.7329 1335.24 44.0246 1333.5 Q46.3394 1331.77 46.3394 1328.46 Q46.3394 1325.4 44.1866 1323.69 Q42.057 1321.95 38.2376 1321.95 L34.2098 1321.95 L34.2098 1318.11 L38.4227 1318.11 Q41.8718 1318.11 43.7005 1316.74 Q45.5292 1315.35 45.5292 1312.76 Q45.5292 1310.1 43.6311 1308.69 Q41.7561 1307.25 38.2376 1307.25 Q36.3163 1307.25 34.1172 1307.67 Q31.9182 1308.09 29.2793 1308.97 L29.2793 1304.8 Q31.9413 1304.06 34.2561 1303.69 Q36.5941 1303.32 38.6542 1303.32 Q43.9783 1303.32 47.0801 1305.75 Q50.1819 1308.16 50.1819 1312.28 Q50.1819 1315.15 48.5384 1317.14 Q46.8949 1319.1 43.8625 1319.87 Z" fill="#000000" fill-rule="nonzero" fill-opacity="1" /><path clip-path="url(#clip550)" d="M-36.3454 1022.55 Q-39.9565 1022.55 -41.7852 1026.11 Q-43.5907 1029.66 -43.5907 1036.79 Q-43.5907 1043.89 -41.7852 1047.46 Q-39.9565 1051 -36.3454 1051 Q-32.7111 1051 -30.9056 1047.46 Q-29.0769 1043.89 -29.0769 1036.79 Q-29.0769 1029.66 -30.9056 1026.11 Q-32.7111 1022.55 -36.3454 1022.55 M-36.3454 1018.85 Q-30.5352 1018.85 -27.4797 1023.45 Q-24.401 1028.04 -24.401 1036.79 Q-24.401 1045.51 -27.4797 1050.12 Q-30.5352 1054.7 -36.3454 1054.7 Q-42.1555 1054.7 -45.2342 1050.12 Q-48.2897 1045.51 -48.2897 1036.79 Q-48.2897 1028.04 -45.2342 1023.45 Q-42.1555 1018.85 -36.3454 1018.85 Z" fill="#000000" fill-rule="nonzero" fill-opacity="1" /><path clip-path="url(#clip550)" d="M-16.1834 1048.15 L-11.2992 1048.15 L-11.2992 1054.03 L-16.1834 1054.03 L-16.1834 1048.15 Z" fill="#000000" fill-rule="nonzero" fill-opacity="1" /><path clip-path="url(#clip550)" d="M8.88587 1022.55 Q5.27478 1022.55 3.44608 1026.11 Q1.64054 1029.66 1.64054 1036.79 Q1.64054 1043.89 3.44608 1047.46 Q5.27478 1051 8.88587 1051 Q12.5201 1051 14.3257 1047.46 Q16.1543 1043.89 16.1543 1036.79 Q16.1543 1029.66 14.3257 1026.11 Q12.5201 1022.55 8.88587 1022.55 M8.88587 1018.85 Q14.696 1018.85 17.7516 1023.45 Q20.8303 1028.04 20.8303 1036.79 Q20.8303 1045.51 17.7516 1050.12 Q14.696 1054.7 8.88587 1054.7 Q3.07572 1054.7 -0.00297114 1050.12 Q-3.05851 1045.51 -3.05851 1036.79 Q-3.05851 1028.04 -0.00297114 1023.45 Q3.07572 1018.85 8.88587 1018.85 Z" fill="#000000" fill-rule="nonzero" fill-opacity="1" /><path clip-path="url(#clip550)" d="M39.0477 1022.55 Q35.4367 1022.55 33.608 1026.11 Q31.8024 1029.66 31.8024 1036.79 Q31.8024 1043.89 33.608 1047.46 Q35.4367 1051 39.0477 1051 Q42.682 1051 44.4875 1047.46 Q46.3162 1043.89 46.3162 1036.79 Q46.3162 1029.66 44.4875 1026.11 Q42.682 1022.55 39.0477 1022.55 M39.0477 1018.85 Q44.8579 1018.85 47.9134 1023.45 Q50.9921 1028.04 50.9921 1036.79 Q50.9921 1045.51 47.9134 1050.12 Q44.8579 1054.7 39.0477 1054.7 Q33.2376 1054.7 30.1589 1050.12 Q27.1034 1045.51 27.1034 1036.79 Q27.1034 1028.04 30.1589 1023.45 Q33.2376 1018.85 39.0477 1018.85 Z" fill="#000000" fill-rule="nonzero" fill-opacity="1" /><path clip-path="url(#clip550)" d="M-35.6972 738.077 Q-39.3083 738.077 -41.137 741.641 Q-42.9426 745.183 -42.9426 752.313 Q-42.9426 759.419 -41.137 762.984 Q-39.3083 766.525 -35.6972 766.525 Q-32.063 766.525 -30.2574 762.984 Q-28.4287 759.419 -28.4287 752.313 Q-28.4287 745.183 -30.2574 741.641 Q-32.063 738.077 -35.6972 738.077 M-35.6972 734.373 Q-29.8871 734.373 -26.8315 738.979 Q-23.7528 743.563 -23.7528 752.313 Q-23.7528 761.039 -26.8315 765.646 Q-29.8871 770.229 -35.6972 770.229 Q-41.5074 770.229 -44.5861 765.646 Q-47.6416 761.039 -47.6416 752.313 Q-47.6416 743.563 -44.5861 738.979 Q-41.5074 734.373 -35.6972 734.373 Z" fill="#000000" fill-rule="nonzero" fill-opacity="1" /><path clip-path="url(#clip550)" d="M-15.5353 763.678 L-10.6511 763.678 L-10.6511 769.558 L-15.5353 769.558 L-15.5353 763.678 Z" fill="#000000" fill-rule="nonzero" fill-opacity="1" /><path clip-path="url(#clip550)" d="M9.53401 738.077 Q5.92292 738.077 4.09423 741.641 Q2.28868 745.183 2.28868 752.313 Q2.28868 759.419 4.09423 762.984 Q5.92292 766.525 9.53401 766.525 Q13.1683 766.525 14.9738 762.984 Q16.8025 759.419 16.8025 752.313 Q16.8025 745.183 14.9738 741.641 Q13.1683 738.077 9.53401 738.077 M9.53401 734.373 Q15.3442 734.373 18.3997 738.979 Q21.4784 743.563 21.4784 752.313 Q21.4784 761.039 18.3997 765.646 Q15.3442 770.229 9.53401 770.229 Q3.72386 770.229 0.645174 765.646 Q-2.41037 761.039 -2.41037 752.313 Q-2.41037 743.563 0.645174 738.979 Q3.72386 734.373 9.53401 734.373 Z" fill="#000000" fill-rule="nonzero" fill-opacity="1" /><path clip-path="url(#clip550)" d="M43.8625 750.924 Q47.219 751.641 49.094 753.91 Q50.9921 756.178 50.9921 759.512 Q50.9921 764.627 47.4736 767.428 Q43.9551 770.229 37.4737 770.229 Q35.2978 770.229 32.983 769.789 Q30.6913 769.373 28.2376 768.516 L28.2376 764.002 Q30.1821 765.137 32.4969 765.715 Q34.8117 766.294 37.3348 766.294 Q41.7329 766.294 44.0246 764.558 Q46.3394 762.822 46.3394 759.512 Q46.3394 756.456 44.1866 754.743 Q42.057 753.007 38.2376 753.007 L34.2098 753.007 L34.2098 749.164 L38.4227 749.164 Q41.8718 749.164 43.7005 747.799 Q45.5292 746.41 45.5292 743.817 Q45.5292 741.155 43.6311 739.743 Q41.7561 738.308 38.2376 738.308 Q36.3163 738.308 34.1172 738.725 Q31.9182 739.141 29.2793 740.021 L29.2793 735.854 Q31.9413 735.114 34.2561 734.743 Q36.5941 734.373 38.6542 734.373 Q43.9783 734.373 47.0801 736.803 Q50.1819 739.211 50.1819 743.331 Q50.1819 746.202 48.5384 748.192 Q46.8949 750.16 43.8625 750.924 Z" fill="#000000" fill-rule="nonzero" fill-opacity="1" /><path clip-path="url(#clip550)" d="M-36.5074 453.604 Q-40.1185 453.604 -41.9472 457.169 Q-43.7527 460.71 -43.7527 467.84 Q-43.7527 474.947 -41.9472 478.511 Q-40.1185 482.053 -36.5074 482.053 Q-32.8732 482.053 -31.0676 478.511 Q-29.2389 474.947 -29.2389 467.84 Q-29.2389 460.71 -31.0676 457.169 Q-32.8732 453.604 -36.5074 453.604 M-36.5074 449.9 Q-30.6973 449.9 -27.6417 454.507 Q-24.563 459.09 -24.563 467.84 Q-24.563 476.567 -27.6417 481.173 Q-30.6973 485.757 -36.5074 485.757 Q-42.3176 485.757 -45.3962 481.173 Q-48.4518 476.567 -48.4518 467.84 Q-48.4518 459.09 -45.3962 454.507 Q-42.3176 449.9 -36.5074 449.9 Z" fill="#000000" fill-rule="nonzero" fill-opacity="1" /><path clip-path="url(#clip550)" d="M-16.3455 479.206 L-11.4612 479.206 L-11.4612 485.085 L-16.3455 485.085 L-16.3455 479.206 Z" fill="#000000" fill-rule="nonzero" fill-opacity="1" /><path clip-path="url(#clip550)" d="M8.72383 453.604 Q5.11274 453.604 3.28405 457.169 Q1.4785 460.71 1.4785 467.84 Q1.4785 474.947 3.28405 478.511 Q5.11274 482.053 8.72383 482.053 Q12.3581 482.053 14.1636 478.511 Q15.9923 474.947 15.9923 467.84 Q15.9923 460.71 14.1636 457.169 Q12.3581 453.604 8.72383 453.604 M8.72383 449.9 Q14.534 449.9 17.5895 454.507 Q20.6682 459.09 20.6682 467.84 Q20.6682 476.567 17.5895 481.173 Q14.534 485.757 8.72383 485.757 Q2.91368 485.757 -0.165007 481.173 Q-3.22055 476.567 -3.22055 467.84 Q-3.22055 459.09 -0.165007 454.507 Q2.91368 449.9 8.72383 449.9 Z" fill="#000000" fill-rule="nonzero" fill-opacity="1" /><path clip-path="url(#clip550)" d="M39.4644 465.942 Q36.3163 465.942 34.4644 468.095 Q32.6357 470.247 32.6357 473.997 Q32.6357 477.724 34.4644 479.9 Q36.3163 482.053 39.4644 482.053 Q42.6125 482.053 44.4412 479.9 Q46.2931 477.724 46.2931 473.997 Q46.2931 470.247 44.4412 468.095 Q42.6125 465.942 39.4644 465.942 M48.7468 451.289 L48.7468 455.548 Q46.9875 454.715 45.182 454.275 Q43.3996 453.836 41.6403 453.836 Q37.0107 453.836 34.557 456.961 Q32.1265 460.086 31.7793 466.405 Q33.145 464.391 35.2052 463.326 Q37.2653 462.238 39.7422 462.238 Q44.9505 462.238 47.9597 465.41 Q50.9921 468.558 50.9921 473.997 Q50.9921 479.322 47.844 482.539 Q44.6959 485.757 39.4644 485.757 Q33.4691 485.757 30.2978 481.173 Q27.1265 476.567 27.1265 467.84 Q27.1265 459.646 31.0154 454.785 Q34.9042 449.9 41.4551 449.9 Q43.2144 449.9 44.9968 450.248 Q46.8023 450.595 48.7468 451.289 Z" fill="#000000" fill-rule="nonzero" fill-opacity="1" /><path clip-path="url(#clip550)" d="M-36.1602 169.132 Q-39.7713 169.132 -41.6 172.696 Q-43.4055 176.238 -43.4055 183.368 Q-43.4055 190.474 -41.6 194.039 Q-39.7713 197.58 -36.1602 197.58 Q-32.5259 197.58 -30.7204 194.039 Q-28.8917 190.474 -28.8917 183.368 Q-28.8917 176.238 -30.7204 172.696 Q-32.5259 169.132 -36.1602 169.132 M-36.1602 165.428 Q-30.35 165.428 -27.2945 170.034 Q-24.2158 174.618 -24.2158 183.368 Q-24.2158 192.094 -27.2945 196.701 Q-30.35 201.284 -36.1602 201.284 Q-41.9703 201.284 -45.049 196.701 Q-48.1046 192.094 -48.1046 183.368 Q-48.1046 174.618 -45.049 170.034 Q-41.9703 165.428 -36.1602 165.428 Z" fill="#000000" fill-rule="nonzero" fill-opacity="1" /><path clip-path="url(#clip550)" d="M-15.9983 194.733 L-11.114 194.733 L-11.114 200.613 L-15.9983 200.613 L-15.9983 194.733 Z" fill="#000000" fill-rule="nonzero" fill-opacity="1" /><path clip-path="url(#clip550)" d="M9.07105 169.132 Q5.45996 169.132 3.63127 172.696 Q1.82572 176.238 1.82572 183.368 Q1.82572 190.474 3.63127 194.039 Q5.45996 197.58 9.07105 197.58 Q12.7053 197.58 14.5108 194.039 Q16.3395 190.474 16.3395 183.368 Q16.3395 176.238 14.5108 172.696 Q12.7053 169.132 9.07105 169.132 M9.07105 165.428 Q14.8812 165.428 17.9367 170.034 Q21.0154 174.618 21.0154 183.368 Q21.0154 192.094 17.9367 196.701 Q14.8812 201.284 9.07105 201.284 Q3.2609 201.284 0.182213 196.701 Q-2.87333 192.094 -2.87333 183.368 Q-2.87333 174.618 0.182213 170.034 Q3.2609 165.428 9.07105 165.428 Z" fill="#000000" fill-rule="nonzero" fill-opacity="1" /><path clip-path="url(#clip550)" d="M29.3719 199.895 L29.3719 195.636 Q31.1311 196.469 32.9367 196.909 Q34.7422 197.349 36.4783 197.349 Q41.1079 197.349 43.5385 194.247 Q45.9922 191.122 46.3394 184.78 Q44.9968 186.77 42.9366 187.835 Q40.8764 188.9 38.3765 188.9 Q33.1913 188.9 30.1589 185.775 Q27.1497 182.627 27.1497 177.187 Q27.1497 171.863 30.2978 168.645 Q33.4459 165.428 38.6774 165.428 Q44.6727 165.428 47.8208 170.034 Q50.9921 174.618 50.9921 183.368 Q50.9921 191.539 47.1033 196.423 Q43.2375 201.284 36.6866 201.284 Q34.9274 201.284 33.1219 200.937 Q31.3163 200.59 29.3719 199.895 M38.6774 185.243 Q41.8255 185.243 43.6542 183.09 Q45.506 180.937 45.506 177.187 Q45.506 173.46 43.6542 171.307 Q41.8255 169.132 38.6774 169.132 Q35.5292 169.132 33.6774 171.307 Q31.8487 173.46 31.8487 177.187 Q31.8487 180.937 33.6774 183.09 Q35.5292 185.243 38.6774 185.243 Z" fill="#000000" fill-rule="nonzero" fill-opacity="1" /><polyline clip-path="url(#clip552)" style="stroke:#009af9; stroke-linecap:round; stroke-linejoin:round; stroke-width:4; stroke-opacity:1; fill:none" points="86.9921,88.5087 313.569,135.921 540.145,661.535 766.721,284.007 993.298,1464 1219.87,1403.5 1446.45,1053.66 1673.03,318.995 1899.6,459.743 2126.18,334.244 2352.76,405.45 "/>
<polyline clip-path="url(#clip552)" style="stroke:#e26f46; stroke-linecap:round; stroke-linejoin:round; stroke-width:4; stroke-opacity:1; fill:none" points="86.9921,1036.75 313.569,1114.26 540.145,972.833 766.721,1221 993.298,1030.44 1219.87,983.283 1446.45,918.392 1673.03,1053.66 1899.6,1011.86 2126.18,1042.57 2352.76,1190.21 "/>
<path clip-path="url(#clip550)" d="M162.518 1456.66 L412.288 1456.66 L412.288 1301.14 L162.518 1301.14  Z" fill="#ffffff" fill-rule="evenodd" fill-opacity="1"/>
<polyline clip-path="url(#clip550)" style="stroke:#000000; stroke-linecap:round; stroke-linejoin:round; stroke-width:4; stroke-opacity:1; fill:none" points="162.518,1456.66 412.288,1456.66 412.288,1301.14 162.518,1301.14 162.518,1456.66 "/>
<polyline clip-path="url(#clip550)" style="stroke:#009af9; stroke-linecap:round; stroke-linejoin:round; stroke-width:4; stroke-opacity:1; fill:none" points="187.693,1352.98 338.744,1352.98 "/>
<path clip-path="url(#clip550)" d="M377.322 1357.23 Q372.16 1357.23 370.169 1358.41 Q368.178 1359.59 368.178 1362.44 Q368.178 1364.7 369.66 1366.05 Q371.164 1367.37 373.734 1367.37 Q377.275 1367.37 379.405 1364.87 Q381.558 1362.34 381.558 1358.18 L381.558 1357.23 L377.322 1357.23 M385.817 1355.47 L385.817 1370.26 L381.558 1370.26 L381.558 1366.32 Q380.099 1368.69 377.923 1369.82 Q375.747 1370.93 372.599 1370.93 Q368.618 1370.93 366.257 1368.71 Q363.919 1366.46 363.919 1362.71 Q363.919 1358.34 366.835 1356.12 Q369.775 1353.89 375.585 1353.89 L381.558 1353.89 L381.558 1353.48 Q381.558 1350.54 379.613 1348.94 Q377.692 1347.32 374.197 1347.32 Q371.974 1347.32 369.868 1347.85 Q367.761 1348.38 365.817 1349.45 L365.817 1345.51 Q368.155 1344.61 370.354 1344.17 Q372.553 1343.71 374.636 1343.71 Q380.261 1343.71 383.039 1346.63 Q385.817 1349.54 385.817 1355.47 Z" fill="#000000" fill-rule="nonzero" fill-opacity="1" /><polyline clip-path="url(#clip550)" style="stroke:#e26f46; stroke-linecap:round; stroke-linejoin:round; stroke-width:4; stroke-opacity:1; fill:none" points="187.693,1404.82 338.744,1404.82 "/>
<path clip-path="url(#clip550)" d="M382.692 1409.16 Q382.692 1404.46 380.747 1401.8 Q378.826 1399.11 375.447 1399.11 Q372.067 1399.11 370.122 1401.8 Q368.201 1404.46 368.201 1409.16 Q368.201 1413.86 370.122 1416.54 Q372.067 1419.21 375.447 1419.21 Q378.826 1419.21 380.747 1416.54 Q382.692 1413.86 382.692 1409.16 M368.201 1400.11 Q369.544 1397.79 371.581 1396.68 Q373.641 1395.55 376.488 1395.55 Q381.21 1395.55 384.15 1399.3 Q387.113 1403.05 387.113 1409.16 Q387.113 1415.27 384.15 1419.02 Q381.21 1422.77 376.488 1422.77 Q373.641 1422.77 371.581 1421.66 Q369.544 1420.53 368.201 1418.21 L368.201 1422.1 L363.919 1422.1 L363.919 1386.08 L368.201 1386.08 L368.201 1400.11 Z" fill="#000000" fill-rule="nonzero" fill-opacity="1" /></svg>
