<?xml version="1.0" encoding="utf-8"?>
<svg xmlns="http://www.w3.org/2000/svg" xmlns:xlink="http://www.w3.org/1999/xlink" width="600" height="400" viewBox="0 0 2400 1600">
<defs>
  <clipPath id="clip670">
    <rect x="0" y="0" width="2400" height="1600"/>
  </clipPath>
</defs>
<path clip-path="url(#clip670)" d="M0 1600 L2400 1600 L2400 0 L0 0  Z" fill="#ffffff" fill-rule="evenodd" fill-opacity="1"/>
<defs>
  <clipPath id="clip671">
    <rect x="480" y="0" width="1681" height="1600"/>
  </clipPath>
</defs>
<path clip-path="url(#clip670)" d="M86.9921 1505.26 L2352.76 1505.26 L2352.76 47.2441 L86.9921 47.2441  Z" fill="#ffffff" fill-rule="evenodd" fill-opacity="1"/>
<defs>
  <clipPath id="clip672">
    <rect x="86" y="47" width="2267" height="1459"/>
  </clipPath>
</defs>
<polyline clip-path="url(#clip672)" style="stroke:#000000; stroke-linecap:round; stroke-linejoin:round; stroke-width:2; stroke-opacity:0.1; fill:none" points="86.9921,1505.26 86.9921,47.2441 "/>
<polyline clip-path="url(#clip672)" style="stroke:#000000; stroke-linecap:round; stroke-linejoin:round; stroke-width:2; stroke-opacity:0.1; fill:none" points="540.145,1505.26 540.145,47.2441 "/>
<polyline clip-path="url(#clip672)" style="stroke:#000000; stroke-linecap:round; stroke-linejoin:round; stroke-width:2; stroke-opacity:0.1; fill:none" points="993.298,1505.26 993.298,47.2441 "/>
<polyline clip-path="url(#clip672)" style="stroke:#000000; stroke-linecap:round; stroke-linejoin:round; stroke-width:2; stroke-opacity:0.1; fill:none" points="1446.45,1505.26 1446.45,47.2441 "/>
<polyline clip-path="url(#clip672)" style="stroke:#000000; stroke-linecap:round; stroke-linejoin:round; stroke-width:2; stroke-opacity:0.1; fill:none" points="1899.6,1505.26 1899.6,47.2441 "/>
<polyline clip-path="url(#clip672)" style="stroke:#000000; stroke-linecap:round; stroke-linejoin:round; stroke-width:2; stroke-opacity:0.1; fill:none" points="2352.76,1505.26 2352.76,47.2441 "/>
<polyline clip-path="url(#clip670)" style="stroke:#000000; stroke-linecap:round; stroke-linejoin:round; stroke-width:4; stroke-opacity:1; fill:none" points="86.9921,1505.26 2352.76,1505.26 "/>
<polyline clip-path="url(#clip670)" style="stroke:#000000; stroke-linecap:round; stroke-linejoin:round; stroke-width:4; stroke-opacity:1; fill:none" points="86.9921,1505.26 86.9921,1486.36 "/>
<polyline clip-path="url(#clip670)" style="stroke:#000000; stroke-linecap:round; stroke-linejoin:round; stroke-width:4; stroke-opacity:1; fill:none" points="540.145,1505.26 540.145,1486.36 "/>
<polyline clip-path="url(#clip670)" style="stroke:#000000; stroke-linecap:round; stroke-linejoin:round; stroke-width:4; stroke-opacity:1; fill:none" points="993.298,1505.26 993.298,1486.36 "/>
<polyline clip-path="url(#clip670)" style="stroke:#000000; stroke-linecap:round; stroke-linejoin:round; stroke-width:4; stroke-opacity:1; fill:none" points="1446.45,1505.26 1446.45,1486.36 "/>
<polyline clip-path="url(#clip670)" style="stroke:#000000; stroke-linecap:round; stroke-linejoin:round; stroke-width:4; stroke-opacity:1; fill:none" points="1899.6,1505.26 1899.6,1486.36 "/>
<polyline clip-path="url(#clip670)" style="stroke:#000000; stroke-linecap:round; stroke-linejoin:round; stroke-width:4; stroke-opacity:1; fill:none" points="2352.76,1505.26 2352.76,1486.36 "/>
<path clip-path="url(#clip670)" d="M86.9921 1536.18 Q83.381 1536.18 81.5523 1539.74 Q79.7468 1543.28 79.7468 1550.41 Q79.7468 1557.52 81.5523 1561.09 Q83.381 1564.63 86.9921 1564.63 Q90.6264 1564.63 92.4319 1561.09 Q94.2606 1557.52 94.2606 1550.41 Q94.2606 1543.28 92.4319 1539.74 Q90.6264 1536.18 86.9921 1536.18 M86.9921 1532.47 Q92.8023 1532.47 95.8578 1537.08 Q98.9365 1541.66 98.9365 1550.41 Q98.9365 1559.14 95.8578 1563.75 Q92.8023 1568.33 86.9921 1568.33 Q81.182 1568.33 78.1033 1563.75 Q75.0477 1559.14 75.0477 1550.41 Q75.0477 1541.66 78.1033 1537.08 Q81.182 1532.47 86.9921 1532.47 Z" fill="#000000" fill-rule="nonzero" fill-opacity="1" /><path clip-path="url(#clip670)" d="M534.798 1563.72 L551.117 1563.72 L551.117 1567.66 L529.173 1567.66 L529.173 1563.72 Q531.835 1560.97 536.418 1556.34 Q541.025 1551.69 542.205 1550.35 Q544.45 1547.82 545.33 1546.09 Q546.233 1544.33 546.233 1542.64 Q546.233 1539.88 544.288 1538.15 Q542.367 1536.41 539.265 1536.41 Q537.066 1536.41 534.613 1537.17 Q532.182 1537.94 529.404 1539.49 L529.404 1534.77 Q532.228 1533.63 534.682 1533.05 Q537.136 1532.47 539.173 1532.47 Q544.543 1532.47 547.737 1535.16 Q550.932 1537.85 550.932 1542.34 Q550.932 1544.47 550.122 1546.39 Q549.335 1548.28 547.228 1550.88 Q546.649 1551.55 543.548 1554.77 Q540.446 1557.96 534.798 1563.72 Z" fill="#000000" fill-rule="nonzero" fill-opacity="1" /><path clip-path="url(#clip670)" d="M996.307 1537.17 L984.501 1555.62 L996.307 1555.62 L996.307 1537.17 M995.08 1533.1 L1000.96 1533.1 L1000.96 1555.62 L1005.89 1555.62 L1005.89 1559.51 L1000.96 1559.51 L1000.96 1567.66 L996.307 1567.66 L996.307 1559.51 L980.705 1559.51 L980.705 1555 L995.08 1533.1 Z" fill="#000000" fill-rule="nonzero" fill-opacity="1" /><path clip-path="url(#clip670)" d="M1446.86 1548.52 Q1443.71 1548.52 1441.86 1550.67 Q1440.03 1552.82 1440.03 1556.57 Q1440.03 1560.3 1441.86 1562.47 Q1443.71 1564.63 1446.86 1564.63 Q1450 1564.63 1451.83 1562.47 Q1453.68 1560.3 1453.68 1556.57 Q1453.68 1552.82 1451.83 1550.67 Q1450 1548.52 1446.86 1548.52 M1456.14 1533.86 L1456.14 1538.12 Q1454.38 1537.29 1452.57 1536.85 Q1450.79 1536.41 1449.03 1536.41 Q1444.4 1536.41 1441.95 1539.53 Q1439.52 1542.66 1439.17 1548.98 Q1440.54 1546.97 1442.6 1545.9 Q1444.66 1544.81 1447.13 1544.81 Q1452.34 1544.81 1455.35 1547.98 Q1458.38 1551.13 1458.38 1556.57 Q1458.38 1561.9 1455.24 1565.11 Q1452.09 1568.33 1446.86 1568.33 Q1440.86 1568.33 1437.69 1563.75 Q1434.52 1559.14 1434.52 1550.41 Q1434.52 1542.22 1438.41 1537.36 Q1442.3 1532.47 1448.85 1532.47 Q1450.61 1532.47 1452.39 1532.82 Q1454.19 1533.17 1456.14 1533.86 Z" fill="#000000" fill-rule="nonzero" fill-opacity="1" /><path clip-path="url(#clip670)" d="M1899.6 1551.25 Q1896.27 1551.25 1894.35 1553.03 Q1892.45 1554.81 1892.45 1557.94 Q1892.45 1561.06 1894.35 1562.85 Q1896.27 1564.63 1899.6 1564.63 Q1902.94 1564.63 1904.86 1562.85 Q1906.78 1561.04 1906.78 1557.94 Q1906.78 1554.81 1904.86 1553.03 Q1902.96 1551.25 1899.6 1551.25 M1894.93 1549.26 Q1891.92 1548.52 1890.23 1546.46 Q1888.56 1544.4 1888.56 1541.43 Q1888.56 1537.29 1891.5 1534.88 Q1894.46 1532.47 1899.6 1532.47 Q1904.77 1532.47 1907.7 1534.88 Q1910.64 1537.29 1910.64 1541.43 Q1910.64 1544.4 1908.95 1546.46 Q1907.29 1548.52 1904.3 1549.26 Q1907.68 1550.04 1909.56 1552.34 Q1911.45 1554.63 1911.45 1557.94 Q1911.45 1562.96 1908.38 1565.65 Q1905.32 1568.33 1899.6 1568.33 Q1893.89 1568.33 1890.81 1565.65 Q1887.75 1562.96 1887.75 1557.94 Q1887.75 1554.63 1889.65 1552.34 Q1891.55 1550.04 1894.93 1549.26 M1893.21 1541.87 Q1893.21 1544.56 1894.88 1546.06 Q1896.57 1547.57 1899.6 1547.57 Q1902.61 1547.57 1904.3 1546.06 Q1906.02 1544.56 1906.02 1541.87 Q1906.02 1539.19 1904.3 1537.68 Q1902.61 1536.18 1899.6 1536.18 Q1896.57 1536.18 1894.88 1537.68 Q1893.21 1539.19 1893.21 1541.87 Z" fill="#000000" fill-rule="nonzero" fill-opacity="1" /><path clip-path="url(#clip670)" d="M2327.44 1563.72 L2335.08 1563.72 L2335.08 1537.36 L2326.77 1539.03 L2326.77 1534.77 L2335.04 1533.1 L2339.71 1533.1 L2339.71 1563.72 L2347.35 1563.72 L2347.35 1567.66 L2327.44 1567.66 L2327.44 1563.72 Z" fill="#000000" fill-rule="nonzero" fill-opacity="1" /><path clip-path="url(#clip670)" d="M2366.8 1536.18 Q2363.18 1536.18 2361.36 1539.74 Q2359.55 1543.28 2359.55 1550.41 Q2359.55 1557.52 2361.36 1561.09 Q2363.18 1564.63 2366.8 1564.63 Q2370.43 1564.63 2372.23 1561.09 Q2374.06 1557.52 2374.06 1550.41 Q2374.06 1543.28 2372.23 1539.74 Q2370.43 1536.18 2366.8 1536.18 M2366.8 1532.47 Q2372.61 1532.47 2375.66 1537.08 Q2378.74 1541.66 2378.74 1550.41 Q2378.74 1559.14 2375.66 1563.75 Q2372.61 1568.33 2366.8 1568.33 Q2360.99 1568.33 2357.91 1563.75 Q2354.85 1559.14 2354.85 1550.41 Q2354.85 1541.66 2357.91 1537.08 Q2360.99 1532.47 2366.8 1532.47 Z" fill="#000000" fill-rule="nonzero" fill-opacity="1" /><path clip-path="url(#clip670)" d="M1218.94 1604.35 L1218.94 1614.48 L1231 1614.48 L1231 1619.03 L1218.94 1619.03 L1218.94 1638.38 Q1218.94 1642.74 1220.11 1643.98 Q1221.32 1645.22 1224.98 1645.22 L1231 1645.22 L1231 1650.12 L1224.98 1650.12 Q1218.2 1650.12 1215.62 1647.61 Q1213.05 1645.06 1213.05 1638.38 L1213.05 1619.03 L1208.75 1619.03 L1208.75 1614.48 L1213.05 1614.48 L1213.05 1604.35 L1218.94 1604.35 Z" fill="#000000" fill-rule="nonzero" fill-opacity="1" /><polyline clip-path="url(#clip672)" style="stroke:#000000; stroke-linecap:round; stroke-linejoin:round; stroke-width:2; stroke-opacity:0.1; fill:none" points="86.9921,1497.44 2352.76,1497.44 "/>
<polyline clip-path="url(#clip672)" style="stroke:#000000; stroke-linecap:round; stroke-linejoin:round; stroke-width:2; stroke-opacity:0.1; fill:none" points="86.9921,1151.07 2352.76,1151.07 "/>
<polyline clip-path="url(#clip672)" style="stroke:#000000; stroke-linecap:round; stroke-linejoin:round; stroke-width:2; stroke-opacity:0.1; fill:none" points="86.9921,804.693 2352.76,804.693 "/>
<polyline clip-path="url(#clip672)" style="stroke:#000000; stroke-linecap:round; stroke-linejoin:round; stroke-width:2; stroke-opacity:0.1; fill:none" points="86.9921,458.319 2352.76,458.319 "/>
<polyline clip-path="url(#clip672)" style="stroke:#000000; stroke-linecap:round; stroke-linejoin:round; stroke-width:2; stroke-opacity:0.1; fill:none" points="86.9921,111.944 2352.76,111.944 "/>
<polyline clip-path="url(#clip670)" style="stroke:#000000; stroke-linecap:round; stroke-linejoin:round; stroke-width:4; stroke-opacity:1; fill:none" points="86.9921,1505.26 86.9921,47.2441 "/>
<polyline clip-path="url(#clip670)" style="stroke:#000000; stroke-linecap:round; stroke-linejoin:round; stroke-width:4; stroke-opacity:1; fill:none" points="86.9921,1497.44 105.89,1497.44 "/>
<polyline clip-path="url(#clip670)" style="stroke:#000000; stroke-linecap:round; stroke-linejoin:round; stroke-width:4; stroke-opacity:1; fill:none" points="86.9921,1151.07 105.89,1151.07 "/>
<polyline clip-path="url(#clip670)" style="stroke:#000000; stroke-linecap:round; stroke-linejoin:round; stroke-width:4; stroke-opacity:1; fill:none" points="86.9921,804.693 105.89,804.693 "/>
<polyline clip-path="url(#clip670)" style="stroke:#000000; stroke-linecap:round; stroke-linejoin:round; stroke-width:4; stroke-opacity:1; fill:none" points="86.9921,458.319 105.89,458.319 "/>
<polyline clip-path="url(#clip670)" style="stroke:#000000; stroke-linecap:round; stroke-linejoin:round; stroke-width:4; stroke-opacity:1; fill:none" points="86.9921,111.944 105.89,111.944 "/>
<path clip-path="url(#clip670)" d="M-86.1136 1497.89 L-56.4379 1497.89 L-56.4379 1501.83 L-86.1136 1501.83 L-86.1136 1497.89 Z" fill="#000000" fill-rule="nonzero" fill-opacity="1" /><path clip-path="url(#clip670)" d="M-45.5351 1510.79 L-37.8963 1510.79 L-37.8963 1484.42 L-46.2064 1486.09 L-46.2064 1481.83 L-37.9426 1480.16 L-33.2667 1480.16 L-33.2667 1510.79 L-25.6278 1510.79 L-25.6278 1514.72 L-45.5351 1514.72 L-45.5351 1510.79 Z" fill="#000000" fill-rule="nonzero" fill-opacity="1" /><path clip-path="url(#clip670)" d="M-6.18349 1483.24 Q-9.79459 1483.24 -11.6233 1486.81 Q-13.4288 1490.35 -13.4288 1497.48 Q-13.4288 1504.58 -11.6233 1508.15 Q-9.79459 1511.69 -6.18349 1511.69 Q-2.54925 1511.69 -0.743708 1508.15 Q1.08499 1504.58 1.08499 1497.48 Q1.08499 1490.35 -0.743708 1486.81 Q-2.54925 1483.24 -6.18349 1483.24 M-6.18349 1479.54 Q-0.37334 1479.54 2.6822 1484.14 Q5.76089 1488.73 5.76089 1497.48 Q5.76089 1506.2 2.6822 1510.81 Q-0.37334 1515.39 -6.18349 1515.39 Q-11.9936 1515.39 -15.0723 1510.81 Q-18.1279 1506.2 -18.1279 1497.48 Q-18.1279 1488.73 -15.0723 1484.14 Q-11.9936 1479.54 -6.18349 1479.54 Z" fill="#000000" fill-rule="nonzero" fill-opacity="1" /><path clip-path="url(#clip670)" d="M13.9784 1508.84 L18.8627 1508.84 L18.8627 1514.72 L13.9784 1514.72 L13.9784 1508.84 Z" fill="#000000" fill-rule="nonzero" fill-opacity="1" /><path clip-path="url(#clip670)" d="M39.0477 1483.24 Q35.4367 1483.24 33.608 1486.81 Q31.8024 1490.35 31.8024 1497.48 Q31.8024 1504.58 33.608 1508.15 Q35.4367 1511.69 39.0477 1511.69 Q42.682 1511.69 44.4875 1508.15 Q46.3162 1504.58 46.3162 1497.48 Q46.3162 1490.35 44.4875 1486.81 Q42.682 1483.24 39.0477 1483.24 M39.0477 1479.54 Q44.8579 1479.54 47.9134 1484.14 Q50.9921 1488.73 50.9921 1497.48 Q50.9921 1506.2 47.9134 1510.81 Q44.8579 1515.39 39.0477 1515.39 Q33.2376 1515.39 30.1589 1510.81 Q27.1034 1506.2 27.1034 1497.48 Q27.1034 1488.73 30.1589 1484.14 Q33.2376 1479.54 39.0477 1479.54 Z" fill="#000000" fill-rule="nonzero" fill-opacity="1" /><path clip-path="url(#clip670)" d="M-54.9564 1151.52 L-25.2806 1151.52 L-25.2806 1155.45 L-54.9564 1155.45 L-54.9564 1151.52 Z" fill="#000000" fill-rule="nonzero" fill-opacity="1" /><path clip-path="url(#clip670)" d="M-16.3686 1133.79 L5.85348 1133.79 L5.85348 1135.78 L-6.69275 1168.35 L-11.577 1168.35 L0.228509 1137.72 L-16.3686 1137.72 L-16.3686 1133.79 Z" fill="#000000" fill-rule="nonzero" fill-opacity="1" /><path clip-path="url(#clip670)" d="M14.9738 1162.47 L19.858 1162.47 L19.858 1168.35 L14.9738 1168.35 L14.9738 1162.47 Z" fill="#000000" fill-rule="nonzero" fill-opacity="1" /><path clip-path="url(#clip670)" d="M30.0895 1133.79 L48.4458 1133.79 L48.4458 1137.72 L34.3718 1137.72 L34.3718 1146.2 Q35.3904 1145.85 36.4089 1145.69 Q37.4274 1145.5 38.4459 1145.5 Q44.2329 1145.5 47.6125 1148.67 Q50.9921 1151.84 50.9921 1157.26 Q50.9921 1162.84 47.5199 1165.94 Q44.0477 1169.02 37.7283 1169.02 Q35.5524 1169.02 33.2839 1168.65 Q31.0385 1168.28 28.6311 1167.54 L28.6311 1162.84 Q30.7145 1163.97 32.9367 1164.53 Q35.1589 1165.08 37.6357 1165.08 Q41.6403 1165.08 43.9783 1162.98 Q46.3162 1160.87 46.3162 1157.26 Q46.3162 1153.65 43.9783 1151.54 Q41.6403 1149.44 37.6357 1149.44 Q35.7607 1149.44 33.8857 1149.85 Q32.0339 1150.27 30.0895 1151.15 L30.0895 1133.79 Z" fill="#000000" fill-rule="nonzero" fill-opacity="1" /><path clip-path="url(#clip670)" d="M-55.9517 805.145 L-26.276 805.145 L-26.276 809.08 L-55.9517 809.08 L-55.9517 805.145 Z" fill="#000000" fill-rule="nonzero" fill-opacity="1" /><path clip-path="url(#clip670)" d="M-16.1371 787.413 L2.21924 787.413 L2.21924 791.349 L-11.8548 791.349 L-11.8548 799.821 Q-10.8362 799.473 -9.81773 799.311 Q-8.79922 799.126 -7.78071 799.126 Q-1.9937 799.126 1.38591 802.298 Q4.76552 805.469 4.76552 810.885 Q4.76552 816.464 1.29332 819.566 Q-2.17889 822.645 -8.4983 822.645 Q-10.6742 822.645 -12.9427 822.274 Q-15.1881 821.904 -17.5955 821.163 L-17.5955 816.464 Q-15.5121 817.598 -13.2899 818.154 Q-11.0677 818.709 -8.59089 818.709 Q-4.58628 818.709 -2.24833 816.603 Q0.089621 814.497 0.089621 810.885 Q0.089621 807.274 -2.24833 805.168 Q-4.58628 803.061 -8.59089 803.061 Q-10.4659 803.061 -12.3409 803.478 Q-14.1927 803.895 -16.1371 804.774 L-16.1371 787.413 Z" fill="#000000" fill-rule="nonzero" fill-opacity="1" /><path clip-path="url(#clip670)" d="M13.9784 816.094 L18.8627 816.094 L18.8627 821.973 L13.9784 821.973 L13.9784 816.094 Z" fill="#000000" fill-rule="nonzero" fill-opacity="1" /><path clip-path="url(#clip670)" d="M39.0477 790.492 Q35.4367 790.492 33.608 794.057 Q31.8024 797.598 31.8024 804.728 Q31.8024 811.835 33.608 815.399 Q35.4367 818.941 39.0477 818.941 Q42.682 818.941 44.4875 815.399 Q46.3162 811.835 46.3162 804.728 Q46.3162 797.598 44.4875 794.057 Q42.682 790.492 39.0477 790.492 M39.0477 786.788 Q44.8579 786.788 47.9134 791.395 Q50.9921 795.978 50.9921 804.728 Q50.9921 813.455 47.9134 818.061 Q44.8579 822.645 39.0477 822.645 Q33.2376 822.645 30.1589 818.061 Q27.1034 813.455 27.1034 804.728 Q27.1034 795.978 30.1589 791.395 Q33.2376 786.788 39.0477 786.788 Z" fill="#000000" fill-rule="nonzero" fill-opacity="1" /><path clip-path="url(#clip670)" d="M-54.9564 458.77 L-25.2806 458.77 L-25.2806 462.705 L-54.9564 462.705 L-54.9564 458.77 Z" fill="#000000" fill-rule="nonzero" fill-opacity="1" /><path clip-path="url(#clip670)" d="M-11.1603 471.663 L5.15904 471.663 L5.15904 475.599 L-16.7853 475.599 L-16.7853 471.663 Q-14.1233 468.909 -9.53996 464.279 Q-4.9335 459.626 -3.75295 458.284 Q-1.50759 455.761 -0.627968 454.025 Q0.274805 452.265 0.274805 450.576 Q0.274805 447.821 -1.66963 446.085 Q-3.59091 444.349 -6.69275 444.349 Q-8.89181 444.349 -11.3455 445.113 Q-13.776 445.877 -16.5538 447.427 L-16.5538 442.705 Q-13.7297 441.571 -11.2761 440.992 Q-8.82237 440.414 -6.78534 440.414 Q-1.415 440.414 1.77943 443.099 Q4.97385 445.784 4.97385 450.275 Q4.97385 452.404 4.16367 454.326 Q3.37664 456.224 1.27017 458.816 Q0.69147 459.488 -2.41037 462.705 Q-5.5122 465.9 -11.1603 471.663 Z" fill="#000000" fill-rule="nonzero" fill-opacity="1" /><path clip-path="url(#clip670)" d="M14.9738 469.719 L19.858 469.719 L19.858 475.599 L14.9738 475.599 L14.9738 469.719 Z" fill="#000000" fill-rule="nonzero" fill-opacity="1" /><path clip-path="url(#clip670)" d="M30.0895 441.039 L48.4458 441.039 L48.4458 444.974 L34.3718 444.974 L34.3718 453.446 Q35.3904 453.099 36.4089 452.937 Q37.4274 452.752 38.4459 452.752 Q44.2329 452.752 47.6125 455.923 Q50.9921 459.094 50.9921 464.511 Q50.9921 470.089 47.5199 473.191 Q44.0477 476.27 37.7283 476.27 Q35.5524 476.27 33.2839 475.9 Q31.0385 475.529 28.6311 474.788 L28.6311 470.089 Q30.7145 471.224 32.9367 471.779 Q35.1589 472.335 37.6357 472.335 Q41.6403 472.335 43.9783 470.228 Q46.3162 468.122 46.3162 464.511 Q46.3162 460.9 43.9783 458.793 Q41.6403 456.687 37.6357 456.687 Q35.7607 456.687 33.8857 457.103 Q32.0339 457.52 30.0895 458.4 L30.0895 441.039 Z" fill="#000000" fill-rule="nonzero" fill-opacity="1" /><path clip-path="url(#clip670)" d="M-6.18349 97.7426 Q-9.79459 97.7426 -11.6233 101.307 Q-13.4288 104.849 -13.4288 111.979 Q-13.4288 119.085 -11.6233 122.65 Q-9.79459 126.191 -6.18349 126.191 Q-2.54925 126.191 -0.743708 122.65 Q1.08499 119.085 1.08499 111.979 Q1.08499 104.849 -0.743708 101.307 Q-2.54925 97.7426 -6.18349 97.7426 M-6.18349 94.0389 Q-0.37334 94.0389 2.6822 98.6453 Q5.76089 103.229 5.76089 111.979 Q5.76089 120.705 2.6822 125.312 Q-0.37334 129.895 -6.18349 129.895 Q-11.9936 129.895 -15.0723 125.312 Q-18.1279 120.705 -18.1279 111.979 Q-18.1279 103.229 -15.0723 98.6453 Q-11.9936 94.0389 -6.18349 94.0389 Z" fill="#000000" fill-rule="nonzero" fill-opacity="1" /><path clip-path="url(#clip670)" d="M13.9784 123.344 L18.8627 123.344 L18.8627 129.224 L13.9784 129.224 L13.9784 123.344 Z" fill="#000000" fill-rule="nonzero" fill-opacity="1" /><path clip-path="url(#clip670)" d="M39.0477 97.7426 Q35.4367 97.7426 33.608 101.307 Q31.8024 104.849 31.8024 111.979 Q31.8024 119.085 33.608 122.65 Q35.4367 126.191 39.0477 126.191 Q42.682 126.191 44.4875 122.65 Q46.3162 119.085 46.3162 111.979 Q46.3162 104.849 44.4875 101.307 Q42.682 97.7426 39.0477 97.7426 M39.0477 94.0389 Q44.8579 94.0389 47.9134 98.6453 Q50.9921 103.229 50.9921 111.979 Q50.9921 120.705 47.9134 125.312 Q44.8579 129.895 39.0477 129.895 Q33.2376 129.895 30.1589 125.312 Q27.1034 120.705 27.1034 111.979 Q27.1034 103.229 30.1589 98.6453 Q33.2376 94.0389 39.0477 94.0389 Z" fill="#000000" fill-rule="nonzero" fill-opacity="1" /><polyline clip-path="url(#clip672)" style="stroke:#009af9; stroke-linecap:round; stroke-linejoin:round; stroke-width:4; stroke-opacity:1; fill:none" points="86.9921,88.5087 313.569,1283.77 540.145,1464 766.721,1444.16 993.298,1387.1 1219.87,1325.25 1446.45,1264.97 1673.03,1207.39 1899.6,1152.64 2126.18,1100.6 2352.76,1051.17 "/>
<polyline clip-path="url(#clip672)" style="stroke:#e26f46; stroke-linecap:round; stroke-linejoin:round; stroke-width:4; stroke-opacity:1; fill:none" points="86.9921,304.539 313.569,150.463 540.145,119.648 766.721,113.485 993.298,112.252 1219.87,112.006 1446.45,111.956 1673.03,111.946 1899.6,111.944 2126.18,111.944 2352.76,111.944 "/>
<path clip-path="url(#clip670)" d="M1942.97 1456.66 L2277.23 1456.66 L2277.23 1301.14 L1942.97 1301.14  Z" fill="#ffffff" fill-rule="evenodd" fill-opacity="1"/>
<polyline clip-path="url(#clip670)" style="stroke:#000000; stroke-linecap:round; stroke-linejoin:round; stroke-width:4; stroke-opacity:1; fill:none" points="1942.97,1456.66 2277.23,1456.66 2277.23,1301.14 1942.97,1301.14 1942.97,1456.66 "/>
<polyline clip-path="url(#clip670)" style="stroke:#009af9; stroke-linecap:round; stroke-linejoin:round; stroke-width:4; stroke-opacity:1; fill:none" points="1968.14,1352.98 2119.2,1352.98 "/>
<path clip-path="url(#clip670)" d="M2144.37 1360.03 L2144.37 1344.33 L2148.63 1344.33 L2148.63 1359.87 Q2148.63 1363.55 2150.07 1365.4 Q2151.5 1367.23 2154.37 1367.23 Q2157.82 1367.23 2159.81 1365.03 Q2161.82 1362.83 2161.82 1359.03 L2161.82 1344.33 L2166.08 1344.33 L2166.08 1370.26 L2161.82 1370.26 L2161.82 1366.28 Q2160.27 1368.64 2158.21 1369.8 Q2156.18 1370.93 2153.47 1370.93 Q2149 1370.93 2146.69 1368.15 Q2144.37 1365.38 2144.37 1360.03 M2155.09 1343.71 L2155.09 1343.71 Z" fill="#000000" fill-rule="nonzero" fill-opacity="1" /><path clip-path="url(#clip670)" d="M2176.27 1366.32 L2183.91 1366.32 L2183.91 1339.96 L2175.6 1341.63 L2175.6 1337.37 L2183.86 1335.7 L2188.54 1335.7 L2188.54 1366.32 L2196.18 1366.32 L2196.18 1370.26 L2176.27 1370.26 L2176.27 1366.32 Z" fill="#000000" fill-rule="nonzero" fill-opacity="1" /><path clip-path="url(#clip670)" d="M2215.25 1334.29 Q2212.15 1339.61 2210.64 1344.82 Q2209.14 1350.03 2209.14 1355.38 Q2209.14 1360.72 2210.64 1365.98 Q2212.17 1371.21 2215.25 1376.51 L2211.55 1376.51 Q2208.07 1371.07 2206.34 1365.81 Q2204.62 1360.56 2204.62 1355.38 Q2204.62 1350.21 2206.34 1344.98 Q2208.05 1339.75 2211.55 1334.29 L2215.25 1334.29 Z" fill="#000000" fill-rule="nonzero" fill-opacity="1" /><path clip-path="url(#clip670)" d="M2227.73 1336.97 L2227.73 1344.33 L2236.5 1344.33 L2236.5 1347.64 L2227.73 1347.64 L2227.73 1361.72 Q2227.73 1364.89 2228.58 1365.79 Q2229.46 1366.69 2232.12 1366.69 L2236.5 1366.69 L2236.5 1370.26 L2232.12 1370.26 Q2227.19 1370.26 2225.32 1368.43 Q2223.44 1366.58 2223.44 1361.72 L2223.44 1347.64 L2220.32 1347.64 L2220.32 1344.33 L2223.44 1344.33 L2223.44 1336.97 L2227.73 1336.97 Z" fill="#000000" fill-rule="nonzero" fill-opacity="1" /><path clip-path="url(#clip670)" d="M2241.43 1334.29 L2245.13 1334.29 Q2248.61 1339.75 2250.32 1344.98 Q2252.06 1350.21 2252.06 1355.38 Q2252.06 1360.56 2250.32 1365.81 Q2248.61 1371.07 2245.13 1376.51 L2241.43 1376.51 Q2244.51 1371.21 2246.01 1365.98 Q2247.54 1360.72 2247.54 1355.38 Q2247.54 1350.03 2246.01 1344.82 Q2244.51 1339.61 2241.43 1334.29 Z" fill="#000000" fill-rule="nonzero" fill-opacity="1" /><polyline clip-path="url(#clip670)" style="stroke:#e26f46; stroke-linecap:round; stroke-linejoin:round; stroke-width:4; stroke-opacity:1; fill:none" points="1968.14,1404.82 2119.2,1404.82 "/>
<path clip-path="url(#clip670)" d="M2144.37 1411.87 L2144.37 1396.17 L2148.63 1396.17 L2148.63 1411.71 Q2148.63 1415.39 2150.07 1417.24 Q2151.5 1419.07 2154.37 1419.07 Q2157.82 1419.07 2159.81 1416.87 Q2161.82 1414.67 2161.82 1410.87 L2161.82 1396.17 L2166.08 1396.17 L2166.08 1422.1 L2161.82 1422.1 L2161.82 1418.12 Q2160.27 1420.48 2158.21 1421.64 Q2156.18 1422.77 2153.47 1422.77 Q2149 1422.77 2146.69 1419.99 Q2144.37 1417.22 2144.37 1411.87 M2155.09 1395.55 L2155.09 1395.55 Z" fill="#000000" fill-rule="nonzero" fill-opacity="1" /><path clip-path="url(#clip670)" d="M2179.49 1418.16 L2195.81 1418.16 L2195.81 1422.1 L2173.86 1422.1 L2173.86 1418.16 Q2176.52 1415.41 2181.11 1410.78 Q2185.71 1406.13 2186.89 1404.78 Q2189.14 1402.26 2190.02 1400.53 Q2190.92 1398.77 2190.92 1397.08 Q2190.92 1394.32 2188.98 1392.59 Q2187.06 1390.85 2183.95 1390.85 Q2181.75 1390.85 2179.3 1391.61 Q2176.87 1392.38 2174.09 1393.93 L2174.09 1389.21 Q2176.92 1388.07 2179.37 1387.49 Q2181.82 1386.91 2183.86 1386.91 Q2189.23 1386.91 2192.43 1389.6 Q2195.62 1392.28 2195.62 1396.78 Q2195.62 1398.9 2194.81 1400.83 Q2194.02 1402.72 2191.92 1405.32 Q2191.34 1405.99 2188.24 1409.21 Q2185.13 1412.4 2179.49 1418.16 Z" fill="#000000" fill-rule="nonzero" fill-opacity="1" /><path clip-path="url(#clip670)" d="M2215.25 1386.13 Q2212.15 1391.45 2210.64 1396.66 Q2209.14 1401.87 2209.14 1407.22 Q2209.14 1412.56 2210.64 1417.82 Q2212.17 1423.05 2215.25 1428.35 L2211.55 1428.35 Q2208.07 1422.91 2206.34 1417.65 Q2204.62 1412.4 2204.62 1407.22 Q2204.62 1402.05 2206.34 1396.82 Q2208.05 1391.59 2211.55 1386.13 L2215.25 1386.13 Z" fill="#000000" fill-rule="nonzero" fill-opacity="1" /><path clip-path="url(#clip670)" d="M2227.73 1388.81 L2227.73 1396.17 L2236.5 1396.17 L2236.5 1399.48 L2227.73 1399.48 L2227.73 1413.56 Q2227.73 1416.73 2228.58 1417.63 Q2229.46 1418.53 2232.12 1418.53 L2236.5 1418.53 L2236.5 1422.1 L2232.12 1422.1 Q2227.19 1422.1 2225.32 1420.27 Q2223.44 1418.42 2223.44 1413.56 L2223.44 1399.48 L2220.32 1399.48 L2220.32 1396.17 L2223.44 1396.17 L2223.44 1388.81 L2227.73 1388.81 Z" fill="#000000" fill-rule="nonzero" fill-opacity="1" /><path clip-path="url(#clip670)" d="M2241.43 1386.13 L2245.13 1386.13 Q2248.61 1391.59 2250.32 1396.82 Q2252.06 1402.05 2252.06 1407.22 Q2252.06 1412.4 2250.32 1417.65 Q2248.61 1422.91 2245.13 1428.35 L2241.43 1428.35 Q2244.51 1423.05 2246.01 1417.82 Q2247.54 1412.56 2247.54 1407.22 Q2247.54 1401.87 2246.01 1396.66 Q2244.51 1391.45 2241.43 1386.13 Z" fill="#000000" fill-rule="nonzero" fill-opacity="1" /></svg>
