<?xml version="1.0" encoding="utf-8"?>
<svg xmlns="http://www.w3.org/2000/svg" xmlns:xlink="http://www.w3.org/1999/xlink" width="600" height="400" viewBox="0 0 2400 1600">
<defs>
  <clipPath id="clip490">
    <rect x="0" y="0" width="2400" height="1600"/>
  </clipPath>
</defs>
<path clip-path="url(#clip490)" d="M0 1600 L2400 1600 L2400 0 L0 0  Z" fill="#ffffff" fill-rule="evenodd" fill-opacity="1"/>
<defs>
  <clipPath id="clip491">
    <rect x="480" y="0" width="1681" height="1600"/>
  </clipPath>
</defs>
<path clip-path="url(#clip490)" d="M86.9921 1505.26 L2352.76 1505.26 L2352.76 47.2441 L86.9921 47.2441  Z" fill="#ffffff" fill-rule="evenodd" fill-opacity="1"/>
<defs>
  <clipPath id="clip492">
    <rect x="86" y="47" width="2267" height="1459"/>
  </clipPath>
</defs>
<polyline clip-path="url(#clip492)" style="stroke:#000000; stroke-linecap:round; stroke-linejoin:round; stroke-width:2; stroke-opacity:0.1; fill:none" points="86.9921,1505.26 86.9921,47.2441 "/>
<polyline clip-path="url(#clip492)" style="stroke:#000000; stroke-linecap:round; stroke-linejoin:round; stroke-width:2; stroke-opacity:0.1; fill:none" points="540.145,1505.26 540.145,47.2441 "/>
<polyline clip-path="url(#clip492)" style="stroke:#000000; stroke-linecap:round; stroke-linejoin:round; stroke-width:2; stroke-opacity:0.1; fill:none" points="993.298,1505.26 993.298,47.2441 "/>
<polyline clip-path="url(#clip492)" style="stroke:#000000; stroke-linecap:round; stroke-linejoin:round; stroke-width:2; stroke-opacity:0.1; fill:none" points="1446.45,1505.26 1446.45,47.2441 "/>
<polyline clip-path="url(#clip492)" style="stroke:#000000; stroke-linecap:round; stroke-linejoin:round; stroke-width:2; stroke-opacity:0.1; fill:none" points="1899.6,1505.26 1899.6,47.2441 "/>
<polyline clip-path="url(#clip492)" style="stroke:#000000; stroke-linecap:round; stroke-linejoin:round; stroke-width:2; stroke-opacity:0.1; fill:none" points="2352.76,1505.26 2352.76,47.2441 "/>
<polyline clip-path="url(#clip490)" style="stroke:#000000; stroke-linecap:round; stroke-linejoin:round; stroke-width:4; stroke-opacity:1; fill:none" points="86.9921,1505.26 2352.76,1505.26 "/>
<polyline clip-path="url(#clip490)" style="stroke:#000000; stroke-linecap:round; stroke-linejoin:round; stroke-width:4; stroke-opacity:1; fill:none" points="86.9921,1505.26 86.9921,1486.36 "/>
<polyline clip-path="url(#clip490)" style="stroke:#000000; stroke-linecap:round; stroke-linejoin:round; stroke-width:4; stroke-opacity:1; fill:none" points="540.145,1505.26 540.145,1486.36 "/>
<polyline clip-path="url(#clip490)" style="stroke:#000000; stroke-linecap:round; stroke-linejoin:round; stroke-width:4; stroke-opacity:1; fill:none" points="993.298,1505.26 993.298,1486.36 "/>
<polyline clip-path="url(#clip490)" style="stroke:#000000; stroke-linecap:round; stroke-linejoin:round; stroke-width:4; stroke-opacity:1; fill:none" points="1446.45,1505.26 1446.45,1486.36 "/>
<polyline clip-path="url(#clip490)" style="stroke:#000000; stroke-linecap:round; stroke-linejoin:round; stroke-width:4; stroke-opacity:1; fill:none" points="1899.6,1505.26 1899.6,1486.36 "/>
<polyline clip-path="url(#clip490)" style="stroke:#000000; stroke-linecap:round; stroke-linejoin:round; stroke-width:4; stroke-opacity:1; fill:none" points="2352.76,1505.26 2352.76,1486.36 "/>
<path clip-path="url(#clip490)" d="M86.9921 1536.18 Q83.381 1536.18 81.5523 1539.74 Q79.7468 1543.28 79.7468 1550.41 Q79.7468 1557.52 81.5523 1561.09 Q83.381 1564.63 86.9921 1564.63 Q90.6264 1564.63 92.4319 1561.09 Q94.2606 1557.52 94.2606 1550.41 Q94.2606 1543.28 92.4319 1539.74 Q90.6264 1536.18 86.9921 1536.18 M86.9921 1532.47 Q92.8023 1532.47 95.8578 1537.08 Q98.9365 1541.66 98.9365 1550.41 Q98.9365 1559.14 95.8578 1563.75 Q92.8023 1568.33 86.9921 1568.33 Q81.182 1568.33 78.1033 1563.75 Q75.0477 1559.14 75.0477 1550.41 Q75.0477 1541.66 78.1033 1537.08 Q81.182 1532.47 86.9921 1532.47 Z" fill="#000000" fill-rule="nonzero" fill-opacity="1" /><path clip-path="url(#clip490)" d="M534.798 1563.72 L551.117 1563.72 L551.117 1567.66 L529.173 1567.66 L529.173 1563.72 Q531.835 1560.97 536.418 1556.34 Q541.025 1551.69 542.205 1550.35 Q544.45 1547.82 545.33 1546.09 Q546.233 1544.33 546.233 1542.64 Q546.233 1539.88 544.288 1538.15 Q542.367 1536.41 539.265 1536.41 Q537.066 1536.41 534.613 1537.17 Q532.182 1537.94 529.404 1539.49 L529.404 1534.77 Q532.228 1533.63 534.682 1533.05 Q537.136 1532.47 539.173 1532.47 Q544.543 1532.47 547.737 1535.16 Q550.932 1537.85 550.932 1542.34 Q550.932 1544.47 550.122 1546.39 Q549.335 1548.28 547.228 1550.88 Q546.649 1551.55 543.548 1554.77 Q540.446 1557.96 534.798 1563.72 Z" fill="#000000" fill-rule="nonzero" fill-opacity="1" /><path clip-path="url(#clip490)" d="M996.307 1537.17 L984.501 1555.62 L996.307 1555.62 L996.307 1537.17 M995.08 1533.1 L1000.96 1533.1 L1000.96 1555.62 L1005.89 1555.62 L1005.89 1559.51 L1000.96 1559.51 L1000.96 1567.66 L996.307 1567.66 L996.307 1559.51 L980.705 1559.51 L980.705 1555 L995.08 1533.1 Z" fill="#000000" fill-rule="nonzero" fill-opacity="1" /><path clip-path="url(#clip490)" d="M1446.86 1548.52 Q1443.71 1548.52 1441.86 1550.67 Q1440.03 1552.82 1440.03 1556.57 Q1440.03 1560.3 1441.86 1562.47 Q1443.71 1564.63 1446.86 1564.63 Q1450 1564.63 1451.83 1562.47 Q1453.68 1560.3 1453.68 1556.57 Q1453.68 1552.82 1451.83 1550.67 Q1450 1548.52 1446.86 1548.52 M1456.14 1533.86 L1456.14 1538.12 Q1454.38 1537.29 1452.57 1536.85 Q1450.79 1536.41 1449.03 1536.41 Q1444.4 1536.41 1441.95 1539.53 Q1439.52 1542.66 1439.17 1548.98 Q1440.54 1546.97 1442.6 1545.9 Q1444.66 1544.81 1447.13 1544.81 Q1452.34 1544.81 1455.35 1547.98 Q1458.38 1551.13 1458.38 1556.57 Q1458.38 1561.9 1455.24 1565.11 Q1452.09 1568.33 1446.86 1568.33 Q1440.86 1568.33 1437.69 1563.75 Q1434.52 1559.14 1434.52 1550.41 Q1434.52 1542.22 1438.41 1537.36 Q1442.3 1532.47 1448.85 1532.47 Q1450.61 1532.47 1452.39 1532.82 Q1454.19 1533.17 1456.14 1533.86 Z" fill="#000000" fill-rule="nonzero" fill-opacity="1" /><path clip-path="url(#clip490)" d="M1899.6 1551.25 Q1896.27 1551.25 1894.35 1553.03 Q1892.45 1554.81 1892.45 1557.94 Q1892.45 1561.06 1894.35 1562.85 Q1896.27 1564.63 1899.6 1564.63 Q1902.94 1564.63 1904.86 1562.85 Q1906.78 1561.04 1906.78 1557.94 Q1906.78 1554.81 1904.86 1553.03 Q1902.96 1551.25 1899.6 1551.25 M1894.93 1549.26 Q1891.92 1548.52 1890.23 1546.46 Q1888.56 1544.4 1888.56 1541.43 Q1888.56 1537.29 1891.5 1534.88 Q1894.46 1532.47 1899.6 1532.47 Q1904.77 1532.47 1907.7 1534.88 Q1910.64 1537.29 1910.64 1541.43 Q1910.64 1544.4 1908.95 1546.46 Q1907.29 1548.52 1904.3 1549.26 Q1907.68 1550.04 1909.56 1552.34 Q1911.45 1554.63 1911.45 1557.94 Q1911.45 1562.96 1908.38 1565.65 Q1905.32 1568.33 1899.6 1568.33 Q1893.89 1568.33 1890.81 1565.65 Q1887.75 1562.96 1887.75 1557.94 Q1887.75 1554.63 1889.65 1552.34 Q1891.55 1550.04 1894.93 1549.26 M1893.21 1541.87 Q1893.21 1544.56 1894.88 1546.06 Q1896.57 1547.57 1899.6 1547.57 Q1902.61 1547.57 1904.3 1546.06 Q1906.02 1544.56 1906.02 1541.87 Q1906.02 1539.19 1904.3 1537.68 Q1902.61 1536.18 1899.6 1536.18 Q1896.57 1536.18 1894.88 1537.68 Q1893.21 1539.19 1893.21 1541.87 Z" fill="#000000" fill-rule="nonzero" fill-opacity="1" /><path clip-path="url(#clip490)" d="M2327.44 1563.72 L2335.08 1563.72 L2335.08 1537.36 L2326.77 1539.03 L2326.77 1534.77 L2335.04 1533.1 L2339.71 1533.1 L2339.71 1563.72 L2347.35 1563.72 L2347.35 1567.66 L2327.44 1567.66 L2327.44 1563.72 Z" fill="#000000" fill-rule="nonzero" fill-opacity="1" /><path clip-path="url(#clip490)" d="M2366.8 1536.18 Q2363.18 1536.18 2361.36 1539.74 Q2359.55 1543.28 2359.55 1550.41 Q2359.55 1557.52 2361.36 1561.09 Q2363.18 1564.63 2366.8 1564.63 Q2370.43 1564.63 2372.23 1561.09 Q2374.06 1557.52 2374.06 1550.41 Q2374.06 1543.28 2372.23 1539.74 Q2370.43 1536.18 2366.8 1536.18 M2366.8 1532.47 Q2372.61 1532.47 2375.66 1537.08 Q2378.74 1541.66 2378.74 1550.41 Q2378.74 1559.14 2375.66 1563.75 Q2372.61 1568.33 2366.8 1568.33 Q2360.99 1568.33 2357.91 1563.75 Q2354.85 1559.14 2354.85 1550.41 Q2354.85 1541.66 2357.91 1537.08 Q2360.99 1532.47 2366.8 1532.47 Z" fill="#000000" fill-rule="nonzero" fill-opacity="1" /><path clip-path="url(#clip490)" d="M1218.94 1604.35 L1218.94 1614.48 L1231 1614.48 L1231 1619.03 L1218.94 1619.03 L1218.94 1638.38 Q1218.94 1642.74 1220.11 1643.98 Q1221.32 1645.22 1224.98 1645.22 L1231 1645.22 L1231 1650.12 L1224.98 1650.12 Q1218.2 1650.12 1215.62 1647.61 Q1213.05 1645.06 1213.05 1638.38 L1213.05 1619.03 L1208.75 1619.03 L1208.75 1614.48 L1213.05 1614.48 L1213.05 1604.35 L1218.94 1604.35 Z" fill="#000000" fill-rule="nonzero" fill-opacity="1" /><polyline clip-path="url(#clip492)" style="stroke:#000000; stroke-linecap:round; stroke-linejoin:round; stroke-width:2; stroke-opacity:0.1; fill:none" points="86.9921,1399.6 2352.76,1399.6 "/>
<polyline clip-path="url(#clip492)" style="stroke:#000000; stroke-linecap:round; stroke-linejoin:round; stroke-width:2; stroke-opacity:0.1; fill:none" points="86.9921,1201.67 2352.76,1201.67 "/>
<polyline clip-path="url(#clip492)" style="stroke:#000000; stroke-linecap:round; stroke-linejoin:round; stroke-width:2; stroke-opacity:0.1; fill:none" points="86.9921,1003.74 2352.76,1003.74 "/>
<polyline clip-path="url(#clip492)" style="stroke:#000000; stroke-linecap:round; stroke-linejoin:round; stroke-width:2; stroke-opacity:0.1; fill:none" points="86.9921,805.816 2352.76,805.816 "/>
<polyline clip-path="url(#clip492)" style="stroke:#000000; stroke-linecap:round; stroke-linejoin:round; stroke-width:2; stroke-opacity:0.1; fill:none" points="86.9921,607.889 2352.76,607.889 "/>
<polyline clip-path="url(#clip492)" style="stroke:#000000; stroke-linecap:round; stroke-linejoin:round; stroke-width:2; stroke-opacity:0.1; fill:none" points="86.9921,409.961 2352.76,409.961 "/>
<polyline clip-path="url(#clip492)" style="stroke:#000000; stroke-linecap:round; stroke-linejoin:round; stroke-width:2; stroke-opacity:0.1; fill:none" points="86.9921,212.034 2352.76,212.034 "/>
<polyline clip-path="url(#clip490)" style="stroke:#000000; stroke-linecap:round; stroke-linejoin:round; stroke-width:4; stroke-opacity:1; fill:none" points="86.9921,1505.26 86.9921,47.2441 "/>
<polyline clip-path="url(#clip490)" style="stroke:#000000; stroke-linecap:round; stroke-linejoin:round; stroke-width:4; stroke-opacity:1; fill:none" points="86.9921,1399.6 105.89,1399.6 "/>
<polyline clip-path="url(#clip490)" style="stroke:#000000; stroke-linecap:round; stroke-linejoin:round; stroke-width:4; stroke-opacity:1; fill:none" points="86.9921,1201.67 105.89,1201.67 "/>
<polyline clip-path="url(#clip490)" style="stroke:#000000; stroke-linecap:round; stroke-linejoin:round; stroke-width:4; stroke-opacity:1; fill:none" points="86.9921,1003.74 105.89,1003.74 "/>
<polyline clip-path="url(#clip490)" style="stroke:#000000; stroke-linecap:round; stroke-linejoin:round; stroke-width:4; stroke-opacity:1; fill:none" points="86.9921,805.816 105.89,805.816 "/>
<polyline clip-path="url(#clip490)" style="stroke:#000000; stroke-linecap:round; stroke-linejoin:round; stroke-width:4; stroke-opacity:1; fill:none" points="86.9921,607.889 105.89,607.889 "/>
<polyline clip-path="url(#clip490)" style="stroke:#000000; stroke-linecap:round; stroke-linejoin:round; stroke-width:4; stroke-opacity:1; fill:none" points="86.9921,409.961 105.89,409.961 "/>
<polyline clip-path="url(#clip490)" style="stroke:#000000; stroke-linecap:round; stroke-linejoin:round; stroke-width:4; stroke-opacity:1; fill:none" points="86.9921,212.034 105.89,212.034 "/>
<path clip-path="url(#clip490)" d="M-84.5164 1400.05 L-54.8406 1400.05 L-54.8406 1403.98 L-84.5164 1403.98 L-84.5164 1400.05 Z" fill="#000000" fill-rule="nonzero" fill-opacity="1" /><path clip-path="url(#clip490)" d="M-34.7482 1385.4 Q-38.3592 1385.4 -40.1879 1388.96 Q-41.9935 1392.5 -41.9935 1399.63 Q-41.9935 1406.74 -40.1879 1410.3 Q-38.3592 1413.85 -34.7482 1413.85 Q-31.1139 1413.85 -29.3084 1410.3 Q-27.4797 1406.74 -27.4797 1399.63 Q-27.4797 1392.5 -29.3084 1388.96 Q-31.1139 1385.4 -34.7482 1385.4 M-34.7482 1381.69 Q-28.938 1381.69 -25.8825 1386.3 Q-22.8038 1390.88 -22.8038 1399.63 Q-22.8038 1408.36 -25.8825 1412.97 Q-28.938 1417.55 -34.7482 1417.55 Q-40.5583 1417.55 -43.637 1412.97 Q-46.6925 1408.36 -46.6925 1399.63 Q-46.6925 1390.88 -43.637 1386.3 Q-40.5583 1381.69 -34.7482 1381.69 Z" fill="#000000" fill-rule="nonzero" fill-opacity="1" /><path clip-path="url(#clip490)" d="M-14.5862 1411 L-9.70199 1411 L-9.70199 1416.88 L-14.5862 1416.88 L-14.5862 1411 Z" fill="#000000" fill-rule="nonzero" fill-opacity="1" /><path clip-path="url(#clip490)" d="M1.29332 1412.94 L8.93217 1412.94 L8.93217 1386.58 L0.622026 1388.24 L0.622026 1383.98 L8.88587 1382.32 L13.5618 1382.32 L13.5618 1412.94 L21.2006 1412.94 L21.2006 1416.88 L1.29332 1416.88 L1.29332 1412.94 Z" fill="#000000" fill-rule="nonzero" fill-opacity="1" /><path clip-path="url(#clip490)" d="M34.6728 1412.94 L50.9921 1412.94 L50.9921 1416.88 L29.0478 1416.88 L29.0478 1412.94 Q31.7098 1410.19 36.2931 1405.56 Q40.8996 1400.91 42.0801 1399.56 Q44.3255 1397.04 45.2051 1395.3 Q46.1079 1393.54 46.1079 1391.85 Q46.1079 1389.1 44.1635 1387.36 Q42.2422 1385.63 39.1403 1385.63 Q36.9413 1385.63 34.4876 1386.39 Q32.057 1387.16 29.2793 1388.71 L29.2793 1383.98 Q32.1033 1382.85 34.557 1382.27 Q37.0107 1381.69 39.0477 1381.69 Q44.4181 1381.69 47.6125 1384.38 Q50.8069 1387.06 50.8069 1391.55 Q50.8069 1393.68 49.9968 1395.6 Q49.2097 1397.5 47.1033 1400.1 Q46.5246 1400.77 43.4227 1403.98 Q40.3209 1407.18 34.6728 1412.94 Z" fill="#000000" fill-rule="nonzero" fill-opacity="1" /><path clip-path="url(#clip490)" d="M-86.1136 1202.12 L-56.4379 1202.12 L-56.4379 1206.06 L-86.1136 1206.06 L-86.1136 1202.12 Z" fill="#000000" fill-rule="nonzero" fill-opacity="1" /><path clip-path="url(#clip490)" d="M-36.3454 1187.47 Q-39.9565 1187.47 -41.7852 1191.03 Q-43.5907 1194.58 -43.5907 1201.71 Q-43.5907 1208.81 -41.7852 1212.38 Q-39.9565 1215.92 -36.3454 1215.92 Q-32.7111 1215.92 -30.9056 1212.38 Q-29.0769 1208.81 -29.0769 1201.71 Q-29.0769 1194.58 -30.9056 1191.03 Q-32.7111 1187.47 -36.3454 1187.47 M-36.3454 1183.77 Q-30.5352 1183.77 -27.4797 1188.37 Q-24.401 1192.96 -24.401 1201.71 Q-24.401 1210.43 -27.4797 1215.04 Q-30.5352 1219.62 -36.3454 1219.62 Q-42.1555 1219.62 -45.2342 1215.04 Q-48.2897 1210.43 -48.2897 1201.71 Q-48.2897 1192.96 -45.2342 1188.37 Q-42.1555 1183.77 -36.3454 1183.77 Z" fill="#000000" fill-rule="nonzero" fill-opacity="1" /><path clip-path="url(#clip490)" d="M-16.1834 1213.07 L-11.2992 1213.07 L-11.2992 1218.95 L-16.1834 1218.95 L-16.1834 1213.07 Z" fill="#000000" fill-rule="nonzero" fill-opacity="1" /><path clip-path="url(#clip490)" d="M-0.303895 1215.02 L7.33495 1215.02 L7.33495 1188.65 L-0.975188 1190.32 L-0.975188 1186.06 L7.28866 1184.39 L11.9646 1184.39 L11.9646 1215.02 L19.6034 1215.02 L19.6034 1218.95 L-0.303895 1218.95 L-0.303895 1215.02 Z" fill="#000000" fill-rule="nonzero" fill-opacity="1" /><path clip-path="url(#clip490)" d="M39.0477 1187.47 Q35.4367 1187.47 33.608 1191.03 Q31.8024 1194.58 31.8024 1201.71 Q31.8024 1208.81 33.608 1212.38 Q35.4367 1215.92 39.0477 1215.92 Q42.682 1215.92 44.4875 1212.38 Q46.3162 1208.81 46.3162 1201.71 Q46.3162 1194.58 44.4875 1191.03 Q42.682 1187.47 39.0477 1187.47 M39.0477 1183.77 Q44.8579 1183.77 47.9134 1188.37 Q50.9921 1192.96 50.9921 1201.71 Q50.9921 1210.43 47.9134 1215.04 Q44.8579 1219.62 39.0477 1219.62 Q33.2376 1219.62 30.1589 1215.04 Q27.1034 1210.43 27.1034 1201.71 Q27.1034 1192.96 30.1589 1188.37 Q33.2376 1183.77 39.0477 1183.77 Z" fill="#000000" fill-rule="nonzero" fill-opacity="1" /><path clip-path="url(#clip490)" d="M-86.021 1004.19 L-56.3453 1004.19 L-56.3453 1008.13 L-86.021 1008.13 L-86.021 1004.19 Z" fill="#000000" fill-rule="nonzero" fill-opacity="1" /><path clip-path="url(#clip490)" d="M-36.2528 989.542 Q-39.8639 989.542 -41.6926 993.107 Q-43.4981 996.648 -43.4981 1003.78 Q-43.4981 1010.88 -41.6926 1014.45 Q-39.8639 1017.99 -36.2528 1017.99 Q-32.6185 1017.99 -30.813 1014.45 Q-28.9843 1010.88 -28.9843 1003.78 Q-28.9843 996.648 -30.813 993.107 Q-32.6185 989.542 -36.2528 989.542 M-36.2528 985.838 Q-30.4426 985.838 -27.3871 990.445 Q-24.3084 995.028 -24.3084 1003.78 Q-24.3084 1012.5 -27.3871 1017.11 Q-30.4426 1021.69 -36.2528 1021.69 Q-42.0629 1021.69 -45.1416 1017.11 Q-48.1972 1012.5 -48.1972 1003.78 Q-48.1972 995.028 -45.1416 990.445 Q-42.0629 985.838 -36.2528 985.838 Z" fill="#000000" fill-rule="nonzero" fill-opacity="1" /><path clip-path="url(#clip490)" d="M-16.0908 1015.14 L-11.2066 1015.14 L-11.2066 1021.02 L-16.0908 1021.02 L-16.0908 1015.14 Z" fill="#000000" fill-rule="nonzero" fill-opacity="1" /><path clip-path="url(#clip490)" d="M8.97846 989.542 Q5.36737 989.542 3.53868 993.107 Q1.73313 996.648 1.73313 1003.78 Q1.73313 1010.88 3.53868 1014.45 Q5.36737 1017.99 8.97846 1017.99 Q12.6127 1017.99 14.4182 1014.45 Q16.2469 1010.88 16.2469 1003.78 Q16.2469 996.648 14.4182 993.107 Q12.6127 989.542 8.97846 989.542 M8.97846 985.838 Q14.7886 985.838 17.8442 990.445 Q20.9228 995.028 20.9228 1003.78 Q20.9228 1012.5 17.8442 1017.11 Q14.7886 1021.69 8.97846 1021.69 Q3.16831 1021.69 0.089621 1017.11 Q-2.96592 1012.5 -2.96592 1003.78 Q-2.96592 995.028 0.089621 990.445 Q3.16831 985.838 8.97846 985.838 Z" fill="#000000" fill-rule="nonzero" fill-opacity="1" /><path clip-path="url(#clip490)" d="M39.1403 1004.61 Q35.807 1004.61 33.8857 1006.39 Q31.9876 1008.18 31.9876 1011.3 Q31.9876 1014.43 33.8857 1016.21 Q35.807 1017.99 39.1403 1017.99 Q42.4737 1017.99 44.3949 1016.21 Q46.3162 1014.4 46.3162 1011.3 Q46.3162 1008.18 44.3949 1006.39 Q42.4968 1004.61 39.1403 1004.61 M34.4644 1002.62 Q31.4552 1001.88 29.7654 999.82 Q28.0987 997.759 28.0987 994.797 Q28.0987 990.653 31.0385 988.246 Q34.0015 985.838 39.1403 985.838 Q44.3023 985.838 47.2421 988.246 Q50.1819 990.653 50.1819 994.797 Q50.1819 997.759 48.4921 999.82 Q46.8255 1001.88 43.8394 1002.62 Q47.219 1003.41 49.094 1005.7 Q50.9921 1007.99 50.9921 1011.3 Q50.9921 1016.32 47.9134 1019.01 Q44.8579 1021.69 39.1403 1021.69 Q33.4228 1021.69 30.3441 1019.01 Q27.2885 1016.32 27.2885 1011.3 Q27.2885 1007.99 29.1867 1005.7 Q31.0848 1003.41 34.4644 1002.62 M32.7515 995.236 Q32.7515 997.922 34.4181 999.426 Q36.1079 1000.93 39.1403 1000.93 Q42.1496 1000.93 43.8394 999.426 Q45.5523 997.922 45.5523 995.236 Q45.5523 992.551 43.8394 991.047 Q42.1496 989.542 39.1403 989.542 Q36.1079 989.542 34.4181 991.047 Q32.7515 992.551 32.7515 995.236 Z" fill="#000000" fill-rule="nonzero" fill-opacity="1" /><path clip-path="url(#clip490)" d="M-86.2757 806.267 L-56.5999 806.267 L-56.5999 810.202 L-86.2757 810.202 L-86.2757 806.267 Z" fill="#000000" fill-rule="nonzero" fill-opacity="1" /><path clip-path="url(#clip490)" d="M-36.5074 791.615 Q-40.1185 791.615 -41.9472 795.179 Q-43.7527 798.721 -43.7527 805.851 Q-43.7527 812.957 -41.9472 816.522 Q-40.1185 820.063 -36.5074 820.063 Q-32.8732 820.063 -31.0676 816.522 Q-29.2389 812.957 -29.2389 805.851 Q-29.2389 798.721 -31.0676 795.179 Q-32.8732 791.615 -36.5074 791.615 M-36.5074 787.911 Q-30.6973 787.911 -27.6417 792.517 Q-24.563 797.101 -24.563 805.851 Q-24.563 814.577 -27.6417 819.184 Q-30.6973 823.767 -36.5074 823.767 Q-42.3176 823.767 -45.3962 819.184 Q-48.4518 814.577 -48.4518 805.851 Q-48.4518 797.101 -45.3962 792.517 Q-42.3176 787.911 -36.5074 787.911 Z" fill="#000000" fill-rule="nonzero" fill-opacity="1" /><path clip-path="url(#clip490)" d="M-16.3455 817.216 L-11.4612 817.216 L-11.4612 823.096 L-16.3455 823.096 L-16.3455 817.216 Z" fill="#000000" fill-rule="nonzero" fill-opacity="1" /><path clip-path="url(#clip490)" d="M8.72383 791.615 Q5.11274 791.615 3.28405 795.179 Q1.4785 798.721 1.4785 805.851 Q1.4785 812.957 3.28405 816.522 Q5.11274 820.063 8.72383 820.063 Q12.3581 820.063 14.1636 816.522 Q15.9923 812.957 15.9923 805.851 Q15.9923 798.721 14.1636 795.179 Q12.3581 791.615 8.72383 791.615 M8.72383 787.911 Q14.534 787.911 17.5895 792.517 Q20.6682 797.101 20.6682 805.851 Q20.6682 814.577 17.5895 819.184 Q14.534 823.767 8.72383 823.767 Q2.91368 823.767 -0.165007 819.184 Q-3.22055 814.577 -3.22055 805.851 Q-3.22055 797.101 -0.165007 792.517 Q2.91368 787.911 8.72383 787.911 Z" fill="#000000" fill-rule="nonzero" fill-opacity="1" /><path clip-path="url(#clip490)" d="M39.4644 803.952 Q36.3163 803.952 34.4644 806.105 Q32.6357 808.258 32.6357 812.008 Q32.6357 815.735 34.4644 817.911 Q36.3163 820.063 39.4644 820.063 Q42.6125 820.063 44.4412 817.911 Q46.2931 815.735 46.2931 812.008 Q46.2931 808.258 44.4412 806.105 Q42.6125 803.952 39.4644 803.952 M48.7468 789.3 L48.7468 793.559 Q46.9875 792.726 45.182 792.286 Q43.3996 791.846 41.6403 791.846 Q37.0107 791.846 34.557 794.971 Q32.1265 798.096 31.7793 804.415 Q33.145 802.402 35.2052 801.337 Q37.2653 800.249 39.7422 800.249 Q44.9505 800.249 47.9597 803.42 Q50.9921 806.568 50.9921 812.008 Q50.9921 817.332 47.844 820.55 Q44.6959 823.767 39.4644 823.767 Q33.4691 823.767 30.2978 819.184 Q27.1265 814.577 27.1265 805.851 Q27.1265 797.656 31.0154 792.795 Q34.9042 787.911 41.4551 787.911 Q43.2144 787.911 44.9968 788.258 Q46.8023 788.605 48.7468 789.3 Z" fill="#000000" fill-rule="nonzero" fill-opacity="1" /><path clip-path="url(#clip490)" d="M-86.5997 608.34 L-56.924 608.34 L-56.924 612.275 L-86.5997 612.275 L-86.5997 608.34 Z" fill="#000000" fill-rule="nonzero" fill-opacity="1" /><path clip-path="url(#clip490)" d="M-36.8315 593.687 Q-40.4426 593.687 -42.2713 597.252 Q-44.0768 600.794 -44.0768 607.923 Q-44.0768 615.03 -42.2713 618.594 Q-40.4426 622.136 -36.8315 622.136 Q-33.1972 622.136 -31.3917 618.594 Q-29.563 615.03 -29.563 607.923 Q-29.563 600.794 -31.3917 597.252 Q-33.1972 593.687 -36.8315 593.687 M-36.8315 589.984 Q-31.0213 589.984 -27.9658 594.59 Q-24.8871 599.173 -24.8871 607.923 Q-24.8871 616.65 -27.9658 621.257 Q-31.0213 625.84 -36.8315 625.84 Q-42.6416 625.84 -45.7203 621.257 Q-48.7759 616.65 -48.7759 607.923 Q-48.7759 599.173 -45.7203 594.59 Q-42.6416 589.984 -36.8315 589.984 Z" fill="#000000" fill-rule="nonzero" fill-opacity="1" /><path clip-path="url(#clip490)" d="M-16.6695 619.289 L-11.7853 619.289 L-11.7853 625.169 L-16.6695 625.169 L-16.6695 619.289 Z" fill="#000000" fill-rule="nonzero" fill-opacity="1" /><path clip-path="url(#clip490)" d="M8.39976 593.687 Q4.78867 593.687 2.95998 597.252 Q1.15443 600.794 1.15443 607.923 Q1.15443 615.03 2.95998 618.594 Q4.78867 622.136 8.39976 622.136 Q12.034 622.136 13.8395 618.594 Q15.6682 615.03 15.6682 607.923 Q15.6682 600.794 13.8395 597.252 Q12.034 593.687 8.39976 593.687 M8.39976 589.984 Q14.2099 589.984 17.2655 594.59 Q20.3441 599.173 20.3441 607.923 Q20.3441 616.65 17.2655 621.257 Q14.2099 625.84 8.39976 625.84 Q2.58961 625.84 -0.48908 621.257 Q-3.54462 616.65 -3.54462 607.923 Q-3.54462 599.173 -0.48908 594.59 Q2.58961 589.984 8.39976 589.984 Z" fill="#000000" fill-rule="nonzero" fill-opacity="1" /><path clip-path="url(#clip490)" d="M41.4088 594.683 L29.6034 613.132 L41.4088 613.132 L41.4088 594.683 M40.182 590.609 L46.0616 590.609 L46.0616 613.132 L50.9921 613.132 L50.9921 617.02 L46.0616 617.02 L46.0616 625.169 L41.4088 625.169 L41.4088 617.02 L25.8071 617.02 L25.8071 612.507 L40.182 590.609 Z" fill="#000000" fill-rule="nonzero" fill-opacity="1" /><path clip-path="url(#clip490)" d="M-84.5164 410.413 L-54.8406 410.413 L-54.8406 414.348 L-84.5164 414.348 L-84.5164 410.413 Z" fill="#000000" fill-rule="nonzero" fill-opacity="1" /><path clip-path="url(#clip490)" d="M-34.7482 395.76 Q-38.3592 395.76 -40.1879 399.325 Q-41.9935 402.866 -41.9935 409.996 Q-41.9935 417.102 -40.1879 420.667 Q-38.3592 424.209 -34.7482 424.209 Q-31.1139 424.209 -29.3084 420.667 Q-27.4797 417.102 -27.4797 409.996 Q-27.4797 402.866 -29.3084 399.325 Q-31.1139 395.76 -34.7482 395.76 M-34.7482 392.056 Q-28.938 392.056 -25.8825 396.663 Q-22.8038 401.246 -22.8038 409.996 Q-22.8038 418.723 -25.8825 423.329 Q-28.938 427.912 -34.7482 427.912 Q-40.5583 427.912 -43.637 423.329 Q-46.6925 418.723 -46.6925 409.996 Q-46.6925 401.246 -43.637 396.663 Q-40.5583 392.056 -34.7482 392.056 Z" fill="#000000" fill-rule="nonzero" fill-opacity="1" /><path clip-path="url(#clip490)" d="M-14.5862 421.362 L-9.70199 421.362 L-9.70199 427.241 L-14.5862 427.241 L-14.5862 421.362 Z" fill="#000000" fill-rule="nonzero" fill-opacity="1" /><path clip-path="url(#clip490)" d="M10.4831 395.76 Q6.87199 395.76 5.0433 399.325 Q3.23775 402.866 3.23775 409.996 Q3.23775 417.102 5.0433 420.667 Q6.87199 424.209 10.4831 424.209 Q14.1173 424.209 15.9229 420.667 Q17.7516 417.102 17.7516 409.996 Q17.7516 402.866 15.9229 399.325 Q14.1173 395.76 10.4831 395.76 M10.4831 392.056 Q16.2932 392.056 19.3488 396.663 Q22.4275 401.246 22.4275 409.996 Q22.4275 418.723 19.3488 423.329 Q16.2932 427.912 10.4831 427.912 Q4.67293 427.912 1.59424 423.329 Q-1.4613 418.723 -1.4613 409.996 Q-1.4613 401.246 1.59424 396.663 Q4.67293 392.056 10.4831 392.056 Z" fill="#000000" fill-rule="nonzero" fill-opacity="1" /><path clip-path="url(#clip490)" d="M34.6728 423.306 L50.9921 423.306 L50.9921 427.241 L29.0478 427.241 L29.0478 423.306 Q31.7098 420.551 36.2931 415.922 Q40.8996 411.269 42.0801 409.926 Q44.3255 407.403 45.2051 405.667 Q46.1079 403.908 46.1079 402.218 Q46.1079 399.464 44.1635 397.727 Q42.2422 395.991 39.1403 395.991 Q36.9413 395.991 34.4876 396.755 Q32.057 397.519 29.2793 399.07 L29.2793 394.348 Q32.1033 393.214 34.557 392.635 Q37.0107 392.056 39.0477 392.056 Q44.4181 392.056 47.6125 394.741 Q50.8069 397.427 50.8069 401.917 Q50.8069 404.047 49.9968 405.968 Q49.2097 407.866 47.1033 410.459 Q46.5246 411.13 43.4227 414.348 Q40.3209 417.542 34.6728 423.306 Z" fill="#000000" fill-rule="nonzero" fill-opacity="1" /><path clip-path="url(#clip490)" d="M-36.3454 197.832 Q-39.9565 197.832 -41.7852 201.397 Q-43.5907 204.939 -43.5907 212.069 Q-43.5907 219.175 -41.7852 222.74 Q-39.9565 226.281 -36.3454 226.281 Q-32.7111 226.281 -30.9056 222.74 Q-29.0769 219.175 -29.0769 212.069 Q-29.0769 204.939 -30.9056 201.397 Q-32.7111 197.832 -36.3454 197.832 M-36.3454 194.129 Q-30.5352 194.129 -27.4797 198.735 Q-24.401 203.319 -24.401 212.069 Q-24.401 220.795 -27.4797 225.402 Q-30.5352 229.985 -36.3454 229.985 Q-42.1555 229.985 -45.2342 225.402 Q-48.2897 220.795 -48.2897 212.069 Q-48.2897 203.319 -45.2342 198.735 Q-42.1555 194.129 -36.3454 194.129 Z" fill="#000000" fill-rule="nonzero" fill-opacity="1" /><path clip-path="url(#clip490)" d="M-16.1834 223.434 L-11.2992 223.434 L-11.2992 229.314 L-16.1834 229.314 L-16.1834 223.434 Z" fill="#000000" fill-rule="nonzero" fill-opacity="1" /><path clip-path="url(#clip490)" d="M8.88587 197.832 Q5.27478 197.832 3.44608 201.397 Q1.64054 204.939 1.64054 212.069 Q1.64054 219.175 3.44608 222.74 Q5.27478 226.281 8.88587 226.281 Q12.5201 226.281 14.3257 222.74 Q16.1543 219.175 16.1543 212.069 Q16.1543 204.939 14.3257 201.397 Q12.5201 197.832 8.88587 197.832 M8.88587 194.129 Q14.696 194.129 17.7516 198.735 Q20.8303 203.319 20.8303 212.069 Q20.8303 220.795 17.7516 225.402 Q14.696 229.985 8.88587 229.985 Q3.07572 229.985 -0.00297114 225.402 Q-3.05851 220.795 -3.05851 212.069 Q-3.05851 203.319 -0.00297114 198.735 Q3.07572 194.129 8.88587 194.129 Z" fill="#000000" fill-rule="nonzero" fill-opacity="1" /><path clip-path="url(#clip490)" d="M39.0477 197.832 Q35.4367 197.832 33.608 201.397 Q31.8024 204.939 31.8024 212.069 Q31.8024 219.175 33.608 222.74 Q35.4367 226.281 39.0477 226.281 Q42.682 226.281 44.4875 222.74 Q46.3162 219.175 46.3162 212.069 Q46.3162 204.939 44.4875 201.397 Q42.682 197.832 39.0477 197.832 M39.0477 194.129 Q44.8579 194.129 47.9134 198.735 Q50.9921 203.319 50.9921 212.069 Q50.9921 220.795 47.9134 225.402 Q44.8579 229.985 39.0477 229.985 Q33.2376 229.985 30.1589 225.402 Q27.1034 220.795 27.1034 212.069 Q27.1034 203.319 30.1589 198.735 Q33.2376 194.129 39.0477 194.129 Z" fill="#000000" fill-rule="nonzero" fill-opacity="1" /><polyline clip-path="url(#clip492)" style="stroke:#009af9; stroke-linecap:round; stroke-linejoin:round; stroke-width:4; stroke-opacity:1; fill:none" points="86.9921,212.034 313.569,212.034 540.145,713.585 766.721,274.919 993.298,1464 1219.87,1360.56 1446.45,957.158 1673.03,154.046 1899.6,266.383 2126.18,102.578 2352.76,145.706 "/>
<polyline clip-path="url(#clip492)" style="stroke:#e26f46; stroke-linecap:round; stroke-linejoin:round; stroke-width:4; stroke-opacity:1; fill:none" points="86.9921,212.034 313.569,292.929 540.145,145.326 766.721,404.327 993.298,205.447 1219.87,156.232 1446.45,88.5087 1673.03,229.685 1899.6,186.052 2126.18,218.107 2352.76,372.19 "/>
<path clip-path="url(#clip490)" d="M2027.46 1456.66 L2277.23 1456.66 L2277.23 1301.14 L2027.46 1301.14  Z" fill="#ffffff" fill-rule="evenodd" fill-opacity="1"/>
<polyline clip-path="url(#clip490)" style="stroke:#000000; stroke-linecap:round; stroke-linejoin:round; stroke-width:4; stroke-opacity:1; fill:none" points="2027.46,1456.66 2277.23,1456.66 2277.23,1301.14 2027.46,1301.14 2027.46,1456.66 "/>
<polyline clip-path="url(#clip490)" style="stroke:#009af9; stroke-linecap:round; stroke-linejoin:round; stroke-width:4; stroke-opacity:1; fill:none" points="2052.63,1352.98 2203.69,1352.98 "/>
<path clip-path="url(#clip490)" d="M2242.26 1357.23 Q2237.1 1357.23 2235.11 1358.41 Q2233.12 1359.59 2233.12 1362.44 Q2233.12 1364.7 2234.6 1366.05 Q2236.11 1367.37 2238.68 1367.37 Q2242.22 1367.37 2244.35 1364.87 Q2246.5 1362.34 2246.5 1358.18 L2246.5 1357.23 L2242.26 1357.23 M2250.76 1355.47 L2250.76 1370.26 L2246.5 1370.26 L2246.5 1366.32 Q2245.04 1368.69 2242.87 1369.82 Q2240.69 1370.93 2237.54 1370.93 Q2233.56 1370.93 2231.2 1368.71 Q2228.86 1366.46 2228.86 1362.71 Q2228.86 1358.34 2231.78 1356.12 Q2234.72 1353.89 2240.53 1353.89 L2246.5 1353.89 L2246.5 1353.48 Q2246.5 1350.54 2244.56 1348.94 Q2242.63 1347.32 2239.14 1347.32 Q2236.92 1347.32 2234.81 1347.85 Q2232.7 1348.38 2230.76 1349.45 L2230.76 1345.51 Q2233.1 1344.61 2235.3 1344.17 Q2237.5 1343.71 2239.58 1343.71 Q2245.2 1343.71 2247.98 1346.63 Q2250.76 1349.54 2250.76 1355.47 Z" fill="#000000" fill-rule="nonzero" fill-opacity="1" /><polyline clip-path="url(#clip490)" style="stroke:#e26f46; stroke-linecap:round; stroke-linejoin:round; stroke-width:4; stroke-opacity:1; fill:none" points="2052.63,1404.82 2203.69,1404.82 "/>
<path clip-path="url(#clip490)" d="M2247.63 1409.16 Q2247.63 1404.46 2245.69 1401.8 Q2243.77 1399.11 2240.39 1399.11 Q2237.01 1399.11 2235.06 1401.8 Q2233.14 1404.46 2233.14 1409.16 Q2233.14 1413.86 2235.06 1416.54 Q2237.01 1419.21 2240.39 1419.21 Q2243.77 1419.21 2245.69 1416.54 Q2247.63 1413.86 2247.63 1409.16 M2233.14 1400.11 Q2234.49 1397.79 2236.52 1396.68 Q2238.58 1395.55 2241.43 1395.55 Q2246.15 1395.55 2249.09 1399.3 Q2252.06 1403.05 2252.06 1409.16 Q2252.06 1415.27 2249.09 1419.02 Q2246.15 1422.77 2241.43 1422.77 Q2238.58 1422.77 2236.52 1421.66 Q2234.49 1420.53 2233.14 1418.21 L2233.14 1422.1 L2228.86 1422.1 L2228.86 1386.08 L2233.14 1386.08 L2233.14 1400.11 Z" fill="#000000" fill-rule="nonzero" fill-opacity="1" /></svg>
