<?xml version="1.0" encoding="utf-8"?>
<svg xmlns="http://www.w3.org/2000/svg" xmlns:xlink="http://www.w3.org/1999/xlink" width="600" height="400" viewBox="0 0 2400 1600">
<defs>
  <clipPath id="clip960">
    <rect x="0" y="0" width="2400" height="1600"/>
  </clipPath>
</defs>
<path clip-path="url(#clip960)" d="M0 1600 L2400 1600 L2400 0 L0 0  Z" fill="#ffffff" fill-rule="evenodd" fill-opacity="1"/>
<defs>
  <clipPath id="clip961">
    <rect x="480" y="0" width="1681" height="1600"/>
  </clipPath>
</defs>
<path clip-path="url(#clip960)" d="M86.9921 1521.01 L2352.76 1521.01 L2352.76 47.2441 L86.9921 47.2441  Z" fill="#ffffff" fill-rule="evenodd" fill-opacity="1"/>
<defs>
  <clipPath id="clip962">
    <rect x="86" y="47" width="2267" height="1475"/>
  </clipPath>
</defs>
<polyline clip-path="url(#clip962)" style="stroke:#000000; stroke-linecap:round; stroke-linejoin:round; stroke-width:2; stroke-opacity:0.1; fill:none" points="151.118,1521.01 151.118,47.2441 "/>
<polyline clip-path="url(#clip962)" style="stroke:#000000; stroke-linecap:round; stroke-linejoin:round; stroke-width:2; stroke-opacity:0.1; fill:none" points="863.622,1521.01 863.622,47.2441 "/>
<polyline clip-path="url(#clip962)" style="stroke:#000000; stroke-linecap:round; stroke-linejoin:round; stroke-width:2; stroke-opacity:0.1; fill:none" points="1576.13,1521.01 1576.13,47.2441 "/>
<polyline clip-path="url(#clip962)" style="stroke:#000000; stroke-linecap:round; stroke-linejoin:round; stroke-width:2; stroke-opacity:0.1; fill:none" points="2288.63,1521.01 2288.63,47.2441 "/>
<polyline clip-path="url(#clip960)" style="stroke:#000000; stroke-linecap:round; stroke-linejoin:round; stroke-width:4; stroke-opacity:1; fill:none" points="86.9921,1521.01 2352.76,1521.01 "/>
<polyline clip-path="url(#clip960)" style="stroke:#000000; stroke-linecap:round; stroke-linejoin:round; stroke-width:4; stroke-opacity:1; fill:none" points="151.118,1521.01 151.118,1502.11 "/>
<polyline clip-path="url(#clip960)" style="stroke:#000000; stroke-linecap:round; stroke-linejoin:round; stroke-width:4; stroke-opacity:1; fill:none" points="863.622,1521.01 863.622,1502.11 "/>
<polyline clip-path="url(#clip960)" style="stroke:#000000; stroke-linecap:round; stroke-linejoin:round; stroke-width:4; stroke-opacity:1; fill:none" points="1576.13,1521.01 1576.13,1502.11 "/>
<polyline clip-path="url(#clip960)" style="stroke:#000000; stroke-linecap:round; stroke-linejoin:round; stroke-width:4; stroke-opacity:1; fill:none" points="2288.63,1521.01 2288.63,1502.11 "/>
<path clip-path="url(#clip960)" d="M151.118 1551.93 Q147.506 1551.93 145.678 1555.49 Q143.872 1559.03 143.872 1566.16 Q143.872 1573.27 145.678 1576.83 Q147.506 1580.38 151.118 1580.38 Q154.752 1580.38 156.557 1576.83 Q158.386 1573.27 158.386 1566.16 Q158.386 1559.03 156.557 1555.49 Q154.752 1551.93 151.118 1551.93 M151.118 1548.22 Q156.928 1548.22 159.983 1552.83 Q163.062 1557.41 163.062 1566.16 Q163.062 1574.89 159.983 1579.5 Q156.928 1584.08 151.118 1584.08 Q145.307 1584.08 142.229 1579.5 Q139.173 1574.89 139.173 1566.16 Q139.173 1557.41 142.229 1552.83 Q145.307 1548.22 151.118 1548.22 Z" fill="#000000" fill-rule="nonzero" fill-opacity="1" /><path clip-path="url(#clip960)" d="M838.309 1579.47 L845.948 1579.47 L845.948 1553.11 L837.638 1554.77 L837.638 1550.51 L845.902 1548.85 L850.578 1548.85 L850.578 1579.47 L858.217 1579.47 L858.217 1583.41 L838.309 1583.41 L838.309 1579.47 Z" fill="#000000" fill-rule="nonzero" fill-opacity="1" /><path clip-path="url(#clip960)" d="M877.661 1551.93 Q874.05 1551.93 872.221 1555.49 Q870.416 1559.03 870.416 1566.16 Q870.416 1573.27 872.221 1576.83 Q874.05 1580.38 877.661 1580.38 Q881.295 1580.38 883.101 1576.83 Q884.93 1573.27 884.93 1566.16 Q884.93 1559.03 883.101 1555.49 Q881.295 1551.93 877.661 1551.93 M877.661 1548.22 Q883.471 1548.22 886.527 1552.83 Q889.606 1557.41 889.606 1566.16 Q889.606 1574.89 886.527 1579.5 Q883.471 1584.08 877.661 1584.08 Q871.851 1584.08 868.772 1579.5 Q865.717 1574.89 865.717 1566.16 Q865.717 1557.41 868.772 1552.83 Q871.851 1548.22 877.661 1548.22 Z" fill="#000000" fill-rule="nonzero" fill-opacity="1" /><path clip-path="url(#clip960)" d="M1554.9 1579.47 L1571.22 1579.47 L1571.22 1583.41 L1549.27 1583.41 L1549.27 1579.47 Q1551.94 1576.72 1556.52 1572.09 Q1561.13 1567.44 1562.31 1566.09 Q1564.55 1563.57 1565.43 1561.83 Q1566.33 1560.07 1566.33 1558.38 Q1566.33 1555.63 1564.39 1553.89 Q1562.47 1552.16 1559.37 1552.16 Q1557.17 1552.16 1554.71 1552.92 Q1552.28 1553.69 1549.51 1555.24 L1549.51 1550.51 Q1552.33 1549.38 1554.78 1548.8 Q1557.24 1548.22 1559.27 1548.22 Q1564.64 1548.22 1567.84 1550.91 Q1571.03 1553.59 1571.03 1558.08 Q1571.03 1560.21 1570.22 1562.13 Q1569.44 1564.03 1567.33 1566.63 Q1566.75 1567.3 1563.65 1570.51 Q1560.55 1573.71 1554.9 1579.47 Z" fill="#000000" fill-rule="nonzero" fill-opacity="1" /><path clip-path="url(#clip960)" d="M1591.03 1551.93 Q1587.42 1551.93 1585.59 1555.49 Q1583.79 1559.03 1583.79 1566.16 Q1583.79 1573.27 1585.59 1576.83 Q1587.42 1580.38 1591.03 1580.38 Q1594.67 1580.38 1596.47 1576.83 Q1598.3 1573.27 1598.3 1566.16 Q1598.3 1559.03 1596.47 1555.49 Q1594.67 1551.93 1591.03 1551.93 M1591.03 1548.22 Q1596.84 1548.22 1599.9 1552.83 Q1602.98 1557.41 1602.98 1566.16 Q1602.98 1574.89 1599.9 1579.5 Q1596.84 1584.08 1591.03 1584.08 Q1585.22 1584.08 1582.14 1579.5 Q1579.09 1574.89 1579.09 1566.16 Q1579.09 1557.41 1582.14 1552.83 Q1585.22 1548.22 1591.03 1548.22 Z" fill="#000000" fill-rule="nonzero" fill-opacity="1" /><path clip-path="url(#clip960)" d="M2277.47 1564.77 Q2280.83 1565.49 2282.7 1567.76 Q2284.6 1570.03 2284.6 1573.36 Q2284.6 1578.48 2281.08 1581.28 Q2277.57 1584.08 2271.08 1584.08 Q2268.91 1584.08 2266.59 1583.64 Q2264.3 1583.22 2261.85 1582.37 L2261.85 1577.85 Q2263.79 1578.99 2266.11 1579.57 Q2268.42 1580.14 2270.95 1580.14 Q2275.34 1580.14 2277.64 1578.41 Q2279.95 1576.67 2279.95 1573.36 Q2279.95 1570.31 2277.8 1568.59 Q2275.67 1566.86 2271.85 1566.86 L2267.82 1566.86 L2267.82 1563.01 L2272.03 1563.01 Q2275.48 1563.01 2277.31 1561.65 Q2279.14 1560.26 2279.14 1557.67 Q2279.14 1555.01 2277.24 1553.59 Q2275.37 1552.16 2271.85 1552.16 Q2269.93 1552.16 2267.73 1552.57 Q2265.53 1552.99 2262.89 1553.87 L2262.89 1549.7 Q2265.55 1548.96 2267.87 1548.59 Q2270.2 1548.22 2272.26 1548.22 Q2277.59 1548.22 2280.69 1550.65 Q2283.79 1553.06 2283.79 1557.18 Q2283.79 1560.05 2282.15 1562.04 Q2280.51 1564.01 2277.47 1564.77 Z" fill="#000000" fill-rule="nonzero" fill-opacity="1" /><path clip-path="url(#clip960)" d="M2303.47 1551.93 Q2299.86 1551.93 2298.03 1555.49 Q2296.22 1559.03 2296.22 1566.16 Q2296.22 1573.27 2298.03 1576.83 Q2299.86 1580.38 2303.47 1580.38 Q2307.1 1580.38 2308.91 1576.83 Q2310.74 1573.27 2310.74 1566.16 Q2310.74 1559.03 2308.91 1555.49 Q2307.1 1551.93 2303.47 1551.93 M2303.47 1548.22 Q2309.28 1548.22 2312.33 1552.83 Q2315.41 1557.41 2315.41 1566.16 Q2315.41 1574.89 2312.33 1579.5 Q2309.28 1584.08 2303.47 1584.08 Q2297.66 1584.08 2294.58 1579.5 Q2291.52 1574.89 2291.52 1566.16 Q2291.52 1557.41 2294.58 1552.83 Q2297.66 1548.22 2303.47 1548.22 Z" fill="#000000" fill-rule="nonzero" fill-opacity="1" /><polyline clip-path="url(#clip962)" style="stroke:#000000; stroke-linecap:round; stroke-linejoin:round; stroke-width:2; stroke-opacity:0.1; fill:none" points="86.9921,1486.98 2352.76,1486.98 "/>
<polyline clip-path="url(#clip962)" style="stroke:#000000; stroke-linecap:round; stroke-linejoin:round; stroke-width:2; stroke-opacity:0.1; fill:none" points="86.9921,1195.05 2352.76,1195.05 "/>
<polyline clip-path="url(#clip962)" style="stroke:#000000; stroke-linecap:round; stroke-linejoin:round; stroke-width:2; stroke-opacity:0.1; fill:none" points="86.9921,903.132 2352.76,903.132 "/>
<polyline clip-path="url(#clip962)" style="stroke:#000000; stroke-linecap:round; stroke-linejoin:round; stroke-width:2; stroke-opacity:0.1; fill:none" points="86.9921,611.21 2352.76,611.21 "/>
<polyline clip-path="url(#clip962)" style="stroke:#000000; stroke-linecap:round; stroke-linejoin:round; stroke-width:2; stroke-opacity:0.1; fill:none" points="86.9921,319.289 2352.76,319.289 "/>
<polyline clip-path="url(#clip960)" style="stroke:#000000; stroke-linecap:round; stroke-linejoin:round; stroke-width:4; stroke-opacity:1; fill:none" points="86.9921,1521.01 86.9921,47.2441 "/>
<polyline clip-path="url(#clip960)" style="stroke:#000000; stroke-linecap:round; stroke-linejoin:round; stroke-width:4; stroke-opacity:1; fill:none" points="86.9921,1486.98 105.89,1486.98 "/>
<polyline clip-path="url(#clip960)" style="stroke:#000000; stroke-linecap:round; stroke-linejoin:round; stroke-width:4; stroke-opacity:1; fill:none" points="86.9921,1195.05 105.89,1195.05 "/>
<polyline clip-path="url(#clip960)" style="stroke:#000000; stroke-linecap:round; stroke-linejoin:round; stroke-width:4; stroke-opacity:1; fill:none" points="86.9921,903.132 105.89,903.132 "/>
<polyline clip-path="url(#clip960)" style="stroke:#000000; stroke-linecap:round; stroke-linejoin:round; stroke-width:4; stroke-opacity:1; fill:none" points="86.9921,611.21 105.89,611.21 "/>
<polyline clip-path="url(#clip960)" style="stroke:#000000; stroke-linecap:round; stroke-linejoin:round; stroke-width:4; stroke-opacity:1; fill:none" points="86.9921,319.289 105.89,319.289 "/>
<path clip-path="url(#clip960)" d="M-9.72514 1487.43 L19.9506 1487.43 L19.9506 1491.36 L-9.72514 1491.36 L-9.72514 1487.43 Z" fill="#000000" fill-rule="nonzero" fill-opacity="1" /><path clip-path="url(#clip960)" d="M30.0895 1469.7 L48.4458 1469.7 L48.4458 1473.63 L34.3718 1473.63 L34.3718 1482.1 Q35.3904 1481.76 36.4089 1481.59 Q37.4274 1481.41 38.4459 1481.41 Q44.2329 1481.41 47.6125 1484.58 Q50.9921 1487.75 50.9921 1493.17 Q50.9921 1498.75 47.5199 1501.85 Q44.0477 1504.93 37.7283 1504.93 Q35.5524 1504.93 33.2839 1504.56 Q31.0385 1504.19 28.6311 1503.45 L28.6311 1498.75 Q30.7145 1499.88 32.9367 1500.44 Q35.1589 1500.99 37.6357 1500.99 Q41.6403 1500.99 43.9783 1498.89 Q46.3162 1496.78 46.3162 1493.17 Q46.3162 1489.56 43.9783 1487.45 Q41.6403 1485.34 37.6357 1485.34 Q35.7607 1485.34 33.8857 1485.76 Q32.0339 1486.18 30.0895 1487.06 L30.0895 1469.7 Z" fill="#000000" fill-rule="nonzero" fill-opacity="1" /><path clip-path="url(#clip960)" d="M39.0477 1180.85 Q35.4367 1180.85 33.608 1184.42 Q31.8024 1187.96 31.8024 1195.09 Q31.8024 1202.19 33.608 1205.76 Q35.4367 1209.3 39.0477 1209.3 Q42.682 1209.3 44.4875 1205.76 Q46.3162 1202.19 46.3162 1195.09 Q46.3162 1187.96 44.4875 1184.42 Q42.682 1180.85 39.0477 1180.85 M39.0477 1177.15 Q44.8579 1177.15 47.9134 1181.76 Q50.9921 1186.34 50.9921 1195.09 Q50.9921 1203.82 47.9134 1208.42 Q44.8579 1213.01 39.0477 1213.01 Q33.2376 1213.01 30.1589 1208.42 Q27.1034 1203.82 27.1034 1195.09 Q27.1034 1186.34 30.1589 1181.76 Q33.2376 1177.15 39.0477 1177.15 Z" fill="#000000" fill-rule="nonzero" fill-opacity="1" /><path clip-path="url(#clip960)" d="M30.0895 885.852 L48.4458 885.852 L48.4458 889.787 L34.3718 889.787 L34.3718 898.259 Q35.3904 897.912 36.4089 897.75 Q37.4274 897.565 38.4459 897.565 Q44.2329 897.565 47.6125 900.736 Q50.9921 903.908 50.9921 909.324 Q50.9921 914.903 47.5199 918.005 Q44.0477 921.083 37.7283 921.083 Q35.5524 921.083 33.2839 920.713 Q31.0385 920.343 28.6311 919.602 L28.6311 914.903 Q30.7145 916.037 32.9367 916.593 Q35.1589 917.148 37.6357 917.148 Q41.6403 917.148 43.9783 915.042 Q46.3162 912.935 46.3162 909.324 Q46.3162 905.713 43.9783 903.607 Q41.6403 901.5 37.6357 901.5 Q35.7607 901.5 33.8857 901.917 Q32.0339 902.333 30.0895 903.213 L30.0895 885.852 Z" fill="#000000" fill-rule="nonzero" fill-opacity="1" /><path clip-path="url(#clip960)" d="M-0.303895 624.555 L7.33495 624.555 L7.33495 598.19 L-0.975188 599.856 L-0.975188 595.597 L7.28866 593.93 L11.9646 593.93 L11.9646 624.555 L19.6034 624.555 L19.6034 628.49 L-0.303895 628.49 L-0.303895 624.555 Z" fill="#000000" fill-rule="nonzero" fill-opacity="1" /><path clip-path="url(#clip960)" d="M39.0477 597.009 Q35.4367 597.009 33.608 600.574 Q31.8024 604.116 31.8024 611.245 Q31.8024 618.352 33.608 621.916 Q35.4367 625.458 39.0477 625.458 Q42.682 625.458 44.4875 621.916 Q46.3162 618.352 46.3162 611.245 Q46.3162 604.116 44.4875 600.574 Q42.682 597.009 39.0477 597.009 M39.0477 593.305 Q44.8579 593.305 47.9134 597.912 Q50.9921 602.495 50.9921 611.245 Q50.9921 619.972 47.9134 624.578 Q44.8579 629.162 39.0477 629.162 Q33.2376 629.162 30.1589 624.578 Q27.1034 619.972 27.1034 611.245 Q27.1034 602.495 30.1589 597.912 Q33.2376 593.305 39.0477 593.305 Z" fill="#000000" fill-rule="nonzero" fill-opacity="1" /><path clip-path="url(#clip960)" d="M0.69147 332.634 L8.33032 332.634 L8.33032 306.268 L0.0201769 307.935 L0.0201769 303.675 L8.28402 302.009 L12.9599 302.009 L12.9599 332.634 L20.5988 332.634 L20.5988 336.569 L0.69147 336.569 L0.69147 332.634 Z" fill="#000000" fill-rule="nonzero" fill-opacity="1" /><path clip-path="url(#clip960)" d="M30.0895 302.009 L48.4458 302.009 L48.4458 305.944 L34.3718 305.944 L34.3718 314.416 Q35.3904 314.069 36.4089 313.907 Q37.4274 313.722 38.4459 313.722 Q44.2329 313.722 47.6125 316.893 Q50.9921 320.064 50.9921 325.481 Q50.9921 331.06 47.5199 334.161 Q44.0477 337.24 37.7283 337.24 Q35.5524 337.24 33.2839 336.87 Q31.0385 336.499 28.6311 335.759 L28.6311 331.06 Q30.7145 332.194 32.9367 332.749 Q35.1589 333.305 37.6357 333.305 Q41.6403 333.305 43.9783 331.198 Q46.3162 329.092 46.3162 325.481 Q46.3162 321.87 43.9783 319.763 Q41.6403 317.657 37.6357 317.657 Q35.7607 317.657 33.8857 318.073 Q32.0339 318.49 30.0895 319.37 L30.0895 302.009 Z" fill="#000000" fill-rule="nonzero" fill-opacity="1" /><path clip-path="url(#clip962)" d="M151.118 1294.38 L222.368 1428.11 L293.618 1474.95 L364.869 1479.3 L436.119 1469.83 L507.37 1459.13 L578.62 1450.45 L649.871 1439.66 L721.121 1429.8 L792.371 1418.13 L863.622 1410.82 L934.872 1397.24 L1006.12 1391.07 L1077.37 1381.12 L1148.62 1373.77 L1219.87 1370.02 L1291.12 1360.24 L1362.37 1350.67 L1433.63 1343.66 L1504.88 1336.82 L1576.13 1327.96 L1647.38 1320.99 L1718.63 1316.69 L1789.88 1311.05 L1861.13 1302.92 L1932.38 1296.37 L2003.63 1292.7 L2074.88 1288.14 L2146.13 1282.78 L2217.38 1281.43 L2288.63 1277.39 L2288.63 918.347 L2217.38 902.941 L2146.13 893.015 L2074.88 883.329 L2003.63 866.152 L1932.38 851.737 L1861.13 831.97 L1789.88 813.031 L1718.63 798.723 L1647.38 772.649 L1576.13 751.755 L1504.88 728.103 L1433.63 701.204 L1362.37 670.192 L1291.12 643.212 L1219.87 610.815 L1148.62 579.114 L1077.37 545.008 L1006.12 516.093 L934.872 479.907 L863.622 437.547 L792.371 399.285 L721.121 354.411 L649.871 306.162 L578.62 263.357 L507.37 214.543 L436.119 158.723 L364.869 110.537 L293.618 88.9544 L222.368 192.855 L151.118 1095.93  Z" fill="#009af9" fill-rule="evenodd" fill-opacity="0.2"/>
<polyline clip-path="url(#clip962)" style="stroke:#009af9; stroke-linecap:round; stroke-linejoin:round; stroke-width:12; stroke-opacity:1; fill:none" points="151.118,1201.11 222.368,1247.9 293.618,1276.35 364.869,1281.69 436.119,1274.2 507.37,1265.83 578.62,1262.07 649.871,1259.2 721.121,1257.64 792.371,1256.79 863.622,1254.35 934.872,1250.09 1006.12,1246.05 1077.37,1242.62 1148.62,1241.65 1219.87,1237.62 1291.12,1236.55 1362.37,1232.98 1433.63,1231.81 1504.88,1227.22 1576.13,1227.86 1647.38,1229.35 1718.63,1223.75 1789.88,1217.85 1861.13,1213.89 1932.38,1213.35 2003.63,1212.68 2074.88,1210.47 2146.13,1209.98 2217.38,1209.29 2288.63,1207.15 "/>
<path clip-path="url(#clip962)" d="M151.118 1294.33 L222.368 1215.18 L293.618 1199.33 L364.869 1196.63 L436.119 1195.92 L507.37 1195.91 L578.62 1195.72 L649.871 1196.11 L721.121 1195.79 L792.371 1196.13 L863.622 1196.17 L934.872 1196.1 L1006.12 1195.83 L1077.37 1195.82 L1148.62 1195.88 L1219.87 1195.9 L1291.12 1196.11 L1362.37 1196.27 L1433.63 1195.85 L1504.88 1195.83 L1576.13 1196.01 L1647.38 1196.3 L1718.63 1195.87 L1789.88 1195.98 L1861.13 1195.94 L1932.38 1195.67 L2003.63 1196.14 L2074.88 1195.91 L2146.13 1196.34 L2217.38 1196.24 L2288.63 1195.99 L2288.63 1194.23 L2217.38 1194.4 L2146.13 1194.19 L2074.88 1194.04 L2003.63 1194.12 L1932.38 1193.74 L1861.13 1194.11 L1789.88 1194.29 L1718.63 1194.14 L1647.38 1194.14 L1576.13 1194.45 L1504.88 1194.4 L1433.63 1194.36 L1362.37 1194.12 L1291.12 1194.09 L1219.87 1193.89 L1148.62 1194.22 L1077.37 1194.02 L1006.12 1194.04 L934.872 1194.31 L863.622 1194.27 L792.371 1194.01 L721.121 1194.05 L649.871 1193.93 L578.62 1194.23 L507.37 1194.07 L436.119 1193.74 L364.869 1193.49 L293.618 1191.22 L222.368 1176.63 L151.118 1102.04  Z" fill="#e26f46" fill-rule="evenodd" fill-opacity="0.2"/>
<polyline clip-path="url(#clip962)" style="stroke:#e26f46; stroke-linecap:round; stroke-linejoin:round; stroke-width:12; stroke-opacity:1; fill:none" points="151.118,1205.31 222.368,1197.96 293.618,1195.59 364.869,1195.26 436.119,1194.97 507.37,1194.89 578.62,1194.93 649.871,1195.04 721.121,1195.04 792.371,1195.02 863.622,1195.22 934.872,1195.07 1006.12,1195.1 1077.37,1194.94 1148.62,1194.89 1219.87,1195.06 1291.12,1195.07 1362.37,1195.1 1433.63,1195.11 1504.88,1195.15 1576.13,1195.06 1647.38,1195.05 1718.63,1194.99 1789.88,1194.95 1861.13,1194.91 1932.38,1194.86 2003.63,1195.12 2074.88,1195.07 2146.13,1195.06 2217.38,1195.2 2288.63,1195.05 "/>
</svg>
