<?xml version="1.0" encoding="utf-8"?>
<svg xmlns="http://www.w3.org/2000/svg" xmlns:xlink="http://www.w3.org/1999/xlink" width="600" height="400" viewBox="0 0 2400 1600">
<defs>
  <clipPath id="clip900">
    <rect x="0" y="0" width="2400" height="1600"/>
  </clipPath>
</defs>
<path clip-path="url(#clip900)" d="M0 1600 L2400 1600 L2400 0 L0 0  Z" fill="#ffffff" fill-rule="evenodd" fill-opacity="1"/>
<defs>
  <clipPath id="clip901">
    <rect x="480" y="0" width="1681" height="1600"/>
  </clipPath>
</defs>
<path clip-path="url(#clip900)" d="M86.9921 1505.26 L2352.76 1505.26 L2352.76 47.2441 L86.9921 47.2441  Z" fill="#ffffff" fill-rule="evenodd" fill-opacity="1"/>
<defs>
  <clipPath id="clip902">
    <rect x="86" y="47" width="2267" height="1459"/>
  </clipPath>
</defs>
<polyline clip-path="url(#clip902)" style="stroke:#000000; stroke-linecap:round; stroke-linejoin:round; stroke-width:2; stroke-opacity:0.1; fill:none" points="86.9921,1505.26 86.9921,47.2441 "/>
<polyline clip-path="url(#clip902)" style="stroke:#000000; stroke-linecap:round; stroke-linejoin:round; stroke-width:2; stroke-opacity:0.1; fill:none" points="842.247,1505.26 842.247,47.2441 "/>
<polyline clip-path="url(#clip902)" style="stroke:#000000; stroke-linecap:round; stroke-linejoin:round; stroke-width:2; stroke-opacity:0.1; fill:none" points="1597.5,1505.26 1597.5,47.2441 "/>
<polyline clip-path="url(#clip902)" style="stroke:#000000; stroke-linecap:round; stroke-linejoin:round; stroke-width:2; stroke-opacity:0.1; fill:none" points="2352.76,1505.26 2352.76,47.2441 "/>
<polyline clip-path="url(#clip900)" style="stroke:#000000; stroke-linecap:round; stroke-linejoin:round; stroke-width:4; stroke-opacity:1; fill:none" points="86.9921,1505.26 2352.76,1505.26 "/>
<polyline clip-path="url(#clip900)" style="stroke:#000000; stroke-linecap:round; stroke-linejoin:round; stroke-width:4; stroke-opacity:1; fill:none" points="86.9921,1505.26 86.9921,1486.36 "/>
<polyline clip-path="url(#clip900)" style="stroke:#000000; stroke-linecap:round; stroke-linejoin:round; stroke-width:4; stroke-opacity:1; fill:none" points="842.247,1505.26 842.247,1486.36 "/>
<polyline clip-path="url(#clip900)" style="stroke:#000000; stroke-linecap:round; stroke-linejoin:round; stroke-width:4; stroke-opacity:1; fill:none" points="1597.5,1505.26 1597.5,1486.36 "/>
<polyline clip-path="url(#clip900)" style="stroke:#000000; stroke-linecap:round; stroke-linejoin:round; stroke-width:4; stroke-opacity:1; fill:none" points="2352.76,1505.26 2352.76,1486.36 "/>
<path clip-path="url(#clip900)" d="M86.9921 1536.18 Q83.381 1536.18 81.5523 1539.74 Q79.7468 1543.28 79.7468 1550.41 Q79.7468 1557.52 81.5523 1561.09 Q83.381 1564.63 86.9921 1564.63 Q90.6264 1564.63 92.4319 1561.09 Q94.2606 1557.52 94.2606 1550.41 Q94.2606 1543.28 92.4319 1539.74 Q90.6264 1536.18 86.9921 1536.18 M86.9921 1532.47 Q92.8023 1532.47 95.8578 1537.08 Q98.9365 1541.66 98.9365 1550.41 Q98.9365 1559.14 95.8578 1563.75 Q92.8023 1568.33 86.9921 1568.33 Q81.182 1568.33 78.1033 1563.75 Q75.0477 1559.14 75.0477 1550.41 Q75.0477 1541.66 78.1033 1537.08 Q81.182 1532.47 86.9921 1532.47 Z" fill="#000000" fill-rule="nonzero" fill-opacity="1" /><path clip-path="url(#clip900)" d="M816.934 1563.72 L824.573 1563.72 L824.573 1537.36 L816.263 1539.03 L816.263 1534.77 L824.527 1533.1 L829.203 1533.1 L829.203 1563.72 L836.842 1563.72 L836.842 1567.66 L816.934 1567.66 L816.934 1563.72 Z" fill="#000000" fill-rule="nonzero" fill-opacity="1" /><path clip-path="url(#clip900)" d="M856.286 1536.18 Q852.675 1536.18 850.846 1539.74 Q849.041 1543.28 849.041 1550.41 Q849.041 1557.52 850.846 1561.09 Q852.675 1564.63 856.286 1564.63 Q859.92 1564.63 861.726 1561.09 Q863.554 1557.52 863.554 1550.41 Q863.554 1543.28 861.726 1539.74 Q859.92 1536.18 856.286 1536.18 M856.286 1532.47 Q862.096 1532.47 865.152 1537.08 Q868.23 1541.66 868.23 1550.41 Q868.23 1559.14 865.152 1563.75 Q862.096 1568.33 856.286 1568.33 Q850.476 1568.33 847.397 1563.75 Q844.342 1559.14 844.342 1550.41 Q844.342 1541.66 847.397 1537.08 Q850.476 1532.47 856.286 1532.47 Z" fill="#000000" fill-rule="nonzero" fill-opacity="1" /><path clip-path="url(#clip900)" d="M1576.27 1563.72 L1592.59 1563.72 L1592.59 1567.66 L1570.65 1567.66 L1570.65 1563.72 Q1573.31 1560.97 1577.89 1556.34 Q1582.5 1551.69 1583.68 1550.35 Q1585.93 1547.82 1586.81 1546.09 Q1587.71 1544.33 1587.71 1542.64 Q1587.71 1539.88 1585.77 1538.15 Q1583.84 1536.41 1580.74 1536.41 Q1578.54 1536.41 1576.09 1537.17 Q1573.66 1537.94 1570.88 1539.49 L1570.88 1534.77 Q1573.71 1533.63 1576.16 1533.05 Q1578.61 1532.47 1580.65 1532.47 Q1586.02 1532.47 1589.21 1535.16 Q1592.41 1537.85 1592.41 1542.34 Q1592.41 1544.47 1591.6 1546.39 Q1590.81 1548.28 1588.71 1550.88 Q1588.13 1551.55 1585.02 1554.77 Q1581.92 1557.96 1576.27 1563.72 Z" fill="#000000" fill-rule="nonzero" fill-opacity="1" /><path clip-path="url(#clip900)" d="M1612.41 1536.18 Q1608.8 1536.18 1606.97 1539.74 Q1605.16 1543.28 1605.16 1550.41 Q1605.16 1557.52 1606.97 1561.09 Q1608.8 1564.63 1612.41 1564.63 Q1616.04 1564.63 1617.85 1561.09 Q1619.68 1557.52 1619.68 1550.41 Q1619.68 1543.28 1617.85 1539.74 Q1616.04 1536.18 1612.41 1536.18 M1612.41 1532.47 Q1618.22 1532.47 1621.27 1537.08 Q1624.35 1541.66 1624.35 1550.41 Q1624.35 1559.14 1621.27 1563.75 Q1618.22 1568.33 1612.41 1568.33 Q1606.6 1568.33 1603.52 1563.75 Q1600.46 1559.14 1600.46 1550.41 Q1600.46 1541.66 1603.52 1537.08 Q1606.6 1532.47 1612.41 1532.47 Z" fill="#000000" fill-rule="nonzero" fill-opacity="1" /><path clip-path="url(#clip900)" d="M2341.6 1549.03 Q2344.96 1549.74 2346.83 1552.01 Q2348.73 1554.28 2348.73 1557.61 Q2348.73 1562.73 2345.21 1565.53 Q2341.69 1568.33 2335.21 1568.33 Q2333.03 1568.33 2330.72 1567.89 Q2328.43 1567.47 2325.97 1566.62 L2325.97 1562.1 Q2327.92 1563.24 2330.23 1563.82 Q2332.55 1564.4 2335.07 1564.4 Q2339.47 1564.4 2341.76 1562.66 Q2344.08 1560.92 2344.08 1557.61 Q2344.08 1554.56 2341.92 1552.85 Q2339.79 1551.11 2335.97 1551.11 L2331.95 1551.11 L2331.95 1547.27 L2336.16 1547.27 Q2339.61 1547.27 2341.44 1545.9 Q2343.27 1544.51 2343.27 1541.92 Q2343.27 1539.26 2341.37 1537.85 Q2339.49 1536.41 2335.97 1536.41 Q2334.05 1536.41 2331.85 1536.83 Q2329.65 1537.24 2327.02 1538.12 L2327.02 1533.96 Q2329.68 1533.22 2331.99 1532.85 Q2334.33 1532.47 2336.39 1532.47 Q2341.71 1532.47 2344.82 1534.91 Q2347.92 1537.31 2347.92 1541.43 Q2347.92 1544.3 2346.27 1546.29 Q2344.63 1548.26 2341.6 1549.03 Z" fill="#000000" fill-rule="nonzero" fill-opacity="1" /><path clip-path="url(#clip900)" d="M2367.59 1536.18 Q2363.98 1536.18 2362.15 1539.74 Q2360.35 1543.28 2360.35 1550.41 Q2360.35 1557.52 2362.15 1561.09 Q2363.98 1564.63 2367.59 1564.63 Q2371.23 1564.63 2373.03 1561.09 Q2374.86 1557.52 2374.86 1550.41 Q2374.86 1543.28 2373.03 1539.74 Q2371.23 1536.18 2367.59 1536.18 M2367.59 1532.47 Q2373.4 1532.47 2376.46 1537.08 Q2379.54 1541.66 2379.54 1550.41 Q2379.54 1559.14 2376.46 1563.75 Q2373.4 1568.33 2367.59 1568.33 Q2361.78 1568.33 2358.7 1563.75 Q2355.65 1559.14 2355.65 1550.41 Q2355.65 1541.66 2358.7 1537.08 Q2361.78 1532.47 2367.59 1532.47 Z" fill="#000000" fill-rule="nonzero" fill-opacity="1" /><path clip-path="url(#clip900)" d="M1218.94 1604.35 L1218.94 1614.48 L1231 1614.48 L1231 1619.03 L1218.94 1619.03 L1218.94 1638.38 Q1218.94 1642.74 1220.11 1643.98 Q1221.32 1645.22 1224.98 1645.22 L1231 1645.22 L1231 1650.12 L1224.98 1650.12 Q1218.2 1650.12 1215.62 1647.61 Q1213.05 1645.06 1213.05 1638.38 L1213.05 1619.03 L1208.75 1619.03 L1208.75 1614.48 L1213.05 1614.48 L1213.05 1604.35 L1218.94 1604.35 Z" fill="#000000" fill-rule="nonzero" fill-opacity="1" /><polyline clip-path="url(#clip902)" style="stroke:#000000; stroke-linecap:round; stroke-linejoin:round; stroke-width:2; stroke-opacity:0.1; fill:none" points="86.9921,1420.9 2352.76,1420.9 "/>
<polyline clip-path="url(#clip902)" style="stroke:#000000; stroke-linecap:round; stroke-linejoin:round; stroke-width:2; stroke-opacity:0.1; fill:none" points="86.9921,1106.93 2352.76,1106.93 "/>
<polyline clip-path="url(#clip902)" style="stroke:#000000; stroke-linecap:round; stroke-linejoin:round; stroke-width:2; stroke-opacity:0.1; fill:none" points="86.9921,792.967 2352.76,792.967 "/>
<polyline clip-path="url(#clip902)" style="stroke:#000000; stroke-linecap:round; stroke-linejoin:round; stroke-width:2; stroke-opacity:0.1; fill:none" points="86.9921,478.999 2352.76,478.999 "/>
<polyline clip-path="url(#clip902)" style="stroke:#000000; stroke-linecap:round; stroke-linejoin:round; stroke-width:2; stroke-opacity:0.1; fill:none" points="86.9921,165.032 2352.76,165.032 "/>
<polyline clip-path="url(#clip900)" style="stroke:#000000; stroke-linecap:round; stroke-linejoin:round; stroke-width:4; stroke-opacity:1; fill:none" points="86.9921,1505.26 86.9921,47.2441 "/>
<polyline clip-path="url(#clip900)" style="stroke:#000000; stroke-linecap:round; stroke-linejoin:round; stroke-width:4; stroke-opacity:1; fill:none" points="86.9921,1420.9 105.89,1420.9 "/>
<polyline clip-path="url(#clip900)" style="stroke:#000000; stroke-linecap:round; stroke-linejoin:round; stroke-width:4; stroke-opacity:1; fill:none" points="86.9921,1106.93 105.89,1106.93 "/>
<polyline clip-path="url(#clip900)" style="stroke:#000000; stroke-linecap:round; stroke-linejoin:round; stroke-width:4; stroke-opacity:1; fill:none" points="86.9921,792.967 105.89,792.967 "/>
<polyline clip-path="url(#clip900)" style="stroke:#000000; stroke-linecap:round; stroke-linejoin:round; stroke-width:4; stroke-opacity:1; fill:none" points="86.9921,478.999 105.89,478.999 "/>
<polyline clip-path="url(#clip900)" style="stroke:#000000; stroke-linecap:round; stroke-linejoin:round; stroke-width:4; stroke-opacity:1; fill:none" points="86.9921,165.032 105.89,165.032 "/>
<path clip-path="url(#clip900)" d="M-6.18349 1406.7 Q-9.79459 1406.7 -11.6233 1410.26 Q-13.4288 1413.81 -13.4288 1420.94 Q-13.4288 1428.04 -11.6233 1431.61 Q-9.79459 1435.15 -6.18349 1435.15 Q-2.54925 1435.15 -0.743708 1431.61 Q1.08499 1428.04 1.08499 1420.94 Q1.08499 1413.81 -0.743708 1410.26 Q-2.54925 1406.7 -6.18349 1406.7 M-6.18349 1403 Q-0.37334 1403 2.6822 1407.6 Q5.76089 1412.19 5.76089 1420.94 Q5.76089 1429.66 2.6822 1434.27 Q-0.37334 1438.85 -6.18349 1438.85 Q-11.9936 1438.85 -15.0723 1434.27 Q-18.1279 1429.66 -18.1279 1420.94 Q-18.1279 1412.19 -15.0723 1407.6 Q-11.9936 1403 -6.18349 1403 Z" fill="#000000" fill-rule="nonzero" fill-opacity="1" /><path clip-path="url(#clip900)" d="M13.9784 1432.3 L18.8627 1432.3 L18.8627 1438.18 L13.9784 1438.18 L13.9784 1432.3 Z" fill="#000000" fill-rule="nonzero" fill-opacity="1" /><path clip-path="url(#clip900)" d="M39.0477 1406.7 Q35.4367 1406.7 33.608 1410.26 Q31.8024 1413.81 31.8024 1420.94 Q31.8024 1428.04 33.608 1431.61 Q35.4367 1435.15 39.0477 1435.15 Q42.682 1435.15 44.4875 1431.61 Q46.3162 1428.04 46.3162 1420.94 Q46.3162 1413.81 44.4875 1410.26 Q42.682 1406.7 39.0477 1406.7 M39.0477 1403 Q44.8579 1403 47.9134 1407.6 Q50.9921 1412.19 50.9921 1420.94 Q50.9921 1429.66 47.9134 1434.27 Q44.8579 1438.85 39.0477 1438.85 Q33.2376 1438.85 30.1589 1434.27 Q27.1034 1429.66 27.1034 1420.94 Q27.1034 1412.19 30.1589 1407.6 Q33.2376 1403 39.0477 1403 Z" fill="#000000" fill-rule="nonzero" fill-opacity="1" /><path clip-path="url(#clip900)" d="M-4.95665 1092.73 Q-8.56774 1092.73 -10.3964 1096.3 Q-12.202 1099.84 -12.202 1106.97 Q-12.202 1114.08 -10.3964 1117.64 Q-8.56774 1121.18 -4.95665 1121.18 Q-1.32241 1121.18 0.483137 1117.64 Q2.31183 1114.08 2.31183 1106.97 Q2.31183 1099.84 0.483137 1096.3 Q-1.32241 1092.73 -4.95665 1092.73 M-4.95665 1089.03 Q0.853506 1089.03 3.90904 1093.64 Q6.98773 1098.22 6.98773 1106.97 Q6.98773 1115.7 3.90904 1120.3 Q0.853506 1124.89 -4.95665 1124.89 Q-10.7668 1124.89 -13.8455 1120.3 Q-16.901 1115.7 -16.901 1106.97 Q-16.901 1098.22 -13.8455 1093.64 Q-10.7668 1089.03 -4.95665 1089.03 Z" fill="#000000" fill-rule="nonzero" fill-opacity="1" /><path clip-path="url(#clip900)" d="M15.2053 1118.33 L20.0895 1118.33 L20.0895 1124.21 L15.2053 1124.21 L15.2053 1118.33 Z" fill="#000000" fill-rule="nonzero" fill-opacity="1" /><path clip-path="url(#clip900)" d="M31.0848 1120.28 L38.7237 1120.28 L38.7237 1093.91 L30.4135 1095.58 L30.4135 1091.32 L38.6774 1089.65 L43.3533 1089.65 L43.3533 1120.28 L50.9921 1120.28 L50.9921 1124.21 L31.0848 1124.21 L31.0848 1120.28 Z" fill="#000000" fill-rule="nonzero" fill-opacity="1" /><path clip-path="url(#clip900)" d="M-4.58628 778.765 Q-8.19737 778.765 -10.0261 782.33 Q-11.8316 785.872 -11.8316 793.001 Q-11.8316 800.108 -10.0261 803.673 Q-8.19737 807.214 -4.58628 807.214 Q-0.95204 807.214 0.853506 803.673 Q2.6822 800.108 2.6822 793.001 Q2.6822 785.872 0.853506 782.33 Q-0.95204 778.765 -4.58628 778.765 M-4.58628 775.062 Q1.22387 775.062 4.27941 779.668 Q7.3581 784.251 7.3581 793.001 Q7.3581 801.728 4.27941 806.335 Q1.22387 810.918 -4.58628 810.918 Q-10.3964 810.918 -13.4751 806.335 Q-16.5307 801.728 -16.5307 793.001 Q-16.5307 784.251 -13.4751 779.668 Q-10.3964 775.062 -4.58628 775.062 Z" fill="#000000" fill-rule="nonzero" fill-opacity="1" /><path clip-path="url(#clip900)" d="M15.5756 804.367 L20.4599 804.367 L20.4599 810.247 L15.5756 810.247 L15.5756 804.367 Z" fill="#000000" fill-rule="nonzero" fill-opacity="1" /><path clip-path="url(#clip900)" d="M34.6728 806.311 L50.9921 806.311 L50.9921 810.247 L29.0478 810.247 L29.0478 806.311 Q31.7098 803.557 36.2931 798.927 Q40.8996 794.274 42.0801 792.932 Q44.3255 790.409 45.2051 788.673 Q46.1079 786.913 46.1079 785.224 Q46.1079 782.469 44.1635 780.733 Q42.2422 778.997 39.1403 778.997 Q36.9413 778.997 34.4876 779.761 Q32.057 780.525 29.2793 782.075 L29.2793 777.353 Q32.1033 776.219 34.557 775.64 Q37.0107 775.062 39.0477 775.062 Q44.4181 775.062 47.6125 777.747 Q50.8069 780.432 50.8069 784.923 Q50.8069 787.052 49.9968 788.974 Q49.2097 790.872 47.1033 793.464 Q46.5246 794.136 43.4227 797.353 Q40.3209 800.548 34.6728 806.311 Z" fill="#000000" fill-rule="nonzero" fill-opacity="1" /><path clip-path="url(#clip900)" d="M-5.53535 464.798 Q-9.14644 464.798 -10.9751 468.363 Q-12.7807 471.904 -12.7807 479.034 Q-12.7807 486.14 -10.9751 489.705 Q-9.14644 493.247 -5.53535 493.247 Q-1.90111 493.247 -0.0955632 489.705 Q1.73313 486.14 1.73313 479.034 Q1.73313 471.904 -0.0955632 468.363 Q-1.90111 464.798 -5.53535 464.798 M-5.53535 461.094 Q0.274805 461.094 3.33034 465.701 Q6.40903 470.284 6.40903 479.034 Q6.40903 487.761 3.33034 492.367 Q0.274805 496.95 -5.53535 496.95 Q-11.3455 496.95 -14.4242 492.367 Q-17.4797 487.761 -17.4797 479.034 Q-17.4797 470.284 -14.4242 465.701 Q-11.3455 461.094 -5.53535 461.094 Z" fill="#000000" fill-rule="nonzero" fill-opacity="1" /><path clip-path="url(#clip900)" d="M14.6266 490.4 L19.5108 490.4 L19.5108 496.279 L14.6266 496.279 L14.6266 490.4 Z" fill="#000000" fill-rule="nonzero" fill-opacity="1" /><path clip-path="url(#clip900)" d="M43.8625 477.645 Q47.219 478.363 49.094 480.631 Q50.9921 482.9 50.9921 486.233 Q50.9921 491.349 47.4736 494.15 Q43.9551 496.95 37.4737 496.95 Q35.2978 496.95 32.983 496.511 Q30.6913 496.094 28.2376 495.237 L28.2376 490.724 Q30.1821 491.858 32.4969 492.437 Q34.8117 493.015 37.3348 493.015 Q41.7329 493.015 44.0246 491.279 Q46.3394 489.543 46.3394 486.233 Q46.3394 483.177 44.1866 481.464 Q42.057 479.728 38.2376 479.728 L34.2098 479.728 L34.2098 475.886 L38.4227 475.886 Q41.8718 475.886 43.7005 474.52 Q45.5292 473.131 45.5292 470.539 Q45.5292 467.877 43.6311 466.464 Q41.7561 465.029 38.2376 465.029 Q36.3163 465.029 34.1172 465.446 Q31.9182 465.863 29.2793 466.742 L29.2793 462.576 Q31.9413 461.835 34.2561 461.465 Q36.5941 461.094 38.6542 461.094 Q43.9783 461.094 47.0801 463.525 Q50.1819 465.932 50.1819 470.052 Q50.1819 472.923 48.5384 474.914 Q46.8949 476.881 43.8625 477.645 Z" fill="#000000" fill-rule="nonzero" fill-opacity="1" /><path clip-path="url(#clip900)" d="M-6.6696 150.83 Q-10.2807 150.83 -12.1094 154.395 Q-13.9149 157.937 -13.9149 165.066 Q-13.9149 172.173 -12.1094 175.738 Q-10.2807 179.279 -6.6696 179.279 Q-3.03536 179.279 -1.22982 175.738 Q0.598877 172.173 0.598877 165.066 Q0.598877 157.937 -1.22982 154.395 Q-3.03536 150.83 -6.6696 150.83 M-6.6696 147.127 Q-0.859448 147.127 2.19609 151.733 Q5.27478 156.316 5.27478 165.066 Q5.27478 173.793 2.19609 178.4 Q-0.859448 182.983 -6.6696 182.983 Q-12.4798 182.983 -15.5584 178.4 Q-18.614 173.793 -18.614 165.066 Q-18.614 156.316 -15.5584 151.733 Q-12.4798 147.127 -6.6696 147.127 Z" fill="#000000" fill-rule="nonzero" fill-opacity="1" /><path clip-path="url(#clip900)" d="M13.4923 176.432 L18.3766 176.432 L18.3766 182.312 L13.4923 182.312 L13.4923 176.432 Z" fill="#000000" fill-rule="nonzero" fill-opacity="1" /><path clip-path="url(#clip900)" d="M41.4088 151.826 L29.6034 170.275 L41.4088 170.275 L41.4088 151.826 M40.182 147.752 L46.0616 147.752 L46.0616 170.275 L50.9921 170.275 L50.9921 174.164 L46.0616 174.164 L46.0616 182.312 L41.4088 182.312 L41.4088 174.164 L25.8071 174.164 L25.8071 169.65 L40.182 147.752 Z" fill="#000000" fill-rule="nonzero" fill-opacity="1" /><polyline clip-path="url(#clip902)" style="stroke:#009af9; stroke-linecap:round; stroke-linejoin:round; stroke-width:4; stroke-opacity:1; fill:none" points="86.9921,1420.9 162.518,1421.15 238.043,1232.76 313.569,1331.81 389.094,1404.74 464.619,1341.13 540.145,1049.62 615.67,874.462 691.196,446.929 766.721,530.271 842.247,339.002 917.772,133.126 993.298,239.104 1068.82,362.629 1144.35,247.706 1219.87,88.5087 1295.4,173.835 1370.92,322.816 1446.45,419.511 1521.98,246.22 1597.5,150.138 1673.03,223.005 1748.55,537.244 1824.08,569.243 1899.6,573.791 1975.13,363.96 2050.65,182.07 2126.18,354.984 2201.7,628.224 2277.23,934.198 2352.76,950.177 "/>
<polyline clip-path="url(#clip902)" style="stroke:#e26f46; stroke-linecap:round; stroke-linejoin:round; stroke-width:4; stroke-opacity:1; fill:none" points="86.9921,1420.9 162.518,1390.63 238.043,1435.34 313.569,1431.92 389.094,1410.49 464.619,1373.57 540.145,1389.81 615.67,1348.47 691.196,1426.43 766.721,1383.17 842.247,1379.35 917.772,1427.53 993.298,1431.22 1068.82,1393.99 1144.35,1386.05 1219.87,1423.85 1295.4,1434.79 1370.92,1427.57 1446.45,1385.15 1521.98,1396.08 1597.5,1422.34 1673.03,1461.97 1748.55,1418.9 1824.08,1414.74 1899.6,1380.56 1975.13,1383.35 2050.65,1438.72 2126.18,1456.4 2201.7,1464 2277.23,1419.51 2352.76,1380.54 "/>
<path clip-path="url(#clip900)" d="M162.518 251.365 L412.288 251.365 L412.288 95.8446 L162.518 95.8446  Z" fill="#ffffff" fill-rule="evenodd" fill-opacity="1"/>
<polyline clip-path="url(#clip900)" style="stroke:#000000; stroke-linecap:round; stroke-linejoin:round; stroke-width:4; stroke-opacity:1; fill:none" points="162.518,251.365 412.288,251.365 412.288,95.8446 162.518,95.8446 162.518,251.365 "/>
<polyline clip-path="url(#clip900)" style="stroke:#009af9; stroke-linecap:round; stroke-linejoin:round; stroke-width:4; stroke-opacity:1; fill:none" points="187.693,147.685 338.744,147.685 "/>
<path clip-path="url(#clip900)" d="M377.322 151.932 Q372.16 151.932 370.169 153.113 Q368.178 154.293 368.178 157.141 Q368.178 159.409 369.66 160.752 Q371.164 162.071 373.734 162.071 Q377.275 162.071 379.405 159.571 Q381.558 157.048 381.558 152.881 L381.558 151.932 L377.322 151.932 M385.817 150.173 L385.817 164.965 L381.558 164.965 L381.558 161.029 Q380.099 163.391 377.923 164.525 Q375.747 165.636 372.599 165.636 Q368.618 165.636 366.257 163.414 Q363.919 161.168 363.919 157.418 Q363.919 153.043 366.835 150.821 Q369.775 148.599 375.585 148.599 L381.558 148.599 L381.558 148.182 Q381.558 145.243 379.613 143.645 Q377.692 142.025 374.197 142.025 Q371.974 142.025 369.868 142.557 Q367.761 143.09 365.817 144.155 L365.817 140.219 Q368.155 139.317 370.354 138.877 Q372.553 138.414 374.636 138.414 Q380.261 138.414 383.039 141.33 Q385.817 144.247 385.817 150.173 Z" fill="#000000" fill-rule="nonzero" fill-opacity="1" /><polyline clip-path="url(#clip900)" style="stroke:#e26f46; stroke-linecap:round; stroke-linejoin:round; stroke-width:4; stroke-opacity:1; fill:none" points="187.693,199.525 338.744,199.525 "/>
<path clip-path="url(#clip900)" d="M382.692 203.865 Q382.692 199.166 380.747 196.504 Q378.826 193.819 375.447 193.819 Q372.067 193.819 370.122 196.504 Q368.201 199.166 368.201 203.865 Q368.201 208.564 370.122 211.249 Q372.067 213.911 375.447 213.911 Q378.826 213.911 380.747 211.249 Q382.692 208.564 382.692 203.865 M368.201 194.814 Q369.544 192.499 371.581 191.388 Q373.641 190.254 376.488 190.254 Q381.21 190.254 384.15 194.004 Q387.113 197.754 387.113 203.865 Q387.113 209.976 384.15 213.726 Q381.21 217.476 376.488 217.476 Q373.641 217.476 371.581 216.365 Q369.544 215.231 368.201 212.916 L368.201 216.805 L363.919 216.805 L363.919 180.786 L368.201 180.786 L368.201 194.814 Z" fill="#000000" fill-rule="nonzero" fill-opacity="1" /></svg>
