<?xml version="1.0" encoding="utf-8"?>
<svg xmlns="http://www.w3.org/2000/svg" xmlns:xlink="http://www.w3.org/1999/xlink" width="600" height="400" viewBox="0 0 2400 1600">
<defs>
  <clipPath id="clip660">
    <rect x="0" y="0" width="2400" height="1600"/>
  </clipPath>
</defs>
<path clip-path="url(#clip660)" d="M0 1600 L2400 1600 L2400 0 L0 0  Z" fill="#ffffff" fill-rule="evenodd" fill-opacity="1"/>
<defs>
  <clipPath id="clip661">
    <rect x="480" y="0" width="1681" height="1600"/>
  </clipPath>
</defs>
<path clip-path="url(#clip660)" d="M224.098 1423.18 L2352.76 1423.18 L2352.76 47.2441 L224.098 47.2441  Z" fill="#ffffff" fill-rule="evenodd" fill-opacity="1"/>
<defs>
  <clipPath id="clip662">
    <rect x="224" y="47" width="2130" height="1377"/>
  </clipPath>
</defs>
<polyline clip-path="url(#clip662)" style="stroke:#000000; stroke-linecap:round; stroke-linejoin:round; stroke-width:2; stroke-opacity:0.1; fill:none" points="224.098,1423.18 224.098,47.2441 "/>
<polyline clip-path="url(#clip662)" style="stroke:#000000; stroke-linecap:round; stroke-linejoin:round; stroke-width:2; stroke-opacity:0.1; fill:none" points="649.829,1423.18 649.829,47.2441 "/>
<polyline clip-path="url(#clip662)" style="stroke:#000000; stroke-linecap:round; stroke-linejoin:round; stroke-width:2; stroke-opacity:0.1; fill:none" points="1075.56,1423.18 1075.56,47.2441 "/>
<polyline clip-path="url(#clip662)" style="stroke:#000000; stroke-linecap:round; stroke-linejoin:round; stroke-width:2; stroke-opacity:0.1; fill:none" points="1501.29,1423.18 1501.29,47.2441 "/>
<polyline clip-path="url(#clip662)" style="stroke:#000000; stroke-linecap:round; stroke-linejoin:round; stroke-width:2; stroke-opacity:0.1; fill:none" points="1927.02,1423.18 1927.02,47.2441 "/>
<polyline clip-path="url(#clip662)" style="stroke:#000000; stroke-linecap:round; stroke-linejoin:round; stroke-width:2; stroke-opacity:0.1; fill:none" points="2352.76,1423.18 2352.76,47.2441 "/>
<polyline clip-path="url(#clip660)" style="stroke:#000000; stroke-linecap:round; stroke-linejoin:round; stroke-width:4; stroke-opacity:1; fill:none" points="224.098,1423.18 2352.76,1423.18 "/>
<polyline clip-path="url(#clip660)" style="stroke:#000000; stroke-linecap:round; stroke-linejoin:round; stroke-width:4; stroke-opacity:1; fill:none" points="224.098,1423.18 224.098,1404.28 "/>
<polyline clip-path="url(#clip660)" style="stroke:#000000; stroke-linecap:round; stroke-linejoin:round; stroke-width:4; stroke-opacity:1; fill:none" points="649.829,1423.18 649.829,1404.28 "/>
<polyline clip-path="url(#clip660)" style="stroke:#000000; stroke-linecap:round; stroke-linejoin:round; stroke-width:4; stroke-opacity:1; fill:none" points="1075.56,1423.18 1075.56,1404.28 "/>
<polyline clip-path="url(#clip660)" style="stroke:#000000; stroke-linecap:round; stroke-linejoin:round; stroke-width:4; stroke-opacity:1; fill:none" points="1501.29,1423.18 1501.29,1404.28 "/>
<polyline clip-path="url(#clip660)" style="stroke:#000000; stroke-linecap:round; stroke-linejoin:round; stroke-width:4; stroke-opacity:1; fill:none" points="1927.02,1423.18 1927.02,1404.28 "/>
<polyline clip-path="url(#clip660)" style="stroke:#000000; stroke-linecap:round; stroke-linejoin:round; stroke-width:4; stroke-opacity:1; fill:none" points="2352.76,1423.18 2352.76,1404.28 "/>
<path clip-path="url(#clip660)" d="M224.098 1454.1 Q220.487 1454.1 218.658 1457.66 Q216.853 1461.2 216.853 1468.33 Q216.853 1475.44 218.658 1479.01 Q220.487 1482.55 224.098 1482.55 Q227.732 1482.55 229.538 1479.01 Q231.366 1475.44 231.366 1468.33 Q231.366 1461.2 229.538 1457.66 Q227.732 1454.1 224.098 1454.1 M224.098 1450.39 Q229.908 1450.39 232.964 1455 Q236.042 1459.58 236.042 1468.33 Q236.042 1477.06 232.964 1481.67 Q229.908 1486.25 224.098 1486.25 Q218.288 1486.25 215.209 1481.67 Q212.153 1477.06 212.153 1468.33 Q212.153 1459.58 215.209 1455 Q218.288 1450.39 224.098 1450.39 Z" fill="#000000" fill-rule="nonzero" fill-opacity="1" /><path clip-path="url(#clip660)" d="M644.482 1481.64 L660.802 1481.64 L660.802 1485.58 L638.857 1485.58 L638.857 1481.64 Q641.519 1478.89 646.103 1474.26 Q650.709 1469.61 651.89 1468.27 Q654.135 1465.74 655.015 1464.01 Q655.917 1462.25 655.917 1460.56 Q655.917 1457.8 653.973 1456.07 Q652.052 1454.33 648.95 1454.33 Q646.751 1454.33 644.297 1455.09 Q641.867 1455.86 639.089 1457.41 L639.089 1452.69 Q641.913 1451.55 644.367 1450.97 Q646.82 1450.39 648.857 1450.39 Q654.228 1450.39 657.422 1453.08 Q660.616 1455.77 660.616 1460.26 Q660.616 1462.39 659.806 1464.31 Q659.019 1466.2 656.913 1468.8 Q656.334 1469.47 653.232 1472.69 Q650.13 1475.88 644.482 1481.64 Z" fill="#000000" fill-rule="nonzero" fill-opacity="1" /><path clip-path="url(#clip660)" d="M1078.57 1455.09 L1066.76 1473.54 L1078.57 1473.54 L1078.57 1455.09 M1077.34 1451.02 L1083.22 1451.02 L1083.22 1473.54 L1088.15 1473.54 L1088.15 1477.43 L1083.22 1477.43 L1083.22 1485.58 L1078.57 1485.58 L1078.57 1477.43 L1062.97 1477.43 L1062.97 1472.92 L1077.34 1451.02 Z" fill="#000000" fill-rule="nonzero" fill-opacity="1" /><path clip-path="url(#clip660)" d="M1501.7 1466.44 Q1498.55 1466.44 1496.7 1468.59 Q1494.87 1470.74 1494.87 1474.49 Q1494.87 1478.22 1496.7 1480.39 Q1498.55 1482.55 1501.7 1482.55 Q1504.85 1482.55 1506.67 1480.39 Q1508.53 1478.22 1508.53 1474.49 Q1508.53 1470.74 1506.67 1468.59 Q1504.85 1466.44 1501.7 1466.44 M1510.98 1451.78 L1510.98 1456.04 Q1509.22 1455.21 1507.42 1454.77 Q1505.63 1454.33 1503.87 1454.33 Q1499.24 1454.33 1496.79 1457.45 Q1494.36 1460.58 1494.01 1466.9 Q1495.38 1464.89 1497.44 1463.82 Q1499.5 1462.73 1501.98 1462.73 Q1507.18 1462.73 1510.19 1465.9 Q1513.23 1469.05 1513.23 1474.49 Q1513.23 1479.82 1510.08 1483.03 Q1506.93 1486.25 1501.7 1486.25 Q1495.7 1486.25 1492.53 1481.67 Q1489.36 1477.06 1489.36 1468.33 Q1489.36 1460.14 1493.25 1455.28 Q1497.14 1450.39 1503.69 1450.39 Q1505.45 1450.39 1507.23 1450.74 Q1509.04 1451.09 1510.98 1451.78 Z" fill="#000000" fill-rule="nonzero" fill-opacity="1" /><path clip-path="url(#clip660)" d="M1927.02 1469.17 Q1923.69 1469.17 1921.77 1470.95 Q1919.87 1472.73 1919.87 1475.86 Q1919.87 1478.98 1921.77 1480.77 Q1923.69 1482.55 1927.02 1482.55 Q1930.36 1482.55 1932.28 1480.77 Q1934.2 1478.96 1934.2 1475.86 Q1934.2 1472.73 1932.28 1470.95 Q1930.38 1469.17 1927.02 1469.17 M1922.35 1467.18 Q1919.34 1466.44 1917.65 1464.38 Q1915.98 1462.32 1915.98 1459.35 Q1915.98 1455.21 1918.92 1452.8 Q1921.89 1450.39 1927.02 1450.39 Q1932.19 1450.39 1935.13 1452.8 Q1938.07 1455.21 1938.07 1459.35 Q1938.07 1462.32 1936.38 1464.38 Q1934.71 1466.44 1931.72 1467.18 Q1935.1 1467.96 1936.98 1470.26 Q1938.88 1472.55 1938.88 1475.86 Q1938.88 1480.88 1935.8 1483.57 Q1932.74 1486.25 1927.02 1486.25 Q1921.31 1486.25 1918.23 1483.57 Q1915.17 1480.88 1915.17 1475.86 Q1915.17 1472.55 1917.07 1470.26 Q1918.97 1467.96 1922.35 1467.18 M1920.64 1459.79 Q1920.64 1462.48 1922.3 1463.98 Q1923.99 1465.49 1927.02 1465.49 Q1930.03 1465.49 1931.72 1463.98 Q1933.44 1462.48 1933.44 1459.79 Q1933.44 1457.11 1931.72 1455.6 Q1930.03 1454.1 1927.02 1454.1 Q1923.99 1454.1 1922.3 1455.6 Q1920.64 1457.11 1920.64 1459.79 Z" fill="#000000" fill-rule="nonzero" fill-opacity="1" /><path clip-path="url(#clip660)" d="M2327.44 1481.64 L2335.08 1481.64 L2335.08 1455.28 L2326.77 1456.95 L2326.77 1452.69 L2335.04 1451.02 L2339.71 1451.02 L2339.71 1481.64 L2347.35 1481.64 L2347.35 1485.58 L2327.44 1485.58 L2327.44 1481.64 Z" fill="#000000" fill-rule="nonzero" fill-opacity="1" /><path clip-path="url(#clip660)" d="M2366.8 1454.1 Q2363.18 1454.1 2361.36 1457.66 Q2359.55 1461.2 2359.55 1468.33 Q2359.55 1475.44 2361.36 1479.01 Q2363.18 1482.55 2366.8 1482.55 Q2370.43 1482.55 2372.23 1479.01 Q2374.06 1475.44 2374.06 1468.33 Q2374.06 1461.2 2372.23 1457.66 Q2370.43 1454.1 2366.8 1454.1 M2366.8 1450.39 Q2372.61 1450.39 2375.66 1455 Q2378.74 1459.58 2378.74 1468.33 Q2378.74 1477.06 2375.66 1481.67 Q2372.61 1486.25 2366.8 1486.25 Q2360.99 1486.25 2357.91 1481.67 Q2354.85 1477.06 2354.85 1468.33 Q2354.85 1459.58 2357.91 1455 Q2360.99 1450.39 2366.8 1450.39 Z" fill="#000000" fill-rule="nonzero" fill-opacity="1" /><path clip-path="url(#clip660)" d="M1287.49 1522.27 L1287.49 1532.4 L1299.55 1532.4 L1299.55 1536.95 L1287.49 1536.95 L1287.49 1556.3 Q1287.49 1560.66 1288.67 1561.9 Q1289.88 1563.14 1293.54 1563.14 L1299.55 1563.14 L1299.55 1568.04 L1293.54 1568.04 Q1286.76 1568.04 1284.18 1565.53 Q1281.6 1562.98 1281.6 1556.3 L1281.6 1536.95 L1277.3 1536.95 L1277.3 1532.4 L1281.6 1532.4 L1281.6 1522.27 L1287.49 1522.27 Z" fill="#000000" fill-rule="nonzero" fill-opacity="1" /><polyline clip-path="url(#clip662)" style="stroke:#000000; stroke-linecap:round; stroke-linejoin:round; stroke-width:2; stroke-opacity:0.1; fill:none" points="224.098,1187.13 2352.76,1187.13 "/>
<polyline clip-path="url(#clip662)" style="stroke:#000000; stroke-linecap:round; stroke-linejoin:round; stroke-width:2; stroke-opacity:0.1; fill:none" points="224.098,842.801 2352.76,842.801 "/>
<polyline clip-path="url(#clip662)" style="stroke:#000000; stroke-linecap:round; stroke-linejoin:round; stroke-width:2; stroke-opacity:0.1; fill:none" points="224.098,498.477 2352.76,498.477 "/>
<polyline clip-path="url(#clip662)" style="stroke:#000000; stroke-linecap:round; stroke-linejoin:round; stroke-width:2; stroke-opacity:0.1; fill:none" points="224.098,154.152 2352.76,154.152 "/>
<polyline clip-path="url(#clip660)" style="stroke:#000000; stroke-linecap:round; stroke-linejoin:round; stroke-width:4; stroke-opacity:1; fill:none" points="224.098,1423.18 224.098,47.2441 "/>
<polyline clip-path="url(#clip660)" style="stroke:#000000; stroke-linecap:round; stroke-linejoin:round; stroke-width:4; stroke-opacity:1; fill:none" points="224.098,1187.13 242.996,1187.13 "/>
<polyline clip-path="url(#clip660)" style="stroke:#000000; stroke-linecap:round; stroke-linejoin:round; stroke-width:4; stroke-opacity:1; fill:none" points="224.098,842.801 242.996,842.801 "/>
<polyline clip-path="url(#clip660)" style="stroke:#000000; stroke-linecap:round; stroke-linejoin:round; stroke-width:4; stroke-opacity:1; fill:none" points="224.098,498.477 242.996,498.477 "/>
<polyline clip-path="url(#clip660)" style="stroke:#000000; stroke-linecap:round; stroke-linejoin:round; stroke-width:4; stroke-opacity:1; fill:none" points="224.098,154.152 242.996,154.152 "/>
<path clip-path="url(#clip660)" d="M50.9921 1187.58 L80.6679 1187.58 L80.6679 1191.51 L50.9921 1191.51 L50.9921 1187.58 Z" fill="#000000" fill-rule="nonzero" fill-opacity="1" /><path clip-path="url(#clip660)" d="M100.76 1172.92 Q97.1493 1172.92 95.3206 1176.49 Q93.515 1180.03 93.515 1187.16 Q93.515 1194.27 95.3206 1197.83 Q97.1493 1201.37 100.76 1201.37 Q104.395 1201.37 106.2 1197.83 Q108.029 1194.27 108.029 1187.16 Q108.029 1180.03 106.2 1176.49 Q104.395 1172.92 100.76 1172.92 M100.76 1169.22 Q106.571 1169.22 109.626 1173.83 Q112.705 1178.41 112.705 1187.16 Q112.705 1195.89 109.626 1200.49 Q106.571 1205.08 100.76 1205.08 Q94.9502 1205.08 91.8715 1200.49 Q88.816 1195.89 88.816 1187.16 Q88.816 1178.41 91.8715 1173.83 Q94.9502 1169.22 100.76 1169.22 Z" fill="#000000" fill-rule="nonzero" fill-opacity="1" /><path clip-path="url(#clip660)" d="M120.922 1198.53 L125.807 1198.53 L125.807 1204.41 L120.922 1204.41 L120.922 1198.53 Z" fill="#000000" fill-rule="nonzero" fill-opacity="1" /><path clip-path="url(#clip660)" d="M136.802 1200.47 L144.441 1200.47 L144.441 1174.1 L136.131 1175.77 L136.131 1171.51 L144.394 1169.85 L149.07 1169.85 L149.07 1200.47 L156.709 1200.47 L156.709 1204.41 L136.802 1204.41 L136.802 1200.47 Z" fill="#000000" fill-rule="nonzero" fill-opacity="1" /><path clip-path="url(#clip660)" d="M176.153 1172.92 Q172.542 1172.92 170.714 1176.49 Q168.908 1180.03 168.908 1187.16 Q168.908 1194.27 170.714 1197.83 Q172.542 1201.37 176.153 1201.37 Q179.788 1201.37 181.593 1197.83 Q183.422 1194.27 183.422 1187.16 Q183.422 1180.03 181.593 1176.49 Q179.788 1172.92 176.153 1172.92 M176.153 1169.22 Q181.964 1169.22 185.019 1173.83 Q188.098 1178.41 188.098 1187.16 Q188.098 1195.89 185.019 1200.49 Q181.964 1205.08 176.153 1205.08 Q170.343 1205.08 167.265 1200.49 Q164.209 1195.89 164.209 1187.16 Q164.209 1178.41 167.265 1173.83 Q170.343 1169.22 176.153 1169.22 Z" fill="#000000" fill-rule="nonzero" fill-opacity="1" /><path clip-path="url(#clip660)" d="M51.9875 843.252 L81.6633 843.252 L81.6633 847.188 L51.9875 847.188 L51.9875 843.252 Z" fill="#000000" fill-rule="nonzero" fill-opacity="1" /><path clip-path="url(#clip660)" d="M101.756 828.6 Q98.1447 828.6 96.316 832.165 Q94.5104 835.706 94.5104 842.836 Q94.5104 849.942 96.316 853.507 Q98.1447 857.049 101.756 857.049 Q105.39 857.049 107.196 853.507 Q109.024 849.942 109.024 842.836 Q109.024 835.706 107.196 832.165 Q105.39 828.6 101.756 828.6 M101.756 824.896 Q107.566 824.896 110.621 829.503 Q113.7 834.086 113.7 842.836 Q113.7 851.563 110.621 856.169 Q107.566 860.752 101.756 860.752 Q95.9456 860.752 92.8669 856.169 Q89.8114 851.563 89.8114 842.836 Q89.8114 834.086 92.8669 829.503 Q95.9456 824.896 101.756 824.896 Z" fill="#000000" fill-rule="nonzero" fill-opacity="1" /><path clip-path="url(#clip660)" d="M121.918 854.201 L126.802 854.201 L126.802 860.081 L121.918 860.081 L121.918 854.201 Z" fill="#000000" fill-rule="nonzero" fill-opacity="1" /><path clip-path="url(#clip660)" d="M146.987 828.6 Q143.376 828.6 141.547 832.165 Q139.742 835.706 139.742 842.836 Q139.742 849.942 141.547 853.507 Q143.376 857.049 146.987 857.049 Q150.621 857.049 152.427 853.507 Q154.255 849.942 154.255 842.836 Q154.255 835.706 152.427 832.165 Q150.621 828.6 146.987 828.6 M146.987 824.896 Q152.797 824.896 155.853 829.503 Q158.931 834.086 158.931 842.836 Q158.931 851.563 155.853 856.169 Q152.797 860.752 146.987 860.752 Q141.177 860.752 138.098 856.169 Q135.043 851.563 135.043 842.836 Q135.043 834.086 138.098 829.503 Q141.177 824.896 146.987 824.896 Z" fill="#000000" fill-rule="nonzero" fill-opacity="1" /><path clip-path="url(#clip660)" d="M167.195 825.521 L185.552 825.521 L185.552 829.456 L171.478 829.456 L171.478 837.928 Q172.496 837.581 173.515 837.419 Q174.533 837.234 175.552 837.234 Q181.339 837.234 184.718 840.405 Q188.098 843.577 188.098 848.993 Q188.098 854.572 184.626 857.674 Q181.153 860.752 174.834 860.752 Q172.658 860.752 170.39 860.382 Q168.144 860.012 165.737 859.271 L165.737 854.572 Q167.82 855.706 170.042 856.262 Q172.265 856.817 174.741 856.817 Q178.746 856.817 181.084 854.711 Q183.422 852.604 183.422 848.993 Q183.422 845.382 181.084 843.276 Q178.746 841.169 174.741 841.169 Q172.866 841.169 170.991 841.586 Q169.14 842.002 167.195 842.882 L167.195 825.521 Z" fill="#000000" fill-rule="nonzero" fill-opacity="1" /><path clip-path="url(#clip660)" d="M100.76 484.275 Q97.1493 484.275 95.3206 487.84 Q93.515 491.382 93.515 498.511 Q93.515 505.618 95.3206 509.183 Q97.1493 512.724 100.76 512.724 Q104.395 512.724 106.2 509.183 Q108.029 505.618 108.029 498.511 Q108.029 491.382 106.2 487.84 Q104.395 484.275 100.76 484.275 M100.76 480.572 Q106.571 480.572 109.626 485.178 Q112.705 489.761 112.705 498.511 Q112.705 507.238 109.626 511.845 Q106.571 516.428 100.76 516.428 Q94.9502 516.428 91.8715 511.845 Q88.816 507.238 88.816 498.511 Q88.816 489.761 91.8715 485.178 Q94.9502 480.572 100.76 480.572 Z" fill="#000000" fill-rule="nonzero" fill-opacity="1" /><path clip-path="url(#clip660)" d="M120.922 509.877 L125.807 509.877 L125.807 515.757 L120.922 515.757 L120.922 509.877 Z" fill="#000000" fill-rule="nonzero" fill-opacity="1" /><path clip-path="url(#clip660)" d="M145.992 484.275 Q142.381 484.275 140.552 487.84 Q138.746 491.382 138.746 498.511 Q138.746 505.618 140.552 509.183 Q142.381 512.724 145.992 512.724 Q149.626 512.724 151.431 509.183 Q153.26 505.618 153.26 498.511 Q153.26 491.382 151.431 487.84 Q149.626 484.275 145.992 484.275 M145.992 480.572 Q151.802 480.572 154.857 485.178 Q157.936 489.761 157.936 498.511 Q157.936 507.238 154.857 511.845 Q151.802 516.428 145.992 516.428 Q140.181 516.428 137.103 511.845 Q134.047 507.238 134.047 498.511 Q134.047 489.761 137.103 485.178 Q140.181 480.572 145.992 480.572 Z" fill="#000000" fill-rule="nonzero" fill-opacity="1" /><path clip-path="url(#clip660)" d="M176.153 484.275 Q172.542 484.275 170.714 487.84 Q168.908 491.382 168.908 498.511 Q168.908 505.618 170.714 509.183 Q172.542 512.724 176.153 512.724 Q179.788 512.724 181.593 509.183 Q183.422 505.618 183.422 498.511 Q183.422 491.382 181.593 487.84 Q179.788 484.275 176.153 484.275 M176.153 480.572 Q181.964 480.572 185.019 485.178 Q188.098 489.761 188.098 498.511 Q188.098 507.238 185.019 511.845 Q181.964 516.428 176.153 516.428 Q170.343 516.428 167.265 511.845 Q164.209 507.238 164.209 498.511 Q164.209 489.761 167.265 485.178 Q170.343 480.572 176.153 480.572 Z" fill="#000000" fill-rule="nonzero" fill-opacity="1" /><path clip-path="url(#clip660)" d="M101.756 139.951 Q98.1447 139.951 96.316 143.516 Q94.5104 147.057 94.5104 154.187 Q94.5104 161.293 96.316 164.858 Q98.1447 168.4 101.756 168.4 Q105.39 168.4 107.196 164.858 Q109.024 161.293 109.024 154.187 Q109.024 147.057 107.196 143.516 Q105.39 139.951 101.756 139.951 M101.756 136.247 Q107.566 136.247 110.621 140.854 Q113.7 145.437 113.7 154.187 Q113.7 162.914 110.621 167.52 Q107.566 172.103 101.756 172.103 Q95.9456 172.103 92.8669 167.52 Q89.8114 162.914 89.8114 154.187 Q89.8114 145.437 92.8669 140.854 Q95.9456 136.247 101.756 136.247 Z" fill="#000000" fill-rule="nonzero" fill-opacity="1" /><path clip-path="url(#clip660)" d="M121.918 165.552 L126.802 165.552 L126.802 171.432 L121.918 171.432 L121.918 165.552 Z" fill="#000000" fill-rule="nonzero" fill-opacity="1" /><path clip-path="url(#clip660)" d="M146.987 139.951 Q143.376 139.951 141.547 143.516 Q139.742 147.057 139.742 154.187 Q139.742 161.293 141.547 164.858 Q143.376 168.4 146.987 168.4 Q150.621 168.4 152.427 164.858 Q154.255 161.293 154.255 154.187 Q154.255 147.057 152.427 143.516 Q150.621 139.951 146.987 139.951 M146.987 136.247 Q152.797 136.247 155.853 140.854 Q158.931 145.437 158.931 154.187 Q158.931 162.914 155.853 167.52 Q152.797 172.103 146.987 172.103 Q141.177 172.103 138.098 167.52 Q135.043 162.914 135.043 154.187 Q135.043 145.437 138.098 140.854 Q141.177 136.247 146.987 136.247 Z" fill="#000000" fill-rule="nonzero" fill-opacity="1" /><path clip-path="url(#clip660)" d="M167.195 136.872 L185.552 136.872 L185.552 140.807 L171.478 140.807 L171.478 149.279 Q172.496 148.932 173.515 148.77 Q174.533 148.585 175.552 148.585 Q181.339 148.585 184.718 151.756 Q188.098 154.928 188.098 160.344 Q188.098 165.923 184.626 169.025 Q181.153 172.103 174.834 172.103 Q172.658 172.103 170.39 171.733 Q168.144 171.363 165.737 170.622 L165.737 165.923 Q167.82 167.057 170.042 167.613 Q172.265 168.168 174.741 168.168 Q178.746 168.168 181.084 166.062 Q183.422 163.955 183.422 160.344 Q183.422 156.733 181.084 154.627 Q178.746 152.52 174.741 152.52 Q172.866 152.52 170.991 152.937 Q169.14 153.353 167.195 154.233 L167.195 136.872 Z" fill="#000000" fill-rule="nonzero" fill-opacity="1" /><polyline clip-path="url(#clip662)" style="stroke:#009af9; stroke-linecap:round; stroke-linejoin:round; stroke-width:4; stroke-opacity:1; fill:none" points="224.098,498.477 436.964,498.477 649.829,86.1857 862.695,664.611 1075.56,1206.57 1288.43,1008.44 1501.29,489.991 1714.16,520.149 1927.02,510.542 2139.89,747.743 2352.76,1384.24 "/>
<polyline clip-path="url(#clip662)" style="stroke:#e26f46; stroke-linecap:round; stroke-linejoin:round; stroke-width:4; stroke-opacity:1; fill:none" points="224.098,498.477 436.964,431.978 649.829,588.446 862.695,587.229 1075.56,472.231 1288.43,418.968 1501.29,503.272 1714.16,497.102 1927.02,536.832 2139.89,603.147 2352.76,566.045 "/>
<path clip-path="url(#clip660)" d="M2045.74 248.629 L2281.8 248.629 L2281.8 93.1086 L2045.74 93.1086  Z" fill="#ffffff" fill-rule="evenodd" fill-opacity="1"/>
<polyline clip-path="url(#clip660)" style="stroke:#000000; stroke-linecap:round; stroke-linejoin:round; stroke-width:4; stroke-opacity:1; fill:none" points="2045.74,248.629 2281.8,248.629 2281.8,93.1086 2045.74,93.1086 2045.74,248.629 "/>
<polyline clip-path="url(#clip660)" style="stroke:#009af9; stroke-linecap:round; stroke-linejoin:round; stroke-width:4; stroke-opacity:1; fill:none" points="2069.39,144.949 2211.3,144.949 "/>
<path clip-path="url(#clip660)" d="M2248.36 149.196 Q2243.2 149.196 2241.2 150.377 Q2239.21 151.557 2239.21 154.405 Q2239.21 156.673 2240.7 158.016 Q2242.2 159.335 2244.77 159.335 Q2248.31 159.335 2250.44 156.835 Q2252.59 154.312 2252.59 150.145 L2252.59 149.196 L2248.36 149.196 M2256.85 147.437 L2256.85 162.229 L2252.59 162.229 L2252.59 158.293 Q2251.14 160.655 2248.96 161.789 Q2246.78 162.9 2243.64 162.9 Q2239.65 162.9 2237.29 160.678 Q2234.95 158.432 2234.95 154.682 Q2234.95 150.307 2237.87 148.085 Q2240.81 145.863 2246.62 145.863 L2252.59 145.863 L2252.59 145.446 Q2252.59 142.507 2250.65 140.909 Q2248.73 139.289 2245.23 139.289 Q2243.01 139.289 2240.9 139.821 Q2238.8 140.354 2236.85 141.419 L2236.85 137.483 Q2239.19 136.581 2241.39 136.141 Q2243.59 135.678 2245.67 135.678 Q2251.3 135.678 2254.07 138.594 Q2256.85 141.511 2256.85 147.437 Z" fill="#000000" fill-rule="nonzero" fill-opacity="1" /><polyline clip-path="url(#clip660)" style="stroke:#e26f46; stroke-linecap:round; stroke-linejoin:round; stroke-width:4; stroke-opacity:1; fill:none" points="2069.39,196.789 2211.3,196.789 "/>
<path clip-path="url(#clip660)" d="M2253.73 201.129 Q2253.73 196.43 2251.78 193.768 Q2249.86 191.083 2246.48 191.083 Q2243.1 191.083 2241.16 193.768 Q2239.24 196.43 2239.24 201.129 Q2239.24 205.828 2241.16 208.513 Q2243.1 211.175 2246.48 211.175 Q2249.86 211.175 2251.78 208.513 Q2253.73 205.828 2253.73 201.129 M2239.24 192.078 Q2240.58 189.763 2242.62 188.652 Q2244.68 187.518 2247.52 187.518 Q2252.25 187.518 2255.19 191.268 Q2258.15 195.018 2258.15 201.129 Q2258.15 207.24 2255.19 210.99 Q2252.25 214.74 2247.52 214.74 Q2244.68 214.74 2242.62 213.629 Q2240.58 212.495 2239.24 210.18 L2239.24 214.069 L2234.95 214.069 L2234.95 178.05 L2239.24 178.05 L2239.24 192.078 Z" fill="#000000" fill-rule="nonzero" fill-opacity="1" /></svg>
