<?xml version="1.0" encoding="utf-8"?>
<svg xmlns="http://www.w3.org/2000/svg" xmlns:xlink="http://www.w3.org/1999/xlink" width="600" height="400" viewBox="0 0 2400 1600">
<defs>
  <clipPath id="clip570">
    <rect x="0" y="0" width="2400" height="1600"/>
  </clipPath>
</defs>
<path clip-path="url(#clip570)" d="M0 1600 L2400 1600 L2400 0 L0 0  Z" fill="#ffffff" fill-rule="evenodd" fill-opacity="1"/>
<defs>
  <clipPath id="clip571">
    <rect x="480" y="0" width="1681" height="1600"/>
  </clipPath>
</defs>
<path clip-path="url(#clip570)" d="M192.709 1423.18 L2352.76 1423.18 L2352.76 47.2441 L192.709 47.2441  Z" fill="#ffffff" fill-rule="evenodd" fill-opacity="1"/>
<defs>
  <clipPath id="clip572">
    <rect x="192" y="47" width="2161" height="1377"/>
  </clipPath>
</defs>
<polyline clip-path="url(#clip572)" style="stroke:#000000; stroke-linecap:round; stroke-linejoin:round; stroke-width:2; stroke-opacity:0.1; fill:none" points="192.709,1423.18 192.709,47.2441 "/>
<polyline clip-path="url(#clip572)" style="stroke:#000000; stroke-linecap:round; stroke-linejoin:round; stroke-width:2; stroke-opacity:0.1; fill:none" points="624.719,1423.18 624.719,47.2441 "/>
<polyline clip-path="url(#clip572)" style="stroke:#000000; stroke-linecap:round; stroke-linejoin:round; stroke-width:2; stroke-opacity:0.1; fill:none" points="1056.73,1423.18 1056.73,47.2441 "/>
<polyline clip-path="url(#clip572)" style="stroke:#000000; stroke-linecap:round; stroke-linejoin:round; stroke-width:2; stroke-opacity:0.1; fill:none" points="1488.74,1423.18 1488.74,47.2441 "/>
<polyline clip-path="url(#clip572)" style="stroke:#000000; stroke-linecap:round; stroke-linejoin:round; stroke-width:2; stroke-opacity:0.1; fill:none" points="1920.75,1423.18 1920.75,47.2441 "/>
<polyline clip-path="url(#clip572)" style="stroke:#000000; stroke-linecap:round; stroke-linejoin:round; stroke-width:2; stroke-opacity:0.1; fill:none" points="2352.76,1423.18 2352.76,47.2441 "/>
<polyline clip-path="url(#clip570)" style="stroke:#000000; stroke-linecap:round; stroke-linejoin:round; stroke-width:4; stroke-opacity:1; fill:none" points="192.709,1423.18 2352.76,1423.18 "/>
<polyline clip-path="url(#clip570)" style="stroke:#000000; stroke-linecap:round; stroke-linejoin:round; stroke-width:4; stroke-opacity:1; fill:none" points="192.709,1423.18 192.709,1404.28 "/>
<polyline clip-path="url(#clip570)" style="stroke:#000000; stroke-linecap:round; stroke-linejoin:round; stroke-width:4; stroke-opacity:1; fill:none" points="624.719,1423.18 624.719,1404.28 "/>
<polyline clip-path="url(#clip570)" style="stroke:#000000; stroke-linecap:round; stroke-linejoin:round; stroke-width:4; stroke-opacity:1; fill:none" points="1056.73,1423.18 1056.73,1404.28 "/>
<polyline clip-path="url(#clip570)" style="stroke:#000000; stroke-linecap:round; stroke-linejoin:round; stroke-width:4; stroke-opacity:1; fill:none" points="1488.74,1423.18 1488.74,1404.28 "/>
<polyline clip-path="url(#clip570)" style="stroke:#000000; stroke-linecap:round; stroke-linejoin:round; stroke-width:4; stroke-opacity:1; fill:none" points="1920.75,1423.18 1920.75,1404.28 "/>
<polyline clip-path="url(#clip570)" style="stroke:#000000; stroke-linecap:round; stroke-linejoin:round; stroke-width:4; stroke-opacity:1; fill:none" points="2352.76,1423.18 2352.76,1404.28 "/>
<path clip-path="url(#clip570)" d="M192.709 1454.1 Q189.098 1454.1 187.269 1457.66 Q185.464 1461.2 185.464 1468.33 Q185.464 1475.44 187.269 1479.01 Q189.098 1482.55 192.709 1482.55 Q196.343 1482.55 198.149 1479.01 Q199.978 1475.44 199.978 1468.33 Q199.978 1461.2 198.149 1457.66 Q196.343 1454.1 192.709 1454.1 M192.709 1450.39 Q198.519 1450.39 201.575 1455 Q204.654 1459.58 204.654 1468.33 Q204.654 1477.06 201.575 1481.67 Q198.519 1486.25 192.709 1486.25 Q186.899 1486.25 183.82 1481.67 Q180.765 1477.06 180.765 1468.33 Q180.765 1459.58 183.82 1455 Q186.899 1450.39 192.709 1450.39 Z" fill="#000000" fill-rule="nonzero" fill-opacity="1" /><path clip-path="url(#clip570)" d="M619.371 1481.64 L635.691 1481.64 L635.691 1485.58 L613.746 1485.58 L613.746 1481.64 Q616.408 1478.89 620.992 1474.26 Q625.598 1469.61 626.779 1468.27 Q629.024 1465.74 629.904 1464.01 Q630.806 1462.25 630.806 1460.56 Q630.806 1457.8 628.862 1456.07 Q626.941 1454.33 623.839 1454.33 Q621.64 1454.33 619.186 1455.09 Q616.756 1455.86 613.978 1457.41 L613.978 1452.69 Q616.802 1451.55 619.256 1450.97 Q621.709 1450.39 623.746 1450.39 Q629.117 1450.39 632.311 1453.08 Q635.505 1455.77 635.505 1460.26 Q635.505 1462.39 634.695 1464.31 Q633.908 1466.2 631.802 1468.8 Q631.223 1469.47 628.121 1472.69 Q625.019 1475.88 619.371 1481.64 Z" fill="#000000" fill-rule="nonzero" fill-opacity="1" /><path clip-path="url(#clip570)" d="M1059.74 1455.09 L1047.93 1473.54 L1059.74 1473.54 L1059.74 1455.09 M1058.51 1451.02 L1064.39 1451.02 L1064.39 1473.54 L1069.32 1473.54 L1069.32 1477.43 L1064.39 1477.43 L1064.39 1485.58 L1059.74 1485.58 L1059.74 1477.43 L1044.14 1477.43 L1044.14 1472.92 L1058.51 1451.02 Z" fill="#000000" fill-rule="nonzero" fill-opacity="1" /><path clip-path="url(#clip570)" d="M1489.14 1466.44 Q1485.99 1466.44 1484.14 1468.59 Q1482.31 1470.74 1482.31 1474.49 Q1482.31 1478.22 1484.14 1480.39 Q1485.99 1482.55 1489.14 1482.55 Q1492.29 1482.55 1494.12 1480.39 Q1495.97 1478.22 1495.97 1474.49 Q1495.97 1470.74 1494.12 1468.59 Q1492.29 1466.44 1489.14 1466.44 M1498.42 1451.78 L1498.42 1456.04 Q1496.67 1455.21 1494.86 1454.77 Q1493.08 1454.33 1491.32 1454.33 Q1486.69 1454.33 1484.23 1457.45 Q1481.8 1460.58 1481.46 1466.9 Q1482.82 1464.89 1484.88 1463.82 Q1486.94 1462.73 1489.42 1462.73 Q1494.63 1462.73 1497.64 1465.9 Q1500.67 1469.05 1500.67 1474.49 Q1500.67 1479.82 1497.52 1483.03 Q1494.37 1486.25 1489.14 1486.25 Q1483.15 1486.25 1479.98 1481.67 Q1476.8 1477.06 1476.8 1468.33 Q1476.8 1460.14 1480.69 1455.28 Q1484.58 1450.39 1491.13 1450.39 Q1492.89 1450.39 1494.67 1450.74 Q1496.48 1451.09 1498.42 1451.78 Z" fill="#000000" fill-rule="nonzero" fill-opacity="1" /><path clip-path="url(#clip570)" d="M1920.75 1469.17 Q1917.41 1469.17 1915.49 1470.95 Q1913.59 1472.73 1913.59 1475.86 Q1913.59 1478.98 1915.49 1480.77 Q1917.41 1482.55 1920.75 1482.55 Q1924.08 1482.55 1926 1480.77 Q1927.92 1478.96 1927.92 1475.86 Q1927.92 1472.73 1926 1470.95 Q1924.1 1469.17 1920.75 1469.17 M1916.07 1467.18 Q1913.06 1466.44 1911.37 1464.38 Q1909.7 1462.32 1909.7 1459.35 Q1909.7 1455.21 1912.64 1452.8 Q1915.61 1450.39 1920.75 1450.39 Q1925.91 1450.39 1928.85 1452.8 Q1931.79 1455.21 1931.79 1459.35 Q1931.79 1462.32 1930.1 1464.38 Q1928.43 1466.44 1925.45 1467.18 Q1928.83 1467.96 1930.7 1470.26 Q1932.6 1472.55 1932.6 1475.86 Q1932.6 1480.88 1929.52 1483.57 Q1926.46 1486.25 1920.75 1486.25 Q1915.03 1486.25 1911.95 1483.57 Q1908.89 1480.88 1908.89 1475.86 Q1908.89 1472.55 1910.79 1470.26 Q1912.69 1467.96 1916.07 1467.18 M1914.36 1459.79 Q1914.36 1462.48 1916.02 1463.98 Q1917.71 1465.49 1920.75 1465.49 Q1923.76 1465.49 1925.45 1463.98 Q1927.16 1462.48 1927.16 1459.79 Q1927.16 1457.11 1925.45 1455.6 Q1923.76 1454.1 1920.75 1454.1 Q1917.71 1454.1 1916.02 1455.6 Q1914.36 1457.11 1914.36 1459.79 Z" fill="#000000" fill-rule="nonzero" fill-opacity="1" /><path clip-path="url(#clip570)" d="M2327.44 1481.64 L2335.08 1481.64 L2335.08 1455.28 L2326.77 1456.95 L2326.77 1452.69 L2335.04 1451.02 L2339.71 1451.02 L2339.71 1481.64 L2347.35 1481.64 L2347.35 1485.58 L2327.44 1485.58 L2327.44 1481.64 Z" fill="#000000" fill-rule="nonzero" fill-opacity="1" /><path clip-path="url(#clip570)" d="M2366.8 1454.1 Q2363.18 1454.1 2361.36 1457.66 Q2359.55 1461.2 2359.55 1468.33 Q2359.55 1475.44 2361.36 1479.01 Q2363.18 1482.55 2366.8 1482.55 Q2370.43 1482.55 2372.23 1479.01 Q2374.06 1475.44 2374.06 1468.33 Q2374.06 1461.2 2372.23 1457.66 Q2370.43 1454.1 2366.8 1454.1 M2366.8 1450.39 Q2372.61 1450.39 2375.66 1455 Q2378.74 1459.58 2378.74 1468.33 Q2378.74 1477.06 2375.66 1481.67 Q2372.61 1486.25 2366.8 1486.25 Q2360.99 1486.25 2357.91 1481.67 Q2354.85 1477.06 2354.85 1468.33 Q2354.85 1459.58 2357.91 1455 Q2360.99 1450.39 2366.8 1450.39 Z" fill="#000000" fill-rule="nonzero" fill-opacity="1" /><path clip-path="url(#clip570)" d="M1271.79 1522.27 L1271.79 1532.4 L1283.86 1532.4 L1283.86 1536.95 L1271.79 1536.95 L1271.79 1556.3 Q1271.79 1560.66 1272.97 1561.9 Q1274.18 1563.14 1277.84 1563.14 L1283.86 1563.14 L1283.86 1568.04 L1277.84 1568.04 Q1271.06 1568.04 1268.48 1565.53 Q1265.91 1562.98 1265.91 1556.3 L1265.91 1536.95 L1261.61 1536.95 L1261.61 1532.4 L1265.91 1532.4 L1265.91 1522.27 L1271.79 1522.27 Z" fill="#000000" fill-rule="nonzero" fill-opacity="1" /><polyline clip-path="url(#clip572)" style="stroke:#000000; stroke-linecap:round; stroke-linejoin:round; stroke-width:2; stroke-opacity:0.1; fill:none" points="192.709,1131.63 2352.76,1131.63 "/>
<polyline clip-path="url(#clip572)" style="stroke:#000000; stroke-linecap:round; stroke-linejoin:round; stroke-width:2; stroke-opacity:0.1; fill:none" points="192.709,812.458 2352.76,812.458 "/>
<polyline clip-path="url(#clip572)" style="stroke:#000000; stroke-linecap:round; stroke-linejoin:round; stroke-width:2; stroke-opacity:0.1; fill:none" points="192.709,493.289 2352.76,493.289 "/>
<polyline clip-path="url(#clip572)" style="stroke:#000000; stroke-linecap:round; stroke-linejoin:round; stroke-width:2; stroke-opacity:0.1; fill:none" points="192.709,174.12 2352.76,174.12 "/>
<polyline clip-path="url(#clip570)" style="stroke:#000000; stroke-linecap:round; stroke-linejoin:round; stroke-width:4; stroke-opacity:1; fill:none" points="192.709,1423.18 192.709,47.2441 "/>
<polyline clip-path="url(#clip570)" style="stroke:#000000; stroke-linecap:round; stroke-linejoin:round; stroke-width:4; stroke-opacity:1; fill:none" points="192.709,1131.63 211.607,1131.63 "/>
<polyline clip-path="url(#clip570)" style="stroke:#000000; stroke-linecap:round; stroke-linejoin:round; stroke-width:4; stroke-opacity:1; fill:none" points="192.709,812.458 211.607,812.458 "/>
<polyline clip-path="url(#clip570)" style="stroke:#000000; stroke-linecap:round; stroke-linejoin:round; stroke-width:4; stroke-opacity:1; fill:none" points="192.709,493.289 211.607,493.289 "/>
<polyline clip-path="url(#clip570)" style="stroke:#000000; stroke-linecap:round; stroke-linejoin:round; stroke-width:4; stroke-opacity:1; fill:none" points="192.709,174.12 211.607,174.12 "/>
<path clip-path="url(#clip570)" d="M51.3625 1132.08 L81.0383 1132.08 L81.0383 1136.01 L51.3625 1136.01 L51.3625 1132.08 Z" fill="#000000" fill-rule="nonzero" fill-opacity="1" /><path clip-path="url(#clip570)" d="M101.131 1117.43 Q97.5197 1117.43 95.691 1120.99 Q93.8854 1124.53 93.8854 1131.66 Q93.8854 1138.77 95.691 1142.33 Q97.5197 1145.87 101.131 1145.87 Q104.765 1145.87 106.571 1142.33 Q108.399 1138.77 108.399 1131.66 Q108.399 1124.53 106.571 1120.99 Q104.765 1117.43 101.131 1117.43 M101.131 1113.72 Q106.941 1113.72 109.996 1118.33 Q113.075 1122.91 113.075 1131.66 Q113.075 1140.39 109.996 1145 Q106.941 1149.58 101.131 1149.58 Q95.3206 1149.58 92.2419 1145 Q89.1864 1140.39 89.1864 1131.66 Q89.1864 1122.91 92.2419 1118.33 Q95.3206 1113.72 101.131 1113.72 Z" fill="#000000" fill-rule="nonzero" fill-opacity="1" /><path clip-path="url(#clip570)" d="M121.293 1143.03 L126.177 1143.03 L126.177 1148.91 L121.293 1148.91 L121.293 1143.03 Z" fill="#000000" fill-rule="nonzero" fill-opacity="1" /><path clip-path="url(#clip570)" d="M140.39 1144.97 L156.709 1144.97 L156.709 1148.91 L134.765 1148.91 L134.765 1144.97 Q137.427 1142.22 142.01 1137.59 Q146.617 1132.93 147.797 1131.59 Q150.043 1129.07 150.922 1127.33 Q151.825 1125.57 151.825 1123.88 Q151.825 1121.13 149.88 1119.39 Q147.959 1117.66 144.857 1117.66 Q142.658 1117.66 140.205 1118.42 Q137.774 1119.18 134.996 1120.74 L134.996 1116.01 Q137.82 1114.88 140.274 1114.3 Q142.728 1113.72 144.765 1113.72 Q150.135 1113.72 153.33 1116.41 Q156.524 1119.09 156.524 1123.58 Q156.524 1125.71 155.714 1127.63 Q154.927 1129.53 152.82 1132.12 Q152.242 1132.8 149.14 1136.01 Q146.038 1139.21 140.39 1144.97 Z" fill="#000000" fill-rule="nonzero" fill-opacity="1" /><path clip-path="url(#clip570)" d="M50.9921 812.909 L80.6679 812.909 L80.6679 816.845 L50.9921 816.845 L50.9921 812.909 Z" fill="#000000" fill-rule="nonzero" fill-opacity="1" /><path clip-path="url(#clip570)" d="M100.76 798.257 Q97.1493 798.257 95.3206 801.821 Q93.515 805.363 93.515 812.493 Q93.515 819.599 95.3206 823.164 Q97.1493 826.706 100.76 826.706 Q104.395 826.706 106.2 823.164 Q108.029 819.599 108.029 812.493 Q108.029 805.363 106.2 801.821 Q104.395 798.257 100.76 798.257 M100.76 794.553 Q106.571 794.553 109.626 799.159 Q112.705 803.743 112.705 812.493 Q112.705 821.22 109.626 825.826 Q106.571 830.409 100.76 830.409 Q94.9502 830.409 91.8715 825.826 Q88.816 821.22 88.816 812.493 Q88.816 803.743 91.8715 799.159 Q94.9502 794.553 100.76 794.553 Z" fill="#000000" fill-rule="nonzero" fill-opacity="1" /><path clip-path="url(#clip570)" d="M120.922 823.858 L125.807 823.858 L125.807 829.738 L120.922 829.738 L120.922 823.858 Z" fill="#000000" fill-rule="nonzero" fill-opacity="1" /><path clip-path="url(#clip570)" d="M136.802 825.803 L144.441 825.803 L144.441 799.437 L136.131 801.104 L136.131 796.845 L144.394 795.178 L149.07 795.178 L149.07 825.803 L156.709 825.803 L156.709 829.738 L136.802 829.738 L136.802 825.803 Z" fill="#000000" fill-rule="nonzero" fill-opacity="1" /><path clip-path="url(#clip570)" d="M99.5335 479.088 Q95.9224 479.088 94.0937 482.652 Q92.2882 486.194 92.2882 493.324 Q92.2882 500.43 94.0937 503.995 Q95.9224 507.537 99.5335 507.537 Q103.168 507.537 104.973 503.995 Q106.802 500.43 106.802 493.324 Q106.802 486.194 104.973 482.652 Q103.168 479.088 99.5335 479.088 M99.5335 475.384 Q105.344 475.384 108.399 479.99 Q111.478 484.574 111.478 493.324 Q111.478 502.05 108.399 506.657 Q105.344 511.24 99.5335 511.24 Q93.7234 511.24 90.6447 506.657 Q87.5892 502.05 87.5892 493.324 Q87.5892 484.574 90.6447 479.99 Q93.7234 475.384 99.5335 475.384 Z" fill="#000000" fill-rule="nonzero" fill-opacity="1" /><path clip-path="url(#clip570)" d="M119.695 504.689 L124.58 504.689 L124.58 510.569 L119.695 510.569 L119.695 504.689 Z" fill="#000000" fill-rule="nonzero" fill-opacity="1" /><path clip-path="url(#clip570)" d="M144.765 479.088 Q141.154 479.088 139.325 482.652 Q137.519 486.194 137.519 493.324 Q137.519 500.43 139.325 503.995 Q141.154 507.537 144.765 507.537 Q148.399 507.537 150.205 503.995 Q152.033 500.43 152.033 493.324 Q152.033 486.194 150.205 482.652 Q148.399 479.088 144.765 479.088 M144.765 475.384 Q150.575 475.384 153.63 479.99 Q156.709 484.574 156.709 493.324 Q156.709 502.05 153.63 506.657 Q150.575 511.24 144.765 511.24 Q138.955 511.24 135.876 506.657 Q132.82 502.05 132.82 493.324 Q132.82 484.574 135.876 479.99 Q138.955 475.384 144.765 475.384 Z" fill="#000000" fill-rule="nonzero" fill-opacity="1" /><path clip-path="url(#clip570)" d="M100.76 159.919 Q97.1493 159.919 95.3206 163.483 Q93.515 167.025 93.515 174.155 Q93.515 181.261 95.3206 184.826 Q97.1493 188.368 100.76 188.368 Q104.395 188.368 106.2 184.826 Q108.029 181.261 108.029 174.155 Q108.029 167.025 106.2 163.483 Q104.395 159.919 100.76 159.919 M100.76 156.215 Q106.571 156.215 109.626 160.821 Q112.705 165.405 112.705 174.155 Q112.705 182.881 109.626 187.488 Q106.571 192.071 100.76 192.071 Q94.9502 192.071 91.8715 187.488 Q88.816 182.881 88.816 174.155 Q88.816 165.405 91.8715 160.821 Q94.9502 156.215 100.76 156.215 Z" fill="#000000" fill-rule="nonzero" fill-opacity="1" /><path clip-path="url(#clip570)" d="M120.922 185.52 L125.807 185.52 L125.807 191.4 L120.922 191.4 L120.922 185.52 Z" fill="#000000" fill-rule="nonzero" fill-opacity="1" /><path clip-path="url(#clip570)" d="M136.802 187.465 L144.441 187.465 L144.441 161.099 L136.131 162.766 L136.131 158.507 L144.394 156.84 L149.07 156.84 L149.07 187.465 L156.709 187.465 L156.709 191.4 L136.802 191.4 L136.802 187.465 Z" fill="#000000" fill-rule="nonzero" fill-opacity="1" /><polyline clip-path="url(#clip572)" style="stroke:#009af9; stroke-linecap:round; stroke-linejoin:round; stroke-width:4; stroke-opacity:1; fill:none" points="192.709,174.12 408.714,190.078 624.719,337.517 840.723,180.918 1056.73,120.772 1272.73,86.1857 1488.74,268.562 1704.74,587.052 1920.75,874.201 2136.75,1101.03 2352.76,1384.24 "/>
<polyline clip-path="url(#clip572)" style="stroke:#e26f46; stroke-linecap:round; stroke-linejoin:round; stroke-width:4; stroke-opacity:1; fill:none" points="192.709,493.289 408.714,514.624 624.719,466.775 840.723,481.069 1056.73,484.706 1272.73,519.421 1488.74,542.846 1704.74,540.359 1920.75,532.947 2136.75,543.868 2352.76,550.204 "/>
<path clip-path="url(#clip570)" d="M2041.56 248.629 L2280.75 248.629 L2280.75 93.1086 L2041.56 93.1086  Z" fill="#ffffff" fill-rule="evenodd" fill-opacity="1"/>
<polyline clip-path="url(#clip570)" style="stroke:#000000; stroke-linecap:round; stroke-linejoin:round; stroke-width:4; stroke-opacity:1; fill:none" points="2041.56,248.629 2280.75,248.629 2280.75,93.1086 2041.56,93.1086 2041.56,248.629 "/>
<polyline clip-path="url(#clip570)" style="stroke:#009af9; stroke-linecap:round; stroke-linejoin:round; stroke-width:4; stroke-opacity:1; fill:none" points="2065.56,144.949 2209.56,144.949 "/>
<path clip-path="url(#clip570)" d="M2246.96 149.196 Q2241.8 149.196 2239.81 150.377 Q2237.82 151.557 2237.82 154.405 Q2237.82 156.673 2239.3 158.016 Q2240.8 159.335 2243.37 159.335 Q2246.92 159.335 2249.05 156.835 Q2251.2 154.312 2251.2 150.145 L2251.2 149.196 L2246.96 149.196 M2255.46 147.437 L2255.46 162.229 L2251.2 162.229 L2251.2 158.293 Q2249.74 160.655 2247.56 161.789 Q2245.39 162.9 2242.24 162.9 Q2238.26 162.9 2235.9 160.678 Q2233.56 158.432 2233.56 154.682 Q2233.56 150.307 2236.48 148.085 Q2239.42 145.863 2245.23 145.863 L2251.2 145.863 L2251.2 145.446 Q2251.2 142.507 2249.25 140.909 Q2247.33 139.289 2243.84 139.289 Q2241.62 139.289 2239.51 139.821 Q2237.4 140.354 2235.46 141.419 L2235.46 137.483 Q2237.8 136.581 2239.99 136.141 Q2242.19 135.678 2244.28 135.678 Q2249.9 135.678 2252.68 138.594 Q2255.46 141.511 2255.46 147.437 Z" fill="#000000" fill-rule="nonzero" fill-opacity="1" /><polyline clip-path="url(#clip570)" style="stroke:#e26f46; stroke-linecap:round; stroke-linejoin:round; stroke-width:4; stroke-opacity:1; fill:none" points="2065.56,196.789 2209.56,196.789 "/>
<path clip-path="url(#clip570)" d="M2252.33 201.129 Q2252.33 196.43 2250.39 193.768 Q2248.47 191.083 2245.09 191.083 Q2241.71 191.083 2239.76 193.768 Q2237.84 196.43 2237.84 201.129 Q2237.84 205.828 2239.76 208.513 Q2241.71 211.175 2245.09 211.175 Q2248.47 211.175 2250.39 208.513 Q2252.33 205.828 2252.33 201.129 M2237.84 192.078 Q2239.18 189.763 2241.22 188.652 Q2243.28 187.518 2246.13 187.518 Q2250.85 187.518 2253.79 191.268 Q2256.75 195.018 2256.75 201.129 Q2256.75 207.24 2253.79 210.99 Q2250.85 214.74 2246.13 214.74 Q2243.28 214.74 2241.22 213.629 Q2239.18 212.495 2237.84 210.18 L2237.84 214.069 L2233.56 214.069 L2233.56 178.05 L2237.84 178.05 L2237.84 192.078 Z" fill="#000000" fill-rule="nonzero" fill-opacity="1" /></svg>
