<?xml version="1.0" encoding="utf-8"?>
<svg xmlns="http://www.w3.org/2000/svg" xmlns:xlink="http://www.w3.org/1999/xlink" width="600" height="400" viewBox="0 0 2400 1600">
<defs>
  <clipPath id="clip510">
    <rect x="0" y="0" width="2400" height="1600"/>
  </clipPath>
</defs>
<path clip-path="url(#clip510)" d="M0 1600 L2400 1600 L2400 0 L0 0  Z" fill="#ffffff" fill-rule="evenodd" fill-opacity="1"/>
<defs>
  <clipPath id="clip511">
    <rect x="480" y="0" width="1681" height="1600"/>
  </clipPath>
</defs>
<path clip-path="url(#clip510)" d="M193.288 1423.18 L2352.76 1423.18 L2352.76 47.2441 L193.288 47.2441  Z" fill="#ffffff" fill-rule="evenodd" fill-opacity="1"/>
<defs>
  <clipPath id="clip512">
    <rect x="193" y="47" width="2160" height="1377"/>
  </clipPath>
</defs>
<polyline clip-path="url(#clip512)" style="stroke:#000000; stroke-linecap:round; stroke-linejoin:round; stroke-width:2; stroke-opacity:0.1; fill:none" points="193.288,1423.18 193.288,47.2441 "/>
<polyline clip-path="url(#clip512)" style="stroke:#000000; stroke-linecap:round; stroke-linejoin:round; stroke-width:2; stroke-opacity:0.1; fill:none" points="625.181,1423.18 625.181,47.2441 "/>
<polyline clip-path="url(#clip512)" style="stroke:#000000; stroke-linecap:round; stroke-linejoin:round; stroke-width:2; stroke-opacity:0.1; fill:none" points="1057.08,1423.18 1057.08,47.2441 "/>
<polyline clip-path="url(#clip512)" style="stroke:#000000; stroke-linecap:round; stroke-linejoin:round; stroke-width:2; stroke-opacity:0.1; fill:none" points="1488.97,1423.18 1488.97,47.2441 "/>
<polyline clip-path="url(#clip512)" style="stroke:#000000; stroke-linecap:round; stroke-linejoin:round; stroke-width:2; stroke-opacity:0.1; fill:none" points="1920.86,1423.18 1920.86,47.2441 "/>
<polyline clip-path="url(#clip512)" style="stroke:#000000; stroke-linecap:round; stroke-linejoin:round; stroke-width:2; stroke-opacity:0.1; fill:none" points="2352.76,1423.18 2352.76,47.2441 "/>
<polyline clip-path="url(#clip510)" style="stroke:#000000; stroke-linecap:round; stroke-linejoin:round; stroke-width:4; stroke-opacity:1; fill:none" points="193.288,1423.18 2352.76,1423.18 "/>
<polyline clip-path="url(#clip510)" style="stroke:#000000; stroke-linecap:round; stroke-linejoin:round; stroke-width:4; stroke-opacity:1; fill:none" points="193.288,1423.18 193.288,1404.28 "/>
<polyline clip-path="url(#clip510)" style="stroke:#000000; stroke-linecap:round; stroke-linejoin:round; stroke-width:4; stroke-opacity:1; fill:none" points="625.181,1423.18 625.181,1404.28 "/>
<polyline clip-path="url(#clip510)" style="stroke:#000000; stroke-linecap:round; stroke-linejoin:round; stroke-width:4; stroke-opacity:1; fill:none" points="1057.08,1423.18 1057.08,1404.28 "/>
<polyline clip-path="url(#clip510)" style="stroke:#000000; stroke-linecap:round; stroke-linejoin:round; stroke-width:4; stroke-opacity:1; fill:none" points="1488.97,1423.18 1488.97,1404.28 "/>
<polyline clip-path="url(#clip510)" style="stroke:#000000; stroke-linecap:round; stroke-linejoin:round; stroke-width:4; stroke-opacity:1; fill:none" points="1920.86,1423.18 1920.86,1404.28 "/>
<polyline clip-path="url(#clip510)" style="stroke:#000000; stroke-linecap:round; stroke-linejoin:round; stroke-width:4; stroke-opacity:1; fill:none" points="2352.76,1423.18 2352.76,1404.28 "/>
<path clip-path="url(#clip510)" d="M193.288 1454.1 Q189.677 1454.1 187.848 1457.66 Q186.043 1461.2 186.043 1468.33 Q186.043 1475.44 187.848 1479.01 Q189.677 1482.55 193.288 1482.55 Q196.922 1482.55 198.728 1479.01 Q200.556 1475.44 200.556 1468.33 Q200.556 1461.2 198.728 1457.66 Q196.922 1454.1 193.288 1454.1 M193.288 1450.39 Q199.098 1450.39 202.154 1455 Q205.232 1459.58 205.232 1468.33 Q205.232 1477.06 202.154 1481.67 Q199.098 1486.25 193.288 1486.25 Q187.478 1486.25 184.399 1481.67 Q181.343 1477.06 181.343 1468.33 Q181.343 1459.58 184.399 1455 Q187.478 1450.39 193.288 1450.39 Z" fill="#000000" fill-rule="nonzero" fill-opacity="1" /><path clip-path="url(#clip510)" d="M619.834 1481.64 L636.154 1481.64 L636.154 1485.58 L614.209 1485.58 L614.209 1481.64 Q616.871 1478.89 621.455 1474.26 Q626.061 1469.61 627.242 1468.27 Q629.487 1465.74 630.367 1464.01 Q631.269 1462.25 631.269 1460.56 Q631.269 1457.8 629.325 1456.07 Q627.404 1454.33 624.302 1454.33 Q622.103 1454.33 619.649 1455.09 Q617.219 1455.86 614.441 1457.41 L614.441 1452.69 Q617.265 1451.55 619.719 1450.97 Q622.172 1450.39 624.209 1450.39 Q629.58 1450.39 632.774 1453.08 Q635.968 1455.77 635.968 1460.26 Q635.968 1462.39 635.158 1464.31 Q634.371 1466.2 632.265 1468.8 Q631.686 1469.47 628.584 1472.69 Q625.482 1475.88 619.834 1481.64 Z" fill="#000000" fill-rule="nonzero" fill-opacity="1" /><path clip-path="url(#clip510)" d="M1060.08 1455.09 L1048.28 1473.54 L1060.08 1473.54 L1060.08 1455.09 M1058.86 1451.02 L1064.74 1451.02 L1064.74 1473.54 L1069.67 1473.54 L1069.67 1477.43 L1064.74 1477.43 L1064.74 1485.58 L1060.08 1485.58 L1060.08 1477.43 L1044.48 1477.43 L1044.48 1472.92 L1058.86 1451.02 Z" fill="#000000" fill-rule="nonzero" fill-opacity="1" /><path clip-path="url(#clip510)" d="M1489.37 1466.44 Q1486.23 1466.44 1484.37 1468.59 Q1482.55 1470.74 1482.55 1474.49 Q1482.55 1478.22 1484.37 1480.39 Q1486.23 1482.55 1489.37 1482.55 Q1492.52 1482.55 1494.35 1480.39 Q1496.2 1478.22 1496.2 1474.49 Q1496.2 1470.74 1494.35 1468.59 Q1492.52 1466.44 1489.37 1466.44 M1498.66 1451.78 L1498.66 1456.04 Q1496.9 1455.21 1495.09 1454.77 Q1493.31 1454.33 1491.55 1454.33 Q1486.92 1454.33 1484.47 1457.45 Q1482.04 1460.58 1481.69 1466.9 Q1483.05 1464.89 1485.11 1463.82 Q1487.17 1462.73 1489.65 1462.73 Q1494.86 1462.73 1497.87 1465.9 Q1500.9 1469.05 1500.9 1474.49 Q1500.9 1479.82 1497.75 1483.03 Q1494.61 1486.25 1489.37 1486.25 Q1483.38 1486.25 1480.21 1481.67 Q1477.04 1477.06 1477.04 1468.33 Q1477.04 1460.14 1480.92 1455.28 Q1484.81 1450.39 1491.36 1450.39 Q1493.12 1450.39 1494.91 1450.74 Q1496.71 1451.09 1498.66 1451.78 Z" fill="#000000" fill-rule="nonzero" fill-opacity="1" /><path clip-path="url(#clip510)" d="M1920.86 1469.17 Q1917.53 1469.17 1915.61 1470.95 Q1913.71 1472.73 1913.71 1475.86 Q1913.71 1478.98 1915.61 1480.77 Q1917.53 1482.55 1920.86 1482.55 Q1924.2 1482.55 1926.12 1480.77 Q1928.04 1478.96 1928.04 1475.86 Q1928.04 1472.73 1926.12 1470.95 Q1924.22 1469.17 1920.86 1469.17 M1916.19 1467.18 Q1913.18 1466.44 1911.49 1464.38 Q1909.82 1462.32 1909.82 1459.35 Q1909.82 1455.21 1912.76 1452.8 Q1915.72 1450.39 1920.86 1450.39 Q1926.02 1450.39 1928.96 1452.8 Q1931.9 1455.21 1931.9 1459.35 Q1931.9 1462.32 1930.21 1464.38 Q1928.55 1466.44 1925.56 1467.18 Q1928.94 1467.96 1930.82 1470.26 Q1932.71 1472.55 1932.71 1475.86 Q1932.71 1480.88 1929.64 1483.57 Q1926.58 1486.25 1920.86 1486.25 Q1915.14 1486.25 1912.07 1483.57 Q1909.01 1480.88 1909.01 1475.86 Q1909.01 1472.55 1910.91 1470.26 Q1912.81 1467.96 1916.19 1467.18 M1914.47 1459.79 Q1914.47 1462.48 1916.14 1463.98 Q1917.83 1465.49 1920.86 1465.49 Q1923.87 1465.49 1925.56 1463.98 Q1927.27 1462.48 1927.27 1459.79 Q1927.27 1457.11 1925.56 1455.6 Q1923.87 1454.1 1920.86 1454.1 Q1917.83 1454.1 1916.14 1455.6 Q1914.47 1457.11 1914.47 1459.79 Z" fill="#000000" fill-rule="nonzero" fill-opacity="1" /><path clip-path="url(#clip510)" d="M2327.44 1481.64 L2335.08 1481.64 L2335.08 1455.28 L2326.77 1456.95 L2326.77 1452.69 L2335.04 1451.02 L2339.71 1451.02 L2339.71 1481.64 L2347.35 1481.64 L2347.35 1485.58 L2327.44 1485.58 L2327.44 1481.64 Z" fill="#000000" fill-rule="nonzero" fill-opacity="1" /><path clip-path="url(#clip510)" d="M2366.8 1454.1 Q2363.18 1454.1 2361.36 1457.66 Q2359.55 1461.2 2359.55 1468.33 Q2359.55 1475.44 2361.36 1479.01 Q2363.18 1482.55 2366.8 1482.55 Q2370.43 1482.55 2372.23 1479.01 Q2374.06 1475.44 2374.06 1468.33 Q2374.06 1461.2 2372.23 1457.66 Q2370.43 1454.1 2366.8 1454.1 M2366.8 1450.39 Q2372.61 1450.39 2375.66 1455 Q2378.74 1459.58 2378.74 1468.33 Q2378.74 1477.06 2375.66 1481.67 Q2372.61 1486.25 2366.8 1486.25 Q2360.99 1486.25 2357.91 1481.67 Q2354.85 1477.06 2354.85 1468.33 Q2354.85 1459.58 2357.91 1455 Q2360.99 1450.39 2366.8 1450.39 Z" fill="#000000" fill-rule="nonzero" fill-opacity="1" /><path clip-path="url(#clip510)" d="M1272.08 1522.27 L1272.08 1532.4 L1284.15 1532.4 L1284.15 1536.95 L1272.08 1536.95 L1272.08 1556.3 Q1272.08 1560.66 1273.26 1561.9 Q1274.47 1563.14 1278.13 1563.14 L1284.15 1563.14 L1284.15 1568.04 L1278.13 1568.04 Q1271.35 1568.04 1268.77 1565.53 Q1266.19 1562.98 1266.19 1556.3 L1266.19 1536.95 L1261.9 1536.95 L1261.9 1532.4 L1266.19 1532.4 L1266.19 1522.27 L1272.08 1522.27 Z" fill="#000000" fill-rule="nonzero" fill-opacity="1" /><polyline clip-path="url(#clip512)" style="stroke:#000000; stroke-linecap:round; stroke-linejoin:round; stroke-width:2; stroke-opacity:0.1; fill:none" points="193.288,1254.1 2352.76,1254.1 "/>
<polyline clip-path="url(#clip512)" style="stroke:#000000; stroke-linecap:round; stroke-linejoin:round; stroke-width:2; stroke-opacity:0.1; fill:none" points="193.288,920.572 2352.76,920.572 "/>
<polyline clip-path="url(#clip512)" style="stroke:#000000; stroke-linecap:round; stroke-linejoin:round; stroke-width:2; stroke-opacity:0.1; fill:none" points="193.288,587.048 2352.76,587.048 "/>
<polyline clip-path="url(#clip512)" style="stroke:#000000; stroke-linecap:round; stroke-linejoin:round; stroke-width:2; stroke-opacity:0.1; fill:none" points="193.288,253.524 2352.76,253.524 "/>
<polyline clip-path="url(#clip510)" style="stroke:#000000; stroke-linecap:round; stroke-linejoin:round; stroke-width:4; stroke-opacity:1; fill:none" points="193.288,1423.18 193.288,47.2441 "/>
<polyline clip-path="url(#clip510)" style="stroke:#000000; stroke-linecap:round; stroke-linejoin:round; stroke-width:4; stroke-opacity:1; fill:none" points="193.288,1254.1 212.185,1254.1 "/>
<polyline clip-path="url(#clip510)" style="stroke:#000000; stroke-linecap:round; stroke-linejoin:round; stroke-width:4; stroke-opacity:1; fill:none" points="193.288,920.572 212.185,920.572 "/>
<polyline clip-path="url(#clip510)" style="stroke:#000000; stroke-linecap:round; stroke-linejoin:round; stroke-width:4; stroke-opacity:1; fill:none" points="193.288,587.048 212.185,587.048 "/>
<polyline clip-path="url(#clip510)" style="stroke:#000000; stroke-linecap:round; stroke-linejoin:round; stroke-width:4; stroke-opacity:1; fill:none" points="193.288,253.524 212.185,253.524 "/>
<path clip-path="url(#clip510)" d="M50.9921 1254.55 L80.6679 1254.55 L80.6679 1258.48 L50.9921 1258.48 L50.9921 1254.55 Z" fill="#000000" fill-rule="nonzero" fill-opacity="1" /><path clip-path="url(#clip510)" d="M100.76 1239.9 Q97.1493 1239.9 95.3206 1243.46 Q93.515 1247 93.515 1254.13 Q93.515 1261.24 95.3206 1264.8 Q97.1493 1268.34 100.76 1268.34 Q104.395 1268.34 106.2 1264.8 Q108.029 1261.24 108.029 1254.13 Q108.029 1247 106.2 1243.46 Q104.395 1239.9 100.76 1239.9 M100.76 1236.19 Q106.571 1236.19 109.626 1240.8 Q112.705 1245.38 112.705 1254.13 Q112.705 1262.86 109.626 1267.46 Q106.571 1272.05 100.76 1272.05 Q94.9502 1272.05 91.8715 1267.46 Q88.816 1262.86 88.816 1254.13 Q88.816 1245.38 91.8715 1240.8 Q94.9502 1236.19 100.76 1236.19 Z" fill="#000000" fill-rule="nonzero" fill-opacity="1" /><path clip-path="url(#clip510)" d="M120.922 1265.5 L125.807 1265.5 L125.807 1271.38 L120.922 1271.38 L120.922 1265.5 Z" fill="#000000" fill-rule="nonzero" fill-opacity="1" /><path clip-path="url(#clip510)" d="M150.158 1252.74 Q153.515 1253.46 155.39 1255.73 Q157.288 1258 157.288 1261.33 Q157.288 1266.45 153.769 1269.25 Q150.251 1272.05 143.769 1272.05 Q141.593 1272.05 139.279 1271.61 Q136.987 1271.19 134.533 1270.33 L134.533 1265.82 Q136.478 1266.96 138.793 1267.53 Q141.107 1268.11 143.631 1268.11 Q148.029 1268.11 150.32 1266.38 Q152.635 1264.64 152.635 1261.33 Q152.635 1258.27 150.482 1256.56 Q148.353 1254.83 144.533 1254.83 L140.506 1254.83 L140.506 1250.98 L144.718 1250.98 Q148.168 1250.98 149.996 1249.62 Q151.825 1248.23 151.825 1245.64 Q151.825 1242.97 149.927 1241.56 Q148.052 1240.13 144.533 1240.13 Q142.612 1240.13 140.413 1240.54 Q138.214 1240.96 135.575 1241.84 L135.575 1237.67 Q138.237 1236.93 140.552 1236.56 Q142.89 1236.19 144.95 1236.19 Q150.274 1236.19 153.376 1238.62 Q156.478 1241.03 156.478 1245.15 Q156.478 1248.02 154.834 1250.01 Q153.191 1251.98 150.158 1252.74 Z" fill="#000000" fill-rule="nonzero" fill-opacity="1" /><path clip-path="url(#clip510)" d="M51.9412 921.024 L81.617 921.024 L81.617 924.959 L51.9412 924.959 L51.9412 921.024 Z" fill="#000000" fill-rule="nonzero" fill-opacity="1" /><path clip-path="url(#clip510)" d="M101.709 906.371 Q98.0984 906.371 96.2697 909.936 Q94.4641 913.478 94.4641 920.607 Q94.4641 927.714 96.2697 931.278 Q98.0984 934.82 101.709 934.82 Q105.344 934.82 107.149 931.278 Q108.978 927.714 108.978 920.607 Q108.978 913.478 107.149 909.936 Q105.344 906.371 101.709 906.371 M101.709 902.667 Q107.52 902.667 110.575 907.274 Q113.654 911.857 113.654 920.607 Q113.654 929.334 110.575 933.94 Q107.52 938.524 101.709 938.524 Q95.8993 938.524 92.8206 933.94 Q89.7651 929.334 89.7651 920.607 Q89.7651 911.857 92.8206 907.274 Q95.8993 902.667 101.709 902.667 Z" fill="#000000" fill-rule="nonzero" fill-opacity="1" /><path clip-path="url(#clip510)" d="M121.871 931.973 L126.756 931.973 L126.756 937.852 L121.871 937.852 L121.871 931.973 Z" fill="#000000" fill-rule="nonzero" fill-opacity="1" /><path clip-path="url(#clip510)" d="M140.968 933.917 L157.288 933.917 L157.288 937.852 L135.344 937.852 L135.344 933.917 Q138.006 931.163 142.589 926.533 Q147.195 921.88 148.376 920.538 Q150.621 918.015 151.501 916.278 Q152.404 914.519 152.404 912.829 Q152.404 910.075 150.459 908.339 Q148.538 906.603 145.436 906.603 Q143.237 906.603 140.783 907.366 Q138.353 908.13 135.575 909.681 L135.575 904.959 Q138.399 903.825 140.853 903.246 Q143.306 902.667 145.343 902.667 Q150.714 902.667 153.908 905.353 Q157.103 908.038 157.103 912.528 Q157.103 914.658 156.292 916.579 Q155.505 918.478 153.399 921.07 Q152.82 921.741 149.718 924.959 Q146.617 928.153 140.968 933.917 Z" fill="#000000" fill-rule="nonzero" fill-opacity="1" /><path clip-path="url(#clip510)" d="M51.5708 587.5 L81.2466 587.5 L81.2466 591.435 L51.5708 591.435 L51.5708 587.5 Z" fill="#000000" fill-rule="nonzero" fill-opacity="1" /><path clip-path="url(#clip510)" d="M101.339 572.847 Q97.728 572.847 95.8993 576.412 Q94.0937 579.953 94.0937 587.083 Q94.0937 594.19 95.8993 597.754 Q97.728 601.296 101.339 601.296 Q104.973 601.296 106.779 597.754 Q108.608 594.19 108.608 587.083 Q108.608 579.953 106.779 576.412 Q104.973 572.847 101.339 572.847 M101.339 569.143 Q107.149 569.143 110.205 573.75 Q113.283 578.333 113.283 587.083 Q113.283 595.81 110.205 600.416 Q107.149 605 101.339 605 Q95.5289 605 92.4502 600.416 Q89.3947 595.81 89.3947 587.083 Q89.3947 578.333 92.4502 573.75 Q95.5289 569.143 101.339 569.143 Z" fill="#000000" fill-rule="nonzero" fill-opacity="1" /><path clip-path="url(#clip510)" d="M121.501 598.449 L126.385 598.449 L126.385 604.328 L121.501 604.328 L121.501 598.449 Z" fill="#000000" fill-rule="nonzero" fill-opacity="1" /><path clip-path="url(#clip510)" d="M137.381 600.393 L145.019 600.393 L145.019 574.028 L136.709 575.694 L136.709 571.435 L144.973 569.768 L149.649 569.768 L149.649 600.393 L157.288 600.393 L157.288 604.328 L137.381 604.328 L137.381 600.393 Z" fill="#000000" fill-rule="nonzero" fill-opacity="1" /><path clip-path="url(#clip510)" d="M100.112 239.323 Q96.5011 239.323 94.6724 242.888 Q92.8669 246.429 92.8669 253.559 Q92.8669 260.666 94.6724 264.23 Q96.5011 267.772 100.112 267.772 Q103.746 267.772 105.552 264.23 Q107.381 260.666 107.381 253.559 Q107.381 246.429 105.552 242.888 Q103.746 239.323 100.112 239.323 M100.112 235.619 Q105.922 235.619 108.978 240.226 Q112.057 244.809 112.057 253.559 Q112.057 262.286 108.978 266.892 Q105.922 271.476 100.112 271.476 Q94.3021 271.476 91.2234 266.892 Q88.1679 262.286 88.1679 253.559 Q88.1679 244.809 91.2234 240.226 Q94.3021 235.619 100.112 235.619 Z" fill="#000000" fill-rule="nonzero" fill-opacity="1" /><path clip-path="url(#clip510)" d="M120.274 264.925 L125.158 264.925 L125.158 270.804 L120.274 270.804 L120.274 264.925 Z" fill="#000000" fill-rule="nonzero" fill-opacity="1" /><path clip-path="url(#clip510)" d="M145.343 239.323 Q141.732 239.323 139.904 242.888 Q138.098 246.429 138.098 253.559 Q138.098 260.666 139.904 264.23 Q141.732 267.772 145.343 267.772 Q148.978 267.772 150.783 264.23 Q152.612 260.666 152.612 253.559 Q152.612 246.429 150.783 242.888 Q148.978 239.323 145.343 239.323 M145.343 235.619 Q151.154 235.619 154.209 240.226 Q157.288 244.809 157.288 253.559 Q157.288 262.286 154.209 266.892 Q151.154 271.476 145.343 271.476 Q139.533 271.476 136.455 266.892 Q133.399 262.286 133.399 253.559 Q133.399 244.809 136.455 240.226 Q139.533 235.619 145.343 235.619 Z" fill="#000000" fill-rule="nonzero" fill-opacity="1" /><polyline clip-path="url(#clip512)" style="stroke:#009af9; stroke-linecap:round; stroke-linejoin:round; stroke-width:4; stroke-opacity:1; fill:none" points="193.288,253.524 409.235,253.524 625.181,391.751 841.128,213.059 1057.08,135.911 1273.02,86.1857 1488.97,263.861 1704.92,584.417 1920.86,872.835 2136.81,1098.81 2352.76,1384.24 "/>
<polyline clip-path="url(#clip512)" style="stroke:#e26f46; stroke-linecap:round; stroke-linejoin:round; stroke-width:4; stroke-opacity:1; fill:none" points="193.288,253.524 409.235,275.819 625.181,225.818 841.128,240.755 1057.08,244.556 1273.02,280.832 1488.97,305.31 1704.92,302.712 1920.86,294.966 2136.81,306.379 2352.76,313 "/>
<path clip-path="url(#clip510)" d="M265.27 1377.32 L504.411 1377.32 L504.411 1221.8 L265.27 1221.8  Z" fill="#ffffff" fill-rule="evenodd" fill-opacity="1"/>
<polyline clip-path="url(#clip510)" style="stroke:#000000; stroke-linecap:round; stroke-linejoin:round; stroke-width:4; stroke-opacity:1; fill:none" points="265.27,1377.32 504.411,1377.32 504.411,1221.8 265.27,1221.8 265.27,1377.32 "/>
<polyline clip-path="url(#clip510)" style="stroke:#009af9; stroke-linecap:round; stroke-linejoin:round; stroke-width:4; stroke-opacity:1; fill:none" points="289.264,1273.64 433.229,1273.64 "/>
<path clip-path="url(#clip510)" d="M470.626 1277.88 Q465.464 1277.88 463.473 1279.06 Q461.482 1280.24 461.482 1283.09 Q461.482 1285.36 462.964 1286.7 Q464.468 1288.02 467.038 1288.02 Q470.579 1288.02 472.709 1285.52 Q474.862 1283 474.862 1278.83 L474.862 1277.88 L470.626 1277.88 M479.121 1276.12 L479.121 1290.92 L474.862 1290.92 L474.862 1286.98 Q473.403 1289.34 471.227 1290.48 Q469.051 1291.59 465.903 1291.59 Q461.922 1291.59 459.561 1289.36 Q457.223 1287.12 457.223 1283.37 Q457.223 1278.99 460.139 1276.77 Q463.079 1274.55 468.889 1274.55 L474.862 1274.55 L474.862 1274.13 Q474.862 1271.19 472.917 1269.6 Q470.996 1267.98 467.501 1267.98 Q465.278 1267.98 463.172 1268.51 Q461.065 1269.04 459.121 1270.11 L459.121 1266.17 Q461.459 1265.27 463.658 1264.83 Q465.857 1264.36 467.94 1264.36 Q473.565 1264.36 476.343 1267.28 Q479.121 1270.2 479.121 1276.12 Z" fill="#000000" fill-rule="nonzero" fill-opacity="1" /><polyline clip-path="url(#clip510)" style="stroke:#e26f46; stroke-linecap:round; stroke-linejoin:round; stroke-width:4; stroke-opacity:1; fill:none" points="289.264,1325.48 433.229,1325.48 "/>
<path clip-path="url(#clip510)" d="M475.996 1329.82 Q475.996 1325.12 474.051 1322.45 Q472.13 1319.77 468.751 1319.77 Q465.371 1319.77 463.427 1322.45 Q461.505 1325.12 461.505 1329.82 Q461.505 1334.51 463.427 1337.2 Q465.371 1339.86 468.751 1339.86 Q472.13 1339.86 474.051 1337.2 Q475.996 1334.51 475.996 1329.82 M461.505 1320.76 Q462.848 1318.45 464.885 1317.34 Q466.945 1316.2 469.792 1316.2 Q474.514 1316.2 477.454 1319.95 Q480.417 1323.7 480.417 1329.82 Q480.417 1335.93 477.454 1339.68 Q474.514 1343.43 469.792 1343.43 Q466.945 1343.43 464.885 1342.32 Q462.848 1341.18 461.505 1338.87 L461.505 1342.76 L457.223 1342.76 L457.223 1306.74 L461.505 1306.74 L461.505 1320.76 Z" fill="#000000" fill-rule="nonzero" fill-opacity="1" /></svg>
