<?xml version="1.0" encoding="utf-8"?>
<svg xmlns="http://www.w3.org/2000/svg" xmlns:xlink="http://www.w3.org/1999/xlink" width="600" height="400" viewBox="0 0 2400 1600">
<defs>
  <clipPath id="clip840">
    <rect x="0" y="0" width="2400" height="1600"/>
  </clipPath>
</defs>
<path clip-path="url(#clip840)" d="M0 1600 L2400 1600 L2400 0 L0 0  Z" fill="#ffffff" fill-rule="evenodd" fill-opacity="1"/>
<defs>
  <clipPath id="clip841">
    <rect x="480" y="0" width="1681" height="1600"/>
  </clipPath>
</defs>
<path clip-path="url(#clip840)" d="M112.177 1423.18 L2352.76 1423.18 L2352.76 47.2441 L112.177 47.2441  Z" fill="#ffffff" fill-rule="evenodd" fill-opacity="1"/>
<defs>
  <clipPath id="clip842">
    <rect x="112" y="47" width="2242" height="1377"/>
  </clipPath>
</defs>
<polyline clip-path="url(#clip842)" style="stroke:#000000; stroke-linecap:round; stroke-linejoin:round; stroke-width:2; stroke-opacity:0.1; fill:none" points="112.177,1423.18 112.177,47.2441 "/>
<polyline clip-path="url(#clip842)" style="stroke:#000000; stroke-linecap:round; stroke-linejoin:round; stroke-width:2; stroke-opacity:0.1; fill:none" points="560.293,1423.18 560.293,47.2441 "/>
<polyline clip-path="url(#clip842)" style="stroke:#000000; stroke-linecap:round; stroke-linejoin:round; stroke-width:2; stroke-opacity:0.1; fill:none" points="1008.41,1423.18 1008.41,47.2441 "/>
<polyline clip-path="url(#clip842)" style="stroke:#000000; stroke-linecap:round; stroke-linejoin:round; stroke-width:2; stroke-opacity:0.1; fill:none" points="1456.52,1423.18 1456.52,47.2441 "/>
<polyline clip-path="url(#clip842)" style="stroke:#000000; stroke-linecap:round; stroke-linejoin:round; stroke-width:2; stroke-opacity:0.1; fill:none" points="1904.64,1423.18 1904.64,47.2441 "/>
<polyline clip-path="url(#clip842)" style="stroke:#000000; stroke-linecap:round; stroke-linejoin:round; stroke-width:2; stroke-opacity:0.1; fill:none" points="2352.76,1423.18 2352.76,47.2441 "/>
<polyline clip-path="url(#clip840)" style="stroke:#000000; stroke-linecap:round; stroke-linejoin:round; stroke-width:4; stroke-opacity:1; fill:none" points="112.177,1423.18 2352.76,1423.18 "/>
<polyline clip-path="url(#clip840)" style="stroke:#000000; stroke-linecap:round; stroke-linejoin:round; stroke-width:4; stroke-opacity:1; fill:none" points="112.177,1423.18 112.177,1404.28 "/>
<polyline clip-path="url(#clip840)" style="stroke:#000000; stroke-linecap:round; stroke-linejoin:round; stroke-width:4; stroke-opacity:1; fill:none" points="560.293,1423.18 560.293,1404.28 "/>
<polyline clip-path="url(#clip840)" style="stroke:#000000; stroke-linecap:round; stroke-linejoin:round; stroke-width:4; stroke-opacity:1; fill:none" points="1008.41,1423.18 1008.41,1404.28 "/>
<polyline clip-path="url(#clip840)" style="stroke:#000000; stroke-linecap:round; stroke-linejoin:round; stroke-width:4; stroke-opacity:1; fill:none" points="1456.52,1423.18 1456.52,1404.28 "/>
<polyline clip-path="url(#clip840)" style="stroke:#000000; stroke-linecap:round; stroke-linejoin:round; stroke-width:4; stroke-opacity:1; fill:none" points="1904.64,1423.18 1904.64,1404.28 "/>
<polyline clip-path="url(#clip840)" style="stroke:#000000; stroke-linecap:round; stroke-linejoin:round; stroke-width:4; stroke-opacity:1; fill:none" points="2352.76,1423.18 2352.76,1404.28 "/>
<path clip-path="url(#clip840)" d="M112.177 1454.1 Q108.566 1454.1 106.737 1457.66 Q104.932 1461.2 104.932 1468.33 Q104.932 1475.44 106.737 1479.01 Q108.566 1482.55 112.177 1482.55 Q115.811 1482.55 117.617 1479.01 Q119.446 1475.44 119.446 1468.33 Q119.446 1461.2 117.617 1457.66 Q115.811 1454.1 112.177 1454.1 M112.177 1450.39 Q117.987 1450.39 121.043 1455 Q124.122 1459.58 124.122 1468.33 Q124.122 1477.06 121.043 1481.67 Q117.987 1486.25 112.177 1486.25 Q106.367 1486.25 103.288 1481.67 Q100.233 1477.06 100.233 1468.33 Q100.233 1459.58 103.288 1455 Q106.367 1450.39 112.177 1450.39 Z" fill="#000000" fill-rule="nonzero" fill-opacity="1" /><path clip-path="url(#clip840)" d="M554.946 1481.64 L571.265 1481.64 L571.265 1485.58 L549.321 1485.58 L549.321 1481.64 Q551.983 1478.89 556.566 1474.26 Q561.173 1469.61 562.353 1468.27 Q564.598 1465.74 565.478 1464.01 Q566.381 1462.25 566.381 1460.56 Q566.381 1457.8 564.436 1456.07 Q562.515 1454.33 559.413 1454.33 Q557.214 1454.33 554.761 1455.09 Q552.33 1455.86 549.552 1457.41 L549.552 1452.69 Q552.376 1451.55 554.83 1450.97 Q557.284 1450.39 559.321 1450.39 Q564.691 1450.39 567.885 1453.08 Q571.08 1455.77 571.08 1460.26 Q571.08 1462.39 570.27 1464.31 Q569.483 1466.2 567.376 1468.8 Q566.798 1469.47 563.696 1472.69 Q560.594 1475.88 554.946 1481.64 Z" fill="#000000" fill-rule="nonzero" fill-opacity="1" /><path clip-path="url(#clip840)" d="M1011.42 1455.09 L999.612 1473.54 L1011.42 1473.54 L1011.42 1455.09 M1010.19 1451.02 L1016.07 1451.02 L1016.07 1473.54 L1021 1473.54 L1021 1477.43 L1016.07 1477.43 L1016.07 1485.58 L1011.42 1485.58 L1011.42 1477.43 L995.816 1477.43 L995.816 1472.92 L1010.19 1451.02 Z" fill="#000000" fill-rule="nonzero" fill-opacity="1" /><path clip-path="url(#clip840)" d="M1456.93 1466.44 Q1453.78 1466.44 1451.93 1468.59 Q1450.1 1470.74 1450.1 1474.49 Q1450.1 1478.22 1451.93 1480.39 Q1453.78 1482.55 1456.93 1482.55 Q1460.08 1482.55 1461.91 1480.39 Q1463.76 1478.22 1463.76 1474.49 Q1463.76 1470.74 1461.91 1468.59 Q1460.08 1466.44 1456.93 1466.44 M1466.21 1451.78 L1466.21 1456.04 Q1464.45 1455.21 1462.65 1454.77 Q1460.86 1454.33 1459.11 1454.33 Q1454.48 1454.33 1452.02 1457.45 Q1449.59 1460.58 1449.24 1466.9 Q1450.61 1464.89 1452.67 1463.82 Q1454.73 1462.73 1457.21 1462.73 Q1462.42 1462.73 1465.42 1465.9 Q1468.46 1469.05 1468.46 1474.49 Q1468.46 1479.82 1465.31 1483.03 Q1462.16 1486.25 1456.93 1486.25 Q1450.93 1486.25 1447.76 1481.67 Q1444.59 1477.06 1444.59 1468.33 Q1444.59 1460.14 1448.48 1455.28 Q1452.37 1450.39 1458.92 1450.39 Q1460.68 1450.39 1462.46 1450.74 Q1464.27 1451.09 1466.21 1451.78 Z" fill="#000000" fill-rule="nonzero" fill-opacity="1" /><path clip-path="url(#clip840)" d="M1904.64 1469.17 Q1901.31 1469.17 1899.39 1470.95 Q1897.49 1472.73 1897.49 1475.86 Q1897.49 1478.98 1899.39 1480.77 Q1901.31 1482.55 1904.64 1482.55 Q1907.97 1482.55 1909.89 1480.77 Q1911.82 1478.96 1911.82 1475.86 Q1911.82 1472.73 1909.89 1470.95 Q1908 1469.17 1904.64 1469.17 M1899.96 1467.18 Q1896.96 1466.44 1895.27 1464.38 Q1893.6 1462.32 1893.6 1459.35 Q1893.6 1455.21 1896.54 1452.8 Q1899.5 1450.39 1904.64 1450.39 Q1909.8 1450.39 1912.74 1452.8 Q1915.68 1455.21 1915.68 1459.35 Q1915.68 1462.32 1913.99 1464.38 Q1912.33 1466.44 1909.34 1467.18 Q1912.72 1467.96 1914.59 1470.26 Q1916.49 1472.55 1916.49 1475.86 Q1916.49 1480.88 1913.41 1483.57 Q1910.36 1486.25 1904.64 1486.25 Q1898.92 1486.25 1895.84 1483.57 Q1892.79 1480.88 1892.79 1475.86 Q1892.79 1472.55 1894.69 1470.26 Q1896.58 1467.96 1899.96 1467.18 M1898.25 1459.79 Q1898.25 1462.48 1899.92 1463.98 Q1901.61 1465.49 1904.64 1465.49 Q1907.65 1465.49 1909.34 1463.98 Q1911.05 1462.48 1911.05 1459.79 Q1911.05 1457.11 1909.34 1455.6 Q1907.65 1454.1 1904.64 1454.1 Q1901.61 1454.1 1899.92 1455.6 Q1898.25 1457.11 1898.25 1459.79 Z" fill="#000000" fill-rule="nonzero" fill-opacity="1" /><path clip-path="url(#clip840)" d="M2327.44 1481.64 L2335.08 1481.64 L2335.08 1455.28 L2326.77 1456.95 L2326.77 1452.69 L2335.04 1451.02 L2339.71 1451.02 L2339.71 1481.64 L2347.35 1481.64 L2347.35 1485.58 L2327.44 1485.58 L2327.44 1481.64 Z" fill="#000000" fill-rule="nonzero" fill-opacity="1" /><path clip-path="url(#clip840)" d="M2366.8 1454.1 Q2363.18 1454.1 2361.36 1457.66 Q2359.55 1461.2 2359.55 1468.33 Q2359.55 1475.44 2361.36 1479.01 Q2363.18 1482.55 2366.8 1482.55 Q2370.43 1482.55 2372.23 1479.01 Q2374.06 1475.44 2374.06 1468.33 Q2374.06 1461.2 2372.23 1457.66 Q2370.43 1454.1 2366.8 1454.1 M2366.8 1450.39 Q2372.61 1450.39 2375.66 1455 Q2378.74 1459.58 2378.74 1468.33 Q2378.74 1477.06 2375.66 1481.67 Q2372.61 1486.25 2366.8 1486.25 Q2360.99 1486.25 2357.91 1481.67 Q2354.85 1477.06 2354.85 1468.33 Q2354.85 1459.58 2357.91 1455 Q2360.99 1450.39 2366.8 1450.39 Z" fill="#000000" fill-rule="nonzero" fill-opacity="1" /><path clip-path="url(#clip840)" d="M1231.53 1522.27 L1231.53 1532.4 L1243.59 1532.4 L1243.59 1536.95 L1231.53 1536.95 L1231.53 1556.3 Q1231.53 1560.66 1232.71 1561.9 Q1233.91 1563.14 1237.58 1563.14 L1243.59 1563.14 L1243.59 1568.04 L1237.58 1568.04 Q1230.8 1568.04 1228.22 1565.53 Q1225.64 1562.98 1225.64 1556.3 L1225.64 1536.95 L1221.34 1536.95 L1221.34 1532.4 L1225.64 1532.4 L1225.64 1522.27 L1231.53 1522.27 Z" fill="#000000" fill-rule="nonzero" fill-opacity="1" /><polyline clip-path="url(#clip842)" style="stroke:#000000; stroke-linecap:round; stroke-linejoin:round; stroke-width:2; stroke-opacity:0.1; fill:none" points="112.177,1358.03 2352.76,1358.03 "/>
<polyline clip-path="url(#clip842)" style="stroke:#000000; stroke-linecap:round; stroke-linejoin:round; stroke-width:2; stroke-opacity:0.1; fill:none" points="112.177,1156.78 2352.76,1156.78 "/>
<polyline clip-path="url(#clip842)" style="stroke:#000000; stroke-linecap:round; stroke-linejoin:round; stroke-width:2; stroke-opacity:0.1; fill:none" points="112.177,955.536 2352.76,955.536 "/>
<polyline clip-path="url(#clip842)" style="stroke:#000000; stroke-linecap:round; stroke-linejoin:round; stroke-width:2; stroke-opacity:0.1; fill:none" points="112.177,754.288 2352.76,754.288 "/>
<polyline clip-path="url(#clip842)" style="stroke:#000000; stroke-linecap:round; stroke-linejoin:round; stroke-width:2; stroke-opacity:0.1; fill:none" points="112.177,553.04 2352.76,553.04 "/>
<polyline clip-path="url(#clip842)" style="stroke:#000000; stroke-linecap:round; stroke-linejoin:round; stroke-width:2; stroke-opacity:0.1; fill:none" points="112.177,351.793 2352.76,351.793 "/>
<polyline clip-path="url(#clip842)" style="stroke:#000000; stroke-linecap:round; stroke-linejoin:round; stroke-width:2; stroke-opacity:0.1; fill:none" points="112.177,150.545 2352.76,150.545 "/>
<polyline clip-path="url(#clip840)" style="stroke:#000000; stroke-linecap:round; stroke-linejoin:round; stroke-width:4; stroke-opacity:1; fill:none" points="112.177,1423.18 112.177,47.2441 "/>
<polyline clip-path="url(#clip840)" style="stroke:#000000; stroke-linecap:round; stroke-linejoin:round; stroke-width:4; stroke-opacity:1; fill:none" points="112.177,1358.03 131.075,1358.03 "/>
<polyline clip-path="url(#clip840)" style="stroke:#000000; stroke-linecap:round; stroke-linejoin:round; stroke-width:4; stroke-opacity:1; fill:none" points="112.177,1156.78 131.075,1156.78 "/>
<polyline clip-path="url(#clip840)" style="stroke:#000000; stroke-linecap:round; stroke-linejoin:round; stroke-width:4; stroke-opacity:1; fill:none" points="112.177,955.536 131.075,955.536 "/>
<polyline clip-path="url(#clip840)" style="stroke:#000000; stroke-linecap:round; stroke-linejoin:round; stroke-width:4; stroke-opacity:1; fill:none" points="112.177,754.288 131.075,754.288 "/>
<polyline clip-path="url(#clip840)" style="stroke:#000000; stroke-linecap:round; stroke-linejoin:round; stroke-width:4; stroke-opacity:1; fill:none" points="112.177,553.04 131.075,553.04 "/>
<polyline clip-path="url(#clip840)" style="stroke:#000000; stroke-linecap:round; stroke-linejoin:round; stroke-width:4; stroke-opacity:1; fill:none" points="112.177,351.793 131.075,351.793 "/>
<polyline clip-path="url(#clip840)" style="stroke:#000000; stroke-linecap:round; stroke-linejoin:round; stroke-width:4; stroke-opacity:1; fill:none" points="112.177,150.545 131.075,150.545 "/>
<path clip-path="url(#clip840)" d="M64.2328 1343.83 Q60.6217 1343.83 58.793 1347.4 Q56.9875 1350.94 56.9875 1358.07 Q56.9875 1365.17 58.793 1368.74 Q60.6217 1372.28 64.2328 1372.28 Q67.867 1372.28 69.6726 1368.74 Q71.5013 1365.17 71.5013 1358.07 Q71.5013 1350.94 69.6726 1347.4 Q67.867 1343.83 64.2328 1343.83 M64.2328 1340.13 Q70.0429 1340.13 73.0985 1344.73 Q76.1772 1349.32 76.1772 1358.07 Q76.1772 1366.79 73.0985 1371.4 Q70.0429 1375.98 64.2328 1375.98 Q58.4226 1375.98 55.344 1371.4 Q52.2884 1366.79 52.2884 1358.07 Q52.2884 1349.32 55.344 1344.73 Q58.4226 1340.13 64.2328 1340.13 Z" fill="#000000" fill-rule="nonzero" fill-opacity="1" /><path clip-path="url(#clip840)" d="M56.2699 1170.13 L63.9087 1170.13 L63.9087 1143.76 L55.5986 1145.43 L55.5986 1141.17 L63.8624 1139.5 L68.5383 1139.5 L68.5383 1170.13 L76.1772 1170.13 L76.1772 1174.06 L56.2699 1174.06 L56.2699 1170.13 Z" fill="#000000" fill-rule="nonzero" fill-opacity="1" /><path clip-path="url(#clip840)" d="M59.8578 968.881 L76.1772 968.881 L76.1772 972.816 L54.2328 972.816 L54.2328 968.881 Q56.8949 966.127 61.4782 961.497 Q66.0846 956.844 67.2652 955.502 Q69.5105 952.979 70.3902 951.242 Q71.2929 949.483 71.2929 947.793 Q71.2929 945.039 69.3485 943.303 Q67.4272 941.567 64.3254 941.567 Q62.1263 941.567 59.6726 942.33 Q57.2421 943.094 54.4643 944.645 L54.4643 939.923 Q57.2884 938.789 59.7421 938.21 Q62.1958 937.631 64.2328 937.631 Q69.6031 937.631 72.7976 940.317 Q75.992 943.002 75.992 947.492 Q75.992 949.622 75.1818 951.543 Q74.3948 953.441 72.2883 956.034 Q71.7096 956.705 68.6078 959.923 Q65.5059 963.117 59.8578 968.881 Z" fill="#000000" fill-rule="nonzero" fill-opacity="1" /><path clip-path="url(#clip840)" d="M69.0476 752.934 Q72.404 753.652 74.279 755.92 Q76.1772 758.189 76.1772 761.522 Q76.1772 766.638 72.6587 769.439 Q69.1402 772.24 62.6587 772.24 Q60.4828 772.24 58.168 771.8 Q55.8764 771.383 53.4227 770.527 L53.4227 766.013 Q55.3671 767.147 57.6819 767.726 Q59.9967 768.305 62.5198 768.305 Q66.918 768.305 69.2096 766.568 Q71.5244 764.832 71.5244 761.522 Q71.5244 758.467 69.3717 756.754 Q67.242 755.018 63.4226 755.018 L59.3949 755.018 L59.3949 751.175 L63.6078 751.175 Q67.0569 751.175 68.8855 749.809 Q70.7142 748.42 70.7142 745.828 Q70.7142 743.166 68.8161 741.754 Q66.9411 740.319 63.4226 740.319 Q61.5013 740.319 59.3023 740.735 Q57.1032 741.152 54.4643 742.032 L54.4643 737.865 Q57.1264 737.124 59.4412 736.754 Q61.7791 736.383 63.8393 736.383 Q69.1633 736.383 72.2652 738.814 Q75.367 741.221 75.367 745.342 Q75.367 748.212 73.7235 750.203 Q72.08 752.17 69.0476 752.934 Z" fill="#000000" fill-rule="nonzero" fill-opacity="1" /><path clip-path="url(#clip840)" d="M66.5939 539.835 L54.7884 558.283 L66.5939 558.283 L66.5939 539.835 M65.367 535.76 L71.2466 535.76 L71.2466 558.283 L76.1772 558.283 L76.1772 562.172 L71.2466 562.172 L71.2466 570.32 L66.5939 570.32 L66.5939 562.172 L50.9921 562.172 L50.9921 557.658 L65.367 535.76 Z" fill="#000000" fill-rule="nonzero" fill-opacity="1" /><path clip-path="url(#clip840)" d="M55.2745 334.513 L73.6309 334.513 L73.6309 338.448 L59.5569 338.448 L59.5569 346.92 Q60.5754 346.573 61.5939 346.411 Q62.6124 346.225 63.6309 346.225 Q69.418 346.225 72.7976 349.397 Q76.1772 352.568 76.1772 357.985 Q76.1772 363.563 72.705 366.665 Q69.2328 369.744 62.9134 369.744 Q60.7374 369.744 58.4689 369.373 Q56.2236 369.003 53.8162 368.262 L53.8162 363.563 Q55.8995 364.698 58.1217 365.253 Q60.3439 365.809 62.8208 365.809 Q66.8254 365.809 69.1633 363.702 Q71.5013 361.596 71.5013 357.985 Q71.5013 354.374 69.1633 352.267 Q66.8254 350.161 62.8208 350.161 Q60.9458 350.161 59.0708 350.577 Q57.2189 350.994 55.2745 351.874 L55.2745 334.513 Z" fill="#000000" fill-rule="nonzero" fill-opacity="1" /><path clip-path="url(#clip840)" d="M64.6495 148.681 Q61.5013 148.681 59.6495 150.834 Q57.8208 152.987 57.8208 156.737 Q57.8208 160.463 59.6495 162.639 Q61.5013 164.792 64.6495 164.792 Q67.7976 164.792 69.6263 162.639 Q71.4781 160.463 71.4781 156.737 Q71.4781 152.987 69.6263 150.834 Q67.7976 148.681 64.6495 148.681 M73.9318 134.028 L73.9318 138.288 Q72.1726 137.454 70.367 137.015 Q68.5846 136.575 66.8254 136.575 Q62.1958 136.575 59.7421 139.7 Q57.3115 142.825 56.9643 149.144 Q58.33 147.13 60.3902 146.065 Q62.4504 144.977 64.9272 144.977 Q70.1355 144.977 73.1448 148.149 Q76.1772 151.297 76.1772 156.737 Q76.1772 162.061 73.029 165.278 Q69.8809 168.496 64.6495 168.496 Q58.6541 168.496 55.4828 163.913 Q52.3116 159.306 52.3116 150.579 Q52.3116 142.385 56.2004 137.524 Q60.0893 132.64 66.6402 132.64 Q68.3994 132.64 70.1818 132.987 Q71.9874 133.334 73.9318 134.028 Z" fill="#000000" fill-rule="nonzero" fill-opacity="1" /><polyline clip-path="url(#clip842)" style="stroke:#009af9; stroke-linecap:round; stroke-linejoin:round; stroke-width:4; stroke-opacity:1; fill:none" points="112.177,1384.24 336.235,256.408 560.293,86.1857 784.351,104.717 1008.41,158.371 1232.47,216.551 1456.52,273.265 1680.58,327.431 1904.64,378.947 2128.7,427.898 2352.76,474.404 "/>
<polyline clip-path="url(#clip842)" style="stroke:#e26f46; stroke-linecap:round; stroke-linejoin:round; stroke-width:4; stroke-opacity:1; fill:none" points="112.177,1176.34 336.235,1321.69 560.293,1350.76 784.351,1356.58 1008.41,1357.74 1232.47,1357.97 1456.52,1358.02 1680.58,1358.03 1904.64,1358.03 2128.7,1358.03 2352.76,1358.03 "/>
<path clip-path="url(#clip840)" d="M1946.33 248.629 L2278.07 248.629 L2278.07 93.1086 L1946.33 93.1086  Z" fill="#ffffff" fill-rule="evenodd" fill-opacity="1"/>
<polyline clip-path="url(#clip840)" style="stroke:#000000; stroke-linecap:round; stroke-linejoin:round; stroke-width:4; stroke-opacity:1; fill:none" points="1946.33,248.629 2278.07,248.629 2278.07,93.1086 1946.33,93.1086 1946.33,248.629 "/>
<polyline clip-path="url(#clip840)" style="stroke:#009af9; stroke-linecap:round; stroke-linejoin:round; stroke-width:4; stroke-opacity:1; fill:none" points="1971.22,144.949 2120.59,144.949 "/>
<path clip-path="url(#clip840)" d="M2145.49 151.997 L2145.49 136.303 L2149.75 136.303 L2149.75 151.835 Q2149.75 155.516 2151.18 157.368 Q2152.62 159.196 2155.49 159.196 Q2158.94 159.196 2160.93 156.997 Q2162.94 154.798 2162.94 151.002 L2162.94 136.303 L2167.2 136.303 L2167.2 162.229 L2162.94 162.229 L2162.94 158.247 Q2161.39 160.608 2159.33 161.766 Q2157.3 162.9 2154.59 162.9 Q2150.12 162.9 2147.8 160.122 Q2145.49 157.344 2145.49 151.997 M2156.21 135.678 L2156.21 135.678 Z" fill="#000000" fill-rule="nonzero" fill-opacity="1" /><path clip-path="url(#clip840)" d="M2177.39 158.293 L2185.03 158.293 L2185.03 131.928 L2176.72 133.595 L2176.72 129.335 L2184.98 127.669 L2189.66 127.669 L2189.66 158.293 L2197.3 158.293 L2197.3 162.229 L2177.39 162.229 L2177.39 158.293 Z" fill="#000000" fill-rule="nonzero" fill-opacity="1" /><path clip-path="url(#clip840)" d="M2216.37 126.257 Q2213.27 131.581 2211.76 136.789 Q2210.26 141.997 2210.26 147.344 Q2210.26 152.692 2211.76 157.946 Q2213.29 163.178 2216.37 168.479 L2212.67 168.479 Q2209.19 163.039 2207.46 157.784 Q2205.74 152.53 2205.74 147.344 Q2205.74 142.182 2207.46 136.951 Q2209.17 131.72 2212.67 126.257 L2216.37 126.257 Z" fill="#000000" fill-rule="nonzero" fill-opacity="1" /><path clip-path="url(#clip840)" d="M2228.85 128.942 L2228.85 136.303 L2237.62 136.303 L2237.62 139.613 L2228.85 139.613 L2228.85 153.687 Q2228.85 156.858 2229.7 157.761 Q2230.58 158.664 2233.24 158.664 L2237.62 158.664 L2237.62 162.229 L2233.24 162.229 Q2228.31 162.229 2226.44 160.4 Q2224.56 158.548 2224.56 153.687 L2224.56 139.613 L2221.44 139.613 L2221.44 136.303 L2224.56 136.303 L2224.56 128.942 L2228.85 128.942 Z" fill="#000000" fill-rule="nonzero" fill-opacity="1" /><path clip-path="url(#clip840)" d="M2242.55 126.257 L2246.25 126.257 Q2249.73 131.72 2251.44 136.951 Q2253.17 142.182 2253.17 147.344 Q2253.17 152.53 2251.44 157.784 Q2249.73 163.039 2246.25 168.479 L2242.55 168.479 Q2245.63 163.178 2247.13 157.946 Q2248.66 152.692 2248.66 147.344 Q2248.66 141.997 2247.13 136.789 Q2245.63 131.581 2242.55 126.257 Z" fill="#000000" fill-rule="nonzero" fill-opacity="1" /><polyline clip-path="url(#clip840)" style="stroke:#e26f46; stroke-linecap:round; stroke-linejoin:round; stroke-width:4; stroke-opacity:1; fill:none" points="1971.22,196.789 2120.59,196.789 "/>
<path clip-path="url(#clip840)" d="M2145.49 203.837 L2145.49 188.143 L2149.75 188.143 L2149.75 203.675 Q2149.75 207.356 2151.18 209.208 Q2152.62 211.036 2155.49 211.036 Q2158.94 211.036 2160.93 208.837 Q2162.94 206.638 2162.94 202.842 L2162.94 188.143 L2167.2 188.143 L2167.2 214.069 L2162.94 214.069 L2162.94 210.087 Q2161.39 212.448 2159.33 213.606 Q2157.3 214.74 2154.59 214.74 Q2150.12 214.74 2147.8 211.962 Q2145.49 209.184 2145.49 203.837 M2156.21 187.518 L2156.21 187.518 Z" fill="#000000" fill-rule="nonzero" fill-opacity="1" /><path clip-path="url(#clip840)" d="M2180.61 210.133 L2196.92 210.133 L2196.92 214.069 L2174.98 214.069 L2174.98 210.133 Q2177.64 207.379 2182.23 202.749 Q2186.83 198.096 2188.01 196.754 Q2190.26 194.231 2191.14 192.495 Q2192.04 190.735 2192.04 189.046 Q2192.04 186.291 2190.1 184.555 Q2188.17 182.819 2185.07 182.819 Q2182.87 182.819 2180.42 183.583 Q2177.99 184.347 2175.21 185.897 L2175.21 181.175 Q2178.04 180.041 2180.49 179.462 Q2182.94 178.884 2184.98 178.884 Q2190.35 178.884 2193.55 181.569 Q2196.74 184.254 2196.74 188.745 Q2196.74 190.874 2195.93 192.796 Q2195.14 194.694 2193.04 197.286 Q2192.46 197.958 2189.36 201.175 Q2186.25 204.37 2180.61 210.133 Z" fill="#000000" fill-rule="nonzero" fill-opacity="1" /><path clip-path="url(#clip840)" d="M2216.37 178.097 Q2213.27 183.421 2211.76 188.629 Q2210.26 193.837 2210.26 199.184 Q2210.26 204.532 2211.76 209.786 Q2213.29 215.018 2216.37 220.319 L2212.67 220.319 Q2209.19 214.879 2207.46 209.624 Q2205.74 204.37 2205.74 199.184 Q2205.74 194.022 2207.46 188.791 Q2209.17 183.56 2212.67 178.097 L2216.37 178.097 Z" fill="#000000" fill-rule="nonzero" fill-opacity="1" /><path clip-path="url(#clip840)" d="M2228.85 180.782 L2228.85 188.143 L2237.62 188.143 L2237.62 191.453 L2228.85 191.453 L2228.85 205.527 Q2228.85 208.698 2229.7 209.601 Q2230.58 210.504 2233.24 210.504 L2237.62 210.504 L2237.62 214.069 L2233.24 214.069 Q2228.31 214.069 2226.44 212.24 Q2224.56 210.388 2224.56 205.527 L2224.56 191.453 L2221.44 191.453 L2221.44 188.143 L2224.56 188.143 L2224.56 180.782 L2228.85 180.782 Z" fill="#000000" fill-rule="nonzero" fill-opacity="1" /><path clip-path="url(#clip840)" d="M2242.55 178.097 L2246.25 178.097 Q2249.73 183.56 2251.44 188.791 Q2253.17 194.022 2253.17 199.184 Q2253.17 204.37 2251.44 209.624 Q2249.73 214.879 2246.25 220.319 L2242.55 220.319 Q2245.63 215.018 2247.13 209.786 Q2248.66 204.532 2248.66 199.184 Q2248.66 193.837 2247.13 188.629 Q2245.63 183.421 2242.55 178.097 Z" fill="#000000" fill-rule="nonzero" fill-opacity="1" /></svg>
