<?xml version="1.0" encoding="utf-8"?>
<svg xmlns="http://www.w3.org/2000/svg" xmlns:xlink="http://www.w3.org/1999/xlink" width="600" height="400" viewBox="0 0 2400 1600">
<defs>
  <clipPath id="clip720">
    <rect x="0" y="0" width="2400" height="1600"/>
  </clipPath>
</defs>
<path clip-path="url(#clip720)" d="M0 1600 L2400 1600 L2400 0 L0 0  Z" fill="#ffffff" fill-rule="evenodd" fill-opacity="1"/>
<defs>
  <clipPath id="clip721">
    <rect x="480" y="0" width="1681" height="1600"/>
  </clipPath>
</defs>
<path clip-path="url(#clip720)" d="M223.103 1423.18 L2352.76 1423.18 L2352.76 47.2441 L223.103 47.2441  Z" fill="#ffffff" fill-rule="evenodd" fill-opacity="1"/>
<defs>
  <clipPath id="clip722">
    <rect x="223" y="47" width="2131" height="1377"/>
  </clipPath>
</defs>
<polyline clip-path="url(#clip722)" style="stroke:#000000; stroke-linecap:round; stroke-linejoin:round; stroke-width:2; stroke-opacity:0.1; fill:none" points="223.103,1423.18 223.103,47.2441 "/>
<polyline clip-path="url(#clip722)" style="stroke:#000000; stroke-linecap:round; stroke-linejoin:round; stroke-width:2; stroke-opacity:0.1; fill:none" points="649.033,1423.18 649.033,47.2441 "/>
<polyline clip-path="url(#clip722)" style="stroke:#000000; stroke-linecap:round; stroke-linejoin:round; stroke-width:2; stroke-opacity:0.1; fill:none" points="1074.96,1423.18 1074.96,47.2441 "/>
<polyline clip-path="url(#clip722)" style="stroke:#000000; stroke-linecap:round; stroke-linejoin:round; stroke-width:2; stroke-opacity:0.1; fill:none" points="1500.89,1423.18 1500.89,47.2441 "/>
<polyline clip-path="url(#clip722)" style="stroke:#000000; stroke-linecap:round; stroke-linejoin:round; stroke-width:2; stroke-opacity:0.1; fill:none" points="1926.83,1423.18 1926.83,47.2441 "/>
<polyline clip-path="url(#clip722)" style="stroke:#000000; stroke-linecap:round; stroke-linejoin:round; stroke-width:2; stroke-opacity:0.1; fill:none" points="2352.76,1423.18 2352.76,47.2441 "/>
<polyline clip-path="url(#clip720)" style="stroke:#000000; stroke-linecap:round; stroke-linejoin:round; stroke-width:4; stroke-opacity:1; fill:none" points="223.103,1423.18 2352.76,1423.18 "/>
<polyline clip-path="url(#clip720)" style="stroke:#000000; stroke-linecap:round; stroke-linejoin:round; stroke-width:4; stroke-opacity:1; fill:none" points="223.103,1423.18 223.103,1404.28 "/>
<polyline clip-path="url(#clip720)" style="stroke:#000000; stroke-linecap:round; stroke-linejoin:round; stroke-width:4; stroke-opacity:1; fill:none" points="649.033,1423.18 649.033,1404.28 "/>
<polyline clip-path="url(#clip720)" style="stroke:#000000; stroke-linecap:round; stroke-linejoin:round; stroke-width:4; stroke-opacity:1; fill:none" points="1074.96,1423.18 1074.96,1404.28 "/>
<polyline clip-path="url(#clip720)" style="stroke:#000000; stroke-linecap:round; stroke-linejoin:round; stroke-width:4; stroke-opacity:1; fill:none" points="1500.89,1423.18 1500.89,1404.28 "/>
<polyline clip-path="url(#clip720)" style="stroke:#000000; stroke-linecap:round; stroke-linejoin:round; stroke-width:4; stroke-opacity:1; fill:none" points="1926.83,1423.18 1926.83,1404.28 "/>
<polyline clip-path="url(#clip720)" style="stroke:#000000; stroke-linecap:round; stroke-linejoin:round; stroke-width:4; stroke-opacity:1; fill:none" points="2352.76,1423.18 2352.76,1404.28 "/>
<path clip-path="url(#clip720)" d="M223.103 1454.1 Q219.491 1454.1 217.663 1457.66 Q215.857 1461.2 215.857 1468.33 Q215.857 1475.44 217.663 1479.01 Q219.491 1482.55 223.103 1482.55 Q226.737 1482.55 228.542 1479.01 Q230.371 1475.44 230.371 1468.33 Q230.371 1461.2 228.542 1457.66 Q226.737 1454.1 223.103 1454.1 M223.103 1450.39 Q228.913 1450.39 231.968 1455 Q235.047 1459.58 235.047 1468.33 Q235.047 1477.06 231.968 1481.67 Q228.913 1486.25 223.103 1486.25 Q217.292 1486.25 214.214 1481.67 Q211.158 1477.06 211.158 1468.33 Q211.158 1459.58 214.214 1455 Q217.292 1450.39 223.103 1450.39 Z" fill="#000000" fill-rule="nonzero" fill-opacity="1" /><path clip-path="url(#clip720)" d="M643.686 1481.64 L660.005 1481.64 L660.005 1485.58 L638.061 1485.58 L638.061 1481.64 Q640.723 1478.89 645.306 1474.26 Q649.913 1469.61 651.093 1468.27 Q653.339 1465.74 654.218 1464.01 Q655.121 1462.25 655.121 1460.56 Q655.121 1457.8 653.177 1456.07 Q651.255 1454.33 648.154 1454.33 Q645.955 1454.33 643.501 1455.09 Q641.07 1455.86 638.293 1457.41 L638.293 1452.69 Q641.117 1451.55 643.57 1450.97 Q646.024 1450.39 648.061 1450.39 Q653.431 1450.39 656.626 1453.08 Q659.82 1455.77 659.82 1460.26 Q659.82 1462.39 659.01 1464.31 Q658.223 1466.2 656.116 1468.8 Q655.538 1469.47 652.436 1472.69 Q649.334 1475.88 643.686 1481.64 Z" fill="#000000" fill-rule="nonzero" fill-opacity="1" /><path clip-path="url(#clip720)" d="M1077.97 1455.09 L1066.17 1473.54 L1077.97 1473.54 L1077.97 1455.09 M1076.75 1451.02 L1082.63 1451.02 L1082.63 1473.54 L1087.56 1473.54 L1087.56 1477.43 L1082.63 1477.43 L1082.63 1485.58 L1077.97 1485.58 L1077.97 1477.43 L1062.37 1477.43 L1062.37 1472.92 L1076.75 1451.02 Z" fill="#000000" fill-rule="nonzero" fill-opacity="1" /><path clip-path="url(#clip720)" d="M1501.3 1466.44 Q1498.15 1466.44 1496.3 1468.59 Q1494.47 1470.74 1494.47 1474.49 Q1494.47 1478.22 1496.3 1480.39 Q1498.15 1482.55 1501.3 1482.55 Q1504.45 1482.55 1506.28 1480.39 Q1508.13 1478.22 1508.13 1474.49 Q1508.13 1470.74 1506.28 1468.59 Q1504.45 1466.44 1501.3 1466.44 M1510.58 1451.78 L1510.58 1456.04 Q1508.82 1455.21 1507.02 1454.77 Q1505.23 1454.33 1503.48 1454.33 Q1498.85 1454.33 1496.39 1457.45 Q1493.96 1460.58 1493.61 1466.9 Q1494.98 1464.89 1497.04 1463.82 Q1499.1 1462.73 1501.58 1462.73 Q1506.79 1462.73 1509.79 1465.9 Q1512.83 1469.05 1512.83 1474.49 Q1512.83 1479.82 1509.68 1483.03 Q1506.53 1486.25 1501.3 1486.25 Q1495.3 1486.25 1492.13 1481.67 Q1488.96 1477.06 1488.96 1468.33 Q1488.96 1460.14 1492.85 1455.28 Q1496.74 1450.39 1503.29 1450.39 Q1505.05 1450.39 1506.83 1450.74 Q1508.64 1451.09 1510.58 1451.78 Z" fill="#000000" fill-rule="nonzero" fill-opacity="1" /><path clip-path="url(#clip720)" d="M1926.83 1469.17 Q1923.49 1469.17 1921.57 1470.95 Q1919.67 1472.73 1919.67 1475.86 Q1919.67 1478.98 1921.57 1480.77 Q1923.49 1482.55 1926.83 1482.55 Q1930.16 1482.55 1932.08 1480.77 Q1934 1478.96 1934 1475.86 Q1934 1472.73 1932.08 1470.95 Q1930.18 1469.17 1926.83 1469.17 M1922.15 1467.18 Q1919.14 1466.44 1917.45 1464.38 Q1915.78 1462.32 1915.78 1459.35 Q1915.78 1455.21 1918.72 1452.8 Q1921.69 1450.39 1926.83 1450.39 Q1931.99 1450.39 1934.93 1452.8 Q1937.87 1455.21 1937.87 1459.35 Q1937.87 1462.32 1936.18 1464.38 Q1934.51 1466.44 1931.52 1467.18 Q1934.9 1467.96 1936.78 1470.26 Q1938.68 1472.55 1938.68 1475.86 Q1938.68 1480.88 1935.6 1483.57 Q1932.54 1486.25 1926.83 1486.25 Q1921.11 1486.25 1918.03 1483.57 Q1914.97 1480.88 1914.97 1475.86 Q1914.97 1472.55 1916.87 1470.26 Q1918.77 1467.96 1922.15 1467.18 M1920.44 1459.79 Q1920.44 1462.48 1922.1 1463.98 Q1923.79 1465.49 1926.83 1465.49 Q1929.83 1465.49 1931.52 1463.98 Q1933.24 1462.48 1933.24 1459.79 Q1933.24 1457.11 1931.52 1455.6 Q1929.83 1454.1 1926.83 1454.1 Q1923.79 1454.1 1922.1 1455.6 Q1920.44 1457.11 1920.44 1459.79 Z" fill="#000000" fill-rule="nonzero" fill-opacity="1" /><path clip-path="url(#clip720)" d="M2327.44 1481.64 L2335.08 1481.64 L2335.08 1455.28 L2326.77 1456.95 L2326.77 1452.69 L2335.04 1451.02 L2339.71 1451.02 L2339.71 1481.64 L2347.35 1481.64 L2347.35 1485.58 L2327.44 1485.58 L2327.44 1481.64 Z" fill="#000000" fill-rule="nonzero" fill-opacity="1" /><path clip-path="url(#clip720)" d="M2366.8 1454.1 Q2363.18 1454.1 2361.36 1457.66 Q2359.55 1461.2 2359.55 1468.33 Q2359.55 1475.44 2361.36 1479.01 Q2363.18 1482.55 2366.8 1482.55 Q2370.43 1482.55 2372.23 1479.01 Q2374.06 1475.44 2374.06 1468.33 Q2374.06 1461.2 2372.23 1457.66 Q2370.43 1454.1 2366.8 1454.1 M2366.8 1450.39 Q2372.61 1450.39 2375.66 1455 Q2378.74 1459.58 2378.74 1468.33 Q2378.74 1477.06 2375.66 1481.67 Q2372.61 1486.25 2366.8 1486.25 Q2360.99 1486.25 2357.91 1481.67 Q2354.85 1477.06 2354.85 1468.33 Q2354.85 1459.58 2357.91 1455 Q2360.99 1450.39 2366.8 1450.39 Z" fill="#000000" fill-rule="nonzero" fill-opacity="1" /><path clip-path="url(#clip720)" d="M1286.99 1522.27 L1286.99 1532.4 L1299.05 1532.4 L1299.05 1536.95 L1286.99 1536.95 L1286.99 1556.3 Q1286.99 1560.66 1288.17 1561.9 Q1289.38 1563.14 1293.04 1563.14 L1299.05 1563.14 L1299.05 1568.04 L1293.04 1568.04 Q1286.26 1568.04 1283.68 1565.53 Q1281.1 1562.98 1281.1 1556.3 L1281.1 1536.95 L1276.81 1536.95 L1276.81 1532.4 L1281.1 1532.4 L1281.1 1522.27 L1286.99 1522.27 Z" fill="#000000" fill-rule="nonzero" fill-opacity="1" /><polyline clip-path="url(#clip722)" style="stroke:#000000; stroke-linecap:round; stroke-linejoin:round; stroke-width:2; stroke-opacity:0.1; fill:none" points="223.103,1273.04 2352.76,1273.04 "/>
<polyline clip-path="url(#clip722)" style="stroke:#000000; stroke-linecap:round; stroke-linejoin:round; stroke-width:2; stroke-opacity:0.1; fill:none" points="223.103,976.504 2352.76,976.504 "/>
<polyline clip-path="url(#clip722)" style="stroke:#000000; stroke-linecap:round; stroke-linejoin:round; stroke-width:2; stroke-opacity:0.1; fill:none" points="223.103,679.968 2352.76,679.968 "/>
<polyline clip-path="url(#clip722)" style="stroke:#000000; stroke-linecap:round; stroke-linejoin:round; stroke-width:2; stroke-opacity:0.1; fill:none" points="223.103,383.431 2352.76,383.431 "/>
<polyline clip-path="url(#clip722)" style="stroke:#000000; stroke-linecap:round; stroke-linejoin:round; stroke-width:2; stroke-opacity:0.1; fill:none" points="223.103,86.8946 2352.76,86.8946 "/>
<polyline clip-path="url(#clip720)" style="stroke:#000000; stroke-linecap:round; stroke-linejoin:round; stroke-width:4; stroke-opacity:1; fill:none" points="223.103,1423.18 223.103,47.2441 "/>
<polyline clip-path="url(#clip720)" style="stroke:#000000; stroke-linecap:round; stroke-linejoin:round; stroke-width:4; stroke-opacity:1; fill:none" points="223.103,1273.04 242,1273.04 "/>
<polyline clip-path="url(#clip720)" style="stroke:#000000; stroke-linecap:round; stroke-linejoin:round; stroke-width:4; stroke-opacity:1; fill:none" points="223.103,976.504 242,976.504 "/>
<polyline clip-path="url(#clip720)" style="stroke:#000000; stroke-linecap:round; stroke-linejoin:round; stroke-width:4; stroke-opacity:1; fill:none" points="223.103,679.968 242,679.968 "/>
<polyline clip-path="url(#clip720)" style="stroke:#000000; stroke-linecap:round; stroke-linejoin:round; stroke-width:4; stroke-opacity:1; fill:none" points="223.103,383.431 242,383.431 "/>
<polyline clip-path="url(#clip720)" style="stroke:#000000; stroke-linecap:round; stroke-linejoin:round; stroke-width:4; stroke-opacity:1; fill:none" points="223.103,86.8946 242,86.8946 "/>
<path clip-path="url(#clip720)" d="M50.9921 1273.49 L80.6679 1273.49 L80.6679 1277.43 L50.9921 1277.43 L50.9921 1273.49 Z" fill="#000000" fill-rule="nonzero" fill-opacity="1" /><path clip-path="url(#clip720)" d="M100.76 1258.84 Q97.1493 1258.84 95.3206 1262.4 Q93.515 1265.95 93.515 1273.08 Q93.515 1280.18 95.3206 1283.75 Q97.1493 1287.29 100.76 1287.29 Q104.395 1287.29 106.2 1283.75 Q108.029 1280.18 108.029 1273.08 Q108.029 1265.95 106.2 1262.4 Q104.395 1258.84 100.76 1258.84 M100.76 1255.14 Q106.571 1255.14 109.626 1259.74 Q112.705 1264.33 112.705 1273.08 Q112.705 1281.8 109.626 1286.41 Q106.571 1290.99 100.76 1290.99 Q94.9502 1290.99 91.8715 1286.41 Q88.816 1281.8 88.816 1273.08 Q88.816 1264.33 91.8715 1259.74 Q94.9502 1255.14 100.76 1255.14 Z" fill="#000000" fill-rule="nonzero" fill-opacity="1" /><path clip-path="url(#clip720)" d="M120.922 1284.44 L125.807 1284.44 L125.807 1290.32 L120.922 1290.32 L120.922 1284.44 Z" fill="#000000" fill-rule="nonzero" fill-opacity="1" /><path clip-path="url(#clip720)" d="M145.992 1258.84 Q142.381 1258.84 140.552 1262.4 Q138.746 1265.95 138.746 1273.08 Q138.746 1280.18 140.552 1283.75 Q142.381 1287.29 145.992 1287.29 Q149.626 1287.29 151.431 1283.75 Q153.26 1280.18 153.26 1273.08 Q153.26 1265.95 151.431 1262.4 Q149.626 1258.84 145.992 1258.84 M145.992 1255.14 Q151.802 1255.14 154.857 1259.74 Q157.936 1264.33 157.936 1273.08 Q157.936 1281.8 154.857 1286.41 Q151.802 1290.99 145.992 1290.99 Q140.181 1290.99 137.103 1286.41 Q134.047 1281.8 134.047 1273.08 Q134.047 1264.33 137.103 1259.74 Q140.181 1255.14 145.992 1255.14 Z" fill="#000000" fill-rule="nonzero" fill-opacity="1" /><path clip-path="url(#clip720)" d="M166.2 1255.76 L184.556 1255.76 L184.556 1259.7 L170.482 1259.7 L170.482 1268.17 Q171.501 1267.82 172.519 1267.66 Q173.538 1267.47 174.556 1267.47 Q180.343 1267.47 183.723 1270.64 Q187.103 1273.82 187.103 1279.23 Q187.103 1284.81 183.63 1287.91 Q180.158 1290.99 173.839 1290.99 Q171.663 1290.99 169.394 1290.62 Q167.149 1290.25 164.742 1289.51 L164.742 1284.81 Q166.825 1285.95 169.047 1286.5 Q171.269 1287.06 173.746 1287.06 Q177.751 1287.06 180.089 1284.95 Q182.427 1282.84 182.427 1279.23 Q182.427 1275.62 180.089 1273.52 Q177.751 1271.41 173.746 1271.41 Q171.871 1271.41 169.996 1271.83 Q168.144 1272.24 166.2 1273.12 L166.2 1255.76 Z" fill="#000000" fill-rule="nonzero" fill-opacity="1" /><path clip-path="url(#clip720)" d="M99.765 962.303 Q96.1539 962.303 94.3252 965.868 Q92.5197 969.409 92.5197 976.539 Q92.5197 983.645 94.3252 987.21 Q96.1539 990.752 99.765 990.752 Q103.399 990.752 105.205 987.21 Q107.033 983.645 107.033 976.539 Q107.033 969.409 105.205 965.868 Q103.399 962.303 99.765 962.303 M99.765 958.599 Q105.575 958.599 108.631 963.206 Q111.709 967.789 111.709 976.539 Q111.709 985.266 108.631 989.872 Q105.575 994.455 99.765 994.455 Q93.9549 994.455 90.8762 989.872 Q87.8206 985.266 87.8206 976.539 Q87.8206 967.789 90.8762 963.206 Q93.9549 958.599 99.765 958.599 Z" fill="#000000" fill-rule="nonzero" fill-opacity="1" /><path clip-path="url(#clip720)" d="M119.927 987.904 L124.811 987.904 L124.811 993.784 L119.927 993.784 L119.927 987.904 Z" fill="#000000" fill-rule="nonzero" fill-opacity="1" /><path clip-path="url(#clip720)" d="M144.996 962.303 Q141.385 962.303 139.556 965.868 Q137.751 969.409 137.751 976.539 Q137.751 983.645 139.556 987.21 Q141.385 990.752 144.996 990.752 Q148.63 990.752 150.436 987.21 Q152.265 983.645 152.265 976.539 Q152.265 969.409 150.436 965.868 Q148.63 962.303 144.996 962.303 M144.996 958.599 Q150.806 958.599 153.862 963.206 Q156.941 967.789 156.941 976.539 Q156.941 985.266 153.862 989.872 Q150.806 994.455 144.996 994.455 Q139.186 994.455 136.107 989.872 Q133.052 985.266 133.052 976.539 Q133.052 967.789 136.107 963.206 Q139.186 958.599 144.996 958.599 Z" fill="#000000" fill-rule="nonzero" fill-opacity="1" /><path clip-path="url(#clip720)" d="M175.158 962.303 Q171.547 962.303 169.718 965.868 Q167.913 969.409 167.913 976.539 Q167.913 983.645 169.718 987.21 Q171.547 990.752 175.158 990.752 Q178.792 990.752 180.598 987.21 Q182.427 983.645 182.427 976.539 Q182.427 969.409 180.598 965.868 Q178.792 962.303 175.158 962.303 M175.158 958.599 Q180.968 958.599 184.024 963.206 Q187.103 967.789 187.103 976.539 Q187.103 985.266 184.024 989.872 Q180.968 994.455 175.158 994.455 Q169.348 994.455 166.269 989.872 Q163.214 985.266 163.214 976.539 Q163.214 967.789 166.269 963.206 Q169.348 958.599 175.158 958.599 Z" fill="#000000" fill-rule="nonzero" fill-opacity="1" /><path clip-path="url(#clip720)" d="M100.76 665.766 Q97.1493 665.766 95.3206 669.331 Q93.515 672.873 93.515 680.002 Q93.515 687.109 95.3206 690.674 Q97.1493 694.215 100.76 694.215 Q104.395 694.215 106.2 690.674 Q108.029 687.109 108.029 680.002 Q108.029 672.873 106.2 669.331 Q104.395 665.766 100.76 665.766 M100.76 662.063 Q106.571 662.063 109.626 666.669 Q112.705 671.252 112.705 680.002 Q112.705 688.729 109.626 693.336 Q106.571 697.919 100.76 697.919 Q94.9502 697.919 91.8715 693.336 Q88.816 688.729 88.816 680.002 Q88.816 671.252 91.8715 666.669 Q94.9502 662.063 100.76 662.063 Z" fill="#000000" fill-rule="nonzero" fill-opacity="1" /><path clip-path="url(#clip720)" d="M120.922 691.368 L125.807 691.368 L125.807 697.248 L120.922 697.248 L120.922 691.368 Z" fill="#000000" fill-rule="nonzero" fill-opacity="1" /><path clip-path="url(#clip720)" d="M145.992 665.766 Q142.381 665.766 140.552 669.331 Q138.746 672.873 138.746 680.002 Q138.746 687.109 140.552 690.674 Q142.381 694.215 145.992 694.215 Q149.626 694.215 151.431 690.674 Q153.26 687.109 153.26 680.002 Q153.26 672.873 151.431 669.331 Q149.626 665.766 145.992 665.766 M145.992 662.063 Q151.802 662.063 154.857 666.669 Q157.936 671.252 157.936 680.002 Q157.936 688.729 154.857 693.336 Q151.802 697.919 145.992 697.919 Q140.181 697.919 137.103 693.336 Q134.047 688.729 134.047 680.002 Q134.047 671.252 137.103 666.669 Q140.181 662.063 145.992 662.063 Z" fill="#000000" fill-rule="nonzero" fill-opacity="1" /><path clip-path="url(#clip720)" d="M166.2 662.688 L184.556 662.688 L184.556 666.623 L170.482 666.623 L170.482 675.095 Q171.501 674.748 172.519 674.586 Q173.538 674.4 174.556 674.4 Q180.343 674.4 183.723 677.572 Q187.103 680.743 187.103 686.16 Q187.103 691.738 183.63 694.84 Q180.158 697.919 173.839 697.919 Q171.663 697.919 169.394 697.549 Q167.149 697.178 164.742 696.437 L164.742 691.738 Q166.825 692.873 169.047 693.428 Q171.269 693.984 173.746 693.984 Q177.751 693.984 180.089 691.877 Q182.427 689.771 182.427 686.16 Q182.427 682.549 180.089 680.442 Q177.751 678.336 173.746 678.336 Q171.871 678.336 169.996 678.752 Q168.144 679.169 166.2 680.049 L166.2 662.688 Z" fill="#000000" fill-rule="nonzero" fill-opacity="1" /><path clip-path="url(#clip720)" d="M99.765 369.23 Q96.1539 369.23 94.3252 372.795 Q92.5197 376.336 92.5197 383.466 Q92.5197 390.572 94.3252 394.137 Q96.1539 397.679 99.765 397.679 Q103.399 397.679 105.205 394.137 Q107.033 390.572 107.033 383.466 Q107.033 376.336 105.205 372.795 Q103.399 369.23 99.765 369.23 M99.765 365.526 Q105.575 365.526 108.631 370.133 Q111.709 374.716 111.709 383.466 Q111.709 392.193 108.631 396.799 Q105.575 401.382 99.765 401.382 Q93.9549 401.382 90.8762 396.799 Q87.8206 392.193 87.8206 383.466 Q87.8206 374.716 90.8762 370.133 Q93.9549 365.526 99.765 365.526 Z" fill="#000000" fill-rule="nonzero" fill-opacity="1" /><path clip-path="url(#clip720)" d="M119.927 394.831 L124.811 394.831 L124.811 400.711 L119.927 400.711 L119.927 394.831 Z" fill="#000000" fill-rule="nonzero" fill-opacity="1" /><path clip-path="url(#clip720)" d="M135.806 396.776 L143.445 396.776 L143.445 370.41 L135.135 372.077 L135.135 367.818 L143.399 366.151 L148.075 366.151 L148.075 396.776 L155.714 396.776 L155.714 400.711 L135.806 400.711 L135.806 396.776 Z" fill="#000000" fill-rule="nonzero" fill-opacity="1" /><path clip-path="url(#clip720)" d="M175.158 369.23 Q171.547 369.23 169.718 372.795 Q167.913 376.336 167.913 383.466 Q167.913 390.572 169.718 394.137 Q171.547 397.679 175.158 397.679 Q178.792 397.679 180.598 394.137 Q182.427 390.572 182.427 383.466 Q182.427 376.336 180.598 372.795 Q178.792 369.23 175.158 369.23 M175.158 365.526 Q180.968 365.526 184.024 370.133 Q187.103 374.716 187.103 383.466 Q187.103 392.193 184.024 396.799 Q180.968 401.382 175.158 401.382 Q169.348 401.382 166.269 396.799 Q163.214 392.193 163.214 383.466 Q163.214 374.716 166.269 370.133 Q169.348 365.526 175.158 365.526 Z" fill="#000000" fill-rule="nonzero" fill-opacity="1" /><path clip-path="url(#clip720)" d="M100.76 72.6933 Q97.1493 72.6933 95.3206 76.258 Q93.515 79.7997 93.515 86.9293 Q93.515 94.0357 95.3206 97.6005 Q97.1493 101.142 100.76 101.142 Q104.395 101.142 106.2 97.6005 Q108.029 94.0357 108.029 86.9293 Q108.029 79.7997 106.2 76.258 Q104.395 72.6933 100.76 72.6933 M100.76 68.9896 Q106.571 68.9896 109.626 73.596 Q112.705 78.1793 112.705 86.9293 Q112.705 95.6561 109.626 100.263 Q106.571 104.846 100.76 104.846 Q94.9502 104.846 91.8715 100.263 Q88.816 95.6561 88.816 86.9293 Q88.816 78.1793 91.8715 73.596 Q94.9502 68.9896 100.76 68.9896 Z" fill="#000000" fill-rule="nonzero" fill-opacity="1" /><path clip-path="url(#clip720)" d="M120.922 98.295 L125.807 98.295 L125.807 104.175 L120.922 104.175 L120.922 98.295 Z" fill="#000000" fill-rule="nonzero" fill-opacity="1" /><path clip-path="url(#clip720)" d="M136.802 100.239 L144.441 100.239 L144.441 73.8738 L136.131 75.5405 L136.131 71.2812 L144.394 69.6146 L149.07 69.6146 L149.07 100.239 L156.709 100.239 L156.709 104.175 L136.802 104.175 L136.802 100.239 Z" fill="#000000" fill-rule="nonzero" fill-opacity="1" /><path clip-path="url(#clip720)" d="M166.2 69.6146 L184.556 69.6146 L184.556 73.5497 L170.482 73.5497 L170.482 82.0219 Q171.501 81.6747 172.519 81.5126 Q173.538 81.3275 174.556 81.3275 Q180.343 81.3275 183.723 84.4987 Q187.103 87.67 187.103 93.0867 Q187.103 98.6653 183.63 101.767 Q180.158 104.846 173.839 104.846 Q171.663 104.846 169.394 104.475 Q167.149 104.105 164.742 103.364 L164.742 98.6653 Q166.825 99.7996 169.047 100.355 Q171.269 100.911 173.746 100.911 Q177.751 100.911 180.089 98.8042 Q182.427 96.6978 182.427 93.0867 Q182.427 89.4756 180.089 87.3691 Q177.751 85.2626 173.746 85.2626 Q171.871 85.2626 169.996 85.6793 Q168.144 86.096 166.2 86.9756 L166.2 69.6146 Z" fill="#000000" fill-rule="nonzero" fill-opacity="1" /><polyline clip-path="url(#clip722)" style="stroke:#009af9; stroke-linecap:round; stroke-linejoin:round; stroke-width:4; stroke-opacity:1; fill:none" points="223.103,383.431 436.068,413.085 649.033,86.1857 861.999,611.095 1074.96,1103.26 1287.93,956.783 1500.89,533.233 1713.86,581.004 1926.83,593.438 2139.79,817.392 2352.76,1384.24 "/>
<polyline clip-path="url(#clip722)" style="stroke:#e26f46; stroke-linecap:round; stroke-linejoin:round; stroke-width:4; stroke-opacity:1; fill:none" points="223.103,976.504 436.068,919.235 649.033,1053.99 861.999,1052.94 1074.96,953.901 1287.93,908.031 1500.89,980.634 1713.86,975.32 1926.83,1009.54 2139.79,1066.65 2352.76,1034.7 "/>
<path clip-path="url(#clip720)" d="M2045.61 248.629 L2281.77 248.629 L2281.77 93.1086 L2045.61 93.1086  Z" fill="#ffffff" fill-rule="evenodd" fill-opacity="1"/>
<polyline clip-path="url(#clip720)" style="stroke:#000000; stroke-linecap:round; stroke-linejoin:round; stroke-width:4; stroke-opacity:1; fill:none" points="2045.61,248.629 2281.77,248.629 2281.77,93.1086 2045.61,93.1086 2045.61,248.629 "/>
<polyline clip-path="url(#clip720)" style="stroke:#009af9; stroke-linecap:round; stroke-linejoin:round; stroke-width:4; stroke-opacity:1; fill:none" points="2069.27,144.949 2211.25,144.949 "/>
<path clip-path="url(#clip720)" d="M2248.31 149.196 Q2243.15 149.196 2241.16 150.377 Q2239.17 151.557 2239.17 154.405 Q2239.17 156.673 2240.65 158.016 Q2242.16 159.335 2244.73 159.335 Q2248.27 159.335 2250.4 156.835 Q2252.55 154.312 2252.55 150.145 L2252.55 149.196 L2248.31 149.196 M2256.81 147.437 L2256.81 162.229 L2252.55 162.229 L2252.55 158.293 Q2251.09 160.655 2248.91 161.789 Q2246.74 162.9 2243.59 162.9 Q2239.61 162.9 2237.25 160.678 Q2234.91 158.432 2234.91 154.682 Q2234.91 150.307 2237.83 148.085 Q2240.77 145.863 2246.58 145.863 L2252.55 145.863 L2252.55 145.446 Q2252.55 142.507 2250.6 140.909 Q2248.68 139.289 2245.19 139.289 Q2242.97 139.289 2240.86 139.821 Q2238.75 140.354 2236.81 141.419 L2236.81 137.483 Q2239.15 136.581 2241.35 136.141 Q2243.54 135.678 2245.63 135.678 Q2251.25 135.678 2254.03 138.594 Q2256.81 141.511 2256.81 147.437 Z" fill="#000000" fill-rule="nonzero" fill-opacity="1" /><polyline clip-path="url(#clip720)" style="stroke:#e26f46; stroke-linecap:round; stroke-linejoin:round; stroke-width:4; stroke-opacity:1; fill:none" points="2069.27,196.789 2211.25,196.789 "/>
<path clip-path="url(#clip720)" d="M2253.68 201.129 Q2253.68 196.43 2251.74 193.768 Q2249.82 191.083 2246.44 191.083 Q2243.06 191.083 2241.11 193.768 Q2239.19 196.43 2239.19 201.129 Q2239.19 205.828 2241.11 208.513 Q2243.06 211.175 2246.44 211.175 Q2249.82 211.175 2251.74 208.513 Q2253.68 205.828 2253.68 201.129 M2239.19 192.078 Q2240.54 189.763 2242.57 188.652 Q2244.63 187.518 2247.48 187.518 Q2252.2 187.518 2255.14 191.268 Q2258.1 195.018 2258.1 201.129 Q2258.1 207.24 2255.14 210.99 Q2252.2 214.74 2247.48 214.74 Q2244.63 214.74 2242.57 213.629 Q2240.54 212.495 2239.19 210.18 L2239.19 214.069 L2234.91 214.069 L2234.91 178.05 L2239.19 178.05 L2239.19 192.078 Z" fill="#000000" fill-rule="nonzero" fill-opacity="1" /></svg>
