<?xml version="1.0" encoding="utf-8"?>
<svg xmlns="http://www.w3.org/2000/svg" xmlns:xlink="http://www.w3.org/1999/xlink" width="600" height="400" viewBox="0 0 2400 1600">
<defs>
  <clipPath id="clip690">
    <rect x="0" y="0" width="2400" height="1600"/>
  </clipPath>
</defs>
<path clip-path="url(#clip690)" d="M0 1600 L2400 1600 L2400 0 L0 0  Z" fill="#ffffff" fill-rule="evenodd" fill-opacity="1"/>
<defs>
  <clipPath id="clip691">
    <rect x="480" y="0" width="1681" height="1600"/>
  </clipPath>
</defs>
<path clip-path="url(#clip690)" d="M149.191 1423.18 L2352.76 1423.18 L2352.76 47.2441 L149.191 47.2441  Z" fill="#ffffff" fill-rule="evenodd" fill-opacity="1"/>
<defs>
  <clipPath id="clip692">
    <rect x="149" y="47" width="2205" height="1377"/>
  </clipPath>
</defs>
<polyline clip-path="url(#clip692)" style="stroke:#000000; stroke-linecap:round; stroke-linejoin:round; stroke-width:2; stroke-opacity:0.1; fill:none" points="149.191,1423.18 149.191,47.2441 "/>
<polyline clip-path="url(#clip692)" style="stroke:#000000; stroke-linecap:round; stroke-linejoin:round; stroke-width:2; stroke-opacity:0.1; fill:none" points="589.904,1423.18 589.904,47.2441 "/>
<polyline clip-path="url(#clip692)" style="stroke:#000000; stroke-linecap:round; stroke-linejoin:round; stroke-width:2; stroke-opacity:0.1; fill:none" points="1030.62,1423.18 1030.62,47.2441 "/>
<polyline clip-path="url(#clip692)" style="stroke:#000000; stroke-linecap:round; stroke-linejoin:round; stroke-width:2; stroke-opacity:0.1; fill:none" points="1471.33,1423.18 1471.33,47.2441 "/>
<polyline clip-path="url(#clip692)" style="stroke:#000000; stroke-linecap:round; stroke-linejoin:round; stroke-width:2; stroke-opacity:0.1; fill:none" points="1912.04,1423.18 1912.04,47.2441 "/>
<polyline clip-path="url(#clip692)" style="stroke:#000000; stroke-linecap:round; stroke-linejoin:round; stroke-width:2; stroke-opacity:0.1; fill:none" points="2352.76,1423.18 2352.76,47.2441 "/>
<polyline clip-path="url(#clip690)" style="stroke:#000000; stroke-linecap:round; stroke-linejoin:round; stroke-width:4; stroke-opacity:1; fill:none" points="149.191,1423.18 2352.76,1423.18 "/>
<polyline clip-path="url(#clip690)" style="stroke:#000000; stroke-linecap:round; stroke-linejoin:round; stroke-width:4; stroke-opacity:1; fill:none" points="149.191,1423.18 149.191,1404.28 "/>
<polyline clip-path="url(#clip690)" style="stroke:#000000; stroke-linecap:round; stroke-linejoin:round; stroke-width:4; stroke-opacity:1; fill:none" points="589.904,1423.18 589.904,1404.28 "/>
<polyline clip-path="url(#clip690)" style="stroke:#000000; stroke-linecap:round; stroke-linejoin:round; stroke-width:4; stroke-opacity:1; fill:none" points="1030.62,1423.18 1030.62,1404.28 "/>
<polyline clip-path="url(#clip690)" style="stroke:#000000; stroke-linecap:round; stroke-linejoin:round; stroke-width:4; stroke-opacity:1; fill:none" points="1471.33,1423.18 1471.33,1404.28 "/>
<polyline clip-path="url(#clip690)" style="stroke:#000000; stroke-linecap:round; stroke-linejoin:round; stroke-width:4; stroke-opacity:1; fill:none" points="1912.04,1423.18 1912.04,1404.28 "/>
<polyline clip-path="url(#clip690)" style="stroke:#000000; stroke-linecap:round; stroke-linejoin:round; stroke-width:4; stroke-opacity:1; fill:none" points="2352.76,1423.18 2352.76,1404.28 "/>
<path clip-path="url(#clip690)" d="M149.191 1454.1 Q145.58 1454.1 143.751 1457.66 Q141.946 1461.2 141.946 1468.33 Q141.946 1475.44 143.751 1479.01 Q145.58 1482.55 149.191 1482.55 Q152.825 1482.55 154.631 1479.01 Q156.459 1475.44 156.459 1468.33 Q156.459 1461.2 154.631 1457.66 Q152.825 1454.1 149.191 1454.1 M149.191 1450.39 Q155.001 1450.39 158.057 1455 Q161.135 1459.58 161.135 1468.33 Q161.135 1477.06 158.057 1481.67 Q155.001 1486.25 149.191 1486.25 Q143.381 1486.25 140.302 1481.67 Q137.246 1477.06 137.246 1468.33 Q137.246 1459.58 140.302 1455 Q143.381 1450.39 149.191 1450.39 Z" fill="#000000" fill-rule="nonzero" fill-opacity="1" /><path clip-path="url(#clip690)" d="M584.557 1481.64 L600.876 1481.64 L600.876 1485.58 L578.932 1485.58 L578.932 1481.64 Q581.594 1478.89 586.177 1474.26 Q590.783 1469.61 591.964 1468.27 Q594.209 1465.74 595.089 1464.01 Q595.992 1462.25 595.992 1460.56 Q595.992 1457.8 594.047 1456.07 Q592.126 1454.33 589.024 1454.33 Q586.825 1454.33 584.371 1455.09 Q581.941 1455.86 579.163 1457.41 L579.163 1452.69 Q581.987 1451.55 584.441 1450.97 Q586.895 1450.39 588.932 1450.39 Q594.302 1450.39 597.496 1453.08 Q600.691 1455.77 600.691 1460.26 Q600.691 1462.39 599.881 1464.31 Q599.094 1466.2 596.987 1468.8 Q596.408 1469.47 593.307 1472.69 Q590.205 1475.88 584.557 1481.64 Z" fill="#000000" fill-rule="nonzero" fill-opacity="1" /><path clip-path="url(#clip690)" d="M1033.63 1455.09 L1021.82 1473.54 L1033.63 1473.54 L1033.63 1455.09 M1032.4 1451.02 L1038.28 1451.02 L1038.28 1473.54 L1043.21 1473.54 L1043.21 1477.43 L1038.28 1477.43 L1038.28 1485.58 L1033.63 1485.58 L1033.63 1477.43 L1018.02 1477.43 L1018.02 1472.92 L1032.4 1451.02 Z" fill="#000000" fill-rule="nonzero" fill-opacity="1" /><path clip-path="url(#clip690)" d="M1471.73 1466.44 Q1468.59 1466.44 1466.74 1468.59 Q1464.91 1470.74 1464.91 1474.49 Q1464.91 1478.22 1466.74 1480.39 Q1468.59 1482.55 1471.73 1482.55 Q1474.88 1482.55 1476.71 1480.39 Q1478.56 1478.22 1478.56 1474.49 Q1478.56 1470.74 1476.71 1468.59 Q1474.88 1466.44 1471.73 1466.44 M1481.02 1451.78 L1481.02 1456.04 Q1479.26 1455.21 1477.45 1454.77 Q1475.67 1454.33 1473.91 1454.33 Q1469.28 1454.33 1466.83 1457.45 Q1464.4 1460.58 1464.05 1466.9 Q1465.42 1464.89 1467.48 1463.82 Q1469.54 1462.73 1472.01 1462.73 Q1477.22 1462.73 1480.23 1465.9 Q1483.26 1469.05 1483.26 1474.49 Q1483.26 1479.82 1480.11 1483.03 Q1476.97 1486.25 1471.73 1486.25 Q1465.74 1486.25 1462.57 1481.67 Q1459.4 1477.06 1459.4 1468.33 Q1459.4 1460.14 1463.29 1455.28 Q1467.17 1450.39 1473.73 1450.39 Q1475.48 1450.39 1477.27 1450.74 Q1479.07 1451.09 1481.02 1451.78 Z" fill="#000000" fill-rule="nonzero" fill-opacity="1" /><path clip-path="url(#clip690)" d="M1912.04 1469.17 Q1908.71 1469.17 1906.79 1470.95 Q1904.89 1472.73 1904.89 1475.86 Q1904.89 1478.98 1906.79 1480.77 Q1908.71 1482.55 1912.04 1482.55 Q1915.38 1482.55 1917.3 1480.77 Q1919.22 1478.96 1919.22 1475.86 Q1919.22 1472.73 1917.3 1470.95 Q1915.4 1469.17 1912.04 1469.17 M1907.37 1467.18 Q1904.36 1466.44 1902.67 1464.38 Q1901 1462.32 1901 1459.35 Q1901 1455.21 1903.94 1452.8 Q1906.9 1450.39 1912.04 1450.39 Q1917.2 1450.39 1920.14 1452.8 Q1923.08 1455.21 1923.08 1459.35 Q1923.08 1462.32 1921.39 1464.38 Q1919.73 1466.44 1916.74 1467.18 Q1920.12 1467.96 1922 1470.26 Q1923.89 1472.55 1923.89 1475.86 Q1923.89 1480.88 1920.82 1483.57 Q1917.76 1486.25 1912.04 1486.25 Q1906.33 1486.25 1903.25 1483.57 Q1900.19 1480.88 1900.19 1475.86 Q1900.19 1472.55 1902.09 1470.26 Q1903.99 1467.96 1907.37 1467.18 M1905.65 1459.79 Q1905.65 1462.48 1907.32 1463.98 Q1909.01 1465.49 1912.04 1465.49 Q1915.05 1465.49 1916.74 1463.98 Q1918.45 1462.48 1918.45 1459.79 Q1918.45 1457.11 1916.74 1455.6 Q1915.05 1454.1 1912.04 1454.1 Q1909.01 1454.1 1907.32 1455.6 Q1905.65 1457.11 1905.65 1459.79 Z" fill="#000000" fill-rule="nonzero" fill-opacity="1" /><path clip-path="url(#clip690)" d="M2327.44 1481.64 L2335.08 1481.64 L2335.08 1455.28 L2326.77 1456.95 L2326.77 1452.69 L2335.04 1451.02 L2339.71 1451.02 L2339.71 1481.64 L2347.35 1481.64 L2347.35 1485.58 L2327.44 1485.58 L2327.44 1481.64 Z" fill="#000000" fill-rule="nonzero" fill-opacity="1" /><path clip-path="url(#clip690)" d="M2366.8 1454.1 Q2363.18 1454.1 2361.36 1457.66 Q2359.55 1461.2 2359.55 1468.33 Q2359.55 1475.44 2361.36 1479.01 Q2363.18 1482.55 2366.8 1482.55 Q2370.43 1482.55 2372.23 1479.01 Q2374.06 1475.44 2374.06 1468.33 Q2374.06 1461.2 2372.23 1457.66 Q2370.43 1454.1 2366.8 1454.1 M2366.8 1450.39 Q2372.61 1450.39 2375.66 1455 Q2378.74 1459.58 2378.74 1468.33 Q2378.74 1477.06 2375.66 1481.67 Q2372.61 1486.25 2366.8 1486.25 Q2360.99 1486.25 2357.91 1481.67 Q2354.85 1477.06 2354.85 1468.33 Q2354.85 1459.58 2357.91 1455 Q2360.99 1450.39 2366.8 1450.39 Z" fill="#000000" fill-rule="nonzero" fill-opacity="1" /><path clip-path="url(#clip690)" d="M1250.03 1522.27 L1250.03 1532.4 L1262.1 1532.4 L1262.1 1536.95 L1250.03 1536.95 L1250.03 1556.3 Q1250.03 1560.66 1251.21 1561.9 Q1252.42 1563.14 1256.08 1563.14 L1262.1 1563.14 L1262.1 1568.04 L1256.08 1568.04 Q1249.3 1568.04 1246.72 1565.53 Q1244.15 1562.98 1244.15 1556.3 L1244.15 1536.95 L1239.85 1536.95 L1239.85 1532.4 L1244.15 1532.4 L1244.15 1522.27 L1250.03 1522.27 Z" fill="#000000" fill-rule="nonzero" fill-opacity="1" /><polyline clip-path="url(#clip692)" style="stroke:#000000; stroke-linecap:round; stroke-linejoin:round; stroke-width:2; stroke-opacity:0.1; fill:none" points="149.191,1393.48 2352.76,1393.48 "/>
<polyline clip-path="url(#clip692)" style="stroke:#000000; stroke-linecap:round; stroke-linejoin:round; stroke-width:2; stroke-opacity:0.1; fill:none" points="149.191,1094.1 2352.76,1094.1 "/>
<polyline clip-path="url(#clip692)" style="stroke:#000000; stroke-linecap:round; stroke-linejoin:round; stroke-width:2; stroke-opacity:0.1; fill:none" points="149.191,794.726 2352.76,794.726 "/>
<polyline clip-path="url(#clip692)" style="stroke:#000000; stroke-linecap:round; stroke-linejoin:round; stroke-width:2; stroke-opacity:0.1; fill:none" points="149.191,495.349 2352.76,495.349 "/>
<polyline clip-path="url(#clip692)" style="stroke:#000000; stroke-linecap:round; stroke-linejoin:round; stroke-width:2; stroke-opacity:0.1; fill:none" points="149.191,195.971 2352.76,195.971 "/>
<polyline clip-path="url(#clip690)" style="stroke:#000000; stroke-linecap:round; stroke-linejoin:round; stroke-width:4; stroke-opacity:1; fill:none" points="149.191,1423.18 149.191,47.2441 "/>
<polyline clip-path="url(#clip690)" style="stroke:#000000; stroke-linecap:round; stroke-linejoin:round; stroke-width:4; stroke-opacity:1; fill:none" points="149.191,1393.48 168.089,1393.48 "/>
<polyline clip-path="url(#clip690)" style="stroke:#000000; stroke-linecap:round; stroke-linejoin:round; stroke-width:4; stroke-opacity:1; fill:none" points="149.191,1094.1 168.089,1094.1 "/>
<polyline clip-path="url(#clip690)" style="stroke:#000000; stroke-linecap:round; stroke-linejoin:round; stroke-width:4; stroke-opacity:1; fill:none" points="149.191,794.726 168.089,794.726 "/>
<polyline clip-path="url(#clip690)" style="stroke:#000000; stroke-linecap:round; stroke-linejoin:round; stroke-width:4; stroke-opacity:1; fill:none" points="149.191,495.349 168.089,495.349 "/>
<polyline clip-path="url(#clip690)" style="stroke:#000000; stroke-linecap:round; stroke-linejoin:round; stroke-width:4; stroke-opacity:1; fill:none" points="149.191,195.971 168.089,195.971 "/>
<path clip-path="url(#clip690)" d="M50.9921 1393.93 L80.6679 1393.93 L80.6679 1397.87 L50.9921 1397.87 L50.9921 1393.93 Z" fill="#000000" fill-rule="nonzero" fill-opacity="1" /><path clip-path="url(#clip690)" d="M103.608 1380.27 L91.8021 1398.72 L103.608 1398.72 L103.608 1380.27 M102.381 1376.2 L108.26 1376.2 L108.26 1398.72 L113.191 1398.72 L113.191 1402.61 L108.26 1402.61 L108.26 1410.76 L103.608 1410.76 L103.608 1402.61 L88.0058 1402.61 L88.0058 1398.1 L102.381 1376.2 Z" fill="#000000" fill-rule="nonzero" fill-opacity="1" /><path clip-path="url(#clip690)" d="M52.1264 1094.55 L81.8021 1094.55 L81.8021 1098.49 L52.1264 1098.49 L52.1264 1094.55 Z" fill="#000000" fill-rule="nonzero" fill-opacity="1" /><path clip-path="url(#clip690)" d="M106.061 1092.75 Q109.418 1093.47 111.293 1095.74 Q113.191 1098 113.191 1101.34 Q113.191 1106.45 109.672 1109.25 Q106.154 1112.05 99.6724 1112.05 Q97.4965 1112.05 95.1817 1111.61 Q92.89 1111.2 90.4364 1110.34 L90.4364 1105.83 Q92.3808 1106.96 94.6956 1107.54 Q97.0104 1108.12 99.5335 1108.12 Q103.932 1108.12 106.223 1106.38 Q108.538 1104.65 108.538 1101.34 Q108.538 1098.28 106.385 1096.57 Q104.256 1094.83 100.436 1094.83 L96.4085 1094.83 L96.4085 1090.99 L100.621 1090.99 Q104.071 1090.99 105.899 1089.62 Q107.728 1088.24 107.728 1085.64 Q107.728 1082.98 105.83 1081.57 Q103.955 1080.13 100.436 1080.13 Q98.515 1080.13 96.316 1080.55 Q94.1169 1080.97 91.478 1081.85 L91.478 1077.68 Q94.14 1076.94 96.4548 1076.57 Q98.7928 1076.2 100.853 1076.2 Q106.177 1076.2 109.279 1078.63 Q112.381 1081.04 112.381 1085.16 Q112.381 1088.03 110.737 1090.02 Q109.094 1091.99 106.061 1092.75 Z" fill="#000000" fill-rule="nonzero" fill-opacity="1" /><path clip-path="url(#clip690)" d="M53.0754 795.177 L82.7512 795.177 L82.7512 799.112 L53.0754 799.112 L53.0754 795.177 Z" fill="#000000" fill-rule="nonzero" fill-opacity="1" /><path clip-path="url(#clip690)" d="M96.8715 808.071 L113.191 808.071 L113.191 812.006 L91.2465 812.006 L91.2465 808.071 Q93.9086 805.316 98.4919 800.687 Q103.098 796.034 104.279 794.691 Q106.524 792.168 107.404 790.432 Q108.307 788.673 108.307 786.983 Q108.307 784.228 106.362 782.492 Q104.441 780.756 101.339 780.756 Q99.14 780.756 96.6863 781.52 Q94.2558 782.284 91.478 783.835 L91.478 779.113 Q94.3021 777.978 96.7558 777.4 Q99.2095 776.821 101.246 776.821 Q106.617 776.821 109.811 779.506 Q113.006 782.191 113.006 786.682 Q113.006 788.812 112.196 790.733 Q111.408 792.631 109.302 795.224 Q108.723 795.895 105.621 799.112 Q102.52 802.307 96.8715 808.071 Z" fill="#000000" fill-rule="nonzero" fill-opacity="1" /><path clip-path="url(#clip690)" d="M52.7051 495.8 L82.3808 495.8 L82.3808 499.735 L52.7051 499.735 L52.7051 495.8 Z" fill="#000000" fill-rule="nonzero" fill-opacity="1" /><path clip-path="url(#clip690)" d="M93.2836 508.694 L100.922 508.694 L100.922 482.328 L92.6123 483.995 L92.6123 479.735 L100.876 478.069 L105.552 478.069 L105.552 508.694 L113.191 508.694 L113.191 512.629 L93.2836 512.629 L93.2836 508.694 Z" fill="#000000" fill-rule="nonzero" fill-opacity="1" /><path clip-path="url(#clip690)" d="M101.246 181.77 Q97.6354 181.77 95.8067 185.335 Q94.0012 188.877 94.0012 196.006 Q94.0012 203.113 95.8067 206.677 Q97.6354 210.219 101.246 210.219 Q104.881 210.219 106.686 206.677 Q108.515 203.113 108.515 196.006 Q108.515 188.877 106.686 185.335 Q104.881 181.77 101.246 181.77 M101.246 178.066 Q107.057 178.066 110.112 182.673 Q113.191 187.256 113.191 196.006 Q113.191 204.733 110.112 209.339 Q107.057 213.923 101.246 213.923 Q95.4363 213.923 92.3576 209.339 Q89.3021 204.733 89.3021 196.006 Q89.3021 187.256 92.3576 182.673 Q95.4363 178.066 101.246 178.066 Z" fill="#000000" fill-rule="nonzero" fill-opacity="1" /><polyline clip-path="url(#clip692)" style="stroke:#009af9; stroke-linecap:round; stroke-linejoin:round; stroke-width:4; stroke-opacity:1; fill:none" points="149.191,86.1857 369.547,1211.11 589.904,1384.24 810.26,1369.6 1030.62,1319.88 1250.97,1265.47 1471.33,1212.36 1691.69,1161.61 1912.04,1113.34 2132.4,1067.47 2352.76,1023.9 "/>
<polyline clip-path="url(#clip692)" style="stroke:#e26f46; stroke-linecap:round; stroke-linejoin:round; stroke-width:4; stroke-opacity:1; fill:none" points="149.191,376.525 369.547,232.082 589.904,203.194 810.26,197.416 1030.62,196.26 1250.97,196.029 1471.33,195.983 1691.69,195.974 1912.04,195.972 2132.4,195.972 2352.76,195.971 "/>
<path clip-path="url(#clip690)" d="M1951.26 1377.32 L2279.3 1377.32 L2279.3 1221.8 L1951.26 1221.8  Z" fill="#ffffff" fill-rule="evenodd" fill-opacity="1"/>
<polyline clip-path="url(#clip690)" style="stroke:#000000; stroke-linecap:round; stroke-linejoin:round; stroke-width:4; stroke-opacity:1; fill:none" points="1951.26,1377.32 2279.3,1377.32 2279.3,1221.8 1951.26,1221.8 1951.26,1377.32 "/>
<polyline clip-path="url(#clip690)" style="stroke:#009af9; stroke-linecap:round; stroke-linejoin:round; stroke-width:4; stroke-opacity:1; fill:none" points="1975.75,1273.64 2122.65,1273.64 "/>
<path clip-path="url(#clip690)" d="M2147.14 1280.68 L2147.14 1264.99 L2151.39 1264.99 L2151.39 1280.52 Q2151.39 1284.2 2152.83 1286.05 Q2154.26 1287.88 2157.14 1287.88 Q2160.58 1287.88 2162.57 1285.68 Q2164.59 1283.48 2164.59 1279.69 L2164.59 1264.99 L2168.85 1264.99 L2168.85 1290.92 L2164.59 1290.92 L2164.59 1286.93 Q2163.04 1289.29 2160.98 1290.45 Q2158.94 1291.59 2156.23 1291.59 Q2151.76 1291.59 2149.45 1288.81 Q2147.14 1286.03 2147.14 1280.68 M2157.85 1264.36 L2157.85 1264.36 Z" fill="#000000" fill-rule="nonzero" fill-opacity="1" /><path clip-path="url(#clip690)" d="M2179.03 1286.98 L2186.67 1286.98 L2186.67 1260.61 L2178.36 1262.28 L2178.36 1258.02 L2186.63 1256.36 L2191.3 1256.36 L2191.3 1286.98 L2198.94 1286.98 L2198.94 1290.92 L2179.03 1290.92 L2179.03 1286.98 Z" fill="#000000" fill-rule="nonzero" fill-opacity="1" /><path clip-path="url(#clip690)" d="M2218.01 1254.94 Q2214.91 1260.27 2213.41 1265.48 Q2211.9 1270.68 2211.9 1276.03 Q2211.9 1281.38 2213.41 1286.63 Q2214.94 1291.86 2218.01 1297.17 L2214.31 1297.17 Q2210.84 1291.73 2209.1 1286.47 Q2207.39 1281.22 2207.39 1276.03 Q2207.39 1270.87 2209.1 1265.64 Q2210.82 1260.41 2214.31 1254.94 L2218.01 1254.94 Z" fill="#000000" fill-rule="nonzero" fill-opacity="1" /><path clip-path="url(#clip690)" d="M2230.49 1257.63 L2230.49 1264.99 L2239.26 1264.99 L2239.26 1268.3 L2230.49 1268.3 L2230.49 1282.37 Q2230.49 1285.54 2231.35 1286.45 Q2232.23 1287.35 2234.89 1287.35 L2239.26 1287.35 L2239.26 1290.92 L2234.89 1290.92 Q2229.96 1290.92 2228.08 1289.09 Q2226.21 1287.23 2226.21 1282.37 L2226.21 1268.3 L2223.08 1268.3 L2223.08 1264.99 L2226.21 1264.99 L2226.21 1257.63 L2230.49 1257.63 Z" fill="#000000" fill-rule="nonzero" fill-opacity="1" /><path clip-path="url(#clip690)" d="M2244.19 1254.94 L2247.9 1254.94 Q2251.37 1260.41 2253.08 1265.64 Q2254.82 1270.87 2254.82 1276.03 Q2254.82 1281.22 2253.08 1286.47 Q2251.37 1291.73 2247.9 1297.17 L2244.19 1297.17 Q2247.27 1291.86 2248.78 1286.63 Q2250.31 1281.38 2250.31 1276.03 Q2250.31 1270.68 2248.78 1265.48 Q2247.27 1260.27 2244.19 1254.94 Z" fill="#000000" fill-rule="nonzero" fill-opacity="1" /><polyline clip-path="url(#clip690)" style="stroke:#e26f46; stroke-linecap:round; stroke-linejoin:round; stroke-width:4; stroke-opacity:1; fill:none" points="1975.75,1325.48 2122.65,1325.48 "/>
<path clip-path="url(#clip690)" d="M2147.14 1332.52 L2147.14 1316.83 L2151.39 1316.83 L2151.39 1332.36 Q2151.39 1336.04 2152.83 1337.89 Q2154.26 1339.72 2157.14 1339.72 Q2160.58 1339.72 2162.57 1337.52 Q2164.59 1335.32 2164.59 1331.53 L2164.59 1316.83 L2168.85 1316.83 L2168.85 1342.76 L2164.59 1342.76 L2164.59 1338.77 Q2163.04 1341.13 2160.98 1342.29 Q2158.94 1343.43 2156.23 1343.43 Q2151.76 1343.43 2149.45 1340.65 Q2147.14 1337.87 2147.14 1332.52 M2157.85 1316.2 L2157.85 1316.2 Z" fill="#000000" fill-rule="nonzero" fill-opacity="1" /><path clip-path="url(#clip690)" d="M2182.25 1338.82 L2198.57 1338.82 L2198.57 1342.76 L2176.63 1342.76 L2176.63 1338.82 Q2179.29 1336.07 2183.87 1331.44 Q2188.48 1326.78 2189.66 1325.44 Q2191.9 1322.92 2192.78 1321.18 Q2193.69 1319.42 2193.69 1317.73 Q2193.69 1314.98 2191.74 1313.24 Q2189.82 1311.51 2186.72 1311.51 Q2184.52 1311.51 2182.07 1312.27 Q2179.63 1313.03 2176.86 1314.58 L2176.86 1309.86 Q2179.68 1308.73 2182.13 1308.15 Q2184.59 1307.57 2186.63 1307.57 Q2192 1307.57 2195.19 1310.26 Q2198.38 1312.94 2198.38 1317.43 Q2198.38 1319.56 2197.57 1321.48 Q2196.79 1323.38 2194.68 1325.97 Q2194.1 1326.64 2191 1329.86 Q2187.9 1333.06 2182.25 1338.82 Z" fill="#000000" fill-rule="nonzero" fill-opacity="1" /><path clip-path="url(#clip690)" d="M2218.01 1306.78 Q2214.91 1312.11 2213.41 1317.32 Q2211.9 1322.52 2211.9 1327.87 Q2211.9 1333.22 2213.41 1338.47 Q2214.94 1343.7 2218.01 1349.01 L2214.31 1349.01 Q2210.84 1343.57 2209.1 1338.31 Q2207.39 1333.06 2207.39 1327.87 Q2207.39 1322.71 2209.1 1317.48 Q2210.82 1312.25 2214.31 1306.78 L2218.01 1306.78 Z" fill="#000000" fill-rule="nonzero" fill-opacity="1" /><path clip-path="url(#clip690)" d="M2230.49 1309.47 L2230.49 1316.83 L2239.26 1316.83 L2239.26 1320.14 L2230.49 1320.14 L2230.49 1334.21 Q2230.49 1337.38 2231.35 1338.29 Q2232.23 1339.19 2234.89 1339.19 L2239.26 1339.19 L2239.26 1342.76 L2234.89 1342.76 Q2229.96 1342.76 2228.08 1340.93 Q2226.21 1339.07 2226.21 1334.21 L2226.21 1320.14 L2223.08 1320.14 L2223.08 1316.83 L2226.21 1316.83 L2226.21 1309.47 L2230.49 1309.47 Z" fill="#000000" fill-rule="nonzero" fill-opacity="1" /><path clip-path="url(#clip690)" d="M2244.19 1306.78 L2247.9 1306.78 Q2251.37 1312.25 2253.08 1317.48 Q2254.82 1322.71 2254.82 1327.87 Q2254.82 1333.06 2253.08 1338.31 Q2251.37 1343.57 2247.9 1349.01 L2244.19 1349.01 Q2247.27 1343.7 2248.78 1338.47 Q2250.31 1333.22 2250.31 1327.87 Q2250.31 1322.52 2248.78 1317.32 Q2247.27 1312.11 2244.19 1306.78 Z" fill="#000000" fill-rule="nonzero" fill-opacity="1" /></svg>
