<?xml version="1.0" encoding="utf-8"?>
<svg xmlns="http://www.w3.org/2000/svg" xmlns:xlink="http://www.w3.org/1999/xlink" width="600" height="400" viewBox="0 0 2400 1600">
<defs>
  <clipPath id="clip960">
    <rect x="0" y="0" width="2400" height="1600"/>
  </clipPath>
</defs>
<path clip-path="url(#clip960)" d="M0 1600 L2400 1600 L2400 0 L0 0  Z" fill="#ffffff" fill-rule="evenodd" fill-opacity="1"/>
<defs>
  <clipPath id="clip961">
    <rect x="194" y="47" width="2159" height="1440"/>
  </clipPath>
</defs>
<path clip-path="url(#clip960)" d="M194.422 1486.45 L2352.76 1486.45 L2352.76 47.2441 L194.422 47.2441  Z" fill="#ffffff" fill-rule="evenodd" fill-opacity="1"/>
<polyline clip-path="url(#clip961)" style="stroke:#000000; stroke-linecap:round; stroke-linejoin:round; stroke-width:2; stroke-opacity:0.1; fill:none" points="255.507,1486.45 255.507,47.2441 "/>
<polyline clip-path="url(#clip961)" style="stroke:#000000; stroke-linecap:round; stroke-linejoin:round; stroke-width:2; stroke-opacity:0.1; fill:none" points="934.228,1486.45 934.228,47.2441 "/>
<polyline clip-path="url(#clip961)" style="stroke:#000000; stroke-linecap:round; stroke-linejoin:round; stroke-width:2; stroke-opacity:0.1; fill:none" points="1612.95,1486.45 1612.95,47.2441 "/>
<polyline clip-path="url(#clip961)" style="stroke:#000000; stroke-linecap:round; stroke-linejoin:round; stroke-width:2; stroke-opacity:0.1; fill:none" points="2291.67,1486.45 2291.67,47.2441 "/>
<polyline clip-path="url(#clip961)" style="stroke:#000000; stroke-linecap:round; stroke-linejoin:round; stroke-width:2; stroke-opacity:0.1; fill:none" points="194.422,1482.89 2352.76,1482.89 "/>
<polyline clip-path="url(#clip961)" style="stroke:#000000; stroke-linecap:round; stroke-linejoin:round; stroke-width:2; stroke-opacity:0.1; fill:none" points="194.422,1150.01 2352.76,1150.01 "/>
<polyline clip-path="url(#clip961)" style="stroke:#000000; stroke-linecap:round; stroke-linejoin:round; stroke-width:2; stroke-opacity:0.1; fill:none" points="194.422,817.132 2352.76,817.132 "/>
<polyline clip-path="url(#clip961)" style="stroke:#000000; stroke-linecap:round; stroke-linejoin:round; stroke-width:2; stroke-opacity:0.1; fill:none" points="194.422,484.255 2352.76,484.255 "/>
<polyline clip-path="url(#clip961)" style="stroke:#000000; stroke-linecap:round; stroke-linejoin:round; stroke-width:2; stroke-opacity:0.1; fill:none" points="194.422,151.379 2352.76,151.379 "/>
<polyline clip-path="url(#clip960)" style="stroke:#000000; stroke-linecap:round; stroke-linejoin:round; stroke-width:4; stroke-opacity:1; fill:none" points="194.422,1486.45 2352.76,1486.45 "/>
<polyline clip-path="url(#clip960)" style="stroke:#000000; stroke-linecap:round; stroke-linejoin:round; stroke-width:4; stroke-opacity:1; fill:none" points="255.507,1486.45 255.507,1467.55 "/>
<polyline clip-path="url(#clip960)" style="stroke:#000000; stroke-linecap:round; stroke-linejoin:round; stroke-width:4; stroke-opacity:1; fill:none" points="934.228,1486.45 934.228,1467.55 "/>
<polyline clip-path="url(#clip960)" style="stroke:#000000; stroke-linecap:round; stroke-linejoin:round; stroke-width:4; stroke-opacity:1; fill:none" points="1612.95,1486.45 1612.95,1467.55 "/>
<polyline clip-path="url(#clip960)" style="stroke:#000000; stroke-linecap:round; stroke-linejoin:round; stroke-width:4; stroke-opacity:1; fill:none" points="2291.67,1486.45 2291.67,1467.55 "/>
<path clip-path="url(#clip960)" d="M255.507 1517.37 Q251.896 1517.37 250.067 1520.93 Q248.262 1524.47 248.262 1531.6 Q248.262 1538.71 250.067 1542.27 Q251.896 1545.82 255.507 1545.82 Q259.141 1545.82 260.947 1542.27 Q262.776 1538.71 262.776 1531.6 Q262.776 1524.47 260.947 1520.93 Q259.141 1517.37 255.507 1517.37 M255.507 1513.66 Q261.317 1513.66 264.373 1518.27 Q267.451 1522.85 267.451 1531.6 Q267.451 1540.33 264.373 1544.94 Q261.317 1549.52 255.507 1549.52 Q249.697 1549.52 246.618 1544.94 Q243.563 1540.33 243.563 1531.6 Q243.563 1522.85 246.618 1518.27 Q249.697 1513.66 255.507 1513.66 Z" fill="#000000" fill-rule="nonzero" fill-opacity="1" /><path clip-path="url(#clip960)" d="M908.916 1544.91 L916.555 1544.91 L916.555 1518.55 L908.245 1520.21 L908.245 1515.95 L916.509 1514.29 L921.184 1514.29 L921.184 1544.91 L928.823 1544.91 L928.823 1548.85 L908.916 1548.85 L908.916 1544.91 Z" fill="#000000" fill-rule="nonzero" fill-opacity="1" /><path clip-path="url(#clip960)" d="M948.268 1517.37 Q944.657 1517.37 942.828 1520.93 Q941.022 1524.47 941.022 1531.6 Q941.022 1538.71 942.828 1542.27 Q944.657 1545.82 948.268 1545.82 Q951.902 1545.82 953.707 1542.27 Q955.536 1538.71 955.536 1531.6 Q955.536 1524.47 953.707 1520.93 Q951.902 1517.37 948.268 1517.37 M948.268 1513.66 Q954.078 1513.66 957.133 1518.27 Q960.212 1522.85 960.212 1531.6 Q960.212 1540.33 957.133 1544.94 Q954.078 1549.52 948.268 1549.52 Q942.457 1549.52 939.379 1544.94 Q936.323 1540.33 936.323 1531.6 Q936.323 1522.85 939.379 1518.27 Q942.457 1513.66 948.268 1513.66 Z" fill="#000000" fill-rule="nonzero" fill-opacity="1" /><path clip-path="url(#clip960)" d="M1591.72 1544.91 L1608.04 1544.91 L1608.04 1548.85 L1586.1 1548.85 L1586.1 1544.91 Q1588.76 1542.16 1593.34 1537.53 Q1597.95 1532.88 1599.13 1531.53 Q1601.38 1529.01 1602.26 1527.27 Q1603.16 1525.51 1603.16 1523.82 Q1603.16 1521.07 1601.21 1519.33 Q1599.29 1517.6 1596.19 1517.6 Q1593.99 1517.6 1591.54 1518.36 Q1589.11 1519.13 1586.33 1520.68 L1586.33 1515.95 Q1589.15 1514.82 1591.61 1514.24 Q1594.06 1513.66 1596.1 1513.66 Q1601.47 1513.66 1604.66 1516.35 Q1607.86 1519.03 1607.86 1523.52 Q1607.86 1525.65 1607.05 1527.57 Q1606.26 1529.47 1604.15 1532.07 Q1603.57 1532.74 1600.47 1535.95 Q1597.37 1539.15 1591.72 1544.91 Z" fill="#000000" fill-rule="nonzero" fill-opacity="1" /><path clip-path="url(#clip960)" d="M1627.86 1517.37 Q1624.25 1517.37 1622.42 1520.93 Q1620.61 1524.47 1620.61 1531.6 Q1620.61 1538.71 1622.42 1542.27 Q1624.25 1545.82 1627.86 1545.82 Q1631.49 1545.82 1633.3 1542.27 Q1635.13 1538.71 1635.13 1531.6 Q1635.13 1524.47 1633.3 1520.93 Q1631.49 1517.37 1627.86 1517.37 M1627.86 1513.66 Q1633.67 1513.66 1636.72 1518.27 Q1639.8 1522.85 1639.8 1531.6 Q1639.8 1540.33 1636.72 1544.94 Q1633.67 1549.52 1627.86 1549.52 Q1622.05 1549.52 1618.97 1544.94 Q1615.91 1540.33 1615.91 1531.6 Q1615.91 1522.85 1618.97 1518.27 Q1622.05 1513.66 1627.86 1513.66 Z" fill="#000000" fill-rule="nonzero" fill-opacity="1" /><path clip-path="url(#clip960)" d="M2280.51 1530.21 Q2283.87 1530.93 2285.75 1533.2 Q2287.64 1535.47 2287.64 1538.8 Q2287.64 1543.92 2284.12 1546.72 Q2280.61 1549.52 2274.12 1549.52 Q2271.95 1549.52 2269.63 1549.08 Q2267.34 1548.66 2264.89 1547.81 L2264.89 1543.29 Q2266.83 1544.43 2269.15 1545.01 Q2271.46 1545.58 2273.99 1545.58 Q2278.38 1545.58 2280.68 1543.85 Q2282.99 1542.11 2282.99 1538.8 Q2282.99 1535.75 2280.84 1534.03 Q2278.71 1532.3 2274.89 1532.3 L2270.86 1532.3 L2270.86 1528.45 L2275.07 1528.45 Q2278.52 1528.45 2280.35 1527.09 Q2282.18 1525.7 2282.18 1523.11 Q2282.18 1520.45 2280.28 1519.03 Q2278.41 1517.6 2274.89 1517.6 Q2272.97 1517.6 2270.77 1518.01 Q2268.57 1518.43 2265.93 1519.31 L2265.93 1515.14 Q2268.59 1514.4 2270.91 1514.03 Q2273.25 1513.66 2275.31 1513.66 Q2280.63 1513.66 2283.73 1516.09 Q2286.83 1518.5 2286.83 1522.62 Q2286.83 1525.49 2285.19 1527.48 Q2283.55 1529.45 2280.51 1530.21 Z" fill="#000000" fill-rule="nonzero" fill-opacity="1" /><path clip-path="url(#clip960)" d="M2306.51 1517.37 Q2302.9 1517.37 2301.07 1520.93 Q2299.26 1524.47 2299.26 1531.6 Q2299.26 1538.71 2301.07 1542.27 Q2302.9 1545.82 2306.51 1545.82 Q2310.14 1545.82 2311.95 1542.27 Q2313.78 1538.71 2313.78 1531.6 Q2313.78 1524.47 2311.95 1520.93 Q2310.14 1517.37 2306.51 1517.37 M2306.51 1513.66 Q2312.32 1513.66 2315.37 1518.27 Q2318.45 1522.85 2318.45 1531.6 Q2318.45 1540.33 2315.37 1544.94 Q2312.32 1549.52 2306.51 1549.52 Q2300.7 1549.52 2297.62 1544.94 Q2294.56 1540.33 2294.56 1531.6 Q2294.56 1522.85 2297.62 1518.27 Q2300.7 1513.66 2306.51 1513.66 Z" fill="#000000" fill-rule="nonzero" fill-opacity="1" /><polyline clip-path="url(#clip960)" style="stroke:#000000; stroke-linecap:round; stroke-linejoin:round; stroke-width:4; stroke-opacity:1; fill:none" points="194.422,1486.45 194.422,47.2441 "/>
<polyline clip-path="url(#clip960)" style="stroke:#000000; stroke-linecap:round; stroke-linejoin:round; stroke-width:4; stroke-opacity:1; fill:none" points="194.422,1482.89 213.32,1482.89 "/>
<polyline clip-path="url(#clip960)" style="stroke:#000000; stroke-linecap:round; stroke-linejoin:round; stroke-width:4; stroke-opacity:1; fill:none" points="194.422,1150.01 213.32,1150.01 "/>
<polyline clip-path="url(#clip960)" style="stroke:#000000; stroke-linecap:round; stroke-linejoin:round; stroke-width:4; stroke-opacity:1; fill:none" points="194.422,817.132 213.32,817.132 "/>
<polyline clip-path="url(#clip960)" style="stroke:#000000; stroke-linecap:round; stroke-linejoin:round; stroke-width:4; stroke-opacity:1; fill:none" points="194.422,484.255 213.32,484.255 "/>
<polyline clip-path="url(#clip960)" style="stroke:#000000; stroke-linecap:round; stroke-linejoin:round; stroke-width:4; stroke-opacity:1; fill:none" points="194.422,151.379 213.32,151.379 "/>
<path clip-path="url(#clip960)" d="M50.9921 1483.34 L80.6679 1483.34 L80.6679 1487.27 L50.9921 1487.27 L50.9921 1483.34 Z" fill="#000000" fill-rule="nonzero" fill-opacity="1" /><path clip-path="url(#clip960)" d="M100.76 1468.68 Q97.1493 1468.68 95.3206 1472.25 Q93.515 1475.79 93.515 1482.92 Q93.515 1490.03 95.3206 1493.59 Q97.1493 1497.13 100.76 1497.13 Q104.395 1497.13 106.2 1493.59 Q108.029 1490.03 108.029 1482.92 Q108.029 1475.79 106.2 1472.25 Q104.395 1468.68 100.76 1468.68 M100.76 1464.98 Q106.571 1464.98 109.626 1469.59 Q112.705 1474.17 112.705 1482.92 Q112.705 1491.65 109.626 1496.25 Q106.571 1500.84 100.76 1500.84 Q94.9502 1500.84 91.8715 1496.25 Q88.816 1491.65 88.816 1482.92 Q88.816 1474.17 91.8715 1469.59 Q94.9502 1464.98 100.76 1464.98 Z" fill="#000000" fill-rule="nonzero" fill-opacity="1" /><path clip-path="url(#clip960)" d="M120.922 1494.29 L125.807 1494.29 L125.807 1500.17 L120.922 1500.17 L120.922 1494.29 Z" fill="#000000" fill-rule="nonzero" fill-opacity="1" /><path clip-path="url(#clip960)" d="M148.839 1469.68 L137.033 1488.13 L148.839 1488.13 L148.839 1469.68 M147.612 1465.61 L153.492 1465.61 L153.492 1488.13 L158.422 1488.13 L158.422 1492.02 L153.492 1492.02 L153.492 1500.17 L148.839 1500.17 L148.839 1492.02 L133.237 1492.02 L133.237 1487.5 L147.612 1465.61 Z" fill="#000000" fill-rule="nonzero" fill-opacity="1" /><path clip-path="url(#clip960)" d="M53.0754 1150.46 L82.7512 1150.46 L82.7512 1154.4 L53.0754 1154.4 L53.0754 1150.46 Z" fill="#000000" fill-rule="nonzero" fill-opacity="1" /><path clip-path="url(#clip960)" d="M102.844 1135.81 Q99.2326 1135.81 97.4039 1139.37 Q95.5984 1142.91 95.5984 1150.04 Q95.5984 1157.15 97.4039 1160.71 Q99.2326 1164.26 102.844 1164.26 Q106.478 1164.26 108.283 1160.71 Q110.112 1157.15 110.112 1150.04 Q110.112 1142.91 108.283 1139.37 Q106.478 1135.81 102.844 1135.81 M102.844 1132.1 Q108.654 1132.1 111.709 1136.71 Q114.788 1141.29 114.788 1150.04 Q114.788 1158.77 111.709 1163.38 Q108.654 1167.96 102.844 1167.96 Q97.0335 1167.96 93.9549 1163.38 Q90.8993 1158.77 90.8993 1150.04 Q90.8993 1141.29 93.9549 1136.71 Q97.0335 1132.1 102.844 1132.1 Z" fill="#000000" fill-rule="nonzero" fill-opacity="1" /><path clip-path="url(#clip960)" d="M123.006 1161.41 L127.89 1161.41 L127.89 1167.29 L123.006 1167.29 L123.006 1161.41 Z" fill="#000000" fill-rule="nonzero" fill-opacity="1" /><path clip-path="url(#clip960)" d="M142.103 1163.35 L158.422 1163.35 L158.422 1167.29 L136.478 1167.29 L136.478 1163.35 Q139.14 1160.6 143.723 1155.97 Q148.33 1151.32 149.51 1149.97 Q151.755 1147.45 152.635 1145.71 Q153.538 1143.96 153.538 1142.27 Q153.538 1139.51 151.593 1137.78 Q149.672 1136.04 146.57 1136.04 Q144.371 1136.04 141.918 1136.8 Q139.487 1137.57 136.709 1139.12 L136.709 1134.4 Q139.533 1133.26 141.987 1132.68 Q144.441 1132.1 146.478 1132.1 Q151.848 1132.1 155.042 1134.79 Q158.237 1137.47 158.237 1141.96 Q158.237 1144.09 157.427 1146.02 Q156.64 1147.91 154.533 1150.51 Q153.955 1151.18 150.853 1154.4 Q147.751 1157.59 142.103 1163.35 Z" fill="#000000" fill-rule="nonzero" fill-opacity="1" /><path clip-path="url(#clip960)" d="M101.246 802.931 Q97.6354 802.931 95.8067 806.496 Q94.0012 810.037 94.0012 817.167 Q94.0012 824.273 95.8067 827.838 Q97.6354 831.38 101.246 831.38 Q104.881 831.38 106.686 827.838 Q108.515 824.273 108.515 817.167 Q108.515 810.037 106.686 806.496 Q104.881 802.931 101.246 802.931 M101.246 799.227 Q107.057 799.227 110.112 803.834 Q113.191 808.417 113.191 817.167 Q113.191 825.894 110.112 830.5 Q107.057 835.083 101.246 835.083 Q95.4363 835.083 92.3576 830.5 Q89.3021 825.894 89.3021 817.167 Q89.3021 808.417 92.3576 803.834 Q95.4363 799.227 101.246 799.227 Z" fill="#000000" fill-rule="nonzero" fill-opacity="1" /><path clip-path="url(#clip960)" d="M121.408 828.533 L126.293 828.533 L126.293 834.412 L121.408 834.412 L121.408 828.533 Z" fill="#000000" fill-rule="nonzero" fill-opacity="1" /><path clip-path="url(#clip960)" d="M146.478 802.931 Q142.867 802.931 141.038 806.496 Q139.232 810.037 139.232 817.167 Q139.232 824.273 141.038 827.838 Q142.867 831.38 146.478 831.38 Q150.112 831.38 151.918 827.838 Q153.746 824.273 153.746 817.167 Q153.746 810.037 151.918 806.496 Q150.112 802.931 146.478 802.931 M146.478 799.227 Q152.288 799.227 155.343 803.834 Q158.422 808.417 158.422 817.167 Q158.422 825.894 155.343 830.5 Q152.288 835.083 146.478 835.083 Q140.668 835.083 137.589 830.5 Q134.533 825.894 134.533 817.167 Q134.533 808.417 137.589 803.834 Q140.668 799.227 146.478 799.227 Z" fill="#000000" fill-rule="nonzero" fill-opacity="1" /><path clip-path="url(#clip960)" d="M102.844 470.054 Q99.2326 470.054 97.4039 473.619 Q95.5984 477.161 95.5984 484.29 Q95.5984 491.397 97.4039 494.961 Q99.2326 498.503 102.844 498.503 Q106.478 498.503 108.283 494.961 Q110.112 491.397 110.112 484.29 Q110.112 477.161 108.283 473.619 Q106.478 470.054 102.844 470.054 M102.844 466.35 Q108.654 466.35 111.709 470.957 Q114.788 475.54 114.788 484.29 Q114.788 493.017 111.709 497.623 Q108.654 502.207 102.844 502.207 Q97.0335 502.207 93.9549 497.623 Q90.8993 493.017 90.8993 484.29 Q90.8993 475.54 93.9549 470.957 Q97.0335 466.35 102.844 466.35 Z" fill="#000000" fill-rule="nonzero" fill-opacity="1" /><path clip-path="url(#clip960)" d="M123.006 495.656 L127.89 495.656 L127.89 501.535 L123.006 501.535 L123.006 495.656 Z" fill="#000000" fill-rule="nonzero" fill-opacity="1" /><path clip-path="url(#clip960)" d="M142.103 497.6 L158.422 497.6 L158.422 501.535 L136.478 501.535 L136.478 497.6 Q139.14 494.846 143.723 490.216 Q148.33 485.563 149.51 484.221 Q151.755 481.698 152.635 479.962 Q153.538 478.202 153.538 476.512 Q153.538 473.758 151.593 472.022 Q149.672 470.286 146.57 470.286 Q144.371 470.286 141.918 471.05 Q139.487 471.813 136.709 473.364 L136.709 468.642 Q139.533 467.508 141.987 466.929 Q144.441 466.35 146.478 466.35 Q151.848 466.35 155.042 469.036 Q158.237 471.721 158.237 476.212 Q158.237 478.341 157.427 480.262 Q156.64 482.161 154.533 484.753 Q153.955 485.424 150.853 488.642 Q147.751 491.836 142.103 497.6 Z" fill="#000000" fill-rule="nonzero" fill-opacity="1" /><path clip-path="url(#clip960)" d="M100.76 137.177 Q97.1493 137.177 95.3206 140.742 Q93.515 144.284 93.515 151.414 Q93.515 158.52 95.3206 162.085 Q97.1493 165.626 100.76 165.626 Q104.395 165.626 106.2 162.085 Q108.029 158.52 108.029 151.414 Q108.029 144.284 106.2 140.742 Q104.395 137.177 100.76 137.177 M100.76 133.474 Q106.571 133.474 109.626 138.08 Q112.705 142.664 112.705 151.414 Q112.705 160.14 109.626 164.747 Q106.571 169.33 100.76 169.33 Q94.9502 169.33 91.8715 164.747 Q88.816 160.14 88.816 151.414 Q88.816 142.664 91.8715 138.08 Q94.9502 133.474 100.76 133.474 Z" fill="#000000" fill-rule="nonzero" fill-opacity="1" /><path clip-path="url(#clip960)" d="M120.922 162.779 L125.807 162.779 L125.807 168.659 L120.922 168.659 L120.922 162.779 Z" fill="#000000" fill-rule="nonzero" fill-opacity="1" /><path clip-path="url(#clip960)" d="M148.839 138.173 L137.033 156.622 L148.839 156.622 L148.839 138.173 M147.612 134.099 L153.492 134.099 L153.492 156.622 L158.422 156.622 L158.422 160.511 L153.492 160.511 L153.492 168.659 L148.839 168.659 L148.839 160.511 L133.237 160.511 L133.237 155.997 L147.612 134.099 Z" fill="#000000" fill-rule="nonzero" fill-opacity="1" /><path clip-path="url(#clip961)" d="M255.507 817.132 L323.379 817.262 L391.251 972.706 L459.123 1081.89 L526.996 1094.94 L594.868 1263.15 L662.74 1279.31 L730.612 1424.23 L798.484 1377.85 L866.356 1361.38 L934.228 1283.7 L1002.1 1268.45 L1069.97 1319.04 L1137.84 1351.33 L1205.72 1408.33 L1273.59 1445.72 L1341.46 1383.61 L1409.33 1280.26 L1477.21 1245.57 L1545.08 1224.14 L1612.95 1258.36 L1680.82 1193.39 L1748.69 1181.36 L1816.57 1181.46 L1884.44 1220.62 L1952.31 1200.64 L2020.18 1187.16 L2088.05 1317.29 L2155.93 1412.13 L2223.8 1415.01 L2291.67 1400.3 L2291.67 181.278 L2223.8 87.9763 L2155.93 172.189 L2088.05 171.375 L2020.18 168.27 L1952.31 149.385 L1884.44 153.159 L1816.57 195.942 L1748.69 249.697 L1680.82 240.16 L1612.95 188.84 L1545.08 245.021 L1477.21 304.509 L1409.33 186.977 L1341.46 251.321 L1273.59 276.343 L1205.72 252.569 L1137.84 303.194 L1069.97 286.892 L1002.1 266.971 L934.228 318.028 L866.356 380.808 L798.484 415.727 L730.612 478.609 L662.74 572.737 L594.868 540.102 L526.996 526.547 L459.123 593.415 L391.251 641.336 L323.379 817.262 L255.507 817.132  Z" fill="#009af9" fill-rule="evenodd" fill-opacity="0.2"/>
<polyline clip-path="url(#clip961)" style="stroke:#009af9; stroke-linecap:round; stroke-linejoin:round; stroke-width:12; stroke-opacity:1; fill:none" points="255.507,817.132 323.379,817.262 391.251,819.972 459.123,836.737 526.996,802.763 594.868,852.777 662.74,812.294 730.612,808.269 798.484,785.052 866.356,749.204 934.228,757.001 1002.1,773.181 1069.97,812.4 1137.84,851.524 1205.72,875.172 1273.59,864.673 1341.46,813.048 1409.33,824.16 1477.21,779.743 1545.08,807.027 1612.95,771.635 1680.82,729.852 1748.69,697.518 1816.57,747.159 1884.44,753.204 1952.31,783.821 2020.18,767.23 2088.05,729.315 2155.93,721.564 2223.8,708.556 2291.67,759.258 "/>
<path clip-path="url(#clip961)" d="M255.507 817.132 L323.379 842.377 L391.251 848.093 L459.123 838.728 L526.996 855.106 L594.868 844.524 L662.74 842.577 L730.612 834.105 L798.484 839.322 L866.356 838.736 L934.228 847.076 L1002.1 852.421 L1069.97 855.108 L1137.84 843.705 L1205.72 841.37 L1273.59 838.725 L1341.46 839.74 L1409.33 841.839 L1477.21 839.4 L1545.08 839.06 L1612.95 841.744 L1680.82 835.721 L1748.69 852.491 L1816.57 838.01 L1884.44 841.28 L1952.31 849.31 L2020.18 848.907 L2088.05 837.811 L2155.93 845.442 L2223.8 843.996 L2291.67 844.631 L2291.67 785.034 L2223.8 794.512 L2155.93 790.217 L2088.05 791.497 L2020.18 795.929 L1952.31 788.433 L1884.44 791.41 L1816.57 792.191 L1748.69 787.562 L1680.82 785.419 L1612.95 785.724 L1545.08 789.138 L1477.21 788.249 L1409.33 783.813 L1341.46 784.477 L1273.59 790.863 L1205.72 786.793 L1137.84 786.616 L1069.97 792.703 L1002.1 789.404 L934.228 793.554 L866.356 780.816 L798.484 791.935 L730.612 780.404 L662.74 788.101 L594.868 788.88 L526.996 798.724 L459.123 789.677 L391.251 787.44 L323.379 788.978 L255.507 817.132  Z" fill="#e26f46" fill-rule="evenodd" fill-opacity="0.2"/>
<polyline clip-path="url(#clip961)" style="stroke:#e26f46; stroke-linecap:round; stroke-linejoin:round; stroke-width:12; stroke-opacity:1; fill:none" points="255.507,817.132 323.379,817.549 391.251,815.491 459.123,813.977 526.996,823.777 594.868,815.16 662.74,817.393 730.612,813.292 798.484,815.299 866.356,816.941 934.228,814.003 1002.1,815.816 1069.97,822.293 1137.84,821.295 1205.72,811.783 1273.59,814.336 1341.46,809.903 1409.33,817.37 1477.21,816.203 1545.08,818.745 1612.95,814.446 1680.82,814.996 1748.69,816.651 1816.57,817.235 1884.44,816.935 1952.31,819.465 2020.18,812.489 2088.05,817.703 2155.93,813.85 2223.8,822.025 2291.67,816.696 "/>
</svg>
