<?xml version="1.0" encoding="utf-8"?>
<svg xmlns="http://www.w3.org/2000/svg" xmlns:xlink="http://www.w3.org/1999/xlink" width="600" height="400" viewBox="0 0 2400 1600">
<defs>
  <clipPath id="clip930">
    <rect x="0" y="0" width="2400" height="1600"/>
  </clipPath>
</defs>
<path clip-path="url(#clip930)" d="M0 1600 L2400 1600 L2400 0 L0 0  Z" fill="#ffffff" fill-rule="evenodd" fill-opacity="1"/>
<defs>
  <clipPath id="clip931">
    <rect x="192" y="47" width="2161" height="1377"/>
  </clipPath>
</defs>
<path clip-path="url(#clip930)" d="M192.709 1423.18 L2352.76 1423.18 L2352.76 47.2441 L192.709 47.2441  Z" fill="#ffffff" fill-rule="evenodd" fill-opacity="1"/>
<polyline clip-path="url(#clip931)" style="stroke:#000000; stroke-linecap:round; stroke-linejoin:round; stroke-width:2; stroke-opacity:0.1; fill:none" points="192.709,1423.18 192.709,47.2441 "/>
<polyline clip-path="url(#clip931)" style="stroke:#000000; stroke-linecap:round; stroke-linejoin:round; stroke-width:2; stroke-opacity:0.1; fill:none" points="912.725,1423.18 912.725,47.2441 "/>
<polyline clip-path="url(#clip931)" style="stroke:#000000; stroke-linecap:round; stroke-linejoin:round; stroke-width:2; stroke-opacity:0.1; fill:none" points="1632.74,1423.18 1632.74,47.2441 "/>
<polyline clip-path="url(#clip931)" style="stroke:#000000; stroke-linecap:round; stroke-linejoin:round; stroke-width:2; stroke-opacity:0.1; fill:none" points="2352.76,1423.18 2352.76,47.2441 "/>
<polyline clip-path="url(#clip931)" style="stroke:#000000; stroke-linecap:round; stroke-linejoin:round; stroke-width:2; stroke-opacity:0.1; fill:none" points="192.709,1304.83 2352.76,1304.83 "/>
<polyline clip-path="url(#clip931)" style="stroke:#000000; stroke-linecap:round; stroke-linejoin:round; stroke-width:2; stroke-opacity:0.1; fill:none" points="192.709,962.609 2352.76,962.609 "/>
<polyline clip-path="url(#clip931)" style="stroke:#000000; stroke-linecap:round; stroke-linejoin:round; stroke-width:2; stroke-opacity:0.1; fill:none" points="192.709,620.385 2352.76,620.385 "/>
<polyline clip-path="url(#clip931)" style="stroke:#000000; stroke-linecap:round; stroke-linejoin:round; stroke-width:2; stroke-opacity:0.1; fill:none" points="192.709,278.161 2352.76,278.161 "/>
<polyline clip-path="url(#clip930)" style="stroke:#000000; stroke-linecap:round; stroke-linejoin:round; stroke-width:4; stroke-opacity:1; fill:none" points="192.709,1423.18 2352.76,1423.18 "/>
<polyline clip-path="url(#clip930)" style="stroke:#000000; stroke-linecap:round; stroke-linejoin:round; stroke-width:4; stroke-opacity:1; fill:none" points="192.709,1423.18 192.709,1404.28 "/>
<polyline clip-path="url(#clip930)" style="stroke:#000000; stroke-linecap:round; stroke-linejoin:round; stroke-width:4; stroke-opacity:1; fill:none" points="912.725,1423.18 912.725,1404.28 "/>
<polyline clip-path="url(#clip930)" style="stroke:#000000; stroke-linecap:round; stroke-linejoin:round; stroke-width:4; stroke-opacity:1; fill:none" points="1632.74,1423.18 1632.74,1404.28 "/>
<polyline clip-path="url(#clip930)" style="stroke:#000000; stroke-linecap:round; stroke-linejoin:round; stroke-width:4; stroke-opacity:1; fill:none" points="2352.76,1423.18 2352.76,1404.28 "/>
<path clip-path="url(#clip930)" d="M192.709 1454.1 Q189.098 1454.1 187.269 1457.66 Q185.464 1461.2 185.464 1468.33 Q185.464 1475.44 187.269 1479.01 Q189.098 1482.55 192.709 1482.55 Q196.343 1482.55 198.149 1479.01 Q199.978 1475.44 199.978 1468.33 Q199.978 1461.2 198.149 1457.66 Q196.343 1454.1 192.709 1454.1 M192.709 1450.39 Q198.519 1450.39 201.575 1455 Q204.654 1459.58 204.654 1468.33 Q204.654 1477.06 201.575 1481.67 Q198.519 1486.25 192.709 1486.25 Q186.899 1486.25 183.82 1481.67 Q180.765 1477.06 180.765 1468.33 Q180.765 1459.58 183.82 1455 Q186.899 1450.39 192.709 1450.39 Z" fill="#000000" fill-rule="nonzero" fill-opacity="1" /><path clip-path="url(#clip930)" d="M887.412 1481.64 L895.051 1481.64 L895.051 1455.28 L886.741 1456.95 L886.741 1452.69 L895.005 1451.02 L899.681 1451.02 L899.681 1481.64 L907.32 1481.64 L907.32 1485.58 L887.412 1485.58 L887.412 1481.64 Z" fill="#000000" fill-rule="nonzero" fill-opacity="1" /><path clip-path="url(#clip930)" d="M926.764 1454.1 Q923.153 1454.1 921.324 1457.66 Q919.519 1461.2 919.519 1468.33 Q919.519 1475.44 921.324 1479.01 Q923.153 1482.55 926.764 1482.55 Q930.398 1482.55 932.204 1479.01 Q934.032 1475.44 934.032 1468.33 Q934.032 1461.2 932.204 1457.66 Q930.398 1454.1 926.764 1454.1 M926.764 1450.39 Q932.574 1450.39 935.63 1455 Q938.708 1459.58 938.708 1468.33 Q938.708 1477.06 935.63 1481.67 Q932.574 1486.25 926.764 1486.25 Q920.954 1486.25 917.875 1481.67 Q914.82 1477.06 914.82 1468.33 Q914.82 1459.58 917.875 1455 Q920.954 1450.39 926.764 1450.39 Z" fill="#000000" fill-rule="nonzero" fill-opacity="1" /><path clip-path="url(#clip930)" d="M1611.51 1481.64 L1627.83 1481.64 L1627.83 1485.58 L1605.89 1485.58 L1605.89 1481.64 Q1608.55 1478.89 1613.13 1474.26 Q1617.74 1469.61 1618.92 1468.27 Q1621.17 1465.74 1622.05 1464.01 Q1622.95 1462.25 1622.95 1460.56 Q1622.95 1457.8 1621 1456.07 Q1619.08 1454.33 1615.98 1454.33 Q1613.78 1454.33 1611.33 1455.09 Q1608.9 1455.86 1606.12 1457.41 L1606.12 1452.69 Q1608.94 1451.55 1611.4 1450.97 Q1613.85 1450.39 1615.89 1450.39 Q1621.26 1450.39 1624.45 1453.08 Q1627.65 1455.77 1627.65 1460.26 Q1627.65 1462.39 1626.84 1464.31 Q1626.05 1466.2 1623.94 1468.8 Q1623.37 1469.47 1620.26 1472.69 Q1617.16 1475.88 1611.51 1481.64 Z" fill="#000000" fill-rule="nonzero" fill-opacity="1" /><path clip-path="url(#clip930)" d="M1647.65 1454.1 Q1644.04 1454.1 1642.21 1457.66 Q1640.4 1461.2 1640.4 1468.33 Q1640.4 1475.44 1642.21 1479.01 Q1644.04 1482.55 1647.65 1482.55 Q1651.28 1482.55 1653.09 1479.01 Q1654.92 1475.44 1654.92 1468.33 Q1654.92 1461.2 1653.09 1457.66 Q1651.28 1454.1 1647.65 1454.1 M1647.65 1450.39 Q1653.46 1450.39 1656.51 1455 Q1659.59 1459.58 1659.59 1468.33 Q1659.59 1477.06 1656.51 1481.67 Q1653.46 1486.25 1647.65 1486.25 Q1641.84 1486.25 1638.76 1481.67 Q1635.7 1477.06 1635.7 1468.33 Q1635.7 1459.58 1638.76 1455 Q1641.84 1450.39 1647.65 1450.39 Z" fill="#000000" fill-rule="nonzero" fill-opacity="1" /><path clip-path="url(#clip930)" d="M2341.6 1466.95 Q2344.96 1467.66 2346.83 1469.93 Q2348.73 1472.2 2348.73 1475.53 Q2348.73 1480.65 2345.21 1483.45 Q2341.69 1486.25 2335.21 1486.25 Q2333.03 1486.25 2330.72 1485.81 Q2328.43 1485.39 2325.97 1484.54 L2325.97 1480.02 Q2327.92 1481.16 2330.23 1481.74 Q2332.55 1482.32 2335.07 1482.32 Q2339.47 1482.32 2341.76 1480.58 Q2344.08 1478.84 2344.08 1475.53 Q2344.08 1472.48 2341.92 1470.77 Q2339.79 1469.03 2335.97 1469.03 L2331.95 1469.03 L2331.95 1465.19 L2336.16 1465.19 Q2339.61 1465.19 2341.44 1463.82 Q2343.27 1462.43 2343.27 1459.84 Q2343.27 1457.18 2341.37 1455.77 Q2339.49 1454.33 2335.97 1454.33 Q2334.05 1454.33 2331.85 1454.75 Q2329.65 1455.16 2327.02 1456.04 L2327.02 1451.88 Q2329.68 1451.14 2331.99 1450.77 Q2334.33 1450.39 2336.39 1450.39 Q2341.71 1450.39 2344.82 1452.83 Q2347.92 1455.23 2347.92 1459.35 Q2347.92 1462.22 2346.27 1464.21 Q2344.63 1466.18 2341.6 1466.95 Z" fill="#000000" fill-rule="nonzero" fill-opacity="1" /><path clip-path="url(#clip930)" d="M2367.59 1454.1 Q2363.98 1454.1 2362.15 1457.66 Q2360.35 1461.2 2360.35 1468.33 Q2360.35 1475.44 2362.15 1479.01 Q2363.98 1482.55 2367.59 1482.55 Q2371.23 1482.55 2373.03 1479.01 Q2374.86 1475.44 2374.86 1468.33 Q2374.86 1461.2 2373.03 1457.66 Q2371.23 1454.1 2367.59 1454.1 M2367.59 1450.39 Q2373.4 1450.39 2376.46 1455 Q2379.54 1459.58 2379.54 1468.33 Q2379.54 1477.06 2376.46 1481.67 Q2373.4 1486.25 2367.59 1486.25 Q2361.78 1486.25 2358.7 1481.67 Q2355.65 1477.06 2355.65 1468.33 Q2355.65 1459.58 2358.7 1455 Q2361.78 1450.39 2367.59 1450.39 Z" fill="#000000" fill-rule="nonzero" fill-opacity="1" /><path clip-path="url(#clip930)" d="M1271.79 1522.27 L1271.79 1532.4 L1283.86 1532.4 L1283.86 1536.95 L1271.79 1536.95 L1271.79 1556.3 Q1271.79 1560.66 1272.97 1561.9 Q1274.18 1563.14 1277.84 1563.14 L1283.86 1563.14 L1283.86 1568.04 L1277.84 1568.04 Q1271.06 1568.04 1268.48 1565.53 Q1265.91 1562.98 1265.91 1556.3 L1265.91 1536.95 L1261.61 1536.95 L1261.61 1532.4 L1265.91 1532.4 L1265.91 1522.27 L1271.79 1522.27 Z" fill="#000000" fill-rule="nonzero" fill-opacity="1" /><polyline clip-path="url(#clip930)" style="stroke:#000000; stroke-linecap:round; stroke-linejoin:round; stroke-width:4; stroke-opacity:1; fill:none" points="192.709,1423.18 192.709,47.2441 "/>
<polyline clip-path="url(#clip930)" style="stroke:#000000; stroke-linecap:round; stroke-linejoin:round; stroke-width:4; stroke-opacity:1; fill:none" points="192.709,1304.83 211.607,1304.83 "/>
<polyline clip-path="url(#clip930)" style="stroke:#000000; stroke-linecap:round; stroke-linejoin:round; stroke-width:4; stroke-opacity:1; fill:none" points="192.709,962.609 211.607,962.609 "/>
<polyline clip-path="url(#clip930)" style="stroke:#000000; stroke-linecap:round; stroke-linejoin:round; stroke-width:4; stroke-opacity:1; fill:none" points="192.709,620.385 211.607,620.385 "/>
<polyline clip-path="url(#clip930)" style="stroke:#000000; stroke-linecap:round; stroke-linejoin:round; stroke-width:4; stroke-opacity:1; fill:none" points="192.709,278.161 211.607,278.161 "/>
<path clip-path="url(#clip930)" d="M51.3625 1305.28 L81.0383 1305.28 L81.0383 1309.22 L51.3625 1309.22 L51.3625 1305.28 Z" fill="#000000" fill-rule="nonzero" fill-opacity="1" /><path clip-path="url(#clip930)" d="M101.131 1290.63 Q97.5197 1290.63 95.691 1294.2 Q93.8854 1297.74 93.8854 1304.87 Q93.8854 1311.97 95.691 1315.54 Q97.5197 1319.08 101.131 1319.08 Q104.765 1319.08 106.571 1315.54 Q108.399 1311.97 108.399 1304.87 Q108.399 1297.74 106.571 1294.2 Q104.765 1290.63 101.131 1290.63 M101.131 1286.93 Q106.941 1286.93 109.996 1291.53 Q113.075 1296.12 113.075 1304.87 Q113.075 1313.59 109.996 1318.2 Q106.941 1322.78 101.131 1322.78 Q95.3206 1322.78 92.2419 1318.2 Q89.1864 1313.59 89.1864 1304.87 Q89.1864 1296.12 92.2419 1291.53 Q95.3206 1286.93 101.131 1286.93 Z" fill="#000000" fill-rule="nonzero" fill-opacity="1" /><path clip-path="url(#clip930)" d="M121.293 1316.23 L126.177 1316.23 L126.177 1322.11 L121.293 1322.11 L121.293 1316.23 Z" fill="#000000" fill-rule="nonzero" fill-opacity="1" /><path clip-path="url(#clip930)" d="M140.39 1318.18 L156.709 1318.18 L156.709 1322.11 L134.765 1322.11 L134.765 1318.18 Q137.427 1315.42 142.01 1310.79 Q146.617 1306.14 147.797 1304.8 Q150.043 1302.27 150.922 1300.54 Q151.825 1298.78 151.825 1297.09 Q151.825 1294.33 149.88 1292.6 Q147.959 1290.86 144.857 1290.86 Q142.658 1290.86 140.205 1291.63 Q137.774 1292.39 134.996 1293.94 L134.996 1289.22 Q137.82 1288.09 140.274 1287.51 Q142.728 1286.93 144.765 1286.93 Q150.135 1286.93 153.33 1289.61 Q156.524 1292.3 156.524 1296.79 Q156.524 1298.92 155.714 1300.84 Q154.927 1302.74 152.82 1305.33 Q152.242 1306 149.14 1309.22 Q146.038 1312.41 140.39 1318.18 Z" fill="#000000" fill-rule="nonzero" fill-opacity="1" /><path clip-path="url(#clip930)" d="M50.9921 963.06 L80.6679 963.06 L80.6679 966.995 L50.9921 966.995 L50.9921 963.06 Z" fill="#000000" fill-rule="nonzero" fill-opacity="1" /><path clip-path="url(#clip930)" d="M100.76 948.407 Q97.1493 948.407 95.3206 951.972 Q93.515 955.514 93.515 962.643 Q93.515 969.75 95.3206 973.315 Q97.1493 976.856 100.76 976.856 Q104.395 976.856 106.2 973.315 Q108.029 969.75 108.029 962.643 Q108.029 955.514 106.2 951.972 Q104.395 948.407 100.76 948.407 M100.76 944.704 Q106.571 944.704 109.626 949.31 Q112.705 953.894 112.705 962.643 Q112.705 971.37 109.626 975.977 Q106.571 980.56 100.76 980.56 Q94.9502 980.56 91.8715 975.977 Q88.816 971.37 88.816 962.643 Q88.816 953.894 91.8715 949.31 Q94.9502 944.704 100.76 944.704 Z" fill="#000000" fill-rule="nonzero" fill-opacity="1" /><path clip-path="url(#clip930)" d="M120.922 974.009 L125.807 974.009 L125.807 979.889 L120.922 979.889 L120.922 974.009 Z" fill="#000000" fill-rule="nonzero" fill-opacity="1" /><path clip-path="url(#clip930)" d="M136.802 975.954 L144.441 975.954 L144.441 949.588 L136.131 951.255 L136.131 946.995 L144.394 945.329 L149.07 945.329 L149.07 975.954 L156.709 975.954 L156.709 979.889 L136.802 979.889 L136.802 975.954 Z" fill="#000000" fill-rule="nonzero" fill-opacity="1" /><path clip-path="url(#clip930)" d="M99.5335 606.184 Q95.9224 606.184 94.0937 609.748 Q92.2882 613.29 92.2882 620.42 Q92.2882 627.526 94.0937 631.091 Q95.9224 634.633 99.5335 634.633 Q103.168 634.633 104.973 631.091 Q106.802 627.526 106.802 620.42 Q106.802 613.29 104.973 609.748 Q103.168 606.184 99.5335 606.184 M99.5335 602.48 Q105.344 602.48 108.399 607.086 Q111.478 611.67 111.478 620.42 Q111.478 629.146 108.399 633.753 Q105.344 638.336 99.5335 638.336 Q93.7234 638.336 90.6447 633.753 Q87.5892 629.146 87.5892 620.42 Q87.5892 611.67 90.6447 607.086 Q93.7234 602.48 99.5335 602.48 Z" fill="#000000" fill-rule="nonzero" fill-opacity="1" /><path clip-path="url(#clip930)" d="M119.695 631.785 L124.58 631.785 L124.58 637.665 L119.695 637.665 L119.695 631.785 Z" fill="#000000" fill-rule="nonzero" fill-opacity="1" /><path clip-path="url(#clip930)" d="M144.765 606.184 Q141.154 606.184 139.325 609.748 Q137.519 613.29 137.519 620.42 Q137.519 627.526 139.325 631.091 Q141.154 634.633 144.765 634.633 Q148.399 634.633 150.205 631.091 Q152.033 627.526 152.033 620.42 Q152.033 613.29 150.205 609.748 Q148.399 606.184 144.765 606.184 M144.765 602.48 Q150.575 602.48 153.63 607.086 Q156.709 611.67 156.709 620.42 Q156.709 629.146 153.63 633.753 Q150.575 638.336 144.765 638.336 Q138.955 638.336 135.876 633.753 Q132.82 629.146 132.82 620.42 Q132.82 611.67 135.876 607.086 Q138.955 602.48 144.765 602.48 Z" fill="#000000" fill-rule="nonzero" fill-opacity="1" /><path clip-path="url(#clip930)" d="M100.76 263.96 Q97.1493 263.96 95.3206 267.525 Q93.515 271.066 93.515 278.196 Q93.515 285.302 95.3206 288.867 Q97.1493 292.409 100.76 292.409 Q104.395 292.409 106.2 288.867 Q108.029 285.302 108.029 278.196 Q108.029 271.066 106.2 267.525 Q104.395 263.96 100.76 263.96 M100.76 260.256 Q106.571 260.256 109.626 264.863 Q112.705 269.446 112.705 278.196 Q112.705 286.923 109.626 291.529 Q106.571 296.112 100.76 296.112 Q94.9502 296.112 91.8715 291.529 Q88.816 286.923 88.816 278.196 Q88.816 269.446 91.8715 264.863 Q94.9502 260.256 100.76 260.256 Z" fill="#000000" fill-rule="nonzero" fill-opacity="1" /><path clip-path="url(#clip930)" d="M120.922 289.561 L125.807 289.561 L125.807 295.441 L120.922 295.441 L120.922 289.561 Z" fill="#000000" fill-rule="nonzero" fill-opacity="1" /><path clip-path="url(#clip930)" d="M136.802 291.506 L144.441 291.506 L144.441 265.14 L136.131 266.807 L136.131 262.548 L144.394 260.881 L149.07 260.881 L149.07 291.506 L156.709 291.506 L156.709 295.441 L136.802 295.441 L136.802 291.506 Z" fill="#000000" fill-rule="nonzero" fill-opacity="1" /><polyline clip-path="url(#clip931)" style="stroke:#009af9; stroke-linecap:round; stroke-linejoin:round; stroke-width:4; stroke-opacity:1; fill:none" points="192.709,620.385 264.711,620.653 336.712,452.969 408.714,614.365 480.715,829.875 552.717,1017.39 624.719,1185.48 696.72,1210.5 768.722,1384.24 840.723,1253.22 912.725,896.135 984.726,892.977 1056.73,712.255 1128.73,922.776 1200.73,1076.2 1272.73,996.36 1344.73,763.477 1416.74,686.4 1488.74,731.824 1560.74,815.417 1632.74,574.494 1704.74,476.239 1776.74,420.848 1848.74,176.272 1920.75,86.1857 1992.75,413.907 2064.75,438.643 2136.75,579.73 2208.75,470.443 2280.75,170.142 2352.76,273.05 "/>
<polyline clip-path="url(#clip931)" style="stroke:#e26f46; stroke-linecap:round; stroke-linejoin:round; stroke-width:4; stroke-opacity:1; fill:none" points="192.709,620.385 264.711,593.406 336.712,645.1 408.714,655.231 480.715,652.448 552.717,650.828 624.719,628.958 696.72,653.342 768.722,605.361 840.723,568.145 912.725,622.057 984.726,593.474 1056.73,655.227 1128.73,647.661 1200.73,611.138 1272.73,585.945 1344.73,609.077 1416.74,628.211 1488.74,634.759 1560.74,583.236 1632.74,604.165 1704.74,610.265 1776.74,579.556 1848.74,602.302 1920.75,669.157 1992.75,622.665 2064.75,641.686 2136.75,602.437 2208.75,571.079 2280.75,633.313 2352.76,657.385 "/>
<path clip-path="url(#clip930)" d="M264.711 248.629 L503.91 248.629 L503.91 93.1086 L264.711 93.1086  Z" fill="#ffffff" fill-rule="evenodd" fill-opacity="1"/>
<polyline clip-path="url(#clip930)" style="stroke:#000000; stroke-linecap:round; stroke-linejoin:round; stroke-width:4; stroke-opacity:1; fill:none" points="264.711,248.629 503.91,248.629 503.91,93.1086 264.711,93.1086 264.711,248.629 "/>
<polyline clip-path="url(#clip930)" style="stroke:#009af9; stroke-linecap:round; stroke-linejoin:round; stroke-width:4; stroke-opacity:1; fill:none" points="288.711,144.949 432.714,144.949 "/>
<path clip-path="url(#clip930)" d="M470.118 149.196 Q464.956 149.196 462.965 150.377 Q460.974 151.557 460.974 154.405 Q460.974 156.673 462.456 158.016 Q463.96 159.335 466.53 159.335 Q470.071 159.335 472.201 156.835 Q474.354 154.312 474.354 150.145 L474.354 149.196 L470.118 149.196 M478.613 147.437 L478.613 162.229 L474.354 162.229 L474.354 158.293 Q472.895 160.655 470.719 161.789 Q468.544 162.9 465.395 162.9 Q461.414 162.9 459.053 160.678 Q456.715 158.432 456.715 154.682 Q456.715 150.307 459.632 148.085 Q462.571 145.863 468.381 145.863 L474.354 145.863 L474.354 145.446 Q474.354 142.507 472.409 140.909 Q470.488 139.289 466.993 139.289 Q464.77 139.289 462.664 139.821 Q460.557 140.354 458.613 141.419 L458.613 137.483 Q460.951 136.581 463.15 136.141 Q465.349 135.678 467.432 135.678 Q473.057 135.678 475.835 138.594 Q478.613 141.511 478.613 147.437 Z" fill="#000000" fill-rule="nonzero" fill-opacity="1" /><polyline clip-path="url(#clip930)" style="stroke:#e26f46; stroke-linecap:round; stroke-linejoin:round; stroke-width:4; stroke-opacity:1; fill:none" points="288.711,196.789 432.714,196.789 "/>
<path clip-path="url(#clip930)" d="M475.488 201.129 Q475.488 196.43 473.543 193.768 Q471.622 191.083 468.243 191.083 Q464.863 191.083 462.919 193.768 Q460.997 196.43 460.997 201.129 Q460.997 205.828 462.919 208.513 Q464.863 211.175 468.243 211.175 Q471.622 211.175 473.543 208.513 Q475.488 205.828 475.488 201.129 M460.997 192.078 Q462.34 189.763 464.377 188.652 Q466.437 187.518 469.284 187.518 Q474.006 187.518 476.946 191.268 Q479.909 195.018 479.909 201.129 Q479.909 207.24 476.946 210.99 Q474.006 214.74 469.284 214.74 Q466.437 214.74 464.377 213.629 Q462.34 212.495 460.997 210.18 L460.997 214.069 L456.715 214.069 L456.715 178.05 L460.997 178.05 L460.997 192.078 Z" fill="#000000" fill-rule="nonzero" fill-opacity="1" /></svg>
