<?xml version="1.0" encoding="utf-8"?>
<svg xmlns="http://www.w3.org/2000/svg" xmlns:xlink="http://www.w3.org/1999/xlink" width="600" height="400" viewBox="0 0 2400 1600">
<defs>
  <clipPath id="clip990">
    <rect x="0" y="0" width="2400" height="1600"/>
  </clipPath>
</defs>
<path clip-path="url(#clip990)" d="M0 1600 L2400 1600 L2400 0 L0 0  Z" fill="#ffffff" fill-rule="evenodd" fill-opacity="1"/>
<defs>
  <clipPath id="clip991">
    <rect x="1392" y="123" width="961" height="1364"/>
  </clipPath>
</defs>
<path clip-path="url(#clip990)" d="M192.709 1486.45 L1152.76 1486.45 L1152.76 123.472 L192.709 123.472  Z" fill="#ffffff" fill-rule="evenodd" fill-opacity="1"/>
<defs>
  <clipPath id="clip992">
    <rect x="192" y="123" width="961" height="1364"/>
  </clipPath>
</defs>
<polyline clip-path="url(#clip992)" style="stroke:#000000; stroke-linecap:round; stroke-linejoin:round; stroke-width:2; stroke-opacity:0.1; fill:none" points="340.641,1486.45 340.641,123.472 "/>
<polyline clip-path="url(#clip992)" style="stroke:#000000; stroke-linecap:round; stroke-linejoin:round; stroke-width:2; stroke-opacity:0.1; fill:none" points="491.592,1486.45 491.592,123.472 "/>
<polyline clip-path="url(#clip992)" style="stroke:#000000; stroke-linecap:round; stroke-linejoin:round; stroke-width:2; stroke-opacity:0.1; fill:none" points="642.542,1486.45 642.542,123.472 "/>
<polyline clip-path="url(#clip992)" style="stroke:#000000; stroke-linecap:round; stroke-linejoin:round; stroke-width:2; stroke-opacity:0.1; fill:none" points="793.493,1486.45 793.493,123.472 "/>
<polyline clip-path="url(#clip992)" style="stroke:#000000; stroke-linecap:round; stroke-linejoin:round; stroke-width:2; stroke-opacity:0.1; fill:none" points="944.444,1486.45 944.444,123.472 "/>
<polyline clip-path="url(#clip992)" style="stroke:#000000; stroke-linecap:round; stroke-linejoin:round; stroke-width:2; stroke-opacity:0.1; fill:none" points="1095.39,1486.45 1095.39,123.472 "/>
<polyline clip-path="url(#clip992)" style="stroke:#000000; stroke-linecap:round; stroke-linejoin:round; stroke-width:2; stroke-opacity:0.1; fill:none" points="192.709,1347.5 1152.76,1347.5 "/>
<polyline clip-path="url(#clip992)" style="stroke:#000000; stroke-linecap:round; stroke-linejoin:round; stroke-width:2; stroke-opacity:0.1; fill:none" points="192.709,987.441 1152.76,987.441 "/>
<polyline clip-path="url(#clip992)" style="stroke:#000000; stroke-linecap:round; stroke-linejoin:round; stroke-width:2; stroke-opacity:0.1; fill:none" points="192.709,627.384 1152.76,627.384 "/>
<polyline clip-path="url(#clip992)" style="stroke:#000000; stroke-linecap:round; stroke-linejoin:round; stroke-width:2; stroke-opacity:0.1; fill:none" points="192.709,267.328 1152.76,267.328 "/>
<polyline clip-path="url(#clip990)" style="stroke:#000000; stroke-linecap:round; stroke-linejoin:round; stroke-width:4; stroke-opacity:1; fill:none" points="192.709,1486.45 1152.76,1486.45 "/>
<polyline clip-path="url(#clip990)" style="stroke:#000000; stroke-linecap:round; stroke-linejoin:round; stroke-width:4; stroke-opacity:1; fill:none" points="340.641,1486.45 340.641,1467.55 "/>
<polyline clip-path="url(#clip990)" style="stroke:#000000; stroke-linecap:round; stroke-linejoin:round; stroke-width:4; stroke-opacity:1; fill:none" points="491.592,1486.45 491.592,1467.55 "/>
<polyline clip-path="url(#clip990)" style="stroke:#000000; stroke-linecap:round; stroke-linejoin:round; stroke-width:4; stroke-opacity:1; fill:none" points="642.542,1486.45 642.542,1467.55 "/>
<polyline clip-path="url(#clip990)" style="stroke:#000000; stroke-linecap:round; stroke-linejoin:round; stroke-width:4; stroke-opacity:1; fill:none" points="793.493,1486.45 793.493,1467.55 "/>
<polyline clip-path="url(#clip990)" style="stroke:#000000; stroke-linecap:round; stroke-linejoin:round; stroke-width:4; stroke-opacity:1; fill:none" points="944.444,1486.45 944.444,1467.55 "/>
<polyline clip-path="url(#clip990)" style="stroke:#000000; stroke-linecap:round; stroke-linejoin:round; stroke-width:4; stroke-opacity:1; fill:none" points="1095.39,1486.45 1095.39,1467.55 "/>
<path clip-path="url(#clip990)" d="M330.919 1514.29 L349.275 1514.29 L349.275 1518.22 L335.201 1518.22 L335.201 1526.7 Q336.22 1526.35 337.238 1526.19 Q338.257 1526 339.275 1526 Q345.062 1526 348.442 1529.17 Q351.821 1532.34 351.821 1537.76 Q351.821 1543.34 348.349 1546.44 Q344.877 1549.52 338.558 1549.52 Q336.382 1549.52 334.113 1549.15 Q331.868 1548.78 329.46 1548.04 L329.46 1543.34 Q331.544 1544.47 333.766 1545.03 Q335.988 1545.58 338.465 1545.58 Q342.47 1545.58 344.808 1543.48 Q347.145 1541.37 347.145 1537.76 Q347.145 1534.15 344.808 1532.04 Q342.47 1529.94 338.465 1529.94 Q336.59 1529.94 334.715 1530.35 Q332.863 1530.77 330.919 1531.65 L330.919 1514.29 Z" fill="#000000" fill-rule="nonzero" fill-opacity="1" /><path clip-path="url(#clip990)" d="M466.279 1544.91 L473.918 1544.91 L473.918 1518.55 L465.608 1520.21 L465.608 1515.95 L473.872 1514.29 L478.548 1514.29 L478.548 1544.91 L486.187 1544.91 L486.187 1548.85 L466.279 1548.85 L466.279 1544.91 Z" fill="#000000" fill-rule="nonzero" fill-opacity="1" /><path clip-path="url(#clip990)" d="M505.631 1517.37 Q502.02 1517.37 500.191 1520.93 Q498.386 1524.47 498.386 1531.6 Q498.386 1538.71 500.191 1542.27 Q502.02 1545.82 505.631 1545.82 Q509.265 1545.82 511.071 1542.27 Q512.899 1538.71 512.899 1531.6 Q512.899 1524.47 511.071 1520.93 Q509.265 1517.37 505.631 1517.37 M505.631 1513.66 Q511.441 1513.66 514.497 1518.27 Q517.575 1522.85 517.575 1531.6 Q517.575 1540.33 514.497 1544.94 Q511.441 1549.52 505.631 1549.52 Q499.821 1549.52 496.742 1544.94 Q493.687 1540.33 493.687 1531.6 Q493.687 1522.85 496.742 1518.27 Q499.821 1513.66 505.631 1513.66 Z" fill="#000000" fill-rule="nonzero" fill-opacity="1" /><path clip-path="url(#clip990)" d="M617.728 1544.91 L625.367 1544.91 L625.367 1518.55 L617.056 1520.21 L617.056 1515.95 L625.32 1514.29 L629.996 1514.29 L629.996 1544.91 L637.635 1544.91 L637.635 1548.85 L617.728 1548.85 L617.728 1544.91 Z" fill="#000000" fill-rule="nonzero" fill-opacity="1" /><path clip-path="url(#clip990)" d="M647.126 1514.29 L665.482 1514.29 L665.482 1518.22 L651.408 1518.22 L651.408 1526.7 Q652.427 1526.35 653.445 1526.19 Q654.464 1526 655.482 1526 Q661.269 1526 664.649 1529.17 Q668.028 1532.34 668.028 1537.76 Q668.028 1543.34 664.556 1546.44 Q661.084 1549.52 654.765 1549.52 Q652.589 1549.52 650.32 1549.15 Q648.075 1548.78 645.667 1548.04 L645.667 1543.34 Q647.751 1544.47 649.973 1545.03 Q652.195 1545.58 654.672 1545.58 Q658.677 1545.58 661.015 1543.48 Q663.352 1541.37 663.352 1537.76 Q663.352 1534.15 661.015 1532.04 Q658.677 1529.94 654.672 1529.94 Q652.797 1529.94 650.922 1530.35 Q649.07 1530.77 647.126 1531.65 L647.126 1514.29 Z" fill="#000000" fill-rule="nonzero" fill-opacity="1" /><path clip-path="url(#clip990)" d="M772.266 1544.91 L788.586 1544.91 L788.586 1548.85 L766.641 1548.85 L766.641 1544.91 Q769.303 1542.16 773.887 1537.53 Q778.493 1532.88 779.674 1531.53 Q781.919 1529.01 782.799 1527.27 Q783.702 1525.51 783.702 1523.82 Q783.702 1521.07 781.757 1519.33 Q779.836 1517.6 776.734 1517.6 Q774.535 1517.6 772.081 1518.36 Q769.651 1519.13 766.873 1520.68 L766.873 1515.95 Q769.697 1514.82 772.151 1514.24 Q774.604 1513.66 776.641 1513.66 Q782.012 1513.66 785.206 1516.35 Q788.401 1519.03 788.401 1523.52 Q788.401 1525.65 787.59 1527.57 Q786.803 1529.47 784.697 1532.07 Q784.118 1532.74 781.016 1535.95 Q777.915 1539.15 772.266 1544.91 Z" fill="#000000" fill-rule="nonzero" fill-opacity="1" /><path clip-path="url(#clip990)" d="M808.4 1517.37 Q804.789 1517.37 802.961 1520.93 Q801.155 1524.47 801.155 1531.6 Q801.155 1538.71 802.961 1542.27 Q804.789 1545.82 808.4 1545.82 Q812.035 1545.82 813.84 1542.27 Q815.669 1538.71 815.669 1531.6 Q815.669 1524.47 813.84 1520.93 Q812.035 1517.37 808.4 1517.37 M808.4 1513.66 Q814.211 1513.66 817.266 1518.27 Q820.345 1522.85 820.345 1531.6 Q820.345 1540.33 817.266 1544.94 Q814.211 1549.52 808.4 1549.52 Q802.59 1549.52 799.512 1544.94 Q796.456 1540.33 796.456 1531.6 Q796.456 1522.85 799.512 1518.27 Q802.59 1513.66 808.4 1513.66 Z" fill="#000000" fill-rule="nonzero" fill-opacity="1" /><path clip-path="url(#clip990)" d="M923.715 1544.91 L940.034 1544.91 L940.034 1548.85 L918.09 1548.85 L918.09 1544.91 Q920.752 1542.16 925.335 1537.53 Q929.942 1532.88 931.122 1531.53 Q933.368 1529.01 934.247 1527.27 Q935.15 1525.51 935.15 1523.82 Q935.15 1521.07 933.206 1519.33 Q931.284 1517.6 928.182 1517.6 Q925.983 1517.6 923.53 1518.36 Q921.099 1519.13 918.321 1520.68 L918.321 1515.95 Q921.145 1514.82 923.599 1514.24 Q926.053 1513.66 928.09 1513.66 Q933.46 1513.66 936.655 1516.35 Q939.849 1519.03 939.849 1523.52 Q939.849 1525.65 939.039 1527.57 Q938.252 1529.47 936.145 1532.07 Q935.567 1532.74 932.465 1535.95 Q929.363 1539.15 923.715 1544.91 Z" fill="#000000" fill-rule="nonzero" fill-opacity="1" /><path clip-path="url(#clip990)" d="M949.895 1514.29 L968.252 1514.29 L968.252 1518.22 L954.178 1518.22 L954.178 1526.7 Q955.196 1526.35 956.215 1526.19 Q957.233 1526 958.252 1526 Q964.039 1526 967.418 1529.17 Q970.798 1532.34 970.798 1537.76 Q970.798 1543.34 967.326 1546.44 Q963.853 1549.52 957.534 1549.52 Q955.358 1549.52 953.09 1549.15 Q950.844 1548.78 948.437 1548.04 L948.437 1543.34 Q950.52 1544.47 952.742 1545.03 Q954.965 1545.58 957.441 1545.58 Q961.446 1545.58 963.784 1543.48 Q966.122 1541.37 966.122 1537.76 Q966.122 1534.15 963.784 1532.04 Q961.446 1529.94 957.441 1529.94 Q955.566 1529.94 953.692 1530.35 Q951.84 1530.77 949.895 1531.65 L949.895 1514.29 Z" fill="#000000" fill-rule="nonzero" fill-opacity="1" /><path clip-path="url(#clip990)" d="M1084.24 1530.21 Q1087.59 1530.93 1089.47 1533.2 Q1091.37 1535.47 1091.37 1538.8 Q1091.37 1543.92 1087.85 1546.72 Q1084.33 1549.52 1077.85 1549.52 Q1075.67 1549.52 1073.36 1549.08 Q1071.07 1548.66 1068.61 1547.81 L1068.61 1543.29 Q1070.56 1544.43 1072.87 1545.01 Q1075.19 1545.58 1077.71 1545.58 Q1082.11 1545.58 1084.4 1543.85 Q1086.71 1542.11 1086.71 1538.8 Q1086.71 1535.75 1084.56 1534.03 Q1082.43 1532.3 1078.61 1532.3 L1074.58 1532.3 L1074.58 1528.45 L1078.8 1528.45 Q1082.25 1528.45 1084.08 1527.09 Q1085.9 1525.7 1085.9 1523.11 Q1085.9 1520.45 1084.01 1519.03 Q1082.13 1517.6 1078.61 1517.6 Q1076.69 1517.6 1074.49 1518.01 Q1072.29 1518.43 1069.65 1519.31 L1069.65 1515.14 Q1072.32 1514.4 1074.63 1514.03 Q1076.97 1513.66 1079.03 1513.66 Q1084.35 1513.66 1087.45 1516.09 Q1090.56 1518.5 1090.56 1522.62 Q1090.56 1525.49 1088.91 1527.48 Q1087.27 1529.45 1084.24 1530.21 Z" fill="#000000" fill-rule="nonzero" fill-opacity="1" /><path clip-path="url(#clip990)" d="M1110.23 1517.37 Q1106.62 1517.37 1104.79 1520.93 Q1102.99 1524.47 1102.99 1531.6 Q1102.99 1538.71 1104.79 1542.27 Q1106.62 1545.82 1110.23 1545.82 Q1113.87 1545.82 1115.67 1542.27 Q1117.5 1538.71 1117.5 1531.6 Q1117.5 1524.47 1115.67 1520.93 Q1113.87 1517.37 1110.23 1517.37 M1110.23 1513.66 Q1116.04 1513.66 1119.1 1518.27 Q1122.18 1522.85 1122.18 1531.6 Q1122.18 1540.33 1119.1 1544.94 Q1116.04 1549.52 1110.23 1549.52 Q1104.42 1549.52 1101.34 1544.94 Q1098.29 1540.33 1098.29 1531.6 Q1098.29 1522.85 1101.34 1518.27 Q1104.42 1513.66 1110.23 1513.66 Z" fill="#000000" fill-rule="nonzero" fill-opacity="1" /><polyline clip-path="url(#clip990)" style="stroke:#000000; stroke-linecap:round; stroke-linejoin:round; stroke-width:4; stroke-opacity:1; fill:none" points="192.709,1486.45 192.709,123.472 "/>
<polyline clip-path="url(#clip990)" style="stroke:#000000; stroke-linecap:round; stroke-linejoin:round; stroke-width:4; stroke-opacity:1; fill:none" points="192.709,1347.5 211.607,1347.5 "/>
<polyline clip-path="url(#clip990)" style="stroke:#000000; stroke-linecap:round; stroke-linejoin:round; stroke-width:4; stroke-opacity:1; fill:none" points="192.709,987.441 211.607,987.441 "/>
<polyline clip-path="url(#clip990)" style="stroke:#000000; stroke-linecap:round; stroke-linejoin:round; stroke-width:4; stroke-opacity:1; fill:none" points="192.709,627.384 211.607,627.384 "/>
<polyline clip-path="url(#clip990)" style="stroke:#000000; stroke-linecap:round; stroke-linejoin:round; stroke-width:4; stroke-opacity:1; fill:none" points="192.709,267.328 211.607,267.328 "/>
<path clip-path="url(#clip990)" d="M50.9921 1347.95 L80.6679 1347.95 L80.6679 1351.88 L50.9921 1351.88 L50.9921 1347.95 Z" fill="#000000" fill-rule="nonzero" fill-opacity="1" /><path clip-path="url(#clip990)" d="M100.76 1333.3 Q97.1493 1333.3 95.3206 1336.86 Q93.515 1340.4 93.515 1347.53 Q93.515 1354.64 95.3206 1358.2 Q97.1493 1361.75 100.76 1361.75 Q104.395 1361.75 106.2 1358.2 Q108.029 1354.64 108.029 1347.53 Q108.029 1340.4 106.2 1336.86 Q104.395 1333.3 100.76 1333.3 M100.76 1329.59 Q106.571 1329.59 109.626 1334.2 Q112.705 1338.78 112.705 1347.53 Q112.705 1356.26 109.626 1360.87 Q106.571 1365.45 100.76 1365.45 Q94.9502 1365.45 91.8715 1360.87 Q88.816 1356.26 88.816 1347.53 Q88.816 1338.78 91.8715 1334.2 Q94.9502 1329.59 100.76 1329.59 Z" fill="#000000" fill-rule="nonzero" fill-opacity="1" /><path clip-path="url(#clip990)" d="M120.922 1358.9 L125.807 1358.9 L125.807 1364.78 L120.922 1364.78 L120.922 1358.9 Z" fill="#000000" fill-rule="nonzero" fill-opacity="1" /><path clip-path="url(#clip990)" d="M136.802 1360.84 L144.441 1360.84 L144.441 1334.48 L136.131 1336.14 L136.131 1331.88 L144.394 1330.22 L149.07 1330.22 L149.07 1360.84 L156.709 1360.84 L156.709 1364.78 L136.802 1364.78 L136.802 1360.84 Z" fill="#000000" fill-rule="nonzero" fill-opacity="1" /><path clip-path="url(#clip990)" d="M99.5335 973.24 Q95.9224 973.24 94.0937 976.804 Q92.2882 980.346 92.2882 987.476 Q92.2882 994.582 94.0937 998.147 Q95.9224 1001.69 99.5335 1001.69 Q103.168 1001.69 104.973 998.147 Q106.802 994.582 106.802 987.476 Q106.802 980.346 104.973 976.804 Q103.168 973.24 99.5335 973.24 M99.5335 969.536 Q105.344 969.536 108.399 974.142 Q111.478 978.726 111.478 987.476 Q111.478 996.202 108.399 1000.81 Q105.344 1005.39 99.5335 1005.39 Q93.7234 1005.39 90.6447 1000.81 Q87.5892 996.202 87.5892 987.476 Q87.5892 978.726 90.6447 974.142 Q93.7234 969.536 99.5335 969.536 Z" fill="#000000" fill-rule="nonzero" fill-opacity="1" /><path clip-path="url(#clip990)" d="M119.695 998.841 L124.58 998.841 L124.58 1004.72 L119.695 1004.72 L119.695 998.841 Z" fill="#000000" fill-rule="nonzero" fill-opacity="1" /><path clip-path="url(#clip990)" d="M144.765 973.24 Q141.154 973.24 139.325 976.804 Q137.519 980.346 137.519 987.476 Q137.519 994.582 139.325 998.147 Q141.154 1001.69 144.765 1001.69 Q148.399 1001.69 150.205 998.147 Q152.033 994.582 152.033 987.476 Q152.033 980.346 150.205 976.804 Q148.399 973.24 144.765 973.24 M144.765 969.536 Q150.575 969.536 153.63 974.142 Q156.709 978.726 156.709 987.476 Q156.709 996.202 153.63 1000.81 Q150.575 1005.39 144.765 1005.39 Q138.955 1005.39 135.876 1000.81 Q132.82 996.202 132.82 987.476 Q132.82 978.726 135.876 974.142 Q138.955 969.536 144.765 969.536 Z" fill="#000000" fill-rule="nonzero" fill-opacity="1" /><path clip-path="url(#clip990)" d="M100.76 613.183 Q97.1493 613.183 95.3206 616.748 Q93.515 620.29 93.515 627.419 Q93.515 634.526 95.3206 638.09 Q97.1493 641.632 100.76 641.632 Q104.395 641.632 106.2 638.09 Q108.029 634.526 108.029 627.419 Q108.029 620.29 106.2 616.748 Q104.395 613.183 100.76 613.183 M100.76 609.479 Q106.571 609.479 109.626 614.086 Q112.705 618.669 112.705 627.419 Q112.705 636.146 109.626 640.752 Q106.571 645.336 100.76 645.336 Q94.9502 645.336 91.8715 640.752 Q88.816 636.146 88.816 627.419 Q88.816 618.669 91.8715 614.086 Q94.9502 609.479 100.76 609.479 Z" fill="#000000" fill-rule="nonzero" fill-opacity="1" /><path clip-path="url(#clip990)" d="M120.922 638.785 L125.807 638.785 L125.807 644.664 L120.922 644.664 L120.922 638.785 Z" fill="#000000" fill-rule="nonzero" fill-opacity="1" /><path clip-path="url(#clip990)" d="M136.802 640.729 L144.441 640.729 L144.441 614.364 L136.131 616.03 L136.131 611.771 L144.394 610.104 L149.07 610.104 L149.07 640.729 L156.709 640.729 L156.709 644.664 L136.802 644.664 L136.802 640.729 Z" fill="#000000" fill-rule="nonzero" fill-opacity="1" /><path clip-path="url(#clip990)" d="M101.131 253.127 Q97.5197 253.127 95.691 256.691 Q93.8854 260.233 93.8854 267.363 Q93.8854 274.469 95.691 278.034 Q97.5197 281.576 101.131 281.576 Q104.765 281.576 106.571 278.034 Q108.399 274.469 108.399 267.363 Q108.399 260.233 106.571 256.691 Q104.765 253.127 101.131 253.127 M101.131 249.423 Q106.941 249.423 109.996 254.029 Q113.075 258.613 113.075 267.363 Q113.075 276.089 109.996 280.696 Q106.941 285.279 101.131 285.279 Q95.3206 285.279 92.2419 280.696 Q89.1864 276.089 89.1864 267.363 Q89.1864 258.613 92.2419 254.029 Q95.3206 249.423 101.131 249.423 Z" fill="#000000" fill-rule="nonzero" fill-opacity="1" /><path clip-path="url(#clip990)" d="M121.293 278.728 L126.177 278.728 L126.177 284.608 L121.293 284.608 L121.293 278.728 Z" fill="#000000" fill-rule="nonzero" fill-opacity="1" /><path clip-path="url(#clip990)" d="M140.39 280.673 L156.709 280.673 L156.709 284.608 L134.765 284.608 L134.765 280.673 Q137.427 277.918 142.01 273.289 Q146.617 268.636 147.797 267.293 Q150.043 264.77 150.922 263.034 Q151.825 261.275 151.825 259.585 Q151.825 256.83 149.88 255.094 Q147.959 253.358 144.857 253.358 Q142.658 253.358 140.205 254.122 Q137.774 254.886 134.996 256.437 L134.996 251.715 Q137.82 250.58 140.274 250.002 Q142.728 249.423 144.765 249.423 Q150.135 249.423 153.33 252.108 Q156.524 254.793 156.524 259.284 Q156.524 261.414 155.714 263.335 Q154.927 265.233 152.82 267.826 Q152.242 268.497 149.14 271.714 Q146.038 274.909 140.39 280.673 Z" fill="#000000" fill-rule="nonzero" fill-opacity="1" /><path clip-path="url(#clip990)" d="M568.847 14.0809 L568.847 22.0612 Q564.189 19.8332 560.057 18.7395 Q555.925 17.6457 552.076 17.6457 Q545.392 17.6457 541.747 20.2383 Q538.141 22.8309 538.141 27.611 Q538.141 31.6214 540.531 33.6873 Q542.962 35.7128 549.686 36.9686 L554.628 37.9813 Q563.783 39.7232 568.118 44.1387 Q572.493 48.5136 572.493 55.8863 Q572.493 64.6767 566.579 69.2137 Q560.705 73.7508 549.322 73.7508 Q545.028 73.7508 540.167 72.7785 Q535.346 71.8063 530.161 69.9024 L530.161 61.4765 Q535.144 64.2716 539.924 65.6895 Q544.704 67.1073 549.322 67.1073 Q556.33 67.1073 560.138 64.3527 Q563.945 61.598 563.945 56.4939 Q563.945 52.0379 561.191 49.5264 Q558.477 47.0148 552.238 45.759 L547.256 44.7868 Q538.101 42.9639 534.009 39.075 Q529.918 35.1862 529.918 28.2591 Q529.918 20.2383 535.549 15.6203 Q541.22 11.0023 551.145 11.0023 Q555.398 11.0023 559.814 11.7719 Q564.229 12.5416 568.847 14.0809 Z" fill="#000000" fill-rule="nonzero" fill-opacity="1" /><path clip-path="url(#clip990)" d="M592.302 14.324 L592.302 27.2059 L607.655 27.2059 L607.655 32.9987 L592.302 32.9987 L592.302 57.6282 Q592.302 63.1779 593.801 64.7578 Q595.34 66.3376 599.999 66.3376 L607.655 66.3376 L607.655 72.576 L599.999 72.576 Q591.37 72.576 588.089 69.3758 Q584.808 66.1351 584.808 57.6282 L584.808 32.9987 L579.339 32.9987 L579.339 27.2059 L584.808 27.2059 L584.808 14.324 L592.302 14.324 Z" fill="#000000" fill-rule="nonzero" fill-opacity="1" /><path clip-path="url(#clip990)" d="M638.077 49.7694 Q629.044 49.7694 625.56 51.8354 Q622.076 53.9013 622.076 58.8839 Q622.076 62.8538 624.669 65.2034 Q627.302 67.5124 631.798 67.5124 Q637.996 67.5124 641.723 63.1374 Q645.49 58.7219 645.49 51.4303 L645.49 49.7694 L638.077 49.7694 M652.944 46.6907 L652.944 72.576 L645.49 72.576 L645.49 65.6895 Q642.938 69.8214 639.13 71.8063 Q635.322 73.7508 629.813 73.7508 Q622.846 73.7508 618.714 69.8619 Q614.622 65.9325 614.622 59.3701 Q614.622 51.7138 619.726 47.825 Q624.871 43.9361 635.039 43.9361 L645.49 43.9361 L645.49 43.2069 Q645.49 38.0623 642.087 35.2672 Q638.725 32.4315 632.608 32.4315 Q628.719 32.4315 625.033 33.3632 Q621.347 34.295 617.944 36.1584 L617.944 29.2718 Q622.035 27.692 625.884 26.9223 Q629.732 26.1121 633.378 26.1121 Q643.222 26.1121 648.083 31.2163 Q652.944 36.3204 652.944 46.6907 Z" fill="#000000" fill-rule="nonzero" fill-opacity="1" /><path clip-path="url(#clip990)" d="M675.669 14.324 L675.669 27.2059 L691.022 27.2059 L691.022 32.9987 L675.669 32.9987 L675.669 57.6282 Q675.669 63.1779 677.168 64.7578 Q678.708 66.3376 683.366 66.3376 L691.022 66.3376 L691.022 72.576 L683.366 72.576 Q674.738 72.576 671.456 69.3758 Q668.175 66.1351 668.175 57.6282 L668.175 32.9987 L662.707 32.9987 L662.707 27.2059 L668.175 27.2059 L668.175 14.324 L675.669 14.324 Z" fill="#000000" fill-rule="nonzero" fill-opacity="1" /><path clip-path="url(#clip990)" d="M739.633 48.0275 L739.633 51.6733 L705.363 51.6733 Q705.849 59.3701 709.981 63.421 Q714.153 67.4314 721.566 67.4314 Q725.86 67.4314 729.871 66.3781 Q733.921 65.3249 737.891 63.2184 L737.891 70.267 Q733.881 71.9684 729.668 72.8596 Q725.455 73.7508 721.121 73.7508 Q710.264 73.7508 703.904 67.4314 Q697.585 61.1119 697.585 50.3365 Q697.585 39.1965 703.58 32.6746 Q709.616 26.1121 719.824 26.1121 Q728.979 26.1121 734.286 32.0264 Q739.633 37.9003 739.633 48.0275 M732.18 45.84 Q732.099 39.7232 728.736 36.0774 Q725.415 32.4315 719.905 32.4315 Q713.667 32.4315 709.9 35.9558 Q706.173 39.4801 705.606 45.8805 L732.18 45.84 Z" fill="#000000" fill-rule="nonzero" fill-opacity="1" /><path clip-path="url(#clip990)" d="M780.709 65.6895 L794.077 65.6895 L794.077 19.5497 L779.535 22.4663 L779.535 15.0127 L793.996 12.096 L802.179 12.096 L802.179 65.6895 L815.547 65.6895 L815.547 72.576 L780.709 72.576 L780.709 65.6895 Z" fill="#000000" fill-rule="nonzero" fill-opacity="1" /><polyline clip-path="url(#clip992)" style="stroke:#009af9; stroke-linecap:round; stroke-linejoin:round; stroke-width:4; stroke-opacity:1; fill:none" points="219.88,987.441 250.07,987.723 280.261,937.195 310.451,890.394 340.641,642.232 370.831,198.205 401.021,162.047 431.211,233.644 461.401,720.32 491.592,1164.09 521.782,1168.88 551.972,1154.06 582.162,1273.79 612.352,1447.87 642.542,1257.06 672.733,993.22 702.923,845.343 733.113,684.092 763.303,838.906 793.493,830.33 823.683,999.021 853.873,1123.88 884.064,883.549 914.254,771.16 944.444,1070.18 974.634,1068.93 1004.82,1198.12 1035.01,1029.93 1065.2,966.021 1095.39,708.682 1125.58,403.272 "/>
<path clip-path="url(#clip990)" d="M224.711 1441.02 L541.409 1441.02 L541.409 1337.34 L224.711 1337.34  Z" fill="#ffffff" fill-rule="evenodd" fill-opacity="1"/>
<polyline clip-path="url(#clip990)" style="stroke:#000000; stroke-linecap:round; stroke-linejoin:round; stroke-width:4; stroke-opacity:1; fill:none" points="224.711,1441.02 541.409,1441.02 541.409,1337.34 224.711,1337.34 224.711,1441.02 "/>
<polyline clip-path="url(#clip990)" style="stroke:#009af9; stroke-linecap:round; stroke-linejoin:round; stroke-width:4; stroke-opacity:1; fill:none" points="235.378,1389.18 299.381,1389.18 "/>
<path clip-path="url(#clip990)" d="M310.048 1396.22 L310.048 1380.53 L314.307 1380.53 L314.307 1396.06 Q314.307 1399.74 315.743 1401.59 Q317.178 1403.42 320.048 1403.42 Q323.497 1403.42 325.488 1401.22 Q327.502 1399.02 327.502 1395.23 L327.502 1380.53 L331.761 1380.53 L331.761 1406.46 L327.502 1406.46 L327.502 1402.47 Q325.951 1404.83 323.891 1405.99 Q321.854 1407.13 319.145 1407.13 Q314.678 1407.13 312.363 1404.35 Q310.048 1401.57 310.048 1396.22 M320.766 1379.9 L320.766 1379.9 Z" fill="#000000" fill-rule="nonzero" fill-opacity="1" /><path clip-path="url(#clip990)" d="M362.085 1390.81 L362.085 1406.46 L357.826 1406.46 L357.826 1390.95 Q357.826 1387.27 356.391 1385.44 Q354.955 1383.61 352.085 1383.61 Q348.636 1383.61 346.645 1385.81 Q344.654 1388.01 344.654 1391.8 L344.654 1406.46 L340.372 1406.46 L340.372 1380.53 L344.654 1380.53 L344.654 1384.56 Q346.182 1382.22 348.242 1381.06 Q350.326 1379.9 353.034 1379.9 Q357.502 1379.9 359.793 1382.68 Q362.085 1385.44 362.085 1390.81 Z" fill="#000000" fill-rule="nonzero" fill-opacity="1" /><path clip-path="url(#clip990)" d="M374.701 1402.57 L374.701 1416.32 L370.418 1416.32 L370.418 1380.53 L374.701 1380.53 L374.701 1384.46 Q376.043 1382.15 378.08 1381.04 Q380.14 1379.9 382.988 1379.9 Q387.71 1379.9 390.65 1383.65 Q393.613 1387.4 393.613 1393.52 Q393.613 1399.63 390.65 1403.38 Q387.71 1407.13 382.988 1407.13 Q380.14 1407.13 378.08 1406.02 Q376.043 1404.88 374.701 1402.57 M389.191 1393.52 Q389.191 1388.82 387.247 1386.15 Q385.326 1383.47 381.946 1383.47 Q378.566 1383.47 376.622 1386.15 Q374.701 1388.82 374.701 1393.52 Q374.701 1398.21 376.622 1400.9 Q378.566 1403.56 381.946 1403.56 Q385.326 1403.56 387.247 1400.9 Q389.191 1398.21 389.191 1393.52 Z" fill="#000000" fill-rule="nonzero" fill-opacity="1" /><path clip-path="url(#clip990)" d="M415.696 1384.51 Q414.978 1384.09 414.122 1383.91 Q413.288 1383.7 412.27 1383.7 Q408.659 1383.7 406.714 1386.06 Q404.793 1388.4 404.793 1392.8 L404.793 1406.46 L400.511 1406.46 L400.511 1380.53 L404.793 1380.53 L404.793 1384.56 Q406.136 1382.2 408.288 1381.06 Q410.441 1379.9 413.52 1379.9 Q413.96 1379.9 414.492 1379.97 Q415.024 1380.02 415.673 1380.14 L415.696 1384.51 Z" fill="#000000" fill-rule="nonzero" fill-opacity="1" /><path clip-path="url(#clip990)" d="M419.724 1396.22 L419.724 1380.53 L423.983 1380.53 L423.983 1396.06 Q423.983 1399.74 425.418 1401.59 Q426.853 1403.42 429.723 1403.42 Q433.173 1403.42 435.163 1401.22 Q437.177 1399.02 437.177 1395.23 L437.177 1380.53 L441.436 1380.53 L441.436 1406.46 L437.177 1406.46 L437.177 1402.47 Q435.626 1404.83 433.566 1405.99 Q431.529 1407.13 428.821 1407.13 Q424.353 1407.13 422.038 1404.35 Q419.724 1401.57 419.724 1396.22 M430.441 1379.9 L430.441 1379.9 Z" fill="#000000" fill-rule="nonzero" fill-opacity="1" /><path clip-path="url(#clip990)" d="M471.76 1390.81 L471.76 1406.46 L467.501 1406.46 L467.501 1390.95 Q467.501 1387.27 466.066 1385.44 Q464.631 1383.61 461.76 1383.61 Q458.311 1383.61 456.321 1385.81 Q454.33 1388.01 454.33 1391.8 L454.33 1406.46 L450.047 1406.46 L450.047 1380.53 L454.33 1380.53 L454.33 1384.56 Q455.858 1382.22 457.918 1381.06 Q460.001 1379.9 462.709 1379.9 Q467.177 1379.9 469.469 1382.68 Q471.76 1385.44 471.76 1390.81 Z" fill="#000000" fill-rule="nonzero" fill-opacity="1" /><path clip-path="url(#clip990)" d="M502.431 1392.43 L502.431 1394.51 L482.848 1394.51 Q483.126 1398.91 485.487 1401.22 Q487.871 1403.52 492.107 1403.52 Q494.561 1403.52 496.853 1402.91 Q499.168 1402.31 501.436 1401.11 L501.436 1405.14 Q499.144 1406.11 496.737 1406.62 Q494.33 1407.13 491.853 1407.13 Q485.649 1407.13 482.015 1403.52 Q478.404 1399.9 478.404 1393.75 Q478.404 1387.38 481.83 1383.65 Q485.279 1379.9 491.112 1379.9 Q496.343 1379.9 499.376 1383.28 Q502.431 1386.64 502.431 1392.43 M498.172 1391.18 Q498.126 1387.68 496.205 1385.6 Q494.306 1383.52 491.158 1383.52 Q487.594 1383.52 485.441 1385.53 Q483.311 1387.54 482.987 1391.2 L498.172 1391.18 Z" fill="#000000" fill-rule="nonzero" fill-opacity="1" /><path clip-path="url(#clip990)" d="M526.482 1384.46 L526.482 1370.44 L530.741 1370.44 L530.741 1406.46 L526.482 1406.46 L526.482 1402.57 Q525.14 1404.88 523.079 1406.02 Q521.042 1407.13 518.172 1407.13 Q513.473 1407.13 510.51 1403.38 Q507.57 1399.63 507.57 1393.52 Q507.57 1387.4 510.51 1383.65 Q513.473 1379.9 518.172 1379.9 Q521.042 1379.9 523.079 1381.04 Q525.14 1382.15 526.482 1384.46 M511.968 1393.52 Q511.968 1398.21 513.89 1400.9 Q515.834 1403.56 519.214 1403.56 Q522.593 1403.56 524.538 1400.9 Q526.482 1398.21 526.482 1393.52 Q526.482 1388.82 524.538 1386.15 Q522.593 1383.47 519.214 1383.47 Q515.834 1383.47 513.89 1386.15 Q511.968 1388.82 511.968 1393.52 Z" fill="#000000" fill-rule="nonzero" fill-opacity="1" /><path clip-path="url(#clip990)" d="M1392.71 1486.45 L2352.76 1486.45 L2352.76 123.472 L1392.71 123.472  Z" fill="#ffffff" fill-rule="evenodd" fill-opacity="1"/>
<polyline clip-path="url(#clip991)" style="stroke:#000000; stroke-linecap:round; stroke-linejoin:round; stroke-width:2; stroke-opacity:0.1; fill:none" points="1540.64,1486.45 1540.64,123.472 "/>
<polyline clip-path="url(#clip991)" style="stroke:#000000; stroke-linecap:round; stroke-linejoin:round; stroke-width:2; stroke-opacity:0.1; fill:none" points="1691.59,1486.45 1691.59,123.472 "/>
<polyline clip-path="url(#clip991)" style="stroke:#000000; stroke-linecap:round; stroke-linejoin:round; stroke-width:2; stroke-opacity:0.1; fill:none" points="1842.54,1486.45 1842.54,123.472 "/>
<polyline clip-path="url(#clip991)" style="stroke:#000000; stroke-linecap:round; stroke-linejoin:round; stroke-width:2; stroke-opacity:0.1; fill:none" points="1993.49,1486.45 1993.49,123.472 "/>
<polyline clip-path="url(#clip991)" style="stroke:#000000; stroke-linecap:round; stroke-linejoin:round; stroke-width:2; stroke-opacity:0.1; fill:none" points="2144.44,1486.45 2144.44,123.472 "/>
<polyline clip-path="url(#clip991)" style="stroke:#000000; stroke-linecap:round; stroke-linejoin:round; stroke-width:2; stroke-opacity:0.1; fill:none" points="2295.39,1486.45 2295.39,123.472 "/>
<polyline clip-path="url(#clip991)" style="stroke:#000000; stroke-linecap:round; stroke-linejoin:round; stroke-width:2; stroke-opacity:0.1; fill:none" points="1392.71,1347.52 2352.76,1347.52 "/>
<polyline clip-path="url(#clip991)" style="stroke:#000000; stroke-linecap:round; stroke-linejoin:round; stroke-width:2; stroke-opacity:0.1; fill:none" points="1392.71,987.454 2352.76,987.454 "/>
<polyline clip-path="url(#clip991)" style="stroke:#000000; stroke-linecap:round; stroke-linejoin:round; stroke-width:2; stroke-opacity:0.1; fill:none" points="1392.71,627.392 2352.76,627.392 "/>
<polyline clip-path="url(#clip991)" style="stroke:#000000; stroke-linecap:round; stroke-linejoin:round; stroke-width:2; stroke-opacity:0.1; fill:none" points="1392.71,267.329 2352.76,267.329 "/>
<polyline clip-path="url(#clip990)" style="stroke:#000000; stroke-linecap:round; stroke-linejoin:round; stroke-width:4; stroke-opacity:1; fill:none" points="1392.71,1486.45 2352.76,1486.45 "/>
<polyline clip-path="url(#clip990)" style="stroke:#000000; stroke-linecap:round; stroke-linejoin:round; stroke-width:4; stroke-opacity:1; fill:none" points="1540.64,1486.45 1540.64,1467.55 "/>
<polyline clip-path="url(#clip990)" style="stroke:#000000; stroke-linecap:round; stroke-linejoin:round; stroke-width:4; stroke-opacity:1; fill:none" points="1691.59,1486.45 1691.59,1467.55 "/>
<polyline clip-path="url(#clip990)" style="stroke:#000000; stroke-linecap:round; stroke-linejoin:round; stroke-width:4; stroke-opacity:1; fill:none" points="1842.54,1486.45 1842.54,1467.55 "/>
<polyline clip-path="url(#clip990)" style="stroke:#000000; stroke-linecap:round; stroke-linejoin:round; stroke-width:4; stroke-opacity:1; fill:none" points="1993.49,1486.45 1993.49,1467.55 "/>
<polyline clip-path="url(#clip990)" style="stroke:#000000; stroke-linecap:round; stroke-linejoin:round; stroke-width:4; stroke-opacity:1; fill:none" points="2144.44,1486.45 2144.44,1467.55 "/>
<polyline clip-path="url(#clip990)" style="stroke:#000000; stroke-linecap:round; stroke-linejoin:round; stroke-width:4; stroke-opacity:1; fill:none" points="2295.39,1486.45 2295.39,1467.55 "/>
<path clip-path="url(#clip990)" d="M1530.92 1514.29 L1549.28 1514.29 L1549.28 1518.22 L1535.2 1518.22 L1535.2 1526.7 Q1536.22 1526.35 1537.24 1526.19 Q1538.26 1526 1539.28 1526 Q1545.06 1526 1548.44 1529.17 Q1551.82 1532.34 1551.82 1537.76 Q1551.82 1543.34 1548.35 1546.44 Q1544.88 1549.52 1538.56 1549.52 Q1536.38 1549.52 1534.11 1549.15 Q1531.87 1548.78 1529.46 1548.04 L1529.46 1543.34 Q1531.54 1544.47 1533.77 1545.03 Q1535.99 1545.58 1538.46 1545.58 Q1542.47 1545.58 1544.81 1543.48 Q1547.15 1541.37 1547.15 1537.76 Q1547.15 1534.15 1544.81 1532.04 Q1542.47 1529.94 1538.46 1529.94 Q1536.59 1529.94 1534.71 1530.35 Q1532.86 1530.77 1530.92 1531.65 L1530.92 1514.29 Z" fill="#000000" fill-rule="nonzero" fill-opacity="1" /><path clip-path="url(#clip990)" d="M1666.28 1544.91 L1673.92 1544.91 L1673.92 1518.55 L1665.61 1520.21 L1665.61 1515.95 L1673.87 1514.29 L1678.55 1514.29 L1678.55 1544.91 L1686.19 1544.91 L1686.19 1548.85 L1666.28 1548.85 L1666.28 1544.91 Z" fill="#000000" fill-rule="nonzero" fill-opacity="1" /><path clip-path="url(#clip990)" d="M1705.63 1517.37 Q1702.02 1517.37 1700.19 1520.93 Q1698.39 1524.47 1698.39 1531.6 Q1698.39 1538.71 1700.19 1542.27 Q1702.02 1545.82 1705.63 1545.82 Q1709.27 1545.82 1711.07 1542.27 Q1712.9 1538.71 1712.9 1531.6 Q1712.9 1524.47 1711.07 1520.93 Q1709.27 1517.37 1705.63 1517.37 M1705.63 1513.66 Q1711.44 1513.66 1714.5 1518.27 Q1717.58 1522.85 1717.58 1531.6 Q1717.58 1540.33 1714.5 1544.94 Q1711.44 1549.52 1705.63 1549.52 Q1699.82 1549.52 1696.74 1544.94 Q1693.69 1540.33 1693.69 1531.6 Q1693.69 1522.85 1696.74 1518.27 Q1699.82 1513.66 1705.63 1513.66 Z" fill="#000000" fill-rule="nonzero" fill-opacity="1" /><path clip-path="url(#clip990)" d="M1817.73 1544.91 L1825.37 1544.91 L1825.37 1518.55 L1817.06 1520.21 L1817.06 1515.95 L1825.32 1514.29 L1830 1514.29 L1830 1544.91 L1837.63 1544.91 L1837.63 1548.85 L1817.73 1548.85 L1817.73 1544.91 Z" fill="#000000" fill-rule="nonzero" fill-opacity="1" /><path clip-path="url(#clip990)" d="M1847.13 1514.29 L1865.48 1514.29 L1865.48 1518.22 L1851.41 1518.22 L1851.41 1526.7 Q1852.43 1526.35 1853.45 1526.19 Q1854.46 1526 1855.48 1526 Q1861.27 1526 1864.65 1529.17 Q1868.03 1532.34 1868.03 1537.76 Q1868.03 1543.34 1864.56 1546.44 Q1861.08 1549.52 1854.76 1549.52 Q1852.59 1549.52 1850.32 1549.15 Q1848.07 1548.78 1845.67 1548.04 L1845.67 1543.34 Q1847.75 1544.47 1849.97 1545.03 Q1852.2 1545.58 1854.67 1545.58 Q1858.68 1545.58 1861.01 1543.48 Q1863.35 1541.37 1863.35 1537.76 Q1863.35 1534.15 1861.01 1532.04 Q1858.68 1529.94 1854.67 1529.94 Q1852.8 1529.94 1850.92 1530.35 Q1849.07 1530.77 1847.13 1531.65 L1847.13 1514.29 Z" fill="#000000" fill-rule="nonzero" fill-opacity="1" /><path clip-path="url(#clip990)" d="M1972.27 1544.91 L1988.59 1544.91 L1988.59 1548.85 L1966.64 1548.85 L1966.64 1544.91 Q1969.3 1542.16 1973.89 1537.53 Q1978.49 1532.88 1979.67 1531.53 Q1981.92 1529.01 1982.8 1527.27 Q1983.7 1525.51 1983.7 1523.82 Q1983.7 1521.07 1981.76 1519.33 Q1979.84 1517.6 1976.73 1517.6 Q1974.53 1517.6 1972.08 1518.36 Q1969.65 1519.13 1966.87 1520.68 L1966.87 1515.95 Q1969.7 1514.82 1972.15 1514.24 Q1974.6 1513.66 1976.64 1513.66 Q1982.01 1513.66 1985.21 1516.35 Q1988.4 1519.03 1988.4 1523.52 Q1988.4 1525.65 1987.59 1527.57 Q1986.8 1529.47 1984.7 1532.07 Q1984.12 1532.74 1981.02 1535.95 Q1977.91 1539.15 1972.27 1544.91 Z" fill="#000000" fill-rule="nonzero" fill-opacity="1" /><path clip-path="url(#clip990)" d="M2008.4 1517.37 Q2004.79 1517.37 2002.96 1520.93 Q2001.16 1524.47 2001.16 1531.6 Q2001.16 1538.71 2002.96 1542.27 Q2004.79 1545.82 2008.4 1545.82 Q2012.03 1545.82 2013.84 1542.27 Q2015.67 1538.71 2015.67 1531.6 Q2015.67 1524.47 2013.84 1520.93 Q2012.03 1517.37 2008.4 1517.37 M2008.4 1513.66 Q2014.21 1513.66 2017.27 1518.27 Q2020.34 1522.85 2020.34 1531.6 Q2020.34 1540.33 2017.27 1544.94 Q2014.21 1549.52 2008.4 1549.52 Q2002.59 1549.52 1999.51 1544.94 Q1996.46 1540.33 1996.46 1531.6 Q1996.46 1522.85 1999.51 1518.27 Q2002.59 1513.66 2008.4 1513.66 Z" fill="#000000" fill-rule="nonzero" fill-opacity="1" /><path clip-path="url(#clip990)" d="M2123.71 1544.91 L2140.03 1544.91 L2140.03 1548.85 L2118.09 1548.85 L2118.09 1544.91 Q2120.75 1542.16 2125.34 1537.53 Q2129.94 1532.88 2131.12 1531.53 Q2133.37 1529.01 2134.25 1527.27 Q2135.15 1525.51 2135.15 1523.82 Q2135.15 1521.07 2133.21 1519.33 Q2131.28 1517.6 2128.18 1517.6 Q2125.98 1517.6 2123.53 1518.36 Q2121.1 1519.13 2118.32 1520.68 L2118.32 1515.95 Q2121.15 1514.82 2123.6 1514.24 Q2126.05 1513.66 2128.09 1513.66 Q2133.46 1513.66 2136.65 1516.35 Q2139.85 1519.03 2139.85 1523.52 Q2139.85 1525.65 2139.04 1527.57 Q2138.25 1529.47 2136.15 1532.07 Q2135.57 1532.74 2132.46 1535.95 Q2129.36 1539.15 2123.71 1544.91 Z" fill="#000000" fill-rule="nonzero" fill-opacity="1" /><path clip-path="url(#clip990)" d="M2149.9 1514.29 L2168.25 1514.29 L2168.25 1518.22 L2154.18 1518.22 L2154.18 1526.7 Q2155.2 1526.35 2156.21 1526.19 Q2157.23 1526 2158.25 1526 Q2164.04 1526 2167.42 1529.17 Q2170.8 1532.34 2170.8 1537.76 Q2170.8 1543.34 2167.33 1546.44 Q2163.85 1549.52 2157.53 1549.52 Q2155.36 1549.52 2153.09 1549.15 Q2150.84 1548.78 2148.44 1548.04 L2148.44 1543.34 Q2150.52 1544.47 2152.74 1545.03 Q2154.96 1545.58 2157.44 1545.58 Q2161.45 1545.58 2163.78 1543.48 Q2166.12 1541.37 2166.12 1537.76 Q2166.12 1534.15 2163.78 1532.04 Q2161.45 1529.94 2157.44 1529.94 Q2155.57 1529.94 2153.69 1530.35 Q2151.84 1530.77 2149.9 1531.65 L2149.9 1514.29 Z" fill="#000000" fill-rule="nonzero" fill-opacity="1" /><path clip-path="url(#clip990)" d="M2284.24 1530.21 Q2287.59 1530.93 2289.47 1533.2 Q2291.37 1535.47 2291.37 1538.8 Q2291.37 1543.92 2287.85 1546.72 Q2284.33 1549.52 2277.85 1549.52 Q2275.67 1549.52 2273.36 1549.08 Q2271.07 1548.66 2268.61 1547.81 L2268.61 1543.29 Q2270.56 1544.43 2272.87 1545.01 Q2275.19 1545.58 2277.71 1545.58 Q2282.11 1545.58 2284.4 1543.85 Q2286.71 1542.11 2286.71 1538.8 Q2286.71 1535.75 2284.56 1534.03 Q2282.43 1532.3 2278.61 1532.3 L2274.58 1532.3 L2274.58 1528.45 L2278.8 1528.45 Q2282.25 1528.45 2284.08 1527.09 Q2285.9 1525.7 2285.9 1523.11 Q2285.9 1520.45 2284.01 1519.03 Q2282.13 1517.6 2278.61 1517.6 Q2276.69 1517.6 2274.49 1518.01 Q2272.29 1518.43 2269.65 1519.31 L2269.65 1515.14 Q2272.32 1514.4 2274.63 1514.03 Q2276.97 1513.66 2279.03 1513.66 Q2284.35 1513.66 2287.45 1516.09 Q2290.56 1518.5 2290.56 1522.62 Q2290.56 1525.49 2288.91 1527.48 Q2287.27 1529.45 2284.24 1530.21 Z" fill="#000000" fill-rule="nonzero" fill-opacity="1" /><path clip-path="url(#clip990)" d="M2310.23 1517.37 Q2306.62 1517.37 2304.79 1520.93 Q2302.99 1524.47 2302.99 1531.6 Q2302.99 1538.71 2304.79 1542.27 Q2306.62 1545.82 2310.23 1545.82 Q2313.87 1545.82 2315.67 1542.27 Q2317.5 1538.71 2317.5 1531.6 Q2317.5 1524.47 2315.67 1520.93 Q2313.87 1517.37 2310.23 1517.37 M2310.23 1513.66 Q2316.04 1513.66 2319.1 1518.27 Q2322.18 1522.85 2322.18 1531.6 Q2322.18 1540.33 2319.1 1544.94 Q2316.04 1549.52 2310.23 1549.52 Q2304.42 1549.52 2301.34 1544.94 Q2298.29 1540.33 2298.29 1531.6 Q2298.29 1522.85 2301.34 1518.27 Q2304.42 1513.66 2310.23 1513.66 Z" fill="#000000" fill-rule="nonzero" fill-opacity="1" /><polyline clip-path="url(#clip990)" style="stroke:#000000; stroke-linecap:round; stroke-linejoin:round; stroke-width:4; stroke-opacity:1; fill:none" points="1392.71,1486.45 1392.71,123.472 "/>
<polyline clip-path="url(#clip990)" style="stroke:#000000; stroke-linecap:round; stroke-linejoin:round; stroke-width:4; stroke-opacity:1; fill:none" points="1392.71,1347.52 1411.61,1347.52 "/>
<polyline clip-path="url(#clip990)" style="stroke:#000000; stroke-linecap:round; stroke-linejoin:round; stroke-width:4; stroke-opacity:1; fill:none" points="1392.71,987.454 1411.61,987.454 "/>
<polyline clip-path="url(#clip990)" style="stroke:#000000; stroke-linecap:round; stroke-linejoin:round; stroke-width:4; stroke-opacity:1; fill:none" points="1392.71,627.392 1411.61,627.392 "/>
<polyline clip-path="url(#clip990)" style="stroke:#000000; stroke-linecap:round; stroke-linejoin:round; stroke-width:4; stroke-opacity:1; fill:none" points="1392.71,267.329 1411.61,267.329 "/>
<path clip-path="url(#clip990)" d="M1250.99 1347.97 L1280.67 1347.97 L1280.67 1351.9 L1250.99 1351.9 L1250.99 1347.97 Z" fill="#000000" fill-rule="nonzero" fill-opacity="1" /><path clip-path="url(#clip990)" d="M1300.76 1333.32 Q1297.15 1333.32 1295.32 1336.88 Q1293.52 1340.42 1293.52 1347.55 Q1293.52 1354.66 1295.32 1358.22 Q1297.15 1361.76 1300.76 1361.76 Q1304.39 1361.76 1306.2 1358.22 Q1308.03 1354.66 1308.03 1347.55 Q1308.03 1340.42 1306.2 1336.88 Q1304.39 1333.32 1300.76 1333.32 M1300.76 1329.61 Q1306.57 1329.61 1309.63 1334.22 Q1312.7 1338.8 1312.7 1347.55 Q1312.7 1356.28 1309.63 1360.88 Q1306.57 1365.47 1300.76 1365.47 Q1294.95 1365.47 1291.87 1360.88 Q1288.82 1356.28 1288.82 1347.55 Q1288.82 1338.8 1291.87 1334.22 Q1294.95 1329.61 1300.76 1329.61 Z" fill="#000000" fill-rule="nonzero" fill-opacity="1" /><path clip-path="url(#clip990)" d="M1320.92 1358.92 L1325.81 1358.92 L1325.81 1364.8 L1320.92 1364.8 L1320.92 1358.92 Z" fill="#000000" fill-rule="nonzero" fill-opacity="1" /><path clip-path="url(#clip990)" d="M1336.8 1360.86 L1344.44 1360.86 L1344.44 1334.5 L1336.13 1336.16 L1336.13 1331.9 L1344.39 1330.24 L1349.07 1330.24 L1349.07 1360.86 L1356.71 1360.86 L1356.71 1364.8 L1336.8 1364.8 L1336.8 1360.86 Z" fill="#000000" fill-rule="nonzero" fill-opacity="1" /><path clip-path="url(#clip990)" d="M1299.53 973.253 Q1295.92 973.253 1294.09 976.818 Q1292.29 980.359 1292.29 987.489 Q1292.29 994.595 1294.09 998.16 Q1295.92 1001.7 1299.53 1001.7 Q1303.17 1001.7 1304.97 998.16 Q1306.8 994.595 1306.8 987.489 Q1306.8 980.359 1304.97 976.818 Q1303.17 973.253 1299.53 973.253 M1299.53 969.549 Q1305.34 969.549 1308.4 974.156 Q1311.48 978.739 1311.48 987.489 Q1311.48 996.216 1308.4 1000.82 Q1305.34 1005.41 1299.53 1005.41 Q1293.72 1005.41 1290.64 1000.82 Q1287.59 996.216 1287.59 987.489 Q1287.59 978.739 1290.64 974.156 Q1293.72 969.549 1299.53 969.549 Z" fill="#000000" fill-rule="nonzero" fill-opacity="1" /><path clip-path="url(#clip990)" d="M1319.7 998.855 L1324.58 998.855 L1324.58 1004.73 L1319.7 1004.73 L1319.7 998.855 Z" fill="#000000" fill-rule="nonzero" fill-opacity="1" /><path clip-path="url(#clip990)" d="M1344.76 973.253 Q1341.15 973.253 1339.32 976.818 Q1337.52 980.359 1337.52 987.489 Q1337.52 994.595 1339.32 998.16 Q1341.15 1001.7 1344.76 1001.7 Q1348.4 1001.7 1350.2 998.16 Q1352.03 994.595 1352.03 987.489 Q1352.03 980.359 1350.2 976.818 Q1348.4 973.253 1344.76 973.253 M1344.76 969.549 Q1350.57 969.549 1353.63 974.156 Q1356.71 978.739 1356.71 987.489 Q1356.71 996.216 1353.63 1000.82 Q1350.57 1005.41 1344.76 1005.41 Q1338.95 1005.41 1335.88 1000.82 Q1332.82 996.216 1332.82 987.489 Q1332.82 978.739 1335.88 974.156 Q1338.95 969.549 1344.76 969.549 Z" fill="#000000" fill-rule="nonzero" fill-opacity="1" /><path clip-path="url(#clip990)" d="M1300.76 613.19 Q1297.15 613.19 1295.32 616.755 Q1293.52 620.297 1293.52 627.426 Q1293.52 634.533 1295.32 638.097 Q1297.15 641.639 1300.76 641.639 Q1304.39 641.639 1306.2 638.097 Q1308.03 634.533 1308.03 627.426 Q1308.03 620.297 1306.2 616.755 Q1304.39 613.19 1300.76 613.19 M1300.76 609.487 Q1306.57 609.487 1309.63 614.093 Q1312.7 618.676 1312.7 627.426 Q1312.7 636.153 1309.63 640.76 Q1306.57 645.343 1300.76 645.343 Q1294.95 645.343 1291.87 640.76 Q1288.82 636.153 1288.82 627.426 Q1288.82 618.676 1291.87 614.093 Q1294.95 609.487 1300.76 609.487 Z" fill="#000000" fill-rule="nonzero" fill-opacity="1" /><path clip-path="url(#clip990)" d="M1320.92 638.792 L1325.81 638.792 L1325.81 644.672 L1320.92 644.672 L1320.92 638.792 Z" fill="#000000" fill-rule="nonzero" fill-opacity="1" /><path clip-path="url(#clip990)" d="M1336.8 640.736 L1344.44 640.736 L1344.44 614.371 L1336.13 616.037 L1336.13 611.778 L1344.39 610.112 L1349.07 610.112 L1349.07 640.736 L1356.71 640.736 L1356.71 644.672 L1336.8 644.672 L1336.8 640.736 Z" fill="#000000" fill-rule="nonzero" fill-opacity="1" /><path clip-path="url(#clip990)" d="M1301.13 253.128 Q1297.52 253.128 1295.69 256.692 Q1293.89 260.234 1293.89 267.364 Q1293.89 274.47 1295.69 278.035 Q1297.52 281.576 1301.13 281.576 Q1304.76 281.576 1306.57 278.035 Q1308.4 274.47 1308.4 267.364 Q1308.4 260.234 1306.57 256.692 Q1304.76 253.128 1301.13 253.128 M1301.13 249.424 Q1306.94 249.424 1310 254.03 Q1313.08 258.614 1313.08 267.364 Q1313.08 276.09 1310 280.697 Q1306.94 285.28 1301.13 285.28 Q1295.32 285.28 1292.24 280.697 Q1289.19 276.09 1289.19 267.364 Q1289.19 258.614 1292.24 254.03 Q1295.32 249.424 1301.13 249.424 Z" fill="#000000" fill-rule="nonzero" fill-opacity="1" /><path clip-path="url(#clip990)" d="M1321.29 278.729 L1326.18 278.729 L1326.18 284.609 L1321.29 284.609 L1321.29 278.729 Z" fill="#000000" fill-rule="nonzero" fill-opacity="1" /><path clip-path="url(#clip990)" d="M1340.39 280.674 L1356.71 280.674 L1356.71 284.609 L1334.76 284.609 L1334.76 280.674 Q1337.43 277.919 1342.01 273.289 Q1346.62 268.637 1347.8 267.294 Q1350.04 264.771 1350.92 263.035 Q1351.82 261.276 1351.82 259.586 Q1351.82 256.831 1349.88 255.095 Q1347.96 253.359 1344.86 253.359 Q1342.66 253.359 1340.2 254.123 Q1337.77 254.887 1335 256.438 L1335 251.715 Q1337.82 250.581 1340.27 250.003 Q1342.73 249.424 1344.76 249.424 Q1350.14 249.424 1353.33 252.109 Q1356.52 254.794 1356.52 259.285 Q1356.52 261.414 1355.71 263.336 Q1354.93 265.234 1352.82 267.826 Q1352.24 268.498 1349.14 271.715 Q1346.04 274.91 1340.39 280.674 Z" fill="#000000" fill-rule="nonzero" fill-opacity="1" /><path clip-path="url(#clip990)" d="M1575.21 14.0809 L1575.21 22.0612 Q1570.56 19.8332 1566.42 18.7395 Q1562.29 17.6457 1558.44 17.6457 Q1551.76 17.6457 1548.11 20.2383 Q1544.51 22.8309 1544.51 27.611 Q1544.51 31.6214 1546.9 33.6873 Q1549.33 35.7128 1556.05 36.9686 L1561 37.9813 Q1570.15 39.7232 1574.48 44.1387 Q1578.86 48.5136 1578.86 55.8863 Q1578.86 64.6767 1572.95 69.2137 Q1567.07 73.7508 1555.69 73.7508 Q1551.39 73.7508 1546.53 72.7785 Q1541.71 71.8063 1536.53 69.9024 L1536.53 61.4765 Q1541.51 64.2716 1546.29 65.6895 Q1551.07 67.1073 1555.69 67.1073 Q1562.7 67.1073 1566.5 64.3527 Q1570.31 61.598 1570.31 56.4939 Q1570.31 52.0379 1567.56 49.5264 Q1564.84 47.0148 1558.61 45.759 L1553.62 44.7868 Q1544.47 42.9639 1540.38 39.075 Q1536.28 35.1862 1536.28 28.2591 Q1536.28 20.2383 1541.92 15.6203 Q1547.59 11.0023 1557.51 11.0023 Q1561.76 11.0023 1566.18 11.7719 Q1570.6 12.5416 1575.21 14.0809 Z" fill="#000000" fill-rule="nonzero" fill-opacity="1" /><path clip-path="url(#clip990)" d="M1598.67 14.324 L1598.67 27.2059 L1614.02 27.2059 L1614.02 32.9987 L1598.67 32.9987 L1598.67 57.6282 Q1598.67 63.1779 1600.17 64.7578 Q1601.71 66.3376 1606.37 66.3376 L1614.02 66.3376 L1614.02 72.576 L1606.37 72.576 Q1597.74 72.576 1594.46 69.3758 Q1591.17 66.1351 1591.17 57.6282 L1591.17 32.9987 L1585.71 32.9987 L1585.71 27.2059 L1591.17 27.2059 L1591.17 14.324 L1598.67 14.324 Z" fill="#000000" fill-rule="nonzero" fill-opacity="1" /><path clip-path="url(#clip990)" d="M1644.44 49.7694 Q1635.41 49.7694 1631.93 51.8354 Q1628.44 53.9013 1628.44 58.8839 Q1628.44 62.8538 1631.04 65.2034 Q1633.67 67.5124 1638.16 67.5124 Q1644.36 67.5124 1648.09 63.1374 Q1651.86 58.7219 1651.86 51.4303 L1651.86 49.7694 L1644.44 49.7694 M1659.31 46.6907 L1659.31 72.576 L1651.86 72.576 L1651.86 65.6895 Q1649.3 69.8214 1645.5 71.8063 Q1641.69 73.7508 1636.18 73.7508 Q1629.21 73.7508 1625.08 69.8619 Q1620.99 65.9325 1620.99 59.3701 Q1620.99 51.7138 1626.09 47.825 Q1631.24 43.9361 1641.41 43.9361 L1651.86 43.9361 L1651.86 43.2069 Q1651.86 38.0623 1648.45 35.2672 Q1645.09 32.4315 1638.98 32.4315 Q1635.09 32.4315 1631.4 33.3632 Q1627.71 34.295 1624.31 36.1584 L1624.31 29.2718 Q1628.4 27.692 1632.25 26.9223 Q1636.1 26.1121 1639.74 26.1121 Q1649.59 26.1121 1654.45 31.2163 Q1659.31 36.3204 1659.31 46.6907 Z" fill="#000000" fill-rule="nonzero" fill-opacity="1" /><path clip-path="url(#clip990)" d="M1682.04 14.324 L1682.04 27.2059 L1697.39 27.2059 L1697.39 32.9987 L1682.04 32.9987 L1682.04 57.6282 Q1682.04 63.1779 1683.54 64.7578 Q1685.07 66.3376 1689.73 66.3376 L1697.39 66.3376 L1697.39 72.576 L1689.73 72.576 Q1681.1 72.576 1677.82 69.3758 Q1674.54 66.1351 1674.54 57.6282 L1674.54 32.9987 L1669.07 32.9987 L1669.07 27.2059 L1674.54 27.2059 L1674.54 14.324 L1682.04 14.324 Z" fill="#000000" fill-rule="nonzero" fill-opacity="1" /><path clip-path="url(#clip990)" d="M1746 48.0275 L1746 51.6733 L1711.73 51.6733 Q1712.22 59.3701 1716.35 63.421 Q1720.52 67.4314 1727.93 67.4314 Q1732.23 67.4314 1736.24 66.3781 Q1740.29 65.3249 1744.26 63.2184 L1744.26 70.267 Q1740.25 71.9684 1736.03 72.8596 Q1731.82 73.7508 1727.49 73.7508 Q1716.63 73.7508 1710.27 67.4314 Q1703.95 61.1119 1703.95 50.3365 Q1703.95 39.1965 1709.95 32.6746 Q1715.98 26.1121 1726.19 26.1121 Q1735.35 26.1121 1740.65 32.0264 Q1746 37.9003 1746 48.0275 M1738.55 45.84 Q1738.47 39.7232 1735.1 36.0774 Q1731.78 32.4315 1726.27 32.4315 Q1720.03 32.4315 1716.27 35.9558 Q1712.54 39.4801 1711.97 45.8805 L1738.55 45.84 Z" fill="#000000" fill-rule="nonzero" fill-opacity="1" /><path clip-path="url(#clip990)" d="M1787.08 65.6895 L1800.44 65.6895 L1800.44 19.5497 L1785.9 22.4663 L1785.9 15.0127 L1800.36 12.096 L1808.55 12.096 L1808.55 65.6895 L1821.91 65.6895 L1821.91 72.576 L1787.08 72.576 L1787.08 65.6895 Z" fill="#000000" fill-rule="nonzero" fill-opacity="1" /><path clip-path="url(#clip990)" d="M1881.66 9.62495 Q1876.24 18.942 1873.6 28.0566 Q1870.97 37.1711 1870.97 46.5287 Q1870.97 55.8863 1873.6 65.0818 Q1876.28 74.2369 1881.66 83.5134 L1875.18 83.5134 Q1869.11 73.9938 1866.07 64.7983 Q1863.07 55.6027 1863.07 46.5287 Q1863.07 37.4952 1866.07 28.3401 Q1869.07 19.1851 1875.18 9.62495 L1881.66 9.62495 Z" fill="#000000" fill-rule="nonzero" fill-opacity="1" /><path clip-path="url(#clip990)" d="M1903.34 65.7705 L1903.34 89.8329 L1895.84 89.8329 L1895.84 27.2059 L1903.34 27.2059 L1903.34 34.0924 Q1905.69 30.0415 1909.25 28.0971 Q1912.86 26.1121 1917.84 26.1121 Q1926.1 26.1121 1931.25 32.6746 Q1936.43 39.2371 1936.43 49.9314 Q1936.43 60.6258 1931.25 67.1883 Q1926.1 73.7508 1917.84 73.7508 Q1912.86 73.7508 1909.25 71.8063 Q1905.69 69.8214 1903.34 65.7705 M1928.7 49.9314 Q1928.7 41.7081 1925.29 37.0496 Q1921.93 32.3505 1916.02 32.3505 Q1910.1 32.3505 1906.7 37.0496 Q1903.34 41.7081 1903.34 49.9314 Q1903.34 58.1548 1906.7 62.8538 Q1910.1 67.5124 1916.02 67.5124 Q1921.93 67.5124 1925.29 62.8538 Q1928.7 58.1548 1928.7 49.9314 Z" fill="#000000" fill-rule="nonzero" fill-opacity="1" /><path clip-path="url(#clip990)" d="M1975.08 34.1734 Q1973.82 33.4443 1972.32 33.1202 Q1970.87 32.7556 1969.08 32.7556 Q1962.76 32.7556 1959.36 36.8875 Q1956 40.9789 1956 48.6757 L1956 72.576 L1948.5 72.576 L1948.5 27.2059 L1956 27.2059 L1956 34.2544 Q1958.35 30.1225 1962.12 28.1376 Q1965.88 26.1121 1971.27 26.1121 Q1972.04 26.1121 1972.97 26.2337 Q1973.9 26.3147 1975.04 26.5172 L1975.08 34.1734 Z" fill="#000000" fill-rule="nonzero" fill-opacity="1" /><path clip-path="url(#clip990)" d="M1982.13 54.671 L1982.13 27.2059 L1989.58 27.2059 L1989.58 54.3874 Q1989.58 60.8284 1992.09 64.0691 Q1994.6 67.2693 1999.63 67.2693 Q2005.66 67.2693 2009.15 63.421 Q2012.67 59.5726 2012.67 52.9291 L2012.67 27.2059 L2020.12 27.2059 L2020.12 72.576 L2012.67 72.576 L2012.67 65.6084 Q2009.96 69.7404 2006.35 71.7658 Q2002.79 73.7508 1998.05 73.7508 Q1990.23 73.7508 1986.18 68.8897 Q1982.13 64.0286 1982.13 54.671 M2000.88 26.1121 L2000.88 26.1121 Z" fill="#000000" fill-rule="nonzero" fill-opacity="1" /><path clip-path="url(#clip990)" d="M2073.19 45.1919 L2073.19 72.576 L2065.74 72.576 L2065.74 45.4349 Q2065.74 38.994 2063.23 35.7938 Q2060.71 32.5936 2055.69 32.5936 Q2049.66 32.5936 2046.17 36.4419 Q2042.69 40.2903 2042.69 46.9338 L2042.69 72.576 L2035.19 72.576 L2035.19 27.2059 L2042.69 27.2059 L2042.69 34.2544 Q2045.36 30.163 2048.97 28.1376 Q2052.61 26.1121 2057.35 26.1121 Q2065.17 26.1121 2069.18 30.9732 Q2073.19 35.7938 2073.19 45.1919 Z" fill="#000000" fill-rule="nonzero" fill-opacity="1" /><path clip-path="url(#clip990)" d="M2126.87 48.0275 L2126.87 51.6733 L2092.6 51.6733 Q2093.08 59.3701 2097.21 63.421 Q2101.39 67.4314 2108.8 67.4314 Q2113.09 67.4314 2117.1 66.3781 Q2121.15 65.3249 2125.12 63.2184 L2125.12 70.267 Q2121.11 71.9684 2116.9 72.8596 Q2112.69 73.7508 2108.35 73.7508 Q2097.5 73.7508 2091.14 67.4314 Q2084.82 61.1119 2084.82 50.3365 Q2084.82 39.1965 2090.81 32.6746 Q2096.85 26.1121 2107.06 26.1121 Q2116.21 26.1121 2121.52 32.0264 Q2126.87 37.9003 2126.87 48.0275 M2119.41 45.84 Q2119.33 39.7232 2115.97 36.0774 Q2112.65 32.4315 2107.14 32.4315 Q2100.9 32.4315 2097.13 35.9558 Q2093.41 39.4801 2092.84 45.8805 L2119.41 45.84 Z" fill="#000000" fill-rule="nonzero" fill-opacity="1" /><path clip-path="url(#clip990)" d="M2168.95 34.0924 L2168.95 9.54393 L2176.41 9.54393 L2176.41 72.576 L2168.95 72.576 L2168.95 65.7705 Q2166.61 69.8214 2163 71.8063 Q2159.44 73.7508 2154.41 73.7508 Q2146.19 73.7508 2141 67.1883 Q2135.86 60.6258 2135.86 49.9314 Q2135.86 39.2371 2141 32.6746 Q2146.19 26.1121 2154.41 26.1121 Q2159.44 26.1121 2163 28.0971 Q2166.61 30.0415 2168.95 34.0924 M2143.56 49.9314 Q2143.56 58.1548 2146.92 62.8538 Q2150.32 67.5124 2156.24 67.5124 Q2162.15 67.5124 2165.55 62.8538 Q2168.95 58.1548 2168.95 49.9314 Q2168.95 41.7081 2165.55 37.0496 Q2162.15 32.3505 2156.24 32.3505 Q2150.32 32.3505 2146.92 37.0496 Q2143.56 41.7081 2143.56 49.9314 Z" fill="#000000" fill-rule="nonzero" fill-opacity="1" /><path clip-path="url(#clip990)" d="M2190.59 9.62495 L2197.07 9.62495 Q2203.14 19.1851 2206.14 28.3401 Q2209.18 37.4952 2209.18 46.5287 Q2209.18 55.6027 2206.14 64.7983 Q2203.14 73.9938 2197.07 83.5134 L2190.59 83.5134 Q2195.97 74.2369 2198.61 65.0818 Q2201.28 55.8863 2201.28 46.5287 Q2201.28 37.1711 2198.61 28.0566 Q2195.97 18.942 2190.59 9.62495 Z" fill="#000000" fill-rule="nonzero" fill-opacity="1" /><polyline clip-path="url(#clip991)" style="stroke:#009af9; stroke-linecap:round; stroke-linejoin:round; stroke-width:4; stroke-opacity:1; fill:none" points="1419.88,987.454 1450.07,987.736 1480.26,937.207 1510.45,890.406 1540.64,642.239 1570.83,198.205 1601.02,162.047 1631.21,233.644 1661.4,720.322 1691.59,1164.09 1721.78,1168.88 1751.97,1154.06 1782.16,1273.79 1812.35,1447.87 1842.54,1257.06 1872.73,993.226 1902.92,845.35 1933.11,684.101 1963.3,838.914 1993.49,830.338 2023.68,999.028 2053.87,1123.89 2084.06,883.558 2114.25,771.169 2144.44,1070.19 2174.63,1068.94 2204.82,1198.13 2235.01,1029.94 2265.2,966.031 2295.39,708.692 2325.58,403.284 "/>
<path clip-path="url(#clip990)" d="M1424.71 1441.02 L1681.04 1441.02 L1681.04 1337.34 L1424.71 1337.34  Z" fill="#ffffff" fill-rule="evenodd" fill-opacity="1"/>
<polyline clip-path="url(#clip990)" style="stroke:#000000; stroke-linecap:round; stroke-linejoin:round; stroke-width:4; stroke-opacity:1; fill:none" points="1424.71,1441.02 1681.04,1441.02 1681.04,1337.34 1424.71,1337.34 1424.71,1441.02 "/>
<polyline clip-path="url(#clip990)" style="stroke:#009af9; stroke-linecap:round; stroke-linejoin:round; stroke-width:4; stroke-opacity:1; fill:none" points="1435.38,1389.18 1499.38,1389.18 "/>
<path clip-path="url(#clip990)" d="M1514.33 1402.57 L1514.33 1416.32 L1510.05 1416.32 L1510.05 1380.53 L1514.33 1380.53 L1514.33 1384.46 Q1515.67 1382.15 1517.71 1381.04 Q1519.77 1379.9 1522.62 1379.9 Q1527.34 1379.9 1530.28 1383.65 Q1533.24 1387.4 1533.24 1393.52 Q1533.24 1399.63 1530.28 1403.38 Q1527.34 1407.13 1522.62 1407.13 Q1519.77 1407.13 1517.71 1406.02 Q1515.67 1404.88 1514.33 1402.57 M1528.82 1393.52 Q1528.82 1388.82 1526.88 1386.15 Q1524.96 1383.47 1521.58 1383.47 Q1518.2 1383.47 1516.25 1386.15 Q1514.33 1388.82 1514.33 1393.52 Q1514.33 1398.21 1516.25 1400.9 Q1518.2 1403.56 1521.58 1403.56 Q1524.96 1403.56 1526.88 1400.9 Q1528.82 1398.21 1528.82 1393.52 Z" fill="#000000" fill-rule="nonzero" fill-opacity="1" /><path clip-path="url(#clip990)" d="M1555.33 1384.51 Q1554.61 1384.09 1553.75 1383.91 Q1552.92 1383.7 1551.9 1383.7 Q1548.29 1383.7 1546.34 1386.06 Q1544.42 1388.4 1544.42 1392.8 L1544.42 1406.46 L1540.14 1406.46 L1540.14 1380.53 L1544.42 1380.53 L1544.42 1384.56 Q1545.77 1382.2 1547.92 1381.06 Q1550.07 1379.9 1553.15 1379.9 Q1553.59 1379.9 1554.12 1379.97 Q1554.65 1380.02 1555.3 1380.14 L1555.33 1384.51 Z" fill="#000000" fill-rule="nonzero" fill-opacity="1" /><path clip-path="url(#clip990)" d="M1559.35 1396.22 L1559.35 1380.53 L1563.61 1380.53 L1563.61 1396.06 Q1563.61 1399.74 1565.05 1401.59 Q1566.48 1403.42 1569.35 1403.42 Q1572.8 1403.42 1574.79 1401.22 Q1576.81 1399.02 1576.81 1395.23 L1576.81 1380.53 L1581.07 1380.53 L1581.07 1406.46 L1576.81 1406.46 L1576.81 1402.47 Q1575.26 1404.83 1573.2 1405.99 Q1571.16 1407.13 1568.45 1407.13 Q1563.98 1407.13 1561.67 1404.35 Q1559.35 1401.57 1559.35 1396.22 M1570.07 1379.9 L1570.07 1379.9 Z" fill="#000000" fill-rule="nonzero" fill-opacity="1" /><path clip-path="url(#clip990)" d="M1611.39 1390.81 L1611.39 1406.46 L1607.13 1406.46 L1607.13 1390.95 Q1607.13 1387.27 1605.7 1385.44 Q1604.26 1383.61 1601.39 1383.61 Q1597.94 1383.61 1595.95 1385.81 Q1593.96 1388.01 1593.96 1391.8 L1593.96 1406.46 L1589.68 1406.46 L1589.68 1380.53 L1593.96 1380.53 L1593.96 1384.56 Q1595.49 1382.22 1597.55 1381.06 Q1599.63 1379.9 1602.34 1379.9 Q1606.81 1379.9 1609.1 1382.68 Q1611.39 1385.44 1611.39 1390.81 Z" fill="#000000" fill-rule="nonzero" fill-opacity="1" /><path clip-path="url(#clip990)" d="M1642.06 1392.43 L1642.06 1394.51 L1622.48 1394.51 Q1622.76 1398.91 1625.12 1401.22 Q1627.5 1403.52 1631.74 1403.52 Q1634.19 1403.52 1636.48 1402.91 Q1638.8 1402.31 1641.07 1401.11 L1641.07 1405.14 Q1638.77 1406.11 1636.37 1406.62 Q1633.96 1407.13 1631.48 1407.13 Q1625.28 1407.13 1621.64 1403.52 Q1618.03 1399.9 1618.03 1393.75 Q1618.03 1387.38 1621.46 1383.65 Q1624.91 1379.9 1630.74 1379.9 Q1635.97 1379.9 1639.01 1383.28 Q1642.06 1386.64 1642.06 1392.43 M1637.8 1391.18 Q1637.76 1387.68 1635.83 1385.6 Q1633.94 1383.52 1630.79 1383.52 Q1627.22 1383.52 1625.07 1385.53 Q1622.94 1387.54 1622.62 1391.2 L1637.8 1391.18 Z" fill="#000000" fill-rule="nonzero" fill-opacity="1" /><path clip-path="url(#clip990)" d="M1666.11 1384.46 L1666.11 1370.44 L1670.37 1370.44 L1670.37 1406.46 L1666.11 1406.46 L1666.11 1402.57 Q1664.77 1404.88 1662.71 1406.02 Q1660.67 1407.13 1657.8 1407.13 Q1653.1 1407.13 1650.14 1403.38 Q1647.2 1399.63 1647.2 1393.52 Q1647.2 1387.4 1650.14 1383.65 Q1653.1 1379.9 1657.8 1379.9 Q1660.67 1379.9 1662.71 1381.04 Q1664.77 1382.15 1666.11 1384.46 M1651.6 1393.52 Q1651.6 1398.21 1653.52 1400.9 Q1655.46 1403.56 1658.84 1403.56 Q1662.22 1403.56 1664.17 1400.9 Q1666.11 1398.21 1666.11 1393.52 Q1666.11 1388.82 1664.17 1386.15 Q1662.22 1383.47 1658.84 1383.47 Q1655.46 1383.47 1653.52 1386.15 Q1651.6 1388.82 1651.6 1393.52 Z" fill="#000000" fill-rule="nonzero" fill-opacity="1" /></svg>
