<?xml version="1.0" encoding="utf-8"?>
<svg xmlns="http://www.w3.org/2000/svg" xmlns:xlink="http://www.w3.org/1999/xlink" width="600" height="400" viewBox="0 0 2400 1600">
<defs>
  <clipPath id="clip110">
    <rect x="0" y="0" width="2400" height="1600"/>
  </clipPath>
</defs>
<path clip-path="url(#clip110)" d="M0 1600 L2400 1600 L2400 0 L0 0  Z" fill="#ffffff" fill-rule="evenodd" fill-opacity="1"/>
<defs>
  <clipPath id="clip111">
    <rect x="480" y="0" width="1681" height="1600"/>
  </clipPath>
</defs>
<path clip-path="url(#clip110)" d="M86.9921 1521.01 L2352.76 1521.01 L2352.76 47.2441 L86.9921 47.2441  Z" fill="#ffffff" fill-rule="evenodd" fill-opacity="1"/>
<defs>
  <clipPath id="clip112">
    <rect x="86" y="47" width="2267" height="1475"/>
  </clipPath>
</defs>
<polyline clip-path="url(#clip112)" style="stroke:#000000; stroke-linecap:round; stroke-linejoin:round; stroke-width:2; stroke-opacity:0.1; fill:none" points="151.118,1521.01 151.118,47.2441 "/>
<polyline clip-path="url(#clip112)" style="stroke:#000000; stroke-linecap:round; stroke-linejoin:round; stroke-width:2; stroke-opacity:0.1; fill:none" points="685.496,1521.01 685.496,47.2441 "/>
<polyline clip-path="url(#clip112)" style="stroke:#000000; stroke-linecap:round; stroke-linejoin:round; stroke-width:2; stroke-opacity:0.1; fill:none" points="1219.87,1521.01 1219.87,47.2441 "/>
<polyline clip-path="url(#clip112)" style="stroke:#000000; stroke-linecap:round; stroke-linejoin:round; stroke-width:2; stroke-opacity:0.1; fill:none" points="1754.25,1521.01 1754.25,47.2441 "/>
<polyline clip-path="url(#clip112)" style="stroke:#000000; stroke-linecap:round; stroke-linejoin:round; stroke-width:2; stroke-opacity:0.1; fill:none" points="2288.63,1521.01 2288.63,47.2441 "/>
<polyline clip-path="url(#clip110)" style="stroke:#000000; stroke-linecap:round; stroke-linejoin:round; stroke-width:4; stroke-opacity:1; fill:none" points="86.9921,1521.01 2352.76,1521.01 "/>
<polyline clip-path="url(#clip110)" style="stroke:#000000; stroke-linecap:round; stroke-linejoin:round; stroke-width:4; stroke-opacity:1; fill:none" points="151.118,1521.01 151.118,1502.11 "/>
<polyline clip-path="url(#clip110)" style="stroke:#000000; stroke-linecap:round; stroke-linejoin:round; stroke-width:4; stroke-opacity:1; fill:none" points="685.496,1521.01 685.496,1502.11 "/>
<polyline clip-path="url(#clip110)" style="stroke:#000000; stroke-linecap:round; stroke-linejoin:round; stroke-width:4; stroke-opacity:1; fill:none" points="1219.87,1521.01 1219.87,1502.11 "/>
<polyline clip-path="url(#clip110)" style="stroke:#000000; stroke-linecap:round; stroke-linejoin:round; stroke-width:4; stroke-opacity:1; fill:none" points="1754.25,1521.01 1754.25,1502.11 "/>
<polyline clip-path="url(#clip110)" style="stroke:#000000; stroke-linecap:round; stroke-linejoin:round; stroke-width:4; stroke-opacity:1; fill:none" points="2288.63,1521.01 2288.63,1502.11 "/>
<path clip-path="url(#clip110)" d="M128.502 1551.93 Q124.891 1551.93 123.062 1555.49 Q121.257 1559.03 121.257 1566.16 Q121.257 1573.27 123.062 1576.83 Q124.891 1580.38 128.502 1580.38 Q132.136 1580.38 133.942 1576.83 Q135.77 1573.27 135.77 1566.16 Q135.77 1559.03 133.942 1555.49 Q132.136 1551.93 128.502 1551.93 M128.502 1548.22 Q134.312 1548.22 137.368 1552.83 Q140.446 1557.41 140.446 1566.16 Q140.446 1574.89 137.368 1579.5 Q134.312 1584.08 128.502 1584.08 Q122.692 1584.08 119.613 1579.5 Q116.558 1574.89 116.558 1566.16 Q116.558 1557.41 119.613 1552.83 Q122.692 1548.22 128.502 1548.22 Z" fill="#000000" fill-rule="nonzero" fill-opacity="1" /><path clip-path="url(#clip110)" d="M148.664 1577.53 L153.548 1577.53 L153.548 1583.41 L148.664 1583.41 L148.664 1577.53 Z" fill="#000000" fill-rule="nonzero" fill-opacity="1" /><path clip-path="url(#clip110)" d="M173.733 1551.93 Q170.122 1551.93 168.293 1555.49 Q166.488 1559.03 166.488 1566.16 Q166.488 1573.27 168.293 1576.83 Q170.122 1580.38 173.733 1580.38 Q177.367 1580.38 179.173 1576.83 Q181.002 1573.27 181.002 1566.16 Q181.002 1559.03 179.173 1555.49 Q177.367 1551.93 173.733 1551.93 M173.733 1548.22 Q179.543 1548.22 182.599 1552.83 Q185.678 1557.41 185.678 1566.16 Q185.678 1574.89 182.599 1579.5 Q179.543 1584.08 173.733 1584.08 Q167.923 1584.08 164.844 1579.5 Q161.789 1574.89 161.789 1566.16 Q161.789 1557.41 164.844 1552.83 Q167.923 1548.22 173.733 1548.22 Z" fill="#000000" fill-rule="nonzero" fill-opacity="1" /><path clip-path="url(#clip110)" d="M657.232 1579.47 L673.551 1579.47 L673.551 1583.41 L651.607 1583.41 L651.607 1579.47 Q654.269 1576.72 658.852 1572.09 Q663.459 1567.44 664.639 1566.09 Q666.885 1563.57 667.764 1561.83 Q668.667 1560.07 668.667 1558.38 Q668.667 1555.63 666.723 1553.89 Q664.801 1552.16 661.7 1552.16 Q659.501 1552.16 657.047 1552.92 Q654.616 1553.69 651.839 1555.24 L651.839 1550.51 Q654.663 1549.38 657.116 1548.8 Q659.57 1548.22 661.607 1548.22 Q666.977 1548.22 670.172 1550.91 Q673.366 1553.59 673.366 1558.08 Q673.366 1560.21 672.556 1562.13 Q671.769 1564.03 669.663 1566.63 Q669.084 1567.3 665.982 1570.51 Q662.88 1573.71 657.232 1579.47 Z" fill="#000000" fill-rule="nonzero" fill-opacity="1" /><path clip-path="url(#clip110)" d="M683.366 1577.53 L688.25 1577.53 L688.25 1583.41 L683.366 1583.41 L683.366 1577.53 Z" fill="#000000" fill-rule="nonzero" fill-opacity="1" /><path clip-path="url(#clip110)" d="M698.482 1548.85 L716.838 1548.85 L716.838 1552.78 L702.764 1552.78 L702.764 1561.26 Q703.783 1560.91 704.801 1560.75 Q705.82 1560.56 706.838 1560.56 Q712.625 1560.56 716.005 1563.73 Q719.384 1566.9 719.384 1572.32 Q719.384 1577.9 715.912 1581 Q712.44 1584.08 706.121 1584.08 Q703.945 1584.08 701.676 1583.71 Q699.431 1583.34 697.023 1582.6 L697.023 1577.9 Q699.107 1579.03 701.329 1579.59 Q703.551 1580.14 706.028 1580.14 Q710.033 1580.14 712.371 1578.04 Q714.709 1575.93 714.709 1572.32 Q714.709 1568.71 712.371 1566.6 Q710.033 1564.5 706.028 1564.5 Q704.153 1564.5 702.278 1564.91 Q700.426 1565.33 698.482 1566.21 L698.482 1548.85 Z" fill="#000000" fill-rule="nonzero" fill-opacity="1" /><path clip-path="url(#clip110)" d="M1187.04 1548.85 L1205.39 1548.85 L1205.39 1552.78 L1191.32 1552.78 L1191.32 1561.26 Q1192.34 1560.91 1193.36 1560.75 Q1194.38 1560.56 1195.39 1560.56 Q1201.18 1560.56 1204.56 1563.73 Q1207.94 1566.9 1207.94 1572.32 Q1207.94 1577.9 1204.47 1581 Q1201 1584.08 1194.68 1584.08 Q1192.5 1584.08 1190.23 1583.71 Q1187.99 1583.34 1185.58 1582.6 L1185.58 1577.9 Q1187.66 1579.03 1189.89 1579.59 Q1192.11 1580.14 1194.58 1580.14 Q1198.59 1580.14 1200.93 1578.04 Q1203.27 1575.93 1203.27 1572.32 Q1203.27 1568.71 1200.93 1566.6 Q1198.59 1564.5 1194.58 1564.5 Q1192.71 1564.5 1190.83 1564.91 Q1188.98 1565.33 1187.04 1566.21 L1187.04 1548.85 Z" fill="#000000" fill-rule="nonzero" fill-opacity="1" /><path clip-path="url(#clip110)" d="M1217.15 1577.53 L1222.04 1577.53 L1222.04 1583.41 L1217.15 1583.41 L1217.15 1577.53 Z" fill="#000000" fill-rule="nonzero" fill-opacity="1" /><path clip-path="url(#clip110)" d="M1242.22 1551.93 Q1238.61 1551.93 1236.78 1555.49 Q1234.98 1559.03 1234.98 1566.16 Q1234.98 1573.27 1236.78 1576.83 Q1238.61 1580.38 1242.22 1580.38 Q1245.86 1580.38 1247.66 1576.83 Q1249.49 1573.27 1249.49 1566.16 Q1249.49 1559.03 1247.66 1555.49 Q1245.86 1551.93 1242.22 1551.93 M1242.22 1548.22 Q1248.03 1548.22 1251.09 1552.83 Q1254.17 1557.41 1254.17 1566.16 Q1254.17 1574.89 1251.09 1579.5 Q1248.03 1584.08 1242.22 1584.08 Q1236.41 1584.08 1233.33 1579.5 Q1230.28 1574.89 1230.28 1566.16 Q1230.28 1557.41 1233.33 1552.83 Q1236.41 1548.22 1242.22 1548.22 Z" fill="#000000" fill-rule="nonzero" fill-opacity="1" /><path clip-path="url(#clip110)" d="M1720.57 1548.85 L1742.79 1548.85 L1742.79 1550.84 L1730.25 1583.41 L1725.36 1583.41 L1737.17 1552.78 L1720.57 1552.78 L1720.57 1548.85 Z" fill="#000000" fill-rule="nonzero" fill-opacity="1" /><path clip-path="url(#clip110)" d="M1751.91 1577.53 L1756.8 1577.53 L1756.8 1583.41 L1751.91 1583.41 L1751.91 1577.53 Z" fill="#000000" fill-rule="nonzero" fill-opacity="1" /><path clip-path="url(#clip110)" d="M1767.03 1548.85 L1785.39 1548.85 L1785.39 1552.78 L1771.31 1552.78 L1771.31 1561.26 Q1772.33 1560.91 1773.35 1560.75 Q1774.37 1560.56 1775.39 1560.56 Q1781.17 1560.56 1784.55 1563.73 Q1787.93 1566.9 1787.93 1572.32 Q1787.93 1577.9 1784.46 1581 Q1780.99 1584.08 1774.67 1584.08 Q1772.49 1584.08 1770.22 1583.71 Q1767.98 1583.34 1765.57 1582.6 L1765.57 1577.9 Q1767.65 1579.03 1769.88 1579.59 Q1772.1 1580.14 1774.58 1580.14 Q1778.58 1580.14 1780.92 1578.04 Q1783.26 1575.93 1783.26 1572.32 Q1783.26 1568.71 1780.92 1566.6 Q1778.58 1564.5 1774.58 1564.5 Q1772.7 1564.5 1770.83 1564.91 Q1768.97 1565.33 1767.03 1566.21 L1767.03 1548.85 Z" fill="#000000" fill-rule="nonzero" fill-opacity="1" /><path clip-path="url(#clip110)" d="M2240.7 1579.47 L2248.34 1579.47 L2248.34 1553.11 L2240.03 1554.77 L2240.03 1550.51 L2248.3 1548.85 L2252.97 1548.85 L2252.97 1579.47 L2260.61 1579.47 L2260.61 1583.41 L2240.7 1583.41 L2240.7 1579.47 Z" fill="#000000" fill-rule="nonzero" fill-opacity="1" /><path clip-path="url(#clip110)" d="M2280.05 1551.93 Q2276.44 1551.93 2274.61 1555.49 Q2272.81 1559.03 2272.81 1566.16 Q2272.81 1573.27 2274.61 1576.83 Q2276.44 1580.38 2280.05 1580.38 Q2283.69 1580.38 2285.49 1576.83 Q2287.32 1573.27 2287.32 1566.16 Q2287.32 1559.03 2285.49 1555.49 Q2283.69 1551.93 2280.05 1551.93 M2280.05 1548.22 Q2285.86 1548.22 2288.92 1552.83 Q2292 1557.41 2292 1566.16 Q2292 1574.89 2288.92 1579.5 Q2285.86 1584.08 2280.05 1584.08 Q2274.24 1584.08 2271.17 1579.5 Q2268.11 1574.89 2268.11 1566.16 Q2268.11 1557.41 2271.17 1552.83 Q2274.24 1548.22 2280.05 1548.22 Z" fill="#000000" fill-rule="nonzero" fill-opacity="1" /><path clip-path="url(#clip110)" d="M2300.22 1577.53 L2305.1 1577.53 L2305.1 1583.41 L2300.22 1583.41 L2300.22 1577.53 Z" fill="#000000" fill-rule="nonzero" fill-opacity="1" /><path clip-path="url(#clip110)" d="M2325.29 1551.93 Q2321.67 1551.93 2319.85 1555.49 Q2318.04 1559.03 2318.04 1566.16 Q2318.04 1573.27 2319.85 1576.83 Q2321.67 1580.38 2325.29 1580.38 Q2328.92 1580.38 2330.73 1576.83 Q2332.55 1573.27 2332.55 1566.16 Q2332.55 1559.03 2330.73 1555.49 Q2328.92 1551.93 2325.29 1551.93 M2325.29 1548.22 Q2331.1 1548.22 2334.15 1552.83 Q2337.23 1557.41 2337.23 1566.16 Q2337.23 1574.89 2334.15 1579.5 Q2331.1 1584.08 2325.29 1584.08 Q2319.48 1584.08 2316.4 1579.5 Q2313.34 1574.89 2313.34 1566.16 Q2313.34 1557.41 2316.4 1552.83 Q2319.48 1548.22 2325.29 1548.22 Z" fill="#000000" fill-rule="nonzero" fill-opacity="1" /><polyline clip-path="url(#clip112)" style="stroke:#000000; stroke-linecap:round; stroke-linejoin:round; stroke-width:2; stroke-opacity:0.1; fill:none" points="86.9921,1392.3 2352.76,1392.3 "/>
<polyline clip-path="url(#clip112)" style="stroke:#000000; stroke-linecap:round; stroke-linejoin:round; stroke-width:2; stroke-opacity:0.1; fill:none" points="86.9921,1081.2 2352.76,1081.2 "/>
<polyline clip-path="url(#clip112)" style="stroke:#000000; stroke-linecap:round; stroke-linejoin:round; stroke-width:2; stroke-opacity:0.1; fill:none" points="86.9921,770.107 2352.76,770.107 "/>
<polyline clip-path="url(#clip112)" style="stroke:#000000; stroke-linecap:round; stroke-linejoin:round; stroke-width:2; stroke-opacity:0.1; fill:none" points="86.9921,459.01 2352.76,459.01 "/>
<polyline clip-path="url(#clip112)" style="stroke:#000000; stroke-linecap:round; stroke-linejoin:round; stroke-width:2; stroke-opacity:0.1; fill:none" points="86.9921,147.913 2352.76,147.913 "/>
<polyline clip-path="url(#clip110)" style="stroke:#000000; stroke-linecap:round; stroke-linejoin:round; stroke-width:4; stroke-opacity:1; fill:none" points="86.9921,1521.01 86.9921,47.2441 "/>
<polyline clip-path="url(#clip110)" style="stroke:#000000; stroke-linecap:round; stroke-linejoin:round; stroke-width:4; stroke-opacity:1; fill:none" points="86.9921,1392.3 105.89,1392.3 "/>
<polyline clip-path="url(#clip110)" style="stroke:#000000; stroke-linecap:round; stroke-linejoin:round; stroke-width:4; stroke-opacity:1; fill:none" points="86.9921,1081.2 105.89,1081.2 "/>
<polyline clip-path="url(#clip110)" style="stroke:#000000; stroke-linecap:round; stroke-linejoin:round; stroke-width:4; stroke-opacity:1; fill:none" points="86.9921,770.107 105.89,770.107 "/>
<polyline clip-path="url(#clip110)" style="stroke:#000000; stroke-linecap:round; stroke-linejoin:round; stroke-width:4; stroke-opacity:1; fill:none" points="86.9921,459.01 105.89,459.01 "/>
<polyline clip-path="url(#clip110)" style="stroke:#000000; stroke-linecap:round; stroke-linejoin:round; stroke-width:4; stroke-opacity:1; fill:none" points="86.9921,147.913 105.89,147.913 "/>
<path clip-path="url(#clip110)" d="M-40.8824 1392.75 L-11.2066 1392.75 L-11.2066 1396.69 L-40.8824 1396.69 L-40.8824 1392.75 Z" fill="#000000" fill-rule="nonzero" fill-opacity="1" /><path clip-path="url(#clip110)" d="M-0.303895 1405.65 L7.33495 1405.65 L7.33495 1379.28 L-0.975188 1380.95 L-0.975188 1376.69 L7.28866 1375.02 L11.9646 1375.02 L11.9646 1405.65 L19.6034 1405.65 L19.6034 1409.58 L-0.303895 1409.58 L-0.303895 1405.65 Z" fill="#000000" fill-rule="nonzero" fill-opacity="1" /><path clip-path="url(#clip110)" d="M39.0477 1378.1 Q35.4367 1378.1 33.608 1381.66 Q31.8024 1385.21 31.8024 1392.34 Q31.8024 1399.44 33.608 1403.01 Q35.4367 1406.55 39.0477 1406.55 Q42.682 1406.55 44.4875 1403.01 Q46.3162 1399.44 46.3162 1392.34 Q46.3162 1385.21 44.4875 1381.66 Q42.682 1378.1 39.0477 1378.1 M39.0477 1374.4 Q44.8579 1374.4 47.9134 1379 Q50.9921 1383.59 50.9921 1392.34 Q50.9921 1401.06 47.9134 1405.67 Q44.8579 1410.25 39.0477 1410.25 Q33.2376 1410.25 30.1589 1405.67 Q27.1034 1401.06 27.1034 1392.34 Q27.1034 1383.59 30.1589 1379 Q33.2376 1374.4 39.0477 1374.4 Z" fill="#000000" fill-rule="nonzero" fill-opacity="1" /><path clip-path="url(#clip110)" d="M-9.72514 1081.66 L19.9506 1081.66 L19.9506 1085.59 L-9.72514 1085.59 L-9.72514 1081.66 Z" fill="#000000" fill-rule="nonzero" fill-opacity="1" /><path clip-path="url(#clip110)" d="M30.0895 1063.92 L48.4458 1063.92 L48.4458 1067.86 L34.3718 1067.86 L34.3718 1076.33 Q35.3904 1075.98 36.4089 1075.82 Q37.4274 1075.64 38.4459 1075.64 Q44.2329 1075.64 47.6125 1078.81 Q50.9921 1081.98 50.9921 1087.4 Q50.9921 1092.97 47.5199 1096.08 Q44.0477 1099.16 37.7283 1099.16 Q35.5524 1099.16 33.2839 1098.78 Q31.0385 1098.41 28.6311 1097.67 L28.6311 1092.97 Q30.7145 1094.11 32.9367 1094.66 Q35.1589 1095.22 37.6357 1095.22 Q41.6403 1095.22 43.9783 1093.11 Q46.3162 1091.01 46.3162 1087.4 Q46.3162 1083.78 43.9783 1081.68 Q41.6403 1079.57 37.6357 1079.57 Q35.7607 1079.57 33.8857 1079.99 Q32.0339 1080.41 30.0895 1081.28 L30.0895 1063.92 Z" fill="#000000" fill-rule="nonzero" fill-opacity="1" /><path clip-path="url(#clip110)" d="M39.0477 755.906 Q35.4367 755.906 33.608 759.47 Q31.8024 763.012 31.8024 770.142 Q31.8024 777.248 33.608 780.813 Q35.4367 784.355 39.0477 784.355 Q42.682 784.355 44.4875 780.813 Q46.3162 777.248 46.3162 770.142 Q46.3162 763.012 44.4875 759.47 Q42.682 755.906 39.0477 755.906 M39.0477 752.202 Q44.8579 752.202 47.9134 756.808 Q50.9921 761.392 50.9921 770.142 Q50.9921 778.868 47.9134 783.475 Q44.8579 788.058 39.0477 788.058 Q33.2376 788.058 30.1589 783.475 Q27.1034 778.868 27.1034 770.142 Q27.1034 761.392 30.1589 756.808 Q33.2376 752.202 39.0477 752.202 Z" fill="#000000" fill-rule="nonzero" fill-opacity="1" /><path clip-path="url(#clip110)" d="M30.0895 441.73 L48.4458 441.73 L48.4458 445.665 L34.3718 445.665 L34.3718 454.137 Q35.3904 453.79 36.4089 453.628 Q37.4274 453.443 38.4459 453.443 Q44.2329 453.443 47.6125 456.614 Q50.9921 459.785 50.9921 465.202 Q50.9921 470.781 47.5199 473.883 Q44.0477 476.961 37.7283 476.961 Q35.5524 476.961 33.2839 476.591 Q31.0385 476.221 28.6311 475.48 L28.6311 470.781 Q30.7145 471.915 32.9367 472.471 Q35.1589 473.026 37.6357 473.026 Q41.6403 473.026 43.9783 470.92 Q46.3162 468.813 46.3162 465.202 Q46.3162 461.591 43.9783 459.484 Q41.6403 457.378 37.6357 457.378 Q35.7607 457.378 33.8857 457.795 Q32.0339 458.211 30.0895 459.091 L30.0895 441.73 Z" fill="#000000" fill-rule="nonzero" fill-opacity="1" /><path clip-path="url(#clip110)" d="M-0.303895 161.258 L7.33495 161.258 L7.33495 134.892 L-0.975188 136.559 L-0.975188 132.3 L7.28866 130.633 L11.9646 130.633 L11.9646 161.258 L19.6034 161.258 L19.6034 165.193 L-0.303895 165.193 L-0.303895 161.258 Z" fill="#000000" fill-rule="nonzero" fill-opacity="1" /><path clip-path="url(#clip110)" d="M39.0477 133.712 Q35.4367 133.712 33.608 137.276 Q31.8024 140.818 31.8024 147.948 Q31.8024 155.054 33.608 158.619 Q35.4367 162.161 39.0477 162.161 Q42.682 162.161 44.4875 158.619 Q46.3162 155.054 46.3162 147.948 Q46.3162 140.818 44.4875 137.276 Q42.682 133.712 39.0477 133.712 M39.0477 130.008 Q44.8579 130.008 47.9134 134.614 Q50.9921 139.198 50.9921 147.948 Q50.9921 156.674 47.9134 161.281 Q44.8579 165.864 39.0477 165.864 Q33.2376 165.864 30.1589 161.281 Q27.1034 156.674 27.1034 147.948 Q27.1034 139.198 30.1589 134.614 Q33.2376 130.008 39.0477 130.008 Z" fill="#000000" fill-rule="nonzero" fill-opacity="1" /><path clip-path="url(#clip112)" d="M151.118 891.615 L364.869 1388.08 L578.62 1479.3 L792.371 1462.93 L1006.12 1430.84 L1219.87 1397.1 L1433.63 1367.64 L1647.38 1340.62 L1861.13 1315.22 L2074.88 1287.58 L2288.63 1268.33 L2288.63 312.793 L2074.88 286.458 L1861.13 262.212 L1647.38 234.006 L1433.63 203.973 L1219.87 171.852 L1006.12 138.019 L792.371 104.589 L578.62 88.9544 L364.869 176.896 L151.118 677.602  Z" fill="#009af9" fill-rule="evenodd" fill-opacity="0.2"/>
<polyline clip-path="url(#clip112)" style="stroke:#009af9; stroke-linecap:round; stroke-linejoin:round; stroke-width:12; stroke-opacity:1; fill:none" points="151.118,758.734 364.869,816.086 578.62,812.126 792.371,816.935 1006.12,815.356 1219.87,814.471 1433.63,810.665 1647.38,803.338 1861.13,803.465 2074.88,804.739 2288.63,804.198 "/>
<path clip-path="url(#clip112)" d="M151.118 870.987 L364.869 790.387 L578.62 773.379 L792.371 771.242 L1006.12 770.751 L1219.87 771.217 L1433.63 771.396 L1647.38 771.119 L1861.13 771.191 L2074.88 770.99 L2288.63 771.055 L2288.63 769.251 L2074.88 769.177 L1861.13 768.946 L1647.38 769.307 L1433.63 769.158 L1219.87 769.223 L1006.12 769.277 L792.371 768.998 L578.62 766.719 L364.869 749.969 L151.118 669.345  Z" fill="#e26f46" fill-rule="evenodd" fill-opacity="0.2"/>
<polyline clip-path="url(#clip112)" style="stroke:#e26f46; stroke-linecap:round; stroke-linejoin:round; stroke-width:12; stroke-opacity:1; fill:none" points="151.118,774.395 364.869,771.026 578.62,770.074 792.371,770.044 1006.12,770.145 1219.87,770.238 1433.63,770.09 1647.38,770.054 1861.13,770.004 2074.88,770.129 2288.63,769.917 "/>
</svg>
