<?xml version="1.0" encoding="utf-8"?>
<svg xmlns="http://www.w3.org/2000/svg" xmlns:xlink="http://www.w3.org/1999/xlink" width="600" height="400" viewBox="0 0 2400 1600">
<defs>
  <clipPath id="clip930">
    <rect x="0" y="0" width="2400" height="1600"/>
  </clipPath>
</defs>
<path clip-path="url(#clip930)" d="M0 1600 L2400 1600 L2400 0 L0 0  Z" fill="#ffffff" fill-rule="evenodd" fill-opacity="1"/>
<defs>
  <clipPath id="clip931">
    <rect x="480" y="0" width="1681" height="1600"/>
  </clipPath>
</defs>
<path clip-path="url(#clip930)" d="M86.9921 1505.26 L2352.76 1505.26 L2352.76 47.2441 L86.9921 47.2441  Z" fill="#ffffff" fill-rule="evenodd" fill-opacity="1"/>
<defs>
  <clipPath id="clip932">
    <rect x="86" y="47" width="2267" height="1459"/>
  </clipPath>
</defs>
<polyline clip-path="url(#clip932)" style="stroke:#000000; stroke-linecap:round; stroke-linejoin:round; stroke-width:2; stroke-opacity:0.1; fill:none" points="86.9921,1505.26 86.9921,47.2441 "/>
<polyline clip-path="url(#clip932)" style="stroke:#000000; stroke-linecap:round; stroke-linejoin:round; stroke-width:2; stroke-opacity:0.1; fill:none" points="540.145,1505.26 540.145,47.2441 "/>
<polyline clip-path="url(#clip932)" style="stroke:#000000; stroke-linecap:round; stroke-linejoin:round; stroke-width:2; stroke-opacity:0.1; fill:none" points="993.298,1505.26 993.298,47.2441 "/>
<polyline clip-path="url(#clip932)" style="stroke:#000000; stroke-linecap:round; stroke-linejoin:round; stroke-width:2; stroke-opacity:0.1; fill:none" points="1446.45,1505.26 1446.45,47.2441 "/>
<polyline clip-path="url(#clip932)" style="stroke:#000000; stroke-linecap:round; stroke-linejoin:round; stroke-width:2; stroke-opacity:0.1; fill:none" points="1899.6,1505.26 1899.6,47.2441 "/>
<polyline clip-path="url(#clip932)" style="stroke:#000000; stroke-linecap:round; stroke-linejoin:round; stroke-width:2; stroke-opacity:0.1; fill:none" points="2352.76,1505.26 2352.76,47.2441 "/>
<polyline clip-path="url(#clip930)" style="stroke:#000000; stroke-linecap:round; stroke-linejoin:round; stroke-width:4; stroke-opacity:1; fill:none" points="86.9921,1505.26 2352.76,1505.26 "/>
<polyline clip-path="url(#clip930)" style="stroke:#000000; stroke-linecap:round; stroke-linejoin:round; stroke-width:4; stroke-opacity:1; fill:none" points="86.9921,1505.26 86.9921,1486.36 "/>
<polyline clip-path="url(#clip930)" style="stroke:#000000; stroke-linecap:round; stroke-linejoin:round; stroke-width:4; stroke-opacity:1; fill:none" points="540.145,1505.26 540.145,1486.36 "/>
<polyline clip-path="url(#clip930)" style="stroke:#000000; stroke-linecap:round; stroke-linejoin:round; stroke-width:4; stroke-opacity:1; fill:none" points="993.298,1505.26 993.298,1486.36 "/>
<polyline clip-path="url(#clip930)" style="stroke:#000000; stroke-linecap:round; stroke-linejoin:round; stroke-width:4; stroke-opacity:1; fill:none" points="1446.45,1505.26 1446.45,1486.36 "/>
<polyline clip-path="url(#clip930)" style="stroke:#000000; stroke-linecap:round; stroke-linejoin:round; stroke-width:4; stroke-opacity:1; fill:none" points="1899.6,1505.26 1899.6,1486.36 "/>
<polyline clip-path="url(#clip930)" style="stroke:#000000; stroke-linecap:round; stroke-linejoin:round; stroke-width:4; stroke-opacity:1; fill:none" points="2352.76,1505.26 2352.76,1486.36 "/>
<path clip-path="url(#clip930)" d="M86.9921 1536.18 Q83.381 1536.18 81.5523 1539.74 Q79.7468 1543.28 79.7468 1550.41 Q79.7468 1557.52 81.5523 1561.09 Q83.381 1564.63 86.9921 1564.63 Q90.6264 1564.63 92.4319 1561.09 Q94.2606 1557.52 94.2606 1550.41 Q94.2606 1543.28 92.4319 1539.74 Q90.6264 1536.18 86.9921 1536.18 M86.9921 1532.47 Q92.8023 1532.47 95.8578 1537.08 Q98.9365 1541.66 98.9365 1550.41 Q98.9365 1559.14 95.8578 1563.75 Q92.8023 1568.33 86.9921 1568.33 Q81.182 1568.33 78.1033 1563.75 Q75.0477 1559.14 75.0477 1550.41 Q75.0477 1541.66 78.1033 1537.08 Q81.182 1532.47 86.9921 1532.47 Z" fill="#000000" fill-rule="nonzero" fill-opacity="1" /><path clip-path="url(#clip930)" d="M534.798 1563.72 L551.117 1563.72 L551.117 1567.66 L529.173 1567.66 L529.173 1563.72 Q531.835 1560.97 536.418 1556.34 Q541.025 1551.69 542.205 1550.35 Q544.45 1547.82 545.33 1546.09 Q546.233 1544.33 546.233 1542.64 Q546.233 1539.88 544.288 1538.15 Q542.367 1536.41 539.265 1536.41 Q537.066 1536.41 534.613 1537.17 Q532.182 1537.94 529.404 1539.49 L529.404 1534.77 Q532.228 1533.63 534.682 1533.05 Q537.136 1532.47 539.173 1532.47 Q544.543 1532.47 547.737 1535.16 Q550.932 1537.85 550.932 1542.34 Q550.932 1544.47 550.122 1546.39 Q549.335 1548.28 547.228 1550.88 Q546.649 1551.55 543.548 1554.77 Q540.446 1557.96 534.798 1563.72 Z" fill="#000000" fill-rule="nonzero" fill-opacity="1" /><path clip-path="url(#clip930)" d="M996.307 1537.17 L984.501 1555.62 L996.307 1555.62 L996.307 1537.17 M995.08 1533.1 L1000.96 1533.1 L1000.96 1555.62 L1005.89 1555.62 L1005.89 1559.51 L1000.96 1559.51 L1000.96 1567.66 L996.307 1567.66 L996.307 1559.51 L980.705 1559.51 L980.705 1555 L995.08 1533.1 Z" fill="#000000" fill-rule="nonzero" fill-opacity="1" /><path clip-path="url(#clip930)" d="M1446.86 1548.52 Q1443.71 1548.52 1441.86 1550.67 Q1440.03 1552.82 1440.03 1556.57 Q1440.03 1560.3 1441.86 1562.47 Q1443.71 1564.63 1446.86 1564.63 Q1450 1564.63 1451.83 1562.47 Q1453.68 1560.3 1453.68 1556.57 Q1453.68 1552.82 1451.83 1550.67 Q1450 1548.52 1446.86 1548.52 M1456.14 1533.86 L1456.14 1538.12 Q1454.38 1537.29 1452.57 1536.85 Q1450.79 1536.41 1449.03 1536.41 Q1444.4 1536.41 1441.95 1539.53 Q1439.52 1542.66 1439.17 1548.98 Q1440.54 1546.97 1442.6 1545.9 Q1444.66 1544.81 1447.13 1544.81 Q1452.34 1544.81 1455.35 1547.98 Q1458.38 1551.13 1458.38 1556.57 Q1458.38 1561.9 1455.24 1565.11 Q1452.09 1568.33 1446.86 1568.33 Q1440.86 1568.33 1437.69 1563.75 Q1434.52 1559.14 1434.52 1550.41 Q1434.52 1542.22 1438.41 1537.36 Q1442.3 1532.47 1448.85 1532.47 Q1450.61 1532.47 1452.39 1532.82 Q1454.19 1533.17 1456.14 1533.86 Z" fill="#000000" fill-rule="nonzero" fill-opacity="1" /><path clip-path="url(#clip930)" d="M1899.6 1551.25 Q1896.27 1551.25 1894.35 1553.03 Q1892.45 1554.81 1892.45 1557.94 Q1892.45 1561.06 1894.35 1562.85 Q1896.27 1564.63 1899.6 1564.63 Q1902.94 1564.63 1904.86 1562.85 Q1906.78 1561.04 1906.78 1557.94 Q1906.78 1554.81 1904.86 1553.03 Q1902.96 1551.25 1899.6 1551.25 M1894.93 1549.26 Q1891.92 1548.52 1890.23 1546.46 Q1888.56 1544.4 1888.56 1541.43 Q1888.56 1537.29 1891.5 1534.88 Q1894.46 1532.47 1899.6 1532.47 Q1904.77 1532.47 1907.7 1534.88 Q1910.64 1537.29 1910.64 1541.43 Q1910.64 1544.4 1908.95 1546.46 Q1907.29 1548.52 1904.3 1549.26 Q1907.68 1550.04 1909.56 1552.34 Q1911.45 1554.63 1911.45 1557.94 Q1911.45 1562.96 1908.38 1565.65 Q1905.32 1568.33 1899.6 1568.33 Q1893.89 1568.33 1890.81 1565.65 Q1887.75 1562.96 1887.75 1557.94 Q1887.75 1554.63 1889.65 1552.34 Q1891.55 1550.04 1894.93 1549.26 M1893.21 1541.87 Q1893.21 1544.56 1894.88 1546.06 Q1896.57 1547.57 1899.6 1547.57 Q1902.61 1547.57 1904.3 1546.06 Q1906.02 1544.56 1906.02 1541.87 Q1906.02 1539.19 1904.3 1537.68 Q1902.61 1536.18 1899.6 1536.18 Q1896.57 1536.18 1894.88 1537.68 Q1893.21 1539.19 1893.21 1541.87 Z" fill="#000000" fill-rule="nonzero" fill-opacity="1" /><path clip-path="url(#clip930)" d="M2327.44 1563.72 L2335.08 1563.72 L2335.08 1537.36 L2326.77 1539.03 L2326.77 1534.77 L2335.04 1533.1 L2339.71 1533.1 L2339.71 1563.72 L2347.35 1563.72 L2347.35 1567.66 L2327.44 1567.66 L2327.44 1563.72 Z" fill="#000000" fill-rule="nonzero" fill-opacity="1" /><path clip-path="url(#clip930)" d="M2366.8 1536.18 Q2363.18 1536.18 2361.36 1539.74 Q2359.55 1543.28 2359.55 1550.41 Q2359.55 1557.52 2361.36 1561.09 Q2363.18 1564.63 2366.8 1564.63 Q2370.43 1564.63 2372.23 1561.09 Q2374.06 1557.52 2374.06 1550.41 Q2374.06 1543.28 2372.23 1539.74 Q2370.43 1536.18 2366.8 1536.18 M2366.8 1532.47 Q2372.61 1532.47 2375.66 1537.08 Q2378.74 1541.66 2378.74 1550.41 Q2378.74 1559.14 2375.66 1563.75 Q2372.61 1568.33 2366.8 1568.33 Q2360.99 1568.33 2357.91 1563.75 Q2354.85 1559.14 2354.85 1550.41 Q2354.85 1541.66 2357.91 1537.08 Q2360.99 1532.47 2366.8 1532.47 Z" fill="#000000" fill-rule="nonzero" fill-opacity="1" /><path clip-path="url(#clip930)" d="M1218.94 1604.35 L1218.94 1614.48 L1231 1614.48 L1231 1619.03 L1218.94 1619.03 L1218.94 1638.38 Q1218.94 1642.74 1220.11 1643.98 Q1221.32 1645.22 1224.98 1645.22 L1231 1645.22 L1231 1650.12 L1224.98 1650.12 Q1218.2 1650.12 1215.62 1647.61 Q1213.05 1645.06 1213.05 1638.38 L1213.05 1619.03 L1208.75 1619.03 L1208.75 1614.48 L1213.05 1614.48 L1213.05 1604.35 L1218.94 1604.35 Z" fill="#000000" fill-rule="nonzero" fill-opacity="1" /><polyline clip-path="url(#clip932)" style="stroke:#000000; stroke-linecap:round; stroke-linejoin:round; stroke-width:2; stroke-opacity:0.1; fill:none" points="86.9921,1383.01 2352.76,1383.01 "/>
<polyline clip-path="url(#clip932)" style="stroke:#000000; stroke-linecap:round; stroke-linejoin:round; stroke-width:2; stroke-opacity:0.1; fill:none" points="86.9921,995.223 2352.76,995.223 "/>
<polyline clip-path="url(#clip932)" style="stroke:#000000; stroke-linecap:round; stroke-linejoin:round; stroke-width:2; stroke-opacity:0.1; fill:none" points="86.9921,607.437 2352.76,607.437 "/>
<polyline clip-path="url(#clip932)" style="stroke:#000000; stroke-linecap:round; stroke-linejoin:round; stroke-width:2; stroke-opacity:0.1; fill:none" points="86.9921,219.651 2352.76,219.651 "/>
<polyline clip-path="url(#clip930)" style="stroke:#000000; stroke-linecap:round; stroke-linejoin:round; stroke-width:4; stroke-opacity:1; fill:none" points="86.9921,1505.26 86.9921,47.2441 "/>
<polyline clip-path="url(#clip930)" style="stroke:#000000; stroke-linecap:round; stroke-linejoin:round; stroke-width:4; stroke-opacity:1; fill:none" points="86.9921,1383.01 105.89,1383.01 "/>
<polyline clip-path="url(#clip930)" style="stroke:#000000; stroke-linecap:round; stroke-linejoin:round; stroke-width:4; stroke-opacity:1; fill:none" points="86.9921,995.223 105.89,995.223 "/>
<polyline clip-path="url(#clip930)" style="stroke:#000000; stroke-linecap:round; stroke-linejoin:round; stroke-width:4; stroke-opacity:1; fill:none" points="86.9921,607.437 105.89,607.437 "/>
<polyline clip-path="url(#clip930)" style="stroke:#000000; stroke-linecap:round; stroke-linejoin:round; stroke-width:4; stroke-opacity:1; fill:none" points="86.9921,219.651 105.89,219.651 "/>
<path clip-path="url(#clip930)" d="M-36.3454 1368.81 Q-39.9565 1368.81 -41.7852 1372.37 Q-43.5907 1375.91 -43.5907 1383.04 Q-43.5907 1390.15 -41.7852 1393.72 Q-39.9565 1397.26 -36.3454 1397.26 Q-32.7111 1397.26 -30.9056 1393.72 Q-29.0769 1390.15 -29.0769 1383.04 Q-29.0769 1375.91 -30.9056 1372.37 Q-32.7111 1368.81 -36.3454 1368.81 M-36.3454 1365.1 Q-30.5352 1365.1 -27.4797 1369.71 Q-24.401 1374.29 -24.401 1383.04 Q-24.401 1391.77 -27.4797 1396.38 Q-30.5352 1400.96 -36.3454 1400.96 Q-42.1555 1400.96 -45.2342 1396.38 Q-48.2897 1391.77 -48.2897 1383.04 Q-48.2897 1374.29 -45.2342 1369.71 Q-42.1555 1365.1 -36.3454 1365.1 Z" fill="#000000" fill-rule="nonzero" fill-opacity="1" /><path clip-path="url(#clip930)" d="M-16.1834 1394.41 L-11.2992 1394.41 L-11.2992 1400.29 L-16.1834 1400.29 L-16.1834 1394.41 Z" fill="#000000" fill-rule="nonzero" fill-opacity="1" /><path clip-path="url(#clip930)" d="M8.88587 1368.81 Q5.27478 1368.81 3.44608 1372.37 Q1.64054 1375.91 1.64054 1383.04 Q1.64054 1390.15 3.44608 1393.72 Q5.27478 1397.26 8.88587 1397.26 Q12.5201 1397.26 14.3257 1393.72 Q16.1543 1390.15 16.1543 1383.04 Q16.1543 1375.91 14.3257 1372.37 Q12.5201 1368.81 8.88587 1368.81 M8.88587 1365.1 Q14.696 1365.1 17.7516 1369.71 Q20.8303 1374.29 20.8303 1383.04 Q20.8303 1391.77 17.7516 1396.38 Q14.696 1400.96 8.88587 1400.96 Q3.07572 1400.96 -0.00297114 1396.38 Q-3.05851 1391.77 -3.05851 1383.04 Q-3.05851 1374.29 -0.00297114 1369.71 Q3.07572 1365.1 8.88587 1365.1 Z" fill="#000000" fill-rule="nonzero" fill-opacity="1" /><path clip-path="url(#clip930)" d="M39.0477 1368.81 Q35.4367 1368.81 33.608 1372.37 Q31.8024 1375.91 31.8024 1383.04 Q31.8024 1390.15 33.608 1393.72 Q35.4367 1397.26 39.0477 1397.26 Q42.682 1397.26 44.4875 1393.72 Q46.3162 1390.15 46.3162 1383.04 Q46.3162 1375.91 44.4875 1372.37 Q42.682 1368.81 39.0477 1368.81 M39.0477 1365.1 Q44.8579 1365.1 47.9134 1369.71 Q50.9921 1374.29 50.9921 1383.04 Q50.9921 1391.77 47.9134 1396.38 Q44.8579 1400.96 39.0477 1400.96 Q33.2376 1400.96 30.1589 1396.38 Q27.1034 1391.77 27.1034 1383.04 Q27.1034 1374.29 30.1589 1369.71 Q33.2376 1365.1 39.0477 1365.1 Z" fill="#000000" fill-rule="nonzero" fill-opacity="1" /><path clip-path="url(#clip930)" d="M-35.35 981.022 Q-38.9611 981.022 -40.7898 984.587 Q-42.5953 988.128 -42.5953 995.258 Q-42.5953 1002.36 -40.7898 1005.93 Q-38.9611 1009.47 -35.35 1009.47 Q-31.7158 1009.47 -29.9102 1005.93 Q-28.0815 1002.36 -28.0815 995.258 Q-28.0815 988.128 -29.9102 984.587 Q-31.7158 981.022 -35.35 981.022 M-35.35 977.318 Q-29.5398 977.318 -26.4843 981.925 Q-23.4056 986.508 -23.4056 995.258 Q-23.4056 1003.98 -26.4843 1008.59 Q-29.5398 1013.17 -35.35 1013.17 Q-41.1602 1013.17 -44.2388 1008.59 Q-47.2944 1003.98 -47.2944 995.258 Q-47.2944 986.508 -44.2388 981.925 Q-41.1602 977.318 -35.35 977.318 Z" fill="#000000" fill-rule="nonzero" fill-opacity="1" /><path clip-path="url(#clip930)" d="M-15.1881 1006.62 L-10.3038 1006.62 L-10.3038 1012.5 L-15.1881 1012.5 L-15.1881 1006.62 Z" fill="#000000" fill-rule="nonzero" fill-opacity="1" /><path clip-path="url(#clip930)" d="M9.88124 981.022 Q6.27014 981.022 4.44145 984.587 Q2.6359 988.128 2.6359 995.258 Q2.6359 1002.36 4.44145 1005.93 Q6.27014 1009.47 9.88124 1009.47 Q13.5155 1009.47 15.321 1005.93 Q17.1497 1002.36 17.1497 995.258 Q17.1497 988.128 15.321 984.587 Q13.5155 981.022 9.88124 981.022 M9.88124 977.318 Q15.6914 977.318 18.7469 981.925 Q21.8256 986.508 21.8256 995.258 Q21.8256 1003.98 18.7469 1008.59 Q15.6914 1013.17 9.88124 1013.17 Q4.07108 1013.17 0.992394 1008.59 Q-2.06315 1003.98 -2.06315 995.258 Q-2.06315 986.508 0.992394 981.925 Q4.07108 977.318 9.88124 977.318 Z" fill="#000000" fill-rule="nonzero" fill-opacity="1" /><path clip-path="url(#clip930)" d="M30.0895 977.943 L48.4458 977.943 L48.4458 981.878 L34.3718 981.878 L34.3718 990.351 Q35.3904 990.003 36.4089 989.841 Q37.4274 989.656 38.4459 989.656 Q44.2329 989.656 47.6125 992.827 Q50.9921 995.999 50.9921 1001.42 Q50.9921 1006.99 47.5199 1010.1 Q44.0477 1013.17 37.7283 1013.17 Q35.5524 1013.17 33.2839 1012.8 Q31.0385 1012.43 28.6311 1011.69 L28.6311 1006.99 Q30.7145 1008.13 32.9367 1008.68 Q35.1589 1009.24 37.6357 1009.24 Q41.6403 1009.24 43.9783 1007.13 Q46.3162 1005.03 46.3162 1001.42 Q46.3162 997.804 43.9783 995.698 Q41.6403 993.591 37.6357 993.591 Q35.7607 993.591 33.8857 994.008 Q32.0339 994.425 30.0895 995.304 L30.0895 977.943 Z" fill="#000000" fill-rule="nonzero" fill-opacity="1" /><path clip-path="url(#clip930)" d="M-36.3454 593.236 Q-39.9565 593.236 -41.7852 596.801 Q-43.5907 600.342 -43.5907 607.472 Q-43.5907 614.578 -41.7852 618.143 Q-39.9565 621.685 -36.3454 621.685 Q-32.7111 621.685 -30.9056 618.143 Q-29.0769 614.578 -29.0769 607.472 Q-29.0769 600.342 -30.9056 596.801 Q-32.7111 593.236 -36.3454 593.236 M-36.3454 589.532 Q-30.5352 589.532 -27.4797 594.139 Q-24.401 598.722 -24.401 607.472 Q-24.401 616.199 -27.4797 620.805 Q-30.5352 625.388 -36.3454 625.388 Q-42.1555 625.388 -45.2342 620.805 Q-48.2897 616.199 -48.2897 607.472 Q-48.2897 598.722 -45.2342 594.139 Q-42.1555 589.532 -36.3454 589.532 Z" fill="#000000" fill-rule="nonzero" fill-opacity="1" /><path clip-path="url(#clip930)" d="M-16.1834 618.838 L-11.2992 618.838 L-11.2992 624.717 L-16.1834 624.717 L-16.1834 618.838 Z" fill="#000000" fill-rule="nonzero" fill-opacity="1" /><path clip-path="url(#clip930)" d="M-0.303895 620.782 L7.33495 620.782 L7.33495 594.416 L-0.975188 596.083 L-0.975188 591.824 L7.28866 590.157 L11.9646 590.157 L11.9646 620.782 L19.6034 620.782 L19.6034 624.717 L-0.303895 624.717 L-0.303895 620.782 Z" fill="#000000" fill-rule="nonzero" fill-opacity="1" /><path clip-path="url(#clip930)" d="M39.0477 593.236 Q35.4367 593.236 33.608 596.801 Q31.8024 600.342 31.8024 607.472 Q31.8024 614.578 33.608 618.143 Q35.4367 621.685 39.0477 621.685 Q42.682 621.685 44.4875 618.143 Q46.3162 614.578 46.3162 607.472 Q46.3162 600.342 44.4875 596.801 Q42.682 593.236 39.0477 593.236 M39.0477 589.532 Q44.8579 589.532 47.9134 594.139 Q50.9921 598.722 50.9921 607.472 Q50.9921 616.199 47.9134 620.805 Q44.8579 625.388 39.0477 625.388 Q33.2376 625.388 30.1589 620.805 Q27.1034 616.199 27.1034 607.472 Q27.1034 598.722 30.1589 594.139 Q33.2376 589.532 39.0477 589.532 Z" fill="#000000" fill-rule="nonzero" fill-opacity="1" /><path clip-path="url(#clip930)" d="M-35.35 205.45 Q-38.9611 205.45 -40.7898 209.015 Q-42.5953 212.556 -42.5953 219.686 Q-42.5953 226.792 -40.7898 230.357 Q-38.9611 233.899 -35.35 233.899 Q-31.7158 233.899 -29.9102 230.357 Q-28.0815 226.792 -28.0815 219.686 Q-28.0815 212.556 -29.9102 209.015 Q-31.7158 205.45 -35.35 205.45 M-35.35 201.746 Q-29.5398 201.746 -26.4843 206.353 Q-23.4056 210.936 -23.4056 219.686 Q-23.4056 228.413 -26.4843 233.019 Q-29.5398 237.602 -35.35 237.602 Q-41.1602 237.602 -44.2388 233.019 Q-47.2944 228.413 -47.2944 219.686 Q-47.2944 210.936 -44.2388 206.353 Q-41.1602 201.746 -35.35 201.746 Z" fill="#000000" fill-rule="nonzero" fill-opacity="1" /><path clip-path="url(#clip930)" d="M-15.1881 231.051 L-10.3038 231.051 L-10.3038 236.931 L-15.1881 236.931 L-15.1881 231.051 Z" fill="#000000" fill-rule="nonzero" fill-opacity="1" /><path clip-path="url(#clip930)" d="M0.69147 232.996 L8.33032 232.996 L8.33032 206.63 L0.0201769 208.297 L0.0201769 204.038 L8.28402 202.371 L12.9599 202.371 L12.9599 232.996 L20.5988 232.996 L20.5988 236.931 L0.69147 236.931 L0.69147 232.996 Z" fill="#000000" fill-rule="nonzero" fill-opacity="1" /><path clip-path="url(#clip930)" d="M30.0895 202.371 L48.4458 202.371 L48.4458 206.306 L34.3718 206.306 L34.3718 214.778 Q35.3904 214.431 36.4089 214.269 Q37.4274 214.084 38.4459 214.084 Q44.2329 214.084 47.6125 217.255 Q50.9921 220.427 50.9921 225.843 Q50.9921 231.422 47.5199 234.524 Q44.0477 237.602 37.7283 237.602 Q35.5524 237.602 33.2839 237.232 Q31.0385 236.862 28.6311 236.121 L28.6311 231.422 Q30.7145 232.556 32.9367 233.112 Q35.1589 233.667 37.6357 233.667 Q41.6403 233.667 43.9783 231.561 Q46.3162 229.454 46.3162 225.843 Q46.3162 222.232 43.9783 220.126 Q41.6403 218.019 37.6357 218.019 Q35.7607 218.019 33.8857 218.436 Q32.0339 218.852 30.0895 219.732 L30.0895 202.371 Z" fill="#000000" fill-rule="nonzero" fill-opacity="1" /><polyline clip-path="url(#clip932)" style="stroke:#009af9; stroke-linecap:round; stroke-linejoin:round; stroke-width:4; stroke-opacity:1; fill:none" points="86.9921,607.437 313.569,646.216 540.145,380.97 766.721,536.464 993.298,255.867 1219.87,88.5087 1446.45,655.346 1673.03,237.76 1899.6,209.308 2126.18,482.612 2352.76,799.078 "/>
<polyline clip-path="url(#clip932)" style="stroke:#e26f46; stroke-linecap:round; stroke-linejoin:round; stroke-width:4; stroke-opacity:1; fill:none" points="86.9921,1383.01 313.569,1334.29 540.145,1400.01 766.721,1330.92 993.298,1346.93 1219.87,1464 1446.45,1309.79 1673.03,1369.18 1899.6,1417.63 2126.18,1426.79 2352.76,1362.13 "/>
<path clip-path="url(#clip930)" d="M162.518 251.365 L412.288 251.365 L412.288 95.8446 L162.518 95.8446  Z" fill="#ffffff" fill-rule="evenodd" fill-opacity="1"/>
<polyline clip-path="url(#clip930)" style="stroke:#000000; stroke-linecap:round; stroke-linejoin:round; stroke-width:4; stroke-opacity:1; fill:none" points="162.518,251.365 412.288,251.365 412.288,95.8446 162.518,95.8446 162.518,251.365 "/>
<polyline clip-path="url(#clip930)" style="stroke:#009af9; stroke-linecap:round; stroke-linejoin:round; stroke-width:4; stroke-opacity:1; fill:none" points="187.693,147.685 338.744,147.685 "/>
<path clip-path="url(#clip930)" d="M377.322 151.932 Q372.16 151.932 370.169 153.113 Q368.178 154.293 368.178 157.141 Q368.178 159.409 369.66 160.752 Q371.164 162.071 373.734 162.071 Q377.275 162.071 379.405 159.571 Q381.558 157.048 381.558 152.881 L381.558 151.932 L377.322 151.932 M385.817 150.173 L385.817 164.965 L381.558 164.965 L381.558 161.029 Q380.099 163.391 377.923 164.525 Q375.747 165.636 372.599 165.636 Q368.618 165.636 366.257 163.414 Q363.919 161.168 363.919 157.418 Q363.919 153.043 366.835 150.821 Q369.775 148.599 375.585 148.599 L381.558 148.599 L381.558 148.182 Q381.558 145.243 379.613 143.645 Q377.692 142.025 374.197 142.025 Q371.974 142.025 369.868 142.557 Q367.761 143.09 365.817 144.155 L365.817 140.219 Q368.155 139.317 370.354 138.877 Q372.553 138.414 374.636 138.414 Q380.261 138.414 383.039 141.33 Q385.817 144.247 385.817 150.173 Z" fill="#000000" fill-rule="nonzero" fill-opacity="1" /><polyline clip-path="url(#clip930)" style="stroke:#e26f46; stroke-linecap:round; stroke-linejoin:round; stroke-width:4; stroke-opacity:1; fill:none" points="187.693,199.525 338.744,199.525 "/>
<path clip-path="url(#clip930)" d="M382.692 203.865 Q382.692 199.166 380.747 196.504 Q378.826 193.819 375.447 193.819 Q372.067 193.819 370.122 196.504 Q368.201 199.166 368.201 203.865 Q368.201 208.564 370.122 211.249 Q372.067 213.911 375.447 213.911 Q378.826 213.911 380.747 211.249 Q382.692 208.564 382.692 203.865 M368.201 194.814 Q369.544 192.499 371.581 191.388 Q373.641 190.254 376.488 190.254 Q381.21 190.254 384.15 194.004 Q387.113 197.754 387.113 203.865 Q387.113 209.976 384.15 213.726 Q381.21 217.476 376.488 217.476 Q373.641 217.476 371.581 216.365 Q369.544 215.231 368.201 212.916 L368.201 216.805 L363.919 216.805 L363.919 180.786 L368.201 180.786 L368.201 194.814 Z" fill="#000000" fill-rule="nonzero" fill-opacity="1" /></svg>
