<?xml version="1.0" encoding="utf-8"?>
<svg xmlns="http://www.w3.org/2000/svg" xmlns:xlink="http://www.w3.org/1999/xlink" width="600" height="400" viewBox="0 0 2400 1600">
<defs>
  <clipPath id="clip870">
    <rect x="0" y="0" width="2400" height="1600"/>
  </clipPath>
</defs>
<path clip-path="url(#clip870)" d="M0 1600 L2400 1600 L2400 0 L0 0  Z" fill="#ffffff" fill-rule="evenodd" fill-opacity="1"/>
<defs>
  <clipPath id="clip871">
    <rect x="480" y="0" width="1681" height="1600"/>
  </clipPath>
</defs>
<path clip-path="url(#clip870)" d="M86.9921 1505.26 L2352.76 1505.26 L2352.76 47.2441 L86.9921 47.2441  Z" fill="#ffffff" fill-rule="evenodd" fill-opacity="1"/>
<defs>
  <clipPath id="clip872">
    <rect x="86" y="47" width="2267" height="1459"/>
  </clipPath>
</defs>
<polyline clip-path="url(#clip872)" style="stroke:#000000; stroke-linecap:round; stroke-linejoin:round; stroke-width:2; stroke-opacity:0.1; fill:none" points="86.9921,1505.26 86.9921,47.2441 "/>
<polyline clip-path="url(#clip872)" style="stroke:#000000; stroke-linecap:round; stroke-linejoin:round; stroke-width:2; stroke-opacity:0.1; fill:none" points="540.145,1505.26 540.145,47.2441 "/>
<polyline clip-path="url(#clip872)" style="stroke:#000000; stroke-linecap:round; stroke-linejoin:round; stroke-width:2; stroke-opacity:0.1; fill:none" points="993.298,1505.26 993.298,47.2441 "/>
<polyline clip-path="url(#clip872)" style="stroke:#000000; stroke-linecap:round; stroke-linejoin:round; stroke-width:2; stroke-opacity:0.1; fill:none" points="1446.45,1505.26 1446.45,47.2441 "/>
<polyline clip-path="url(#clip872)" style="stroke:#000000; stroke-linecap:round; stroke-linejoin:round; stroke-width:2; stroke-opacity:0.1; fill:none" points="1899.6,1505.26 1899.6,47.2441 "/>
<polyline clip-path="url(#clip872)" style="stroke:#000000; stroke-linecap:round; stroke-linejoin:round; stroke-width:2; stroke-opacity:0.1; fill:none" points="2352.76,1505.26 2352.76,47.2441 "/>
<polyline clip-path="url(#clip870)" style="stroke:#000000; stroke-linecap:round; stroke-linejoin:round; stroke-width:4; stroke-opacity:1; fill:none" points="86.9921,1505.26 2352.76,1505.26 "/>
<polyline clip-path="url(#clip870)" style="stroke:#000000; stroke-linecap:round; stroke-linejoin:round; stroke-width:4; stroke-opacity:1; fill:none" points="86.9921,1505.26 86.9921,1486.36 "/>
<polyline clip-path="url(#clip870)" style="stroke:#000000; stroke-linecap:round; stroke-linejoin:round; stroke-width:4; stroke-opacity:1; fill:none" points="540.145,1505.26 540.145,1486.36 "/>
<polyline clip-path="url(#clip870)" style="stroke:#000000; stroke-linecap:round; stroke-linejoin:round; stroke-width:4; stroke-opacity:1; fill:none" points="993.298,1505.26 993.298,1486.36 "/>
<polyline clip-path="url(#clip870)" style="stroke:#000000; stroke-linecap:round; stroke-linejoin:round; stroke-width:4; stroke-opacity:1; fill:none" points="1446.45,1505.26 1446.45,1486.36 "/>
<polyline clip-path="url(#clip870)" style="stroke:#000000; stroke-linecap:round; stroke-linejoin:round; stroke-width:4; stroke-opacity:1; fill:none" points="1899.6,1505.26 1899.6,1486.36 "/>
<polyline clip-path="url(#clip870)" style="stroke:#000000; stroke-linecap:round; stroke-linejoin:round; stroke-width:4; stroke-opacity:1; fill:none" points="2352.76,1505.26 2352.76,1486.36 "/>
<path clip-path="url(#clip870)" d="M86.9921 1536.18 Q83.381 1536.18 81.5523 1539.74 Q79.7468 1543.28 79.7468 1550.41 Q79.7468 1557.52 81.5523 1561.09 Q83.381 1564.63 86.9921 1564.63 Q90.6264 1564.63 92.4319 1561.09 Q94.2606 1557.52 94.2606 1550.41 Q94.2606 1543.28 92.4319 1539.74 Q90.6264 1536.18 86.9921 1536.18 M86.9921 1532.47 Q92.8023 1532.47 95.8578 1537.08 Q98.9365 1541.66 98.9365 1550.41 Q98.9365 1559.14 95.8578 1563.75 Q92.8023 1568.33 86.9921 1568.33 Q81.182 1568.33 78.1033 1563.75 Q75.0477 1559.14 75.0477 1550.41 Q75.0477 1541.66 78.1033 1537.08 Q81.182 1532.47 86.9921 1532.47 Z" fill="#000000" fill-rule="nonzero" fill-opacity="1" /><path clip-path="url(#clip870)" d="M534.798 1563.72 L551.117 1563.72 L551.117 1567.66 L529.173 1567.66 L529.173 1563.72 Q531.835 1560.97 536.418 1556.34 Q541.025 1551.69 542.205 1550.35 Q544.45 1547.82 545.33 1546.09 Q546.233 1544.33 546.233 1542.64 Q546.233 1539.88 544.288 1538.15 Q542.367 1536.41 539.265 1536.41 Q537.066 1536.41 534.613 1537.17 Q532.182 1537.94 529.404 1539.49 L529.404 1534.77 Q532.228 1533.63 534.682 1533.05 Q537.136 1532.47 539.173 1532.47 Q544.543 1532.47 547.737 1535.16 Q550.932 1537.85 550.932 1542.34 Q550.932 1544.47 550.122 1546.39 Q549.335 1548.28 547.228 1550.88 Q546.649 1551.55 543.548 1554.77 Q540.446 1557.96 534.798 1563.72 Z" fill="#000000" fill-rule="nonzero" fill-opacity="1" /><path clip-path="url(#clip870)" d="M996.307 1537.17 L984.501 1555.62 L996.307 1555.62 L996.307 1537.17 M995.08 1533.1 L1000.96 1533.1 L1000.96 1555.62 L1005.89 1555.62 L1005.89 1559.51 L1000.96 1559.51 L1000.96 1567.66 L996.307 1567.66 L996.307 1559.51 L980.705 1559.51 L980.705 1555 L995.08 1533.1 Z" fill="#000000" fill-rule="nonzero" fill-opacity="1" /><path clip-path="url(#clip870)" d="M1446.86 1548.52 Q1443.71 1548.52 1441.86 1550.67 Q1440.03 1552.82 1440.03 1556.57 Q1440.03 1560.3 1441.86 1562.47 Q1443.71 1564.63 1446.86 1564.63 Q1450 1564.63 1451.83 1562.47 Q1453.68 1560.3 1453.68 1556.57 Q1453.68 1552.82 1451.83 1550.67 Q1450 1548.52 1446.86 1548.52 M1456.14 1533.86 L1456.14 1538.12 Q1454.38 1537.29 1452.57 1536.85 Q1450.79 1536.41 1449.03 1536.41 Q1444.4 1536.41 1441.95 1539.53 Q1439.52 1542.66 1439.17 1548.98 Q1440.54 1546.97 1442.6 1545.9 Q1444.66 1544.81 1447.13 1544.81 Q1452.34 1544.81 1455.35 1547.98 Q1458.38 1551.13 1458.38 1556.57 Q1458.38 1561.9 1455.24 1565.11 Q1452.09 1568.33 1446.86 1568.33 Q1440.86 1568.33 1437.69 1563.75 Q1434.52 1559.14 1434.52 1550.41 Q1434.52 1542.22 1438.41 1537.36 Q1442.3 1532.47 1448.85 1532.47 Q1450.61 1532.47 1452.39 1532.82 Q1454.19 1533.17 1456.14 1533.86 Z" fill="#000000" fill-rule="nonzero" fill-opacity="1" /><path clip-path="url(#clip870)" d="M1899.6 1551.25 Q1896.27 1551.25 1894.35 1553.03 Q1892.45 1554.81 1892.45 1557.94 Q1892.45 1561.06 1894.35 1562.85 Q1896.27 1564.63 1899.6 1564.63 Q1902.94 1564.63 1904.86 1562.85 Q1906.78 1561.04 1906.78 1557.94 Q1906.78 1554.81 1904.86 1553.03 Q1902.96 1551.25 1899.6 1551.25 M1894.93 1549.26 Q1891.92 1548.52 1890.23 1546.46 Q1888.56 1544.4 1888.56 1541.43 Q1888.56 1537.29 1891.5 1534.88 Q1894.46 1532.47 1899.6 1532.47 Q1904.77 1532.47 1907.7 1534.88 Q1910.64 1537.29 1910.64 1541.43 Q1910.64 1544.4 1908.95 1546.46 Q1907.29 1548.52 1904.3 1549.26 Q1907.68 1550.04 1909.56 1552.34 Q1911.45 1554.63 1911.45 1557.94 Q1911.45 1562.96 1908.38 1565.65 Q1905.32 1568.33 1899.6 1568.33 Q1893.89 1568.33 1890.81 1565.65 Q1887.75 1562.96 1887.75 1557.94 Q1887.75 1554.63 1889.65 1552.34 Q1891.55 1550.04 1894.93 1549.26 M1893.21 1541.87 Q1893.21 1544.56 1894.88 1546.06 Q1896.57 1547.57 1899.6 1547.57 Q1902.61 1547.57 1904.3 1546.06 Q1906.02 1544.56 1906.02 1541.87 Q1906.02 1539.19 1904.3 1537.68 Q1902.61 1536.18 1899.6 1536.18 Q1896.57 1536.18 1894.88 1537.68 Q1893.21 1539.19 1893.21 1541.87 Z" fill="#000000" fill-rule="nonzero" fill-opacity="1" /><path clip-path="url(#clip870)" d="M2327.44 1563.72 L2335.08 1563.72 L2335.08 1537.36 L2326.77 1539.03 L2326.77 1534.77 L2335.04 1533.1 L2339.71 1533.1 L2339.71 1563.72 L2347.35 1563.72 L2347.35 1567.66 L2327.44 1567.66 L2327.44 1563.72 Z" fill="#000000" fill-rule="nonzero" fill-opacity="1" /><path clip-path="url(#clip870)" d="M2366.8 1536.18 Q2363.18 1536.18 2361.36 1539.74 Q2359.55 1543.28 2359.55 1550.41 Q2359.55 1557.52 2361.36 1561.09 Q2363.18 1564.63 2366.8 1564.63 Q2370.43 1564.63 2372.23 1561.09 Q2374.06 1557.52 2374.06 1550.41 Q2374.06 1543.28 2372.23 1539.74 Q2370.43 1536.18 2366.8 1536.18 M2366.8 1532.47 Q2372.61 1532.47 2375.66 1537.08 Q2378.74 1541.66 2378.74 1550.41 Q2378.74 1559.14 2375.66 1563.75 Q2372.61 1568.33 2366.8 1568.33 Q2360.99 1568.33 2357.91 1563.75 Q2354.85 1559.14 2354.85 1550.41 Q2354.85 1541.66 2357.91 1537.08 Q2360.99 1532.47 2366.8 1532.47 Z" fill="#000000" fill-rule="nonzero" fill-opacity="1" /><path clip-path="url(#clip870)" d="M1218.94 1604.35 L1218.94 1614.48 L1231 1614.48 L1231 1619.03 L1218.94 1619.03 L1218.94 1638.38 Q1218.94 1642.74 1220.11 1643.98 Q1221.32 1645.22 1224.98 1645.22 L1231 1645.22 L1231 1650.12 L1224.98 1650.12 Q1218.2 1650.12 1215.62 1647.61 Q1213.05 1645.06 1213.05 1638.38 L1213.05 1619.03 L1208.75 1619.03 L1208.75 1614.48 L1213.05 1614.48 L1213.05 1604.35 L1218.94 1604.35 Z" fill="#000000" fill-rule="nonzero" fill-opacity="1" /><polyline clip-path="url(#clip872)" style="stroke:#000000; stroke-linecap:round; stroke-linejoin:round; stroke-width:2; stroke-opacity:0.1; fill:none" points="86.9921,1320.33 2352.76,1320.33 "/>
<polyline clip-path="url(#clip872)" style="stroke:#000000; stroke-linecap:round; stroke-linejoin:round; stroke-width:2; stroke-opacity:0.1; fill:none" points="86.9921,1045.16 2352.76,1045.16 "/>
<polyline clip-path="url(#clip872)" style="stroke:#000000; stroke-linecap:round; stroke-linejoin:round; stroke-width:2; stroke-opacity:0.1; fill:none" points="86.9921,769.985 2352.76,769.985 "/>
<polyline clip-path="url(#clip872)" style="stroke:#000000; stroke-linecap:round; stroke-linejoin:round; stroke-width:2; stroke-opacity:0.1; fill:none" points="86.9921,494.813 2352.76,494.813 "/>
<polyline clip-path="url(#clip872)" style="stroke:#000000; stroke-linecap:round; stroke-linejoin:round; stroke-width:2; stroke-opacity:0.1; fill:none" points="86.9921,219.642 2352.76,219.642 "/>
<polyline clip-path="url(#clip870)" style="stroke:#000000; stroke-linecap:round; stroke-linejoin:round; stroke-width:4; stroke-opacity:1; fill:none" points="86.9921,1505.26 86.9921,47.2441 "/>
<polyline clip-path="url(#clip870)" style="stroke:#000000; stroke-linecap:round; stroke-linejoin:round; stroke-width:4; stroke-opacity:1; fill:none" points="86.9921,1320.33 105.89,1320.33 "/>
<polyline clip-path="url(#clip870)" style="stroke:#000000; stroke-linecap:round; stroke-linejoin:round; stroke-width:4; stroke-opacity:1; fill:none" points="86.9921,1045.16 105.89,1045.16 "/>
<polyline clip-path="url(#clip870)" style="stroke:#000000; stroke-linecap:round; stroke-linejoin:round; stroke-width:4; stroke-opacity:1; fill:none" points="86.9921,769.985 105.89,769.985 "/>
<polyline clip-path="url(#clip870)" style="stroke:#000000; stroke-linecap:round; stroke-linejoin:round; stroke-width:4; stroke-opacity:1; fill:none" points="86.9921,494.813 105.89,494.813 "/>
<polyline clip-path="url(#clip870)" style="stroke:#000000; stroke-linecap:round; stroke-linejoin:round; stroke-width:4; stroke-opacity:1; fill:none" points="86.9921,219.642 105.89,219.642 "/>
<path clip-path="url(#clip870)" d="M-36.3454 1306.13 Q-39.9565 1306.13 -41.7852 1309.69 Q-43.5907 1313.23 -43.5907 1320.36 Q-43.5907 1327.47 -41.7852 1331.03 Q-39.9565 1334.57 -36.3454 1334.57 Q-32.7111 1334.57 -30.9056 1331.03 Q-29.0769 1327.47 -29.0769 1320.36 Q-29.0769 1313.23 -30.9056 1309.69 Q-32.7111 1306.13 -36.3454 1306.13 M-36.3454 1302.42 Q-30.5352 1302.42 -27.4797 1307.03 Q-24.401 1311.61 -24.401 1320.36 Q-24.401 1329.09 -27.4797 1333.7 Q-30.5352 1338.28 -36.3454 1338.28 Q-42.1555 1338.28 -45.2342 1333.7 Q-48.2897 1329.09 -48.2897 1320.36 Q-48.2897 1311.61 -45.2342 1307.03 Q-42.1555 1302.42 -36.3454 1302.42 Z" fill="#000000" fill-rule="nonzero" fill-opacity="1" /><path clip-path="url(#clip870)" d="M-16.1834 1331.73 L-11.2992 1331.73 L-11.2992 1337.61 L-16.1834 1337.61 L-16.1834 1331.73 Z" fill="#000000" fill-rule="nonzero" fill-opacity="1" /><path clip-path="url(#clip870)" d="M8.88587 1306.13 Q5.27478 1306.13 3.44608 1309.69 Q1.64054 1313.23 1.64054 1320.36 Q1.64054 1327.47 3.44608 1331.03 Q5.27478 1334.57 8.88587 1334.57 Q12.5201 1334.57 14.3257 1331.03 Q16.1543 1327.47 16.1543 1320.36 Q16.1543 1313.23 14.3257 1309.69 Q12.5201 1306.13 8.88587 1306.13 M8.88587 1302.42 Q14.696 1302.42 17.7516 1307.03 Q20.8303 1311.61 20.8303 1320.36 Q20.8303 1329.09 17.7516 1333.7 Q14.696 1338.28 8.88587 1338.28 Q3.07572 1338.28 -0.00297114 1333.7 Q-3.05851 1329.09 -3.05851 1320.36 Q-3.05851 1311.61 -0.00297114 1307.03 Q3.07572 1302.42 8.88587 1302.42 Z" fill="#000000" fill-rule="nonzero" fill-opacity="1" /><path clip-path="url(#clip870)" d="M39.0477 1306.13 Q35.4367 1306.13 33.608 1309.69 Q31.8024 1313.23 31.8024 1320.36 Q31.8024 1327.47 33.608 1331.03 Q35.4367 1334.57 39.0477 1334.57 Q42.682 1334.57 44.4875 1331.03 Q46.3162 1327.47 46.3162 1320.36 Q46.3162 1313.23 44.4875 1309.69 Q42.682 1306.13 39.0477 1306.13 M39.0477 1302.42 Q44.8579 1302.42 47.9134 1307.03 Q50.9921 1311.61 50.9921 1320.36 Q50.9921 1329.09 47.9134 1333.7 Q44.8579 1338.28 39.0477 1338.28 Q33.2376 1338.28 30.1589 1333.7 Q27.1034 1329.09 27.1034 1320.36 Q27.1034 1311.61 30.1589 1307.03 Q33.2376 1302.42 39.0477 1302.42 Z" fill="#000000" fill-rule="nonzero" fill-opacity="1" /><path clip-path="url(#clip870)" d="M-34.7482 1030.95 Q-38.3592 1030.95 -40.1879 1034.52 Q-41.9935 1038.06 -41.9935 1045.19 Q-41.9935 1052.3 -40.1879 1055.86 Q-38.3592 1059.4 -34.7482 1059.4 Q-31.1139 1059.4 -29.3084 1055.86 Q-27.4797 1052.3 -27.4797 1045.19 Q-27.4797 1038.06 -29.3084 1034.52 Q-31.1139 1030.95 -34.7482 1030.95 M-34.7482 1027.25 Q-28.938 1027.25 -25.8825 1031.86 Q-22.8038 1036.44 -22.8038 1045.19 Q-22.8038 1053.92 -25.8825 1058.52 Q-28.938 1063.11 -34.7482 1063.11 Q-40.5583 1063.11 -43.637 1058.52 Q-46.6925 1053.92 -46.6925 1045.19 Q-46.6925 1036.44 -43.637 1031.86 Q-40.5583 1027.25 -34.7482 1027.25 Z" fill="#000000" fill-rule="nonzero" fill-opacity="1" /><path clip-path="url(#clip870)" d="M-14.5862 1056.56 L-9.70199 1056.56 L-9.70199 1062.44 L-14.5862 1062.44 L-14.5862 1056.56 Z" fill="#000000" fill-rule="nonzero" fill-opacity="1" /><path clip-path="url(#clip870)" d="M10.4831 1030.95 Q6.87199 1030.95 5.0433 1034.52 Q3.23775 1038.06 3.23775 1045.19 Q3.23775 1052.3 5.0433 1055.86 Q6.87199 1059.4 10.4831 1059.4 Q14.1173 1059.4 15.9229 1055.86 Q17.7516 1052.3 17.7516 1045.19 Q17.7516 1038.06 15.9229 1034.52 Q14.1173 1030.95 10.4831 1030.95 M10.4831 1027.25 Q16.2932 1027.25 19.3488 1031.86 Q22.4275 1036.44 22.4275 1045.19 Q22.4275 1053.92 19.3488 1058.52 Q16.2932 1063.11 10.4831 1063.11 Q4.67293 1063.11 1.59424 1058.52 Q-1.4613 1053.92 -1.4613 1045.19 Q-1.4613 1036.44 1.59424 1031.86 Q4.67293 1027.25 10.4831 1027.25 Z" fill="#000000" fill-rule="nonzero" fill-opacity="1" /><path clip-path="url(#clip870)" d="M34.6728 1058.5 L50.9921 1058.5 L50.9921 1062.44 L29.0478 1062.44 L29.0478 1058.5 Q31.7098 1055.75 36.2931 1051.12 Q40.8996 1046.46 42.0801 1045.12 Q44.3255 1042.6 45.2051 1040.86 Q46.1079 1039.1 46.1079 1037.41 Q46.1079 1034.66 44.1635 1032.92 Q42.2422 1031.19 39.1403 1031.19 Q36.9413 1031.19 34.4876 1031.95 Q32.057 1032.71 29.2793 1034.26 L29.2793 1029.54 Q32.1033 1028.41 34.557 1027.83 Q37.0107 1027.25 39.0477 1027.25 Q44.4181 1027.25 47.6125 1029.94 Q50.8069 1032.62 50.8069 1037.11 Q50.8069 1039.24 49.9968 1041.16 Q49.2097 1043.06 47.1033 1045.65 Q46.5246 1046.32 43.4227 1049.54 Q40.3209 1052.74 34.6728 1058.5 Z" fill="#000000" fill-rule="nonzero" fill-opacity="1" /><path clip-path="url(#clip870)" d="M-36.8315 755.783 Q-40.4426 755.783 -42.2713 759.348 Q-44.0768 762.89 -44.0768 770.019 Q-44.0768 777.126 -42.2713 780.691 Q-40.4426 784.232 -36.8315 784.232 Q-33.1972 784.232 -31.3917 780.691 Q-29.563 777.126 -29.563 770.019 Q-29.563 762.89 -31.3917 759.348 Q-33.1972 755.783 -36.8315 755.783 M-36.8315 752.08 Q-31.0213 752.08 -27.9658 756.686 Q-24.8871 761.269 -24.8871 770.019 Q-24.8871 778.746 -27.9658 783.353 Q-31.0213 787.936 -36.8315 787.936 Q-42.6416 787.936 -45.7203 783.353 Q-48.7759 778.746 -48.7759 770.019 Q-48.7759 761.269 -45.7203 756.686 Q-42.6416 752.08 -36.8315 752.08 Z" fill="#000000" fill-rule="nonzero" fill-opacity="1" /><path clip-path="url(#clip870)" d="M-16.6695 781.385 L-11.7853 781.385 L-11.7853 787.265 L-16.6695 787.265 L-16.6695 781.385 Z" fill="#000000" fill-rule="nonzero" fill-opacity="1" /><path clip-path="url(#clip870)" d="M8.39976 755.783 Q4.78867 755.783 2.95998 759.348 Q1.15443 762.89 1.15443 770.019 Q1.15443 777.126 2.95998 780.691 Q4.78867 784.232 8.39976 784.232 Q12.034 784.232 13.8395 780.691 Q15.6682 777.126 15.6682 770.019 Q15.6682 762.89 13.8395 759.348 Q12.034 755.783 8.39976 755.783 M8.39976 752.08 Q14.2099 752.08 17.2655 756.686 Q20.3441 761.269 20.3441 770.019 Q20.3441 778.746 17.2655 783.353 Q14.2099 787.936 8.39976 787.936 Q2.58961 787.936 -0.48908 783.353 Q-3.54462 778.746 -3.54462 770.019 Q-3.54462 761.269 -0.48908 756.686 Q2.58961 752.08 8.39976 752.08 Z" fill="#000000" fill-rule="nonzero" fill-opacity="1" /><path clip-path="url(#clip870)" d="M41.4088 756.779 L29.6034 775.228 L41.4088 775.228 L41.4088 756.779 M40.182 752.705 L46.0616 752.705 L46.0616 775.228 L50.9921 775.228 L50.9921 779.116 L46.0616 779.116 L46.0616 787.265 L41.4088 787.265 L41.4088 779.116 L25.8071 779.116 L25.8071 774.603 L40.182 752.705 Z" fill="#000000" fill-rule="nonzero" fill-opacity="1" /><path clip-path="url(#clip870)" d="M-36.5074 480.612 Q-40.1185 480.612 -41.9472 484.177 Q-43.7527 487.718 -43.7527 494.848 Q-43.7527 501.954 -41.9472 505.519 Q-40.1185 509.061 -36.5074 509.061 Q-32.8732 509.061 -31.0676 505.519 Q-29.2389 501.954 -29.2389 494.848 Q-29.2389 487.718 -31.0676 484.177 Q-32.8732 480.612 -36.5074 480.612 M-36.5074 476.908 Q-30.6973 476.908 -27.6417 481.515 Q-24.563 486.098 -24.563 494.848 Q-24.563 503.575 -27.6417 508.181 Q-30.6973 512.765 -36.5074 512.765 Q-42.3176 512.765 -45.3962 508.181 Q-48.4518 503.575 -48.4518 494.848 Q-48.4518 486.098 -45.3962 481.515 Q-42.3176 476.908 -36.5074 476.908 Z" fill="#000000" fill-rule="nonzero" fill-opacity="1" /><path clip-path="url(#clip870)" d="M-16.3455 506.214 L-11.4612 506.214 L-11.4612 512.093 L-16.3455 512.093 L-16.3455 506.214 Z" fill="#000000" fill-rule="nonzero" fill-opacity="1" /><path clip-path="url(#clip870)" d="M8.72383 480.612 Q5.11274 480.612 3.28405 484.177 Q1.4785 487.718 1.4785 494.848 Q1.4785 501.954 3.28405 505.519 Q5.11274 509.061 8.72383 509.061 Q12.3581 509.061 14.1636 505.519 Q15.9923 501.954 15.9923 494.848 Q15.9923 487.718 14.1636 484.177 Q12.3581 480.612 8.72383 480.612 M8.72383 476.908 Q14.534 476.908 17.5895 481.515 Q20.6682 486.098 20.6682 494.848 Q20.6682 503.575 17.5895 508.181 Q14.534 512.765 8.72383 512.765 Q2.91368 512.765 -0.165007 508.181 Q-3.22055 503.575 -3.22055 494.848 Q-3.22055 486.098 -0.165007 481.515 Q2.91368 476.908 8.72383 476.908 Z" fill="#000000" fill-rule="nonzero" fill-opacity="1" /><path clip-path="url(#clip870)" d="M39.4644 492.95 Q36.3163 492.95 34.4644 495.103 Q32.6357 497.255 32.6357 501.005 Q32.6357 504.732 34.4644 506.908 Q36.3163 509.061 39.4644 509.061 Q42.6125 509.061 44.4412 506.908 Q46.2931 504.732 46.2931 501.005 Q46.2931 497.255 44.4412 495.103 Q42.6125 492.95 39.4644 492.95 M48.7468 478.297 L48.7468 482.556 Q46.9875 481.723 45.182 481.283 Q43.3996 480.843 41.6403 480.843 Q37.0107 480.843 34.557 483.968 Q32.1265 487.093 31.7793 493.413 Q33.145 491.399 35.2052 490.334 Q37.2653 489.246 39.7422 489.246 Q44.9505 489.246 47.9597 492.417 Q50.9921 495.566 50.9921 501.005 Q50.9921 506.329 47.844 509.547 Q44.6959 512.765 39.4644 512.765 Q33.4691 512.765 30.2978 508.181 Q27.1265 503.575 27.1265 494.848 Q27.1265 486.654 31.0154 481.792 Q34.9042 476.908 41.4551 476.908 Q43.2144 476.908 44.9968 477.255 Q46.8023 477.603 48.7468 478.297 Z" fill="#000000" fill-rule="nonzero" fill-opacity="1" /><path clip-path="url(#clip870)" d="M-36.2528 205.441 Q-39.8639 205.441 -41.6926 209.005 Q-43.4981 212.547 -43.4981 219.677 Q-43.4981 226.783 -41.6926 230.348 Q-39.8639 233.889 -36.2528 233.889 Q-32.6185 233.889 -30.813 230.348 Q-28.9843 226.783 -28.9843 219.677 Q-28.9843 212.547 -30.813 209.005 Q-32.6185 205.441 -36.2528 205.441 M-36.2528 201.737 Q-30.4426 201.737 -27.3871 206.343 Q-24.3084 210.927 -24.3084 219.677 Q-24.3084 228.403 -27.3871 233.01 Q-30.4426 237.593 -36.2528 237.593 Q-42.0629 237.593 -45.1416 233.01 Q-48.1972 228.403 -48.1972 219.677 Q-48.1972 210.927 -45.1416 206.343 Q-42.0629 201.737 -36.2528 201.737 Z" fill="#000000" fill-rule="nonzero" fill-opacity="1" /><path clip-path="url(#clip870)" d="M-16.0908 231.042 L-11.2066 231.042 L-11.2066 236.922 L-16.0908 236.922 L-16.0908 231.042 Z" fill="#000000" fill-rule="nonzero" fill-opacity="1" /><path clip-path="url(#clip870)" d="M8.97846 205.441 Q5.36737 205.441 3.53868 209.005 Q1.73313 212.547 1.73313 219.677 Q1.73313 226.783 3.53868 230.348 Q5.36737 233.889 8.97846 233.889 Q12.6127 233.889 14.4182 230.348 Q16.2469 226.783 16.2469 219.677 Q16.2469 212.547 14.4182 209.005 Q12.6127 205.441 8.97846 205.441 M8.97846 201.737 Q14.7886 201.737 17.8442 206.343 Q20.9228 210.927 20.9228 219.677 Q20.9228 228.403 17.8442 233.01 Q14.7886 237.593 8.97846 237.593 Q3.16831 237.593 0.089621 233.01 Q-2.96592 228.403 -2.96592 219.677 Q-2.96592 210.927 0.089621 206.343 Q3.16831 201.737 8.97846 201.737 Z" fill="#000000" fill-rule="nonzero" fill-opacity="1" /><path clip-path="url(#clip870)" d="M39.1403 220.51 Q35.807 220.51 33.8857 222.292 Q31.9876 224.075 31.9876 227.2 Q31.9876 230.325 33.8857 232.107 Q35.807 233.889 39.1403 233.889 Q42.4737 233.889 44.3949 232.107 Q46.3162 230.302 46.3162 227.2 Q46.3162 224.075 44.3949 222.292 Q42.4968 220.51 39.1403 220.51 M34.4644 218.519 Q31.4552 217.778 29.7654 215.718 Q28.0987 213.658 28.0987 210.695 Q28.0987 206.552 31.0385 204.144 Q34.0015 201.737 39.1403 201.737 Q44.3023 201.737 47.2421 204.144 Q50.1819 206.552 50.1819 210.695 Q50.1819 213.658 48.4921 215.718 Q46.8255 217.778 43.8394 218.519 Q47.219 219.306 49.094 221.598 Q50.9921 223.89 50.9921 227.2 Q50.9921 232.223 47.9134 234.908 Q44.8579 237.593 39.1403 237.593 Q33.4228 237.593 30.3441 234.908 Q27.2885 232.223 27.2885 227.2 Q27.2885 223.89 29.1867 221.598 Q31.0848 219.306 34.4644 218.519 M32.7515 211.135 Q32.7515 213.82 34.4181 215.325 Q36.1079 216.829 39.1403 216.829 Q42.1496 216.829 43.8394 215.325 Q45.5523 213.82 45.5523 211.135 Q45.5523 208.45 43.8394 206.945 Q42.1496 205.441 39.1403 205.441 Q36.1079 205.441 34.4181 206.945 Q32.7515 208.45 32.7515 211.135 Z" fill="#000000" fill-rule="nonzero" fill-opacity="1" /><polyline clip-path="url(#clip872)" style="stroke:#009af9; stroke-linecap:round; stroke-linejoin:round; stroke-width:4; stroke-opacity:1; fill:none" points="86.9921,1320.33 313.569,1320.33 540.145,784.431 766.721,998.19 993.298,441.432 1219.87,88.5087 1446.45,1040.84 1673.03,249.48 1899.6,150.966 2126.18,590.164 2352.76,1108.22 "/>
<polyline clip-path="url(#clip872)" style="stroke:#e26f46; stroke-linecap:round; stroke-linejoin:round; stroke-width:4; stroke-opacity:1; fill:none" points="86.9921,1320.33 313.569,1233.89 540.145,1350.48 766.721,1227.93 993.298,1256.32 1219.87,1464 1446.45,1190.43 1673.03,1295.8 1899.6,1381.74 2126.18,1398 2352.76,1283.29 "/>
<path clip-path="url(#clip870)" d="M162.518 251.365 L412.288 251.365 L412.288 95.8446 L162.518 95.8446  Z" fill="#ffffff" fill-rule="evenodd" fill-opacity="1"/>
<polyline clip-path="url(#clip870)" style="stroke:#000000; stroke-linecap:round; stroke-linejoin:round; stroke-width:4; stroke-opacity:1; fill:none" points="162.518,251.365 412.288,251.365 412.288,95.8446 162.518,95.8446 162.518,251.365 "/>
<polyline clip-path="url(#clip870)" style="stroke:#009af9; stroke-linecap:round; stroke-linejoin:round; stroke-width:4; stroke-opacity:1; fill:none" points="187.693,147.685 338.744,147.685 "/>
<path clip-path="url(#clip870)" d="M377.322 151.932 Q372.16 151.932 370.169 153.113 Q368.178 154.293 368.178 157.141 Q368.178 159.409 369.66 160.752 Q371.164 162.071 373.734 162.071 Q377.275 162.071 379.405 159.571 Q381.558 157.048 381.558 152.881 L381.558 151.932 L377.322 151.932 M385.817 150.173 L385.817 164.965 L381.558 164.965 L381.558 161.029 Q380.099 163.391 377.923 164.525 Q375.747 165.636 372.599 165.636 Q368.618 165.636 366.257 163.414 Q363.919 161.168 363.919 157.418 Q363.919 153.043 366.835 150.821 Q369.775 148.599 375.585 148.599 L381.558 148.599 L381.558 148.182 Q381.558 145.243 379.613 143.645 Q377.692 142.025 374.197 142.025 Q371.974 142.025 369.868 142.557 Q367.761 143.09 365.817 144.155 L365.817 140.219 Q368.155 139.317 370.354 138.877 Q372.553 138.414 374.636 138.414 Q380.261 138.414 383.039 141.33 Q385.817 144.247 385.817 150.173 Z" fill="#000000" fill-rule="nonzero" fill-opacity="1" /><polyline clip-path="url(#clip870)" style="stroke:#e26f46; stroke-linecap:round; stroke-linejoin:round; stroke-width:4; stroke-opacity:1; fill:none" points="187.693,199.525 338.744,199.525 "/>
<path clip-path="url(#clip870)" d="M382.692 203.865 Q382.692 199.166 380.747 196.504 Q378.826 193.819 375.447 193.819 Q372.067 193.819 370.122 196.504 Q368.201 199.166 368.201 203.865 Q368.201 208.564 370.122 211.249 Q372.067 213.911 375.447 213.911 Q378.826 213.911 380.747 211.249 Q382.692 208.564 382.692 203.865 M368.201 194.814 Q369.544 192.499 371.581 191.388 Q373.641 190.254 376.488 190.254 Q381.21 190.254 384.15 194.004 Q387.113 197.754 387.113 203.865 Q387.113 209.976 384.15 213.726 Q381.21 217.476 376.488 217.476 Q373.641 217.476 371.581 216.365 Q369.544 215.231 368.201 212.916 L368.201 216.805 L363.919 216.805 L363.919 180.786 L368.201 180.786 L368.201 194.814 Z" fill="#000000" fill-rule="nonzero" fill-opacity="1" /></svg>
