<?xml version="1.0" encoding="utf-8"?>
<svg xmlns="http://www.w3.org/2000/svg" xmlns:xlink="http://www.w3.org/1999/xlink" width="600" height="400" viewBox="0 0 2400 1600">
<defs>
  <clipPath id="clip700">
    <rect x="0" y="0" width="2400" height="1600"/>
  </clipPath>
</defs>
<path clip-path="url(#clip700)" d="M0 1600 L2400 1600 L2400 0 L0 0  Z" fill="#ffffff" fill-rule="evenodd" fill-opacity="1"/>
<defs>
  <clipPath id="clip701">
    <rect x="480" y="0" width="1681" height="1600"/>
  </clipPath>
</defs>
<path clip-path="url(#clip700)" d="M86.9921 1521.01 L2352.76 1521.01 L2352.76 47.2441 L86.9921 47.2441  Z" fill="#ffffff" fill-rule="evenodd" fill-opacity="1"/>
<defs>
  <clipPath id="clip702">
    <rect x="86" y="47" width="2267" height="1475"/>
  </clipPath>
</defs>
<polyline clip-path="url(#clip702)" style="stroke:#000000; stroke-linecap:round; stroke-linejoin:round; stroke-width:2; stroke-opacity:0.1; fill:none" points="151.118,1521.01 151.118,47.2441 "/>
<polyline clip-path="url(#clip702)" style="stroke:#000000; stroke-linecap:round; stroke-linejoin:round; stroke-width:2; stroke-opacity:0.1; fill:none" points="863.622,1521.01 863.622,47.2441 "/>
<polyline clip-path="url(#clip702)" style="stroke:#000000; stroke-linecap:round; stroke-linejoin:round; stroke-width:2; stroke-opacity:0.1; fill:none" points="1576.13,1521.01 1576.13,47.2441 "/>
<polyline clip-path="url(#clip702)" style="stroke:#000000; stroke-linecap:round; stroke-linejoin:round; stroke-width:2; stroke-opacity:0.1; fill:none" points="2288.63,1521.01 2288.63,47.2441 "/>
<polyline clip-path="url(#clip700)" style="stroke:#000000; stroke-linecap:round; stroke-linejoin:round; stroke-width:4; stroke-opacity:1; fill:none" points="86.9921,1521.01 2352.76,1521.01 "/>
<polyline clip-path="url(#clip700)" style="stroke:#000000; stroke-linecap:round; stroke-linejoin:round; stroke-width:4; stroke-opacity:1; fill:none" points="151.118,1521.01 151.118,1502.11 "/>
<polyline clip-path="url(#clip700)" style="stroke:#000000; stroke-linecap:round; stroke-linejoin:round; stroke-width:4; stroke-opacity:1; fill:none" points="863.622,1521.01 863.622,1502.11 "/>
<polyline clip-path="url(#clip700)" style="stroke:#000000; stroke-linecap:round; stroke-linejoin:round; stroke-width:4; stroke-opacity:1; fill:none" points="1576.13,1521.01 1576.13,1502.11 "/>
<polyline clip-path="url(#clip700)" style="stroke:#000000; stroke-linecap:round; stroke-linejoin:round; stroke-width:4; stroke-opacity:1; fill:none" points="2288.63,1521.01 2288.63,1502.11 "/>
<path clip-path="url(#clip700)" d="M151.118 1551.93 Q147.506 1551.93 145.678 1555.49 Q143.872 1559.03 143.872 1566.16 Q143.872 1573.27 145.678 1576.83 Q147.506 1580.38 151.118 1580.38 Q154.752 1580.38 156.557 1576.83 Q158.386 1573.27 158.386 1566.16 Q158.386 1559.03 156.557 1555.49 Q154.752 1551.93 151.118 1551.93 M151.118 1548.22 Q156.928 1548.22 159.983 1552.83 Q163.062 1557.41 163.062 1566.16 Q163.062 1574.89 159.983 1579.5 Q156.928 1584.08 151.118 1584.08 Q145.307 1584.08 142.229 1579.5 Q139.173 1574.89 139.173 1566.16 Q139.173 1557.41 142.229 1552.83 Q145.307 1548.22 151.118 1548.22 Z" fill="#000000" fill-rule="nonzero" fill-opacity="1" /><path clip-path="url(#clip700)" d="M838.309 1579.47 L845.948 1579.47 L845.948 1553.11 L837.638 1554.77 L837.638 1550.51 L845.902 1548.85 L850.578 1548.85 L850.578 1579.47 L858.217 1579.47 L858.217 1583.41 L838.309 1583.41 L838.309 1579.47 Z" fill="#000000" fill-rule="nonzero" fill-opacity="1" /><path clip-path="url(#clip700)" d="M877.661 1551.93 Q874.05 1551.93 872.221 1555.49 Q870.416 1559.03 870.416 1566.16 Q870.416 1573.27 872.221 1576.83 Q874.05 1580.38 877.661 1580.38 Q881.295 1580.38 883.101 1576.83 Q884.93 1573.27 884.93 1566.16 Q884.93 1559.03 883.101 1555.49 Q881.295 1551.93 877.661 1551.93 M877.661 1548.22 Q883.471 1548.22 886.527 1552.83 Q889.606 1557.41 889.606 1566.16 Q889.606 1574.89 886.527 1579.5 Q883.471 1584.08 877.661 1584.08 Q871.851 1584.08 868.772 1579.5 Q865.717 1574.89 865.717 1566.16 Q865.717 1557.41 868.772 1552.83 Q871.851 1548.22 877.661 1548.22 Z" fill="#000000" fill-rule="nonzero" fill-opacity="1" /><path clip-path="url(#clip700)" d="M1554.9 1579.47 L1571.22 1579.47 L1571.22 1583.41 L1549.27 1583.41 L1549.27 1579.47 Q1551.94 1576.72 1556.52 1572.09 Q1561.13 1567.44 1562.31 1566.09 Q1564.55 1563.57 1565.43 1561.83 Q1566.33 1560.07 1566.33 1558.38 Q1566.33 1555.63 1564.39 1553.89 Q1562.47 1552.16 1559.37 1552.16 Q1557.17 1552.16 1554.71 1552.92 Q1552.28 1553.69 1549.51 1555.24 L1549.51 1550.51 Q1552.33 1549.38 1554.78 1548.8 Q1557.24 1548.22 1559.27 1548.22 Q1564.64 1548.22 1567.84 1550.91 Q1571.03 1553.59 1571.03 1558.08 Q1571.03 1560.21 1570.22 1562.13 Q1569.44 1564.03 1567.33 1566.63 Q1566.75 1567.3 1563.65 1570.51 Q1560.55 1573.71 1554.9 1579.47 Z" fill="#000000" fill-rule="nonzero" fill-opacity="1" /><path clip-path="url(#clip700)" d="M1591.03 1551.93 Q1587.42 1551.93 1585.59 1555.49 Q1583.79 1559.03 1583.79 1566.16 Q1583.79 1573.27 1585.59 1576.83 Q1587.42 1580.38 1591.03 1580.38 Q1594.67 1580.38 1596.47 1576.83 Q1598.3 1573.27 1598.3 1566.16 Q1598.3 1559.03 1596.47 1555.49 Q1594.67 1551.93 1591.03 1551.93 M1591.03 1548.22 Q1596.84 1548.22 1599.9 1552.83 Q1602.98 1557.41 1602.98 1566.16 Q1602.98 1574.89 1599.9 1579.5 Q1596.84 1584.08 1591.03 1584.08 Q1585.22 1584.08 1582.14 1579.5 Q1579.09 1574.89 1579.09 1566.16 Q1579.09 1557.41 1582.14 1552.83 Q1585.22 1548.22 1591.03 1548.22 Z" fill="#000000" fill-rule="nonzero" fill-opacity="1" /><path clip-path="url(#clip700)" d="M2277.47 1564.77 Q2280.83 1565.49 2282.7 1567.76 Q2284.6 1570.03 2284.6 1573.36 Q2284.6 1578.48 2281.08 1581.28 Q2277.57 1584.08 2271.08 1584.08 Q2268.91 1584.08 2266.59 1583.64 Q2264.3 1583.22 2261.85 1582.37 L2261.85 1577.85 Q2263.79 1578.99 2266.11 1579.57 Q2268.42 1580.14 2270.95 1580.14 Q2275.34 1580.14 2277.64 1578.41 Q2279.95 1576.67 2279.95 1573.36 Q2279.95 1570.31 2277.8 1568.59 Q2275.67 1566.86 2271.85 1566.86 L2267.82 1566.86 L2267.82 1563.01 L2272.03 1563.01 Q2275.48 1563.01 2277.31 1561.65 Q2279.14 1560.26 2279.14 1557.67 Q2279.14 1555.01 2277.24 1553.59 Q2275.37 1552.16 2271.85 1552.16 Q2269.93 1552.16 2267.73 1552.57 Q2265.53 1552.99 2262.89 1553.87 L2262.89 1549.7 Q2265.55 1548.96 2267.87 1548.59 Q2270.2 1548.22 2272.26 1548.22 Q2277.59 1548.22 2280.69 1550.65 Q2283.79 1553.06 2283.79 1557.18 Q2283.79 1560.05 2282.15 1562.04 Q2280.51 1564.01 2277.47 1564.77 Z" fill="#000000" fill-rule="nonzero" fill-opacity="1" /><path clip-path="url(#clip700)" d="M2303.47 1551.93 Q2299.86 1551.93 2298.03 1555.49 Q2296.22 1559.03 2296.22 1566.16 Q2296.22 1573.27 2298.03 1576.83 Q2299.86 1580.38 2303.47 1580.38 Q2307.1 1580.38 2308.91 1576.83 Q2310.74 1573.27 2310.74 1566.16 Q2310.74 1559.03 2308.91 1555.49 Q2307.1 1551.93 2303.47 1551.93 M2303.47 1548.22 Q2309.28 1548.22 2312.33 1552.83 Q2315.41 1557.41 2315.41 1566.16 Q2315.41 1574.89 2312.33 1579.5 Q2309.28 1584.08 2303.47 1584.08 Q2297.66 1584.08 2294.58 1579.5 Q2291.52 1574.89 2291.52 1566.16 Q2291.52 1557.41 2294.58 1552.83 Q2297.66 1548.22 2303.47 1548.22 Z" fill="#000000" fill-rule="nonzero" fill-opacity="1" /><polyline clip-path="url(#clip702)" style="stroke:#000000; stroke-linecap:round; stroke-linejoin:round; stroke-width:2; stroke-opacity:0.1; fill:none" points="86.9921,1205.79 2352.76,1205.79 "/>
<polyline clip-path="url(#clip702)" style="stroke:#000000; stroke-linecap:round; stroke-linejoin:round; stroke-width:2; stroke-opacity:0.1; fill:none" points="86.9921,862.914 2352.76,862.914 "/>
<polyline clip-path="url(#clip702)" style="stroke:#000000; stroke-linecap:round; stroke-linejoin:round; stroke-width:2; stroke-opacity:0.1; fill:none" points="86.9921,520.04 2352.76,520.04 "/>
<polyline clip-path="url(#clip702)" style="stroke:#000000; stroke-linecap:round; stroke-linejoin:round; stroke-width:2; stroke-opacity:0.1; fill:none" points="86.9921,177.166 2352.76,177.166 "/>
<polyline clip-path="url(#clip700)" style="stroke:#000000; stroke-linecap:round; stroke-linejoin:round; stroke-width:4; stroke-opacity:1; fill:none" points="86.9921,1521.01 86.9921,47.2441 "/>
<polyline clip-path="url(#clip700)" style="stroke:#000000; stroke-linecap:round; stroke-linejoin:round; stroke-width:4; stroke-opacity:1; fill:none" points="86.9921,1205.79 105.89,1205.79 "/>
<polyline clip-path="url(#clip700)" style="stroke:#000000; stroke-linecap:round; stroke-linejoin:round; stroke-width:4; stroke-opacity:1; fill:none" points="86.9921,862.914 105.89,862.914 "/>
<polyline clip-path="url(#clip700)" style="stroke:#000000; stroke-linecap:round; stroke-linejoin:round; stroke-width:4; stroke-opacity:1; fill:none" points="86.9921,520.04 105.89,520.04 "/>
<polyline clip-path="url(#clip700)" style="stroke:#000000; stroke-linecap:round; stroke-linejoin:round; stroke-width:4; stroke-opacity:1; fill:none" points="86.9921,177.166 105.89,177.166 "/>
<path clip-path="url(#clip700)" d="M39.0477 1191.59 Q35.4367 1191.59 33.608 1195.15 Q31.8024 1198.69 31.8024 1205.82 Q31.8024 1212.93 33.608 1216.49 Q35.4367 1220.04 39.0477 1220.04 Q42.682 1220.04 44.4875 1216.49 Q46.3162 1212.93 46.3162 1205.82 Q46.3162 1198.69 44.4875 1195.15 Q42.682 1191.59 39.0477 1191.59 M39.0477 1187.88 Q44.8579 1187.88 47.9134 1192.49 Q50.9921 1197.07 50.9921 1205.82 Q50.9921 1214.55 47.9134 1219.16 Q44.8579 1223.74 39.0477 1223.74 Q33.2376 1223.74 30.1589 1219.16 Q27.1034 1214.55 27.1034 1205.82 Q27.1034 1197.07 30.1589 1192.49 Q33.2376 1187.88 39.0477 1187.88 Z" fill="#000000" fill-rule="nonzero" fill-opacity="1" /><path clip-path="url(#clip700)" d="M30.0895 845.634 L48.4458 845.634 L48.4458 849.57 L34.3718 849.57 L34.3718 858.042 Q35.3904 857.695 36.4089 857.533 Q37.4274 857.347 38.4459 857.347 Q44.2329 857.347 47.6125 860.519 Q50.9921 863.69 50.9921 869.107 Q50.9921 874.685 47.5199 877.787 Q44.0477 880.866 37.7283 880.866 Q35.5524 880.866 33.2839 880.495 Q31.0385 880.125 28.6311 879.384 L28.6311 874.685 Q30.7145 875.819 32.9367 876.375 Q35.1589 876.931 37.6357 876.931 Q41.6403 876.931 43.9783 874.824 Q46.3162 872.718 46.3162 869.107 Q46.3162 865.495 43.9783 863.389 Q41.6403 861.283 37.6357 861.283 Q35.7607 861.283 33.8857 861.699 Q32.0339 862.116 30.0895 862.995 L30.0895 845.634 Z" fill="#000000" fill-rule="nonzero" fill-opacity="1" /><path clip-path="url(#clip700)" d="M-0.303895 533.385 L7.33495 533.385 L7.33495 507.02 L-0.975188 508.686 L-0.975188 504.427 L7.28866 502.76 L11.9646 502.76 L11.9646 533.385 L19.6034 533.385 L19.6034 537.32 L-0.303895 537.32 L-0.303895 533.385 Z" fill="#000000" fill-rule="nonzero" fill-opacity="1" /><path clip-path="url(#clip700)" d="M39.0477 505.839 Q35.4367 505.839 33.608 509.404 Q31.8024 512.946 31.8024 520.075 Q31.8024 527.182 33.608 530.746 Q35.4367 534.288 39.0477 534.288 Q42.682 534.288 44.4875 530.746 Q46.3162 527.182 46.3162 520.075 Q46.3162 512.946 44.4875 509.404 Q42.682 505.839 39.0477 505.839 M39.0477 502.135 Q44.8579 502.135 47.9134 506.742 Q50.9921 511.325 50.9921 520.075 Q50.9921 528.802 47.9134 533.408 Q44.8579 537.992 39.0477 537.992 Q33.2376 537.992 30.1589 533.408 Q27.1034 528.802 27.1034 520.075 Q27.1034 511.325 30.1589 506.742 Q33.2376 502.135 39.0477 502.135 Z" fill="#000000" fill-rule="nonzero" fill-opacity="1" /><path clip-path="url(#clip700)" d="M0.69147 190.511 L8.33032 190.511 L8.33032 164.146 L0.0201769 165.812 L0.0201769 161.553 L8.28402 159.886 L12.9599 159.886 L12.9599 190.511 L20.5988 190.511 L20.5988 194.446 L0.69147 194.446 L0.69147 190.511 Z" fill="#000000" fill-rule="nonzero" fill-opacity="1" /><path clip-path="url(#clip700)" d="M30.0895 159.886 L48.4458 159.886 L48.4458 163.822 L34.3718 163.822 L34.3718 172.294 Q35.3904 171.947 36.4089 171.785 Q37.4274 171.599 38.4459 171.599 Q44.2329 171.599 47.6125 174.771 Q50.9921 177.942 50.9921 183.359 Q50.9921 188.937 47.5199 192.039 Q44.0477 195.118 37.7283 195.118 Q35.5524 195.118 33.2839 194.747 Q31.0385 194.377 28.6311 193.636 L28.6311 188.937 Q30.7145 190.071 32.9367 190.627 Q35.1589 191.183 37.6357 191.183 Q41.6403 191.183 43.9783 189.076 Q46.3162 186.97 46.3162 183.359 Q46.3162 179.747 43.9783 177.641 Q41.6403 175.535 37.6357 175.535 Q35.7607 175.535 33.8857 175.951 Q32.0339 176.368 30.0895 177.247 L30.0895 159.886 Z" fill="#000000" fill-rule="nonzero" fill-opacity="1" /><path clip-path="url(#clip702)" d="M151.118 1302.26 L222.368 1432.39 L293.618 1479.3 L364.869 1476.97 L436.119 1465.91 L507.37 1458.3 L578.62 1453.42 L649.871 1444.85 L721.121 1433.01 L792.371 1428.41 L863.622 1424.6 L934.872 1412.45 L1006.12 1398.2 L1077.37 1389.28 L1148.62 1379.8 L1219.87 1370.78 L1291.12 1366.35 L1362.37 1358.1 L1433.63 1352.65 L1504.88 1340.01 L1576.13 1335.7 L1647.38 1330.25 L1718.63 1323.99 L1789.88 1314.24 L1861.13 1308.87 L1932.38 1303.63 L2003.63 1302.52 L2074.88 1296.81 L2146.13 1288.61 L2217.38 1284.91 L2288.63 1280.56 L2288.63 955.542 L2217.38 941.285 L2146.13 925.15 L2074.88 903.069 L2003.63 884.726 L1932.38 867.704 L1861.13 849.364 L1789.88 830.004 L1718.63 809.527 L1647.38 782.399 L1576.13 756.181 L1504.88 728.981 L1433.63 707.337 L1362.37 680.77 L1291.12 654.548 L1219.87 626.476 L1148.62 597.232 L1077.37 560.978 L1006.12 523.182 L934.872 483.333 L863.622 444.635 L792.371 408.436 L721.121 362.657 L649.871 320.801 L578.62 275.441 L507.37 222.972 L436.119 171.478 L364.869 119.766 L293.618 88.9544 L222.368 174.569 L151.118 1103.39  Z" fill="#009af9" fill-rule="evenodd" fill-opacity="0.2"/>
<polyline clip-path="url(#clip702)" style="stroke:#009af9; stroke-linecap:round; stroke-linejoin:round; stroke-width:12; stroke-opacity:1; fill:none" points="151.118,1193 222.368,1138.63 293.618,1148.51 364.869,1151.84 436.119,1155.5 507.37,1159.91 578.62,1162.15 649.871,1162.24 721.121,1168.71 792.371,1171.95 863.622,1175.07 934.872,1177.06 1006.12,1176.88 1077.37,1171.9 1148.62,1170.28 1219.87,1174.37 1291.12,1175.5 1362.37,1175.04 1433.63,1172.16 1504.88,1177.24 1576.13,1177.69 1647.38,1182.25 1718.63,1184.16 1789.88,1191.33 1861.13,1196.75 1932.38,1200.66 2003.63,1192.86 2074.88,1193.81 2146.13,1197.06 2217.38,1200.75 2288.63,1207.6 "/>
<path clip-path="url(#clip702)" d="M151.118 1280.55 L222.368 1220.66 L293.618 1209.24 L364.869 1207.3 L436.119 1207.09 L507.37 1206.93 L578.62 1206.8 L649.871 1206.89 L721.121 1206.94 L792.371 1207.06 L863.622 1206.64 L934.872 1206.9 L1006.12 1206.83 L1077.37 1206.85 L1148.62 1206.61 L1219.87 1206.99 L1291.12 1206.83 L1362.37 1207.22 L1433.63 1206.94 L1504.88 1206.9 L1576.13 1206.64 L1647.38 1206.86 L1718.63 1206.75 L1789.88 1206.89 L1861.13 1206.46 L1932.38 1206.76 L2003.63 1206.69 L2074.88 1206.6 L2146.13 1207.16 L2217.38 1206.92 L2288.63 1206.98 L2288.63 1204.91 L2217.38 1204.77 L2146.13 1204.85 L2074.88 1204.59 L2003.63 1204.91 L1932.38 1204.5 L1861.13 1204.62 L1789.88 1204.74 L1718.63 1204.84 L1647.38 1204.88 L1576.13 1204.71 L1504.88 1204.96 L1433.63 1204.8 L1362.37 1204.67 L1291.12 1204.28 L1219.87 1204.81 L1148.62 1204.44 L1077.37 1204.68 L1006.12 1204.66 L934.872 1204.8 L863.622 1204.52 L792.371 1204.83 L721.121 1204.68 L649.871 1204.79 L578.62 1204.76 L507.37 1204.69 L436.119 1204.34 L364.869 1204.4 L293.618 1201.97 L222.368 1187.53 L151.118 1116.79  Z" fill="#e26f46" fill-rule="evenodd" fill-opacity="0.2"/>
<polyline clip-path="url(#clip702)" style="stroke:#e26f46; stroke-linecap:round; stroke-linejoin:round; stroke-width:12; stroke-opacity:1; fill:none" points="151.118,1204.34 222.368,1205.25 293.618,1205.59 364.869,1205.85 436.119,1205.61 507.37,1205.78 578.62,1205.86 649.871,1205.71 721.121,1205.82 792.371,1205.97 863.622,1205.69 934.872,1205.84 1006.12,1205.77 1077.37,1205.7 1148.62,1205.92 1219.87,1205.65 1291.12,1205.65 1362.37,1205.8 1433.63,1205.83 1504.88,1205.73 1576.13,1205.81 1647.38,1205.92 1718.63,1205.81 1789.88,1205.56 1861.13,1205.77 1932.38,1205.75 2003.63,1205.81 2074.88,1205.48 2146.13,1205.92 2217.38,1205.84 2288.63,1205.56 "/>
</svg>
