<?xml version="1.0" encoding="utf-8"?>
<svg xmlns="http://www.w3.org/2000/svg" xmlns:xlink="http://www.w3.org/1999/xlink" width="600" height="400" viewBox="0 0 2400 1600">
<defs>
  <clipPath id="clip640">
    <rect x="0" y="0" width="2400" height="1600"/>
  </clipPath>
</defs>
<path clip-path="url(#clip640)" d="M0 1600 L2400 1600 L2400 0 L0 0  Z" fill="#ffffff" fill-rule="evenodd" fill-opacity="1"/>
<defs>
  <clipPath id="clip641">
    <rect x="480" y="0" width="1681" height="1600"/>
  </clipPath>
</defs>
<path clip-path="url(#clip640)" d="M86.9921 1505.26 L2352.76 1505.26 L2352.76 47.2441 L86.9921 47.2441  Z" fill="#ffffff" fill-rule="evenodd" fill-opacity="1"/>
<defs>
  <clipPath id="clip642">
    <rect x="86" y="47" width="2267" height="1459"/>
  </clipPath>
</defs>
<polyline clip-path="url(#clip642)" style="stroke:#000000; stroke-linecap:round; stroke-linejoin:round; stroke-width:2; stroke-opacity:0.1; fill:none" points="86.9921,1505.26 86.9921,47.2441 "/>
<polyline clip-path="url(#clip642)" style="stroke:#000000; stroke-linecap:round; stroke-linejoin:round; stroke-width:2; stroke-opacity:0.1; fill:none" points="842.247,1505.26 842.247,47.2441 "/>
<polyline clip-path="url(#clip642)" style="stroke:#000000; stroke-linecap:round; stroke-linejoin:round; stroke-width:2; stroke-opacity:0.1; fill:none" points="1597.5,1505.26 1597.5,47.2441 "/>
<polyline clip-path="url(#clip642)" style="stroke:#000000; stroke-linecap:round; stroke-linejoin:round; stroke-width:2; stroke-opacity:0.1; fill:none" points="2352.76,1505.26 2352.76,47.2441 "/>
<polyline clip-path="url(#clip640)" style="stroke:#000000; stroke-linecap:round; stroke-linejoin:round; stroke-width:4; stroke-opacity:1; fill:none" points="86.9921,1505.26 2352.76,1505.26 "/>
<polyline clip-path="url(#clip640)" style="stroke:#000000; stroke-linecap:round; stroke-linejoin:round; stroke-width:4; stroke-opacity:1; fill:none" points="86.9921,1505.26 86.9921,1486.36 "/>
<polyline clip-path="url(#clip640)" style="stroke:#000000; stroke-linecap:round; stroke-linejoin:round; stroke-width:4; stroke-opacity:1; fill:none" points="842.247,1505.26 842.247,1486.36 "/>
<polyline clip-path="url(#clip640)" style="stroke:#000000; stroke-linecap:round; stroke-linejoin:round; stroke-width:4; stroke-opacity:1; fill:none" points="1597.5,1505.26 1597.5,1486.36 "/>
<polyline clip-path="url(#clip640)" style="stroke:#000000; stroke-linecap:round; stroke-linejoin:round; stroke-width:4; stroke-opacity:1; fill:none" points="2352.76,1505.26 2352.76,1486.36 "/>
<path clip-path="url(#clip640)" d="M86.9921 1536.18 Q83.381 1536.18 81.5523 1539.74 Q79.7468 1543.28 79.7468 1550.41 Q79.7468 1557.52 81.5523 1561.09 Q83.381 1564.63 86.9921 1564.63 Q90.6264 1564.63 92.4319 1561.09 Q94.2606 1557.52 94.2606 1550.41 Q94.2606 1543.28 92.4319 1539.74 Q90.6264 1536.18 86.9921 1536.18 M86.9921 1532.47 Q92.8023 1532.47 95.8578 1537.08 Q98.9365 1541.66 98.9365 1550.41 Q98.9365 1559.14 95.8578 1563.75 Q92.8023 1568.33 86.9921 1568.33 Q81.182 1568.33 78.1033 1563.75 Q75.0477 1559.14 75.0477 1550.41 Q75.0477 1541.66 78.1033 1537.08 Q81.182 1532.47 86.9921 1532.47 Z" fill="#000000" fill-rule="nonzero" fill-opacity="1" /><path clip-path="url(#clip640)" d="M816.934 1563.72 L824.573 1563.72 L824.573 1537.36 L816.263 1539.03 L816.263 1534.77 L824.527 1533.1 L829.203 1533.1 L829.203 1563.72 L836.842 1563.72 L836.842 1567.66 L816.934 1567.66 L816.934 1563.72 Z" fill="#000000" fill-rule="nonzero" fill-opacity="1" /><path clip-path="url(#clip640)" d="M856.286 1536.18 Q852.675 1536.18 850.846 1539.74 Q849.041 1543.28 849.041 1550.41 Q849.041 1557.52 850.846 1561.09 Q852.675 1564.63 856.286 1564.63 Q859.92 1564.63 861.726 1561.09 Q863.554 1557.52 863.554 1550.41 Q863.554 1543.28 861.726 1539.74 Q859.92 1536.18 856.286 1536.18 M856.286 1532.47 Q862.096 1532.47 865.152 1537.08 Q868.23 1541.66 868.23 1550.41 Q868.23 1559.14 865.152 1563.75 Q862.096 1568.33 856.286 1568.33 Q850.476 1568.33 847.397 1563.75 Q844.342 1559.14 844.342 1550.41 Q844.342 1541.66 847.397 1537.08 Q850.476 1532.47 856.286 1532.47 Z" fill="#000000" fill-rule="nonzero" fill-opacity="1" /><path clip-path="url(#clip640)" d="M1576.27 1563.72 L1592.59 1563.72 L1592.59 1567.66 L1570.65 1567.66 L1570.65 1563.72 Q1573.31 1560.97 1577.89 1556.34 Q1582.5 1551.69 1583.68 1550.35 Q1585.93 1547.82 1586.81 1546.09 Q1587.71 1544.33 1587.71 1542.64 Q1587.71 1539.88 1585.77 1538.15 Q1583.84 1536.41 1580.74 1536.41 Q1578.54 1536.41 1576.09 1537.17 Q1573.66 1537.94 1570.88 1539.49 L1570.88 1534.77 Q1573.71 1533.63 1576.16 1533.05 Q1578.61 1532.47 1580.65 1532.47 Q1586.02 1532.47 1589.21 1535.16 Q1592.41 1537.85 1592.41 1542.34 Q1592.41 1544.47 1591.6 1546.39 Q1590.81 1548.28 1588.71 1550.88 Q1588.13 1551.55 1585.02 1554.77 Q1581.92 1557.96 1576.27 1563.72 Z" fill="#000000" fill-rule="nonzero" fill-opacity="1" /><path clip-path="url(#clip640)" d="M1612.41 1536.18 Q1608.8 1536.18 1606.97 1539.74 Q1605.16 1543.28 1605.16 1550.41 Q1605.16 1557.52 1606.97 1561.09 Q1608.8 1564.63 1612.41 1564.63 Q1616.04 1564.63 1617.85 1561.09 Q1619.68 1557.52 1619.68 1550.41 Q1619.68 1543.28 1617.85 1539.74 Q1616.04 1536.18 1612.41 1536.18 M1612.41 1532.47 Q1618.22 1532.47 1621.27 1537.08 Q1624.35 1541.66 1624.35 1550.41 Q1624.35 1559.14 1621.27 1563.75 Q1618.22 1568.33 1612.41 1568.33 Q1606.6 1568.33 1603.52 1563.75 Q1600.46 1559.14 1600.46 1550.41 Q1600.46 1541.66 1603.52 1537.08 Q1606.6 1532.47 1612.41 1532.47 Z" fill="#000000" fill-rule="nonzero" fill-opacity="1" /><path clip-path="url(#clip640)" d="M2341.6 1549.03 Q2344.96 1549.74 2346.83 1552.01 Q2348.73 1554.28 2348.73 1557.61 Q2348.73 1562.73 2345.21 1565.53 Q2341.69 1568.33 2335.21 1568.33 Q2333.03 1568.33 2330.72 1567.89 Q2328.43 1567.47 2325.97 1566.62 L2325.97 1562.1 Q2327.92 1563.24 2330.23 1563.82 Q2332.55 1564.4 2335.07 1564.4 Q2339.47 1564.4 2341.76 1562.66 Q2344.08 1560.92 2344.08 1557.61 Q2344.08 1554.56 2341.92 1552.85 Q2339.79 1551.11 2335.97 1551.11 L2331.95 1551.11 L2331.95 1547.27 L2336.16 1547.27 Q2339.61 1547.27 2341.44 1545.9 Q2343.27 1544.51 2343.27 1541.92 Q2343.27 1539.26 2341.37 1537.85 Q2339.49 1536.41 2335.97 1536.41 Q2334.05 1536.41 2331.85 1536.83 Q2329.65 1537.24 2327.02 1538.12 L2327.02 1533.96 Q2329.68 1533.22 2331.99 1532.85 Q2334.33 1532.47 2336.39 1532.47 Q2341.71 1532.47 2344.82 1534.91 Q2347.92 1537.31 2347.92 1541.43 Q2347.92 1544.3 2346.27 1546.29 Q2344.63 1548.26 2341.6 1549.03 Z" fill="#000000" fill-rule="nonzero" fill-opacity="1" /><path clip-path="url(#clip640)" d="M2367.59 1536.18 Q2363.98 1536.18 2362.15 1539.74 Q2360.35 1543.28 2360.35 1550.41 Q2360.35 1557.52 2362.15 1561.09 Q2363.98 1564.63 2367.59 1564.63 Q2371.23 1564.63 2373.03 1561.09 Q2374.86 1557.52 2374.86 1550.41 Q2374.86 1543.28 2373.03 1539.74 Q2371.23 1536.18 2367.59 1536.18 M2367.59 1532.47 Q2373.4 1532.47 2376.46 1537.08 Q2379.54 1541.66 2379.54 1550.41 Q2379.54 1559.14 2376.46 1563.75 Q2373.4 1568.33 2367.59 1568.33 Q2361.78 1568.33 2358.7 1563.75 Q2355.65 1559.14 2355.65 1550.41 Q2355.65 1541.66 2358.7 1537.08 Q2361.78 1532.47 2367.59 1532.47 Z" fill="#000000" fill-rule="nonzero" fill-opacity="1" /><path clip-path="url(#clip640)" d="M1218.94 1604.35 L1218.94 1614.48 L1231 1614.48 L1231 1619.03 L1218.94 1619.03 L1218.94 1638.38 Q1218.94 1642.74 1220.11 1643.98 Q1221.32 1645.22 1224.98 1645.22 L1231 1645.22 L1231 1650.12 L1224.98 1650.12 Q1218.2 1650.12 1215.62 1647.61 Q1213.05 1645.06 1213.05 1638.38 L1213.05 1619.03 L1208.75 1619.03 L1208.75 1614.48 L1213.05 1614.48 L1213.05 1604.35 L1218.94 1604.35 Z" fill="#000000" fill-rule="nonzero" fill-opacity="1" /><polyline clip-path="url(#clip642)" style="stroke:#000000; stroke-linecap:round; stroke-linejoin:round; stroke-width:2; stroke-opacity:0.1; fill:none" points="86.9921,1365.84 2352.76,1365.84 "/>
<polyline clip-path="url(#clip642)" style="stroke:#000000; stroke-linecap:round; stroke-linejoin:round; stroke-width:2; stroke-opacity:0.1; fill:none" points="86.9921,1069.02 2352.76,1069.02 "/>
<polyline clip-path="url(#clip642)" style="stroke:#000000; stroke-linecap:round; stroke-linejoin:round; stroke-width:2; stroke-opacity:0.1; fill:none" points="86.9921,772.196 2352.76,772.196 "/>
<polyline clip-path="url(#clip642)" style="stroke:#000000; stroke-linecap:round; stroke-linejoin:round; stroke-width:2; stroke-opacity:0.1; fill:none" points="86.9921,475.372 2352.76,475.372 "/>
<polyline clip-path="url(#clip642)" style="stroke:#000000; stroke-linecap:round; stroke-linejoin:round; stroke-width:2; stroke-opacity:0.1; fill:none" points="86.9921,178.549 2352.76,178.549 "/>
<polyline clip-path="url(#clip640)" style="stroke:#000000; stroke-linecap:round; stroke-linejoin:round; stroke-width:4; stroke-opacity:1; fill:none" points="86.9921,1505.26 86.9921,47.2441 "/>
<polyline clip-path="url(#clip640)" style="stroke:#000000; stroke-linecap:round; stroke-linejoin:round; stroke-width:4; stroke-opacity:1; fill:none" points="86.9921,1365.84 105.89,1365.84 "/>
<polyline clip-path="url(#clip640)" style="stroke:#000000; stroke-linecap:round; stroke-linejoin:round; stroke-width:4; stroke-opacity:1; fill:none" points="86.9921,1069.02 105.89,1069.02 "/>
<polyline clip-path="url(#clip640)" style="stroke:#000000; stroke-linecap:round; stroke-linejoin:round; stroke-width:4; stroke-opacity:1; fill:none" points="86.9921,772.196 105.89,772.196 "/>
<polyline clip-path="url(#clip640)" style="stroke:#000000; stroke-linecap:round; stroke-linejoin:round; stroke-width:4; stroke-opacity:1; fill:none" points="86.9921,475.372 105.89,475.372 "/>
<polyline clip-path="url(#clip640)" style="stroke:#000000; stroke-linecap:round; stroke-linejoin:round; stroke-width:4; stroke-opacity:1; fill:none" points="86.9921,178.549 105.89,178.549 "/>
<path clip-path="url(#clip640)" d="M-54.7249 1366.29 L-25.0491 1366.29 L-25.0491 1370.23 L-54.7249 1370.23 L-54.7249 1366.29 Z" fill="#000000" fill-rule="nonzero" fill-opacity="1" /><path clip-path="url(#clip640)" d="M-4.95665 1351.64 Q-8.56774 1351.64 -10.3964 1355.21 Q-12.202 1358.75 -12.202 1365.88 Q-12.202 1372.98 -10.3964 1376.55 Q-8.56774 1380.09 -4.95665 1380.09 Q-1.32241 1380.09 0.483137 1376.55 Q2.31183 1372.98 2.31183 1365.88 Q2.31183 1358.75 0.483137 1355.21 Q-1.32241 1351.64 -4.95665 1351.64 M-4.95665 1347.94 Q0.853506 1347.94 3.90904 1352.54 Q6.98773 1357.13 6.98773 1365.88 Q6.98773 1374.6 3.90904 1379.21 Q0.853506 1383.79 -4.95665 1383.79 Q-10.7668 1383.79 -13.8455 1379.21 Q-16.901 1374.6 -16.901 1365.88 Q-16.901 1357.13 -13.8455 1352.54 Q-10.7668 1347.94 -4.95665 1347.94 Z" fill="#000000" fill-rule="nonzero" fill-opacity="1" /><path clip-path="url(#clip640)" d="M15.2053 1377.24 L20.0895 1377.24 L20.0895 1383.12 L15.2053 1383.12 L15.2053 1377.24 Z" fill="#000000" fill-rule="nonzero" fill-opacity="1" /><path clip-path="url(#clip640)" d="M31.0848 1379.19 L38.7237 1379.19 L38.7237 1352.82 L30.4135 1354.49 L30.4135 1350.23 L38.6774 1348.56 L43.3533 1348.56 L43.3533 1379.19 L50.9921 1379.19 L50.9921 1383.12 L31.0848 1383.12 L31.0848 1379.19 Z" fill="#000000" fill-rule="nonzero" fill-opacity="1" /><path clip-path="url(#clip640)" d="M-6.18349 1054.82 Q-9.79459 1054.82 -11.6233 1058.38 Q-13.4288 1061.92 -13.4288 1069.05 Q-13.4288 1076.16 -11.6233 1079.73 Q-9.79459 1083.27 -6.18349 1083.27 Q-2.54925 1083.27 -0.743708 1079.73 Q1.08499 1076.16 1.08499 1069.05 Q1.08499 1061.92 -0.743708 1058.38 Q-2.54925 1054.82 -6.18349 1054.82 M-6.18349 1051.11 Q-0.37334 1051.11 2.6822 1055.72 Q5.76089 1060.3 5.76089 1069.05 Q5.76089 1077.78 2.6822 1082.39 Q-0.37334 1086.97 -6.18349 1086.97 Q-11.9936 1086.97 -15.0723 1082.39 Q-18.1279 1077.78 -18.1279 1069.05 Q-18.1279 1060.3 -15.0723 1055.72 Q-11.9936 1051.11 -6.18349 1051.11 Z" fill="#000000" fill-rule="nonzero" fill-opacity="1" /><path clip-path="url(#clip640)" d="M13.9784 1080.42 L18.8627 1080.42 L18.8627 1086.3 L13.9784 1086.3 L13.9784 1080.42 Z" fill="#000000" fill-rule="nonzero" fill-opacity="1" /><path clip-path="url(#clip640)" d="M39.0477 1054.82 Q35.4367 1054.82 33.608 1058.38 Q31.8024 1061.92 31.8024 1069.05 Q31.8024 1076.16 33.608 1079.73 Q35.4367 1083.27 39.0477 1083.27 Q42.682 1083.27 44.4875 1079.73 Q46.3162 1076.16 46.3162 1069.05 Q46.3162 1061.92 44.4875 1058.38 Q42.682 1054.82 39.0477 1054.82 M39.0477 1051.11 Q44.8579 1051.11 47.9134 1055.72 Q50.9921 1060.3 50.9921 1069.05 Q50.9921 1077.78 47.9134 1082.39 Q44.8579 1086.97 39.0477 1086.97 Q33.2376 1086.97 30.1589 1082.39 Q27.1034 1077.78 27.1034 1069.05 Q27.1034 1060.3 30.1589 1055.72 Q33.2376 1051.11 39.0477 1051.11 Z" fill="#000000" fill-rule="nonzero" fill-opacity="1" /><path clip-path="url(#clip640)" d="M-4.95665 757.995 Q-8.56774 757.995 -10.3964 761.559 Q-12.202 765.101 -12.202 772.231 Q-12.202 779.337 -10.3964 782.902 Q-8.56774 786.444 -4.95665 786.444 Q-1.32241 786.444 0.483137 782.902 Q2.31183 779.337 2.31183 772.231 Q2.31183 765.101 0.483137 761.559 Q-1.32241 757.995 -4.95665 757.995 M-4.95665 754.291 Q0.853506 754.291 3.90904 758.897 Q6.98773 763.481 6.98773 772.231 Q6.98773 780.957 3.90904 785.564 Q0.853506 790.147 -4.95665 790.147 Q-10.7668 790.147 -13.8455 785.564 Q-16.901 780.957 -16.901 772.231 Q-16.901 763.481 -13.8455 758.897 Q-10.7668 754.291 -4.95665 754.291 Z" fill="#000000" fill-rule="nonzero" fill-opacity="1" /><path clip-path="url(#clip640)" d="M15.2053 783.596 L20.0895 783.596 L20.0895 789.476 L15.2053 789.476 L15.2053 783.596 Z" fill="#000000" fill-rule="nonzero" fill-opacity="1" /><path clip-path="url(#clip640)" d="M31.0848 785.541 L38.7237 785.541 L38.7237 759.175 L30.4135 760.842 L30.4135 756.583 L38.6774 754.916 L43.3533 754.916 L43.3533 785.541 L50.9921 785.541 L50.9921 789.476 L31.0848 789.476 L31.0848 785.541 Z" fill="#000000" fill-rule="nonzero" fill-opacity="1" /><path clip-path="url(#clip640)" d="M-4.58628 461.171 Q-8.19737 461.171 -10.0261 464.736 Q-11.8316 468.278 -11.8316 475.407 Q-11.8316 482.514 -10.0261 486.078 Q-8.19737 489.62 -4.58628 489.62 Q-0.95204 489.62 0.853506 486.078 Q2.6822 482.514 2.6822 475.407 Q2.6822 468.278 0.853506 464.736 Q-0.95204 461.171 -4.58628 461.171 M-4.58628 457.467 Q1.22387 457.467 4.27941 462.074 Q7.3581 466.657 7.3581 475.407 Q7.3581 484.134 4.27941 488.74 Q1.22387 493.324 -4.58628 493.324 Q-10.3964 493.324 -13.4751 488.74 Q-16.5307 484.134 -16.5307 475.407 Q-16.5307 466.657 -13.4751 462.074 Q-10.3964 457.467 -4.58628 457.467 Z" fill="#000000" fill-rule="nonzero" fill-opacity="1" /><path clip-path="url(#clip640)" d="M15.5756 486.773 L20.4599 486.773 L20.4599 492.652 L15.5756 492.652 L15.5756 486.773 Z" fill="#000000" fill-rule="nonzero" fill-opacity="1" /><path clip-path="url(#clip640)" d="M34.6728 488.717 L50.9921 488.717 L50.9921 492.652 L29.0478 492.652 L29.0478 488.717 Q31.7098 485.963 36.2931 481.333 Q40.8996 476.68 42.0801 475.338 Q44.3255 472.815 45.2051 471.078 Q46.1079 469.319 46.1079 467.629 Q46.1079 464.875 44.1635 463.139 Q42.2422 461.403 39.1403 461.403 Q36.9413 461.403 34.4876 462.166 Q32.057 462.93 29.2793 464.481 L29.2793 459.759 Q32.1033 458.625 34.557 458.046 Q37.0107 457.467 39.0477 457.467 Q44.4181 457.467 47.6125 460.153 Q50.8069 462.838 50.8069 467.328 Q50.8069 469.458 49.9968 471.379 Q49.2097 473.278 47.1033 475.87 Q46.5246 476.541 43.4227 479.759 Q40.3209 482.953 34.6728 488.717 Z" fill="#000000" fill-rule="nonzero" fill-opacity="1" /><path clip-path="url(#clip640)" d="M-5.53535 164.348 Q-9.14644 164.348 -10.9751 167.912 Q-12.7807 171.454 -12.7807 178.584 Q-12.7807 185.69 -10.9751 189.255 Q-9.14644 192.797 -5.53535 192.797 Q-1.90111 192.797 -0.0955632 189.255 Q1.73313 185.69 1.73313 178.584 Q1.73313 171.454 -0.0955632 167.912 Q-1.90111 164.348 -5.53535 164.348 M-5.53535 160.644 Q0.274805 160.644 3.33034 165.25 Q6.40903 169.834 6.40903 178.584 Q6.40903 187.31 3.33034 191.917 Q0.274805 196.5 -5.53535 196.5 Q-11.3455 196.5 -14.4242 191.917 Q-17.4797 187.31 -17.4797 178.584 Q-17.4797 169.834 -14.4242 165.25 Q-11.3455 160.644 -5.53535 160.644 Z" fill="#000000" fill-rule="nonzero" fill-opacity="1" /><path clip-path="url(#clip640)" d="M14.6266 189.949 L19.5108 189.949 L19.5108 195.829 L14.6266 195.829 L14.6266 189.949 Z" fill="#000000" fill-rule="nonzero" fill-opacity="1" /><path clip-path="url(#clip640)" d="M43.8625 177.195 Q47.219 177.912 49.094 180.181 Q50.9921 182.449 50.9921 185.783 Q50.9921 190.898 47.4736 193.699 Q43.9551 196.5 37.4737 196.5 Q35.2978 196.5 32.983 196.06 Q30.6913 195.644 28.2376 194.787 L28.2376 190.273 Q30.1821 191.408 32.4969 191.986 Q34.8117 192.565 37.3348 192.565 Q41.7329 192.565 44.0246 190.829 Q46.3394 189.093 46.3394 185.783 Q46.3394 182.727 44.1866 181.014 Q42.057 179.278 38.2376 179.278 L34.2098 179.278 L34.2098 175.436 L38.4227 175.436 Q41.8718 175.436 43.7005 174.07 Q45.5292 172.681 45.5292 170.088 Q45.5292 167.426 43.6311 166.014 Q41.7561 164.579 38.2376 164.579 Q36.3163 164.579 34.1172 164.996 Q31.9182 165.412 29.2793 166.292 L29.2793 162.125 Q31.9413 161.385 34.2561 161.014 Q36.5941 160.644 38.6542 160.644 Q43.9783 160.644 47.0801 163.075 Q50.1819 165.482 50.1819 169.602 Q50.1819 172.473 48.5384 174.463 Q46.8949 176.431 43.8625 177.195 Z" fill="#000000" fill-rule="nonzero" fill-opacity="1" /><polyline clip-path="url(#clip642)" style="stroke:#009af9; stroke-linecap:round; stroke-linejoin:round; stroke-width:4; stroke-opacity:1; fill:none" points="86.9921,1069.02 162.518,1069.25 238.043,933.824 313.569,755.503 389.094,625.577 464.619,429.725 540.145,312.639 615.67,284.138 691.196,270.341 766.721,133.217 842.247,132.19 917.772,137.509 993.298,426.912 1068.82,682.415 1144.35,1104.75 1219.87,1243.79 1295.4,1464 1370.92,1396.07 1446.45,1276.15 1521.98,1265.58 1597.5,820.555 1673.03,425.403 1748.55,223.555 1824.08,229.302 1899.6,232.044 1975.13,288.93 2050.65,96.9504 2126.18,157.022 2201.7,88.5087 2277.23,337.826 2352.76,287.763 "/>
<polyline clip-path="url(#clip642)" style="stroke:#e26f46; stroke-linecap:round; stroke-linejoin:round; stroke-width:4; stroke-opacity:1; fill:none" points="86.9921,1069.02 162.518,1047.22 238.043,1039.29 313.569,1045.62 389.094,1034.08 464.619,1045.09 540.145,1058.33 615.67,1060.46 691.196,1040.64 766.721,1061.3 842.247,1062.31 917.772,1108.27 993.298,1105.15 1068.82,1134.62 1144.35,1091.79 1219.87,1106.17 1295.4,1061.21 1370.92,1052.3 1446.45,1068.95 1521.98,999.557 1597.5,1004.02 1673.03,1031.56 1748.55,1063.11 1824.08,1062.67 1899.6,1071.39 1975.13,1032.06 2050.65,1070.82 2126.18,1050.69 2201.7,1101.34 2277.23,1055.07 2352.76,1045.92 "/>
<path clip-path="url(#clip640)" d="M2027.46 1456.66 L2277.23 1456.66 L2277.23 1301.14 L2027.46 1301.14  Z" fill="#ffffff" fill-rule="evenodd" fill-opacity="1"/>
<polyline clip-path="url(#clip640)" style="stroke:#000000; stroke-linecap:round; stroke-linejoin:round; stroke-width:4; stroke-opacity:1; fill:none" points="2027.46,1456.66 2277.23,1456.66 2277.23,1301.14 2027.46,1301.14 2027.46,1456.66 "/>
<polyline clip-path="url(#clip640)" style="stroke:#009af9; stroke-linecap:round; stroke-linejoin:round; stroke-width:4; stroke-opacity:1; fill:none" points="2052.63,1352.98 2203.69,1352.98 "/>
<path clip-path="url(#clip640)" d="M2242.26 1357.23 Q2237.1 1357.23 2235.11 1358.41 Q2233.12 1359.59 2233.12 1362.44 Q2233.12 1364.7 2234.6 1366.05 Q2236.11 1367.37 2238.68 1367.37 Q2242.22 1367.37 2244.35 1364.87 Q2246.5 1362.34 2246.5 1358.18 L2246.5 1357.23 L2242.26 1357.23 M2250.76 1355.47 L2250.76 1370.26 L2246.5 1370.26 L2246.5 1366.32 Q2245.04 1368.69 2242.87 1369.82 Q2240.69 1370.93 2237.54 1370.93 Q2233.56 1370.93 2231.2 1368.71 Q2228.86 1366.46 2228.86 1362.71 Q2228.86 1358.34 2231.78 1356.12 Q2234.72 1353.89 2240.53 1353.89 L2246.5 1353.89 L2246.5 1353.48 Q2246.5 1350.54 2244.56 1348.94 Q2242.63 1347.32 2239.14 1347.32 Q2236.92 1347.32 2234.81 1347.85 Q2232.7 1348.38 2230.76 1349.45 L2230.76 1345.51 Q2233.1 1344.61 2235.3 1344.17 Q2237.5 1343.71 2239.58 1343.71 Q2245.2 1343.71 2247.98 1346.63 Q2250.76 1349.54 2250.76 1355.47 Z" fill="#000000" fill-rule="nonzero" fill-opacity="1" /><polyline clip-path="url(#clip640)" style="stroke:#e26f46; stroke-linecap:round; stroke-linejoin:round; stroke-width:4; stroke-opacity:1; fill:none" points="2052.63,1404.82 2203.69,1404.82 "/>
<path clip-path="url(#clip640)" d="M2247.63 1409.16 Q2247.63 1404.46 2245.69 1401.8 Q2243.77 1399.11 2240.39 1399.11 Q2237.01 1399.11 2235.06 1401.8 Q2233.14 1404.46 2233.14 1409.16 Q2233.14 1413.86 2235.06 1416.54 Q2237.01 1419.21 2240.39 1419.21 Q2243.77 1419.21 2245.69 1416.54 Q2247.63 1413.86 2247.63 1409.16 M2233.14 1400.11 Q2234.49 1397.79 2236.52 1396.68 Q2238.58 1395.55 2241.43 1395.55 Q2246.15 1395.55 2249.09 1399.3 Q2252.06 1403.05 2252.06 1409.16 Q2252.06 1415.27 2249.09 1419.02 Q2246.15 1422.77 2241.43 1422.77 Q2238.58 1422.77 2236.52 1421.66 Q2234.49 1420.53 2233.14 1418.21 L2233.14 1422.1 L2228.86 1422.1 L2228.86 1386.08 L2233.14 1386.08 L2233.14 1400.11 Z" fill="#000000" fill-rule="nonzero" fill-opacity="1" /></svg>
