<?xml version="1.0" encoding="utf-8"?>
<svg xmlns="http://www.w3.org/2000/svg" xmlns:xlink="http://www.w3.org/1999/xlink" width="600" height="400" viewBox="0 0 2400 1600">
<defs>
  <clipPath id="clip480">
    <rect x="0" y="0" width="2400" height="1600"/>
  </clipPath>
</defs>
<path clip-path="url(#clip480)" d="M0 1600 L2400 1600 L2400 0 L0 0  Z" fill="#ffffff" fill-rule="evenodd" fill-opacity="1"/>
<defs>
  <clipPath id="clip481">
    <rect x="480" y="0" width="1681" height="1600"/>
  </clipPath>
</defs>
<path clip-path="url(#clip480)" d="M194.422 1423.18 L2352.76 1423.18 L2352.76 47.2441 L194.422 47.2441  Z" fill="#ffffff" fill-rule="evenodd" fill-opacity="1"/>
<defs>
  <clipPath id="clip482">
    <rect x="194" y="47" width="2159" height="1377"/>
  </clipPath>
</defs>
<polyline clip-path="url(#clip482)" style="stroke:#000000; stroke-linecap:round; stroke-linejoin:round; stroke-width:2; stroke-opacity:0.1; fill:none" points="194.422,1423.18 194.422,47.2441 "/>
<polyline clip-path="url(#clip482)" style="stroke:#000000; stroke-linecap:round; stroke-linejoin:round; stroke-width:2; stroke-opacity:0.1; fill:none" points="626.089,1423.18 626.089,47.2441 "/>
<polyline clip-path="url(#clip482)" style="stroke:#000000; stroke-linecap:round; stroke-linejoin:round; stroke-width:2; stroke-opacity:0.1; fill:none" points="1057.76,1423.18 1057.76,47.2441 "/>
<polyline clip-path="url(#clip482)" style="stroke:#000000; stroke-linecap:round; stroke-linejoin:round; stroke-width:2; stroke-opacity:0.1; fill:none" points="1489.42,1423.18 1489.42,47.2441 "/>
<polyline clip-path="url(#clip482)" style="stroke:#000000; stroke-linecap:round; stroke-linejoin:round; stroke-width:2; stroke-opacity:0.1; fill:none" points="1921.09,1423.18 1921.09,47.2441 "/>
<polyline clip-path="url(#clip482)" style="stroke:#000000; stroke-linecap:round; stroke-linejoin:round; stroke-width:2; stroke-opacity:0.1; fill:none" points="2352.76,1423.18 2352.76,47.2441 "/>
<polyline clip-path="url(#clip480)" style="stroke:#000000; stroke-linecap:round; stroke-linejoin:round; stroke-width:4; stroke-opacity:1; fill:none" points="194.422,1423.18 2352.76,1423.18 "/>
<polyline clip-path="url(#clip480)" style="stroke:#000000; stroke-linecap:round; stroke-linejoin:round; stroke-width:4; stroke-opacity:1; fill:none" points="194.422,1423.18 194.422,1404.28 "/>
<polyline clip-path="url(#clip480)" style="stroke:#000000; stroke-linecap:round; stroke-linejoin:round; stroke-width:4; stroke-opacity:1; fill:none" points="626.089,1423.18 626.089,1404.28 "/>
<polyline clip-path="url(#clip480)" style="stroke:#000000; stroke-linecap:round; stroke-linejoin:round; stroke-width:4; stroke-opacity:1; fill:none" points="1057.76,1423.18 1057.76,1404.28 "/>
<polyline clip-path="url(#clip480)" style="stroke:#000000; stroke-linecap:round; stroke-linejoin:round; stroke-width:4; stroke-opacity:1; fill:none" points="1489.42,1423.18 1489.42,1404.28 "/>
<polyline clip-path="url(#clip480)" style="stroke:#000000; stroke-linecap:round; stroke-linejoin:round; stroke-width:4; stroke-opacity:1; fill:none" points="1921.09,1423.18 1921.09,1404.28 "/>
<polyline clip-path="url(#clip480)" style="stroke:#000000; stroke-linecap:round; stroke-linejoin:round; stroke-width:4; stroke-opacity:1; fill:none" points="2352.76,1423.18 2352.76,1404.28 "/>
<path clip-path="url(#clip480)" d="M194.422 1454.1 Q190.811 1454.1 188.982 1457.66 Q187.177 1461.2 187.177 1468.33 Q187.177 1475.44 188.982 1479.01 Q190.811 1482.55 194.422 1482.55 Q198.056 1482.55 199.862 1479.01 Q201.691 1475.44 201.691 1468.33 Q201.691 1461.2 199.862 1457.66 Q198.056 1454.1 194.422 1454.1 M194.422 1450.39 Q200.232 1450.39 203.288 1455 Q206.366 1459.58 206.366 1468.33 Q206.366 1477.06 203.288 1481.67 Q200.232 1486.25 194.422 1486.25 Q188.612 1486.25 185.533 1481.67 Q182.478 1477.06 182.478 1468.33 Q182.478 1459.58 185.533 1455 Q188.612 1450.39 194.422 1450.39 Z" fill="#000000" fill-rule="nonzero" fill-opacity="1" /><path clip-path="url(#clip480)" d="M620.742 1481.64 L637.061 1481.64 L637.061 1485.58 L615.117 1485.58 L615.117 1481.64 Q617.779 1478.89 622.362 1474.26 Q626.968 1469.61 628.149 1468.27 Q630.394 1465.74 631.274 1464.01 Q632.177 1462.25 632.177 1460.56 Q632.177 1457.8 630.232 1456.07 Q628.311 1454.33 625.209 1454.33 Q623.01 1454.33 620.556 1455.09 Q618.126 1455.86 615.348 1457.41 L615.348 1452.69 Q618.172 1451.55 620.626 1450.97 Q623.08 1450.39 625.117 1450.39 Q630.487 1450.39 633.681 1453.08 Q636.876 1455.77 636.876 1460.26 Q636.876 1462.39 636.066 1464.31 Q635.279 1466.2 633.172 1468.8 Q632.593 1469.47 629.492 1472.69 Q626.39 1475.88 620.742 1481.64 Z" fill="#000000" fill-rule="nonzero" fill-opacity="1" /><path clip-path="url(#clip480)" d="M1060.76 1455.09 L1048.96 1473.54 L1060.76 1473.54 L1060.76 1455.09 M1059.54 1451.02 L1065.42 1451.02 L1065.42 1473.54 L1070.35 1473.54 L1070.35 1477.43 L1065.42 1477.43 L1065.42 1485.58 L1060.76 1485.58 L1060.76 1477.43 L1045.16 1477.43 L1045.16 1472.92 L1059.54 1451.02 Z" fill="#000000" fill-rule="nonzero" fill-opacity="1" /><path clip-path="url(#clip480)" d="M1489.83 1466.44 Q1486.68 1466.44 1484.83 1468.59 Q1483 1470.74 1483 1474.49 Q1483 1478.22 1484.83 1480.39 Q1486.68 1482.55 1489.83 1482.55 Q1492.98 1482.55 1494.8 1480.39 Q1496.66 1478.22 1496.66 1474.49 Q1496.66 1470.74 1494.8 1468.59 Q1492.98 1466.44 1489.83 1466.44 M1499.11 1451.78 L1499.11 1456.04 Q1497.35 1455.21 1495.55 1454.77 Q1493.76 1454.33 1492 1454.33 Q1487.37 1454.33 1484.92 1457.45 Q1482.49 1460.58 1482.14 1466.9 Q1483.51 1464.89 1485.57 1463.82 Q1487.63 1462.73 1490.11 1462.73 Q1495.31 1462.73 1498.32 1465.9 Q1501.36 1469.05 1501.36 1474.49 Q1501.36 1479.82 1498.21 1483.03 Q1495.06 1486.25 1489.83 1486.25 Q1483.83 1486.25 1480.66 1481.67 Q1477.49 1477.06 1477.49 1468.33 Q1477.49 1460.14 1481.38 1455.28 Q1485.27 1450.39 1491.82 1450.39 Q1493.58 1450.39 1495.36 1450.74 Q1497.17 1451.09 1499.11 1451.78 Z" fill="#000000" fill-rule="nonzero" fill-opacity="1" /><path clip-path="url(#clip480)" d="M1921.09 1469.17 Q1917.76 1469.17 1915.83 1470.95 Q1913.94 1472.73 1913.94 1475.86 Q1913.94 1478.98 1915.83 1480.77 Q1917.76 1482.55 1921.09 1482.55 Q1924.42 1482.55 1926.34 1480.77 Q1928.27 1478.96 1928.27 1475.86 Q1928.27 1472.73 1926.34 1470.95 Q1924.45 1469.17 1921.09 1469.17 M1916.41 1467.18 Q1913.4 1466.44 1911.71 1464.38 Q1910.05 1462.32 1910.05 1459.35 Q1910.05 1455.21 1912.99 1452.8 Q1915.95 1450.39 1921.09 1450.39 Q1926.25 1450.39 1929.19 1452.8 Q1932.13 1455.21 1932.13 1459.35 Q1932.13 1462.32 1930.44 1464.38 Q1928.77 1466.44 1925.79 1467.18 Q1929.17 1467.96 1931.04 1470.26 Q1932.94 1472.55 1932.94 1475.86 Q1932.94 1480.88 1929.86 1483.57 Q1926.81 1486.25 1921.09 1486.25 Q1915.37 1486.25 1912.29 1483.57 Q1909.24 1480.88 1909.24 1475.86 Q1909.24 1472.55 1911.14 1470.26 Q1913.03 1467.96 1916.41 1467.18 M1914.7 1459.79 Q1914.7 1462.48 1916.37 1463.98 Q1918.06 1465.49 1921.09 1465.49 Q1924.1 1465.49 1925.79 1463.98 Q1927.5 1462.48 1927.5 1459.79 Q1927.5 1457.11 1925.79 1455.6 Q1924.1 1454.1 1921.09 1454.1 Q1918.06 1454.1 1916.37 1455.6 Q1914.7 1457.11 1914.7 1459.79 Z" fill="#000000" fill-rule="nonzero" fill-opacity="1" /><path clip-path="url(#clip480)" d="M2327.44 1481.64 L2335.08 1481.64 L2335.08 1455.28 L2326.77 1456.95 L2326.77 1452.69 L2335.04 1451.02 L2339.71 1451.02 L2339.71 1481.64 L2347.35 1481.64 L2347.35 1485.58 L2327.44 1485.58 L2327.44 1481.64 Z" fill="#000000" fill-rule="nonzero" fill-opacity="1" /><path clip-path="url(#clip480)" d="M2366.8 1454.1 Q2363.18 1454.1 2361.36 1457.66 Q2359.55 1461.2 2359.55 1468.33 Q2359.55 1475.44 2361.36 1479.01 Q2363.18 1482.55 2366.8 1482.55 Q2370.43 1482.55 2372.23 1479.01 Q2374.06 1475.44 2374.06 1468.33 Q2374.06 1461.2 2372.23 1457.66 Q2370.43 1454.1 2366.8 1454.1 M2366.8 1450.39 Q2372.61 1450.39 2375.66 1455 Q2378.74 1459.58 2378.74 1468.33 Q2378.74 1477.06 2375.66 1481.67 Q2372.61 1486.25 2366.8 1486.25 Q2360.99 1486.25 2357.91 1481.67 Q2354.85 1477.06 2354.85 1468.33 Q2354.85 1459.58 2357.91 1455 Q2360.99 1450.39 2366.8 1450.39 Z" fill="#000000" fill-rule="nonzero" fill-opacity="1" /><path clip-path="url(#clip480)" d="M1272.65 1522.27 L1272.65 1532.4 L1284.71 1532.4 L1284.71 1536.95 L1272.65 1536.95 L1272.65 1556.3 Q1272.65 1560.66 1273.83 1561.9 Q1275.04 1563.14 1278.7 1563.14 L1284.71 1563.14 L1284.71 1568.04 L1278.7 1568.04 Q1271.92 1568.04 1269.34 1565.53 Q1266.76 1562.98 1266.76 1556.3 L1266.76 1536.95 L1262.46 1536.95 L1262.46 1532.4 L1266.76 1532.4 L1266.76 1522.27 L1272.65 1522.27 Z" fill="#000000" fill-rule="nonzero" fill-opacity="1" /><polyline clip-path="url(#clip482)" style="stroke:#000000; stroke-linecap:round; stroke-linejoin:round; stroke-width:2; stroke-opacity:0.1; fill:none" points="194.422,1317.54 2352.76,1317.54 "/>
<polyline clip-path="url(#clip482)" style="stroke:#000000; stroke-linecap:round; stroke-linejoin:round; stroke-width:2; stroke-opacity:0.1; fill:none" points="194.422,1082.9 2352.76,1082.9 "/>
<polyline clip-path="url(#clip482)" style="stroke:#000000; stroke-linecap:round; stroke-linejoin:round; stroke-width:2; stroke-opacity:0.1; fill:none" points="194.422,848.257 2352.76,848.257 "/>
<polyline clip-path="url(#clip482)" style="stroke:#000000; stroke-linecap:round; stroke-linejoin:round; stroke-width:2; stroke-opacity:0.1; fill:none" points="194.422,613.617 2352.76,613.617 "/>
<polyline clip-path="url(#clip482)" style="stroke:#000000; stroke-linecap:round; stroke-linejoin:round; stroke-width:2; stroke-opacity:0.1; fill:none" points="194.422,378.977 2352.76,378.977 "/>
<polyline clip-path="url(#clip482)" style="stroke:#000000; stroke-linecap:round; stroke-linejoin:round; stroke-width:2; stroke-opacity:0.1; fill:none" points="194.422,144.337 2352.76,144.337 "/>
<polyline clip-path="url(#clip480)" style="stroke:#000000; stroke-linecap:round; stroke-linejoin:round; stroke-width:4; stroke-opacity:1; fill:none" points="194.422,1423.18 194.422,47.2441 "/>
<polyline clip-path="url(#clip480)" style="stroke:#000000; stroke-linecap:round; stroke-linejoin:round; stroke-width:4; stroke-opacity:1; fill:none" points="194.422,1317.54 213.32,1317.54 "/>
<polyline clip-path="url(#clip480)" style="stroke:#000000; stroke-linecap:round; stroke-linejoin:round; stroke-width:4; stroke-opacity:1; fill:none" points="194.422,1082.9 213.32,1082.9 "/>
<polyline clip-path="url(#clip480)" style="stroke:#000000; stroke-linecap:round; stroke-linejoin:round; stroke-width:4; stroke-opacity:1; fill:none" points="194.422,848.257 213.32,848.257 "/>
<polyline clip-path="url(#clip480)" style="stroke:#000000; stroke-linecap:round; stroke-linejoin:round; stroke-width:4; stroke-opacity:1; fill:none" points="194.422,613.617 213.32,613.617 "/>
<polyline clip-path="url(#clip480)" style="stroke:#000000; stroke-linecap:round; stroke-linejoin:round; stroke-width:4; stroke-opacity:1; fill:none" points="194.422,378.977 213.32,378.977 "/>
<polyline clip-path="url(#clip480)" style="stroke:#000000; stroke-linecap:round; stroke-linejoin:round; stroke-width:4; stroke-opacity:1; fill:none" points="194.422,144.337 213.32,144.337 "/>
<path clip-path="url(#clip480)" d="M52.4736 1317.99 L82.1494 1317.99 L82.1494 1321.92 L52.4736 1321.92 L52.4736 1317.99 Z" fill="#000000" fill-rule="nonzero" fill-opacity="1" /><path clip-path="url(#clip480)" d="M102.242 1303.34 Q98.6308 1303.34 96.8021 1306.9 Q94.9965 1310.44 94.9965 1317.57 Q94.9965 1324.68 96.8021 1328.24 Q98.6308 1331.79 102.242 1331.79 Q105.876 1331.79 107.682 1328.24 Q109.51 1324.68 109.51 1317.57 Q109.51 1310.44 107.682 1306.9 Q105.876 1303.34 102.242 1303.34 M102.242 1299.63 Q108.052 1299.63 111.108 1304.24 Q114.186 1308.82 114.186 1317.57 Q114.186 1326.3 111.108 1330.91 Q108.052 1335.49 102.242 1335.49 Q96.4317 1335.49 93.353 1330.91 Q90.2975 1326.3 90.2975 1317.57 Q90.2975 1308.82 93.353 1304.24 Q96.4317 1299.63 102.242 1299.63 Z" fill="#000000" fill-rule="nonzero" fill-opacity="1" /><path clip-path="url(#clip480)" d="M122.404 1328.94 L127.288 1328.94 L127.288 1334.82 L122.404 1334.82 L122.404 1328.94 Z" fill="#000000" fill-rule="nonzero" fill-opacity="1" /><path clip-path="url(#clip480)" d="M137.519 1300.26 L155.876 1300.26 L155.876 1304.19 L141.802 1304.19 L141.802 1312.67 Q142.82 1312.32 143.839 1312.16 Q144.857 1311.97 145.876 1311.97 Q151.663 1311.97 155.042 1315.14 Q158.422 1318.31 158.422 1323.73 Q158.422 1329.31 154.95 1332.41 Q151.478 1335.49 145.158 1335.49 Q142.982 1335.49 140.714 1335.12 Q138.469 1334.75 136.061 1334.01 L136.061 1329.31 Q138.144 1330.44 140.367 1331 Q142.589 1331.55 145.066 1331.55 Q149.07 1331.55 151.408 1329.45 Q153.746 1327.34 153.746 1323.73 Q153.746 1320.12 151.408 1318.01 Q149.07 1315.91 145.066 1315.91 Q143.191 1315.91 141.316 1316.32 Q139.464 1316.74 137.519 1317.62 L137.519 1300.26 Z" fill="#000000" fill-rule="nonzero" fill-opacity="1" /><path clip-path="url(#clip480)" d="M50.9921 1083.35 L80.6679 1083.35 L80.6679 1087.28 L50.9921 1087.28 L50.9921 1083.35 Z" fill="#000000" fill-rule="nonzero" fill-opacity="1" /><path clip-path="url(#clip480)" d="M100.76 1068.7 Q97.1493 1068.7 95.3206 1072.26 Q93.515 1075.8 93.515 1082.93 Q93.515 1090.04 95.3206 1093.6 Q97.1493 1097.15 100.76 1097.15 Q104.395 1097.15 106.2 1093.6 Q108.029 1090.04 108.029 1082.93 Q108.029 1075.8 106.2 1072.26 Q104.395 1068.7 100.76 1068.7 M100.76 1064.99 Q106.571 1064.99 109.626 1069.6 Q112.705 1074.18 112.705 1082.93 Q112.705 1091.66 109.626 1096.27 Q106.571 1100.85 100.76 1100.85 Q94.9502 1100.85 91.8715 1096.27 Q88.816 1091.66 88.816 1082.93 Q88.816 1074.18 91.8715 1069.6 Q94.9502 1064.99 100.76 1064.99 Z" fill="#000000" fill-rule="nonzero" fill-opacity="1" /><path clip-path="url(#clip480)" d="M120.922 1094.3 L125.807 1094.3 L125.807 1100.18 L120.922 1100.18 L120.922 1094.3 Z" fill="#000000" fill-rule="nonzero" fill-opacity="1" /><path clip-path="url(#clip480)" d="M148.839 1069.69 L137.033 1088.14 L148.839 1088.14 L148.839 1069.69 M147.612 1065.62 L153.492 1065.62 L153.492 1088.14 L158.422 1088.14 L158.422 1092.03 L153.492 1092.03 L153.492 1100.18 L148.839 1100.18 L148.839 1092.03 L133.237 1092.03 L133.237 1087.52 L147.612 1065.62 Z" fill="#000000" fill-rule="nonzero" fill-opacity="1" /><path clip-path="url(#clip480)" d="M52.1264 848.709 L81.8021 848.709 L81.8021 852.644 L52.1264 852.644 L52.1264 848.709 Z" fill="#000000" fill-rule="nonzero" fill-opacity="1" /><path clip-path="url(#clip480)" d="M101.895 834.056 Q98.2835 834.056 96.4548 837.621 Q94.6493 841.163 94.6493 848.292 Q94.6493 855.399 96.4548 858.963 Q98.2835 862.505 101.895 862.505 Q105.529 862.505 107.334 858.963 Q109.163 855.399 109.163 848.292 Q109.163 841.163 107.334 837.621 Q105.529 834.056 101.895 834.056 M101.895 830.352 Q107.705 830.352 110.76 834.959 Q113.839 839.542 113.839 848.292 Q113.839 857.019 110.76 861.625 Q107.705 866.209 101.895 866.209 Q96.0845 866.209 93.0058 861.625 Q89.9503 857.019 89.9503 848.292 Q89.9503 839.542 93.0058 834.959 Q96.0845 830.352 101.895 830.352 Z" fill="#000000" fill-rule="nonzero" fill-opacity="1" /><path clip-path="url(#clip480)" d="M122.057 859.658 L126.941 859.658 L126.941 865.537 L122.057 865.537 L122.057 859.658 Z" fill="#000000" fill-rule="nonzero" fill-opacity="1" /><path clip-path="url(#clip480)" d="M151.293 846.903 Q154.649 847.621 156.524 849.889 Q158.422 852.158 158.422 855.491 Q158.422 860.607 154.904 863.408 Q151.385 866.209 144.904 866.209 Q142.728 866.209 140.413 865.769 Q138.121 865.352 135.668 864.496 L135.668 859.982 Q137.612 861.116 139.927 861.695 Q142.242 862.274 144.765 862.274 Q149.163 862.274 151.455 860.537 Q153.769 858.801 153.769 855.491 Q153.769 852.436 151.617 850.723 Q149.487 848.987 145.668 848.987 L141.64 848.987 L141.64 845.144 L145.853 845.144 Q149.302 845.144 151.13 843.778 Q152.959 842.389 152.959 839.797 Q152.959 837.135 151.061 835.723 Q149.186 834.288 145.668 834.288 Q143.746 834.288 141.547 834.704 Q139.348 835.121 136.709 836.001 L136.709 831.834 Q139.371 831.093 141.686 830.723 Q144.024 830.352 146.084 830.352 Q151.408 830.352 154.51 832.783 Q157.612 835.19 157.612 839.311 Q157.612 842.181 155.968 844.172 Q154.325 846.139 151.293 846.903 Z" fill="#000000" fill-rule="nonzero" fill-opacity="1" /><path clip-path="url(#clip480)" d="M53.0754 614.069 L82.7512 614.069 L82.7512 618.004 L53.0754 618.004 L53.0754 614.069 Z" fill="#000000" fill-rule="nonzero" fill-opacity="1" /><path clip-path="url(#clip480)" d="M102.844 599.416 Q99.2326 599.416 97.4039 602.981 Q95.5984 606.522 95.5984 613.652 Q95.5984 620.758 97.4039 624.323 Q99.2326 627.865 102.844 627.865 Q106.478 627.865 108.283 624.323 Q110.112 620.758 110.112 613.652 Q110.112 606.522 108.283 602.981 Q106.478 599.416 102.844 599.416 M102.844 595.712 Q108.654 595.712 111.709 600.319 Q114.788 604.902 114.788 613.652 Q114.788 622.379 111.709 626.985 Q108.654 631.568 102.844 631.568 Q97.0335 631.568 93.9549 626.985 Q90.8993 622.379 90.8993 613.652 Q90.8993 604.902 93.9549 600.319 Q97.0335 595.712 102.844 595.712 Z" fill="#000000" fill-rule="nonzero" fill-opacity="1" /><path clip-path="url(#clip480)" d="M123.006 625.018 L127.89 625.018 L127.89 630.897 L123.006 630.897 L123.006 625.018 Z" fill="#000000" fill-rule="nonzero" fill-opacity="1" /><path clip-path="url(#clip480)" d="M142.103 626.962 L158.422 626.962 L158.422 630.897 L136.478 630.897 L136.478 626.962 Q139.14 624.207 143.723 619.578 Q148.33 614.925 149.51 613.582 Q151.755 611.059 152.635 609.323 Q153.538 607.564 153.538 605.874 Q153.538 603.12 151.593 601.383 Q149.672 599.647 146.57 599.647 Q144.371 599.647 141.918 600.411 Q139.487 601.175 136.709 602.726 L136.709 598.004 Q139.533 596.87 141.987 596.291 Q144.441 595.712 146.478 595.712 Q151.848 595.712 155.042 598.397 Q158.237 601.082 158.237 605.573 Q158.237 607.703 157.427 609.624 Q156.64 611.522 154.533 614.115 Q153.955 614.786 150.853 618.004 Q147.751 621.198 142.103 626.962 Z" fill="#000000" fill-rule="nonzero" fill-opacity="1" /><path clip-path="url(#clip480)" d="M52.7051 379.428 L82.3808 379.428 L82.3808 383.363 L52.7051 383.363 L52.7051 379.428 Z" fill="#000000" fill-rule="nonzero" fill-opacity="1" /><path clip-path="url(#clip480)" d="M102.473 364.776 Q98.8622 364.776 97.0335 368.34 Q95.228 371.882 95.228 379.012 Q95.228 386.118 97.0335 389.683 Q98.8622 393.225 102.473 393.225 Q106.108 393.225 107.913 389.683 Q109.742 386.118 109.742 379.012 Q109.742 371.882 107.913 368.34 Q106.108 364.776 102.473 364.776 M102.473 361.072 Q108.283 361.072 111.339 365.678 Q114.418 370.262 114.418 379.012 Q114.418 387.738 111.339 392.345 Q108.283 396.928 102.473 396.928 Q96.6632 396.928 93.5845 392.345 Q90.529 387.738 90.529 379.012 Q90.529 370.262 93.5845 365.678 Q96.6632 361.072 102.473 361.072 Z" fill="#000000" fill-rule="nonzero" fill-opacity="1" /><path clip-path="url(#clip480)" d="M122.635 390.377 L127.519 390.377 L127.519 396.257 L122.635 396.257 L122.635 390.377 Z" fill="#000000" fill-rule="nonzero" fill-opacity="1" /><path clip-path="url(#clip480)" d="M138.515 392.322 L146.154 392.322 L146.154 365.956 L137.844 367.623 L137.844 363.364 L146.107 361.697 L150.783 361.697 L150.783 392.322 L158.422 392.322 L158.422 396.257 L138.515 396.257 L138.515 392.322 Z" fill="#000000" fill-rule="nonzero" fill-opacity="1" /><path clip-path="url(#clip480)" d="M101.246 130.135 Q97.6354 130.135 95.8067 133.7 Q94.0012 137.242 94.0012 144.371 Q94.0012 151.478 95.8067 155.043 Q97.6354 158.584 101.246 158.584 Q104.881 158.584 106.686 155.043 Q108.515 151.478 108.515 144.371 Q108.515 137.242 106.686 133.7 Q104.881 130.135 101.246 130.135 M101.246 126.432 Q107.057 126.432 110.112 131.038 Q113.191 135.621 113.191 144.371 Q113.191 153.098 110.112 157.705 Q107.057 162.288 101.246 162.288 Q95.4363 162.288 92.3576 157.705 Q89.3021 153.098 89.3021 144.371 Q89.3021 135.621 92.3576 131.038 Q95.4363 126.432 101.246 126.432 Z" fill="#000000" fill-rule="nonzero" fill-opacity="1" /><path clip-path="url(#clip480)" d="M121.408 155.737 L126.293 155.737 L126.293 161.617 L121.408 161.617 L121.408 155.737 Z" fill="#000000" fill-rule="nonzero" fill-opacity="1" /><path clip-path="url(#clip480)" d="M146.478 130.135 Q142.867 130.135 141.038 133.7 Q139.232 137.242 139.232 144.371 Q139.232 151.478 141.038 155.043 Q142.867 158.584 146.478 158.584 Q150.112 158.584 151.918 155.043 Q153.746 151.478 153.746 144.371 Q153.746 137.242 151.918 133.7 Q150.112 130.135 146.478 130.135 M146.478 126.432 Q152.288 126.432 155.343 131.038 Q158.422 135.621 158.422 144.371 Q158.422 153.098 155.343 157.705 Q152.288 162.288 146.478 162.288 Q140.668 162.288 137.589 157.705 Q134.533 153.098 134.533 144.371 Q134.533 135.621 137.589 131.038 Q140.668 126.432 146.478 126.432 Z" fill="#000000" fill-rule="nonzero" fill-opacity="1" /><polyline clip-path="url(#clip482)" style="stroke:#009af9; stroke-linecap:round; stroke-linejoin:round; stroke-width:4; stroke-opacity:1; fill:none" points="194.422,1384.24 410.255,961.707 626.089,848.731 841.922,799.09 1057.76,763.468 1273.59,731.935 1489.42,702.44 1705.26,674.511 1921.09,647.998 2136.92,622.814 2352.76,598.89 "/>
<polyline clip-path="url(#clip482)" style="stroke:#e26f46; stroke-linecap:round; stroke-linejoin:round; stroke-width:4; stroke-opacity:1; fill:none" points="194.422,86.1857 410.255,132.706 626.089,142.011 841.922,143.871 1057.76,144.244 1273.59,144.318 1489.42,144.333 1705.26,144.336 1921.09,144.336 2136.92,144.337 2352.76,144.337 "/>
<path clip-path="url(#clip480)" d="M1957.29 1377.32 L2280.81 1377.32 L2280.81 1221.8 L1957.29 1221.8  Z" fill="#ffffff" fill-rule="evenodd" fill-opacity="1"/>
<polyline clip-path="url(#clip480)" style="stroke:#000000; stroke-linecap:round; stroke-linejoin:round; stroke-width:4; stroke-opacity:1; fill:none" points="1957.29,1377.32 2280.81,1377.32 2280.81,1221.8 1957.29,1221.8 1957.29,1377.32 "/>
<polyline clip-path="url(#clip480)" style="stroke:#009af9; stroke-linecap:round; stroke-linejoin:round; stroke-width:4; stroke-opacity:1; fill:none" points="1981.27,1273.64 2125.16,1273.64 "/>
<path clip-path="url(#clip480)" d="M2149.15 1280.68 L2149.15 1264.99 L2153.4 1264.99 L2153.4 1280.52 Q2153.4 1284.2 2154.84 1286.05 Q2156.27 1287.88 2159.15 1287.88 Q2162.59 1287.88 2164.59 1285.68 Q2166.6 1283.48 2166.6 1279.69 L2166.6 1264.99 L2170.86 1264.99 L2170.86 1290.92 L2166.6 1290.92 L2166.6 1286.93 Q2165.05 1289.29 2162.99 1290.45 Q2160.95 1291.59 2158.24 1291.59 Q2153.77 1291.59 2151.46 1288.81 Q2149.15 1286.03 2149.15 1280.68 M2159.86 1264.36 L2159.86 1264.36 Z" fill="#000000" fill-rule="nonzero" fill-opacity="1" /><path clip-path="url(#clip480)" d="M2181.04 1286.98 L2188.68 1286.98 L2188.68 1260.61 L2180.37 1262.28 L2180.37 1258.02 L2188.64 1256.36 L2193.31 1256.36 L2193.31 1286.98 L2200.95 1286.98 L2200.95 1290.92 L2181.04 1290.92 L2181.04 1286.98 Z" fill="#000000" fill-rule="nonzero" fill-opacity="1" /><path clip-path="url(#clip480)" d="M2220.02 1254.94 Q2216.92 1260.27 2215.42 1265.48 Q2213.91 1270.68 2213.91 1276.03 Q2213.91 1281.38 2215.42 1286.63 Q2216.95 1291.86 2220.02 1297.17 L2216.32 1297.17 Q2212.85 1291.73 2211.11 1286.47 Q2209.4 1281.22 2209.4 1276.03 Q2209.4 1270.87 2211.11 1265.64 Q2212.83 1260.41 2216.32 1254.94 L2220.02 1254.94 Z" fill="#000000" fill-rule="nonzero" fill-opacity="1" /><path clip-path="url(#clip480)" d="M2232.5 1257.63 L2232.5 1264.99 L2241.27 1264.99 L2241.27 1268.3 L2232.5 1268.3 L2232.5 1282.37 Q2232.5 1285.54 2233.36 1286.45 Q2234.24 1287.35 2236.9 1287.35 L2241.27 1287.35 L2241.27 1290.92 L2236.9 1290.92 Q2231.97 1290.92 2230.09 1289.09 Q2228.22 1287.23 2228.22 1282.37 L2228.22 1268.3 L2225.09 1268.3 L2225.09 1264.99 L2228.22 1264.99 L2228.22 1257.63 L2232.5 1257.63 Z" fill="#000000" fill-rule="nonzero" fill-opacity="1" /><path clip-path="url(#clip480)" d="M2246.21 1254.94 L2249.91 1254.94 Q2253.38 1260.41 2255.09 1265.64 Q2256.83 1270.87 2256.83 1276.03 Q2256.83 1281.22 2255.09 1286.47 Q2253.38 1291.73 2249.91 1297.17 L2246.21 1297.17 Q2249.28 1291.86 2250.79 1286.63 Q2252.32 1281.38 2252.32 1276.03 Q2252.32 1270.68 2250.79 1265.48 Q2249.28 1260.27 2246.21 1254.94 Z" fill="#000000" fill-rule="nonzero" fill-opacity="1" /><polyline clip-path="url(#clip480)" style="stroke:#e26f46; stroke-linecap:round; stroke-linejoin:round; stroke-width:4; stroke-opacity:1; fill:none" points="1981.27,1325.48 2125.16,1325.48 "/>
<path clip-path="url(#clip480)" d="M2149.15 1332.52 L2149.15 1316.83 L2153.4 1316.83 L2153.4 1332.36 Q2153.4 1336.04 2154.84 1337.89 Q2156.27 1339.72 2159.15 1339.72 Q2162.59 1339.72 2164.59 1337.52 Q2166.6 1335.32 2166.6 1331.53 L2166.6 1316.83 L2170.86 1316.83 L2170.86 1342.76 L2166.6 1342.76 L2166.6 1338.77 Q2165.05 1341.13 2162.99 1342.29 Q2160.95 1343.43 2158.24 1343.43 Q2153.77 1343.43 2151.46 1340.65 Q2149.15 1337.87 2149.15 1332.52 M2159.86 1316.2 L2159.86 1316.2 Z" fill="#000000" fill-rule="nonzero" fill-opacity="1" /><path clip-path="url(#clip480)" d="M2184.26 1338.82 L2200.58 1338.82 L2200.58 1342.76 L2178.64 1342.76 L2178.64 1338.82 Q2181.3 1336.07 2185.88 1331.44 Q2190.49 1326.78 2191.67 1325.44 Q2193.91 1322.92 2194.79 1321.18 Q2195.7 1319.42 2195.7 1317.73 Q2195.7 1314.98 2193.75 1313.24 Q2191.83 1311.51 2188.73 1311.51 Q2186.53 1311.51 2184.08 1312.27 Q2181.65 1313.03 2178.87 1314.58 L2178.87 1309.86 Q2181.69 1308.73 2184.15 1308.15 Q2186.6 1307.57 2188.64 1307.57 Q2194.01 1307.57 2197.2 1310.26 Q2200.4 1312.94 2200.4 1317.43 Q2200.4 1319.56 2199.58 1321.48 Q2198.8 1323.38 2196.69 1325.97 Q2196.11 1326.64 2193.01 1329.86 Q2189.91 1333.06 2184.26 1338.82 Z" fill="#000000" fill-rule="nonzero" fill-opacity="1" /><path clip-path="url(#clip480)" d="M2220.02 1306.78 Q2216.92 1312.11 2215.42 1317.32 Q2213.91 1322.52 2213.91 1327.87 Q2213.91 1333.22 2215.42 1338.47 Q2216.95 1343.7 2220.02 1349.01 L2216.32 1349.01 Q2212.85 1343.57 2211.11 1338.31 Q2209.4 1333.06 2209.4 1327.87 Q2209.4 1322.71 2211.11 1317.48 Q2212.83 1312.25 2216.32 1306.78 L2220.02 1306.78 Z" fill="#000000" fill-rule="nonzero" fill-opacity="1" /><path clip-path="url(#clip480)" d="M2232.5 1309.47 L2232.5 1316.83 L2241.27 1316.83 L2241.27 1320.14 L2232.5 1320.14 L2232.5 1334.21 Q2232.5 1337.38 2233.36 1338.29 Q2234.24 1339.19 2236.9 1339.19 L2241.27 1339.19 L2241.27 1342.76 L2236.9 1342.76 Q2231.97 1342.76 2230.09 1340.93 Q2228.22 1339.07 2228.22 1334.21 L2228.22 1320.14 L2225.09 1320.14 L2225.09 1316.83 L2228.22 1316.83 L2228.22 1309.47 L2232.5 1309.47 Z" fill="#000000" fill-rule="nonzero" fill-opacity="1" /><path clip-path="url(#clip480)" d="M2246.21 1306.78 L2249.91 1306.78 Q2253.38 1312.25 2255.09 1317.48 Q2256.83 1322.71 2256.83 1327.87 Q2256.83 1333.06 2255.09 1338.31 Q2253.38 1343.57 2249.91 1349.01 L2246.21 1349.01 Q2249.28 1343.7 2250.79 1338.47 Q2252.32 1333.22 2252.32 1327.87 Q2252.32 1322.52 2250.79 1317.32 Q2249.28 1312.11 2246.21 1306.78 Z" fill="#000000" fill-rule="nonzero" fill-opacity="1" /></svg>
