<?xml version="1.0" encoding="utf-8"?>
<svg xmlns="http://www.w3.org/2000/svg" xmlns:xlink="http://www.w3.org/1999/xlink" width="600" height="400" viewBox="0 0 2400 1600">
<defs>
  <clipPath id="clip300">
    <rect x="0" y="0" width="2400" height="1600"/>
  </clipPath>
</defs>
<path clip-path="url(#clip300)" d="M0 1600 L2400 1600 L2400 0 L0 0  Z" fill="#ffffff" fill-rule="evenodd" fill-opacity="1"/>
<defs>
  <clipPath id="clip301">
    <rect x="480" y="0" width="1681" height="1600"/>
  </clipPath>
</defs>
<path clip-path="url(#clip300)" d="M186.274 1423.18 L2352.76 1423.18 L2352.76 47.2441 L186.274 47.2441  Z" fill="#ffffff" fill-rule="evenodd" fill-opacity="1"/>
<defs>
  <clipPath id="clip302">
    <rect x="186" y="47" width="2167" height="1377"/>
  </clipPath>
</defs>
<polyline clip-path="url(#clip302)" style="stroke:#000000; stroke-linecap:round; stroke-linejoin:round; stroke-width:2; stroke-opacity:0.1; fill:none" points="186.274,1423.18 186.274,47.2441 "/>
<polyline clip-path="url(#clip302)" style="stroke:#000000; stroke-linecap:round; stroke-linejoin:round; stroke-width:2; stroke-opacity:0.1; fill:none" points="619.57,1423.18 619.57,47.2441 "/>
<polyline clip-path="url(#clip302)" style="stroke:#000000; stroke-linecap:round; stroke-linejoin:round; stroke-width:2; stroke-opacity:0.1; fill:none" points="1052.87,1423.18 1052.87,47.2441 "/>
<polyline clip-path="url(#clip302)" style="stroke:#000000; stroke-linecap:round; stroke-linejoin:round; stroke-width:2; stroke-opacity:0.1; fill:none" points="1486.16,1423.18 1486.16,47.2441 "/>
<polyline clip-path="url(#clip302)" style="stroke:#000000; stroke-linecap:round; stroke-linejoin:round; stroke-width:2; stroke-opacity:0.1; fill:none" points="1919.46,1423.18 1919.46,47.2441 "/>
<polyline clip-path="url(#clip302)" style="stroke:#000000; stroke-linecap:round; stroke-linejoin:round; stroke-width:2; stroke-opacity:0.1; fill:none" points="2352.76,1423.18 2352.76,47.2441 "/>
<polyline clip-path="url(#clip300)" style="stroke:#000000; stroke-linecap:round; stroke-linejoin:round; stroke-width:4; stroke-opacity:1; fill:none" points="186.274,1423.18 2352.76,1423.18 "/>
<polyline clip-path="url(#clip300)" style="stroke:#000000; stroke-linecap:round; stroke-linejoin:round; stroke-width:4; stroke-opacity:1; fill:none" points="186.274,1423.18 186.274,1404.28 "/>
<polyline clip-path="url(#clip300)" style="stroke:#000000; stroke-linecap:round; stroke-linejoin:round; stroke-width:4; stroke-opacity:1; fill:none" points="619.57,1423.18 619.57,1404.28 "/>
<polyline clip-path="url(#clip300)" style="stroke:#000000; stroke-linecap:round; stroke-linejoin:round; stroke-width:4; stroke-opacity:1; fill:none" points="1052.87,1423.18 1052.87,1404.28 "/>
<polyline clip-path="url(#clip300)" style="stroke:#000000; stroke-linecap:round; stroke-linejoin:round; stroke-width:4; stroke-opacity:1; fill:none" points="1486.16,1423.18 1486.16,1404.28 "/>
<polyline clip-path="url(#clip300)" style="stroke:#000000; stroke-linecap:round; stroke-linejoin:round; stroke-width:4; stroke-opacity:1; fill:none" points="1919.46,1423.18 1919.46,1404.28 "/>
<polyline clip-path="url(#clip300)" style="stroke:#000000; stroke-linecap:round; stroke-linejoin:round; stroke-width:4; stroke-opacity:1; fill:none" points="2352.76,1423.18 2352.76,1404.28 "/>
<path clip-path="url(#clip300)" d="M186.274 1454.1 Q182.663 1454.1 180.834 1457.66 Q179.029 1461.2 179.029 1468.33 Q179.029 1475.44 180.834 1479.01 Q182.663 1482.55 186.274 1482.55 Q189.908 1482.55 191.714 1479.01 Q193.542 1475.44 193.542 1468.33 Q193.542 1461.2 191.714 1457.66 Q189.908 1454.1 186.274 1454.1 M186.274 1450.39 Q192.084 1450.39 195.14 1455 Q198.218 1459.58 198.218 1468.33 Q198.218 1477.06 195.14 1481.67 Q192.084 1486.25 186.274 1486.25 Q180.464 1486.25 177.385 1481.67 Q174.33 1477.06 174.33 1468.33 Q174.33 1459.58 177.385 1455 Q180.464 1450.39 186.274 1450.39 Z" fill="#000000" fill-rule="nonzero" fill-opacity="1" /><path clip-path="url(#clip300)" d="M614.223 1481.64 L630.543 1481.64 L630.543 1485.58 L608.598 1485.58 L608.598 1481.64 Q611.26 1478.89 615.844 1474.26 Q620.45 1469.61 621.631 1468.27 Q623.876 1465.74 624.756 1464.01 Q625.658 1462.25 625.658 1460.56 Q625.658 1457.8 623.714 1456.07 Q621.793 1454.33 618.691 1454.33 Q616.492 1454.33 614.038 1455.09 Q611.607 1455.86 608.83 1457.41 L608.83 1452.69 Q611.654 1451.55 614.107 1450.97 Q616.561 1450.39 618.598 1450.39 Q623.969 1450.39 627.163 1453.08 Q630.357 1455.77 630.357 1460.26 Q630.357 1462.39 629.547 1464.31 Q628.76 1466.2 626.654 1468.8 Q626.075 1469.47 622.973 1472.69 Q619.871 1475.88 614.223 1481.64 Z" fill="#000000" fill-rule="nonzero" fill-opacity="1" /><path clip-path="url(#clip300)" d="M1055.88 1455.09 L1044.07 1473.54 L1055.88 1473.54 L1055.88 1455.09 M1054.65 1451.02 L1060.53 1451.02 L1060.53 1473.54 L1065.46 1473.54 L1065.46 1477.43 L1060.53 1477.43 L1060.53 1485.58 L1055.88 1485.58 L1055.88 1477.43 L1040.27 1477.43 L1040.27 1472.92 L1054.65 1451.02 Z" fill="#000000" fill-rule="nonzero" fill-opacity="1" /><path clip-path="url(#clip300)" d="M1486.57 1466.44 Q1483.42 1466.44 1481.57 1468.59 Q1479.74 1470.74 1479.74 1474.49 Q1479.74 1478.22 1481.57 1480.39 Q1483.42 1482.55 1486.57 1482.55 Q1489.72 1482.55 1491.55 1480.39 Q1493.4 1478.22 1493.4 1474.49 Q1493.4 1470.74 1491.55 1468.59 Q1489.72 1466.44 1486.57 1466.44 M1495.85 1451.78 L1495.85 1456.04 Q1494.09 1455.21 1492.29 1454.77 Q1490.5 1454.33 1488.74 1454.33 Q1484.11 1454.33 1481.66 1457.45 Q1479.23 1460.58 1478.88 1466.9 Q1480.25 1464.89 1482.31 1463.82 Q1484.37 1462.73 1486.85 1462.73 Q1492.05 1462.73 1495.06 1465.9 Q1498.1 1469.05 1498.1 1474.49 Q1498.1 1479.82 1494.95 1483.03 Q1491.8 1486.25 1486.57 1486.25 Q1480.57 1486.25 1477.4 1481.67 Q1474.23 1477.06 1474.23 1468.33 Q1474.23 1460.14 1478.12 1455.28 Q1482.01 1450.39 1488.56 1450.39 Q1490.32 1450.39 1492.1 1450.74 Q1493.91 1451.09 1495.85 1451.78 Z" fill="#000000" fill-rule="nonzero" fill-opacity="1" /><path clip-path="url(#clip300)" d="M1919.46 1469.17 Q1916.13 1469.17 1914.2 1470.95 Q1912.31 1472.73 1912.31 1475.86 Q1912.31 1478.98 1914.2 1480.77 Q1916.13 1482.55 1919.46 1482.55 Q1922.79 1482.55 1924.71 1480.77 Q1926.64 1478.96 1926.64 1475.86 Q1926.64 1472.73 1924.71 1470.95 Q1922.82 1469.17 1919.46 1469.17 M1914.78 1467.18 Q1911.77 1466.44 1910.08 1464.38 Q1908.42 1462.32 1908.42 1459.35 Q1908.42 1455.21 1911.36 1452.8 Q1914.32 1450.39 1919.46 1450.39 Q1924.62 1450.39 1927.56 1452.8 Q1930.5 1455.21 1930.5 1459.35 Q1930.5 1462.32 1928.81 1464.38 Q1927.14 1466.44 1924.16 1467.18 Q1927.54 1467.96 1929.41 1470.26 Q1931.31 1472.55 1931.31 1475.86 Q1931.31 1480.88 1928.23 1483.57 Q1925.18 1486.25 1919.46 1486.25 Q1913.74 1486.25 1910.66 1483.57 Q1907.61 1480.88 1907.61 1475.86 Q1907.61 1472.55 1909.51 1470.26 Q1911.4 1467.96 1914.78 1467.18 M1913.07 1459.79 Q1913.07 1462.48 1914.74 1463.98 Q1916.43 1465.49 1919.46 1465.49 Q1922.47 1465.49 1924.16 1463.98 Q1925.87 1462.48 1925.87 1459.79 Q1925.87 1457.11 1924.16 1455.6 Q1922.47 1454.1 1919.46 1454.1 Q1916.43 1454.1 1914.74 1455.6 Q1913.07 1457.11 1913.07 1459.79 Z" fill="#000000" fill-rule="nonzero" fill-opacity="1" /><path clip-path="url(#clip300)" d="M2327.44 1481.64 L2335.08 1481.64 L2335.08 1455.28 L2326.77 1456.95 L2326.77 1452.69 L2335.04 1451.02 L2339.71 1451.02 L2339.71 1481.64 L2347.35 1481.64 L2347.35 1485.58 L2327.44 1485.58 L2327.44 1481.64 Z" fill="#000000" fill-rule="nonzero" fill-opacity="1" /><path clip-path="url(#clip300)" d="M2366.8 1454.1 Q2363.18 1454.1 2361.36 1457.66 Q2359.55 1461.2 2359.55 1468.33 Q2359.55 1475.44 2361.36 1479.01 Q2363.18 1482.55 2366.8 1482.55 Q2370.43 1482.55 2372.23 1479.01 Q2374.06 1475.44 2374.06 1468.33 Q2374.06 1461.2 2372.23 1457.66 Q2370.43 1454.1 2366.8 1454.1 M2366.8 1450.39 Q2372.61 1450.39 2375.66 1455 Q2378.74 1459.58 2378.74 1468.33 Q2378.74 1477.06 2375.66 1481.67 Q2372.61 1486.25 2366.8 1486.25 Q2360.99 1486.25 2357.91 1481.67 Q2354.85 1477.06 2354.85 1468.33 Q2354.85 1459.58 2357.91 1455 Q2360.99 1450.39 2366.8 1450.39 Z" fill="#000000" fill-rule="nonzero" fill-opacity="1" /><path clip-path="url(#clip300)" d="M1268.58 1522.27 L1268.58 1532.4 L1280.64 1532.4 L1280.64 1536.95 L1268.58 1536.95 L1268.58 1556.3 Q1268.58 1560.66 1269.75 1561.9 Q1270.96 1563.14 1274.62 1563.14 L1280.64 1563.14 L1280.64 1568.04 L1274.62 1568.04 Q1267.84 1568.04 1265.27 1565.53 Q1262.69 1562.98 1262.69 1556.3 L1262.69 1536.95 L1258.39 1536.95 L1258.39 1532.4 L1262.69 1532.4 L1262.69 1522.27 L1268.58 1522.27 Z" fill="#000000" fill-rule="nonzero" fill-opacity="1" /><polyline clip-path="url(#clip302)" style="stroke:#000000; stroke-linecap:round; stroke-linejoin:round; stroke-width:2; stroke-opacity:0.1; fill:none" points="186.274,1291.63 2352.76,1291.63 "/>
<polyline clip-path="url(#clip302)" style="stroke:#000000; stroke-linecap:round; stroke-linejoin:round; stroke-width:2; stroke-opacity:0.1; fill:none" points="186.274,975.159 2352.76,975.159 "/>
<polyline clip-path="url(#clip302)" style="stroke:#000000; stroke-linecap:round; stroke-linejoin:round; stroke-width:2; stroke-opacity:0.1; fill:none" points="186.274,658.69 2352.76,658.69 "/>
<polyline clip-path="url(#clip302)" style="stroke:#000000; stroke-linecap:round; stroke-linejoin:round; stroke-width:2; stroke-opacity:0.1; fill:none" points="186.274,342.221 2352.76,342.221 "/>
<polyline clip-path="url(#clip300)" style="stroke:#000000; stroke-linecap:round; stroke-linejoin:round; stroke-width:4; stroke-opacity:1; fill:none" points="186.274,1423.18 186.274,47.2441 "/>
<polyline clip-path="url(#clip300)" style="stroke:#000000; stroke-linecap:round; stroke-linejoin:round; stroke-width:4; stroke-opacity:1; fill:none" points="186.274,1291.63 205.172,1291.63 "/>
<polyline clip-path="url(#clip300)" style="stroke:#000000; stroke-linecap:round; stroke-linejoin:round; stroke-width:4; stroke-opacity:1; fill:none" points="186.274,975.159 205.172,975.159 "/>
<polyline clip-path="url(#clip300)" style="stroke:#000000; stroke-linecap:round; stroke-linejoin:round; stroke-width:4; stroke-opacity:1; fill:none" points="186.274,658.69 205.172,658.69 "/>
<polyline clip-path="url(#clip300)" style="stroke:#000000; stroke-linecap:round; stroke-linejoin:round; stroke-width:4; stroke-opacity:1; fill:none" points="186.274,342.221 205.172,342.221 "/>
<path clip-path="url(#clip300)" d="M62.9365 1277.43 Q59.3254 1277.43 57.4967 1280.99 Q55.6912 1284.53 55.6912 1291.66 Q55.6912 1298.77 57.4967 1302.33 Q59.3254 1305.88 62.9365 1305.88 Q66.5707 1305.88 68.3763 1302.33 Q70.205 1298.77 70.205 1291.66 Q70.205 1284.53 68.3763 1280.99 Q66.5707 1277.43 62.9365 1277.43 M62.9365 1273.72 Q68.7467 1273.72 71.8022 1278.33 Q74.8809 1282.91 74.8809 1291.66 Q74.8809 1300.39 71.8022 1305 Q68.7467 1309.58 62.9365 1309.58 Q57.1264 1309.58 54.0477 1305 Q50.9921 1300.39 50.9921 1291.66 Q50.9921 1282.91 54.0477 1278.33 Q57.1264 1273.72 62.9365 1273.72 Z" fill="#000000" fill-rule="nonzero" fill-opacity="1" /><path clip-path="url(#clip300)" d="M83.0984 1303.03 L87.9827 1303.03 L87.9827 1308.91 L83.0984 1308.91 L83.0984 1303.03 Z" fill="#000000" fill-rule="nonzero" fill-opacity="1" /><path clip-path="url(#clip300)" d="M108.168 1277.43 Q104.557 1277.43 102.728 1280.99 Q100.922 1284.53 100.922 1291.66 Q100.922 1298.77 102.728 1302.33 Q104.557 1305.88 108.168 1305.88 Q111.802 1305.88 113.608 1302.33 Q115.436 1298.77 115.436 1291.66 Q115.436 1284.53 113.608 1280.99 Q111.802 1277.43 108.168 1277.43 M108.168 1273.72 Q113.978 1273.72 117.033 1278.33 Q120.112 1282.91 120.112 1291.66 Q120.112 1300.39 117.033 1305 Q113.978 1309.58 108.168 1309.58 Q102.358 1309.58 99.2789 1305 Q96.2234 1300.39 96.2234 1291.66 Q96.2234 1282.91 99.2789 1278.33 Q102.358 1273.72 108.168 1273.72 Z" fill="#000000" fill-rule="nonzero" fill-opacity="1" /><path clip-path="url(#clip300)" d="M138.33 1277.43 Q134.719 1277.43 132.89 1280.99 Q131.084 1284.53 131.084 1291.66 Q131.084 1298.77 132.89 1302.33 Q134.719 1305.88 138.33 1305.88 Q141.964 1305.88 143.769 1302.33 Q145.598 1298.77 145.598 1291.66 Q145.598 1284.53 143.769 1280.99 Q141.964 1277.43 138.33 1277.43 M138.33 1273.72 Q144.14 1273.72 147.195 1278.33 Q150.274 1282.91 150.274 1291.66 Q150.274 1300.39 147.195 1305 Q144.14 1309.58 138.33 1309.58 Q132.519 1309.58 129.441 1305 Q126.385 1300.39 126.385 1291.66 Q126.385 1282.91 129.441 1278.33 Q132.519 1273.72 138.33 1273.72 Z" fill="#000000" fill-rule="nonzero" fill-opacity="1" /><path clip-path="url(#clip300)" d="M63.9319 960.958 Q60.3208 960.958 58.4921 964.523 Q56.6865 968.064 56.6865 975.194 Q56.6865 982.3 58.4921 985.865 Q60.3208 989.407 63.9319 989.407 Q67.5661 989.407 69.3717 985.865 Q71.2004 982.3 71.2004 975.194 Q71.2004 968.064 69.3717 964.523 Q67.5661 960.958 63.9319 960.958 M63.9319 957.254 Q69.742 957.254 72.7976 961.861 Q75.8763 966.444 75.8763 975.194 Q75.8763 983.921 72.7976 988.527 Q69.742 993.111 63.9319 993.111 Q58.1217 993.111 55.043 988.527 Q51.9875 983.921 51.9875 975.194 Q51.9875 966.444 55.043 961.861 Q58.1217 957.254 63.9319 957.254 Z" fill="#000000" fill-rule="nonzero" fill-opacity="1" /><path clip-path="url(#clip300)" d="M84.0938 986.56 L88.978 986.56 L88.978 992.439 L84.0938 992.439 L84.0938 986.56 Z" fill="#000000" fill-rule="nonzero" fill-opacity="1" /><path clip-path="url(#clip300)" d="M109.163 960.958 Q105.552 960.958 103.723 964.523 Q101.918 968.064 101.918 975.194 Q101.918 982.3 103.723 985.865 Q105.552 989.407 109.163 989.407 Q112.797 989.407 114.603 985.865 Q116.432 982.3 116.432 975.194 Q116.432 968.064 114.603 964.523 Q112.797 960.958 109.163 960.958 M109.163 957.254 Q114.973 957.254 118.029 961.861 Q121.107 966.444 121.107 975.194 Q121.107 983.921 118.029 988.527 Q114.973 993.111 109.163 993.111 Q103.353 993.111 100.274 988.527 Q97.2187 983.921 97.2187 975.194 Q97.2187 966.444 100.274 961.861 Q103.353 957.254 109.163 957.254 Z" fill="#000000" fill-rule="nonzero" fill-opacity="1" /><path clip-path="url(#clip300)" d="M129.371 957.879 L147.728 957.879 L147.728 961.814 L133.654 961.814 L133.654 970.287 Q134.672 969.939 135.691 969.777 Q136.709 969.592 137.728 969.592 Q143.515 969.592 146.894 972.763 Q150.274 975.935 150.274 981.351 Q150.274 986.93 146.802 990.032 Q143.33 993.111 137.01 993.111 Q134.834 993.111 132.566 992.74 Q130.32 992.37 127.913 991.629 L127.913 986.93 Q129.996 988.064 132.219 988.62 Q134.441 989.175 136.918 989.175 Q140.922 989.175 143.26 987.069 Q145.598 984.962 145.598 981.351 Q145.598 977.74 143.26 975.634 Q140.922 973.527 136.918 973.527 Q135.043 973.527 133.168 973.944 Q131.316 974.361 129.371 975.24 L129.371 957.879 Z" fill="#000000" fill-rule="nonzero" fill-opacity="1" /><path clip-path="url(#clip300)" d="M62.9365 644.489 Q59.3254 644.489 57.4967 648.053 Q55.6912 651.595 55.6912 658.725 Q55.6912 665.831 57.4967 669.396 Q59.3254 672.938 62.9365 672.938 Q66.5707 672.938 68.3763 669.396 Q70.205 665.831 70.205 658.725 Q70.205 651.595 68.3763 648.053 Q66.5707 644.489 62.9365 644.489 M62.9365 640.785 Q68.7467 640.785 71.8022 645.391 Q74.8809 649.975 74.8809 658.725 Q74.8809 667.452 71.8022 672.058 Q68.7467 676.641 62.9365 676.641 Q57.1264 676.641 54.0477 672.058 Q50.9921 667.452 50.9921 658.725 Q50.9921 649.975 54.0477 645.391 Q57.1264 640.785 62.9365 640.785 Z" fill="#000000" fill-rule="nonzero" fill-opacity="1" /><path clip-path="url(#clip300)" d="M83.0984 670.09 L87.9827 670.09 L87.9827 675.97 L83.0984 675.97 L83.0984 670.09 Z" fill="#000000" fill-rule="nonzero" fill-opacity="1" /><path clip-path="url(#clip300)" d="M98.978 672.035 L106.617 672.035 L106.617 645.669 L98.3067 647.336 L98.3067 643.077 L106.571 641.41 L111.246 641.41 L111.246 672.035 L118.885 672.035 L118.885 675.97 L98.978 675.97 L98.978 672.035 Z" fill="#000000" fill-rule="nonzero" fill-opacity="1" /><path clip-path="url(#clip300)" d="M138.33 644.489 Q134.719 644.489 132.89 648.053 Q131.084 651.595 131.084 658.725 Q131.084 665.831 132.89 669.396 Q134.719 672.938 138.33 672.938 Q141.964 672.938 143.769 669.396 Q145.598 665.831 145.598 658.725 Q145.598 651.595 143.769 648.053 Q141.964 644.489 138.33 644.489 M138.33 640.785 Q144.14 640.785 147.195 645.391 Q150.274 649.975 150.274 658.725 Q150.274 667.452 147.195 672.058 Q144.14 676.641 138.33 676.641 Q132.519 676.641 129.441 672.058 Q126.385 667.452 126.385 658.725 Q126.385 649.975 129.441 645.391 Q132.519 640.785 138.33 640.785 Z" fill="#000000" fill-rule="nonzero" fill-opacity="1" /><path clip-path="url(#clip300)" d="M63.9319 328.019 Q60.3208 328.019 58.4921 331.584 Q56.6865 335.126 56.6865 342.255 Q56.6865 349.362 58.4921 352.927 Q60.3208 356.468 63.9319 356.468 Q67.5661 356.468 69.3717 352.927 Q71.2004 349.362 71.2004 342.255 Q71.2004 335.126 69.3717 331.584 Q67.5661 328.019 63.9319 328.019 M63.9319 324.316 Q69.742 324.316 72.7976 328.922 Q75.8763 333.505 75.8763 342.255 Q75.8763 350.982 72.7976 355.589 Q69.742 360.172 63.9319 360.172 Q58.1217 360.172 55.043 355.589 Q51.9875 350.982 51.9875 342.255 Q51.9875 333.505 55.043 328.922 Q58.1217 324.316 63.9319 324.316 Z" fill="#000000" fill-rule="nonzero" fill-opacity="1" /><path clip-path="url(#clip300)" d="M84.0938 353.621 L88.978 353.621 L88.978 359.501 L84.0938 359.501 L84.0938 353.621 Z" fill="#000000" fill-rule="nonzero" fill-opacity="1" /><path clip-path="url(#clip300)" d="M99.9733 355.566 L107.612 355.566 L107.612 329.2 L99.3021 330.867 L99.3021 326.607 L107.566 324.941 L112.242 324.941 L112.242 355.566 L119.881 355.566 L119.881 359.501 L99.9733 359.501 L99.9733 355.566 Z" fill="#000000" fill-rule="nonzero" fill-opacity="1" /><path clip-path="url(#clip300)" d="M129.371 324.941 L147.728 324.941 L147.728 328.876 L133.654 328.876 L133.654 337.348 Q134.672 337.001 135.691 336.839 Q136.709 336.654 137.728 336.654 Q143.515 336.654 146.894 339.825 Q150.274 342.996 150.274 348.413 Q150.274 353.991 146.802 357.093 Q143.33 360.172 137.01 360.172 Q134.834 360.172 132.566 359.802 Q130.32 359.431 127.913 358.691 L127.913 353.991 Q129.996 355.126 132.219 355.681 Q134.441 356.237 136.918 356.237 Q140.922 356.237 143.26 354.13 Q145.598 352.024 145.598 348.413 Q145.598 344.802 143.26 342.695 Q140.922 340.589 136.918 340.589 Q135.043 340.589 133.168 341.005 Q131.316 341.422 129.371 342.302 L129.371 324.941 Z" fill="#000000" fill-rule="nonzero" fill-opacity="1" /><polyline clip-path="url(#clip302)" style="stroke:#009af9; stroke-linecap:round; stroke-linejoin:round; stroke-width:4; stroke-opacity:1; fill:none" points="186.274,1291.63 402.922,1291.63 619.57,1060.54 836.219,310.142 1052.87,86.1857 1269.51,720.639 1486.16,592.496 1702.81,785.022 1919.46,1028.41 2136.11,821.942 2352.76,170.24 "/>
<polyline clip-path="url(#clip302)" style="stroke:#e26f46; stroke-linecap:round; stroke-linejoin:round; stroke-width:4; stroke-opacity:1; fill:none" points="186.274,1291.63 402.922,1254.36 619.57,1168.73 836.219,1247.59 1052.87,1384.24 1269.51,1266.36 1486.16,1317.04 1702.81,1326.8 1919.46,1256.2 2136.11,1182.73 2352.76,1181.45 "/>
<path clip-path="url(#clip300)" d="M258.49 248.629 L498.333 248.629 L498.333 93.1086 L258.49 93.1086  Z" fill="#ffffff" fill-rule="evenodd" fill-opacity="1"/>
<polyline clip-path="url(#clip300)" style="stroke:#000000; stroke-linecap:round; stroke-linejoin:round; stroke-width:4; stroke-opacity:1; fill:none" points="258.49,248.629 498.333,248.629 498.333,93.1086 258.49,93.1086 258.49,248.629 "/>
<polyline clip-path="url(#clip300)" style="stroke:#009af9; stroke-linecap:round; stroke-linejoin:round; stroke-width:4; stroke-opacity:1; fill:none" points="282.562,144.949 426.994,144.949 "/>
<path clip-path="url(#clip300)" d="M464.469 149.196 Q459.307 149.196 457.316 150.377 Q455.325 151.557 455.325 154.405 Q455.325 156.673 456.807 158.016 Q458.312 159.335 460.881 159.335 Q464.423 159.335 466.552 156.835 Q468.705 154.312 468.705 150.145 L468.705 149.196 L464.469 149.196 M472.964 147.437 L472.964 162.229 L468.705 162.229 L468.705 158.293 Q467.247 160.655 465.071 161.789 Q462.895 162.9 459.747 162.9 Q455.765 162.9 453.404 160.678 Q451.066 158.432 451.066 154.682 Q451.066 150.307 453.983 148.085 Q456.923 145.863 462.733 145.863 L468.705 145.863 L468.705 145.446 Q468.705 142.507 466.761 140.909 Q464.839 139.289 461.344 139.289 Q459.122 139.289 457.015 139.821 Q454.909 140.354 452.964 141.419 L452.964 137.483 Q455.302 136.581 457.501 136.141 Q459.7 135.678 461.784 135.678 Q467.409 135.678 470.187 138.594 Q472.964 141.511 472.964 147.437 Z" fill="#000000" fill-rule="nonzero" fill-opacity="1" /><polyline clip-path="url(#clip300)" style="stroke:#e26f46; stroke-linecap:round; stroke-linejoin:round; stroke-width:4; stroke-opacity:1; fill:none" points="282.562,196.789 426.994,196.789 "/>
<path clip-path="url(#clip300)" d="M469.839 201.129 Q469.839 196.43 467.895 193.768 Q465.974 191.083 462.594 191.083 Q459.214 191.083 457.27 193.768 Q455.349 196.43 455.349 201.129 Q455.349 205.828 457.27 208.513 Q459.214 211.175 462.594 211.175 Q465.974 211.175 467.895 208.513 Q469.839 205.828 469.839 201.129 M455.349 192.078 Q456.691 189.763 458.728 188.652 Q460.788 187.518 463.636 187.518 Q468.358 187.518 471.298 191.268 Q474.261 195.018 474.261 201.129 Q474.261 207.24 471.298 210.99 Q468.358 214.74 463.636 214.74 Q460.788 214.74 458.728 213.629 Q456.691 212.495 455.349 210.18 L455.349 214.069 L451.066 214.069 L451.066 178.05 L455.349 178.05 L455.349 192.078 Z" fill="#000000" fill-rule="nonzero" fill-opacity="1" /></svg>
