<?xml version="1.0" encoding="utf-8"?>
<svg xmlns="http://www.w3.org/2000/svg" xmlns:xlink="http://www.w3.org/1999/xlink" width="600" height="400" viewBox="0 0 2400 1600">
<defs>
  <clipPath id="clip360">
    <rect x="0" y="0" width="2400" height="1600"/>
  </clipPath>
</defs>
<path clip-path="url(#clip360)" d="M0 1600 L2400 1600 L2400 0 L0 0  Z" fill="#ffffff" fill-rule="evenodd" fill-opacity="1"/>
<defs>
  <clipPath id="clip361">
    <rect x="480" y="0" width="1681" height="1600"/>
  </clipPath>
</defs>
<path clip-path="url(#clip360)" d="M186.274 1423.18 L2352.76 1423.18 L2352.76 47.2441 L186.274 47.2441  Z" fill="#ffffff" fill-rule="evenodd" fill-opacity="1"/>
<defs>
  <clipPath id="clip362">
    <rect x="186" y="47" width="2167" height="1377"/>
  </clipPath>
</defs>
<polyline clip-path="url(#clip362)" style="stroke:#000000; stroke-linecap:round; stroke-linejoin:round; stroke-width:2; stroke-opacity:0.1; fill:none" points="186.274,1423.18 186.274,47.2441 "/>
<polyline clip-path="url(#clip362)" style="stroke:#000000; stroke-linecap:round; stroke-linejoin:round; stroke-width:2; stroke-opacity:0.1; fill:none" points="619.57,1423.18 619.57,47.2441 "/>
<polyline clip-path="url(#clip362)" style="stroke:#000000; stroke-linecap:round; stroke-linejoin:round; stroke-width:2; stroke-opacity:0.1; fill:none" points="1052.87,1423.18 1052.87,47.2441 "/>
<polyline clip-path="url(#clip362)" style="stroke:#000000; stroke-linecap:round; stroke-linejoin:round; stroke-width:2; stroke-opacity:0.1; fill:none" points="1486.16,1423.18 1486.16,47.2441 "/>
<polyline clip-path="url(#clip362)" style="stroke:#000000; stroke-linecap:round; stroke-linejoin:round; stroke-width:2; stroke-opacity:0.1; fill:none" points="1919.46,1423.18 1919.46,47.2441 "/>
<polyline clip-path="url(#clip362)" style="stroke:#000000; stroke-linecap:round; stroke-linejoin:round; stroke-width:2; stroke-opacity:0.1; fill:none" points="2352.76,1423.18 2352.76,47.2441 "/>
<polyline clip-path="url(#clip360)" style="stroke:#000000; stroke-linecap:round; stroke-linejoin:round; stroke-width:4; stroke-opacity:1; fill:none" points="186.274,1423.18 2352.76,1423.18 "/>
<polyline clip-path="url(#clip360)" style="stroke:#000000; stroke-linecap:round; stroke-linejoin:round; stroke-width:4; stroke-opacity:1; fill:none" points="186.274,1423.18 186.274,1404.28 "/>
<polyline clip-path="url(#clip360)" style="stroke:#000000; stroke-linecap:round; stroke-linejoin:round; stroke-width:4; stroke-opacity:1; fill:none" points="619.57,1423.18 619.57,1404.28 "/>
<polyline clip-path="url(#clip360)" style="stroke:#000000; stroke-linecap:round; stroke-linejoin:round; stroke-width:4; stroke-opacity:1; fill:none" points="1052.87,1423.18 1052.87,1404.28 "/>
<polyline clip-path="url(#clip360)" style="stroke:#000000; stroke-linecap:round; stroke-linejoin:round; stroke-width:4; stroke-opacity:1; fill:none" points="1486.16,1423.18 1486.16,1404.28 "/>
<polyline clip-path="url(#clip360)" style="stroke:#000000; stroke-linecap:round; stroke-linejoin:round; stroke-width:4; stroke-opacity:1; fill:none" points="1919.46,1423.18 1919.46,1404.28 "/>
<polyline clip-path="url(#clip360)" style="stroke:#000000; stroke-linecap:round; stroke-linejoin:round; stroke-width:4; stroke-opacity:1; fill:none" points="2352.76,1423.18 2352.76,1404.28 "/>
<path clip-path="url(#clip360)" d="M186.274 1454.1 Q182.663 1454.1 180.834 1457.66 Q179.029 1461.2 179.029 1468.33 Q179.029 1475.44 180.834 1479.01 Q182.663 1482.55 186.274 1482.55 Q189.908 1482.55 191.714 1479.01 Q193.542 1475.44 193.542 1468.33 Q193.542 1461.2 191.714 1457.66 Q189.908 1454.1 186.274 1454.1 M186.274 1450.39 Q192.084 1450.39 195.14 1455 Q198.218 1459.58 198.218 1468.33 Q198.218 1477.06 195.14 1481.67 Q192.084 1486.25 186.274 1486.25 Q180.464 1486.25 177.385 1481.67 Q174.33 1477.06 174.33 1468.33 Q174.33 1459.58 177.385 1455 Q180.464 1450.39 186.274 1450.39 Z" fill="#000000" fill-rule="nonzero" fill-opacity="1" /><path clip-path="url(#clip360)" d="M614.223 1481.64 L630.543 1481.64 L630.543 1485.58 L608.598 1485.58 L608.598 1481.64 Q611.26 1478.89 615.844 1474.26 Q620.45 1469.61 621.631 1468.27 Q623.876 1465.74 624.756 1464.01 Q625.658 1462.25 625.658 1460.56 Q625.658 1457.8 623.714 1456.07 Q621.793 1454.33 618.691 1454.33 Q616.492 1454.33 614.038 1455.09 Q611.607 1455.86 608.83 1457.41 L608.83 1452.69 Q611.654 1451.55 614.107 1450.97 Q616.561 1450.39 618.598 1450.39 Q623.969 1450.39 627.163 1453.08 Q630.357 1455.77 630.357 1460.26 Q630.357 1462.39 629.547 1464.31 Q628.76 1466.2 626.654 1468.8 Q626.075 1469.47 622.973 1472.69 Q619.871 1475.88 614.223 1481.64 Z" fill="#000000" fill-rule="nonzero" fill-opacity="1" /><path clip-path="url(#clip360)" d="M1055.88 1455.09 L1044.07 1473.54 L1055.88 1473.54 L1055.88 1455.09 M1054.65 1451.02 L1060.53 1451.02 L1060.53 1473.54 L1065.46 1473.54 L1065.46 1477.43 L1060.53 1477.43 L1060.53 1485.58 L1055.88 1485.58 L1055.88 1477.43 L1040.27 1477.43 L1040.27 1472.92 L1054.65 1451.02 Z" fill="#000000" fill-rule="nonzero" fill-opacity="1" /><path clip-path="url(#clip360)" d="M1486.57 1466.44 Q1483.42 1466.44 1481.57 1468.59 Q1479.74 1470.74 1479.74 1474.49 Q1479.74 1478.22 1481.57 1480.39 Q1483.42 1482.55 1486.57 1482.55 Q1489.72 1482.55 1491.55 1480.39 Q1493.4 1478.22 1493.4 1474.49 Q1493.4 1470.74 1491.55 1468.59 Q1489.72 1466.44 1486.57 1466.44 M1495.85 1451.78 L1495.85 1456.04 Q1494.09 1455.21 1492.29 1454.77 Q1490.5 1454.33 1488.74 1454.33 Q1484.11 1454.33 1481.66 1457.45 Q1479.23 1460.58 1478.88 1466.9 Q1480.25 1464.89 1482.31 1463.82 Q1484.37 1462.73 1486.85 1462.73 Q1492.05 1462.73 1495.06 1465.9 Q1498.1 1469.05 1498.1 1474.49 Q1498.1 1479.82 1494.95 1483.03 Q1491.8 1486.25 1486.57 1486.25 Q1480.57 1486.25 1477.4 1481.67 Q1474.23 1477.06 1474.23 1468.33 Q1474.23 1460.14 1478.12 1455.28 Q1482.01 1450.39 1488.56 1450.39 Q1490.32 1450.39 1492.1 1450.74 Q1493.91 1451.09 1495.85 1451.78 Z" fill="#000000" fill-rule="nonzero" fill-opacity="1" /><path clip-path="url(#clip360)" d="M1919.46 1469.17 Q1916.13 1469.17 1914.2 1470.95 Q1912.31 1472.73 1912.31 1475.86 Q1912.31 1478.98 1914.2 1480.77 Q1916.13 1482.55 1919.46 1482.55 Q1922.79 1482.55 1924.71 1480.77 Q1926.64 1478.96 1926.64 1475.86 Q1926.64 1472.73 1924.71 1470.95 Q1922.82 1469.17 1919.46 1469.17 M1914.78 1467.18 Q1911.77 1466.44 1910.08 1464.38 Q1908.42 1462.32 1908.42 1459.35 Q1908.42 1455.21 1911.36 1452.8 Q1914.32 1450.39 1919.46 1450.39 Q1924.62 1450.39 1927.56 1452.8 Q1930.5 1455.21 1930.5 1459.35 Q1930.5 1462.32 1928.81 1464.38 Q1927.14 1466.44 1924.16 1467.18 Q1927.54 1467.96 1929.41 1470.26 Q1931.31 1472.55 1931.31 1475.86 Q1931.31 1480.88 1928.23 1483.57 Q1925.18 1486.25 1919.46 1486.25 Q1913.74 1486.25 1910.66 1483.57 Q1907.61 1480.88 1907.61 1475.86 Q1907.61 1472.55 1909.51 1470.26 Q1911.4 1467.96 1914.78 1467.18 M1913.07 1459.79 Q1913.07 1462.48 1914.74 1463.98 Q1916.43 1465.49 1919.46 1465.49 Q1922.47 1465.49 1924.16 1463.98 Q1925.87 1462.48 1925.87 1459.79 Q1925.87 1457.11 1924.16 1455.6 Q1922.47 1454.1 1919.46 1454.1 Q1916.43 1454.1 1914.74 1455.6 Q1913.07 1457.11 1913.07 1459.79 Z" fill="#000000" fill-rule="nonzero" fill-opacity="1" /><path clip-path="url(#clip360)" d="M2327.44 1481.64 L2335.08 1481.64 L2335.08 1455.28 L2326.77 1456.95 L2326.77 1452.69 L2335.04 1451.02 L2339.71 1451.02 L2339.71 1481.64 L2347.35 1481.64 L2347.35 1485.58 L2327.44 1485.58 L2327.44 1481.64 Z" fill="#000000" fill-rule="nonzero" fill-opacity="1" /><path clip-path="url(#clip360)" d="M2366.8 1454.1 Q2363.18 1454.1 2361.36 1457.66 Q2359.55 1461.2 2359.55 1468.33 Q2359.55 1475.44 2361.36 1479.01 Q2363.18 1482.55 2366.8 1482.55 Q2370.43 1482.55 2372.23 1479.01 Q2374.06 1475.44 2374.06 1468.33 Q2374.06 1461.2 2372.23 1457.66 Q2370.43 1454.1 2366.8 1454.1 M2366.8 1450.39 Q2372.61 1450.39 2375.66 1455 Q2378.74 1459.58 2378.74 1468.33 Q2378.74 1477.06 2375.66 1481.67 Q2372.61 1486.25 2366.8 1486.25 Q2360.99 1486.25 2357.91 1481.67 Q2354.85 1477.06 2354.85 1468.33 Q2354.85 1459.58 2357.91 1455 Q2360.99 1450.39 2366.8 1450.39 Z" fill="#000000" fill-rule="nonzero" fill-opacity="1" /><path clip-path="url(#clip360)" d="M1268.58 1522.27 L1268.58 1532.4 L1280.64 1532.4 L1280.64 1536.95 L1268.58 1536.95 L1268.58 1556.3 Q1268.58 1560.66 1269.75 1561.9 Q1270.96 1563.14 1274.62 1563.14 L1280.64 1563.14 L1280.64 1568.04 L1274.62 1568.04 Q1267.84 1568.04 1265.27 1565.53 Q1262.69 1562.98 1262.69 1556.3 L1262.69 1536.95 L1258.39 1536.95 L1258.39 1532.4 L1262.69 1532.4 L1262.69 1522.27 L1268.58 1522.27 Z" fill="#000000" fill-rule="nonzero" fill-opacity="1" /><polyline clip-path="url(#clip362)" style="stroke:#000000; stroke-linecap:round; stroke-linejoin:round; stroke-width:2; stroke-opacity:0.1; fill:none" points="186.274,1317.95 2352.76,1317.95 "/>
<polyline clip-path="url(#clip362)" style="stroke:#000000; stroke-linecap:round; stroke-linejoin:round; stroke-width:2; stroke-opacity:0.1; fill:none" points="186.274,1091.44 2352.76,1091.44 "/>
<polyline clip-path="url(#clip362)" style="stroke:#000000; stroke-linecap:round; stroke-linejoin:round; stroke-width:2; stroke-opacity:0.1; fill:none" points="186.274,864.935 2352.76,864.935 "/>
<polyline clip-path="url(#clip362)" style="stroke:#000000; stroke-linecap:round; stroke-linejoin:round; stroke-width:2; stroke-opacity:0.1; fill:none" points="186.274,638.426 2352.76,638.426 "/>
<polyline clip-path="url(#clip362)" style="stroke:#000000; stroke-linecap:round; stroke-linejoin:round; stroke-width:2; stroke-opacity:0.1; fill:none" points="186.274,411.917 2352.76,411.917 "/>
<polyline clip-path="url(#clip362)" style="stroke:#000000; stroke-linecap:round; stroke-linejoin:round; stroke-width:2; stroke-opacity:0.1; fill:none" points="186.274,185.408 2352.76,185.408 "/>
<polyline clip-path="url(#clip360)" style="stroke:#000000; stroke-linecap:round; stroke-linejoin:round; stroke-width:4; stroke-opacity:1; fill:none" points="186.274,1423.18 186.274,47.2441 "/>
<polyline clip-path="url(#clip360)" style="stroke:#000000; stroke-linecap:round; stroke-linejoin:round; stroke-width:4; stroke-opacity:1; fill:none" points="186.274,1317.95 205.172,1317.95 "/>
<polyline clip-path="url(#clip360)" style="stroke:#000000; stroke-linecap:round; stroke-linejoin:round; stroke-width:4; stroke-opacity:1; fill:none" points="186.274,1091.44 205.172,1091.44 "/>
<polyline clip-path="url(#clip360)" style="stroke:#000000; stroke-linecap:round; stroke-linejoin:round; stroke-width:4; stroke-opacity:1; fill:none" points="186.274,864.935 205.172,864.935 "/>
<polyline clip-path="url(#clip360)" style="stroke:#000000; stroke-linecap:round; stroke-linejoin:round; stroke-width:4; stroke-opacity:1; fill:none" points="186.274,638.426 205.172,638.426 "/>
<polyline clip-path="url(#clip360)" style="stroke:#000000; stroke-linecap:round; stroke-linejoin:round; stroke-width:4; stroke-opacity:1; fill:none" points="186.274,411.917 205.172,411.917 "/>
<polyline clip-path="url(#clip360)" style="stroke:#000000; stroke-linecap:round; stroke-linejoin:round; stroke-width:4; stroke-opacity:1; fill:none" points="186.274,185.408 205.172,185.408 "/>
<path clip-path="url(#clip360)" d="M62.9365 1303.75 Q59.3254 1303.75 57.4967 1307.32 Q55.6912 1310.86 55.6912 1317.99 Q55.6912 1325.1 57.4967 1328.66 Q59.3254 1332.2 62.9365 1332.2 Q66.5707 1332.2 68.3763 1328.66 Q70.205 1325.1 70.205 1317.99 Q70.205 1310.86 68.3763 1307.32 Q66.5707 1303.75 62.9365 1303.75 M62.9365 1300.05 Q68.7467 1300.05 71.8022 1304.66 Q74.8809 1309.24 74.8809 1317.99 Q74.8809 1326.72 71.8022 1331.32 Q68.7467 1335.91 62.9365 1335.91 Q57.1264 1335.91 54.0477 1331.32 Q50.9921 1326.72 50.9921 1317.99 Q50.9921 1309.24 54.0477 1304.66 Q57.1264 1300.05 62.9365 1300.05 Z" fill="#000000" fill-rule="nonzero" fill-opacity="1" /><path clip-path="url(#clip360)" d="M83.0984 1329.35 L87.9827 1329.35 L87.9827 1335.23 L83.0984 1335.23 L83.0984 1329.35 Z" fill="#000000" fill-rule="nonzero" fill-opacity="1" /><path clip-path="url(#clip360)" d="M108.168 1303.75 Q104.557 1303.75 102.728 1307.32 Q100.922 1310.86 100.922 1317.99 Q100.922 1325.1 102.728 1328.66 Q104.557 1332.2 108.168 1332.2 Q111.802 1332.2 113.608 1328.66 Q115.436 1325.1 115.436 1317.99 Q115.436 1310.86 113.608 1307.32 Q111.802 1303.75 108.168 1303.75 M108.168 1300.05 Q113.978 1300.05 117.033 1304.66 Q120.112 1309.24 120.112 1317.99 Q120.112 1326.72 117.033 1331.32 Q113.978 1335.91 108.168 1335.91 Q102.358 1335.91 99.2789 1331.32 Q96.2234 1326.72 96.2234 1317.99 Q96.2234 1309.24 99.2789 1304.66 Q102.358 1300.05 108.168 1300.05 Z" fill="#000000" fill-rule="nonzero" fill-opacity="1" /><path clip-path="url(#clip360)" d="M138.33 1303.75 Q134.719 1303.75 132.89 1307.32 Q131.084 1310.86 131.084 1317.99 Q131.084 1325.1 132.89 1328.66 Q134.719 1332.2 138.33 1332.2 Q141.964 1332.2 143.769 1328.66 Q145.598 1325.1 145.598 1317.99 Q145.598 1310.86 143.769 1307.32 Q141.964 1303.75 138.33 1303.75 M138.33 1300.05 Q144.14 1300.05 147.195 1304.66 Q150.274 1309.24 150.274 1317.99 Q150.274 1326.72 147.195 1331.32 Q144.14 1335.91 138.33 1335.91 Q132.519 1335.91 129.441 1331.32 Q126.385 1326.72 126.385 1317.99 Q126.385 1309.24 129.441 1304.66 Q132.519 1300.05 138.33 1300.05 Z" fill="#000000" fill-rule="nonzero" fill-opacity="1" /><path clip-path="url(#clip360)" d="M63.9319 1077.24 Q60.3208 1077.24 58.4921 1080.81 Q56.6865 1084.35 56.6865 1091.48 Q56.6865 1098.59 58.4921 1102.15 Q60.3208 1105.69 63.9319 1105.69 Q67.5661 1105.69 69.3717 1102.15 Q71.2004 1098.59 71.2004 1091.48 Q71.2004 1084.35 69.3717 1080.81 Q67.5661 1077.24 63.9319 1077.24 M63.9319 1073.54 Q69.742 1073.54 72.7976 1078.15 Q75.8763 1082.73 75.8763 1091.48 Q75.8763 1100.21 72.7976 1104.81 Q69.742 1109.4 63.9319 1109.4 Q58.1217 1109.4 55.043 1104.81 Q51.9875 1100.21 51.9875 1091.48 Q51.9875 1082.73 55.043 1078.15 Q58.1217 1073.54 63.9319 1073.54 Z" fill="#000000" fill-rule="nonzero" fill-opacity="1" /><path clip-path="url(#clip360)" d="M84.0938 1102.85 L88.978 1102.85 L88.978 1108.72 L84.0938 1108.72 L84.0938 1102.85 Z" fill="#000000" fill-rule="nonzero" fill-opacity="1" /><path clip-path="url(#clip360)" d="M109.163 1077.24 Q105.552 1077.24 103.723 1080.81 Q101.918 1084.35 101.918 1091.48 Q101.918 1098.59 103.723 1102.15 Q105.552 1105.69 109.163 1105.69 Q112.797 1105.69 114.603 1102.15 Q116.432 1098.59 116.432 1091.48 Q116.432 1084.35 114.603 1080.81 Q112.797 1077.24 109.163 1077.24 M109.163 1073.54 Q114.973 1073.54 118.029 1078.15 Q121.107 1082.73 121.107 1091.48 Q121.107 1100.21 118.029 1104.81 Q114.973 1109.4 109.163 1109.4 Q103.353 1109.4 100.274 1104.81 Q97.2187 1100.21 97.2187 1091.48 Q97.2187 1082.73 100.274 1078.15 Q103.353 1073.54 109.163 1073.54 Z" fill="#000000" fill-rule="nonzero" fill-opacity="1" /><path clip-path="url(#clip360)" d="M129.371 1074.16 L147.728 1074.16 L147.728 1078.1 L133.654 1078.1 L133.654 1086.57 Q134.672 1086.22 135.691 1086.06 Q136.709 1085.88 137.728 1085.88 Q143.515 1085.88 146.894 1089.05 Q150.274 1092.22 150.274 1097.64 Q150.274 1103.22 146.802 1106.32 Q143.33 1109.4 137.01 1109.4 Q134.834 1109.4 132.566 1109.03 Q130.32 1108.66 127.913 1107.91 L127.913 1103.22 Q129.996 1104.35 132.219 1104.91 Q134.441 1105.46 136.918 1105.46 Q140.922 1105.46 143.26 1103.35 Q145.598 1101.25 145.598 1097.64 Q145.598 1094.03 143.26 1091.92 Q140.922 1089.81 136.918 1089.81 Q135.043 1089.81 133.168 1090.23 Q131.316 1090.65 129.371 1091.53 L129.371 1074.16 Z" fill="#000000" fill-rule="nonzero" fill-opacity="1" /><path clip-path="url(#clip360)" d="M62.9365 850.734 Q59.3254 850.734 57.4967 854.299 Q55.6912 857.841 55.6912 864.97 Q55.6912 872.077 57.4967 875.641 Q59.3254 879.183 62.9365 879.183 Q66.5707 879.183 68.3763 875.641 Q70.205 872.077 70.205 864.97 Q70.205 857.841 68.3763 854.299 Q66.5707 850.734 62.9365 850.734 M62.9365 847.03 Q68.7467 847.03 71.8022 851.637 Q74.8809 856.22 74.8809 864.97 Q74.8809 873.697 71.8022 878.303 Q68.7467 882.887 62.9365 882.887 Q57.1264 882.887 54.0477 878.303 Q50.9921 873.697 50.9921 864.97 Q50.9921 856.22 54.0477 851.637 Q57.1264 847.03 62.9365 847.03 Z" fill="#000000" fill-rule="nonzero" fill-opacity="1" /><path clip-path="url(#clip360)" d="M83.0984 876.336 L87.9827 876.336 L87.9827 882.215 L83.0984 882.215 L83.0984 876.336 Z" fill="#000000" fill-rule="nonzero" fill-opacity="1" /><path clip-path="url(#clip360)" d="M98.978 878.28 L106.617 878.28 L106.617 851.915 L98.3067 853.581 L98.3067 849.322 L106.571 847.655 L111.246 847.655 L111.246 878.28 L118.885 878.28 L118.885 882.215 L98.978 882.215 L98.978 878.28 Z" fill="#000000" fill-rule="nonzero" fill-opacity="1" /><path clip-path="url(#clip360)" d="M138.33 850.734 Q134.719 850.734 132.89 854.299 Q131.084 857.841 131.084 864.97 Q131.084 872.077 132.89 875.641 Q134.719 879.183 138.33 879.183 Q141.964 879.183 143.769 875.641 Q145.598 872.077 145.598 864.97 Q145.598 857.841 143.769 854.299 Q141.964 850.734 138.33 850.734 M138.33 847.03 Q144.14 847.03 147.195 851.637 Q150.274 856.22 150.274 864.97 Q150.274 873.697 147.195 878.303 Q144.14 882.887 138.33 882.887 Q132.519 882.887 129.441 878.303 Q126.385 873.697 126.385 864.97 Q126.385 856.22 129.441 851.637 Q132.519 847.03 138.33 847.03 Z" fill="#000000" fill-rule="nonzero" fill-opacity="1" /><path clip-path="url(#clip360)" d="M63.9319 624.225 Q60.3208 624.225 58.4921 627.79 Q56.6865 631.331 56.6865 638.461 Q56.6865 645.567 58.4921 649.132 Q60.3208 652.674 63.9319 652.674 Q67.5661 652.674 69.3717 649.132 Q71.2004 645.567 71.2004 638.461 Q71.2004 631.331 69.3717 627.79 Q67.5661 624.225 63.9319 624.225 M63.9319 620.521 Q69.742 620.521 72.7976 625.128 Q75.8763 629.711 75.8763 638.461 Q75.8763 647.188 72.7976 651.794 Q69.742 656.377 63.9319 656.377 Q58.1217 656.377 55.043 651.794 Q51.9875 647.188 51.9875 638.461 Q51.9875 629.711 55.043 625.128 Q58.1217 620.521 63.9319 620.521 Z" fill="#000000" fill-rule="nonzero" fill-opacity="1" /><path clip-path="url(#clip360)" d="M84.0938 649.827 L88.978 649.827 L88.978 655.706 L84.0938 655.706 L84.0938 649.827 Z" fill="#000000" fill-rule="nonzero" fill-opacity="1" /><path clip-path="url(#clip360)" d="M99.9733 651.771 L107.612 651.771 L107.612 625.405 L99.3021 627.072 L99.3021 622.813 L107.566 621.146 L112.242 621.146 L112.242 651.771 L119.881 651.771 L119.881 655.706 L99.9733 655.706 L99.9733 651.771 Z" fill="#000000" fill-rule="nonzero" fill-opacity="1" /><path clip-path="url(#clip360)" d="M129.371 621.146 L147.728 621.146 L147.728 625.081 L133.654 625.081 L133.654 633.554 Q134.672 633.206 135.691 633.044 Q136.709 632.859 137.728 632.859 Q143.515 632.859 146.894 636.03 Q150.274 639.202 150.274 644.618 Q150.274 650.197 146.802 653.299 Q143.33 656.377 137.01 656.377 Q134.834 656.377 132.566 656.007 Q130.32 655.637 127.913 654.896 L127.913 650.197 Q129.996 651.331 132.219 651.887 Q134.441 652.442 136.918 652.442 Q140.922 652.442 143.26 650.336 Q145.598 648.229 145.598 644.618 Q145.598 641.007 143.26 638.901 Q140.922 636.794 136.918 636.794 Q135.043 636.794 133.168 637.211 Q131.316 637.628 129.371 638.507 L129.371 621.146 Z" fill="#000000" fill-rule="nonzero" fill-opacity="1" /><path clip-path="url(#clip360)" d="M62.9365 397.716 Q59.3254 397.716 57.4967 401.28 Q55.6912 404.822 55.6912 411.952 Q55.6912 419.058 57.4967 422.623 Q59.3254 426.165 62.9365 426.165 Q66.5707 426.165 68.3763 422.623 Q70.205 419.058 70.205 411.952 Q70.205 404.822 68.3763 401.28 Q66.5707 397.716 62.9365 397.716 M62.9365 394.012 Q68.7467 394.012 71.8022 398.618 Q74.8809 403.202 74.8809 411.952 Q74.8809 420.678 71.8022 425.285 Q68.7467 429.868 62.9365 429.868 Q57.1264 429.868 54.0477 425.285 Q50.9921 420.678 50.9921 411.952 Q50.9921 403.202 54.0477 398.618 Q57.1264 394.012 62.9365 394.012 Z" fill="#000000" fill-rule="nonzero" fill-opacity="1" /><path clip-path="url(#clip360)" d="M83.0984 423.317 L87.9827 423.317 L87.9827 429.197 L83.0984 429.197 L83.0984 423.317 Z" fill="#000000" fill-rule="nonzero" fill-opacity="1" /><path clip-path="url(#clip360)" d="M102.196 425.262 L118.515 425.262 L118.515 429.197 L96.5706 429.197 L96.5706 425.262 Q99.2326 422.507 103.816 417.878 Q108.422 413.225 109.603 411.882 Q111.848 409.359 112.728 407.623 Q113.631 405.864 113.631 404.174 Q113.631 401.419 111.686 399.683 Q109.765 397.947 106.663 397.947 Q104.464 397.947 102.01 398.711 Q99.5798 399.475 96.8021 401.026 L96.8021 396.304 Q99.6261 395.169 102.08 394.591 Q104.534 394.012 106.571 394.012 Q111.941 394.012 115.135 396.697 Q118.33 399.382 118.33 403.873 Q118.33 406.003 117.52 407.924 Q116.733 409.822 114.626 412.415 Q114.047 413.086 110.946 416.304 Q107.844 419.498 102.196 425.262 Z" fill="#000000" fill-rule="nonzero" fill-opacity="1" /><path clip-path="url(#clip360)" d="M138.33 397.716 Q134.719 397.716 132.89 401.28 Q131.084 404.822 131.084 411.952 Q131.084 419.058 132.89 422.623 Q134.719 426.165 138.33 426.165 Q141.964 426.165 143.769 422.623 Q145.598 419.058 145.598 411.952 Q145.598 404.822 143.769 401.28 Q141.964 397.716 138.33 397.716 M138.33 394.012 Q144.14 394.012 147.195 398.618 Q150.274 403.202 150.274 411.952 Q150.274 420.678 147.195 425.285 Q144.14 429.868 138.33 429.868 Q132.519 429.868 129.441 425.285 Q126.385 420.678 126.385 411.952 Q126.385 403.202 129.441 398.618 Q132.519 394.012 138.33 394.012 Z" fill="#000000" fill-rule="nonzero" fill-opacity="1" /><path clip-path="url(#clip360)" d="M63.9319 171.206 Q60.3208 171.206 58.4921 174.771 Q56.6865 178.313 56.6865 185.442 Q56.6865 192.549 58.4921 196.114 Q60.3208 199.655 63.9319 199.655 Q67.5661 199.655 69.3717 196.114 Q71.2004 192.549 71.2004 185.442 Q71.2004 178.313 69.3717 174.771 Q67.5661 171.206 63.9319 171.206 M63.9319 167.503 Q69.742 167.503 72.7976 172.109 Q75.8763 176.692 75.8763 185.442 Q75.8763 194.169 72.7976 198.776 Q69.742 203.359 63.9319 203.359 Q58.1217 203.359 55.043 198.776 Q51.9875 194.169 51.9875 185.442 Q51.9875 176.692 55.043 172.109 Q58.1217 167.503 63.9319 167.503 Z" fill="#000000" fill-rule="nonzero" fill-opacity="1" /><path clip-path="url(#clip360)" d="M84.0938 196.808 L88.978 196.808 L88.978 202.688 L84.0938 202.688 L84.0938 196.808 Z" fill="#000000" fill-rule="nonzero" fill-opacity="1" /><path clip-path="url(#clip360)" d="M103.191 198.753 L119.51 198.753 L119.51 202.688 L97.566 202.688 L97.566 198.753 Q100.228 195.998 104.811 191.368 Q109.418 186.716 110.598 185.373 Q112.844 182.85 113.723 181.114 Q114.626 179.355 114.626 177.665 Q114.626 174.91 112.682 173.174 Q110.76 171.438 107.658 171.438 Q105.459 171.438 103.006 172.202 Q100.575 172.966 97.7974 174.517 L97.7974 169.794 Q100.621 168.66 103.075 168.081 Q105.529 167.503 107.566 167.503 Q112.936 167.503 116.131 170.188 Q119.325 172.873 119.325 177.364 Q119.325 179.493 118.515 181.415 Q117.728 183.313 115.621 185.905 Q115.043 186.577 111.941 189.794 Q108.839 192.989 103.191 198.753 Z" fill="#000000" fill-rule="nonzero" fill-opacity="1" /><path clip-path="url(#clip360)" d="M129.371 168.128 L147.728 168.128 L147.728 172.063 L133.654 172.063 L133.654 180.535 Q134.672 180.188 135.691 180.026 Q136.709 179.841 137.728 179.841 Q143.515 179.841 146.894 183.012 Q150.274 186.183 150.274 191.6 Q150.274 197.178 146.802 200.28 Q143.33 203.359 137.01 203.359 Q134.834 203.359 132.566 202.989 Q130.32 202.618 127.913 201.878 L127.913 197.178 Q129.996 198.313 132.219 198.868 Q134.441 199.424 136.918 199.424 Q140.922 199.424 143.26 197.317 Q145.598 195.211 145.598 191.6 Q145.598 187.989 143.26 185.882 Q140.922 183.776 136.918 183.776 Q135.043 183.776 133.168 184.192 Q131.316 184.609 129.371 185.489 L129.371 168.128 Z" fill="#000000" fill-rule="nonzero" fill-opacity="1" /><polyline clip-path="url(#clip362)" style="stroke:#009af9; stroke-linecap:round; stroke-linejoin:round; stroke-width:4; stroke-opacity:1; fill:none" points="186.274,864.935 402.922,887.586 619.57,743.705 836.219,227.059 1052.87,86.1857 1269.51,558.737 1486.16,484.548 1702.81,638.996 1919.46,829.018 2136.11,696.267 2352.76,244.094 "/>
<polyline clip-path="url(#clip362)" style="stroke:#e26f46; stroke-linecap:round; stroke-linejoin:round; stroke-width:4; stroke-opacity:1; fill:none" points="186.274,1317.95 402.922,1291.28 619.57,1229.99 836.219,1286.43 1052.87,1384.24 1269.51,1299.87 1486.16,1336.14 1702.81,1343.13 1919.46,1292.6 2136.11,1240.01 2352.76,1239.1 "/>
<path clip-path="url(#clip360)" d="M258.49 248.629 L498.333 248.629 L498.333 93.1086 L258.49 93.1086  Z" fill="#ffffff" fill-rule="evenodd" fill-opacity="1"/>
<polyline clip-path="url(#clip360)" style="stroke:#000000; stroke-linecap:round; stroke-linejoin:round; stroke-width:4; stroke-opacity:1; fill:none" points="258.49,248.629 498.333,248.629 498.333,93.1086 258.49,93.1086 258.49,248.629 "/>
<polyline clip-path="url(#clip360)" style="stroke:#009af9; stroke-linecap:round; stroke-linejoin:round; stroke-width:4; stroke-opacity:1; fill:none" points="282.562,144.949 426.994,144.949 "/>
<path clip-path="url(#clip360)" d="M464.469 149.196 Q459.307 149.196 457.316 150.377 Q455.325 151.557 455.325 154.405 Q455.325 156.673 456.807 158.016 Q458.312 159.335 460.881 159.335 Q464.423 159.335 466.552 156.835 Q468.705 154.312 468.705 150.145 L468.705 149.196 L464.469 149.196 M472.964 147.437 L472.964 162.229 L468.705 162.229 L468.705 158.293 Q467.247 160.655 465.071 161.789 Q462.895 162.9 459.747 162.9 Q455.765 162.9 453.404 160.678 Q451.066 158.432 451.066 154.682 Q451.066 150.307 453.983 148.085 Q456.923 145.863 462.733 145.863 L468.705 145.863 L468.705 145.446 Q468.705 142.507 466.761 140.909 Q464.839 139.289 461.344 139.289 Q459.122 139.289 457.015 139.821 Q454.909 140.354 452.964 141.419 L452.964 137.483 Q455.302 136.581 457.501 136.141 Q459.7 135.678 461.784 135.678 Q467.409 135.678 470.187 138.594 Q472.964 141.511 472.964 147.437 Z" fill="#000000" fill-rule="nonzero" fill-opacity="1" /><polyline clip-path="url(#clip360)" style="stroke:#e26f46; stroke-linecap:round; stroke-linejoin:round; stroke-width:4; stroke-opacity:1; fill:none" points="282.562,196.789 426.994,196.789 "/>
<path clip-path="url(#clip360)" d="M469.839 201.129 Q469.839 196.43 467.895 193.768 Q465.974 191.083 462.594 191.083 Q459.214 191.083 457.27 193.768 Q455.349 196.43 455.349 201.129 Q455.349 205.828 457.27 208.513 Q459.214 211.175 462.594 211.175 Q465.974 211.175 467.895 208.513 Q469.839 205.828 469.839 201.129 M455.349 192.078 Q456.691 189.763 458.728 188.652 Q460.788 187.518 463.636 187.518 Q468.358 187.518 471.298 191.268 Q474.261 195.018 474.261 201.129 Q474.261 207.24 471.298 210.99 Q468.358 214.74 463.636 214.74 Q460.788 214.74 458.728 213.629 Q456.691 212.495 455.349 210.18 L455.349 214.069 L451.066 214.069 L451.066 178.05 L455.349 178.05 L455.349 192.078 Z" fill="#000000" fill-rule="nonzero" fill-opacity="1" /></svg>
