<?xml version="1.0" encoding="utf-8"?>
<svg xmlns="http://www.w3.org/2000/svg" xmlns:xlink="http://www.w3.org/1999/xlink" width="600" height="400" viewBox="0 0 2400 1600">
<defs>
  <clipPath id="clip790">
    <rect x="0" y="0" width="2400" height="1600"/>
  </clipPath>
</defs>
<path clip-path="url(#clip790)" d="M0 1600 L2400 1600 L2400 0 L0 0  Z" fill="#ffffff" fill-rule="evenodd" fill-opacity="1"/>
<defs>
  <clipPath id="clip791">
    <rect x="480" y="0" width="1681" height="1600"/>
  </clipPath>
</defs>
<path clip-path="url(#clip790)" d="M86.9921 1505.26 L2352.76 1505.26 L2352.76 47.2441 L86.9921 47.2441  Z" fill="#ffffff" fill-rule="evenodd" fill-opacity="1"/>
<defs>
  <clipPath id="clip792">
    <rect x="86" y="47" width="2267" height="1459"/>
  </clipPath>
</defs>
<polyline clip-path="url(#clip792)" style="stroke:#000000; stroke-linecap:round; stroke-linejoin:round; stroke-width:2; stroke-opacity:0.1; fill:none" points="86.9921,1505.26 86.9921,47.2441 "/>
<polyline clip-path="url(#clip792)" style="stroke:#000000; stroke-linecap:round; stroke-linejoin:round; stroke-width:2; stroke-opacity:0.1; fill:none" points="842.247,1505.26 842.247,47.2441 "/>
<polyline clip-path="url(#clip792)" style="stroke:#000000; stroke-linecap:round; stroke-linejoin:round; stroke-width:2; stroke-opacity:0.1; fill:none" points="1597.5,1505.26 1597.5,47.2441 "/>
<polyline clip-path="url(#clip792)" style="stroke:#000000; stroke-linecap:round; stroke-linejoin:round; stroke-width:2; stroke-opacity:0.1; fill:none" points="2352.76,1505.26 2352.76,47.2441 "/>
<polyline clip-path="url(#clip790)" style="stroke:#000000; stroke-linecap:round; stroke-linejoin:round; stroke-width:4; stroke-opacity:1; fill:none" points="86.9921,1505.26 2352.76,1505.26 "/>
<polyline clip-path="url(#clip790)" style="stroke:#000000; stroke-linecap:round; stroke-linejoin:round; stroke-width:4; stroke-opacity:1; fill:none" points="86.9921,1505.26 86.9921,1486.36 "/>
<polyline clip-path="url(#clip790)" style="stroke:#000000; stroke-linecap:round; stroke-linejoin:round; stroke-width:4; stroke-opacity:1; fill:none" points="842.247,1505.26 842.247,1486.36 "/>
<polyline clip-path="url(#clip790)" style="stroke:#000000; stroke-linecap:round; stroke-linejoin:round; stroke-width:4; stroke-opacity:1; fill:none" points="1597.5,1505.26 1597.5,1486.36 "/>
<polyline clip-path="url(#clip790)" style="stroke:#000000; stroke-linecap:round; stroke-linejoin:round; stroke-width:4; stroke-opacity:1; fill:none" points="2352.76,1505.26 2352.76,1486.36 "/>
<path clip-path="url(#clip790)" d="M86.9921 1536.18 Q83.381 1536.18 81.5523 1539.74 Q79.7468 1543.28 79.7468 1550.41 Q79.7468 1557.52 81.5523 1561.09 Q83.381 1564.63 86.9921 1564.63 Q90.6264 1564.63 92.4319 1561.09 Q94.2606 1557.52 94.2606 1550.41 Q94.2606 1543.28 92.4319 1539.74 Q90.6264 1536.18 86.9921 1536.18 M86.9921 1532.47 Q92.8023 1532.47 95.8578 1537.08 Q98.9365 1541.66 98.9365 1550.41 Q98.9365 1559.14 95.8578 1563.75 Q92.8023 1568.33 86.9921 1568.33 Q81.182 1568.33 78.1033 1563.75 Q75.0477 1559.14 75.0477 1550.41 Q75.0477 1541.66 78.1033 1537.08 Q81.182 1532.47 86.9921 1532.47 Z" fill="#000000" fill-rule="nonzero" fill-opacity="1" /><path clip-path="url(#clip790)" d="M816.934 1563.72 L824.573 1563.72 L824.573 1537.36 L816.263 1539.03 L816.263 1534.77 L824.527 1533.1 L829.203 1533.1 L829.203 1563.72 L836.842 1563.72 L836.842 1567.66 L816.934 1567.66 L816.934 1563.72 Z" fill="#000000" fill-rule="nonzero" fill-opacity="1" /><path clip-path="url(#clip790)" d="M856.286 1536.18 Q852.675 1536.18 850.846 1539.74 Q849.041 1543.28 849.041 1550.41 Q849.041 1557.52 850.846 1561.09 Q852.675 1564.63 856.286 1564.63 Q859.92 1564.63 861.726 1561.09 Q863.554 1557.52 863.554 1550.41 Q863.554 1543.28 861.726 1539.74 Q859.92 1536.18 856.286 1536.18 M856.286 1532.47 Q862.096 1532.47 865.152 1537.08 Q868.23 1541.66 868.23 1550.41 Q868.23 1559.14 865.152 1563.75 Q862.096 1568.33 856.286 1568.33 Q850.476 1568.33 847.397 1563.75 Q844.342 1559.14 844.342 1550.41 Q844.342 1541.66 847.397 1537.08 Q850.476 1532.47 856.286 1532.47 Z" fill="#000000" fill-rule="nonzero" fill-opacity="1" /><path clip-path="url(#clip790)" d="M1576.27 1563.72 L1592.59 1563.72 L1592.59 1567.66 L1570.65 1567.66 L1570.65 1563.72 Q1573.31 1560.97 1577.89 1556.34 Q1582.5 1551.69 1583.68 1550.35 Q1585.93 1547.82 1586.81 1546.09 Q1587.71 1544.33 1587.71 1542.64 Q1587.71 1539.88 1585.77 1538.15 Q1583.84 1536.41 1580.74 1536.41 Q1578.54 1536.41 1576.09 1537.17 Q1573.66 1537.94 1570.88 1539.49 L1570.88 1534.77 Q1573.71 1533.63 1576.16 1533.05 Q1578.61 1532.47 1580.65 1532.47 Q1586.02 1532.47 1589.21 1535.16 Q1592.41 1537.85 1592.41 1542.34 Q1592.41 1544.47 1591.6 1546.39 Q1590.81 1548.28 1588.71 1550.88 Q1588.13 1551.55 1585.02 1554.77 Q1581.92 1557.96 1576.27 1563.72 Z" fill="#000000" fill-rule="nonzero" fill-opacity="1" /><path clip-path="url(#clip790)" d="M1612.41 1536.18 Q1608.8 1536.18 1606.97 1539.74 Q1605.16 1543.28 1605.16 1550.41 Q1605.16 1557.52 1606.97 1561.09 Q1608.8 1564.63 1612.41 1564.63 Q1616.04 1564.63 1617.85 1561.09 Q1619.68 1557.52 1619.68 1550.41 Q1619.68 1543.28 1617.85 1539.74 Q1616.04 1536.18 1612.41 1536.18 M1612.41 1532.47 Q1618.22 1532.47 1621.27 1537.08 Q1624.35 1541.66 1624.35 1550.41 Q1624.35 1559.14 1621.27 1563.75 Q1618.22 1568.33 1612.41 1568.33 Q1606.6 1568.33 1603.52 1563.75 Q1600.46 1559.14 1600.46 1550.41 Q1600.46 1541.66 1603.52 1537.08 Q1606.6 1532.47 1612.41 1532.47 Z" fill="#000000" fill-rule="nonzero" fill-opacity="1" /><path clip-path="url(#clip790)" d="M2341.6 1549.03 Q2344.96 1549.74 2346.83 1552.01 Q2348.73 1554.28 2348.73 1557.61 Q2348.73 1562.73 2345.21 1565.53 Q2341.69 1568.33 2335.21 1568.33 Q2333.03 1568.33 2330.72 1567.89 Q2328.43 1567.47 2325.97 1566.62 L2325.97 1562.1 Q2327.92 1563.24 2330.23 1563.82 Q2332.55 1564.4 2335.07 1564.4 Q2339.47 1564.4 2341.76 1562.66 Q2344.08 1560.92 2344.08 1557.61 Q2344.08 1554.56 2341.92 1552.85 Q2339.79 1551.11 2335.97 1551.11 L2331.95 1551.11 L2331.95 1547.27 L2336.16 1547.27 Q2339.61 1547.27 2341.44 1545.9 Q2343.27 1544.51 2343.27 1541.92 Q2343.27 1539.26 2341.37 1537.85 Q2339.49 1536.41 2335.97 1536.41 Q2334.05 1536.41 2331.85 1536.83 Q2329.65 1537.24 2327.02 1538.12 L2327.02 1533.96 Q2329.68 1533.22 2331.99 1532.85 Q2334.33 1532.47 2336.39 1532.47 Q2341.71 1532.47 2344.82 1534.91 Q2347.92 1537.31 2347.92 1541.43 Q2347.92 1544.3 2346.27 1546.29 Q2344.63 1548.26 2341.6 1549.03 Z" fill="#000000" fill-rule="nonzero" fill-opacity="1" /><path clip-path="url(#clip790)" d="M2367.59 1536.18 Q2363.98 1536.18 2362.15 1539.74 Q2360.35 1543.28 2360.35 1550.41 Q2360.35 1557.52 2362.15 1561.09 Q2363.98 1564.63 2367.59 1564.63 Q2371.23 1564.63 2373.03 1561.09 Q2374.86 1557.52 2374.86 1550.41 Q2374.86 1543.28 2373.03 1539.74 Q2371.23 1536.18 2367.59 1536.18 M2367.59 1532.47 Q2373.4 1532.47 2376.46 1537.08 Q2379.54 1541.66 2379.54 1550.41 Q2379.54 1559.14 2376.46 1563.75 Q2373.4 1568.33 2367.59 1568.33 Q2361.78 1568.33 2358.7 1563.75 Q2355.65 1559.14 2355.65 1550.41 Q2355.65 1541.66 2358.7 1537.08 Q2361.78 1532.47 2367.59 1532.47 Z" fill="#000000" fill-rule="nonzero" fill-opacity="1" /><path clip-path="url(#clip790)" d="M1218.94 1604.35 L1218.94 1614.48 L1231 1614.48 L1231 1619.03 L1218.94 1619.03 L1218.94 1638.38 Q1218.94 1642.74 1220.11 1643.98 Q1221.32 1645.22 1224.98 1645.22 L1231 1645.22 L1231 1650.12 L1224.98 1650.12 Q1218.2 1650.12 1215.62 1647.61 Q1213.05 1645.06 1213.05 1638.38 L1213.05 1619.03 L1208.75 1619.03 L1208.75 1614.48 L1213.05 1614.48 L1213.05 1604.35 L1218.94 1604.35 Z" fill="#000000" fill-rule="nonzero" fill-opacity="1" /><polyline clip-path="url(#clip792)" style="stroke:#000000; stroke-linecap:round; stroke-linejoin:round; stroke-width:2; stroke-opacity:0.1; fill:none" points="86.9921,1400.31 2352.76,1400.31 "/>
<polyline clip-path="url(#clip792)" style="stroke:#000000; stroke-linecap:round; stroke-linejoin:round; stroke-width:2; stroke-opacity:0.1; fill:none" points="86.9921,967.538 2352.76,967.538 "/>
<polyline clip-path="url(#clip792)" style="stroke:#000000; stroke-linecap:round; stroke-linejoin:round; stroke-width:2; stroke-opacity:0.1; fill:none" points="86.9921,534.767 2352.76,534.767 "/>
<polyline clip-path="url(#clip792)" style="stroke:#000000; stroke-linecap:round; stroke-linejoin:round; stroke-width:2; stroke-opacity:0.1; fill:none" points="86.9921,101.996 2352.76,101.996 "/>
<polyline clip-path="url(#clip790)" style="stroke:#000000; stroke-linecap:round; stroke-linejoin:round; stroke-width:4; stroke-opacity:1; fill:none" points="86.9921,1505.26 86.9921,47.2441 "/>
<polyline clip-path="url(#clip790)" style="stroke:#000000; stroke-linecap:round; stroke-linejoin:round; stroke-width:4; stroke-opacity:1; fill:none" points="86.9921,1400.31 105.89,1400.31 "/>
<polyline clip-path="url(#clip790)" style="stroke:#000000; stroke-linecap:round; stroke-linejoin:round; stroke-width:4; stroke-opacity:1; fill:none" points="86.9921,967.538 105.89,967.538 "/>
<polyline clip-path="url(#clip790)" style="stroke:#000000; stroke-linecap:round; stroke-linejoin:round; stroke-width:4; stroke-opacity:1; fill:none" points="86.9921,534.767 105.89,534.767 "/>
<polyline clip-path="url(#clip790)" style="stroke:#000000; stroke-linecap:round; stroke-linejoin:round; stroke-width:4; stroke-opacity:1; fill:none" points="86.9921,101.996 105.89,101.996 "/>
<path clip-path="url(#clip790)" d="M-54.3545 1400.76 L-24.6788 1400.76 L-24.6788 1404.7 L-54.3545 1404.7 L-54.3545 1400.76 Z" fill="#000000" fill-rule="nonzero" fill-opacity="1" /><path clip-path="url(#clip790)" d="M-4.58628 1386.11 Q-8.19737 1386.11 -10.0261 1389.67 Q-11.8316 1393.21 -11.8316 1400.34 Q-11.8316 1407.45 -10.0261 1411.01 Q-8.19737 1414.56 -4.58628 1414.56 Q-0.95204 1414.56 0.853506 1411.01 Q2.6822 1407.45 2.6822 1400.34 Q2.6822 1393.21 0.853506 1389.67 Q-0.95204 1386.11 -4.58628 1386.11 M-4.58628 1382.4 Q1.22387 1382.4 4.27941 1387.01 Q7.3581 1391.59 7.3581 1400.34 Q7.3581 1409.07 4.27941 1413.68 Q1.22387 1418.26 -4.58628 1418.26 Q-10.3964 1418.26 -13.4751 1413.68 Q-16.5307 1409.07 -16.5307 1400.34 Q-16.5307 1391.59 -13.4751 1387.01 Q-10.3964 1382.4 -4.58628 1382.4 Z" fill="#000000" fill-rule="nonzero" fill-opacity="1" /><path clip-path="url(#clip790)" d="M15.5756 1411.71 L20.4599 1411.71 L20.4599 1417.59 L15.5756 1417.59 L15.5756 1411.71 Z" fill="#000000" fill-rule="nonzero" fill-opacity="1" /><path clip-path="url(#clip790)" d="M34.6728 1413.65 L50.9921 1413.65 L50.9921 1417.59 L29.0478 1417.59 L29.0478 1413.65 Q31.7098 1410.9 36.2931 1406.27 Q40.8996 1401.62 42.0801 1400.27 Q44.3255 1397.75 45.2051 1396.01 Q46.1079 1394.26 46.1079 1392.57 Q46.1079 1389.81 44.1635 1388.07 Q42.2422 1386.34 39.1403 1386.34 Q36.9413 1386.34 34.4876 1387.1 Q32.057 1387.87 29.2793 1389.42 L29.2793 1384.7 Q32.1033 1383.56 34.557 1382.98 Q37.0107 1382.4 39.0477 1382.4 Q44.4181 1382.4 47.6125 1385.09 Q50.8069 1387.77 50.8069 1392.26 Q50.8069 1394.39 49.9968 1396.32 Q49.2097 1398.21 47.1033 1400.81 Q46.5246 1401.48 43.4227 1404.7 Q40.3209 1407.89 34.6728 1413.65 Z" fill="#000000" fill-rule="nonzero" fill-opacity="1" /><path clip-path="url(#clip790)" d="M-54.7249 967.989 L-25.0491 967.989 L-25.0491 971.924 L-54.7249 971.924 L-54.7249 967.989 Z" fill="#000000" fill-rule="nonzero" fill-opacity="1" /><path clip-path="url(#clip790)" d="M-4.95665 953.336 Q-8.56774 953.336 -10.3964 956.901 Q-12.202 960.443 -12.202 967.573 Q-12.202 974.679 -10.3964 978.244 Q-8.56774 981.785 -4.95665 981.785 Q-1.32241 981.785 0.483137 978.244 Q2.31183 974.679 2.31183 967.573 Q2.31183 960.443 0.483137 956.901 Q-1.32241 953.336 -4.95665 953.336 M-4.95665 949.633 Q0.853506 949.633 3.90904 954.239 Q6.98773 958.823 6.98773 967.573 Q6.98773 976.299 3.90904 980.906 Q0.853506 985.489 -4.95665 985.489 Q-10.7668 985.489 -13.8455 980.906 Q-16.901 976.299 -16.901 967.573 Q-16.901 958.823 -13.8455 954.239 Q-10.7668 949.633 -4.95665 949.633 Z" fill="#000000" fill-rule="nonzero" fill-opacity="1" /><path clip-path="url(#clip790)" d="M15.2053 978.938 L20.0895 978.938 L20.0895 984.818 L15.2053 984.818 L15.2053 978.938 Z" fill="#000000" fill-rule="nonzero" fill-opacity="1" /><path clip-path="url(#clip790)" d="M31.0848 980.883 L38.7237 980.883 L38.7237 954.517 L30.4135 956.184 L30.4135 951.924 L38.6774 950.258 L43.3533 950.258 L43.3533 980.883 L50.9921 980.883 L50.9921 984.818 L31.0848 984.818 L31.0848 980.883 Z" fill="#000000" fill-rule="nonzero" fill-opacity="1" /><path clip-path="url(#clip790)" d="M-6.18349 520.566 Q-9.79459 520.566 -11.6233 524.13 Q-13.4288 527.672 -13.4288 534.802 Q-13.4288 541.908 -11.6233 545.473 Q-9.79459 549.015 -6.18349 549.015 Q-2.54925 549.015 -0.743708 545.473 Q1.08499 541.908 1.08499 534.802 Q1.08499 527.672 -0.743708 524.13 Q-2.54925 520.566 -6.18349 520.566 M-6.18349 516.862 Q-0.37334 516.862 2.6822 521.468 Q5.76089 526.052 5.76089 534.802 Q5.76089 543.528 2.6822 548.135 Q-0.37334 552.718 -6.18349 552.718 Q-11.9936 552.718 -15.0723 548.135 Q-18.1279 543.528 -18.1279 534.802 Q-18.1279 526.052 -15.0723 521.468 Q-11.9936 516.862 -6.18349 516.862 Z" fill="#000000" fill-rule="nonzero" fill-opacity="1" /><path clip-path="url(#clip790)" d="M13.9784 546.167 L18.8627 546.167 L18.8627 552.047 L13.9784 552.047 L13.9784 546.167 Z" fill="#000000" fill-rule="nonzero" fill-opacity="1" /><path clip-path="url(#clip790)" d="M39.0477 520.566 Q35.4367 520.566 33.608 524.13 Q31.8024 527.672 31.8024 534.802 Q31.8024 541.908 33.608 545.473 Q35.4367 549.015 39.0477 549.015 Q42.682 549.015 44.4875 545.473 Q46.3162 541.908 46.3162 534.802 Q46.3162 527.672 44.4875 524.13 Q42.682 520.566 39.0477 520.566 M39.0477 516.862 Q44.8579 516.862 47.9134 521.468 Q50.9921 526.052 50.9921 534.802 Q50.9921 543.528 47.9134 548.135 Q44.8579 552.718 39.0477 552.718 Q33.2376 552.718 30.1589 548.135 Q27.1034 543.528 27.1034 534.802 Q27.1034 526.052 30.1589 521.468 Q33.2376 516.862 39.0477 516.862 Z" fill="#000000" fill-rule="nonzero" fill-opacity="1" /><path clip-path="url(#clip790)" d="M-4.95665 87.7947 Q-8.56774 87.7947 -10.3964 91.3595 Q-12.202 94.9012 -12.202 102.031 Q-12.202 109.137 -10.3964 112.702 Q-8.56774 116.244 -4.95665 116.244 Q-1.32241 116.244 0.483137 112.702 Q2.31183 109.137 2.31183 102.031 Q2.31183 94.9012 0.483137 91.3595 Q-1.32241 87.7947 -4.95665 87.7947 M-4.95665 84.091 Q0.853506 84.091 3.90904 88.6975 Q6.98773 93.2808 6.98773 102.031 Q6.98773 110.758 3.90904 115.364 Q0.853506 119.947 -4.95665 119.947 Q-10.7668 119.947 -13.8455 115.364 Q-16.901 110.758 -16.901 102.031 Q-16.901 93.2808 -13.8455 88.6975 Q-10.7668 84.091 -4.95665 84.091 Z" fill="#000000" fill-rule="nonzero" fill-opacity="1" /><path clip-path="url(#clip790)" d="M15.2053 113.396 L20.0895 113.396 L20.0895 119.276 L15.2053 119.276 L15.2053 113.396 Z" fill="#000000" fill-rule="nonzero" fill-opacity="1" /><path clip-path="url(#clip790)" d="M31.0848 115.341 L38.7237 115.341 L38.7237 88.9753 L30.4135 90.6419 L30.4135 86.3827 L38.6774 84.716 L43.3533 84.716 L43.3533 115.341 L50.9921 115.341 L50.9921 119.276 L31.0848 119.276 L31.0848 115.341 Z" fill="#000000" fill-rule="nonzero" fill-opacity="1" /><polyline clip-path="url(#clip792)" style="stroke:#009af9; stroke-linecap:round; stroke-linejoin:round; stroke-width:4; stroke-opacity:1; fill:none" points="86.9921,534.767 162.518,535.106 238.043,302.294 313.569,281.971 389.094,423.495 464.619,497.578 540.145,545.258 615.67,950.459 691.196,1464 766.721,1357.54 842.247,1240.35 917.772,874.657 993.298,142.789 1068.82,394.692 1144.35,174.097 1219.87,88.5087 1295.4,470.628 1370.92,576.174 1446.45,446.994 1521.98,329.188 1597.5,256.184 1673.03,198.749 1748.55,364.273 1824.08,300.463 1899.6,157.024 1975.13,212.974 2050.65,455.715 2126.18,392.045 2201.7,440.976 2277.23,520.024 2352.76,859.852 "/>
<polyline clip-path="url(#clip792)" style="stroke:#e26f46; stroke-linecap:round; stroke-linejoin:round; stroke-width:4; stroke-opacity:1; fill:none" points="86.9921,534.767 162.518,497.328 238.043,529.565 313.569,555.537 389.094,545.775 464.619,542.108 540.145,600.66 615.67,621.868 691.196,525.017 766.721,522.432 842.247,481.651 917.772,420.824 993.298,572.308 1068.82,498.17 1144.35,518.045 1219.87,593.077 1295.4,551.248 1370.92,514.257 1446.45,515.052 1521.98,521.307 1597.5,523.225 1673.03,558.746 1748.55,523.066 1824.08,509.774 1899.6,540.688 1975.13,571.396 2050.65,523.821 2126.18,541.456 2201.7,546.72 2277.23,589.756 2352.76,567.577 "/>
<path clip-path="url(#clip790)" d="M2027.46 1456.66 L2277.23 1456.66 L2277.23 1301.14 L2027.46 1301.14  Z" fill="#ffffff" fill-rule="evenodd" fill-opacity="1"/>
<polyline clip-path="url(#clip790)" style="stroke:#000000; stroke-linecap:round; stroke-linejoin:round; stroke-width:4; stroke-opacity:1; fill:none" points="2027.46,1456.66 2277.23,1456.66 2277.23,1301.14 2027.46,1301.14 2027.46,1456.66 "/>
<polyline clip-path="url(#clip790)" style="stroke:#009af9; stroke-linecap:round; stroke-linejoin:round; stroke-width:4; stroke-opacity:1; fill:none" points="2052.63,1352.98 2203.69,1352.98 "/>
<path clip-path="url(#clip790)" d="M2242.26 1357.23 Q2237.1 1357.23 2235.11 1358.41 Q2233.12 1359.59 2233.12 1362.44 Q2233.12 1364.7 2234.6 1366.05 Q2236.11 1367.37 2238.68 1367.37 Q2242.22 1367.37 2244.35 1364.87 Q2246.5 1362.34 2246.5 1358.18 L2246.5 1357.23 L2242.26 1357.23 M2250.76 1355.47 L2250.76 1370.26 L2246.5 1370.26 L2246.5 1366.32 Q2245.04 1368.69 2242.87 1369.82 Q2240.69 1370.93 2237.54 1370.93 Q2233.56 1370.93 2231.2 1368.71 Q2228.86 1366.46 2228.86 1362.71 Q2228.86 1358.34 2231.78 1356.12 Q2234.72 1353.89 2240.53 1353.89 L2246.5 1353.89 L2246.5 1353.48 Q2246.5 1350.54 2244.56 1348.94 Q2242.63 1347.32 2239.14 1347.32 Q2236.92 1347.32 2234.81 1347.85 Q2232.7 1348.38 2230.76 1349.45 L2230.76 1345.51 Q2233.1 1344.61 2235.3 1344.17 Q2237.5 1343.71 2239.58 1343.71 Q2245.2 1343.71 2247.98 1346.63 Q2250.76 1349.54 2250.76 1355.47 Z" fill="#000000" fill-rule="nonzero" fill-opacity="1" /><polyline clip-path="url(#clip790)" style="stroke:#e26f46; stroke-linecap:round; stroke-linejoin:round; stroke-width:4; stroke-opacity:1; fill:none" points="2052.63,1404.82 2203.69,1404.82 "/>
<path clip-path="url(#clip790)" d="M2247.63 1409.16 Q2247.63 1404.46 2245.69 1401.8 Q2243.77 1399.11 2240.39 1399.11 Q2237.01 1399.11 2235.06 1401.8 Q2233.14 1404.46 2233.14 1409.16 Q2233.14 1413.86 2235.06 1416.54 Q2237.01 1419.21 2240.39 1419.21 Q2243.77 1419.21 2245.69 1416.54 Q2247.63 1413.86 2247.63 1409.16 M2233.14 1400.11 Q2234.49 1397.79 2236.52 1396.68 Q2238.58 1395.55 2241.43 1395.55 Q2246.15 1395.55 2249.09 1399.3 Q2252.06 1403.05 2252.06 1409.16 Q2252.06 1415.27 2249.09 1419.02 Q2246.15 1422.77 2241.43 1422.77 Q2238.58 1422.77 2236.52 1421.66 Q2234.49 1420.53 2233.14 1418.21 L2233.14 1422.1 L2228.86 1422.1 L2228.86 1386.08 L2233.14 1386.08 L2233.14 1400.11 Z" fill="#000000" fill-rule="nonzero" fill-opacity="1" /></svg>
