<?xml version="1.0" encoding="utf-8"?>
<svg xmlns="http://www.w3.org/2000/svg" xmlns:xlink="http://www.w3.org/1999/xlink" width="600" height="400" viewBox="0 0 2400 1600">
<defs>
  <clipPath id="clip850">
    <rect x="0" y="0" width="2400" height="1600"/>
  </clipPath>
</defs>
<path clip-path="url(#clip850)" d="M0 1600 L2400 1600 L2400 0 L0 0  Z" fill="#ffffff" fill-rule="evenodd" fill-opacity="1"/>
<defs>
  <clipPath id="clip851">
    <rect x="480" y="0" width="1681" height="1600"/>
  </clipPath>
</defs>
<path clip-path="url(#clip850)" d="M86.9921 1521.01 L2352.76 1521.01 L2352.76 47.2441 L86.9921 47.2441  Z" fill="#ffffff" fill-rule="evenodd" fill-opacity="1"/>
<defs>
  <clipPath id="clip852">
    <rect x="86" y="47" width="2267" height="1475"/>
  </clipPath>
</defs>
<polyline clip-path="url(#clip852)" style="stroke:#000000; stroke-linecap:round; stroke-linejoin:round; stroke-width:2; stroke-opacity:0.1; fill:none" points="151.118,1521.01 151.118,47.2441 "/>
<polyline clip-path="url(#clip852)" style="stroke:#000000; stroke-linecap:round; stroke-linejoin:round; stroke-width:2; stroke-opacity:0.1; fill:none" points="863.622,1521.01 863.622,47.2441 "/>
<polyline clip-path="url(#clip852)" style="stroke:#000000; stroke-linecap:round; stroke-linejoin:round; stroke-width:2; stroke-opacity:0.1; fill:none" points="1576.13,1521.01 1576.13,47.2441 "/>
<polyline clip-path="url(#clip852)" style="stroke:#000000; stroke-linecap:round; stroke-linejoin:round; stroke-width:2; stroke-opacity:0.1; fill:none" points="2288.63,1521.01 2288.63,47.2441 "/>
<polyline clip-path="url(#clip850)" style="stroke:#000000; stroke-linecap:round; stroke-linejoin:round; stroke-width:4; stroke-opacity:1; fill:none" points="86.9921,1521.01 2352.76,1521.01 "/>
<polyline clip-path="url(#clip850)" style="stroke:#000000; stroke-linecap:round; stroke-linejoin:round; stroke-width:4; stroke-opacity:1; fill:none" points="151.118,1521.01 151.118,1502.11 "/>
<polyline clip-path="url(#clip850)" style="stroke:#000000; stroke-linecap:round; stroke-linejoin:round; stroke-width:4; stroke-opacity:1; fill:none" points="863.622,1521.01 863.622,1502.11 "/>
<polyline clip-path="url(#clip850)" style="stroke:#000000; stroke-linecap:round; stroke-linejoin:round; stroke-width:4; stroke-opacity:1; fill:none" points="1576.13,1521.01 1576.13,1502.11 "/>
<polyline clip-path="url(#clip850)" style="stroke:#000000; stroke-linecap:round; stroke-linejoin:round; stroke-width:4; stroke-opacity:1; fill:none" points="2288.63,1521.01 2288.63,1502.11 "/>
<path clip-path="url(#clip850)" d="M151.118 1551.93 Q147.506 1551.93 145.678 1555.49 Q143.872 1559.03 143.872 1566.16 Q143.872 1573.27 145.678 1576.83 Q147.506 1580.38 151.118 1580.38 Q154.752 1580.38 156.557 1576.83 Q158.386 1573.27 158.386 1566.16 Q158.386 1559.03 156.557 1555.49 Q154.752 1551.93 151.118 1551.93 M151.118 1548.22 Q156.928 1548.22 159.983 1552.83 Q163.062 1557.41 163.062 1566.16 Q163.062 1574.89 159.983 1579.5 Q156.928 1584.08 151.118 1584.08 Q145.307 1584.08 142.229 1579.5 Q139.173 1574.89 139.173 1566.16 Q139.173 1557.41 142.229 1552.83 Q145.307 1548.22 151.118 1548.22 Z" fill="#000000" fill-rule="nonzero" fill-opacity="1" /><path clip-path="url(#clip850)" d="M838.309 1579.47 L845.948 1579.47 L845.948 1553.11 L837.638 1554.77 L837.638 1550.51 L845.902 1548.85 L850.578 1548.85 L850.578 1579.47 L858.217 1579.47 L858.217 1583.41 L838.309 1583.41 L838.309 1579.47 Z" fill="#000000" fill-rule="nonzero" fill-opacity="1" /><path clip-path="url(#clip850)" d="M877.661 1551.93 Q874.05 1551.93 872.221 1555.49 Q870.416 1559.03 870.416 1566.16 Q870.416 1573.27 872.221 1576.83 Q874.05 1580.38 877.661 1580.38 Q881.295 1580.38 883.101 1576.83 Q884.93 1573.27 884.93 1566.16 Q884.93 1559.03 883.101 1555.49 Q881.295 1551.93 877.661 1551.93 M877.661 1548.22 Q883.471 1548.22 886.527 1552.83 Q889.606 1557.41 889.606 1566.16 Q889.606 1574.89 886.527 1579.5 Q883.471 1584.08 877.661 1584.08 Q871.851 1584.08 868.772 1579.5 Q865.717 1574.89 865.717 1566.16 Q865.717 1557.41 868.772 1552.83 Q871.851 1548.22 877.661 1548.22 Z" fill="#000000" fill-rule="nonzero" fill-opacity="1" /><path clip-path="url(#clip850)" d="M1554.9 1579.47 L1571.22 1579.47 L1571.22 1583.41 L1549.27 1583.41 L1549.27 1579.47 Q1551.94 1576.72 1556.52 1572.09 Q1561.13 1567.44 1562.31 1566.09 Q1564.55 1563.57 1565.43 1561.83 Q1566.33 1560.07 1566.33 1558.38 Q1566.33 1555.63 1564.39 1553.89 Q1562.47 1552.16 1559.37 1552.16 Q1557.17 1552.16 1554.71 1552.92 Q1552.28 1553.69 1549.51 1555.24 L1549.51 1550.51 Q1552.33 1549.38 1554.78 1548.8 Q1557.24 1548.22 1559.27 1548.22 Q1564.64 1548.22 1567.84 1550.91 Q1571.03 1553.59 1571.03 1558.08 Q1571.03 1560.21 1570.22 1562.13 Q1569.44 1564.03 1567.33 1566.63 Q1566.75 1567.3 1563.65 1570.51 Q1560.55 1573.71 1554.9 1579.47 Z" fill="#000000" fill-rule="nonzero" fill-opacity="1" /><path clip-path="url(#clip850)" d="M1591.03 1551.93 Q1587.42 1551.93 1585.59 1555.49 Q1583.79 1559.03 1583.79 1566.16 Q1583.79 1573.27 1585.59 1576.83 Q1587.42 1580.38 1591.03 1580.38 Q1594.67 1580.38 1596.47 1576.83 Q1598.3 1573.27 1598.3 1566.16 Q1598.3 1559.03 1596.47 1555.49 Q1594.67 1551.93 1591.03 1551.93 M1591.03 1548.22 Q1596.84 1548.22 1599.9 1552.83 Q1602.98 1557.41 1602.98 1566.16 Q1602.98 1574.89 1599.9 1579.5 Q1596.84 1584.08 1591.03 1584.08 Q1585.22 1584.08 1582.14 1579.5 Q1579.09 1574.89 1579.09 1566.16 Q1579.09 1557.41 1582.14 1552.83 Q1585.22 1548.22 1591.03 1548.22 Z" fill="#000000" fill-rule="nonzero" fill-opacity="1" /><path clip-path="url(#clip850)" d="M2277.47 1564.77 Q2280.83 1565.49 2282.7 1567.76 Q2284.6 1570.03 2284.6 1573.36 Q2284.6 1578.48 2281.08 1581.28 Q2277.57 1584.08 2271.08 1584.08 Q2268.91 1584.08 2266.59 1583.64 Q2264.3 1583.22 2261.85 1582.37 L2261.85 1577.85 Q2263.79 1578.99 2266.11 1579.57 Q2268.42 1580.14 2270.95 1580.14 Q2275.34 1580.14 2277.64 1578.41 Q2279.95 1576.67 2279.95 1573.36 Q2279.95 1570.31 2277.8 1568.59 Q2275.67 1566.86 2271.85 1566.86 L2267.82 1566.86 L2267.82 1563.01 L2272.03 1563.01 Q2275.48 1563.01 2277.31 1561.65 Q2279.14 1560.26 2279.14 1557.67 Q2279.14 1555.01 2277.24 1553.59 Q2275.37 1552.16 2271.85 1552.16 Q2269.93 1552.16 2267.73 1552.57 Q2265.53 1552.99 2262.89 1553.87 L2262.89 1549.7 Q2265.55 1548.96 2267.87 1548.59 Q2270.2 1548.22 2272.26 1548.22 Q2277.59 1548.22 2280.69 1550.65 Q2283.79 1553.06 2283.79 1557.18 Q2283.79 1560.05 2282.15 1562.04 Q2280.51 1564.01 2277.47 1564.77 Z" fill="#000000" fill-rule="nonzero" fill-opacity="1" /><path clip-path="url(#clip850)" d="M2303.47 1551.93 Q2299.86 1551.93 2298.03 1555.49 Q2296.22 1559.03 2296.22 1566.16 Q2296.22 1573.27 2298.03 1576.83 Q2299.86 1580.38 2303.47 1580.38 Q2307.1 1580.38 2308.91 1576.83 Q2310.74 1573.27 2310.74 1566.16 Q2310.74 1559.03 2308.91 1555.49 Q2307.1 1551.93 2303.47 1551.93 M2303.47 1548.22 Q2309.28 1548.22 2312.33 1552.83 Q2315.41 1557.41 2315.41 1566.16 Q2315.41 1574.89 2312.33 1579.5 Q2309.28 1584.08 2303.47 1584.08 Q2297.66 1584.08 2294.58 1579.5 Q2291.52 1574.89 2291.52 1566.16 Q2291.52 1557.41 2294.58 1552.83 Q2297.66 1548.22 2303.47 1548.22 Z" fill="#000000" fill-rule="nonzero" fill-opacity="1" /><polyline clip-path="url(#clip852)" style="stroke:#000000; stroke-linecap:round; stroke-linejoin:round; stroke-width:2; stroke-opacity:0.1; fill:none" points="86.9921,1286.18 2352.76,1286.18 "/>
<polyline clip-path="url(#clip852)" style="stroke:#000000; stroke-linecap:round; stroke-linejoin:round; stroke-width:2; stroke-opacity:0.1; fill:none" points="86.9921,1033.1 2352.76,1033.1 "/>
<polyline clip-path="url(#clip852)" style="stroke:#000000; stroke-linecap:round; stroke-linejoin:round; stroke-width:2; stroke-opacity:0.1; fill:none" points="86.9921,780.023 2352.76,780.023 "/>
<polyline clip-path="url(#clip852)" style="stroke:#000000; stroke-linecap:round; stroke-linejoin:round; stroke-width:2; stroke-opacity:0.1; fill:none" points="86.9921,526.946 2352.76,526.946 "/>
<polyline clip-path="url(#clip852)" style="stroke:#000000; stroke-linecap:round; stroke-linejoin:round; stroke-width:2; stroke-opacity:0.1; fill:none" points="86.9921,273.868 2352.76,273.868 "/>
<polyline clip-path="url(#clip850)" style="stroke:#000000; stroke-linecap:round; stroke-linejoin:round; stroke-width:4; stroke-opacity:1; fill:none" points="86.9921,1521.01 86.9921,47.2441 "/>
<polyline clip-path="url(#clip850)" style="stroke:#000000; stroke-linecap:round; stroke-linejoin:round; stroke-width:4; stroke-opacity:1; fill:none" points="86.9921,1286.18 105.89,1286.18 "/>
<polyline clip-path="url(#clip850)" style="stroke:#000000; stroke-linecap:round; stroke-linejoin:round; stroke-width:4; stroke-opacity:1; fill:none" points="86.9921,1033.1 105.89,1033.1 "/>
<polyline clip-path="url(#clip850)" style="stroke:#000000; stroke-linecap:round; stroke-linejoin:round; stroke-width:4; stroke-opacity:1; fill:none" points="86.9921,780.023 105.89,780.023 "/>
<polyline clip-path="url(#clip850)" style="stroke:#000000; stroke-linecap:round; stroke-linejoin:round; stroke-width:4; stroke-opacity:1; fill:none" points="86.9921,526.946 105.89,526.946 "/>
<polyline clip-path="url(#clip850)" style="stroke:#000000; stroke-linecap:round; stroke-linejoin:round; stroke-width:4; stroke-opacity:1; fill:none" points="86.9921,273.868 105.89,273.868 "/>
<path clip-path="url(#clip850)" d="M39.0477 1271.98 Q35.4367 1271.98 33.608 1275.54 Q31.8024 1279.08 31.8024 1286.21 Q31.8024 1293.32 33.608 1296.88 Q35.4367 1300.42 39.0477 1300.42 Q42.682 1300.42 44.4875 1296.88 Q46.3162 1293.32 46.3162 1286.21 Q46.3162 1279.08 44.4875 1275.54 Q42.682 1271.98 39.0477 1271.98 M39.0477 1268.27 Q44.8579 1268.27 47.9134 1272.88 Q50.9921 1277.46 50.9921 1286.21 Q50.9921 1294.94 47.9134 1299.55 Q44.8579 1304.13 39.0477 1304.13 Q33.2376 1304.13 30.1589 1299.55 Q27.1034 1294.94 27.1034 1286.21 Q27.1034 1277.46 30.1589 1272.88 Q33.2376 1268.27 39.0477 1268.27 Z" fill="#000000" fill-rule="nonzero" fill-opacity="1" /><path clip-path="url(#clip850)" d="M30.0895 1015.82 L48.4458 1015.82 L48.4458 1019.76 L34.3718 1019.76 L34.3718 1028.23 Q35.3904 1027.88 36.4089 1027.72 Q37.4274 1027.53 38.4459 1027.53 Q44.2329 1027.53 47.6125 1030.7 Q50.9921 1033.88 50.9921 1039.29 Q50.9921 1044.87 47.5199 1047.97 Q44.0477 1051.05 37.7283 1051.05 Q35.5524 1051.05 33.2839 1050.68 Q31.0385 1050.31 28.6311 1049.57 L28.6311 1044.87 Q30.7145 1046.01 32.9367 1046.56 Q35.1589 1047.12 37.6357 1047.12 Q41.6403 1047.12 43.9783 1045.01 Q46.3162 1042.9 46.3162 1039.29 Q46.3162 1035.68 43.9783 1033.57 Q41.6403 1031.47 37.6357 1031.47 Q35.7607 1031.47 33.8857 1031.88 Q32.0339 1032.3 30.0895 1033.18 L30.0895 1015.82 Z" fill="#000000" fill-rule="nonzero" fill-opacity="1" /><path clip-path="url(#clip850)" d="M-0.303895 793.368 L7.33495 793.368 L7.33495 767.002 L-0.975188 768.669 L-0.975188 764.409 L7.28866 762.743 L11.9646 762.743 L11.9646 793.368 L19.6034 793.368 L19.6034 797.303 L-0.303895 797.303 L-0.303895 793.368 Z" fill="#000000" fill-rule="nonzero" fill-opacity="1" /><path clip-path="url(#clip850)" d="M39.0477 765.822 Q35.4367 765.822 33.608 769.386 Q31.8024 772.928 31.8024 780.058 Q31.8024 787.164 33.608 790.729 Q35.4367 794.27 39.0477 794.27 Q42.682 794.27 44.4875 790.729 Q46.3162 787.164 46.3162 780.058 Q46.3162 772.928 44.4875 769.386 Q42.682 765.822 39.0477 765.822 M39.0477 762.118 Q44.8579 762.118 47.9134 766.724 Q50.9921 771.308 50.9921 780.058 Q50.9921 788.784 47.9134 793.391 Q44.8579 797.974 39.0477 797.974 Q33.2376 797.974 30.1589 793.391 Q27.1034 788.784 27.1034 780.058 Q27.1034 771.308 30.1589 766.724 Q33.2376 762.118 39.0477 762.118 Z" fill="#000000" fill-rule="nonzero" fill-opacity="1" /><path clip-path="url(#clip850)" d="M0.69147 540.29 L8.33032 540.29 L8.33032 513.925 L0.0201769 515.591 L0.0201769 511.332 L8.28402 509.666 L12.9599 509.666 L12.9599 540.29 L20.5988 540.29 L20.5988 544.226 L0.69147 544.226 L0.69147 540.29 Z" fill="#000000" fill-rule="nonzero" fill-opacity="1" /><path clip-path="url(#clip850)" d="M30.0895 509.666 L48.4458 509.666 L48.4458 513.601 L34.3718 513.601 L34.3718 522.073 Q35.3904 521.726 36.4089 521.564 Q37.4274 521.379 38.4459 521.379 Q44.2329 521.379 47.6125 524.55 Q50.9921 527.721 50.9921 533.138 Q50.9921 538.716 47.5199 541.818 Q44.0477 544.897 37.7283 544.897 Q35.5524 544.897 33.2839 544.527 Q31.0385 544.156 28.6311 543.415 L28.6311 538.716 Q30.7145 539.851 32.9367 540.406 Q35.1589 540.962 37.6357 540.962 Q41.6403 540.962 43.9783 538.855 Q46.3162 536.749 46.3162 533.138 Q46.3162 529.527 43.9783 527.42 Q41.6403 525.314 37.6357 525.314 Q35.7607 525.314 33.8857 525.73 Q32.0339 526.147 30.0895 527.027 L30.0895 509.666 Z" fill="#000000" fill-rule="nonzero" fill-opacity="1" /><path clip-path="url(#clip850)" d="M2.91368 287.213 L19.233 287.213 L19.233 291.148 L-2.71129 291.148 L-2.71129 287.213 Q-0.0492672 284.459 4.53404 279.829 Q9.1405 275.176 10.321 273.834 Q12.5664 271.311 13.446 269.574 Q14.3488 267.815 14.3488 266.125 Q14.3488 263.371 12.4044 261.635 Q10.4831 259.899 7.38125 259.899 Q5.18219 259.899 2.7285 260.662 Q0.297953 261.426 -2.47981 262.977 L-2.47981 258.255 Q0.344249 257.121 2.79794 256.542 Q5.25163 255.963 7.28866 255.963 Q12.659 255.963 15.8534 258.649 Q19.0479 261.334 19.0479 265.824 Q19.0479 267.954 18.2377 269.875 Q17.4506 271.773 15.3442 274.366 Q14.7655 275.037 11.6636 278.255 Q8.5618 281.449 2.91368 287.213 Z" fill="#000000" fill-rule="nonzero" fill-opacity="1" /><path clip-path="url(#clip850)" d="M39.0477 259.667 Q35.4367 259.667 33.608 263.232 Q31.8024 266.773 31.8024 273.903 Q31.8024 281.01 33.608 284.574 Q35.4367 288.116 39.0477 288.116 Q42.682 288.116 44.4875 284.574 Q46.3162 281.01 46.3162 273.903 Q46.3162 266.773 44.4875 263.232 Q42.682 259.667 39.0477 259.667 M39.0477 255.963 Q44.8579 255.963 47.9134 260.57 Q50.9921 265.153 50.9921 273.903 Q50.9921 282.63 47.9134 287.236 Q44.8579 291.82 39.0477 291.82 Q33.2376 291.82 30.1589 287.236 Q27.1034 282.63 27.1034 273.903 Q27.1034 265.153 30.1589 260.57 Q33.2376 255.963 39.0477 255.963 Z" fill="#000000" fill-rule="nonzero" fill-opacity="1" /><path clip-path="url(#clip852)" d="M151.118 1371.46 L222.368 1437.09 L293.618 1476.01 L364.869 1479.3 L436.119 1476.06 L507.37 1466.61 L578.62 1457.64 L649.871 1446.06 L721.121 1439.76 L792.371 1432.17 L863.622 1426.81 L934.872 1422.23 L1006.12 1416.19 L1077.37 1409.13 L1148.62 1401 L1219.87 1396.12 L1291.12 1394.56 L1362.37 1387.41 L1433.63 1381.01 L1504.88 1378.85 L1576.13 1374.23 L1647.38 1369.5 L1718.63 1367.47 L1789.88 1366.26 L1861.13 1363.75 L1932.38 1360.02 L2003.63 1356.56 L2074.88 1355.2 L2146.13 1356.34 L2217.38 1355.63 L2288.63 1350.39 L2288.63 1004.99 L2217.38 988.507 L2146.13 973.648 L2074.88 955.505 L2003.63 934.691 L1932.38 916.566 L1861.13 896.3 L1789.88 877.682 L1718.63 853.387 L1647.38 829.096 L1576.13 807.054 L1504.88 782.784 L1433.63 754.245 L1362.37 726.069 L1291.12 695.614 L1219.87 663.868 L1148.62 630.118 L1077.37 594.852 L1006.12 556.345 L934.872 517.965 L863.622 478.134 L792.371 434.149 L721.121 386.105 L649.871 337.974 L578.62 285.133 L507.37 230.938 L436.119 176.722 L364.869 122.237 L293.618 88.9544 L222.368 191.25 L151.118 1186.86  Z" fill="#009af9" fill-rule="evenodd" fill-opacity="0.2"/>
<polyline clip-path="url(#clip852)" style="stroke:#009af9; stroke-linecap:round; stroke-linejoin:round; stroke-width:12; stroke-opacity:1; fill:none" points="151.118,1267.55 222.368,1253.25 293.618,1244.01 364.869,1244.79 436.119,1246.08 507.37,1247.01 578.62,1250.62 649.871,1251.04 721.121,1251.3 792.371,1252.49 863.622,1252.6 934.872,1254.71 1006.12,1251.85 1077.37,1253.1 1148.62,1259.38 1219.87,1257.56 1291.12,1261.67 1362.37,1262.03 1433.63,1262.79 1504.88,1263.74 1576.13,1263.03 1647.38,1263.2 1718.63,1265.35 1789.88,1268.83 1861.13,1270.23 1932.38,1270.65 2003.63,1273.87 2074.88,1272.72 2146.13,1270.21 2217.38,1269.03 2288.63,1272.98 "/>
<path clip-path="url(#clip852)" d="M151.118 1355.33 L222.368 1300.81 L293.618 1289.17 L364.869 1287.21 L436.119 1286.89 L507.37 1286.82 L578.62 1286.83 L649.871 1287.02 L721.121 1287.01 L792.371 1286.98 L863.622 1287.08 L934.872 1286.88 L1006.12 1286.74 L1077.37 1286.89 L1148.62 1287.07 L1219.87 1286.89 L1291.12 1287.07 L1362.37 1286.97 L1433.63 1286.86 L1504.88 1286.97 L1576.13 1287.11 L1647.38 1287.12 L1718.63 1287.07 L1789.88 1287.02 L1861.13 1286.82 L1932.38 1286.95 L2003.63 1286.91 L2074.88 1287.13 L2146.13 1286.98 L2217.38 1286.9 L2288.63 1287.31 L2288.63 1285.19 L2217.38 1285.11 L2146.13 1285.22 L2074.88 1285.14 L2003.63 1285.25 L1932.38 1285.23 L1861.13 1285.27 L1789.88 1285.35 L1718.63 1285.57 L1647.38 1285.23 L1576.13 1285.35 L1504.88 1285.6 L1433.63 1285.21 L1362.37 1285.53 L1291.12 1285.4 L1219.87 1285.54 L1148.62 1285.42 L1077.37 1285.17 L1006.12 1285.35 L934.872 1285.31 L863.622 1285.3 L792.371 1285.44 L721.121 1285.25 L649.871 1285.63 L578.62 1285.23 L507.37 1285.55 L436.119 1285.36 L364.869 1285 L293.618 1282.61 L222.368 1266.68 L151.118 1189.25  Z" fill="#e26f46" fill-rule="evenodd" fill-opacity="0.2"/>
<polyline clip-path="url(#clip852)" style="stroke:#e26f46; stroke-linecap:round; stroke-linejoin:round; stroke-width:12; stroke-opacity:1; fill:none" points="151.118,1285.24 222.368,1286.1 293.618,1285.97 364.869,1286.05 436.119,1286.15 507.37,1286.16 578.62,1286.07 649.871,1286.16 721.121,1286.14 792.371,1285.98 863.622,1286.19 934.872,1286.22 1006.12,1286.04 1077.37,1286.07 1148.62,1286.27 1219.87,1286.25 1291.12,1286.16 1362.37,1286.15 1433.63,1286.11 1504.88,1286.28 1576.13,1286.17 1647.38,1286.3 1718.63,1286.2 1789.88,1286.23 1861.13,1286.11 1932.38,1286.28 2003.63,1286.12 2074.88,1286.24 2146.13,1285.93 2217.38,1286.02 2288.63,1286.16 "/>
</svg>
