<?xml version="1.0" encoding="utf-8"?>
<svg xmlns="http://www.w3.org/2000/svg" xmlns:xlink="http://www.w3.org/1999/xlink" width="600" height="400" viewBox="0 0 2400 1600">
<defs>
  <clipPath id="clip750">
    <rect x="0" y="0" width="2400" height="1600"/>
  </clipPath>
</defs>
<path clip-path="url(#clip750)" d="M0 1600 L2400 1600 L2400 0 L0 0  Z" fill="#ffffff" fill-rule="evenodd" fill-opacity="1"/>
<defs>
  <clipPath id="clip751">
    <rect x="156" y="47" width="2197" height="1377"/>
  </clipPath>
</defs>
<path clip-path="url(#clip750)" d="M156.598 1423.18 L2352.76 1423.18 L2352.76 47.2441 L156.598 47.2441  Z" fill="#ffffff" fill-rule="evenodd" fill-opacity="1"/>
<polyline clip-path="url(#clip751)" style="stroke:#000000; stroke-linecap:round; stroke-linejoin:round; stroke-width:2; stroke-opacity:0.1; fill:none" points="156.598,1423.18 156.598,47.2441 "/>
<polyline clip-path="url(#clip751)" style="stroke:#000000; stroke-linecap:round; stroke-linejoin:round; stroke-width:2; stroke-opacity:0.1; fill:none" points="595.83,1423.18 595.83,47.2441 "/>
<polyline clip-path="url(#clip751)" style="stroke:#000000; stroke-linecap:round; stroke-linejoin:round; stroke-width:2; stroke-opacity:0.1; fill:none" points="1035.06,1423.18 1035.06,47.2441 "/>
<polyline clip-path="url(#clip751)" style="stroke:#000000; stroke-linecap:round; stroke-linejoin:round; stroke-width:2; stroke-opacity:0.1; fill:none" points="1474.29,1423.18 1474.29,47.2441 "/>
<polyline clip-path="url(#clip751)" style="stroke:#000000; stroke-linecap:round; stroke-linejoin:round; stroke-width:2; stroke-opacity:0.1; fill:none" points="1913.52,1423.18 1913.52,47.2441 "/>
<polyline clip-path="url(#clip751)" style="stroke:#000000; stroke-linecap:round; stroke-linejoin:round; stroke-width:2; stroke-opacity:0.1; fill:none" points="2352.76,1423.18 2352.76,47.2441 "/>
<polyline clip-path="url(#clip751)" style="stroke:#000000; stroke-linecap:round; stroke-linejoin:round; stroke-width:2; stroke-opacity:0.1; fill:none" points="156.598,1351.3 2352.76,1351.3 "/>
<polyline clip-path="url(#clip751)" style="stroke:#000000; stroke-linecap:round; stroke-linejoin:round; stroke-width:2; stroke-opacity:0.1; fill:none" points="156.598,1056.95 2352.76,1056.95 "/>
<polyline clip-path="url(#clip751)" style="stroke:#000000; stroke-linecap:round; stroke-linejoin:round; stroke-width:2; stroke-opacity:0.1; fill:none" points="156.598,762.598 2352.76,762.598 "/>
<polyline clip-path="url(#clip751)" style="stroke:#000000; stroke-linecap:round; stroke-linejoin:round; stroke-width:2; stroke-opacity:0.1; fill:none" points="156.598,468.246 2352.76,468.246 "/>
<polyline clip-path="url(#clip751)" style="stroke:#000000; stroke-linecap:round; stroke-linejoin:round; stroke-width:2; stroke-opacity:0.1; fill:none" points="156.598,173.893 2352.76,173.893 "/>
<polyline clip-path="url(#clip750)" style="stroke:#000000; stroke-linecap:round; stroke-linejoin:round; stroke-width:4; stroke-opacity:1; fill:none" points="156.598,1423.18 2352.76,1423.18 "/>
<polyline clip-path="url(#clip750)" style="stroke:#000000; stroke-linecap:round; stroke-linejoin:round; stroke-width:4; stroke-opacity:1; fill:none" points="156.598,1423.18 156.598,1404.28 "/>
<polyline clip-path="url(#clip750)" style="stroke:#000000; stroke-linecap:round; stroke-linejoin:round; stroke-width:4; stroke-opacity:1; fill:none" points="595.83,1423.18 595.83,1404.28 "/>
<polyline clip-path="url(#clip750)" style="stroke:#000000; stroke-linecap:round; stroke-linejoin:round; stroke-width:4; stroke-opacity:1; fill:none" points="1035.06,1423.18 1035.06,1404.28 "/>
<polyline clip-path="url(#clip750)" style="stroke:#000000; stroke-linecap:round; stroke-linejoin:round; stroke-width:4; stroke-opacity:1; fill:none" points="1474.29,1423.18 1474.29,1404.28 "/>
<polyline clip-path="url(#clip750)" style="stroke:#000000; stroke-linecap:round; stroke-linejoin:round; stroke-width:4; stroke-opacity:1; fill:none" points="1913.52,1423.18 1913.52,1404.28 "/>
<polyline clip-path="url(#clip750)" style="stroke:#000000; stroke-linecap:round; stroke-linejoin:round; stroke-width:4; stroke-opacity:1; fill:none" points="2352.76,1423.18 2352.76,1404.28 "/>
<path clip-path="url(#clip750)" d="M156.598 1454.1 Q152.987 1454.1 151.158 1457.66 Q149.353 1461.2 149.353 1468.33 Q149.353 1475.44 151.158 1479.01 Q152.987 1482.55 156.598 1482.55 Q160.232 1482.55 162.038 1479.01 Q163.867 1475.44 163.867 1468.33 Q163.867 1461.2 162.038 1457.66 Q160.232 1454.1 156.598 1454.1 M156.598 1450.39 Q162.408 1450.39 165.464 1455 Q168.543 1459.58 168.543 1468.33 Q168.543 1477.06 165.464 1481.67 Q162.408 1486.25 156.598 1486.25 Q150.788 1486.25 147.709 1481.67 Q144.654 1477.06 144.654 1468.33 Q144.654 1459.58 147.709 1455 Q150.788 1450.39 156.598 1450.39 Z" fill="#000000" fill-rule="nonzero" fill-opacity="1" /><path clip-path="url(#clip750)" d="M590.483 1481.64 L606.802 1481.64 L606.802 1485.58 L584.858 1485.58 L584.858 1481.64 Q587.52 1478.89 592.103 1474.26 Q596.709 1469.61 597.89 1468.27 Q600.135 1465.74 601.015 1464.01 Q601.918 1462.25 601.918 1460.56 Q601.918 1457.8 599.973 1456.07 Q598.052 1454.33 594.95 1454.33 Q592.751 1454.33 590.297 1455.09 Q587.867 1455.86 585.089 1457.41 L585.089 1452.69 Q587.913 1451.55 590.367 1450.97 Q592.821 1450.39 594.858 1450.39 Q600.228 1450.39 603.422 1453.08 Q606.617 1455.77 606.617 1460.26 Q606.617 1462.39 605.807 1464.31 Q605.02 1466.2 602.913 1468.8 Q602.334 1469.47 599.233 1472.69 Q596.131 1475.88 590.483 1481.64 Z" fill="#000000" fill-rule="nonzero" fill-opacity="1" /><path clip-path="url(#clip750)" d="M1038.07 1455.09 L1026.27 1473.54 L1038.07 1473.54 L1038.07 1455.09 M1036.84 1451.02 L1042.72 1451.02 L1042.72 1473.54 L1047.65 1473.54 L1047.65 1477.43 L1042.72 1477.43 L1042.72 1485.58 L1038.07 1485.58 L1038.07 1477.43 L1022.47 1477.43 L1022.47 1472.92 L1036.84 1451.02 Z" fill="#000000" fill-rule="nonzero" fill-opacity="1" /><path clip-path="url(#clip750)" d="M1474.7 1466.44 Q1471.55 1466.44 1469.7 1468.59 Q1467.87 1470.74 1467.87 1474.49 Q1467.87 1478.22 1469.7 1480.39 Q1471.55 1482.55 1474.7 1482.55 Q1477.85 1482.55 1479.67 1480.39 Q1481.53 1478.22 1481.53 1474.49 Q1481.53 1470.74 1479.67 1468.59 Q1477.85 1466.44 1474.7 1466.44 M1483.98 1451.78 L1483.98 1456.04 Q1482.22 1455.21 1480.42 1454.77 Q1478.63 1454.33 1476.87 1454.33 Q1472.24 1454.33 1469.79 1457.45 Q1467.36 1460.58 1467.01 1466.9 Q1468.38 1464.89 1470.44 1463.82 Q1472.5 1462.73 1474.98 1462.73 Q1480.18 1462.73 1483.19 1465.9 Q1486.23 1469.05 1486.23 1474.49 Q1486.23 1479.82 1483.08 1483.03 Q1479.93 1486.25 1474.7 1486.25 Q1468.7 1486.25 1465.53 1481.67 Q1462.36 1477.06 1462.36 1468.33 Q1462.36 1460.14 1466.25 1455.28 Q1470.14 1450.39 1476.69 1450.39 Q1478.45 1450.39 1480.23 1450.74 Q1482.04 1451.09 1483.98 1451.78 Z" fill="#000000" fill-rule="nonzero" fill-opacity="1" /><path clip-path="url(#clip750)" d="M1913.52 1469.17 Q1910.19 1469.17 1908.27 1470.95 Q1906.37 1472.73 1906.37 1475.86 Q1906.37 1478.98 1908.27 1480.77 Q1910.19 1482.55 1913.52 1482.55 Q1916.86 1482.55 1918.78 1480.77 Q1920.7 1478.96 1920.7 1475.86 Q1920.7 1472.73 1918.78 1470.95 Q1916.88 1469.17 1913.52 1469.17 M1908.85 1467.18 Q1905.84 1466.44 1904.15 1464.38 Q1902.48 1462.32 1902.48 1459.35 Q1902.48 1455.21 1905.42 1452.8 Q1908.39 1450.39 1913.52 1450.39 Q1918.69 1450.39 1921.63 1452.8 Q1924.57 1455.21 1924.57 1459.35 Q1924.57 1462.32 1922.88 1464.38 Q1921.21 1466.44 1918.22 1467.18 Q1921.6 1467.96 1923.48 1470.26 Q1925.38 1472.55 1925.38 1475.86 Q1925.38 1480.88 1922.3 1483.57 Q1919.24 1486.25 1913.52 1486.25 Q1907.81 1486.25 1904.73 1483.57 Q1901.67 1480.88 1901.67 1475.86 Q1901.67 1472.55 1903.57 1470.26 Q1905.47 1467.96 1908.85 1467.18 M1907.14 1459.79 Q1907.14 1462.48 1908.8 1463.98 Q1910.49 1465.49 1913.52 1465.49 Q1916.53 1465.49 1918.22 1463.98 Q1919.94 1462.48 1919.94 1459.79 Q1919.94 1457.11 1918.22 1455.6 Q1916.53 1454.1 1913.52 1454.1 Q1910.49 1454.1 1908.8 1455.6 Q1907.14 1457.11 1907.14 1459.79 Z" fill="#000000" fill-rule="nonzero" fill-opacity="1" /><path clip-path="url(#clip750)" d="M2327.44 1481.64 L2335.08 1481.64 L2335.08 1455.28 L2326.77 1456.95 L2326.77 1452.69 L2335.04 1451.02 L2339.71 1451.02 L2339.71 1481.64 L2347.35 1481.64 L2347.35 1485.58 L2327.44 1485.58 L2327.44 1481.64 Z" fill="#000000" fill-rule="nonzero" fill-opacity="1" /><path clip-path="url(#clip750)" d="M2366.8 1454.1 Q2363.18 1454.1 2361.36 1457.66 Q2359.55 1461.2 2359.55 1468.33 Q2359.55 1475.44 2361.36 1479.01 Q2363.18 1482.55 2366.8 1482.55 Q2370.43 1482.55 2372.23 1479.01 Q2374.06 1475.44 2374.06 1468.33 Q2374.06 1461.2 2372.23 1457.66 Q2370.43 1454.1 2366.8 1454.1 M2366.8 1450.39 Q2372.61 1450.39 2375.66 1455 Q2378.74 1459.58 2378.74 1468.33 Q2378.74 1477.06 2375.66 1481.67 Q2372.61 1486.25 2366.8 1486.25 Q2360.99 1486.25 2357.91 1481.67 Q2354.85 1477.06 2354.85 1468.33 Q2354.85 1459.58 2357.91 1455 Q2360.99 1450.39 2366.8 1450.39 Z" fill="#000000" fill-rule="nonzero" fill-opacity="1" /><path clip-path="url(#clip750)" d="M1253.74 1522.27 L1253.74 1532.4 L1265.8 1532.4 L1265.8 1536.95 L1253.74 1536.95 L1253.74 1556.3 Q1253.74 1560.66 1254.92 1561.9 Q1256.13 1563.14 1259.79 1563.14 L1265.8 1563.14 L1265.8 1568.04 L1259.79 1568.04 Q1253.01 1568.04 1250.43 1565.53 Q1247.85 1562.98 1247.85 1556.3 L1247.85 1536.95 L1243.55 1536.95 L1243.55 1532.4 L1247.85 1532.4 L1247.85 1522.27 L1253.74 1522.27 Z" fill="#000000" fill-rule="nonzero" fill-opacity="1" /><polyline clip-path="url(#clip750)" style="stroke:#000000; stroke-linecap:round; stroke-linejoin:round; stroke-width:4; stroke-opacity:1; fill:none" points="156.598,1423.18 156.598,47.2441 "/>
<polyline clip-path="url(#clip750)" style="stroke:#000000; stroke-linecap:round; stroke-linejoin:round; stroke-width:4; stroke-opacity:1; fill:none" points="156.598,1351.3 175.496,1351.3 "/>
<polyline clip-path="url(#clip750)" style="stroke:#000000; stroke-linecap:round; stroke-linejoin:round; stroke-width:4; stroke-opacity:1; fill:none" points="156.598,1056.95 175.496,1056.95 "/>
<polyline clip-path="url(#clip750)" style="stroke:#000000; stroke-linecap:round; stroke-linejoin:round; stroke-width:4; stroke-opacity:1; fill:none" points="156.598,762.598 175.496,762.598 "/>
<polyline clip-path="url(#clip750)" style="stroke:#000000; stroke-linecap:round; stroke-linejoin:round; stroke-width:4; stroke-opacity:1; fill:none" points="156.598,468.246 175.496,468.246 "/>
<polyline clip-path="url(#clip750)" style="stroke:#000000; stroke-linecap:round; stroke-linejoin:round; stroke-width:4; stroke-opacity:1; fill:none" points="156.598,173.893 175.496,173.893 "/>
<path clip-path="url(#clip750)" d="M63.4226 1337.1 Q59.8115 1337.1 57.9828 1340.67 Q56.1773 1344.21 56.1773 1351.34 Q56.1773 1358.44 57.9828 1362.01 Q59.8115 1365.55 63.4226 1365.55 Q67.0569 1365.55 68.8624 1362.01 Q70.6911 1358.44 70.6911 1351.34 Q70.6911 1344.21 68.8624 1340.67 Q67.0569 1337.1 63.4226 1337.1 M63.4226 1333.4 Q69.2328 1333.4 72.2883 1338 Q75.367 1342.59 75.367 1351.34 Q75.367 1360.06 72.2883 1364.67 Q69.2328 1369.25 63.4226 1369.25 Q57.6125 1369.25 54.5338 1364.67 Q51.4782 1360.06 51.4782 1351.34 Q51.4782 1342.59 54.5338 1338 Q57.6125 1333.4 63.4226 1333.4 Z" fill="#000000" fill-rule="nonzero" fill-opacity="1" /><path clip-path="url(#clip750)" d="M83.5845 1362.7 L88.4688 1362.7 L88.4688 1368.58 L83.5845 1368.58 L83.5845 1362.7 Z" fill="#000000" fill-rule="nonzero" fill-opacity="1" /><path clip-path="url(#clip750)" d="M108.654 1337.1 Q105.043 1337.1 103.214 1340.67 Q101.409 1344.21 101.409 1351.34 Q101.409 1358.44 103.214 1362.01 Q105.043 1365.55 108.654 1365.55 Q112.288 1365.55 114.094 1362.01 Q115.922 1358.44 115.922 1351.34 Q115.922 1344.21 114.094 1340.67 Q112.288 1337.1 108.654 1337.1 M108.654 1333.4 Q114.464 1333.4 117.52 1338 Q120.598 1342.59 120.598 1351.34 Q120.598 1360.06 117.52 1364.67 Q114.464 1369.25 108.654 1369.25 Q102.844 1369.25 99.765 1364.67 Q96.7095 1360.06 96.7095 1351.34 Q96.7095 1342.59 99.765 1338 Q102.844 1333.4 108.654 1333.4 Z" fill="#000000" fill-rule="nonzero" fill-opacity="1" /><path clip-path="url(#clip750)" d="M64.6495 1042.75 Q61.0384 1042.75 59.2097 1046.31 Q57.4041 1049.86 57.4041 1056.99 Q57.4041 1064.09 59.2097 1067.66 Q61.0384 1071.2 64.6495 1071.2 Q68.2837 1071.2 70.0892 1067.66 Q71.9179 1064.09 71.9179 1056.99 Q71.9179 1049.86 70.0892 1046.31 Q68.2837 1042.75 64.6495 1042.75 M64.6495 1039.05 Q70.4596 1039.05 73.5152 1043.65 Q76.5938 1048.24 76.5938 1056.99 Q76.5938 1065.71 73.5152 1070.32 Q70.4596 1074.9 64.6495 1074.9 Q58.8393 1074.9 55.7606 1070.32 Q52.7051 1065.71 52.7051 1056.99 Q52.7051 1048.24 55.7606 1043.65 Q58.8393 1039.05 64.6495 1039.05 Z" fill="#000000" fill-rule="nonzero" fill-opacity="1" /><path clip-path="url(#clip750)" d="M84.8114 1068.35 L89.6956 1068.35 L89.6956 1074.23 L84.8114 1074.23 L84.8114 1068.35 Z" fill="#000000" fill-rule="nonzero" fill-opacity="1" /><path clip-path="url(#clip750)" d="M100.691 1070.3 L108.33 1070.3 L108.33 1043.93 L100.02 1045.6 L100.02 1041.34 L108.283 1039.67 L112.959 1039.67 L112.959 1070.3 L120.598 1070.3 L120.598 1074.23 L100.691 1074.23 L100.691 1070.3 Z" fill="#000000" fill-rule="nonzero" fill-opacity="1" /><path clip-path="url(#clip750)" d="M65.0198 748.397 Q61.4087 748.397 59.58 751.961 Q57.7745 755.503 57.7745 762.633 Q57.7745 769.739 59.58 773.304 Q61.4087 776.846 65.0198 776.846 Q68.6541 776.846 70.4596 773.304 Q72.2883 769.739 72.2883 762.633 Q72.2883 755.503 70.4596 751.961 Q68.6541 748.397 65.0198 748.397 M65.0198 744.693 Q70.83 744.693 73.8855 749.299 Q76.9642 753.883 76.9642 762.633 Q76.9642 771.36 73.8855 775.966 Q70.83 780.549 65.0198 780.549 Q59.2097 780.549 56.131 775.966 Q53.0754 771.36 53.0754 762.633 Q53.0754 753.883 56.131 749.299 Q59.2097 744.693 65.0198 744.693 Z" fill="#000000" fill-rule="nonzero" fill-opacity="1" /><path clip-path="url(#clip750)" d="M85.1818 773.998 L90.066 773.998 L90.066 779.878 L85.1818 779.878 L85.1818 773.998 Z" fill="#000000" fill-rule="nonzero" fill-opacity="1" /><path clip-path="url(#clip750)" d="M104.279 775.943 L120.598 775.943 L120.598 779.878 L98.6539 779.878 L98.6539 775.943 Q101.316 773.188 105.899 768.559 Q110.506 763.906 111.686 762.563 Q113.932 760.04 114.811 758.304 Q115.714 756.545 115.714 754.855 Q115.714 752.1 113.77 750.364 Q111.848 748.628 108.746 748.628 Q106.547 748.628 104.094 749.392 Q101.663 750.156 98.8854 751.707 L98.8854 746.985 Q101.709 745.85 104.163 745.272 Q106.617 744.693 108.654 744.693 Q114.024 744.693 117.219 747.378 Q120.413 750.063 120.413 754.554 Q120.413 756.684 119.603 758.605 Q118.816 760.503 116.709 763.096 Q116.131 763.767 113.029 766.985 Q109.927 770.179 104.279 775.943 Z" fill="#000000" fill-rule="nonzero" fill-opacity="1" /><path clip-path="url(#clip750)" d="M64.0708 454.044 Q60.4597 454.044 58.631 457.609 Q56.8254 461.151 56.8254 468.28 Q56.8254 475.387 58.631 478.952 Q60.4597 482.493 64.0708 482.493 Q67.705 482.493 69.5105 478.952 Q71.3392 475.387 71.3392 468.28 Q71.3392 461.151 69.5105 457.609 Q67.705 454.044 64.0708 454.044 M64.0708 450.341 Q69.8809 450.341 72.9365 454.947 Q76.0151 459.53 76.0151 468.28 Q76.0151 477.007 72.9365 481.614 Q69.8809 486.197 64.0708 486.197 Q58.2606 486.197 55.1819 481.614 Q52.1264 477.007 52.1264 468.28 Q52.1264 459.53 55.1819 454.947 Q58.2606 450.341 64.0708 450.341 Z" fill="#000000" fill-rule="nonzero" fill-opacity="1" /><path clip-path="url(#clip750)" d="M84.2327 479.646 L89.1169 479.646 L89.1169 485.526 L84.2327 485.526 L84.2327 479.646 Z" fill="#000000" fill-rule="nonzero" fill-opacity="1" /><path clip-path="url(#clip750)" d="M113.469 466.891 Q116.825 467.609 118.7 469.878 Q120.598 472.146 120.598 475.479 Q120.598 480.595 117.08 483.396 Q113.561 486.197 107.08 486.197 Q104.904 486.197 102.589 485.757 Q100.297 485.34 97.8437 484.484 L97.8437 479.97 Q99.7882 481.104 102.103 481.683 Q104.418 482.262 106.941 482.262 Q111.339 482.262 113.631 480.526 Q115.945 478.79 115.945 475.479 Q115.945 472.424 113.793 470.711 Q111.663 468.975 107.844 468.975 L103.816 468.975 L103.816 465.132 L108.029 465.132 Q111.478 465.132 113.307 463.766 Q115.135 462.378 115.135 459.785 Q115.135 457.123 113.237 455.711 Q111.362 454.276 107.844 454.276 Q105.922 454.276 103.723 454.692 Q101.524 455.109 98.8854 455.989 L98.8854 451.822 Q101.547 451.081 103.862 450.711 Q106.2 450.341 108.26 450.341 Q113.584 450.341 116.686 452.771 Q119.788 455.179 119.788 459.299 Q119.788 462.169 118.145 464.16 Q116.501 466.128 113.469 466.891 Z" fill="#000000" fill-rule="nonzero" fill-opacity="1" /><path clip-path="url(#clip750)" d="M62.9365 159.692 Q59.3254 159.692 57.4967 163.257 Q55.6912 166.798 55.6912 173.928 Q55.6912 181.034 57.4967 184.599 Q59.3254 188.141 62.9365 188.141 Q66.5707 188.141 68.3763 184.599 Q70.205 181.034 70.205 173.928 Q70.205 166.798 68.3763 163.257 Q66.5707 159.692 62.9365 159.692 M62.9365 155.988 Q68.7467 155.988 71.8022 160.595 Q74.8809 165.178 74.8809 173.928 Q74.8809 182.655 71.8022 187.261 Q68.7467 191.845 62.9365 191.845 Q57.1264 191.845 54.0477 187.261 Q50.9921 182.655 50.9921 173.928 Q50.9921 165.178 54.0477 160.595 Q57.1264 155.988 62.9365 155.988 Z" fill="#000000" fill-rule="nonzero" fill-opacity="1" /><path clip-path="url(#clip750)" d="M83.0984 185.294 L87.9827 185.294 L87.9827 191.173 L83.0984 191.173 L83.0984 185.294 Z" fill="#000000" fill-rule="nonzero" fill-opacity="1" /><path clip-path="url(#clip750)" d="M111.015 160.687 L99.2095 179.136 L111.015 179.136 L111.015 160.687 M109.788 156.613 L115.668 156.613 L115.668 179.136 L120.598 179.136 L120.598 183.025 L115.668 183.025 L115.668 191.173 L111.015 191.173 L111.015 183.025 L95.4132 183.025 L95.4132 178.511 L109.788 156.613 Z" fill="#000000" fill-rule="nonzero" fill-opacity="1" /><polyline clip-path="url(#clip751)" style="stroke:#009af9; stroke-linecap:round; stroke-linejoin:round; stroke-width:4; stroke-opacity:1; fill:none" points="156.598,1056.95 376.214,1071.67 595.83,887.366 815.446,919.742 1035.06,959.74 1254.68,631.721 1474.29,711.873 1693.91,315.482 1913.52,86.1857 2133.14,98.3008 2352.76,365.152 "/>
<polyline clip-path="url(#clip751)" style="stroke:#e26f46; stroke-linecap:round; stroke-linejoin:round; stroke-width:4; stroke-opacity:1; fill:none" points="156.598,1351.3 376.214,1319.32 595.83,1352.78 815.446,1354.27 1035.06,1295.24 1254.68,1358.43 1474.29,1282.21 1693.91,1305.97 1913.52,1343.05 2133.14,1384.24 2352.76,1346.33 "/>
<path clip-path="url(#clip750)" d="M229.803 248.629 L472.614 248.629 L472.614 93.1086 L229.803 93.1086  Z" fill="#ffffff" fill-rule="evenodd" fill-opacity="1"/>
<polyline clip-path="url(#clip750)" style="stroke:#000000; stroke-linecap:round; stroke-linejoin:round; stroke-width:4; stroke-opacity:1; fill:none" points="229.803,248.629 472.614,248.629 472.614,93.1086 229.803,93.1086 229.803,248.629 "/>
<polyline clip-path="url(#clip750)" style="stroke:#009af9; stroke-linecap:round; stroke-linejoin:round; stroke-width:4; stroke-opacity:1; fill:none" points="254.205,144.949 400.616,144.949 "/>
<path clip-path="url(#clip750)" d="M438.42 149.196 Q433.258 149.196 431.267 150.377 Q429.277 151.557 429.277 154.405 Q429.277 156.673 430.758 158.016 Q432.263 159.335 434.832 159.335 Q438.374 159.335 440.504 156.835 Q442.656 154.312 442.656 150.145 L442.656 149.196 L438.42 149.196 M446.916 147.437 L446.916 162.229 L442.656 162.229 L442.656 158.293 Q441.198 160.655 439.022 161.789 Q436.846 162.9 433.698 162.9 Q429.717 162.9 427.355 160.678 Q425.018 158.432 425.018 154.682 Q425.018 150.307 427.934 148.085 Q430.874 145.863 436.684 145.863 L442.656 145.863 L442.656 145.446 Q442.656 142.507 440.712 140.909 Q438.791 139.289 435.295 139.289 Q433.073 139.289 430.967 139.821 Q428.86 140.354 426.916 141.419 L426.916 137.483 Q429.254 136.581 431.453 136.141 Q433.652 135.678 435.735 135.678 Q441.36 135.678 444.138 138.594 Q446.916 141.511 446.916 147.437 Z" fill="#000000" fill-rule="nonzero" fill-opacity="1" /><polyline clip-path="url(#clip750)" style="stroke:#e26f46; stroke-linecap:round; stroke-linejoin:round; stroke-width:4; stroke-opacity:1; fill:none" points="254.205,196.789 400.616,196.789 "/>
<path clip-path="url(#clip750)" d="M443.791 201.129 Q443.791 196.43 441.846 193.768 Q439.925 191.083 436.545 191.083 Q433.166 191.083 431.221 193.768 Q429.3 196.43 429.3 201.129 Q429.3 205.828 431.221 208.513 Q433.166 211.175 436.545 211.175 Q439.925 211.175 441.846 208.513 Q443.791 205.828 443.791 201.129 M429.3 192.078 Q430.642 189.763 432.68 188.652 Q434.74 187.518 437.587 187.518 Q442.309 187.518 445.249 191.268 Q448.212 195.018 448.212 201.129 Q448.212 207.24 445.249 210.99 Q442.309 214.74 437.587 214.74 Q434.74 214.74 432.68 213.629 Q430.642 212.495 429.3 210.18 L429.3 214.069 L425.018 214.069 L425.018 178.05 L429.3 178.05 L429.3 192.078 Z" fill="#000000" fill-rule="nonzero" fill-opacity="1" /></svg>
