<?xml version="1.0" encoding="utf-8"?>
<svg xmlns="http://www.w3.org/2000/svg" xmlns:xlink="http://www.w3.org/1999/xlink" width="600" height="400" viewBox="0 0 2400 1600">
<defs>
  <clipPath id="clip840">
    <rect x="0" y="0" width="2400" height="1600"/>
  </clipPath>
</defs>
<path clip-path="url(#clip840)" d="M0 1600 L2400 1600 L2400 0 L0 0  Z" fill="#ffffff" fill-rule="evenodd" fill-opacity="1"/>
<defs>
  <clipPath id="clip841">
    <rect x="186" y="47" width="2167" height="1377"/>
  </clipPath>
</defs>
<path clip-path="url(#clip840)" d="M186.436 1423.18 L2352.76 1423.18 L2352.76 47.2441 L186.436 47.2441  Z" fill="#ffffff" fill-rule="evenodd" fill-opacity="1"/>
<polyline clip-path="url(#clip841)" style="stroke:#000000; stroke-linecap:round; stroke-linejoin:round; stroke-width:2; stroke-opacity:0.1; fill:none" points="186.436,1423.18 186.436,47.2441 "/>
<polyline clip-path="url(#clip841)" style="stroke:#000000; stroke-linecap:round; stroke-linejoin:round; stroke-width:2; stroke-opacity:0.1; fill:none" points="619.7,1423.18 619.7,47.2441 "/>
<polyline clip-path="url(#clip841)" style="stroke:#000000; stroke-linecap:round; stroke-linejoin:round; stroke-width:2; stroke-opacity:0.1; fill:none" points="1052.96,1423.18 1052.96,47.2441 "/>
<polyline clip-path="url(#clip841)" style="stroke:#000000; stroke-linecap:round; stroke-linejoin:round; stroke-width:2; stroke-opacity:0.1; fill:none" points="1486.23,1423.18 1486.23,47.2441 "/>
<polyline clip-path="url(#clip841)" style="stroke:#000000; stroke-linecap:round; stroke-linejoin:round; stroke-width:2; stroke-opacity:0.1; fill:none" points="1919.49,1423.18 1919.49,47.2441 "/>
<polyline clip-path="url(#clip841)" style="stroke:#000000; stroke-linecap:round; stroke-linejoin:round; stroke-width:2; stroke-opacity:0.1; fill:none" points="2352.76,1423.18 2352.76,47.2441 "/>
<polyline clip-path="url(#clip841)" style="stroke:#000000; stroke-linecap:round; stroke-linejoin:round; stroke-width:2; stroke-opacity:0.1; fill:none" points="186.436,1217.38 2352.76,1217.38 "/>
<polyline clip-path="url(#clip841)" style="stroke:#000000; stroke-linecap:round; stroke-linejoin:round; stroke-width:2; stroke-opacity:0.1; fill:none" points="186.436,975.935 2352.76,975.935 "/>
<polyline clip-path="url(#clip841)" style="stroke:#000000; stroke-linecap:round; stroke-linejoin:round; stroke-width:2; stroke-opacity:0.1; fill:none" points="186.436,734.487 2352.76,734.487 "/>
<polyline clip-path="url(#clip841)" style="stroke:#000000; stroke-linecap:round; stroke-linejoin:round; stroke-width:2; stroke-opacity:0.1; fill:none" points="186.436,493.039 2352.76,493.039 "/>
<polyline clip-path="url(#clip841)" style="stroke:#000000; stroke-linecap:round; stroke-linejoin:round; stroke-width:2; stroke-opacity:0.1; fill:none" points="186.436,251.591 2352.76,251.591 "/>
<polyline clip-path="url(#clip840)" style="stroke:#000000; stroke-linecap:round; stroke-linejoin:round; stroke-width:4; stroke-opacity:1; fill:none" points="186.436,1423.18 2352.76,1423.18 "/>
<polyline clip-path="url(#clip840)" style="stroke:#000000; stroke-linecap:round; stroke-linejoin:round; stroke-width:4; stroke-opacity:1; fill:none" points="186.436,1423.18 186.436,1404.28 "/>
<polyline clip-path="url(#clip840)" style="stroke:#000000; stroke-linecap:round; stroke-linejoin:round; stroke-width:4; stroke-opacity:1; fill:none" points="619.7,1423.18 619.7,1404.28 "/>
<polyline clip-path="url(#clip840)" style="stroke:#000000; stroke-linecap:round; stroke-linejoin:round; stroke-width:4; stroke-opacity:1; fill:none" points="1052.96,1423.18 1052.96,1404.28 "/>
<polyline clip-path="url(#clip840)" style="stroke:#000000; stroke-linecap:round; stroke-linejoin:round; stroke-width:4; stroke-opacity:1; fill:none" points="1486.23,1423.18 1486.23,1404.28 "/>
<polyline clip-path="url(#clip840)" style="stroke:#000000; stroke-linecap:round; stroke-linejoin:round; stroke-width:4; stroke-opacity:1; fill:none" points="1919.49,1423.18 1919.49,1404.28 "/>
<polyline clip-path="url(#clip840)" style="stroke:#000000; stroke-linecap:round; stroke-linejoin:round; stroke-width:4; stroke-opacity:1; fill:none" points="2352.76,1423.18 2352.76,1404.28 "/>
<path clip-path="url(#clip840)" d="M186.436 1454.1 Q182.825 1454.1 180.996 1457.66 Q179.191 1461.2 179.191 1468.33 Q179.191 1475.44 180.996 1479.01 Q182.825 1482.55 186.436 1482.55 Q190.07 1482.55 191.876 1479.01 Q193.705 1475.44 193.705 1468.33 Q193.705 1461.2 191.876 1457.66 Q190.07 1454.1 186.436 1454.1 M186.436 1450.39 Q192.246 1450.39 195.302 1455 Q198.38 1459.58 198.38 1468.33 Q198.38 1477.06 195.302 1481.67 Q192.246 1486.25 186.436 1486.25 Q180.626 1486.25 177.547 1481.67 Q174.492 1477.06 174.492 1468.33 Q174.492 1459.58 177.547 1455 Q180.626 1450.39 186.436 1450.39 Z" fill="#000000" fill-rule="nonzero" fill-opacity="1" /><path clip-path="url(#clip840)" d="M614.353 1481.64 L630.672 1481.64 L630.672 1485.58 L608.728 1485.58 L608.728 1481.64 Q611.39 1478.89 615.973 1474.26 Q620.58 1469.61 621.76 1468.27 Q624.006 1465.74 624.885 1464.01 Q625.788 1462.25 625.788 1460.56 Q625.788 1457.8 623.844 1456.07 Q621.922 1454.33 618.82 1454.33 Q616.621 1454.33 614.168 1455.09 Q611.737 1455.86 608.959 1457.41 L608.959 1452.69 Q611.783 1451.55 614.237 1450.97 Q616.691 1450.39 618.728 1450.39 Q624.098 1450.39 627.293 1453.08 Q630.487 1455.77 630.487 1460.26 Q630.487 1462.39 629.677 1464.31 Q628.89 1466.2 626.783 1468.8 Q626.205 1469.47 623.103 1472.69 Q620.001 1475.88 614.353 1481.64 Z" fill="#000000" fill-rule="nonzero" fill-opacity="1" /><path clip-path="url(#clip840)" d="M1055.97 1455.09 L1044.17 1473.54 L1055.97 1473.54 L1055.97 1455.09 M1054.75 1451.02 L1060.63 1451.02 L1060.63 1473.54 L1065.56 1473.54 L1065.56 1477.43 L1060.63 1477.43 L1060.63 1485.58 L1055.97 1485.58 L1055.97 1477.43 L1040.37 1477.43 L1040.37 1472.92 L1054.75 1451.02 Z" fill="#000000" fill-rule="nonzero" fill-opacity="1" /><path clip-path="url(#clip840)" d="M1486.63 1466.44 Q1483.48 1466.44 1481.63 1468.59 Q1479.8 1470.74 1479.8 1474.49 Q1479.8 1478.22 1481.63 1480.39 Q1483.48 1482.55 1486.63 1482.55 Q1489.78 1482.55 1491.61 1480.39 Q1493.46 1478.22 1493.46 1474.49 Q1493.46 1470.74 1491.61 1468.59 Q1489.78 1466.44 1486.63 1466.44 M1495.92 1451.78 L1495.92 1456.04 Q1494.16 1455.21 1492.35 1454.77 Q1490.57 1454.33 1488.81 1454.33 Q1484.18 1454.33 1481.73 1457.45 Q1479.3 1460.58 1478.95 1466.9 Q1480.31 1464.89 1482.37 1463.82 Q1484.43 1462.73 1486.91 1462.73 Q1492.12 1462.73 1495.13 1465.9 Q1498.16 1469.05 1498.16 1474.49 Q1498.16 1479.82 1495.01 1483.03 Q1491.86 1486.25 1486.63 1486.25 Q1480.64 1486.25 1477.47 1481.67 Q1474.3 1477.06 1474.3 1468.33 Q1474.3 1460.14 1478.18 1455.28 Q1482.07 1450.39 1488.62 1450.39 Q1490.38 1450.39 1492.17 1450.74 Q1493.97 1451.09 1495.92 1451.78 Z" fill="#000000" fill-rule="nonzero" fill-opacity="1" /><path clip-path="url(#clip840)" d="M1919.49 1469.17 Q1916.16 1469.17 1914.24 1470.95 Q1912.34 1472.73 1912.34 1475.86 Q1912.34 1478.98 1914.24 1480.77 Q1916.16 1482.55 1919.49 1482.55 Q1922.83 1482.55 1924.75 1480.77 Q1926.67 1478.96 1926.67 1475.86 Q1926.67 1472.73 1924.75 1470.95 Q1922.85 1469.17 1919.49 1469.17 M1914.82 1467.18 Q1911.81 1466.44 1910.12 1464.38 Q1908.45 1462.32 1908.45 1459.35 Q1908.45 1455.21 1911.39 1452.8 Q1914.35 1450.39 1919.49 1450.39 Q1924.65 1450.39 1927.59 1452.8 Q1930.53 1455.21 1930.53 1459.35 Q1930.53 1462.32 1928.84 1464.38 Q1927.18 1466.44 1924.19 1467.18 Q1927.57 1467.96 1929.45 1470.26 Q1931.34 1472.55 1931.34 1475.86 Q1931.34 1480.88 1928.27 1483.57 Q1925.21 1486.25 1919.49 1486.25 Q1913.77 1486.25 1910.7 1483.57 Q1907.64 1480.88 1907.64 1475.86 Q1907.64 1472.55 1909.54 1470.26 Q1911.44 1467.96 1914.82 1467.18 M1913.1 1459.79 Q1913.1 1462.48 1914.77 1463.98 Q1916.46 1465.49 1919.49 1465.49 Q1922.5 1465.49 1924.19 1463.98 Q1925.9 1462.48 1925.9 1459.79 Q1925.9 1457.11 1924.19 1455.6 Q1922.5 1454.1 1919.49 1454.1 Q1916.46 1454.1 1914.77 1455.6 Q1913.1 1457.11 1913.1 1459.79 Z" fill="#000000" fill-rule="nonzero" fill-opacity="1" /><path clip-path="url(#clip840)" d="M2327.44 1481.64 L2335.08 1481.64 L2335.08 1455.28 L2326.77 1456.95 L2326.77 1452.69 L2335.04 1451.02 L2339.71 1451.02 L2339.71 1481.64 L2347.35 1481.64 L2347.35 1485.58 L2327.44 1485.58 L2327.44 1481.64 Z" fill="#000000" fill-rule="nonzero" fill-opacity="1" /><path clip-path="url(#clip840)" d="M2366.8 1454.1 Q2363.18 1454.1 2361.36 1457.66 Q2359.55 1461.2 2359.55 1468.33 Q2359.55 1475.44 2361.36 1479.01 Q2363.18 1482.55 2366.8 1482.55 Q2370.43 1482.55 2372.23 1479.01 Q2374.06 1475.44 2374.06 1468.33 Q2374.06 1461.2 2372.23 1457.66 Q2370.43 1454.1 2366.8 1454.1 M2366.8 1450.39 Q2372.61 1450.39 2375.66 1455 Q2378.74 1459.58 2378.74 1468.33 Q2378.74 1477.06 2375.66 1481.67 Q2372.61 1486.25 2366.8 1486.25 Q2360.99 1486.25 2357.91 1481.67 Q2354.85 1477.06 2354.85 1468.33 Q2354.85 1459.58 2357.91 1455 Q2360.99 1450.39 2366.8 1450.39 Z" fill="#000000" fill-rule="nonzero" fill-opacity="1" /><path clip-path="url(#clip840)" d="M1268.66 1522.27 L1268.66 1532.4 L1280.72 1532.4 L1280.72 1536.95 L1268.66 1536.95 L1268.66 1556.3 Q1268.66 1560.66 1269.83 1561.9 Q1271.04 1563.14 1274.7 1563.14 L1280.72 1563.14 L1280.72 1568.04 L1274.7 1568.04 Q1267.92 1568.04 1265.35 1565.53 Q1262.77 1562.98 1262.77 1556.3 L1262.77 1536.95 L1258.47 1536.95 L1258.47 1532.4 L1262.77 1532.4 L1262.77 1522.27 L1268.66 1522.27 Z" fill="#000000" fill-rule="nonzero" fill-opacity="1" /><polyline clip-path="url(#clip840)" style="stroke:#000000; stroke-linecap:round; stroke-linejoin:round; stroke-width:4; stroke-opacity:1; fill:none" points="186.436,1423.18 186.436,47.2441 "/>
<polyline clip-path="url(#clip840)" style="stroke:#000000; stroke-linecap:round; stroke-linejoin:round; stroke-width:4; stroke-opacity:1; fill:none" points="186.436,1217.38 205.334,1217.38 "/>
<polyline clip-path="url(#clip840)" style="stroke:#000000; stroke-linecap:round; stroke-linejoin:round; stroke-width:4; stroke-opacity:1; fill:none" points="186.436,975.935 205.334,975.935 "/>
<polyline clip-path="url(#clip840)" style="stroke:#000000; stroke-linecap:round; stroke-linejoin:round; stroke-width:4; stroke-opacity:1; fill:none" points="186.436,734.487 205.334,734.487 "/>
<polyline clip-path="url(#clip840)" style="stroke:#000000; stroke-linecap:round; stroke-linejoin:round; stroke-width:4; stroke-opacity:1; fill:none" points="186.436,493.039 205.334,493.039 "/>
<polyline clip-path="url(#clip840)" style="stroke:#000000; stroke-linecap:round; stroke-linejoin:round; stroke-width:4; stroke-opacity:1; fill:none" points="186.436,251.591 205.334,251.591 "/>
<path clip-path="url(#clip840)" d="M63.0985 1203.18 Q59.4875 1203.18 57.6588 1206.75 Q55.8532 1210.29 55.8532 1217.42 Q55.8532 1224.52 57.6588 1228.09 Q59.4875 1231.63 63.0985 1231.63 Q66.7328 1231.63 68.5383 1228.09 Q70.367 1224.52 70.367 1217.42 Q70.367 1210.29 68.5383 1206.75 Q66.7328 1203.18 63.0985 1203.18 M63.0985 1199.48 Q68.9087 1199.48 71.9642 1204.08 Q75.0429 1208.67 75.0429 1217.42 Q75.0429 1226.14 71.9642 1230.75 Q68.9087 1235.33 63.0985 1235.33 Q57.2884 1235.33 54.2097 1230.75 Q51.1542 1226.14 51.1542 1217.42 Q51.1542 1208.67 54.2097 1204.08 Q57.2884 1199.48 63.0985 1199.48 Z" fill="#000000" fill-rule="nonzero" fill-opacity="1" /><path clip-path="url(#clip840)" d="M83.2605 1228.78 L88.1447 1228.78 L88.1447 1234.66 L83.2605 1234.66 L83.2605 1228.78 Z" fill="#000000" fill-rule="nonzero" fill-opacity="1" /><path clip-path="url(#clip840)" d="M108.33 1203.18 Q104.719 1203.18 102.89 1206.75 Q101.084 1210.29 101.084 1217.42 Q101.084 1224.52 102.89 1228.09 Q104.719 1231.63 108.33 1231.63 Q111.964 1231.63 113.77 1228.09 Q115.598 1224.52 115.598 1217.42 Q115.598 1210.29 113.77 1206.75 Q111.964 1203.18 108.33 1203.18 M108.33 1199.48 Q114.14 1199.48 117.195 1204.08 Q120.274 1208.67 120.274 1217.42 Q120.274 1226.14 117.195 1230.75 Q114.14 1235.33 108.33 1235.33 Q102.52 1235.33 99.4409 1230.75 Q96.3854 1226.14 96.3854 1217.42 Q96.3854 1208.67 99.4409 1204.08 Q102.52 1199.48 108.33 1199.48 Z" fill="#000000" fill-rule="nonzero" fill-opacity="1" /><path clip-path="url(#clip840)" d="M138.492 1203.18 Q134.881 1203.18 133.052 1206.75 Q131.246 1210.29 131.246 1217.42 Q131.246 1224.52 133.052 1228.09 Q134.881 1231.63 138.492 1231.63 Q142.126 1231.63 143.931 1228.09 Q145.76 1224.52 145.76 1217.42 Q145.76 1210.29 143.931 1206.75 Q142.126 1203.18 138.492 1203.18 M138.492 1199.48 Q144.302 1199.48 147.357 1204.08 Q150.436 1208.67 150.436 1217.42 Q150.436 1226.14 147.357 1230.75 Q144.302 1235.33 138.492 1235.33 Q132.682 1235.33 129.603 1230.75 Q126.547 1226.14 126.547 1217.42 Q126.547 1208.67 129.603 1204.08 Q132.682 1199.48 138.492 1199.48 Z" fill="#000000" fill-rule="nonzero" fill-opacity="1" /><path clip-path="url(#clip840)" d="M63.7467 961.734 Q60.1356 961.734 58.3069 965.298 Q56.5014 968.84 56.5014 975.97 Q56.5014 983.076 58.3069 986.641 Q60.1356 990.182 63.7467 990.182 Q67.3809 990.182 69.1865 986.641 Q71.0152 983.076 71.0152 975.97 Q71.0152 968.84 69.1865 965.298 Q67.3809 961.734 63.7467 961.734 M63.7467 958.03 Q69.5568 958.03 72.6124 962.636 Q75.6911 967.22 75.6911 975.97 Q75.6911 984.696 72.6124 989.303 Q69.5568 993.886 63.7467 993.886 Q57.9365 993.886 54.8578 989.303 Q51.8023 984.696 51.8023 975.97 Q51.8023 967.22 54.8578 962.636 Q57.9365 958.03 63.7467 958.03 Z" fill="#000000" fill-rule="nonzero" fill-opacity="1" /><path clip-path="url(#clip840)" d="M83.9086 987.335 L88.7928 987.335 L88.7928 993.215 L83.9086 993.215 L83.9086 987.335 Z" fill="#000000" fill-rule="nonzero" fill-opacity="1" /><path clip-path="url(#clip840)" d="M108.978 961.734 Q105.367 961.734 103.538 965.298 Q101.733 968.84 101.733 975.97 Q101.733 983.076 103.538 986.641 Q105.367 990.182 108.978 990.182 Q112.612 990.182 114.418 986.641 Q116.246 983.076 116.246 975.97 Q116.246 968.84 114.418 965.298 Q112.612 961.734 108.978 961.734 M108.978 958.03 Q114.788 958.03 117.844 962.636 Q120.922 967.22 120.922 975.97 Q120.922 984.696 117.844 989.303 Q114.788 993.886 108.978 993.886 Q103.168 993.886 100.089 989.303 Q97.0335 984.696 97.0335 975.97 Q97.0335 967.22 100.089 962.636 Q103.168 958.03 108.978 958.03 Z" fill="#000000" fill-rule="nonzero" fill-opacity="1" /><path clip-path="url(#clip840)" d="M143.306 974.581 Q146.663 975.298 148.538 977.567 Q150.436 979.835 150.436 983.169 Q150.436 988.284 146.918 991.085 Q143.399 993.886 136.918 993.886 Q134.742 993.886 132.427 993.446 Q130.135 993.03 127.682 992.173 L127.682 987.659 Q129.626 988.794 131.941 989.372 Q134.256 989.951 136.779 989.951 Q141.177 989.951 143.468 988.215 Q145.783 986.479 145.783 983.169 Q145.783 980.113 143.631 978.4 Q141.501 976.664 137.681 976.664 L133.654 976.664 L133.654 972.821 L137.867 972.821 Q141.316 972.821 143.144 971.456 Q144.973 970.067 144.973 967.474 Q144.973 964.812 143.075 963.4 Q141.2 961.965 137.681 961.965 Q135.76 961.965 133.561 962.382 Q131.362 962.798 128.723 963.678 L128.723 959.511 Q131.385 958.771 133.7 958.4 Q136.038 958.03 138.098 958.03 Q143.422 958.03 146.524 960.46 Q149.626 962.868 149.626 966.988 Q149.626 969.859 147.982 971.849 Q146.339 973.817 143.306 974.581 Z" fill="#000000" fill-rule="nonzero" fill-opacity="1" /><path clip-path="url(#clip840)" d="M62.9365 720.286 Q59.3254 720.286 57.4967 723.85 Q55.6912 727.392 55.6912 734.522 Q55.6912 741.628 57.4967 745.193 Q59.3254 748.735 62.9365 748.735 Q66.5707 748.735 68.3763 745.193 Q70.205 741.628 70.205 734.522 Q70.205 727.392 68.3763 723.85 Q66.5707 720.286 62.9365 720.286 M62.9365 716.582 Q68.7467 716.582 71.8022 721.188 Q74.8809 725.772 74.8809 734.522 Q74.8809 743.248 71.8022 747.855 Q68.7467 752.438 62.9365 752.438 Q57.1264 752.438 54.0477 747.855 Q50.9921 743.248 50.9921 734.522 Q50.9921 725.772 54.0477 721.188 Q57.1264 716.582 62.9365 716.582 Z" fill="#000000" fill-rule="nonzero" fill-opacity="1" /><path clip-path="url(#clip840)" d="M83.0984 745.887 L87.9827 745.887 L87.9827 751.767 L83.0984 751.767 L83.0984 745.887 Z" fill="#000000" fill-rule="nonzero" fill-opacity="1" /><path clip-path="url(#clip840)" d="M108.168 720.286 Q104.557 720.286 102.728 723.85 Q100.922 727.392 100.922 734.522 Q100.922 741.628 102.728 745.193 Q104.557 748.735 108.168 748.735 Q111.802 748.735 113.608 745.193 Q115.436 741.628 115.436 734.522 Q115.436 727.392 113.608 723.85 Q111.802 720.286 108.168 720.286 M108.168 716.582 Q113.978 716.582 117.033 721.188 Q120.112 725.772 120.112 734.522 Q120.112 743.248 117.033 747.855 Q113.978 752.438 108.168 752.438 Q102.358 752.438 99.2789 747.855 Q96.2234 743.248 96.2234 734.522 Q96.2234 725.772 99.2789 721.188 Q102.358 716.582 108.168 716.582 Z" fill="#000000" fill-rule="nonzero" fill-opacity="1" /><path clip-path="url(#clip840)" d="M138.908 732.624 Q135.76 732.624 133.908 734.776 Q132.08 736.929 132.08 740.679 Q132.08 744.406 133.908 746.582 Q135.76 748.735 138.908 748.735 Q142.056 748.735 143.885 746.582 Q145.737 744.406 145.737 740.679 Q145.737 736.929 143.885 734.776 Q142.056 732.624 138.908 732.624 M148.191 717.971 L148.191 722.23 Q146.431 721.397 144.626 720.957 Q142.843 720.517 141.084 720.517 Q136.455 720.517 134.001 723.642 Q131.57 726.767 131.223 733.086 Q132.589 731.073 134.649 730.008 Q136.709 728.92 139.186 728.92 Q144.394 728.92 147.404 732.091 Q150.436 735.239 150.436 740.679 Q150.436 746.003 147.288 749.221 Q144.14 752.438 138.908 752.438 Q132.913 752.438 129.742 747.855 Q126.57 743.248 126.57 734.522 Q126.57 726.327 130.459 721.466 Q134.348 716.582 140.899 716.582 Q142.658 716.582 144.441 716.929 Q146.246 717.276 148.191 717.971 Z" fill="#000000" fill-rule="nonzero" fill-opacity="1" /><path clip-path="url(#clip840)" d="M63.2837 478.838 Q59.6726 478.838 57.8439 482.402 Q56.0384 485.944 56.0384 493.074 Q56.0384 500.18 57.8439 503.745 Q59.6726 507.287 63.2837 507.287 Q66.918 507.287 68.7235 503.745 Q70.5522 500.18 70.5522 493.074 Q70.5522 485.944 68.7235 482.402 Q66.918 478.838 63.2837 478.838 M63.2837 475.134 Q69.0939 475.134 72.1494 479.74 Q75.2281 484.324 75.2281 493.074 Q75.2281 501.801 72.1494 506.407 Q69.0939 510.99 63.2837 510.99 Q57.4736 510.99 54.3949 506.407 Q51.3393 501.801 51.3393 493.074 Q51.3393 484.324 54.3949 479.74 Q57.4736 475.134 63.2837 475.134 Z" fill="#000000" fill-rule="nonzero" fill-opacity="1" /><path clip-path="url(#clip840)" d="M83.4457 504.439 L88.3299 504.439 L88.3299 510.319 L83.4457 510.319 L83.4457 504.439 Z" fill="#000000" fill-rule="nonzero" fill-opacity="1" /><path clip-path="url(#clip840)" d="M108.515 478.838 Q104.904 478.838 103.075 482.402 Q101.27 485.944 101.27 493.074 Q101.27 500.18 103.075 503.745 Q104.904 507.287 108.515 507.287 Q112.149 507.287 113.955 503.745 Q115.783 500.18 115.783 493.074 Q115.783 485.944 113.955 482.402 Q112.149 478.838 108.515 478.838 M108.515 475.134 Q114.325 475.134 117.381 479.74 Q120.459 484.324 120.459 493.074 Q120.459 501.801 117.381 506.407 Q114.325 510.99 108.515 510.99 Q102.705 510.99 99.6261 506.407 Q96.5706 501.801 96.5706 493.074 Q96.5706 484.324 99.6261 479.74 Q102.705 475.134 108.515 475.134 Z" fill="#000000" fill-rule="nonzero" fill-opacity="1" /><path clip-path="url(#clip840)" d="M128.816 509.601 L128.816 505.342 Q130.575 506.176 132.381 506.615 Q134.186 507.055 135.922 507.055 Q140.552 507.055 142.982 503.953 Q145.436 500.828 145.783 494.486 Q144.441 496.476 142.381 497.541 Q140.32 498.606 137.82 498.606 Q132.635 498.606 129.603 495.481 Q126.594 492.333 126.594 486.893 Q126.594 481.569 129.742 478.352 Q132.89 475.134 138.121 475.134 Q144.117 475.134 147.265 479.74 Q150.436 484.324 150.436 493.074 Q150.436 501.245 146.547 506.129 Q142.681 510.99 136.131 510.99 Q134.371 510.99 132.566 510.643 Q130.76 510.296 128.816 509.601 M138.121 494.949 Q141.269 494.949 143.098 492.796 Q144.95 490.643 144.95 486.893 Q144.95 483.166 143.098 481.014 Q141.269 478.838 138.121 478.838 Q134.973 478.838 133.121 481.014 Q131.293 483.166 131.293 486.893 Q131.293 490.643 133.121 492.796 Q134.973 494.949 138.121 494.949 Z" fill="#000000" fill-rule="nonzero" fill-opacity="1" /><path clip-path="url(#clip840)" d="M64.6958 237.39 Q61.0847 237.39 59.256 240.955 Q57.4504 244.496 57.4504 251.626 Q57.4504 258.732 59.256 262.297 Q61.0847 265.839 64.6958 265.839 Q68.33 265.839 70.1355 262.297 Q71.9642 258.732 71.9642 251.626 Q71.9642 244.496 70.1355 240.955 Q68.33 237.39 64.6958 237.39 M64.6958 233.686 Q70.5059 233.686 73.5614 238.293 Q76.6401 242.876 76.6401 251.626 Q76.6401 260.353 73.5614 264.959 Q70.5059 269.542 64.6958 269.542 Q58.8856 269.542 55.8069 264.959 Q52.7514 260.353 52.7514 251.626 Q52.7514 242.876 55.8069 238.293 Q58.8856 233.686 64.6958 233.686 Z" fill="#000000" fill-rule="nonzero" fill-opacity="1" /><path clip-path="url(#clip840)" d="M84.8577 262.991 L89.7419 262.991 L89.7419 268.871 L84.8577 268.871 L84.8577 262.991 Z" fill="#000000" fill-rule="nonzero" fill-opacity="1" /><path clip-path="url(#clip840)" d="M100.737 264.936 L108.376 264.936 L108.376 238.57 L100.066 240.237 L100.066 235.978 L108.33 234.311 L113.006 234.311 L113.006 264.936 L120.645 264.936 L120.645 268.871 L100.737 268.871 L100.737 264.936 Z" fill="#000000" fill-rule="nonzero" fill-opacity="1" /><path clip-path="url(#clip840)" d="M134.117 264.936 L150.436 264.936 L150.436 268.871 L128.492 268.871 L128.492 264.936 Q131.154 262.181 135.737 257.552 Q140.343 252.899 141.524 251.556 Q143.769 249.033 144.649 247.297 Q145.552 245.538 145.552 243.848 Q145.552 241.093 143.607 239.357 Q141.686 237.621 138.584 237.621 Q136.385 237.621 133.931 238.385 Q131.501 239.149 128.723 240.7 L128.723 235.978 Q131.547 234.843 134.001 234.265 Q136.455 233.686 138.492 233.686 Q143.862 233.686 147.056 236.371 Q150.251 239.056 150.251 243.547 Q150.251 245.677 149.441 247.598 Q148.654 249.496 146.547 252.089 Q145.968 252.76 142.867 255.978 Q139.765 259.172 134.117 264.936 Z" fill="#000000" fill-rule="nonzero" fill-opacity="1" /><polyline clip-path="url(#clip841)" style="stroke:#009af9; stroke-linecap:round; stroke-linejoin:round; stroke-width:4; stroke-opacity:1; fill:none" points="186.436,1217.38 403.068,1217.38 619.7,1384.24 836.332,825.851 1052.96,86.1857 1269.6,316.509 1486.23,1210.24 1702.86,1354.84 1919.49,407.277 2136.12,472.463 2352.76,574.863 "/>
<polyline clip-path="url(#clip841)" style="stroke:#e26f46; stroke-linecap:round; stroke-linejoin:round; stroke-width:4; stroke-opacity:1; fill:none" points="186.436,1217.38 403.068,1244.29 619.7,1128.67 836.332,1094.92 1052.96,1245.41 1269.6,1354.27 1486.23,1240.65 1702.86,1065.66 1919.49,1221.36 2136.12,1227.89 2352.76,1195.23 "/>
<path clip-path="url(#clip840)" d="M2040.72 248.629 L2280.55 248.629 L2280.55 93.1086 L2040.72 93.1086  Z" fill="#ffffff" fill-rule="evenodd" fill-opacity="1"/>
<polyline clip-path="url(#clip840)" style="stroke:#000000; stroke-linecap:round; stroke-linejoin:round; stroke-width:4; stroke-opacity:1; fill:none" points="2040.72,248.629 2280.55,248.629 2280.55,93.1086 2040.72,93.1086 2040.72,248.629 "/>
<polyline clip-path="url(#clip840)" style="stroke:#009af9; stroke-linecap:round; stroke-linejoin:round; stroke-width:4; stroke-opacity:1; fill:none" points="2064.79,144.949 2209.21,144.949 "/>
<path clip-path="url(#clip840)" d="M2246.68 149.196 Q2241.52 149.196 2239.53 150.377 Q2237.54 151.557 2237.54 154.405 Q2237.54 156.673 2239.02 158.016 Q2240.53 159.335 2243.1 159.335 Q2246.64 159.335 2248.77 156.835 Q2250.92 154.312 2250.92 150.145 L2250.92 149.196 L2246.68 149.196 M2255.18 147.437 L2255.18 162.229 L2250.92 162.229 L2250.92 158.293 Q2249.46 160.655 2247.29 161.789 Q2245.11 162.9 2241.96 162.9 Q2237.98 162.9 2235.62 160.678 Q2233.28 158.432 2233.28 154.682 Q2233.28 150.307 2236.2 148.085 Q2239.14 145.863 2244.95 145.863 L2250.92 145.863 L2250.92 145.446 Q2250.92 142.507 2248.98 140.909 Q2247.05 139.289 2243.56 139.289 Q2241.34 139.289 2239.23 139.821 Q2237.12 140.354 2235.18 141.419 L2235.18 137.483 Q2237.52 136.581 2239.72 136.141 Q2241.91 135.678 2244 135.678 Q2249.62 135.678 2252.4 138.594 Q2255.18 141.511 2255.18 147.437 Z" fill="#000000" fill-rule="nonzero" fill-opacity="1" /><polyline clip-path="url(#clip840)" style="stroke:#e26f46; stroke-linecap:round; stroke-linejoin:round; stroke-width:4; stroke-opacity:1; fill:none" points="2064.79,196.789 2209.21,196.789 "/>
<path clip-path="url(#clip840)" d="M2252.05 201.129 Q2252.05 196.43 2250.11 193.768 Q2248.19 191.083 2244.81 191.083 Q2241.43 191.083 2239.48 193.768 Q2237.56 196.43 2237.56 201.129 Q2237.56 205.828 2239.48 208.513 Q2241.43 211.175 2244.81 211.175 Q2248.19 211.175 2250.11 208.513 Q2252.05 205.828 2252.05 201.129 M2237.56 192.078 Q2238.91 189.763 2240.94 188.652 Q2243 187.518 2245.85 187.518 Q2250.57 187.518 2253.51 191.268 Q2256.48 195.018 2256.48 201.129 Q2256.48 207.24 2253.51 210.99 Q2250.57 214.74 2245.85 214.74 Q2243 214.74 2240.94 213.629 Q2238.91 212.495 2237.56 210.18 L2237.56 214.069 L2233.28 214.069 L2233.28 178.05 L2237.56 178.05 L2237.56 192.078 Z" fill="#000000" fill-rule="nonzero" fill-opacity="1" /></svg>
