<?xml version="1.0" encoding="utf-8"?>
<svg xmlns="http://www.w3.org/2000/svg" xmlns:xlink="http://www.w3.org/1999/xlink" width="600" height="400" viewBox="0 0 2400 1600">
<defs>
  <clipPath id="clip720">
    <rect x="0" y="0" width="2400" height="1600"/>
  </clipPath>
</defs>
<path clip-path="url(#clip720)" d="M0 1600 L2400 1600 L2400 0 L0 0  Z" fill="#ffffff" fill-rule="evenodd" fill-opacity="1"/>
<defs>
  <clipPath id="clip721">
    <rect x="156" y="47" width="2198" height="1377"/>
  </clipPath>
</defs>
<path clip-path="url(#clip720)" d="M156.112 1423.18 L2352.76 1423.18 L2352.76 47.2441 L156.112 47.2441  Z" fill="#ffffff" fill-rule="evenodd" fill-opacity="1"/>
<polyline clip-path="url(#clip721)" style="stroke:#000000; stroke-linecap:round; stroke-linejoin:round; stroke-width:2; stroke-opacity:0.1; fill:none" points="156.112,1423.18 156.112,47.2441 "/>
<polyline clip-path="url(#clip721)" style="stroke:#000000; stroke-linecap:round; stroke-linejoin:round; stroke-width:2; stroke-opacity:0.1; fill:none" points="595.441,1423.18 595.441,47.2441 "/>
<polyline clip-path="url(#clip721)" style="stroke:#000000; stroke-linecap:round; stroke-linejoin:round; stroke-width:2; stroke-opacity:0.1; fill:none" points="1034.77,1423.18 1034.77,47.2441 "/>
<polyline clip-path="url(#clip721)" style="stroke:#000000; stroke-linecap:round; stroke-linejoin:round; stroke-width:2; stroke-opacity:0.1; fill:none" points="1474.1,1423.18 1474.1,47.2441 "/>
<polyline clip-path="url(#clip721)" style="stroke:#000000; stroke-linecap:round; stroke-linejoin:round; stroke-width:2; stroke-opacity:0.1; fill:none" points="1913.43,1423.18 1913.43,47.2441 "/>
<polyline clip-path="url(#clip721)" style="stroke:#000000; stroke-linecap:round; stroke-linejoin:round; stroke-width:2; stroke-opacity:0.1; fill:none" points="2352.76,1423.18 2352.76,47.2441 "/>
<polyline clip-path="url(#clip721)" style="stroke:#000000; stroke-linecap:round; stroke-linejoin:round; stroke-width:2; stroke-opacity:0.1; fill:none" points="156.112,1345.47 2352.76,1345.47 "/>
<polyline clip-path="url(#clip721)" style="stroke:#000000; stroke-linecap:round; stroke-linejoin:round; stroke-width:2; stroke-opacity:0.1; fill:none" points="156.112,998.994 2352.76,998.994 "/>
<polyline clip-path="url(#clip721)" style="stroke:#000000; stroke-linecap:round; stroke-linejoin:round; stroke-width:2; stroke-opacity:0.1; fill:none" points="156.112,652.518 2352.76,652.518 "/>
<polyline clip-path="url(#clip721)" style="stroke:#000000; stroke-linecap:round; stroke-linejoin:round; stroke-width:2; stroke-opacity:0.1; fill:none" points="156.112,306.041 2352.76,306.041 "/>
<polyline clip-path="url(#clip720)" style="stroke:#000000; stroke-linecap:round; stroke-linejoin:round; stroke-width:4; stroke-opacity:1; fill:none" points="156.112,1423.18 2352.76,1423.18 "/>
<polyline clip-path="url(#clip720)" style="stroke:#000000; stroke-linecap:round; stroke-linejoin:round; stroke-width:4; stroke-opacity:1; fill:none" points="156.112,1423.18 156.112,1404.28 "/>
<polyline clip-path="url(#clip720)" style="stroke:#000000; stroke-linecap:round; stroke-linejoin:round; stroke-width:4; stroke-opacity:1; fill:none" points="595.441,1423.18 595.441,1404.28 "/>
<polyline clip-path="url(#clip720)" style="stroke:#000000; stroke-linecap:round; stroke-linejoin:round; stroke-width:4; stroke-opacity:1; fill:none" points="1034.77,1423.18 1034.77,1404.28 "/>
<polyline clip-path="url(#clip720)" style="stroke:#000000; stroke-linecap:round; stroke-linejoin:round; stroke-width:4; stroke-opacity:1; fill:none" points="1474.1,1423.18 1474.1,1404.28 "/>
<polyline clip-path="url(#clip720)" style="stroke:#000000; stroke-linecap:round; stroke-linejoin:round; stroke-width:4; stroke-opacity:1; fill:none" points="1913.43,1423.18 1913.43,1404.28 "/>
<polyline clip-path="url(#clip720)" style="stroke:#000000; stroke-linecap:round; stroke-linejoin:round; stroke-width:4; stroke-opacity:1; fill:none" points="2352.76,1423.18 2352.76,1404.28 "/>
<path clip-path="url(#clip720)" d="M156.112 1454.1 Q152.501 1454.1 150.672 1457.66 Q148.867 1461.2 148.867 1468.33 Q148.867 1475.44 150.672 1479.01 Q152.501 1482.55 156.112 1482.55 Q159.746 1482.55 161.552 1479.01 Q163.381 1475.44 163.381 1468.33 Q163.381 1461.2 161.552 1457.66 Q159.746 1454.1 156.112 1454.1 M156.112 1450.39 Q161.922 1450.39 164.978 1455 Q168.057 1459.58 168.057 1468.33 Q168.057 1477.06 164.978 1481.67 Q161.922 1486.25 156.112 1486.25 Q150.302 1486.25 147.223 1481.67 Q144.168 1477.06 144.168 1468.33 Q144.168 1459.58 147.223 1455 Q150.302 1450.39 156.112 1450.39 Z" fill="#000000" fill-rule="nonzero" fill-opacity="1" /><path clip-path="url(#clip720)" d="M590.094 1481.64 L606.413 1481.64 L606.413 1485.58 L584.469 1485.58 L584.469 1481.64 Q587.131 1478.89 591.714 1474.26 Q596.321 1469.61 597.501 1468.27 Q599.746 1465.74 600.626 1464.01 Q601.529 1462.25 601.529 1460.56 Q601.529 1457.8 599.584 1456.07 Q597.663 1454.33 594.561 1454.33 Q592.362 1454.33 589.909 1455.09 Q587.478 1455.86 584.7 1457.41 L584.7 1452.69 Q587.524 1451.55 589.978 1450.97 Q592.432 1450.39 594.469 1450.39 Q599.839 1450.39 603.033 1453.08 Q606.228 1455.77 606.228 1460.26 Q606.228 1462.39 605.418 1464.31 Q604.631 1466.2 602.524 1468.8 Q601.945 1469.47 598.844 1472.69 Q595.742 1475.88 590.094 1481.64 Z" fill="#000000" fill-rule="nonzero" fill-opacity="1" /><path clip-path="url(#clip720)" d="M1037.78 1455.09 L1025.97 1473.54 L1037.78 1473.54 L1037.78 1455.09 M1036.55 1451.02 L1042.43 1451.02 L1042.43 1473.54 L1047.36 1473.54 L1047.36 1477.43 L1042.43 1477.43 L1042.43 1485.58 L1037.78 1485.58 L1037.78 1477.43 L1022.18 1477.43 L1022.18 1472.92 L1036.55 1451.02 Z" fill="#000000" fill-rule="nonzero" fill-opacity="1" /><path clip-path="url(#clip720)" d="M1474.5 1466.44 Q1471.36 1466.44 1469.5 1468.59 Q1467.67 1470.74 1467.67 1474.49 Q1467.67 1478.22 1469.5 1480.39 Q1471.36 1482.55 1474.5 1482.55 Q1477.65 1482.55 1479.48 1480.39 Q1481.33 1478.22 1481.33 1474.49 Q1481.33 1470.74 1479.48 1468.59 Q1477.65 1466.44 1474.5 1466.44 M1483.79 1451.78 L1483.79 1456.04 Q1482.03 1455.21 1480.22 1454.77 Q1478.44 1454.33 1476.68 1454.33 Q1472.05 1454.33 1469.6 1457.45 Q1467.17 1460.58 1466.82 1466.9 Q1468.18 1464.89 1470.24 1463.82 Q1472.3 1462.73 1474.78 1462.73 Q1479.99 1462.73 1483 1465.9 Q1486.03 1469.05 1486.03 1474.49 Q1486.03 1479.82 1482.88 1483.03 Q1479.73 1486.25 1474.5 1486.25 Q1468.51 1486.25 1465.34 1481.67 Q1462.17 1477.06 1462.17 1468.33 Q1462.17 1460.14 1466.05 1455.28 Q1469.94 1450.39 1476.49 1450.39 Q1478.25 1450.39 1480.04 1450.74 Q1481.84 1451.09 1483.79 1451.78 Z" fill="#000000" fill-rule="nonzero" fill-opacity="1" /><path clip-path="url(#clip720)" d="M1913.43 1469.17 Q1910.09 1469.17 1908.17 1470.95 Q1906.27 1472.73 1906.27 1475.86 Q1906.27 1478.98 1908.17 1480.77 Q1910.09 1482.55 1913.43 1482.55 Q1916.76 1482.55 1918.68 1480.77 Q1920.6 1478.96 1920.6 1475.86 Q1920.6 1472.73 1918.68 1470.95 Q1916.78 1469.17 1913.43 1469.17 M1908.75 1467.18 Q1905.74 1466.44 1904.05 1464.38 Q1902.39 1462.32 1902.39 1459.35 Q1902.39 1455.21 1905.33 1452.8 Q1908.29 1450.39 1913.43 1450.39 Q1918.59 1450.39 1921.53 1452.8 Q1924.47 1455.21 1924.47 1459.35 Q1924.47 1462.32 1922.78 1464.38 Q1921.11 1466.44 1918.13 1467.18 Q1921.51 1467.96 1923.38 1470.26 Q1925.28 1472.55 1925.28 1475.86 Q1925.28 1480.88 1922.2 1483.57 Q1919.14 1486.25 1913.43 1486.25 Q1907.71 1486.25 1904.63 1483.57 Q1901.58 1480.88 1901.58 1475.86 Q1901.58 1472.55 1903.47 1470.26 Q1905.37 1467.96 1908.75 1467.18 M1907.04 1459.79 Q1907.04 1462.48 1908.7 1463.98 Q1910.39 1465.49 1913.43 1465.49 Q1916.44 1465.49 1918.13 1463.98 Q1919.84 1462.48 1919.84 1459.79 Q1919.84 1457.11 1918.13 1455.6 Q1916.44 1454.1 1913.43 1454.1 Q1910.39 1454.1 1908.7 1455.6 Q1907.04 1457.11 1907.04 1459.79 Z" fill="#000000" fill-rule="nonzero" fill-opacity="1" /><path clip-path="url(#clip720)" d="M2327.44 1481.64 L2335.08 1481.64 L2335.08 1455.28 L2326.77 1456.95 L2326.77 1452.69 L2335.04 1451.02 L2339.71 1451.02 L2339.71 1481.64 L2347.35 1481.64 L2347.35 1485.58 L2327.44 1485.58 L2327.44 1481.64 Z" fill="#000000" fill-rule="nonzero" fill-opacity="1" /><path clip-path="url(#clip720)" d="M2366.8 1454.1 Q2363.18 1454.1 2361.36 1457.66 Q2359.55 1461.2 2359.55 1468.33 Q2359.55 1475.44 2361.36 1479.01 Q2363.18 1482.55 2366.8 1482.55 Q2370.43 1482.55 2372.23 1479.01 Q2374.06 1475.44 2374.06 1468.33 Q2374.06 1461.2 2372.23 1457.66 Q2370.43 1454.1 2366.8 1454.1 M2366.8 1450.39 Q2372.61 1450.39 2375.66 1455 Q2378.74 1459.58 2378.74 1468.33 Q2378.74 1477.06 2375.66 1481.67 Q2372.61 1486.25 2366.8 1486.25 Q2360.99 1486.25 2357.91 1481.67 Q2354.85 1477.06 2354.85 1468.33 Q2354.85 1459.58 2357.91 1455 Q2360.99 1450.39 2366.8 1450.39 Z" fill="#000000" fill-rule="nonzero" fill-opacity="1" /><path clip-path="url(#clip720)" d="M1253.5 1522.27 L1253.5 1532.4 L1265.56 1532.4 L1265.56 1536.95 L1253.5 1536.95 L1253.5 1556.3 Q1253.5 1560.66 1254.67 1561.9 Q1255.88 1563.14 1259.54 1563.14 L1265.56 1563.14 L1265.56 1568.04 L1259.54 1568.04 Q1252.76 1568.04 1250.18 1565.53 Q1247.61 1562.98 1247.61 1556.3 L1247.61 1536.95 L1243.31 1536.95 L1243.31 1532.4 L1247.61 1532.4 L1247.61 1522.27 L1253.5 1522.27 Z" fill="#000000" fill-rule="nonzero" fill-opacity="1" /><polyline clip-path="url(#clip720)" style="stroke:#000000; stroke-linecap:round; stroke-linejoin:round; stroke-width:4; stroke-opacity:1; fill:none" points="156.112,1423.18 156.112,47.2441 "/>
<polyline clip-path="url(#clip720)" style="stroke:#000000; stroke-linecap:round; stroke-linejoin:round; stroke-width:4; stroke-opacity:1; fill:none" points="156.112,1345.47 175.01,1345.47 "/>
<polyline clip-path="url(#clip720)" style="stroke:#000000; stroke-linecap:round; stroke-linejoin:round; stroke-width:4; stroke-opacity:1; fill:none" points="156.112,998.994 175.01,998.994 "/>
<polyline clip-path="url(#clip720)" style="stroke:#000000; stroke-linecap:round; stroke-linejoin:round; stroke-width:4; stroke-opacity:1; fill:none" points="156.112,652.518 175.01,652.518 "/>
<polyline clip-path="url(#clip720)" style="stroke:#000000; stroke-linecap:round; stroke-linejoin:round; stroke-width:4; stroke-opacity:1; fill:none" points="156.112,306.041 175.01,306.041 "/>
<path clip-path="url(#clip720)" d="M62.9365 1331.27 Q59.3254 1331.27 57.4967 1334.83 Q55.6912 1338.38 55.6912 1345.51 Q55.6912 1352.61 57.4967 1356.18 Q59.3254 1359.72 62.9365 1359.72 Q66.5707 1359.72 68.3763 1356.18 Q70.205 1352.61 70.205 1345.51 Q70.205 1338.38 68.3763 1334.83 Q66.5707 1331.27 62.9365 1331.27 M62.9365 1327.57 Q68.7467 1327.57 71.8022 1332.17 Q74.8809 1336.76 74.8809 1345.51 Q74.8809 1354.23 71.8022 1358.84 Q68.7467 1363.42 62.9365 1363.42 Q57.1264 1363.42 54.0477 1358.84 Q50.9921 1354.23 50.9921 1345.51 Q50.9921 1336.76 54.0477 1332.17 Q57.1264 1327.57 62.9365 1327.57 Z" fill="#000000" fill-rule="nonzero" fill-opacity="1" /><path clip-path="url(#clip720)" d="M83.0984 1356.87 L87.9827 1356.87 L87.9827 1362.75 L83.0984 1362.75 L83.0984 1356.87 Z" fill="#000000" fill-rule="nonzero" fill-opacity="1" /><path clip-path="url(#clip720)" d="M108.168 1331.27 Q104.557 1331.27 102.728 1334.83 Q100.922 1338.38 100.922 1345.51 Q100.922 1352.61 102.728 1356.18 Q104.557 1359.72 108.168 1359.72 Q111.802 1359.72 113.608 1356.18 Q115.436 1352.61 115.436 1345.51 Q115.436 1338.38 113.608 1334.83 Q111.802 1331.27 108.168 1331.27 M108.168 1327.57 Q113.978 1327.57 117.033 1332.17 Q120.112 1336.76 120.112 1345.51 Q120.112 1354.23 117.033 1358.84 Q113.978 1363.42 108.168 1363.42 Q102.358 1363.42 99.2789 1358.84 Q96.2234 1354.23 96.2234 1345.51 Q96.2234 1336.76 99.2789 1332.17 Q102.358 1327.57 108.168 1327.57 Z" fill="#000000" fill-rule="nonzero" fill-opacity="1" /><path clip-path="url(#clip720)" d="M64.1634 984.793 Q60.5523 984.793 58.7236 988.358 Q56.918 991.899 56.918 999.029 Q56.918 1006.14 58.7236 1009.7 Q60.5523 1013.24 64.1634 1013.24 Q67.7976 1013.24 69.6031 1009.7 Q71.4318 1006.14 71.4318 999.029 Q71.4318 991.899 69.6031 988.358 Q67.7976 984.793 64.1634 984.793 M64.1634 981.089 Q69.9735 981.089 73.029 985.696 Q76.1077 990.279 76.1077 999.029 Q76.1077 1007.76 73.029 1012.36 Q69.9735 1016.95 64.1634 1016.95 Q58.3532 1016.95 55.2745 1012.36 Q52.219 1007.76 52.219 999.029 Q52.219 990.279 55.2745 985.696 Q58.3532 981.089 64.1634 981.089 Z" fill="#000000" fill-rule="nonzero" fill-opacity="1" /><path clip-path="url(#clip720)" d="M84.3253 1010.39 L89.2095 1010.39 L89.2095 1016.27 L84.3253 1016.27 L84.3253 1010.39 Z" fill="#000000" fill-rule="nonzero" fill-opacity="1" /><path clip-path="url(#clip720)" d="M100.205 1012.34 L107.844 1012.34 L107.844 985.973 L99.5335 987.64 L99.5335 983.381 L107.797 981.714 L112.473 981.714 L112.473 1012.34 L120.112 1012.34 L120.112 1016.27 L100.205 1016.27 L100.205 1012.34 Z" fill="#000000" fill-rule="nonzero" fill-opacity="1" /><path clip-path="url(#clip720)" d="M64.5337 638.316 Q60.9226 638.316 59.0939 641.881 Q57.2884 645.423 57.2884 652.552 Q57.2884 659.659 59.0939 663.224 Q60.9226 666.765 64.5337 666.765 Q68.168 666.765 69.9735 663.224 Q71.8022 659.659 71.8022 652.552 Q71.8022 645.423 69.9735 641.881 Q68.168 638.316 64.5337 638.316 M64.5337 634.613 Q70.3439 634.613 73.3994 639.219 Q76.4781 643.803 76.4781 652.552 Q76.4781 661.279 73.3994 665.886 Q70.3439 670.469 64.5337 670.469 Q58.7236 670.469 55.6449 665.886 Q52.5893 661.279 52.5893 652.552 Q52.5893 643.803 55.6449 639.219 Q58.7236 634.613 64.5337 634.613 Z" fill="#000000" fill-rule="nonzero" fill-opacity="1" /><path clip-path="url(#clip720)" d="M84.6956 663.918 L89.5799 663.918 L89.5799 669.798 L84.6956 669.798 L84.6956 663.918 Z" fill="#000000" fill-rule="nonzero" fill-opacity="1" /><path clip-path="url(#clip720)" d="M103.793 665.863 L120.112 665.863 L120.112 669.798 L98.1678 669.798 L98.1678 665.863 Q100.83 663.108 105.413 658.478 Q110.02 653.826 111.2 652.483 Q113.445 649.96 114.325 648.224 Q115.228 646.465 115.228 644.775 Q115.228 642.02 113.283 640.284 Q111.362 638.548 108.26 638.548 Q106.061 638.548 103.608 639.312 Q101.177 640.076 98.3993 641.627 L98.3993 636.904 Q101.223 635.77 103.677 635.191 Q106.131 634.613 108.168 634.613 Q113.538 634.613 116.733 637.298 Q119.927 639.983 119.927 644.474 Q119.927 646.603 119.117 648.525 Q118.33 650.423 116.223 653.015 Q115.645 653.687 112.543 656.904 Q109.441 660.099 103.793 665.863 Z" fill="#000000" fill-rule="nonzero" fill-opacity="1" /><path clip-path="url(#clip720)" d="M63.5847 291.84 Q59.9736 291.84 58.1449 295.405 Q56.3393 298.947 56.3393 306.076 Q56.3393 313.183 58.1449 316.747 Q59.9736 320.289 63.5847 320.289 Q67.2189 320.289 69.0244 316.747 Q70.8531 313.183 70.8531 306.076 Q70.8531 298.947 69.0244 295.405 Q67.2189 291.84 63.5847 291.84 M63.5847 288.136 Q69.3948 288.136 72.4503 292.743 Q75.529 297.326 75.529 306.076 Q75.529 314.803 72.4503 319.409 Q69.3948 323.993 63.5847 323.993 Q57.7745 323.993 54.6958 319.409 Q51.6403 314.803 51.6403 306.076 Q51.6403 297.326 54.6958 292.743 Q57.7745 288.136 63.5847 288.136 Z" fill="#000000" fill-rule="nonzero" fill-opacity="1" /><path clip-path="url(#clip720)" d="M83.7466 317.442 L88.6308 317.442 L88.6308 323.321 L83.7466 323.321 L83.7466 317.442 Z" fill="#000000" fill-rule="nonzero" fill-opacity="1" /><path clip-path="url(#clip720)" d="M112.983 304.687 Q116.339 305.405 118.214 307.673 Q120.112 309.942 120.112 313.275 Q120.112 318.391 116.594 321.192 Q113.075 323.993 106.594 323.993 Q104.418 323.993 102.103 323.553 Q99.8113 323.136 97.3576 322.28 L97.3576 317.766 Q99.3021 318.9 101.617 319.479 Q103.932 320.058 106.455 320.058 Q110.853 320.058 113.145 318.321 Q115.459 316.585 115.459 313.275 Q115.459 310.22 113.307 308.507 Q111.177 306.771 107.358 306.771 L103.33 306.771 L103.33 302.928 L107.543 302.928 Q110.992 302.928 112.82 301.562 Q114.649 300.173 114.649 297.581 Q114.649 294.919 112.751 293.507 Q110.876 292.072 107.358 292.072 Q105.436 292.072 103.237 292.488 Q101.038 292.905 98.3993 293.785 L98.3993 289.618 Q101.061 288.877 103.376 288.507 Q105.714 288.136 107.774 288.136 Q113.098 288.136 116.2 290.567 Q119.302 292.974 119.302 297.095 Q119.302 299.965 117.658 301.956 Q116.015 303.923 112.983 304.687 Z" fill="#000000" fill-rule="nonzero" fill-opacity="1" /><polyline clip-path="url(#clip721)" style="stroke:#009af9; stroke-linecap:round; stroke-linejoin:round; stroke-width:4; stroke-opacity:1; fill:none" points="156.112,1345.47 375.777,1345.47 595.441,1112.07 815.105,1134.55 1034.77,1166.78 1254.43,766.562 1474.1,847.502 1693.76,368.184 1913.43,86.1857 2133.09,88.9532 2352.76,392.14 "/>
<polyline clip-path="url(#clip721)" style="stroke:#e26f46; stroke-linecap:round; stroke-linejoin:round; stroke-width:4; stroke-opacity:1; fill:none" points="156.112,1345.47 375.777,1307.83 595.441,1347.21 815.105,1348.97 1034.77,1279.48 1254.43,1353.86 1474.1,1264.15 1693.76,1292.11 1913.43,1335.76 2133.09,1384.24 2352.76,1339.62 "/>
<path clip-path="url(#clip720)" d="M229.334 248.629 L472.192 248.629 L472.192 93.1086 L229.334 93.1086  Z" fill="#ffffff" fill-rule="evenodd" fill-opacity="1"/>
<polyline clip-path="url(#clip720)" style="stroke:#000000; stroke-linecap:round; stroke-linejoin:round; stroke-width:4; stroke-opacity:1; fill:none" points="229.334,248.629 472.192,248.629 472.192,93.1086 229.334,93.1086 229.334,248.629 "/>
<polyline clip-path="url(#clip720)" style="stroke:#009af9; stroke-linecap:round; stroke-linejoin:round; stroke-width:4; stroke-opacity:1; fill:none" points="253.741,144.949 400.184,144.949 "/>
<path clip-path="url(#clip720)" d="M437.994 149.196 Q432.832 149.196 430.841 150.377 Q428.85 151.557 428.85 154.405 Q428.85 156.673 430.332 158.016 Q431.836 159.335 434.406 159.335 Q437.947 159.335 440.077 156.835 Q442.23 154.312 442.23 150.145 L442.23 149.196 L437.994 149.196 M446.489 147.437 L446.489 162.229 L442.23 162.229 L442.23 158.293 Q440.771 160.655 438.595 161.789 Q436.419 162.9 433.271 162.9 Q429.29 162.9 426.929 160.678 Q424.591 158.432 424.591 154.682 Q424.591 150.307 427.507 148.085 Q430.447 145.863 436.257 145.863 L442.23 145.863 L442.23 145.446 Q442.23 142.507 440.285 140.909 Q438.364 139.289 434.869 139.289 Q432.646 139.289 430.54 139.821 Q428.433 140.354 426.489 141.419 L426.489 137.483 Q428.827 136.581 431.026 136.141 Q433.225 135.678 435.308 135.678 Q440.933 135.678 443.711 138.594 Q446.489 141.511 446.489 147.437 Z" fill="#000000" fill-rule="nonzero" fill-opacity="1" /><polyline clip-path="url(#clip720)" style="stroke:#e26f46; stroke-linecap:round; stroke-linejoin:round; stroke-width:4; stroke-opacity:1; fill:none" points="253.741,196.789 400.184,196.789 "/>
<path clip-path="url(#clip720)" d="M443.364 201.129 Q443.364 196.43 441.419 193.768 Q439.498 191.083 436.119 191.083 Q432.739 191.083 430.794 193.768 Q428.873 196.43 428.873 201.129 Q428.873 205.828 430.794 208.513 Q432.739 211.175 436.119 211.175 Q439.498 211.175 441.419 208.513 Q443.364 205.828 443.364 201.129 M428.873 192.078 Q430.216 189.763 432.253 188.652 Q434.313 187.518 437.16 187.518 Q441.882 187.518 444.822 191.268 Q447.785 195.018 447.785 201.129 Q447.785 207.24 444.822 210.99 Q441.882 214.74 437.16 214.74 Q434.313 214.74 432.253 213.629 Q430.216 212.495 428.873 210.18 L428.873 214.069 L424.591 214.069 L424.591 178.05 L428.873 178.05 L428.873 192.078 Z" fill="#000000" fill-rule="nonzero" fill-opacity="1" /></svg>
