<?xml version="1.0" encoding="utf-8"?>
<svg xmlns="http://www.w3.org/2000/svg" xmlns:xlink="http://www.w3.org/1999/xlink" width="600" height="400" viewBox="0 0 2400 1600">
<defs>
  <clipPath id="clip900">
    <rect x="0" y="0" width="2400" height="1600"/>
  </clipPath>
</defs>
<path clip-path="url(#clip900)" d="M0 1600 L2400 1600 L2400 0 L0 0  Z" fill="#ffffff" fill-rule="evenodd" fill-opacity="1"/>
<defs>
  <clipPath id="clip901">
    <rect x="147" y="47" width="2206" height="1440"/>
  </clipPath>
</defs>
<path clip-path="url(#clip900)" d="M147.709 1486.45 L2352.76 1486.45 L2352.76 47.2441 L147.709 47.2441  Z" fill="#ffffff" fill-rule="evenodd" fill-opacity="1"/>
<polyline clip-path="url(#clip901)" style="stroke:#000000; stroke-linecap:round; stroke-linejoin:round; stroke-width:2; stroke-opacity:0.1; fill:none" points="210.116,1486.45 210.116,47.2441 "/>
<polyline clip-path="url(#clip901)" style="stroke:#000000; stroke-linecap:round; stroke-linejoin:round; stroke-width:2; stroke-opacity:0.1; fill:none" points="730.175,1486.45 730.175,47.2441 "/>
<polyline clip-path="url(#clip901)" style="stroke:#000000; stroke-linecap:round; stroke-linejoin:round; stroke-width:2; stroke-opacity:0.1; fill:none" points="1250.23,1486.45 1250.23,47.2441 "/>
<polyline clip-path="url(#clip901)" style="stroke:#000000; stroke-linecap:round; stroke-linejoin:round; stroke-width:2; stroke-opacity:0.1; fill:none" points="1770.29,1486.45 1770.29,47.2441 "/>
<polyline clip-path="url(#clip901)" style="stroke:#000000; stroke-linecap:round; stroke-linejoin:round; stroke-width:2; stroke-opacity:0.1; fill:none" points="2290.35,1486.45 2290.35,47.2441 "/>
<polyline clip-path="url(#clip901)" style="stroke:#000000; stroke-linecap:round; stroke-linejoin:round; stroke-width:2; stroke-opacity:0.1; fill:none" points="147.709,1167.7 2352.76,1167.7 "/>
<polyline clip-path="url(#clip901)" style="stroke:#000000; stroke-linecap:round; stroke-linejoin:round; stroke-width:2; stroke-opacity:0.1; fill:none" points="147.709,832.975 2352.76,832.975 "/>
<polyline clip-path="url(#clip901)" style="stroke:#000000; stroke-linecap:round; stroke-linejoin:round; stroke-width:2; stroke-opacity:0.1; fill:none" points="147.709,498.252 2352.76,498.252 "/>
<polyline clip-path="url(#clip901)" style="stroke:#000000; stroke-linecap:round; stroke-linejoin:round; stroke-width:2; stroke-opacity:0.1; fill:none" points="147.709,163.529 2352.76,163.529 "/>
<polyline clip-path="url(#clip900)" style="stroke:#000000; stroke-linecap:round; stroke-linejoin:round; stroke-width:4; stroke-opacity:1; fill:none" points="147.709,1486.45 2352.76,1486.45 "/>
<polyline clip-path="url(#clip900)" style="stroke:#000000; stroke-linecap:round; stroke-linejoin:round; stroke-width:4; stroke-opacity:1; fill:none" points="210.116,1486.45 210.116,1467.55 "/>
<polyline clip-path="url(#clip900)" style="stroke:#000000; stroke-linecap:round; stroke-linejoin:round; stroke-width:4; stroke-opacity:1; fill:none" points="730.175,1486.45 730.175,1467.55 "/>
<polyline clip-path="url(#clip900)" style="stroke:#000000; stroke-linecap:round; stroke-linejoin:round; stroke-width:4; stroke-opacity:1; fill:none" points="1250.23,1486.45 1250.23,1467.55 "/>
<polyline clip-path="url(#clip900)" style="stroke:#000000; stroke-linecap:round; stroke-linejoin:round; stroke-width:4; stroke-opacity:1; fill:none" points="1770.29,1486.45 1770.29,1467.55 "/>
<polyline clip-path="url(#clip900)" style="stroke:#000000; stroke-linecap:round; stroke-linejoin:round; stroke-width:4; stroke-opacity:1; fill:none" points="2290.35,1486.45 2290.35,1467.55 "/>
<path clip-path="url(#clip900)" d="M187.501 1517.37 Q183.89 1517.37 182.061 1520.93 Q180.255 1524.47 180.255 1531.6 Q180.255 1538.71 182.061 1542.27 Q183.89 1545.82 187.501 1545.82 Q191.135 1545.82 192.941 1542.27 Q194.769 1538.71 194.769 1531.6 Q194.769 1524.47 192.941 1520.93 Q191.135 1517.37 187.501 1517.37 M187.501 1513.66 Q193.311 1513.66 196.366 1518.27 Q199.445 1522.85 199.445 1531.6 Q199.445 1540.33 196.366 1544.94 Q193.311 1549.52 187.501 1549.52 Q181.691 1549.52 178.612 1544.94 Q175.556 1540.33 175.556 1531.6 Q175.556 1522.85 178.612 1518.27 Q181.691 1513.66 187.501 1513.66 Z" fill="#000000" fill-rule="nonzero" fill-opacity="1" /><path clip-path="url(#clip900)" d="M207.663 1542.97 L212.547 1542.97 L212.547 1548.85 L207.663 1548.85 L207.663 1542.97 Z" fill="#000000" fill-rule="nonzero" fill-opacity="1" /><path clip-path="url(#clip900)" d="M232.732 1517.37 Q229.121 1517.37 227.292 1520.93 Q225.487 1524.47 225.487 1531.6 Q225.487 1538.71 227.292 1542.27 Q229.121 1545.82 232.732 1545.82 Q236.366 1545.82 238.172 1542.27 Q240 1538.71 240 1531.6 Q240 1524.47 238.172 1520.93 Q236.366 1517.37 232.732 1517.37 M232.732 1513.66 Q238.542 1513.66 241.598 1518.27 Q244.676 1522.85 244.676 1531.6 Q244.676 1540.33 241.598 1544.94 Q238.542 1549.52 232.732 1549.52 Q226.922 1549.52 223.843 1544.94 Q220.788 1540.33 220.788 1531.6 Q220.788 1522.85 223.843 1518.27 Q226.922 1513.66 232.732 1513.66 Z" fill="#000000" fill-rule="nonzero" fill-opacity="1" /><path clip-path="url(#clip900)" d="M701.911 1544.91 L718.23 1544.91 L718.23 1548.85 L696.286 1548.85 L696.286 1544.91 Q698.948 1542.16 703.531 1537.53 Q708.138 1532.88 709.318 1531.53 Q711.563 1529.01 712.443 1527.27 Q713.346 1525.51 713.346 1523.82 Q713.346 1521.07 711.401 1519.33 Q709.48 1517.6 706.378 1517.6 Q704.179 1517.6 701.726 1518.36 Q699.295 1519.13 696.517 1520.68 L696.517 1515.95 Q699.341 1514.82 701.795 1514.24 Q704.249 1513.66 706.286 1513.66 Q711.656 1513.66 714.851 1516.35 Q718.045 1519.03 718.045 1523.52 Q718.045 1525.65 717.235 1527.57 Q716.448 1529.47 714.341 1532.07 Q713.763 1532.74 710.661 1535.95 Q707.559 1539.15 701.911 1544.91 Z" fill="#000000" fill-rule="nonzero" fill-opacity="1" /><path clip-path="url(#clip900)" d="M728.045 1542.97 L732.929 1542.97 L732.929 1548.85 L728.045 1548.85 L728.045 1542.97 Z" fill="#000000" fill-rule="nonzero" fill-opacity="1" /><path clip-path="url(#clip900)" d="M743.161 1514.29 L761.517 1514.29 L761.517 1518.22 L747.443 1518.22 L747.443 1526.7 Q748.461 1526.35 749.48 1526.19 Q750.498 1526 751.517 1526 Q757.304 1526 760.684 1529.17 Q764.063 1532.34 764.063 1537.76 Q764.063 1543.34 760.591 1546.44 Q757.119 1549.52 750.799 1549.52 Q748.623 1549.52 746.355 1549.15 Q744.11 1548.78 741.702 1548.04 L741.702 1543.34 Q743.786 1544.47 746.008 1545.03 Q748.23 1545.58 750.707 1545.58 Q754.711 1545.58 757.049 1543.48 Q759.387 1541.37 759.387 1537.76 Q759.387 1534.15 757.049 1532.04 Q754.711 1529.94 750.707 1529.94 Q748.832 1529.94 746.957 1530.35 Q745.105 1530.77 743.161 1531.65 L743.161 1514.29 Z" fill="#000000" fill-rule="nonzero" fill-opacity="1" /><path clip-path="url(#clip900)" d="M1217.4 1514.29 L1235.75 1514.29 L1235.75 1518.22 L1221.68 1518.22 L1221.68 1526.7 Q1222.7 1526.35 1223.72 1526.19 Q1224.74 1526 1225.75 1526 Q1231.54 1526 1234.92 1529.17 Q1238.3 1532.34 1238.3 1537.76 Q1238.3 1543.34 1234.83 1546.44 Q1231.36 1549.52 1225.04 1549.52 Q1222.86 1549.52 1220.59 1549.15 Q1218.35 1548.78 1215.94 1548.04 L1215.94 1543.34 Q1218.02 1544.47 1220.24 1545.03 Q1222.47 1545.58 1224.94 1545.58 Q1228.95 1545.58 1231.29 1543.48 Q1233.62 1541.37 1233.62 1537.76 Q1233.62 1534.15 1231.29 1532.04 Q1228.95 1529.94 1224.94 1529.94 Q1223.07 1529.94 1221.19 1530.35 Q1219.34 1530.77 1217.4 1531.65 L1217.4 1514.29 Z" fill="#000000" fill-rule="nonzero" fill-opacity="1" /><path clip-path="url(#clip900)" d="M1247.51 1542.97 L1252.4 1542.97 L1252.4 1548.85 L1247.51 1548.85 L1247.51 1542.97 Z" fill="#000000" fill-rule="nonzero" fill-opacity="1" /><path clip-path="url(#clip900)" d="M1272.58 1517.37 Q1268.97 1517.37 1267.14 1520.93 Q1265.34 1524.47 1265.34 1531.6 Q1265.34 1538.71 1267.14 1542.27 Q1268.97 1545.82 1272.58 1545.82 Q1276.22 1545.82 1278.02 1542.27 Q1279.85 1538.71 1279.85 1531.6 Q1279.85 1524.47 1278.02 1520.93 Q1276.22 1517.37 1272.58 1517.37 M1272.58 1513.66 Q1278.39 1513.66 1281.45 1518.27 Q1284.53 1522.85 1284.53 1531.6 Q1284.53 1540.33 1281.45 1544.94 Q1278.39 1549.52 1272.58 1549.52 Q1266.77 1549.52 1263.69 1544.94 Q1260.64 1540.33 1260.64 1531.6 Q1260.64 1522.85 1263.69 1518.27 Q1266.77 1513.66 1272.58 1513.66 Z" fill="#000000" fill-rule="nonzero" fill-opacity="1" /><path clip-path="url(#clip900)" d="M1736.61 1514.29 L1758.83 1514.29 L1758.83 1516.28 L1746.29 1548.85 L1741.4 1548.85 L1753.21 1518.22 L1736.61 1518.22 L1736.61 1514.29 Z" fill="#000000" fill-rule="nonzero" fill-opacity="1" /><path clip-path="url(#clip900)" d="M1767.95 1542.97 L1772.84 1542.97 L1772.84 1548.85 L1767.95 1548.85 L1767.95 1542.97 Z" fill="#000000" fill-rule="nonzero" fill-opacity="1" /><path clip-path="url(#clip900)" d="M1783.07 1514.29 L1801.42 1514.29 L1801.42 1518.22 L1787.35 1518.22 L1787.35 1526.7 Q1788.37 1526.35 1789.39 1526.19 Q1790.41 1526 1791.42 1526 Q1797.21 1526 1800.59 1529.17 Q1803.97 1532.34 1803.97 1537.76 Q1803.97 1543.34 1800.5 1546.44 Q1797.03 1549.52 1790.71 1549.52 Q1788.53 1549.52 1786.26 1549.15 Q1784.02 1548.78 1781.61 1548.04 L1781.61 1543.34 Q1783.69 1544.47 1785.92 1545.03 Q1788.14 1545.58 1790.61 1545.58 Q1794.62 1545.58 1796.96 1543.48 Q1799.3 1541.37 1799.3 1537.76 Q1799.3 1534.15 1796.96 1532.04 Q1794.62 1529.94 1790.61 1529.94 Q1788.74 1529.94 1786.86 1530.35 Q1785.01 1530.77 1783.07 1531.65 L1783.07 1514.29 Z" fill="#000000" fill-rule="nonzero" fill-opacity="1" /><path clip-path="url(#clip900)" d="M2242.42 1544.91 L2250.06 1544.91 L2250.06 1518.55 L2241.75 1520.21 L2241.75 1515.95 L2250.01 1514.29 L2254.69 1514.29 L2254.69 1544.91 L2262.33 1544.91 L2262.33 1548.85 L2242.42 1548.85 L2242.42 1544.91 Z" fill="#000000" fill-rule="nonzero" fill-opacity="1" /><path clip-path="url(#clip900)" d="M2281.77 1517.37 Q2278.16 1517.37 2276.33 1520.93 Q2274.53 1524.47 2274.53 1531.6 Q2274.53 1538.71 2276.33 1542.27 Q2278.16 1545.82 2281.77 1545.82 Q2285.41 1545.82 2287.21 1542.27 Q2289.04 1538.71 2289.04 1531.6 Q2289.04 1524.47 2287.21 1520.93 Q2285.41 1517.37 2281.77 1517.37 M2281.77 1513.66 Q2287.58 1513.66 2290.64 1518.27 Q2293.72 1522.85 2293.72 1531.6 Q2293.72 1540.33 2290.64 1544.94 Q2287.58 1549.52 2281.77 1549.52 Q2275.96 1549.52 2272.88 1544.94 Q2269.83 1540.33 2269.83 1531.6 Q2269.83 1522.85 2272.88 1518.27 Q2275.96 1513.66 2281.77 1513.66 Z" fill="#000000" fill-rule="nonzero" fill-opacity="1" /><path clip-path="url(#clip900)" d="M2301.93 1542.97 L2306.82 1542.97 L2306.82 1548.85 L2301.93 1548.85 L2301.93 1542.97 Z" fill="#000000" fill-rule="nonzero" fill-opacity="1" /><path clip-path="url(#clip900)" d="M2327 1517.37 Q2323.39 1517.37 2321.56 1520.93 Q2319.76 1524.47 2319.76 1531.6 Q2319.76 1538.71 2321.56 1542.27 Q2323.39 1545.82 2327 1545.82 Q2330.64 1545.82 2332.44 1542.27 Q2334.27 1538.71 2334.27 1531.6 Q2334.27 1524.47 2332.44 1520.93 Q2330.64 1517.37 2327 1517.37 M2327 1513.66 Q2332.81 1513.66 2335.87 1518.27 Q2338.95 1522.85 2338.95 1531.6 Q2338.95 1540.33 2335.87 1544.94 Q2332.81 1549.52 2327 1549.52 Q2321.19 1549.52 2318.11 1544.94 Q2315.06 1540.33 2315.06 1531.6 Q2315.06 1522.85 2318.11 1518.27 Q2321.19 1513.66 2327 1513.66 Z" fill="#000000" fill-rule="nonzero" fill-opacity="1" /><polyline clip-path="url(#clip900)" style="stroke:#000000; stroke-linecap:round; stroke-linejoin:round; stroke-width:4; stroke-opacity:1; fill:none" points="147.709,1486.45 147.709,47.2441 "/>
<polyline clip-path="url(#clip900)" style="stroke:#000000; stroke-linecap:round; stroke-linejoin:round; stroke-width:4; stroke-opacity:1; fill:none" points="147.709,1167.7 166.607,1167.7 "/>
<polyline clip-path="url(#clip900)" style="stroke:#000000; stroke-linecap:round; stroke-linejoin:round; stroke-width:4; stroke-opacity:1; fill:none" points="147.709,832.975 166.607,832.975 "/>
<polyline clip-path="url(#clip900)" style="stroke:#000000; stroke-linecap:round; stroke-linejoin:round; stroke-width:4; stroke-opacity:1; fill:none" points="147.709,498.252 166.607,498.252 "/>
<polyline clip-path="url(#clip900)" style="stroke:#000000; stroke-linecap:round; stroke-linejoin:round; stroke-width:4; stroke-opacity:1; fill:none" points="147.709,163.529 166.607,163.529 "/>
<path clip-path="url(#clip900)" d="M50.9921 1168.15 L80.6679 1168.15 L80.6679 1172.08 L50.9921 1172.08 L50.9921 1168.15 Z" fill="#000000" fill-rule="nonzero" fill-opacity="1" /><path clip-path="url(#clip900)" d="M90.8067 1150.42 L109.163 1150.42 L109.163 1154.35 L95.0891 1154.35 L95.0891 1162.82 Q96.1076 1162.48 97.1261 1162.32 Q98.1447 1162.13 99.1632 1162.13 Q104.95 1162.13 108.33 1165.3 Q111.709 1168.47 111.709 1173.89 Q111.709 1179.47 108.237 1182.57 Q104.765 1185.65 98.4456 1185.65 Q96.2697 1185.65 94.0012 1185.28 Q91.7558 1184.91 89.3484 1184.17 L89.3484 1179.47 Q91.4317 1180.6 93.6539 1181.16 Q95.8761 1181.71 98.353 1181.71 Q102.358 1181.71 104.696 1179.61 Q107.033 1177.5 107.033 1173.89 Q107.033 1170.28 104.696 1168.17 Q102.358 1166.07 98.353 1166.07 Q96.478 1166.07 94.603 1166.48 Q92.7512 1166.9 90.8067 1167.78 L90.8067 1150.42 Z" fill="#000000" fill-rule="nonzero" fill-opacity="1" /><path clip-path="url(#clip900)" d="M99.765 818.773 Q96.1539 818.773 94.3252 822.338 Q92.5197 825.88 92.5197 833.009 Q92.5197 840.116 94.3252 843.68 Q96.1539 847.222 99.765 847.222 Q103.399 847.222 105.205 843.68 Q107.033 840.116 107.033 833.009 Q107.033 825.88 105.205 822.338 Q103.399 818.773 99.765 818.773 M99.765 815.07 Q105.575 815.07 108.631 819.676 Q111.709 824.259 111.709 833.009 Q111.709 841.736 108.631 846.343 Q105.575 850.926 99.765 850.926 Q93.9549 850.926 90.8762 846.343 Q87.8206 841.736 87.8206 833.009 Q87.8206 824.259 90.8762 819.676 Q93.9549 815.07 99.765 815.07 Z" fill="#000000" fill-rule="nonzero" fill-opacity="1" /><path clip-path="url(#clip900)" d="M90.8067 480.972 L109.163 480.972 L109.163 484.907 L95.0891 484.907 L95.0891 493.379 Q96.1076 493.032 97.1261 492.87 Q98.1447 492.685 99.1632 492.685 Q104.95 492.685 108.33 495.856 Q111.709 499.027 111.709 504.444 Q111.709 510.022 108.237 513.124 Q104.765 516.203 98.4456 516.203 Q96.2697 516.203 94.0012 515.833 Q91.7558 515.462 89.3484 514.722 L89.3484 510.022 Q91.4317 511.157 93.6539 511.712 Q95.8761 512.268 98.353 512.268 Q102.358 512.268 104.696 510.161 Q107.033 508.055 107.033 504.444 Q107.033 500.833 104.696 498.726 Q102.358 496.62 98.353 496.62 Q96.478 496.62 94.603 497.036 Q92.7512 497.453 90.8067 498.333 L90.8067 480.972 Z" fill="#000000" fill-rule="nonzero" fill-opacity="1" /><path clip-path="url(#clip900)" d="M60.4134 176.874 L68.0522 176.874 L68.0522 150.508 L59.7421 152.175 L59.7421 147.916 L68.0059 146.249 L72.6818 146.249 L72.6818 176.874 L80.3207 176.874 L80.3207 180.809 L60.4134 180.809 L60.4134 176.874 Z" fill="#000000" fill-rule="nonzero" fill-opacity="1" /><path clip-path="url(#clip900)" d="M99.765 149.328 Q96.1539 149.328 94.3252 152.892 Q92.5197 156.434 92.5197 163.564 Q92.5197 170.67 94.3252 174.235 Q96.1539 177.776 99.765 177.776 Q103.399 177.776 105.205 174.235 Q107.033 170.67 107.033 163.564 Q107.033 156.434 105.205 152.892 Q103.399 149.328 99.765 149.328 M99.765 145.624 Q105.575 145.624 108.631 150.23 Q111.709 154.814 111.709 163.564 Q111.709 172.29 108.631 176.897 Q105.575 181.48 99.765 181.48 Q93.9549 181.48 90.8762 176.897 Q87.8206 172.29 87.8206 163.564 Q87.8206 154.814 90.8762 150.23 Q93.9549 145.624 99.765 145.624 Z" fill="#000000" fill-rule="nonzero" fill-opacity="1" /><path clip-path="url(#clip901)" d="M210.116 915.307 L418.14 1378.9 L626.163 1445.72 L834.186 1432.39 L1042.21 1404.68 L1250.23 1371.78 L1458.26 1346.08 L1666.28 1318.82 L1874.3 1292.93 L2082.33 1270.9 L2290.35 1251.8 L2290.35 317.307 L2082.33 288.861 L1874.3 257.881 L1666.28 225.798 L1458.26 199.218 L1250.23 168.961 L1042.21 129.925 L834.186 96.5772 L626.163 87.9763 L418.14 184.642 L210.116 741.81  Z" fill="#009af9" fill-rule="evenodd" fill-opacity="0.2"/>
<polyline clip-path="url(#clip901)" style="stroke:#009af9; stroke-linecap:round; stroke-linejoin:round; stroke-width:12; stroke-opacity:1; fill:none" points="210.116,835.439 418.14,858.111 626.163,858.333 834.186,858.269 1042.21,853.371 1250.23,849.9 1458.26,847.035 1666.28,848.193 1874.3,843.987 2082.33,838.804 2290.35,841.021 "/>
<path clip-path="url(#clip901)" d="M210.116 909.284 L418.14 848.149 L626.163 835.981 L834.186 833.737 L1042.21 833.931 L1250.23 833.782 L1458.26 833.951 L1666.28 834.21 L1874.3 833.91 L2082.33 834.021 L2290.35 833.935 L2290.35 831.827 L2082.33 831.558 L1874.3 831.835 L1666.28 831.788 L1458.26 832.174 L1250.23 831.901 L1042.21 832.003 L834.186 831.575 L626.163 828.146 L418.14 812.03 L210.116 733.613  Z" fill="#e26f46" fill-rule="evenodd" fill-opacity="0.2"/>
<polyline clip-path="url(#clip901)" style="stroke:#e26f46; stroke-linecap:round; stroke-linejoin:round; stroke-width:12; stroke-opacity:1; fill:none" points="210.116,830.386 418.14,832.512 626.163,832.92 834.186,832.772 1042.21,832.982 1250.23,832.762 1458.26,832.914 1666.28,833.051 1874.3,833.144 2082.33,833.1 2290.35,832.555 "/>
</svg>
