<?xml version="1.0" encoding="utf-8"?>
<svg xmlns="http://www.w3.org/2000/svg" xmlns:xlink="http://www.w3.org/1999/xlink" width="600" height="400" viewBox="0 0 2400 1600">
<defs>
  <clipPath id="clip870">
    <rect x="0" y="0" width="2400" height="1600"/>
  </clipPath>
</defs>
<path clip-path="url(#clip870)" d="M0 1600 L2400 1600 L2400 0 L0 0  Z" fill="#ffffff" fill-rule="evenodd" fill-opacity="1"/>
<defs>
  <clipPath id="clip871">
    <rect x="112" y="47" width="2242" height="1377"/>
  </clipPath>
</defs>
<path clip-path="url(#clip870)" d="M112.177 1423.18 L2352.76 1423.18 L2352.76 47.2441 L112.177 47.2441  Z" fill="#ffffff" fill-rule="evenodd" fill-opacity="1"/>
<polyline clip-path="url(#clip871)" style="stroke:#000000; stroke-linecap:round; stroke-linejoin:round; stroke-width:2; stroke-opacity:0.1; fill:none" points="112.177,1423.18 112.177,47.2441 "/>
<polyline clip-path="url(#clip871)" style="stroke:#000000; stroke-linecap:round; stroke-linejoin:round; stroke-width:2; stroke-opacity:0.1; fill:none" points="560.293,1423.18 560.293,47.2441 "/>
<polyline clip-path="url(#clip871)" style="stroke:#000000; stroke-linecap:round; stroke-linejoin:round; stroke-width:2; stroke-opacity:0.1; fill:none" points="1008.41,1423.18 1008.41,47.2441 "/>
<polyline clip-path="url(#clip871)" style="stroke:#000000; stroke-linecap:round; stroke-linejoin:round; stroke-width:2; stroke-opacity:0.1; fill:none" points="1456.52,1423.18 1456.52,47.2441 "/>
<polyline clip-path="url(#clip871)" style="stroke:#000000; stroke-linecap:round; stroke-linejoin:round; stroke-width:2; stroke-opacity:0.1; fill:none" points="1904.64,1423.18 1904.64,47.2441 "/>
<polyline clip-path="url(#clip871)" style="stroke:#000000; stroke-linecap:round; stroke-linejoin:round; stroke-width:2; stroke-opacity:0.1; fill:none" points="2352.76,1423.18 2352.76,47.2441 "/>
<polyline clip-path="url(#clip871)" style="stroke:#000000; stroke-linecap:round; stroke-linejoin:round; stroke-width:2; stroke-opacity:0.1; fill:none" points="112.177,1279.33 2352.76,1279.33 "/>
<polyline clip-path="url(#clip871)" style="stroke:#000000; stroke-linecap:round; stroke-linejoin:round; stroke-width:2; stroke-opacity:0.1; fill:none" points="112.177,974.916 2352.76,974.916 "/>
<polyline clip-path="url(#clip871)" style="stroke:#000000; stroke-linecap:round; stroke-linejoin:round; stroke-width:2; stroke-opacity:0.1; fill:none" points="112.177,670.506 2352.76,670.506 "/>
<polyline clip-path="url(#clip871)" style="stroke:#000000; stroke-linecap:round; stroke-linejoin:round; stroke-width:2; stroke-opacity:0.1; fill:none" points="112.177,366.097 2352.76,366.097 "/>
<polyline clip-path="url(#clip871)" style="stroke:#000000; stroke-linecap:round; stroke-linejoin:round; stroke-width:2; stroke-opacity:0.1; fill:none" points="112.177,61.6871 2352.76,61.6871 "/>
<polyline clip-path="url(#clip870)" style="stroke:#000000; stroke-linecap:round; stroke-linejoin:round; stroke-width:4; stroke-opacity:1; fill:none" points="112.177,1423.18 2352.76,1423.18 "/>
<polyline clip-path="url(#clip870)" style="stroke:#000000; stroke-linecap:round; stroke-linejoin:round; stroke-width:4; stroke-opacity:1; fill:none" points="112.177,1423.18 112.177,1404.28 "/>
<polyline clip-path="url(#clip870)" style="stroke:#000000; stroke-linecap:round; stroke-linejoin:round; stroke-width:4; stroke-opacity:1; fill:none" points="560.293,1423.18 560.293,1404.28 "/>
<polyline clip-path="url(#clip870)" style="stroke:#000000; stroke-linecap:round; stroke-linejoin:round; stroke-width:4; stroke-opacity:1; fill:none" points="1008.41,1423.18 1008.41,1404.28 "/>
<polyline clip-path="url(#clip870)" style="stroke:#000000; stroke-linecap:round; stroke-linejoin:round; stroke-width:4; stroke-opacity:1; fill:none" points="1456.52,1423.18 1456.52,1404.28 "/>
<polyline clip-path="url(#clip870)" style="stroke:#000000; stroke-linecap:round; stroke-linejoin:round; stroke-width:4; stroke-opacity:1; fill:none" points="1904.64,1423.18 1904.64,1404.28 "/>
<polyline clip-path="url(#clip870)" style="stroke:#000000; stroke-linecap:round; stroke-linejoin:round; stroke-width:4; stroke-opacity:1; fill:none" points="2352.76,1423.18 2352.76,1404.28 "/>
<path clip-path="url(#clip870)" d="M112.177 1454.1 Q108.566 1454.1 106.737 1457.66 Q104.932 1461.2 104.932 1468.33 Q104.932 1475.44 106.737 1479.01 Q108.566 1482.55 112.177 1482.55 Q115.811 1482.55 117.617 1479.01 Q119.446 1475.44 119.446 1468.33 Q119.446 1461.2 117.617 1457.66 Q115.811 1454.1 112.177 1454.1 M112.177 1450.39 Q117.987 1450.39 121.043 1455 Q124.122 1459.58 124.122 1468.33 Q124.122 1477.06 121.043 1481.67 Q117.987 1486.25 112.177 1486.25 Q106.367 1486.25 103.288 1481.67 Q100.233 1477.06 100.233 1468.33 Q100.233 1459.58 103.288 1455 Q106.367 1450.39 112.177 1450.39 Z" fill="#000000" fill-rule="nonzero" fill-opacity="1" /><path clip-path="url(#clip870)" d="M554.946 1481.64 L571.265 1481.64 L571.265 1485.58 L549.321 1485.58 L549.321 1481.64 Q551.983 1478.89 556.566 1474.26 Q561.173 1469.61 562.353 1468.27 Q564.598 1465.74 565.478 1464.01 Q566.381 1462.25 566.381 1460.56 Q566.381 1457.8 564.436 1456.07 Q562.515 1454.33 559.413 1454.33 Q557.214 1454.33 554.761 1455.09 Q552.33 1455.86 549.552 1457.41 L549.552 1452.69 Q552.376 1451.55 554.83 1450.97 Q557.284 1450.39 559.321 1450.39 Q564.691 1450.39 567.885 1453.08 Q571.08 1455.77 571.08 1460.26 Q571.08 1462.39 570.27 1464.31 Q569.483 1466.2 567.376 1468.8 Q566.798 1469.47 563.696 1472.69 Q560.594 1475.88 554.946 1481.64 Z" fill="#000000" fill-rule="nonzero" fill-opacity="1" /><path clip-path="url(#clip870)" d="M1011.42 1455.09 L999.612 1473.54 L1011.42 1473.54 L1011.42 1455.09 M1010.19 1451.02 L1016.07 1451.02 L1016.07 1473.54 L1021 1473.54 L1021 1477.43 L1016.07 1477.43 L1016.07 1485.58 L1011.42 1485.58 L1011.42 1477.43 L995.816 1477.43 L995.816 1472.92 L1010.19 1451.02 Z" fill="#000000" fill-rule="nonzero" fill-opacity="1" /><path clip-path="url(#clip870)" d="M1456.93 1466.44 Q1453.78 1466.44 1451.93 1468.59 Q1450.1 1470.74 1450.1 1474.49 Q1450.1 1478.22 1451.93 1480.39 Q1453.78 1482.55 1456.93 1482.55 Q1460.08 1482.55 1461.91 1480.39 Q1463.76 1478.22 1463.76 1474.49 Q1463.76 1470.74 1461.91 1468.59 Q1460.08 1466.44 1456.93 1466.44 M1466.21 1451.78 L1466.21 1456.04 Q1464.45 1455.21 1462.65 1454.77 Q1460.86 1454.33 1459.11 1454.33 Q1454.48 1454.33 1452.02 1457.45 Q1449.59 1460.58 1449.24 1466.9 Q1450.61 1464.89 1452.67 1463.82 Q1454.73 1462.73 1457.21 1462.73 Q1462.42 1462.73 1465.42 1465.9 Q1468.46 1469.05 1468.46 1474.49 Q1468.46 1479.82 1465.31 1483.03 Q1462.16 1486.25 1456.93 1486.25 Q1450.93 1486.25 1447.76 1481.67 Q1444.59 1477.06 1444.59 1468.33 Q1444.59 1460.14 1448.48 1455.28 Q1452.37 1450.39 1458.92 1450.39 Q1460.68 1450.39 1462.46 1450.74 Q1464.27 1451.09 1466.21 1451.78 Z" fill="#000000" fill-rule="nonzero" fill-opacity="1" /><path clip-path="url(#clip870)" d="M1904.64 1469.17 Q1901.31 1469.17 1899.39 1470.95 Q1897.49 1472.73 1897.49 1475.86 Q1897.49 1478.98 1899.39 1480.77 Q1901.31 1482.55 1904.64 1482.55 Q1907.97 1482.55 1909.89 1480.77 Q1911.82 1478.96 1911.82 1475.86 Q1911.82 1472.73 1909.89 1470.95 Q1908 1469.17 1904.64 1469.17 M1899.96 1467.18 Q1896.96 1466.44 1895.27 1464.38 Q1893.6 1462.32 1893.6 1459.35 Q1893.6 1455.21 1896.54 1452.8 Q1899.5 1450.39 1904.64 1450.39 Q1909.8 1450.39 1912.74 1452.8 Q1915.68 1455.21 1915.68 1459.35 Q1915.68 1462.32 1913.99 1464.38 Q1912.33 1466.44 1909.34 1467.18 Q1912.72 1467.96 1914.59 1470.26 Q1916.49 1472.55 1916.49 1475.86 Q1916.49 1480.88 1913.41 1483.57 Q1910.36 1486.25 1904.64 1486.25 Q1898.92 1486.25 1895.84 1483.57 Q1892.79 1480.88 1892.79 1475.86 Q1892.79 1472.55 1894.69 1470.26 Q1896.58 1467.96 1899.96 1467.18 M1898.25 1459.79 Q1898.25 1462.48 1899.92 1463.98 Q1901.61 1465.49 1904.64 1465.49 Q1907.65 1465.49 1909.34 1463.98 Q1911.05 1462.48 1911.05 1459.79 Q1911.05 1457.11 1909.34 1455.6 Q1907.65 1454.1 1904.64 1454.1 Q1901.61 1454.1 1899.92 1455.6 Q1898.25 1457.11 1898.25 1459.79 Z" fill="#000000" fill-rule="nonzero" fill-opacity="1" /><path clip-path="url(#clip870)" d="M2327.44 1481.64 L2335.08 1481.64 L2335.08 1455.28 L2326.77 1456.95 L2326.77 1452.69 L2335.04 1451.02 L2339.71 1451.02 L2339.71 1481.64 L2347.35 1481.64 L2347.35 1485.58 L2327.44 1485.58 L2327.44 1481.64 Z" fill="#000000" fill-rule="nonzero" fill-opacity="1" /><path clip-path="url(#clip870)" d="M2366.8 1454.1 Q2363.18 1454.1 2361.36 1457.66 Q2359.55 1461.2 2359.55 1468.33 Q2359.55 1475.44 2361.36 1479.01 Q2363.18 1482.55 2366.8 1482.55 Q2370.43 1482.55 2372.23 1479.01 Q2374.06 1475.44 2374.06 1468.33 Q2374.06 1461.2 2372.23 1457.66 Q2370.43 1454.1 2366.8 1454.1 M2366.8 1450.39 Q2372.61 1450.39 2375.66 1455 Q2378.74 1459.58 2378.74 1468.33 Q2378.74 1477.06 2375.66 1481.67 Q2372.61 1486.25 2366.8 1486.25 Q2360.99 1486.25 2357.91 1481.67 Q2354.85 1477.06 2354.85 1468.33 Q2354.85 1459.58 2357.91 1455 Q2360.99 1450.39 2366.8 1450.39 Z" fill="#000000" fill-rule="nonzero" fill-opacity="1" /><path clip-path="url(#clip870)" d="M1231.53 1522.27 L1231.53 1532.4 L1243.59 1532.4 L1243.59 1536.95 L1231.53 1536.95 L1231.53 1556.3 Q1231.53 1560.66 1232.71 1561.9 Q1233.91 1563.14 1237.58 1563.14 L1243.59 1563.14 L1243.59 1568.04 L1237.58 1568.04 Q1230.8 1568.04 1228.22 1565.53 Q1225.64 1562.98 1225.64 1556.3 L1225.64 1536.95 L1221.34 1536.95 L1221.34 1532.4 L1225.64 1532.4 L1225.64 1522.27 L1231.53 1522.27 Z" fill="#000000" fill-rule="nonzero" fill-opacity="1" /><polyline clip-path="url(#clip870)" style="stroke:#000000; stroke-linecap:round; stroke-linejoin:round; stroke-width:4; stroke-opacity:1; fill:none" points="112.177,1423.18 112.177,47.2441 "/>
<polyline clip-path="url(#clip870)" style="stroke:#000000; stroke-linecap:round; stroke-linejoin:round; stroke-width:4; stroke-opacity:1; fill:none" points="112.177,1279.33 131.075,1279.33 "/>
<polyline clip-path="url(#clip870)" style="stroke:#000000; stroke-linecap:round; stroke-linejoin:round; stroke-width:4; stroke-opacity:1; fill:none" points="112.177,974.916 131.075,974.916 "/>
<polyline clip-path="url(#clip870)" style="stroke:#000000; stroke-linecap:round; stroke-linejoin:round; stroke-width:4; stroke-opacity:1; fill:none" points="112.177,670.506 131.075,670.506 "/>
<polyline clip-path="url(#clip870)" style="stroke:#000000; stroke-linecap:round; stroke-linejoin:round; stroke-width:4; stroke-opacity:1; fill:none" points="112.177,366.097 131.075,366.097 "/>
<polyline clip-path="url(#clip870)" style="stroke:#000000; stroke-linecap:round; stroke-linejoin:round; stroke-width:4; stroke-opacity:1; fill:none" points="112.177,61.6871 131.075,61.6871 "/>
<path clip-path="url(#clip870)" d="M64.2328 1265.12 Q60.6217 1265.12 58.793 1268.69 Q56.9875 1272.23 56.9875 1279.36 Q56.9875 1286.47 58.793 1290.03 Q60.6217 1293.57 64.2328 1293.57 Q67.867 1293.57 69.6726 1290.03 Q71.5013 1286.47 71.5013 1279.36 Q71.5013 1272.23 69.6726 1268.69 Q67.867 1265.12 64.2328 1265.12 M64.2328 1261.42 Q70.0429 1261.42 73.0985 1266.03 Q76.1772 1270.61 76.1772 1279.36 Q76.1772 1288.09 73.0985 1292.69 Q70.0429 1297.28 64.2328 1297.28 Q58.4226 1297.28 55.344 1292.69 Q52.2884 1288.09 52.2884 1279.36 Q52.2884 1270.61 55.344 1266.03 Q58.4226 1261.42 64.2328 1261.42 Z" fill="#000000" fill-rule="nonzero" fill-opacity="1" /><path clip-path="url(#clip870)" d="M56.2699 988.261 L63.9087 988.261 L63.9087 961.895 L55.5986 963.562 L55.5986 959.303 L63.8624 957.636 L68.5383 957.636 L68.5383 988.261 L76.1772 988.261 L76.1772 992.196 L56.2699 992.196 L56.2699 988.261 Z" fill="#000000" fill-rule="nonzero" fill-opacity="1" /><path clip-path="url(#clip870)" d="M59.8578 683.851 L76.1772 683.851 L76.1772 687.786 L54.2328 687.786 L54.2328 683.851 Q56.8949 681.097 61.4782 676.467 Q66.0846 671.814 67.2652 670.472 Q69.5105 667.948 70.3902 666.212 Q71.2929 664.453 71.2929 662.763 Q71.2929 660.009 69.3485 658.273 Q67.4272 656.536 64.3254 656.536 Q62.1263 656.536 59.6726 657.3 Q57.2421 658.064 54.4643 659.615 L54.4643 654.893 Q57.2884 653.759 59.7421 653.18 Q62.1958 652.601 64.2328 652.601 Q69.6031 652.601 72.7976 655.286 Q75.992 657.972 75.992 662.462 Q75.992 664.592 75.1818 666.513 Q74.3948 668.411 72.2883 671.004 Q71.7096 671.675 68.6078 674.893 Q65.5059 678.087 59.8578 683.851 Z" fill="#000000" fill-rule="nonzero" fill-opacity="1" /><path clip-path="url(#clip870)" d="M69.0476 364.743 Q72.404 365.46 74.279 367.729 Q76.1772 369.997 76.1772 373.33 Q76.1772 378.446 72.6587 381.247 Q69.1402 384.048 62.6587 384.048 Q60.4828 384.048 58.168 383.608 Q55.8764 383.192 53.4227 382.335 L53.4227 377.821 Q55.3671 378.955 57.6819 379.534 Q59.9967 380.113 62.5198 380.113 Q66.918 380.113 69.2096 378.377 Q71.5244 376.641 71.5244 373.33 Q71.5244 370.275 69.3717 368.562 Q67.242 366.826 63.4226 366.826 L59.3949 366.826 L59.3949 362.983 L63.6078 362.983 Q67.0569 362.983 68.8855 361.618 Q70.7142 360.229 70.7142 357.636 Q70.7142 354.974 68.8161 353.562 Q66.9411 352.127 63.4226 352.127 Q61.5013 352.127 59.3023 352.544 Q57.1032 352.96 54.4643 353.84 L54.4643 349.673 Q57.1264 348.932 59.4412 348.562 Q61.7791 348.192 63.8393 348.192 Q69.1633 348.192 72.2652 350.622 Q75.367 353.03 75.367 357.15 Q75.367 360.02 73.7235 362.011 Q72.08 363.979 69.0476 364.743 Z" fill="#000000" fill-rule="nonzero" fill-opacity="1" /><path clip-path="url(#clip870)" d="M66.5939 48.4812 L54.7884 66.9301 L66.5939 66.9301 L66.5939 48.4812 M65.367 44.4071 L71.2466 44.4071 L71.2466 66.9301 L76.1772 66.9301 L76.1772 70.819 L71.2466 70.819 L71.2466 78.9671 L66.5939 78.9671 L66.5939 70.819 L50.9921 70.819 L50.9921 66.3051 L65.367 44.4071 Z" fill="#000000" fill-rule="nonzero" fill-opacity="1" /><polyline clip-path="url(#clip871)" style="stroke:#009af9; stroke-linecap:round; stroke-linejoin:round; stroke-width:4; stroke-opacity:1; fill:none" points="112.177,1384.24 336.235,259.146 560.293,86.1857 784.351,101.049 1008.41,151.004 1232.47,205.628 1456.52,258.955 1680.58,309.902 1904.64,358.358 2128.7,404.404 2352.76,448.149 "/>
<polyline clip-path="url(#clip871)" style="stroke:#e26f46; stroke-linecap:round; stroke-linejoin:round; stroke-width:4; stroke-opacity:1; fill:none" points="112.177,1098.71 336.235,1243.2 560.293,1272.1 784.351,1277.88 1008.41,1279.04 1232.47,1279.27 1456.52,1279.31 1680.58,1279.32 1904.64,1279.33 2128.7,1279.33 2352.76,1279.33 "/>
<path clip-path="url(#clip870)" d="M1964.92 248.629 L2278.07 248.629 L2278.07 93.1086 L1964.92 93.1086  Z" fill="#ffffff" fill-rule="evenodd" fill-opacity="1"/>
<polyline clip-path="url(#clip870)" style="stroke:#000000; stroke-linecap:round; stroke-linejoin:round; stroke-width:4; stroke-opacity:1; fill:none" points="1964.92,248.629 2278.07,248.629 2278.07,93.1086 1964.92,93.1086 1964.92,248.629 "/>
<polyline clip-path="url(#clip870)" style="stroke:#009af9; stroke-linecap:round; stroke-linejoin:round; stroke-width:4; stroke-opacity:1; fill:none" points="1989.81,144.949 2139.18,144.949 "/>
<path clip-path="url(#clip870)" d="M2164.08 151.997 L2164.08 136.303 L2168.34 136.303 L2168.34 151.835 Q2168.34 155.516 2169.77 157.368 Q2171.21 159.196 2174.08 159.196 Q2177.53 159.196 2179.52 156.997 Q2181.53 154.798 2181.53 151.002 L2181.53 136.303 L2185.79 136.303 L2185.79 162.229 L2181.53 162.229 L2181.53 158.247 Q2179.98 160.608 2177.92 161.766 Q2175.88 162.9 2173.18 162.9 Q2168.71 162.9 2166.39 160.122 Q2164.08 157.344 2164.08 151.997 M2174.8 135.678 L2174.8 135.678 Z" fill="#000000" fill-rule="nonzero" fill-opacity="1" /><path clip-path="url(#clip870)" d="M2194.17 126.21 L2203.99 126.21 L2203.99 129.52 L2198.43 129.52 L2198.43 165.168 L2203.99 165.168 L2203.99 168.479 L2194.17 168.479 L2194.17 126.21 Z" fill="#000000" fill-rule="nonzero" fill-opacity="1" /><path clip-path="url(#clip870)" d="M2214.47 158.293 L2222.11 158.293 L2222.11 131.928 L2213.8 133.595 L2213.8 129.335 L2222.06 127.669 L2226.74 127.669 L2226.74 158.293 L2234.38 158.293 L2234.38 162.229 L2214.47 162.229 L2214.47 158.293 Z" fill="#000000" fill-rule="nonzero" fill-opacity="1" /><path clip-path="url(#clip870)" d="M2253.17 126.21 L2253.17 168.479 L2243.36 168.479 L2243.36 165.168 L2248.89 165.168 L2248.89 129.52 L2243.36 129.52 L2243.36 126.21 L2253.17 126.21 Z" fill="#000000" fill-rule="nonzero" fill-opacity="1" /><polyline clip-path="url(#clip870)" style="stroke:#e26f46; stroke-linecap:round; stroke-linejoin:round; stroke-width:4; stroke-opacity:1; fill:none" points="1989.81,196.789 2139.18,196.789 "/>
<path clip-path="url(#clip870)" d="M2164.08 203.837 L2164.08 188.143 L2168.34 188.143 L2168.34 203.675 Q2168.34 207.356 2169.77 209.208 Q2171.21 211.036 2174.08 211.036 Q2177.53 211.036 2179.52 208.837 Q2181.53 206.638 2181.53 202.842 L2181.53 188.143 L2185.79 188.143 L2185.79 214.069 L2181.53 214.069 L2181.53 210.087 Q2179.98 212.448 2177.92 213.606 Q2175.88 214.74 2173.18 214.74 Q2168.71 214.74 2166.39 211.962 Q2164.08 209.184 2164.08 203.837 M2174.8 187.518 L2174.8 187.518 Z" fill="#000000" fill-rule="nonzero" fill-opacity="1" /><path clip-path="url(#clip870)" d="M2194.17 178.05 L2203.99 178.05 L2203.99 181.36 L2198.43 181.36 L2198.43 217.008 L2203.99 217.008 L2203.99 220.319 L2194.17 220.319 L2194.17 178.05 Z" fill="#000000" fill-rule="nonzero" fill-opacity="1" /><path clip-path="url(#clip870)" d="M2217.69 210.133 L2234.01 210.133 L2234.01 214.069 L2212.06 214.069 L2212.06 210.133 Q2214.73 207.379 2219.31 202.749 Q2223.92 198.096 2225.1 196.754 Q2227.34 194.231 2228.22 192.495 Q2229.12 190.735 2229.12 189.046 Q2229.12 186.291 2227.18 184.555 Q2225.26 182.819 2222.16 182.819 Q2219.96 182.819 2217.5 183.583 Q2215.07 184.347 2212.3 185.897 L2212.3 181.175 Q2215.12 180.041 2217.57 179.462 Q2220.03 178.884 2222.06 178.884 Q2227.43 178.884 2230.63 181.569 Q2233.82 184.254 2233.82 188.745 Q2233.82 190.874 2233.01 192.796 Q2232.23 194.694 2230.12 197.286 Q2229.54 197.958 2226.44 201.175 Q2223.34 204.37 2217.69 210.133 Z" fill="#000000" fill-rule="nonzero" fill-opacity="1" /><path clip-path="url(#clip870)" d="M2253.17 178.05 L2253.17 220.319 L2243.36 220.319 L2243.36 217.008 L2248.89 217.008 L2248.89 181.36 L2243.36 181.36 L2243.36 178.05 L2253.17 178.05 Z" fill="#000000" fill-rule="nonzero" fill-opacity="1" /></svg>
