<?xml version="1.0" encoding="utf-8"?>
<svg xmlns="http://www.w3.org/2000/svg" xmlns:xlink="http://www.w3.org/1999/xlink" width="600" height="400" viewBox="0 0 2400 1600">
<defs>
  <clipPath id="clip810">
    <rect x="0" y="0" width="2400" height="1600"/>
  </clipPath>
</defs>
<path clip-path="url(#clip810)" d="M0 1600 L2400 1600 L2400 0 L0 0  Z" fill="#ffffff" fill-rule="evenodd" fill-opacity="1"/>
<defs>
  <clipPath id="clip811">
    <rect x="112" y="47" width="2242" height="1377"/>
  </clipPath>
</defs>
<path clip-path="url(#clip810)" d="M112.177 1423.18 L2352.76 1423.18 L2352.76 47.2441 L112.177 47.2441  Z" fill="#ffffff" fill-rule="evenodd" fill-opacity="1"/>
<polyline clip-path="url(#clip811)" style="stroke:#000000; stroke-linecap:round; stroke-linejoin:round; stroke-width:2; stroke-opacity:0.1; fill:none" points="112.177,1423.18 112.177,47.2441 "/>
<polyline clip-path="url(#clip811)" style="stroke:#000000; stroke-linecap:round; stroke-linejoin:round; stroke-width:2; stroke-opacity:0.1; fill:none" points="560.293,1423.18 560.293,47.2441 "/>
<polyline clip-path="url(#clip811)" style="stroke:#000000; stroke-linecap:round; stroke-linejoin:round; stroke-width:2; stroke-opacity:0.1; fill:none" points="1008.41,1423.18 1008.41,47.2441 "/>
<polyline clip-path="url(#clip811)" style="stroke:#000000; stroke-linecap:round; stroke-linejoin:round; stroke-width:2; stroke-opacity:0.1; fill:none" points="1456.52,1423.18 1456.52,47.2441 "/>
<polyline clip-path="url(#clip811)" style="stroke:#000000; stroke-linecap:round; stroke-linejoin:round; stroke-width:2; stroke-opacity:0.1; fill:none" points="1904.64,1423.18 1904.64,47.2441 "/>
<polyline clip-path="url(#clip811)" style="stroke:#000000; stroke-linecap:round; stroke-linejoin:round; stroke-width:2; stroke-opacity:0.1; fill:none" points="2352.76,1423.18 2352.76,47.2441 "/>
<polyline clip-path="url(#clip811)" style="stroke:#000000; stroke-linecap:round; stroke-linejoin:round; stroke-width:2; stroke-opacity:0.1; fill:none" points="112.177,1384.24 2352.76,1384.24 "/>
<polyline clip-path="url(#clip811)" style="stroke:#000000; stroke-linecap:round; stroke-linejoin:round; stroke-width:2; stroke-opacity:0.1; fill:none" points="112.177,1093.68 2352.76,1093.68 "/>
<polyline clip-path="url(#clip811)" style="stroke:#000000; stroke-linecap:round; stroke-linejoin:round; stroke-width:2; stroke-opacity:0.1; fill:none" points="112.177,803.129 2352.76,803.129 "/>
<polyline clip-path="url(#clip811)" style="stroke:#000000; stroke-linecap:round; stroke-linejoin:round; stroke-width:2; stroke-opacity:0.1; fill:none" points="112.177,512.575 2352.76,512.575 "/>
<polyline clip-path="url(#clip811)" style="stroke:#000000; stroke-linecap:round; stroke-linejoin:round; stroke-width:2; stroke-opacity:0.1; fill:none" points="112.177,222.02 2352.76,222.02 "/>
<polyline clip-path="url(#clip810)" style="stroke:#000000; stroke-linecap:round; stroke-linejoin:round; stroke-width:4; stroke-opacity:1; fill:none" points="112.177,1423.18 2352.76,1423.18 "/>
<polyline clip-path="url(#clip810)" style="stroke:#000000; stroke-linecap:round; stroke-linejoin:round; stroke-width:4; stroke-opacity:1; fill:none" points="112.177,1423.18 112.177,1404.28 "/>
<polyline clip-path="url(#clip810)" style="stroke:#000000; stroke-linecap:round; stroke-linejoin:round; stroke-width:4; stroke-opacity:1; fill:none" points="560.293,1423.18 560.293,1404.28 "/>
<polyline clip-path="url(#clip810)" style="stroke:#000000; stroke-linecap:round; stroke-linejoin:round; stroke-width:4; stroke-opacity:1; fill:none" points="1008.41,1423.18 1008.41,1404.28 "/>
<polyline clip-path="url(#clip810)" style="stroke:#000000; stroke-linecap:round; stroke-linejoin:round; stroke-width:4; stroke-opacity:1; fill:none" points="1456.52,1423.18 1456.52,1404.28 "/>
<polyline clip-path="url(#clip810)" style="stroke:#000000; stroke-linecap:round; stroke-linejoin:round; stroke-width:4; stroke-opacity:1; fill:none" points="1904.64,1423.18 1904.64,1404.28 "/>
<polyline clip-path="url(#clip810)" style="stroke:#000000; stroke-linecap:round; stroke-linejoin:round; stroke-width:4; stroke-opacity:1; fill:none" points="2352.76,1423.18 2352.76,1404.28 "/>
<path clip-path="url(#clip810)" d="M112.177 1454.1 Q108.566 1454.1 106.737 1457.66 Q104.932 1461.2 104.932 1468.33 Q104.932 1475.44 106.737 1479.01 Q108.566 1482.55 112.177 1482.55 Q115.811 1482.55 117.617 1479.01 Q119.446 1475.44 119.446 1468.33 Q119.446 1461.2 117.617 1457.66 Q115.811 1454.1 112.177 1454.1 M112.177 1450.39 Q117.987 1450.39 121.043 1455 Q124.122 1459.58 124.122 1468.33 Q124.122 1477.06 121.043 1481.67 Q117.987 1486.25 112.177 1486.25 Q106.367 1486.25 103.288 1481.67 Q100.233 1477.06 100.233 1468.33 Q100.233 1459.58 103.288 1455 Q106.367 1450.39 112.177 1450.39 Z" fill="#000000" fill-rule="nonzero" fill-opacity="1" /><path clip-path="url(#clip810)" d="M554.946 1481.64 L571.265 1481.64 L571.265 1485.58 L549.321 1485.58 L549.321 1481.64 Q551.983 1478.89 556.566 1474.26 Q561.173 1469.61 562.353 1468.27 Q564.598 1465.74 565.478 1464.01 Q566.381 1462.25 566.381 1460.56 Q566.381 1457.8 564.436 1456.07 Q562.515 1454.33 559.413 1454.33 Q557.214 1454.33 554.761 1455.09 Q552.33 1455.86 549.552 1457.41 L549.552 1452.69 Q552.376 1451.55 554.83 1450.97 Q557.284 1450.39 559.321 1450.39 Q564.691 1450.39 567.885 1453.08 Q571.08 1455.77 571.08 1460.26 Q571.08 1462.39 570.27 1464.31 Q569.483 1466.2 567.376 1468.8 Q566.798 1469.47 563.696 1472.69 Q560.594 1475.88 554.946 1481.64 Z" fill="#000000" fill-rule="nonzero" fill-opacity="1" /><path clip-path="url(#clip810)" d="M1011.42 1455.09 L999.612 1473.54 L1011.42 1473.54 L1011.42 1455.09 M1010.19 1451.02 L1016.07 1451.02 L1016.07 1473.54 L1021 1473.54 L1021 1477.43 L1016.07 1477.43 L1016.07 1485.58 L1011.42 1485.58 L1011.42 1477.43 L995.816 1477.43 L995.816 1472.92 L1010.19 1451.02 Z" fill="#000000" fill-rule="nonzero" fill-opacity="1" /><path clip-path="url(#clip810)" d="M1456.93 1466.44 Q1453.78 1466.44 1451.93 1468.59 Q1450.1 1470.74 1450.1 1474.49 Q1450.1 1478.22 1451.93 1480.39 Q1453.78 1482.55 1456.93 1482.55 Q1460.08 1482.55 1461.91 1480.39 Q1463.76 1478.22 1463.76 1474.49 Q1463.76 1470.74 1461.91 1468.59 Q1460.08 1466.44 1456.93 1466.44 M1466.21 1451.78 L1466.21 1456.04 Q1464.45 1455.21 1462.65 1454.77 Q1460.86 1454.33 1459.11 1454.33 Q1454.48 1454.33 1452.02 1457.45 Q1449.59 1460.58 1449.24 1466.9 Q1450.61 1464.89 1452.67 1463.82 Q1454.73 1462.73 1457.21 1462.73 Q1462.42 1462.73 1465.42 1465.9 Q1468.46 1469.05 1468.46 1474.49 Q1468.46 1479.82 1465.31 1483.03 Q1462.16 1486.25 1456.93 1486.25 Q1450.93 1486.25 1447.76 1481.67 Q1444.59 1477.06 1444.59 1468.33 Q1444.59 1460.14 1448.48 1455.28 Q1452.37 1450.39 1458.92 1450.39 Q1460.68 1450.39 1462.46 1450.74 Q1464.27 1451.09 1466.21 1451.78 Z" fill="#000000" fill-rule="nonzero" fill-opacity="1" /><path clip-path="url(#clip810)" d="M1904.64 1469.17 Q1901.31 1469.17 1899.39 1470.95 Q1897.49 1472.73 1897.49 1475.86 Q1897.49 1478.98 1899.39 1480.77 Q1901.31 1482.55 1904.64 1482.55 Q1907.97 1482.55 1909.89 1480.77 Q1911.82 1478.96 1911.82 1475.86 Q1911.82 1472.73 1909.89 1470.95 Q1908 1469.17 1904.64 1469.17 M1899.96 1467.18 Q1896.96 1466.44 1895.27 1464.38 Q1893.6 1462.32 1893.6 1459.35 Q1893.6 1455.21 1896.54 1452.8 Q1899.5 1450.39 1904.64 1450.39 Q1909.8 1450.39 1912.74 1452.8 Q1915.68 1455.21 1915.68 1459.35 Q1915.68 1462.32 1913.99 1464.38 Q1912.33 1466.44 1909.34 1467.18 Q1912.72 1467.96 1914.59 1470.26 Q1916.49 1472.55 1916.49 1475.86 Q1916.49 1480.88 1913.41 1483.57 Q1910.36 1486.25 1904.64 1486.25 Q1898.92 1486.25 1895.84 1483.57 Q1892.79 1480.88 1892.79 1475.86 Q1892.79 1472.55 1894.69 1470.26 Q1896.58 1467.96 1899.96 1467.18 M1898.25 1459.79 Q1898.25 1462.48 1899.92 1463.98 Q1901.61 1465.49 1904.64 1465.49 Q1907.65 1465.49 1909.34 1463.98 Q1911.05 1462.48 1911.05 1459.79 Q1911.05 1457.11 1909.34 1455.6 Q1907.65 1454.1 1904.64 1454.1 Q1901.61 1454.1 1899.92 1455.6 Q1898.25 1457.11 1898.25 1459.79 Z" fill="#000000" fill-rule="nonzero" fill-opacity="1" /><path clip-path="url(#clip810)" d="M2327.44 1481.64 L2335.08 1481.64 L2335.08 1455.28 L2326.77 1456.95 L2326.77 1452.69 L2335.04 1451.02 L2339.71 1451.02 L2339.71 1481.64 L2347.35 1481.64 L2347.35 1485.58 L2327.44 1485.58 L2327.44 1481.64 Z" fill="#000000" fill-rule="nonzero" fill-opacity="1" /><path clip-path="url(#clip810)" d="M2366.8 1454.1 Q2363.18 1454.1 2361.36 1457.66 Q2359.55 1461.2 2359.55 1468.33 Q2359.55 1475.44 2361.36 1479.01 Q2363.18 1482.55 2366.8 1482.55 Q2370.43 1482.55 2372.23 1479.01 Q2374.06 1475.44 2374.06 1468.33 Q2374.06 1461.2 2372.23 1457.66 Q2370.43 1454.1 2366.8 1454.1 M2366.8 1450.39 Q2372.61 1450.39 2375.66 1455 Q2378.74 1459.58 2378.74 1468.33 Q2378.74 1477.06 2375.66 1481.67 Q2372.61 1486.25 2366.8 1486.25 Q2360.99 1486.25 2357.91 1481.67 Q2354.85 1477.06 2354.85 1468.33 Q2354.85 1459.58 2357.91 1455 Q2360.99 1450.39 2366.8 1450.39 Z" fill="#000000" fill-rule="nonzero" fill-opacity="1" /><path clip-path="url(#clip810)" d="M1231.53 1522.27 L1231.53 1532.4 L1243.59 1532.4 L1243.59 1536.95 L1231.53 1536.95 L1231.53 1556.3 Q1231.53 1560.66 1232.71 1561.9 Q1233.91 1563.14 1237.58 1563.14 L1243.59 1563.14 L1243.59 1568.04 L1237.58 1568.04 Q1230.8 1568.04 1228.22 1565.53 Q1225.64 1562.98 1225.64 1556.3 L1225.64 1536.95 L1221.34 1536.95 L1221.34 1532.4 L1225.64 1532.4 L1225.64 1522.27 L1231.53 1522.27 Z" fill="#000000" fill-rule="nonzero" fill-opacity="1" /><polyline clip-path="url(#clip810)" style="stroke:#000000; stroke-linecap:round; stroke-linejoin:round; stroke-width:4; stroke-opacity:1; fill:none" points="112.177,1423.18 112.177,47.2441 "/>
<polyline clip-path="url(#clip810)" style="stroke:#000000; stroke-linecap:round; stroke-linejoin:round; stroke-width:4; stroke-opacity:1; fill:none" points="112.177,1384.24 131.075,1384.24 "/>
<polyline clip-path="url(#clip810)" style="stroke:#000000; stroke-linecap:round; stroke-linejoin:round; stroke-width:4; stroke-opacity:1; fill:none" points="112.177,1093.68 131.075,1093.68 "/>
<polyline clip-path="url(#clip810)" style="stroke:#000000; stroke-linecap:round; stroke-linejoin:round; stroke-width:4; stroke-opacity:1; fill:none" points="112.177,803.129 131.075,803.129 "/>
<polyline clip-path="url(#clip810)" style="stroke:#000000; stroke-linecap:round; stroke-linejoin:round; stroke-width:4; stroke-opacity:1; fill:none" points="112.177,512.575 131.075,512.575 "/>
<polyline clip-path="url(#clip810)" style="stroke:#000000; stroke-linecap:round; stroke-linejoin:round; stroke-width:4; stroke-opacity:1; fill:none" points="112.177,222.02 131.075,222.02 "/>
<path clip-path="url(#clip810)" d="M64.2328 1370.04 Q60.6217 1370.04 58.793 1373.6 Q56.9875 1377.14 56.9875 1384.27 Q56.9875 1391.38 58.793 1394.94 Q60.6217 1398.49 64.2328 1398.49 Q67.867 1398.49 69.6726 1394.94 Q71.5013 1391.38 71.5013 1384.27 Q71.5013 1377.14 69.6726 1373.6 Q67.867 1370.04 64.2328 1370.04 M64.2328 1366.33 Q70.0429 1366.33 73.0985 1370.94 Q76.1772 1375.52 76.1772 1384.27 Q76.1772 1393 73.0985 1397.61 Q70.0429 1402.19 64.2328 1402.19 Q58.4226 1402.19 55.344 1397.61 Q52.2884 1393 52.2884 1384.27 Q52.2884 1375.52 55.344 1370.94 Q58.4226 1366.33 64.2328 1366.33 Z" fill="#000000" fill-rule="nonzero" fill-opacity="1" /><path clip-path="url(#clip810)" d="M56.2699 1107.03 L63.9087 1107.03 L63.9087 1080.66 L55.5986 1082.33 L55.5986 1078.07 L63.8624 1076.4 L68.5383 1076.4 L68.5383 1107.03 L76.1772 1107.03 L76.1772 1110.96 L56.2699 1110.96 L56.2699 1107.03 Z" fill="#000000" fill-rule="nonzero" fill-opacity="1" /><path clip-path="url(#clip810)" d="M59.8578 816.474 L76.1772 816.474 L76.1772 820.409 L54.2328 820.409 L54.2328 816.474 Q56.8949 813.719 61.4782 809.09 Q66.0846 804.437 67.2652 803.094 Q69.5105 800.571 70.3902 798.835 Q71.2929 797.076 71.2929 795.386 Q71.2929 792.631 69.3485 790.895 Q67.4272 789.159 64.3254 789.159 Q62.1263 789.159 59.6726 789.923 Q57.2421 790.687 54.4643 792.238 L54.4643 787.516 Q57.2884 786.382 59.7421 785.803 Q62.1958 785.224 64.2328 785.224 Q69.6031 785.224 72.7976 787.909 Q75.992 790.594 75.992 795.085 Q75.992 797.215 75.1818 799.136 Q74.3948 801.034 72.2883 803.627 Q71.7096 804.298 68.6078 807.516 Q65.5059 810.71 59.8578 816.474 Z" fill="#000000" fill-rule="nonzero" fill-opacity="1" /><path clip-path="url(#clip810)" d="M69.0476 511.22 Q72.404 511.938 74.279 514.206 Q76.1772 516.475 76.1772 519.808 Q76.1772 524.924 72.6587 527.725 Q69.1402 530.526 62.6587 530.526 Q60.4828 530.526 58.168 530.086 Q55.8764 529.669 53.4227 528.813 L53.4227 524.299 Q55.3671 525.433 57.6819 526.012 Q59.9967 526.591 62.5198 526.591 Q66.918 526.591 69.2096 524.855 Q71.5244 523.118 71.5244 519.808 Q71.5244 516.753 69.3717 515.04 Q67.242 513.304 63.4226 513.304 L59.3949 513.304 L59.3949 509.461 L63.6078 509.461 Q67.0569 509.461 68.8855 508.095 Q70.7142 506.707 70.7142 504.114 Q70.7142 501.452 68.8161 500.04 Q66.9411 498.605 63.4226 498.605 Q61.5013 498.605 59.3023 499.021 Q57.1032 499.438 54.4643 500.318 L54.4643 496.151 Q57.1264 495.41 59.4412 495.04 Q61.7791 494.67 63.8393 494.67 Q69.1633 494.67 72.2652 497.1 Q75.367 499.507 75.367 503.628 Q75.367 506.498 73.7235 508.489 Q72.08 510.456 69.0476 511.22 Z" fill="#000000" fill-rule="nonzero" fill-opacity="1" /><path clip-path="url(#clip810)" d="M66.5939 208.814 L54.7884 227.263 L66.5939 227.263 L66.5939 208.814 M65.367 204.74 L71.2466 204.74 L71.2466 227.263 L76.1772 227.263 L76.1772 231.152 L71.2466 231.152 L71.2466 239.3 L66.5939 239.3 L66.5939 231.152 L50.9921 231.152 L50.9921 226.638 L65.367 204.74 Z" fill="#000000" fill-rule="nonzero" fill-opacity="1" /><polyline clip-path="url(#clip811)" style="stroke:#009af9; stroke-linecap:round; stroke-linejoin:round; stroke-width:4; stroke-opacity:1; fill:none" points="112.177,1093.68 336.235,207.492 560.293,86.1857 784.351,115.06 1008.41,171.313 1232.47,230.518 1456.52,287.916 1680.58,342.674 1904.64,394.741 2128.7,444.213 2352.76,491.214 "/>
<polyline clip-path="url(#clip811)" style="stroke:#e26f46; stroke-linecap:round; stroke-linejoin:round; stroke-width:4; stroke-opacity:1; fill:none" points="112.177,1238.96 336.235,1355.18 560.293,1378.43 784.351,1383.08 1008.41,1384.01 1232.47,1384.19 1456.52,1384.23 1680.58,1384.24 1904.64,1384.24 2128.7,1384.24 2352.76,1384.24 "/>
<path clip-path="url(#clip810)" d="M2030.82 248.629 L2278.07 248.629 L2278.07 93.1086 L2030.82 93.1086  Z" fill="#ffffff" fill-rule="evenodd" fill-opacity="1"/>
<polyline clip-path="url(#clip810)" style="stroke:#000000; stroke-linecap:round; stroke-linejoin:round; stroke-width:4; stroke-opacity:1; fill:none" points="2030.82,248.629 2278.07,248.629 2278.07,93.1086 2030.82,93.1086 2030.82,248.629 "/>
<polyline clip-path="url(#clip810)" style="stroke:#009af9; stroke-linecap:round; stroke-linejoin:round; stroke-width:4; stroke-opacity:1; fill:none" points="2055.71,144.949 2205.08,144.949 "/>
<path clip-path="url(#clip810)" d="M2243.38 149.196 Q2238.22 149.196 2236.23 150.377 Q2234.24 151.557 2234.24 154.405 Q2234.24 156.673 2235.72 158.016 Q2237.23 159.335 2239.8 159.335 Q2243.34 159.335 2245.47 156.835 Q2247.62 154.312 2247.62 150.145 L2247.62 149.196 L2243.38 149.196 M2251.88 147.437 L2251.88 162.229 L2247.62 162.229 L2247.62 158.293 Q2246.16 160.655 2243.98 161.789 Q2241.81 162.9 2238.66 162.9 Q2234.68 162.9 2232.32 160.678 Q2229.98 158.432 2229.98 154.682 Q2229.98 150.307 2232.9 148.085 Q2235.84 145.863 2241.65 145.863 L2247.62 145.863 L2247.62 145.446 Q2247.62 142.507 2245.67 140.909 Q2243.75 139.289 2240.26 139.289 Q2238.04 139.289 2235.93 139.821 Q2233.82 140.354 2231.88 141.419 L2231.88 137.483 Q2234.22 136.581 2236.42 136.141 Q2238.61 135.678 2240.7 135.678 Q2246.32 135.678 2249.1 138.594 Q2251.88 141.511 2251.88 147.437 Z" fill="#000000" fill-rule="nonzero" fill-opacity="1" /><polyline clip-path="url(#clip810)" style="stroke:#e26f46; stroke-linecap:round; stroke-linejoin:round; stroke-width:4; stroke-opacity:1; fill:none" points="2055.71,196.789 2205.08,196.789 "/>
<path clip-path="url(#clip810)" d="M2248.75 201.129 Q2248.75 196.43 2246.81 193.768 Q2244.89 191.083 2241.51 191.083 Q2238.13 191.083 2236.18 193.768 Q2234.26 196.43 2234.26 201.129 Q2234.26 205.828 2236.18 208.513 Q2238.13 211.175 2241.51 211.175 Q2244.89 211.175 2246.81 208.513 Q2248.75 205.828 2248.75 201.129 M2234.26 192.078 Q2235.61 189.763 2237.64 188.652 Q2239.7 187.518 2242.55 187.518 Q2247.27 187.518 2250.21 191.268 Q2253.17 195.018 2253.17 201.129 Q2253.17 207.24 2250.21 210.99 Q2247.27 214.74 2242.55 214.74 Q2239.7 214.74 2237.64 213.629 Q2235.61 212.495 2234.26 210.18 L2234.26 214.069 L2229.98 214.069 L2229.98 178.05 L2234.26 178.05 L2234.26 192.078 Z" fill="#000000" fill-rule="nonzero" fill-opacity="1" /></svg>
