<?xml version="1.0" encoding="utf-8"?>
<svg xmlns="http://www.w3.org/2000/svg" xmlns:xlink="http://www.w3.org/1999/xlink" width="600" height="400" viewBox="0 0 2400 1600">
<defs>
  <clipPath id="clip230">
    <rect x="0" y="0" width="2400" height="1600"/>
  </clipPath>
</defs>
<path clip-path="url(#clip230)" d="M0 1600 L2400 1600 L2400 0 L0 0  Z" fill="#ffffff" fill-rule="evenodd" fill-opacity="1"/>
<defs>
  <clipPath id="clip231">
    <rect x="480" y="0" width="1681" height="1600"/>
  </clipPath>
</defs>
<path clip-path="url(#clip230)" d="M86.9921 1521.01 L2352.76 1521.01 L2352.76 47.2441 L86.9921 47.2441  Z" fill="#ffffff" fill-rule="evenodd" fill-opacity="1"/>
<defs>
  <clipPath id="clip232">
    <rect x="86" y="47" width="2267" height="1475"/>
  </clipPath>
</defs>
<polyline clip-path="url(#clip232)" style="stroke:#000000; stroke-linecap:round; stroke-linejoin:round; stroke-width:2; stroke-opacity:0.1; fill:none" points="151.118,1521.01 151.118,47.2441 "/>
<polyline clip-path="url(#clip232)" style="stroke:#000000; stroke-linecap:round; stroke-linejoin:round; stroke-width:2; stroke-opacity:0.1; fill:none" points="863.622,1521.01 863.622,47.2441 "/>
<polyline clip-path="url(#clip232)" style="stroke:#000000; stroke-linecap:round; stroke-linejoin:round; stroke-width:2; stroke-opacity:0.1; fill:none" points="1576.13,1521.01 1576.13,47.2441 "/>
<polyline clip-path="url(#clip232)" style="stroke:#000000; stroke-linecap:round; stroke-linejoin:round; stroke-width:2; stroke-opacity:0.1; fill:none" points="2288.63,1521.01 2288.63,47.2441 "/>
<polyline clip-path="url(#clip230)" style="stroke:#000000; stroke-linecap:round; stroke-linejoin:round; stroke-width:4; stroke-opacity:1; fill:none" points="86.9921,1521.01 2352.76,1521.01 "/>
<polyline clip-path="url(#clip230)" style="stroke:#000000; stroke-linecap:round; stroke-linejoin:round; stroke-width:4; stroke-opacity:1; fill:none" points="151.118,1521.01 151.118,1502.11 "/>
<polyline clip-path="url(#clip230)" style="stroke:#000000; stroke-linecap:round; stroke-linejoin:round; stroke-width:4; stroke-opacity:1; fill:none" points="863.622,1521.01 863.622,1502.11 "/>
<polyline clip-path="url(#clip230)" style="stroke:#000000; stroke-linecap:round; stroke-linejoin:round; stroke-width:4; stroke-opacity:1; fill:none" points="1576.13,1521.01 1576.13,1502.11 "/>
<polyline clip-path="url(#clip230)" style="stroke:#000000; stroke-linecap:round; stroke-linejoin:round; stroke-width:4; stroke-opacity:1; fill:none" points="2288.63,1521.01 2288.63,1502.11 "/>
<path clip-path="url(#clip230)" d="M151.118 1551.93 Q147.506 1551.93 145.678 1555.49 Q143.872 1559.03 143.872 1566.16 Q143.872 1573.27 145.678 1576.83 Q147.506 1580.38 151.118 1580.38 Q154.752 1580.38 156.557 1576.83 Q158.386 1573.27 158.386 1566.16 Q158.386 1559.03 156.557 1555.49 Q154.752 1551.93 151.118 1551.93 M151.118 1548.22 Q156.928 1548.22 159.983 1552.83 Q163.062 1557.41 163.062 1566.16 Q163.062 1574.89 159.983 1579.5 Q156.928 1584.08 151.118 1584.08 Q145.307 1584.08 142.229 1579.5 Q139.173 1574.89 139.173 1566.16 Q139.173 1557.41 142.229 1552.83 Q145.307 1548.22 151.118 1548.22 Z" fill="#000000" fill-rule="nonzero" fill-opacity="1" /><path clip-path="url(#clip230)" d="M838.309 1579.47 L845.948 1579.47 L845.948 1553.11 L837.638 1554.77 L837.638 1550.51 L845.902 1548.85 L850.578 1548.85 L850.578 1579.47 L858.217 1579.47 L858.217 1583.41 L838.309 1583.41 L838.309 1579.47 Z" fill="#000000" fill-rule="nonzero" fill-opacity="1" /><path clip-path="url(#clip230)" d="M877.661 1551.93 Q874.05 1551.93 872.221 1555.49 Q870.416 1559.03 870.416 1566.16 Q870.416 1573.27 872.221 1576.83 Q874.05 1580.38 877.661 1580.38 Q881.295 1580.38 883.101 1576.83 Q884.93 1573.27 884.93 1566.16 Q884.93 1559.03 883.101 1555.49 Q881.295 1551.93 877.661 1551.93 M877.661 1548.22 Q883.471 1548.22 886.527 1552.83 Q889.606 1557.41 889.606 1566.16 Q889.606 1574.89 886.527 1579.5 Q883.471 1584.08 877.661 1584.08 Q871.851 1584.08 868.772 1579.5 Q865.717 1574.89 865.717 1566.16 Q865.717 1557.41 868.772 1552.83 Q871.851 1548.22 877.661 1548.22 Z" fill="#000000" fill-rule="nonzero" fill-opacity="1" /><path clip-path="url(#clip230)" d="M1554.9 1579.47 L1571.22 1579.47 L1571.22 1583.41 L1549.27 1583.41 L1549.27 1579.47 Q1551.94 1576.72 1556.52 1572.09 Q1561.13 1567.44 1562.31 1566.09 Q1564.55 1563.57 1565.43 1561.83 Q1566.33 1560.07 1566.33 1558.38 Q1566.33 1555.63 1564.39 1553.89 Q1562.47 1552.16 1559.37 1552.16 Q1557.17 1552.16 1554.71 1552.92 Q1552.28 1553.69 1549.51 1555.24 L1549.51 1550.51 Q1552.33 1549.38 1554.78 1548.8 Q1557.24 1548.22 1559.27 1548.22 Q1564.64 1548.22 1567.84 1550.91 Q1571.03 1553.59 1571.03 1558.08 Q1571.03 1560.21 1570.22 1562.13 Q1569.44 1564.03 1567.33 1566.63 Q1566.75 1567.3 1563.65 1570.51 Q1560.55 1573.71 1554.9 1579.47 Z" fill="#000000" fill-rule="nonzero" fill-opacity="1" /><path clip-path="url(#clip230)" d="M1591.03 1551.93 Q1587.42 1551.93 1585.59 1555.49 Q1583.79 1559.03 1583.79 1566.16 Q1583.79 1573.27 1585.59 1576.83 Q1587.42 1580.38 1591.03 1580.38 Q1594.67 1580.38 1596.47 1576.83 Q1598.3 1573.27 1598.3 1566.16 Q1598.3 1559.03 1596.47 1555.49 Q1594.67 1551.93 1591.03 1551.93 M1591.03 1548.22 Q1596.84 1548.22 1599.9 1552.83 Q1602.98 1557.41 1602.98 1566.16 Q1602.98 1574.89 1599.9 1579.5 Q1596.84 1584.08 1591.03 1584.08 Q1585.22 1584.08 1582.14 1579.5 Q1579.09 1574.89 1579.09 1566.16 Q1579.09 1557.41 1582.14 1552.83 Q1585.22 1548.22 1591.03 1548.22 Z" fill="#000000" fill-rule="nonzero" fill-opacity="1" /><path clip-path="url(#clip230)" d="M2277.47 1564.77 Q2280.83 1565.49 2282.7 1567.76 Q2284.6 1570.03 2284.6 1573.36 Q2284.6 1578.48 2281.08 1581.28 Q2277.57 1584.08 2271.08 1584.08 Q2268.91 1584.08 2266.59 1583.64 Q2264.3 1583.22 2261.85 1582.37 L2261.85 1577.85 Q2263.79 1578.99 2266.11 1579.57 Q2268.42 1580.14 2270.95 1580.14 Q2275.34 1580.14 2277.64 1578.41 Q2279.95 1576.67 2279.95 1573.36 Q2279.95 1570.31 2277.8 1568.59 Q2275.67 1566.86 2271.85 1566.86 L2267.82 1566.86 L2267.82 1563.01 L2272.03 1563.01 Q2275.48 1563.01 2277.31 1561.65 Q2279.14 1560.26 2279.14 1557.67 Q2279.14 1555.01 2277.24 1553.59 Q2275.37 1552.16 2271.85 1552.16 Q2269.93 1552.16 2267.73 1552.57 Q2265.53 1552.99 2262.89 1553.87 L2262.89 1549.7 Q2265.55 1548.96 2267.87 1548.59 Q2270.2 1548.22 2272.26 1548.22 Q2277.59 1548.22 2280.69 1550.65 Q2283.79 1553.06 2283.79 1557.18 Q2283.79 1560.05 2282.15 1562.04 Q2280.51 1564.01 2277.47 1564.77 Z" fill="#000000" fill-rule="nonzero" fill-opacity="1" /><path clip-path="url(#clip230)" d="M2303.47 1551.93 Q2299.86 1551.93 2298.03 1555.49 Q2296.22 1559.03 2296.22 1566.16 Q2296.22 1573.27 2298.03 1576.83 Q2299.86 1580.38 2303.47 1580.38 Q2307.1 1580.38 2308.91 1576.83 Q2310.74 1573.27 2310.74 1566.16 Q2310.74 1559.03 2308.91 1555.49 Q2307.1 1551.93 2303.47 1551.93 M2303.47 1548.22 Q2309.28 1548.22 2312.33 1552.83 Q2315.41 1557.41 2315.41 1566.16 Q2315.41 1574.89 2312.33 1579.5 Q2309.28 1584.08 2303.47 1584.08 Q2297.66 1584.08 2294.58 1579.5 Q2291.52 1574.89 2291.52 1566.16 Q2291.52 1557.41 2294.58 1552.83 Q2297.66 1548.22 2303.47 1548.22 Z" fill="#000000" fill-rule="nonzero" fill-opacity="1" /><polyline clip-path="url(#clip232)" style="stroke:#000000; stroke-linecap:round; stroke-linejoin:round; stroke-width:2; stroke-opacity:0.1; fill:none" points="86.9921,1495.67 2352.76,1495.67 "/>
<polyline clip-path="url(#clip232)" style="stroke:#000000; stroke-linecap:round; stroke-linejoin:round; stroke-width:2; stroke-opacity:0.1; fill:none" points="86.9921,1121.34 2352.76,1121.34 "/>
<polyline clip-path="url(#clip232)" style="stroke:#000000; stroke-linecap:round; stroke-linejoin:round; stroke-width:2; stroke-opacity:0.1; fill:none" points="86.9921,747.015 2352.76,747.015 "/>
<polyline clip-path="url(#clip232)" style="stroke:#000000; stroke-linecap:round; stroke-linejoin:round; stroke-width:2; stroke-opacity:0.1; fill:none" points="86.9921,372.689 2352.76,372.689 "/>
<polyline clip-path="url(#clip230)" style="stroke:#000000; stroke-linecap:round; stroke-linejoin:round; stroke-width:4; stroke-opacity:1; fill:none" points="86.9921,1521.01 86.9921,47.2441 "/>
<polyline clip-path="url(#clip230)" style="stroke:#000000; stroke-linecap:round; stroke-linejoin:round; stroke-width:4; stroke-opacity:1; fill:none" points="86.9921,1495.67 105.89,1495.67 "/>
<polyline clip-path="url(#clip230)" style="stroke:#000000; stroke-linecap:round; stroke-linejoin:round; stroke-width:4; stroke-opacity:1; fill:none" points="86.9921,1121.34 105.89,1121.34 "/>
<polyline clip-path="url(#clip230)" style="stroke:#000000; stroke-linecap:round; stroke-linejoin:round; stroke-width:4; stroke-opacity:1; fill:none" points="86.9921,747.015 105.89,747.015 "/>
<polyline clip-path="url(#clip230)" style="stroke:#000000; stroke-linecap:round; stroke-linejoin:round; stroke-width:4; stroke-opacity:1; fill:none" points="86.9921,372.689 105.89,372.689 "/>
<path clip-path="url(#clip230)" d="M-9.72514 1496.12 L19.9506 1496.12 L19.9506 1500.06 L-9.72514 1500.06 L-9.72514 1496.12 Z" fill="#000000" fill-rule="nonzero" fill-opacity="1" /><path clip-path="url(#clip230)" d="M30.0895 1478.39 L48.4458 1478.39 L48.4458 1482.32 L34.3718 1482.32 L34.3718 1490.8 Q35.3904 1490.45 36.4089 1490.29 Q37.4274 1490.1 38.4459 1490.1 Q44.2329 1490.1 47.6125 1493.27 Q50.9921 1496.44 50.9921 1501.86 Q50.9921 1507.44 47.5199 1510.54 Q44.0477 1513.62 37.7283 1513.62 Q35.5524 1513.62 33.2839 1513.25 Q31.0385 1512.88 28.6311 1512.14 L28.6311 1507.44 Q30.7145 1508.57 32.9367 1509.13 Q35.1589 1509.69 37.6357 1509.69 Q41.6403 1509.69 43.9783 1507.58 Q46.3162 1505.47 46.3162 1501.86 Q46.3162 1498.25 43.9783 1496.14 Q41.6403 1494.04 37.6357 1494.04 Q35.7607 1494.04 33.8857 1494.45 Q32.0339 1494.87 30.0895 1495.75 L30.0895 1478.39 Z" fill="#000000" fill-rule="nonzero" fill-opacity="1" /><path clip-path="url(#clip230)" d="M39.0477 1107.14 Q35.4367 1107.14 33.608 1110.71 Q31.8024 1114.25 31.8024 1121.38 Q31.8024 1128.48 33.608 1132.05 Q35.4367 1135.59 39.0477 1135.59 Q42.682 1135.59 44.4875 1132.05 Q46.3162 1128.48 46.3162 1121.38 Q46.3162 1114.25 44.4875 1110.71 Q42.682 1107.14 39.0477 1107.14 M39.0477 1103.44 Q44.8579 1103.44 47.9134 1108.04 Q50.9921 1112.63 50.9921 1121.38 Q50.9921 1130.1 47.9134 1134.71 Q44.8579 1139.29 39.0477 1139.29 Q33.2376 1139.29 30.1589 1134.71 Q27.1034 1130.1 27.1034 1121.38 Q27.1034 1112.63 30.1589 1108.04 Q33.2376 1103.44 39.0477 1103.44 Z" fill="#000000" fill-rule="nonzero" fill-opacity="1" /><path clip-path="url(#clip230)" d="M30.0895 729.735 L48.4458 729.735 L48.4458 733.671 L34.3718 733.671 L34.3718 742.143 Q35.3904 741.796 36.4089 741.634 Q37.4274 741.448 38.4459 741.448 Q44.2329 741.448 47.6125 744.62 Q50.9921 747.791 50.9921 753.208 Q50.9921 758.786 47.5199 761.888 Q44.0477 764.967 37.7283 764.967 Q35.5524 764.967 33.2839 764.596 Q31.0385 764.226 28.6311 763.485 L28.6311 758.786 Q30.7145 759.92 32.9367 760.476 Q35.1589 761.032 37.6357 761.032 Q41.6403 761.032 43.9783 758.925 Q46.3162 756.819 46.3162 753.208 Q46.3162 749.596 43.9783 747.49 Q41.6403 745.384 37.6357 745.384 Q35.7607 745.384 33.8857 745.8 Q32.0339 746.217 30.0895 747.096 L30.0895 729.735 Z" fill="#000000" fill-rule="nonzero" fill-opacity="1" /><path clip-path="url(#clip230)" d="M-0.303895 386.033 L7.33495 386.033 L7.33495 359.668 L-0.975188 361.334 L-0.975188 357.075 L7.28866 355.409 L11.9646 355.409 L11.9646 386.033 L19.6034 386.033 L19.6034 389.969 L-0.303895 389.969 L-0.303895 386.033 Z" fill="#000000" fill-rule="nonzero" fill-opacity="1" /><path clip-path="url(#clip230)" d="M39.0477 358.487 Q35.4367 358.487 33.608 362.052 Q31.8024 365.594 31.8024 372.723 Q31.8024 379.83 33.608 383.394 Q35.4367 386.936 39.0477 386.936 Q42.682 386.936 44.4875 383.394 Q46.3162 379.83 46.3162 372.723 Q46.3162 365.594 44.4875 362.052 Q42.682 358.487 39.0477 358.487 M39.0477 354.784 Q44.8579 354.784 47.9134 359.39 Q50.9921 363.973 50.9921 372.723 Q50.9921 381.45 47.9134 386.057 Q44.8579 390.64 39.0477 390.64 Q33.2376 390.64 30.1589 386.057 Q27.1034 381.45 27.1034 372.723 Q27.1034 363.973 30.1589 359.39 Q33.2376 354.784 39.0477 354.784 Z" fill="#000000" fill-rule="nonzero" fill-opacity="1" /><path clip-path="url(#clip232)" d="M151.118 1215.44 L222.368 1405.57 L293.618 1478.56 L364.869 1479.3 L436.119 1466.61 L507.37 1447.58 L578.62 1427.58 L649.871 1409.62 L721.121 1393.62 L792.371 1384.74 L863.622 1376.29 L934.872 1367.58 L1006.12 1359.09 L1077.37 1351.36 L1148.62 1342.44 L1219.87 1330.83 L1291.12 1322.18 L1362.37 1309.3 L1433.63 1297.65 L1504.88 1286.33 L1576.13 1279.77 L1647.38 1274.4 L1718.63 1270.13 L1789.88 1264.02 L1861.13 1258.26 L1932.38 1249.09 L2003.63 1247.12 L2074.88 1241.38 L2146.13 1237.27 L2217.38 1230.99 L2288.63 1223.31 L2288.63 861.553 L2217.38 846.662 L2146.13 839.061 L2074.88 821.647 L2003.63 806.034 L1932.38 790.501 L1861.13 777.032 L1789.88 762.52 L1718.63 745.008 L1647.38 719.922 L1576.13 698.903 L1504.88 682.394 L1433.63 660.905 L1362.37 635.021 L1291.12 609.911 L1219.87 577.014 L1148.62 550.004 L1077.37 518.277 L1006.12 479.788 L934.872 446.006 L863.622 411.279 L792.371 383.195 L721.121 342.535 L649.871 299.089 L578.62 247.658 L507.37 202.947 L436.119 151.455 L364.869 110.608 L293.618 88.9544 L222.368 189.259 L151.118 1017.99  Z" fill="#009af9" fill-rule="evenodd" fill-opacity="0.2"/>
<polyline clip-path="url(#clip232)" style="stroke:#009af9; stroke-linecap:round; stroke-linejoin:round; stroke-width:12; stroke-opacity:1; fill:none" points="151.118,1110.83 222.368,969.382 293.618,962.406 364.869,970.314 436.119,975.27 507.37,982.421 578.62,989.08 649.871,997.934 721.121,1000.68 792.371,1012.18 863.622,1020.51 934.872,1023.13 1006.12,1026.26 1077.37,1031.24 1148.62,1034.6 1219.87,1045.53 1291.12,1050.31 1362.37,1055.63 1433.63,1061.21 1504.88,1065.29 1576.13,1061.96 1647.38,1063.94 1718.63,1064.17 1789.88,1071.78 1861.13,1072.89 1932.38,1070.18 2003.63,1071.14 2074.88,1075.53 2146.13,1086.86 2217.38,1089.4 2288.63,1093.95 "/>
<path clip-path="url(#clip232)" d="M151.118 1234.83 L222.368 1143.99 L293.618 1125.85 L364.869 1122.6 L436.119 1121.89 L507.37 1122.5 L578.62 1122.38 L649.871 1122.31 L721.121 1122.56 L792.371 1122.41 L863.622 1122.45 L934.872 1122.49 L1006.12 1122.73 L1077.37 1122.51 L1148.62 1122.46 L1219.87 1122.67 L1291.12 1122.73 L1362.37 1122.88 L1433.63 1122.41 L1504.88 1122.5 L1576.13 1122.67 L1647.38 1122.73 L1718.63 1122.73 L1789.88 1122.47 L1861.13 1122.08 L1932.38 1122.86 L2003.63 1122.31 L2074.88 1122.85 L2146.13 1122.59 L2217.38 1122.01 L2288.63 1122.89 L2288.63 1120.52 L2217.38 1120.09 L2146.13 1120.06 L2074.88 1120.1 L2003.63 1120.26 L1932.38 1119.63 L1861.13 1119.96 L1789.88 1120.37 L1718.63 1120.26 L1647.38 1120.02 L1576.13 1120.48 L1504.88 1119.97 L1433.63 1120.08 L1362.37 1119.96 L1291.12 1120.03 L1219.87 1120.31 L1148.62 1120.31 L1077.37 1120.06 L1006.12 1119.88 L934.872 1120.22 L863.622 1120.36 L792.371 1119.95 L721.121 1119.96 L649.871 1119.81 L578.62 1120.04 L507.37 1120.09 L436.119 1120.37 L364.869 1120.41 L293.618 1116.88 L222.368 1101.68 L151.118 1023.94  Z" fill="#e26f46" fill-rule="evenodd" fill-opacity="0.2"/>
<polyline clip-path="url(#clip232)" style="stroke:#e26f46; stroke-linecap:round; stroke-linejoin:round; stroke-width:12; stroke-opacity:1; fill:none" points="151.118,1108.15 222.368,1119.14 293.618,1120.96 364.869,1121.45 436.119,1121.22 507.37,1121.4 578.62,1121.19 649.871,1121.12 721.121,1121.24 792.371,1121.03 863.622,1121.29 934.872,1121.32 1006.12,1121.5 1077.37,1121.34 1148.62,1121.25 1219.87,1121.64 1291.12,1121.37 1362.37,1121.31 1433.63,1121.33 1504.88,1121.5 1576.13,1121.74 1647.38,1121.44 1718.63,1121.37 1789.88,1121.33 1861.13,1121.08 1932.38,1121.15 2003.63,1121.37 2074.88,1121.36 2146.13,1121.29 2217.38,1121.3 2288.63,1121.54 "/>
</svg>
