<?xml version="1.0" encoding="utf-8"?>
<svg xmlns="http://www.w3.org/2000/svg" xmlns:xlink="http://www.w3.org/1999/xlink" width="600" height="400" viewBox="0 0 2400 1600">
<defs>
  <clipPath id="clip170">
    <rect x="0" y="0" width="2400" height="1600"/>
  </clipPath>
</defs>
<path clip-path="url(#clip170)" d="M0 1600 L2400 1600 L2400 0 L0 0  Z" fill="#ffffff" fill-rule="evenodd" fill-opacity="1"/>
<defs>
  <clipPath id="clip171">
    <rect x="480" y="0" width="1681" height="1600"/>
  </clipPath>
</defs>
<path clip-path="url(#clip170)" d="M86.9921 1505.26 L2352.76 1505.26 L2352.76 47.2441 L86.9921 47.2441  Z" fill="#ffffff" fill-rule="evenodd" fill-opacity="1"/>
<defs>
  <clipPath id="clip172">
    <rect x="86" y="47" width="2267" height="1459"/>
  </clipPath>
</defs>
<polyline clip-path="url(#clip172)" style="stroke:#000000; stroke-linecap:round; stroke-linejoin:round; stroke-width:2; stroke-opacity:0.1; fill:none" points="86.9921,1505.26 86.9921,47.2441 "/>
<polyline clip-path="url(#clip172)" style="stroke:#000000; stroke-linecap:round; stroke-linejoin:round; stroke-width:2; stroke-opacity:0.1; fill:none" points="842.247,1505.26 842.247,47.2441 "/>
<polyline clip-path="url(#clip172)" style="stroke:#000000; stroke-linecap:round; stroke-linejoin:round; stroke-width:2; stroke-opacity:0.1; fill:none" points="1597.5,1505.26 1597.5,47.2441 "/>
<polyline clip-path="url(#clip172)" style="stroke:#000000; stroke-linecap:round; stroke-linejoin:round; stroke-width:2; stroke-opacity:0.1; fill:none" points="2352.76,1505.26 2352.76,47.2441 "/>
<polyline clip-path="url(#clip170)" style="stroke:#000000; stroke-linecap:round; stroke-linejoin:round; stroke-width:4; stroke-opacity:1; fill:none" points="86.9921,1505.26 2352.76,1505.26 "/>
<polyline clip-path="url(#clip170)" style="stroke:#000000; stroke-linecap:round; stroke-linejoin:round; stroke-width:4; stroke-opacity:1; fill:none" points="86.9921,1505.26 86.9921,1486.36 "/>
<polyline clip-path="url(#clip170)" style="stroke:#000000; stroke-linecap:round; stroke-linejoin:round; stroke-width:4; stroke-opacity:1; fill:none" points="842.247,1505.26 842.247,1486.36 "/>
<polyline clip-path="url(#clip170)" style="stroke:#000000; stroke-linecap:round; stroke-linejoin:round; stroke-width:4; stroke-opacity:1; fill:none" points="1597.5,1505.26 1597.5,1486.36 "/>
<polyline clip-path="url(#clip170)" style="stroke:#000000; stroke-linecap:round; stroke-linejoin:round; stroke-width:4; stroke-opacity:1; fill:none" points="2352.76,1505.26 2352.76,1486.36 "/>
<path clip-path="url(#clip170)" d="M86.9921 1536.18 Q83.381 1536.18 81.5523 1539.74 Q79.7468 1543.28 79.7468 1550.41 Q79.7468 1557.52 81.5523 1561.09 Q83.381 1564.63 86.9921 1564.63 Q90.6264 1564.63 92.4319 1561.09 Q94.2606 1557.52 94.2606 1550.41 Q94.2606 1543.28 92.4319 1539.74 Q90.6264 1536.18 86.9921 1536.18 M86.9921 1532.47 Q92.8023 1532.47 95.8578 1537.08 Q98.9365 1541.66 98.9365 1550.41 Q98.9365 1559.14 95.8578 1563.75 Q92.8023 1568.33 86.9921 1568.33 Q81.182 1568.33 78.1033 1563.75 Q75.0477 1559.14 75.0477 1550.41 Q75.0477 1541.66 78.1033 1537.08 Q81.182 1532.47 86.9921 1532.47 Z" fill="#000000" fill-rule="nonzero" fill-opacity="1" /><path clip-path="url(#clip170)" d="M816.934 1563.72 L824.573 1563.72 L824.573 1537.36 L816.263 1539.03 L816.263 1534.77 L824.527 1533.1 L829.203 1533.1 L829.203 1563.72 L836.842 1563.72 L836.842 1567.66 L816.934 1567.66 L816.934 1563.72 Z" fill="#000000" fill-rule="nonzero" fill-opacity="1" /><path clip-path="url(#clip170)" d="M856.286 1536.18 Q852.675 1536.18 850.846 1539.74 Q849.041 1543.28 849.041 1550.41 Q849.041 1557.52 850.846 1561.09 Q852.675 1564.63 856.286 1564.63 Q859.92 1564.63 861.726 1561.09 Q863.554 1557.52 863.554 1550.41 Q863.554 1543.28 861.726 1539.74 Q859.92 1536.18 856.286 1536.18 M856.286 1532.47 Q862.096 1532.47 865.152 1537.08 Q868.23 1541.66 868.23 1550.41 Q868.23 1559.14 865.152 1563.75 Q862.096 1568.33 856.286 1568.33 Q850.476 1568.33 847.397 1563.75 Q844.342 1559.14 844.342 1550.41 Q844.342 1541.66 847.397 1537.08 Q850.476 1532.47 856.286 1532.47 Z" fill="#000000" fill-rule="nonzero" fill-opacity="1" /><path clip-path="url(#clip170)" d="M1576.27 1563.72 L1592.59 1563.72 L1592.59 1567.66 L1570.65 1567.66 L1570.65 1563.72 Q1573.31 1560.97 1577.89 1556.34 Q1582.5 1551.69 1583.68 1550.35 Q1585.93 1547.82 1586.81 1546.09 Q1587.71 1544.33 1587.71 1542.64 Q1587.71 1539.88 1585.77 1538.15 Q1583.84 1536.41 1580.74 1536.41 Q1578.54 1536.41 1576.09 1537.17 Q1573.66 1537.94 1570.88 1539.49 L1570.88 1534.77 Q1573.71 1533.63 1576.16 1533.05 Q1578.61 1532.47 1580.65 1532.47 Q1586.02 1532.47 1589.21 1535.16 Q1592.41 1537.85 1592.41 1542.34 Q1592.41 1544.47 1591.6 1546.39 Q1590.81 1548.28 1588.71 1550.88 Q1588.13 1551.55 1585.02 1554.77 Q1581.92 1557.96 1576.27 1563.72 Z" fill="#000000" fill-rule="nonzero" fill-opacity="1" /><path clip-path="url(#clip170)" d="M1612.41 1536.18 Q1608.8 1536.18 1606.97 1539.74 Q1605.16 1543.28 1605.16 1550.41 Q1605.16 1557.52 1606.97 1561.09 Q1608.8 1564.63 1612.41 1564.63 Q1616.04 1564.63 1617.85 1561.09 Q1619.68 1557.52 1619.68 1550.41 Q1619.68 1543.28 1617.85 1539.74 Q1616.04 1536.18 1612.41 1536.18 M1612.41 1532.47 Q1618.22 1532.47 1621.27 1537.08 Q1624.35 1541.66 1624.35 1550.41 Q1624.35 1559.14 1621.27 1563.75 Q1618.22 1568.33 1612.41 1568.33 Q1606.6 1568.33 1603.52 1563.75 Q1600.46 1559.14 1600.46 1550.41 Q1600.46 1541.66 1603.52 1537.08 Q1606.6 1532.47 1612.41 1532.47 Z" fill="#000000" fill-rule="nonzero" fill-opacity="1" /><path clip-path="url(#clip170)" d="M2341.6 1549.03 Q2344.96 1549.74 2346.83 1552.01 Q2348.73 1554.28 2348.73 1557.61 Q2348.73 1562.73 2345.21 1565.53 Q2341.69 1568.33 2335.21 1568.33 Q2333.03 1568.33 2330.72 1567.89 Q2328.43 1567.47 2325.97 1566.62 L2325.97 1562.1 Q2327.92 1563.24 2330.23 1563.82 Q2332.55 1564.4 2335.07 1564.4 Q2339.47 1564.4 2341.76 1562.66 Q2344.08 1560.92 2344.08 1557.61 Q2344.08 1554.56 2341.92 1552.85 Q2339.79 1551.11 2335.97 1551.11 L2331.95 1551.11 L2331.95 1547.27 L2336.16 1547.27 Q2339.61 1547.27 2341.44 1545.9 Q2343.27 1544.51 2343.27 1541.92 Q2343.27 1539.26 2341.37 1537.85 Q2339.49 1536.41 2335.97 1536.41 Q2334.05 1536.41 2331.85 1536.83 Q2329.65 1537.24 2327.02 1538.12 L2327.02 1533.96 Q2329.68 1533.22 2331.99 1532.85 Q2334.33 1532.47 2336.39 1532.47 Q2341.71 1532.47 2344.82 1534.91 Q2347.92 1537.31 2347.92 1541.43 Q2347.92 1544.3 2346.27 1546.29 Q2344.63 1548.26 2341.6 1549.03 Z" fill="#000000" fill-rule="nonzero" fill-opacity="1" /><path clip-path="url(#clip170)" d="M2367.59 1536.18 Q2363.98 1536.18 2362.15 1539.74 Q2360.35 1543.28 2360.35 1550.41 Q2360.35 1557.52 2362.15 1561.09 Q2363.98 1564.63 2367.59 1564.63 Q2371.23 1564.63 2373.03 1561.09 Q2374.86 1557.52 2374.86 1550.41 Q2374.86 1543.28 2373.03 1539.74 Q2371.23 1536.18 2367.59 1536.18 M2367.59 1532.47 Q2373.4 1532.47 2376.46 1537.08 Q2379.54 1541.66 2379.54 1550.41 Q2379.54 1559.14 2376.46 1563.75 Q2373.4 1568.33 2367.59 1568.33 Q2361.78 1568.33 2358.7 1563.75 Q2355.65 1559.14 2355.65 1550.41 Q2355.65 1541.66 2358.7 1537.08 Q2361.78 1532.47 2367.59 1532.47 Z" fill="#000000" fill-rule="nonzero" fill-opacity="1" /><path clip-path="url(#clip170)" d="M1218.94 1604.35 L1218.94 1614.48 L1231 1614.48 L1231 1619.03 L1218.94 1619.03 L1218.94 1638.38 Q1218.94 1642.74 1220.11 1643.98 Q1221.32 1645.22 1224.98 1645.22 L1231 1645.22 L1231 1650.12 L1224.98 1650.12 Q1218.2 1650.12 1215.62 1647.61 Q1213.05 1645.06 1213.05 1638.38 L1213.05 1619.03 L1208.75 1619.03 L1208.75 1614.48 L1213.05 1614.48 L1213.05 1604.35 L1218.94 1604.35 Z" fill="#000000" fill-rule="nonzero" fill-opacity="1" /><polyline clip-path="url(#clip172)" style="stroke:#000000; stroke-linecap:round; stroke-linejoin:round; stroke-width:2; stroke-opacity:0.1; fill:none" points="86.9921,1305.45 2352.76,1305.45 "/>
<polyline clip-path="url(#clip172)" style="stroke:#000000; stroke-linecap:round; stroke-linejoin:round; stroke-width:2; stroke-opacity:0.1; fill:none" points="86.9921,1010.36 2352.76,1010.36 "/>
<polyline clip-path="url(#clip172)" style="stroke:#000000; stroke-linecap:round; stroke-linejoin:round; stroke-width:2; stroke-opacity:0.1; fill:none" points="86.9921,715.283 2352.76,715.283 "/>
<polyline clip-path="url(#clip172)" style="stroke:#000000; stroke-linecap:round; stroke-linejoin:round; stroke-width:2; stroke-opacity:0.1; fill:none" points="86.9921,420.202 2352.76,420.202 "/>
<polyline clip-path="url(#clip172)" style="stroke:#000000; stroke-linecap:round; stroke-linejoin:round; stroke-width:2; stroke-opacity:0.1; fill:none" points="86.9921,125.121 2352.76,125.121 "/>
<polyline clip-path="url(#clip170)" style="stroke:#000000; stroke-linecap:round; stroke-linejoin:round; stroke-width:4; stroke-opacity:1; fill:none" points="86.9921,1505.26 86.9921,47.2441 "/>
<polyline clip-path="url(#clip170)" style="stroke:#000000; stroke-linecap:round; stroke-linejoin:round; stroke-width:4; stroke-opacity:1; fill:none" points="86.9921,1305.45 105.89,1305.45 "/>
<polyline clip-path="url(#clip170)" style="stroke:#000000; stroke-linecap:round; stroke-linejoin:round; stroke-width:4; stroke-opacity:1; fill:none" points="86.9921,1010.36 105.89,1010.36 "/>
<polyline clip-path="url(#clip170)" style="stroke:#000000; stroke-linecap:round; stroke-linejoin:round; stroke-width:4; stroke-opacity:1; fill:none" points="86.9921,715.283 105.89,715.283 "/>
<polyline clip-path="url(#clip170)" style="stroke:#000000; stroke-linecap:round; stroke-linejoin:round; stroke-width:4; stroke-opacity:1; fill:none" points="86.9921,420.202 105.89,420.202 "/>
<polyline clip-path="url(#clip170)" style="stroke:#000000; stroke-linecap:round; stroke-linejoin:round; stroke-width:4; stroke-opacity:1; fill:none" points="86.9921,125.121 105.89,125.121 "/>
<path clip-path="url(#clip170)" d="M-56.4379 1305.9 L-26.7621 1305.9 L-26.7621 1309.83 L-56.4379 1309.83 L-56.4379 1305.9 Z" fill="#000000" fill-rule="nonzero" fill-opacity="1" /><path clip-path="url(#clip170)" d="M-6.6696 1291.24 Q-10.2807 1291.24 -12.1094 1294.81 Q-13.9149 1298.35 -13.9149 1305.48 Q-13.9149 1312.59 -12.1094 1316.15 Q-10.2807 1319.69 -6.6696 1319.69 Q-3.03536 1319.69 -1.22982 1316.15 Q0.598877 1312.59 0.598877 1305.48 Q0.598877 1298.35 -1.22982 1294.81 Q-3.03536 1291.24 -6.6696 1291.24 M-6.6696 1287.54 Q-0.859448 1287.54 2.19609 1292.15 Q5.27478 1296.73 5.27478 1305.48 Q5.27478 1314.21 2.19609 1318.81 Q-0.859448 1323.4 -6.6696 1323.4 Q-12.4798 1323.4 -15.5584 1318.81 Q-18.614 1314.21 -18.614 1305.48 Q-18.614 1296.73 -15.5584 1292.15 Q-12.4798 1287.54 -6.6696 1287.54 Z" fill="#000000" fill-rule="nonzero" fill-opacity="1" /><path clip-path="url(#clip170)" d="M13.4923 1316.85 L18.3766 1316.85 L18.3766 1322.73 L13.4923 1322.73 L13.4923 1316.85 Z" fill="#000000" fill-rule="nonzero" fill-opacity="1" /><path clip-path="url(#clip170)" d="M41.4088 1292.24 L29.6034 1310.69 L41.4088 1310.69 L41.4088 1292.24 M40.182 1288.17 L46.0616 1288.17 L46.0616 1310.69 L50.9921 1310.69 L50.9921 1314.58 L46.0616 1314.58 L46.0616 1322.73 L41.4088 1322.73 L41.4088 1314.58 L25.8071 1314.58 L25.8071 1310.06 L40.182 1288.17 Z" fill="#000000" fill-rule="nonzero" fill-opacity="1" /><path clip-path="url(#clip170)" d="M-55.3036 1010.82 L-25.6278 1010.82 L-25.6278 1014.75 L-55.3036 1014.75 L-55.3036 1010.82 Z" fill="#000000" fill-rule="nonzero" fill-opacity="1" /><path clip-path="url(#clip170)" d="M-5.53535 996.163 Q-9.14644 996.163 -10.9751 999.728 Q-12.7807 1003.27 -12.7807 1010.4 Q-12.7807 1017.51 -10.9751 1021.07 Q-9.14644 1024.61 -5.53535 1024.61 Q-1.90111 1024.61 -0.0955632 1021.07 Q1.73313 1017.51 1.73313 1010.4 Q1.73313 1003.27 -0.0955632 999.728 Q-1.90111 996.163 -5.53535 996.163 M-5.53535 992.459 Q0.274805 992.459 3.33034 997.066 Q6.40903 1001.65 6.40903 1010.4 Q6.40903 1019.13 3.33034 1023.73 Q0.274805 1028.32 -5.53535 1028.32 Q-11.3455 1028.32 -14.4242 1023.73 Q-17.4797 1019.13 -17.4797 1010.4 Q-17.4797 1001.65 -14.4242 997.066 Q-11.3455 992.459 -5.53535 992.459 Z" fill="#000000" fill-rule="nonzero" fill-opacity="1" /><path clip-path="url(#clip170)" d="M14.6266 1021.76 L19.5108 1021.76 L19.5108 1027.64 L14.6266 1027.64 L14.6266 1021.76 Z" fill="#000000" fill-rule="nonzero" fill-opacity="1" /><path clip-path="url(#clip170)" d="M43.8625 1009.01 Q47.219 1009.73 49.094 1012 Q50.9921 1014.26 50.9921 1017.6 Q50.9921 1022.71 47.4736 1025.51 Q43.9551 1028.32 37.4737 1028.32 Q35.2978 1028.32 32.983 1027.88 Q30.6913 1027.46 28.2376 1026.6 L28.2376 1022.09 Q30.1821 1023.22 32.4969 1023.8 Q34.8117 1024.38 37.3348 1024.38 Q41.7329 1024.38 44.0246 1022.64 Q46.3394 1020.91 46.3394 1017.6 Q46.3394 1014.54 44.1866 1012.83 Q42.057 1011.09 38.2376 1011.09 L34.2098 1011.09 L34.2098 1007.25 L38.4227 1007.25 Q41.8718 1007.25 43.7005 1005.89 Q45.5292 1004.5 45.5292 1001.9 Q45.5292 999.242 43.6311 997.83 Q41.7561 996.394 38.2376 996.394 Q36.3163 996.394 34.1172 996.811 Q31.9182 997.228 29.2793 998.107 L29.2793 993.941 Q31.9413 993.2 34.2561 992.83 Q36.5941 992.459 38.6542 992.459 Q43.9783 992.459 47.0801 994.89 Q50.1819 997.297 50.1819 1001.42 Q50.1819 1004.29 48.5384 1006.28 Q46.8949 1008.25 43.8625 1009.01 Z" fill="#000000" fill-rule="nonzero" fill-opacity="1" /><path clip-path="url(#clip170)" d="M-54.3545 715.735 L-24.6788 715.735 L-24.6788 719.67 L-54.3545 719.67 L-54.3545 715.735 Z" fill="#000000" fill-rule="nonzero" fill-opacity="1" /><path clip-path="url(#clip170)" d="M-4.58628 701.082 Q-8.19737 701.082 -10.0261 704.647 Q-11.8316 708.188 -11.8316 715.318 Q-11.8316 722.424 -10.0261 725.989 Q-8.19737 729.531 -4.58628 729.531 Q-0.95204 729.531 0.853506 725.989 Q2.6822 722.424 2.6822 715.318 Q2.6822 708.188 0.853506 704.647 Q-0.95204 701.082 -4.58628 701.082 M-4.58628 697.378 Q1.22387 697.378 4.27941 701.985 Q7.3581 706.568 7.3581 715.318 Q7.3581 724.045 4.27941 728.651 Q1.22387 733.235 -4.58628 733.235 Q-10.3964 733.235 -13.4751 728.651 Q-16.5307 724.045 -16.5307 715.318 Q-16.5307 706.568 -13.4751 701.985 Q-10.3964 697.378 -4.58628 697.378 Z" fill="#000000" fill-rule="nonzero" fill-opacity="1" /><path clip-path="url(#clip170)" d="M15.5756 726.684 L20.4599 726.684 L20.4599 732.563 L15.5756 732.563 L15.5756 726.684 Z" fill="#000000" fill-rule="nonzero" fill-opacity="1" /><path clip-path="url(#clip170)" d="M34.6728 728.628 L50.9921 728.628 L50.9921 732.563 L29.0478 732.563 L29.0478 728.628 Q31.7098 725.873 36.2931 721.244 Q40.8996 716.591 42.0801 715.249 Q44.3255 712.725 45.2051 710.989 Q46.1079 709.23 46.1079 707.54 Q46.1079 704.786 44.1635 703.049 Q42.2422 701.313 39.1403 701.313 Q36.9413 701.313 34.4876 702.077 Q32.057 702.841 29.2793 704.392 L29.2793 699.67 Q32.1033 698.536 34.557 697.957 Q37.0107 697.378 39.0477 697.378 Q44.4181 697.378 47.6125 700.063 Q50.8069 702.749 50.8069 707.239 Q50.8069 709.369 49.9968 711.29 Q49.2097 713.188 47.1033 715.781 Q46.5246 716.452 43.4227 719.67 Q40.3209 722.864 34.6728 728.628 Z" fill="#000000" fill-rule="nonzero" fill-opacity="1" /><path clip-path="url(#clip170)" d="M-54.7249 420.654 L-25.0491 420.654 L-25.0491 424.589 L-54.7249 424.589 L-54.7249 420.654 Z" fill="#000000" fill-rule="nonzero" fill-opacity="1" /><path clip-path="url(#clip170)" d="M-4.95665 406.001 Q-8.56774 406.001 -10.3964 409.566 Q-12.202 413.107 -12.202 420.237 Q-12.202 427.343 -10.3964 430.908 Q-8.56774 434.45 -4.95665 434.45 Q-1.32241 434.45 0.483137 430.908 Q2.31183 427.343 2.31183 420.237 Q2.31183 413.107 0.483137 409.566 Q-1.32241 406.001 -4.95665 406.001 M-4.95665 402.297 Q0.853506 402.297 3.90904 406.904 Q6.98773 411.487 6.98773 420.237 Q6.98773 428.964 3.90904 433.57 Q0.853506 438.153 -4.95665 438.153 Q-10.7668 438.153 -13.8455 433.57 Q-16.901 428.964 -16.901 420.237 Q-16.901 411.487 -13.8455 406.904 Q-10.7668 402.297 -4.95665 402.297 Z" fill="#000000" fill-rule="nonzero" fill-opacity="1" /><path clip-path="url(#clip170)" d="M15.2053 431.603 L20.0895 431.603 L20.0895 437.482 L15.2053 437.482 L15.2053 431.603 Z" fill="#000000" fill-rule="nonzero" fill-opacity="1" /><path clip-path="url(#clip170)" d="M31.0848 433.547 L38.7237 433.547 L38.7237 407.181 L30.4135 408.848 L30.4135 404.589 L38.6774 402.922 L43.3533 402.922 L43.3533 433.547 L50.9921 433.547 L50.9921 437.482 L31.0848 437.482 L31.0848 433.547 Z" fill="#000000" fill-rule="nonzero" fill-opacity="1" /><path clip-path="url(#clip170)" d="M-6.18349 110.92 Q-9.79459 110.92 -11.6233 114.485 Q-13.4288 118.026 -13.4288 125.156 Q-13.4288 132.262 -11.6233 135.827 Q-9.79459 139.369 -6.18349 139.369 Q-2.54925 139.369 -0.743708 135.827 Q1.08499 132.262 1.08499 125.156 Q1.08499 118.026 -0.743708 114.485 Q-2.54925 110.92 -6.18349 110.92 M-6.18349 107.216 Q-0.37334 107.216 2.6822 111.822 Q5.76089 116.406 5.76089 125.156 Q5.76089 133.883 2.6822 138.489 Q-0.37334 143.072 -6.18349 143.072 Q-11.9936 143.072 -15.0723 138.489 Q-18.1279 133.883 -18.1279 125.156 Q-18.1279 116.406 -15.0723 111.822 Q-11.9936 107.216 -6.18349 107.216 Z" fill="#000000" fill-rule="nonzero" fill-opacity="1" /><path clip-path="url(#clip170)" d="M13.9784 136.521 L18.8627 136.521 L18.8627 142.401 L13.9784 142.401 L13.9784 136.521 Z" fill="#000000" fill-rule="nonzero" fill-opacity="1" /><path clip-path="url(#clip170)" d="M39.0477 110.92 Q35.4367 110.92 33.608 114.485 Q31.8024 118.026 31.8024 125.156 Q31.8024 132.262 33.608 135.827 Q35.4367 139.369 39.0477 139.369 Q42.682 139.369 44.4875 135.827 Q46.3162 132.262 46.3162 125.156 Q46.3162 118.026 44.4875 114.485 Q42.682 110.92 39.0477 110.92 M39.0477 107.216 Q44.8579 107.216 47.9134 111.822 Q50.9921 116.406 50.9921 125.156 Q50.9921 133.883 47.9134 138.489 Q44.8579 143.072 39.0477 143.072 Q33.2376 143.072 30.1589 138.489 Q27.1034 133.883 27.1034 125.156 Q27.1034 116.406 30.1589 111.822 Q33.2376 107.216 39.0477 107.216 Z" fill="#000000" fill-rule="nonzero" fill-opacity="1" /><polyline clip-path="url(#clip172)" style="stroke:#009af9; stroke-linecap:round; stroke-linejoin:round; stroke-width:4; stroke-opacity:1; fill:none" points="86.9921,125.121 162.518,125.352 238.043,572.318 313.569,609.753 389.094,565.868 464.619,830.952 540.145,1018.01 615.67,1201.74 691.196,1050.52 766.721,1180.06 842.247,1279.5 917.772,1181.74 993.298,1010.46 1068.82,901.909 1144.35,832.9 1219.87,1025.66 1295.4,1122.88 1370.92,989.763 1446.45,1048.01 1521.98,967.062 1597.5,1095.7 1673.03,1370.69 1748.55,1411.13 1824.08,1162.17 1899.6,1186.64 1975.13,1462.88 2050.65,1464 2126.18,1249.61 2201.7,1254.66 2277.23,1131.68 2352.76,854.089 "/>
<polyline clip-path="url(#clip172)" style="stroke:#e26f46; stroke-linecap:round; stroke-linejoin:round; stroke-width:4; stroke-opacity:1; fill:none" points="86.9921,125.121 162.518,198.088 238.043,134.758 313.569,121.907 389.094,171.841 464.619,161.259 540.145,162.269 615.67,109.343 691.196,153.667 766.721,149.82 842.247,118.59 917.772,105.954 993.298,114.691 1068.82,120.201 1144.35,162.209 1219.87,148.185 1295.4,111.63 1370.92,141.543 1446.45,119.446 1521.98,152.831 1597.5,177.922 1673.03,141.758 1748.55,95.29 1824.08,137.456 1899.6,178.894 1975.13,136.107 2050.65,101.262 2126.18,135.01 2201.7,114.319 2277.23,88.5087 2352.76,143.295 "/>
<path clip-path="url(#clip170)" d="M162.518 1456.66 L412.288 1456.66 L412.288 1301.14 L162.518 1301.14  Z" fill="#ffffff" fill-rule="evenodd" fill-opacity="1"/>
<polyline clip-path="url(#clip170)" style="stroke:#000000; stroke-linecap:round; stroke-linejoin:round; stroke-width:4; stroke-opacity:1; fill:none" points="162.518,1456.66 412.288,1456.66 412.288,1301.14 162.518,1301.14 162.518,1456.66 "/>
<polyline clip-path="url(#clip170)" style="stroke:#009af9; stroke-linecap:round; stroke-linejoin:round; stroke-width:4; stroke-opacity:1; fill:none" points="187.693,1352.98 338.744,1352.98 "/>
<path clip-path="url(#clip170)" d="M377.322 1357.23 Q372.16 1357.23 370.169 1358.41 Q368.178 1359.59 368.178 1362.44 Q368.178 1364.7 369.66 1366.05 Q371.164 1367.37 373.734 1367.37 Q377.275 1367.37 379.405 1364.87 Q381.558 1362.34 381.558 1358.18 L381.558 1357.23 L377.322 1357.23 M385.817 1355.47 L385.817 1370.26 L381.558 1370.26 L381.558 1366.32 Q380.099 1368.69 377.923 1369.82 Q375.747 1370.93 372.599 1370.93 Q368.618 1370.93 366.257 1368.71 Q363.919 1366.46 363.919 1362.71 Q363.919 1358.34 366.835 1356.12 Q369.775 1353.89 375.585 1353.89 L381.558 1353.89 L381.558 1353.48 Q381.558 1350.54 379.613 1348.94 Q377.692 1347.32 374.197 1347.32 Q371.974 1347.32 369.868 1347.85 Q367.761 1348.38 365.817 1349.45 L365.817 1345.51 Q368.155 1344.61 370.354 1344.17 Q372.553 1343.71 374.636 1343.71 Q380.261 1343.71 383.039 1346.63 Q385.817 1349.54 385.817 1355.47 Z" fill="#000000" fill-rule="nonzero" fill-opacity="1" /><polyline clip-path="url(#clip170)" style="stroke:#e26f46; stroke-linecap:round; stroke-linejoin:round; stroke-width:4; stroke-opacity:1; fill:none" points="187.693,1404.82 338.744,1404.82 "/>
<path clip-path="url(#clip170)" d="M382.692 1409.16 Q382.692 1404.46 380.747 1401.8 Q378.826 1399.11 375.447 1399.11 Q372.067 1399.11 370.122 1401.8 Q368.201 1404.46 368.201 1409.16 Q368.201 1413.86 370.122 1416.54 Q372.067 1419.21 375.447 1419.21 Q378.826 1419.21 380.747 1416.54 Q382.692 1413.86 382.692 1409.16 M368.201 1400.11 Q369.544 1397.79 371.581 1396.68 Q373.641 1395.55 376.488 1395.55 Q381.21 1395.55 384.15 1399.3 Q387.113 1403.05 387.113 1409.16 Q387.113 1415.27 384.15 1419.02 Q381.21 1422.77 376.488 1422.77 Q373.641 1422.77 371.581 1421.66 Q369.544 1420.53 368.201 1418.21 L368.201 1422.1 L363.919 1422.1 L363.919 1386.08 L368.201 1386.08 L368.201 1400.11 Z" fill="#000000" fill-rule="nonzero" fill-opacity="1" /></svg>
