<?xml version="1.0" encoding="utf-8"?>
<svg xmlns="http://www.w3.org/2000/svg" xmlns:xlink="http://www.w3.org/1999/xlink" width="600" height="400" viewBox="0 0 2400 1600">
<defs>
  <clipPath id="clip690">
    <rect x="0" y="0" width="2400" height="1600"/>
  </clipPath>
</defs>
<path clip-path="url(#clip690)" d="M0 1600 L2400 1600 L2400 0 L0 0  Z" fill="#ffffff" fill-rule="evenodd" fill-opacity="1"/>
<defs>
  <clipPath id="clip691">
    <rect x="156" y="47" width="2198" height="1377"/>
  </clipPath>
</defs>
<path clip-path="url(#clip690)" d="M156.112 1423.18 L2352.76 1423.18 L2352.76 47.2441 L156.112 47.2441  Z" fill="#ffffff" fill-rule="evenodd" fill-opacity="1"/>
<polyline clip-path="url(#clip691)" style="stroke:#000000; stroke-linecap:round; stroke-linejoin:round; stroke-width:2; stroke-opacity:0.1; fill:none" points="156.112,1423.18 156.112,47.2441 "/>
<polyline clip-path="url(#clip691)" style="stroke:#000000; stroke-linecap:round; stroke-linejoin:round; stroke-width:2; stroke-opacity:0.1; fill:none" points="595.441,1423.18 595.441,47.2441 "/>
<polyline clip-path="url(#clip691)" style="stroke:#000000; stroke-linecap:round; stroke-linejoin:round; stroke-width:2; stroke-opacity:0.1; fill:none" points="1034.77,1423.18 1034.77,47.2441 "/>
<polyline clip-path="url(#clip691)" style="stroke:#000000; stroke-linecap:round; stroke-linejoin:round; stroke-width:2; stroke-opacity:0.1; fill:none" points="1474.1,1423.18 1474.1,47.2441 "/>
<polyline clip-path="url(#clip691)" style="stroke:#000000; stroke-linecap:round; stroke-linejoin:round; stroke-width:2; stroke-opacity:0.1; fill:none" points="1913.43,1423.18 1913.43,47.2441 "/>
<polyline clip-path="url(#clip691)" style="stroke:#000000; stroke-linecap:round; stroke-linejoin:round; stroke-width:2; stroke-opacity:0.1; fill:none" points="2352.76,1423.18 2352.76,47.2441 "/>
<polyline clip-path="url(#clip691)" style="stroke:#000000; stroke-linecap:round; stroke-linejoin:round; stroke-width:2; stroke-opacity:0.1; fill:none" points="156.112,1354.25 2352.76,1354.25 "/>
<polyline clip-path="url(#clip691)" style="stroke:#000000; stroke-linecap:round; stroke-linejoin:round; stroke-width:2; stroke-opacity:0.1; fill:none" points="156.112,969.585 2352.76,969.585 "/>
<polyline clip-path="url(#clip691)" style="stroke:#000000; stroke-linecap:round; stroke-linejoin:round; stroke-width:2; stroke-opacity:0.1; fill:none" points="156.112,584.92 2352.76,584.92 "/>
<polyline clip-path="url(#clip691)" style="stroke:#000000; stroke-linecap:round; stroke-linejoin:round; stroke-width:2; stroke-opacity:0.1; fill:none" points="156.112,200.255 2352.76,200.255 "/>
<polyline clip-path="url(#clip690)" style="stroke:#000000; stroke-linecap:round; stroke-linejoin:round; stroke-width:4; stroke-opacity:1; fill:none" points="156.112,1423.18 2352.76,1423.18 "/>
<polyline clip-path="url(#clip690)" style="stroke:#000000; stroke-linecap:round; stroke-linejoin:round; stroke-width:4; stroke-opacity:1; fill:none" points="156.112,1423.18 156.112,1404.28 "/>
<polyline clip-path="url(#clip690)" style="stroke:#000000; stroke-linecap:round; stroke-linejoin:round; stroke-width:4; stroke-opacity:1; fill:none" points="595.441,1423.18 595.441,1404.28 "/>
<polyline clip-path="url(#clip690)" style="stroke:#000000; stroke-linecap:round; stroke-linejoin:round; stroke-width:4; stroke-opacity:1; fill:none" points="1034.77,1423.18 1034.77,1404.28 "/>
<polyline clip-path="url(#clip690)" style="stroke:#000000; stroke-linecap:round; stroke-linejoin:round; stroke-width:4; stroke-opacity:1; fill:none" points="1474.1,1423.18 1474.1,1404.28 "/>
<polyline clip-path="url(#clip690)" style="stroke:#000000; stroke-linecap:round; stroke-linejoin:round; stroke-width:4; stroke-opacity:1; fill:none" points="1913.43,1423.18 1913.43,1404.28 "/>
<polyline clip-path="url(#clip690)" style="stroke:#000000; stroke-linecap:round; stroke-linejoin:round; stroke-width:4; stroke-opacity:1; fill:none" points="2352.76,1423.18 2352.76,1404.28 "/>
<path clip-path="url(#clip690)" d="M156.112 1454.1 Q152.501 1454.1 150.672 1457.66 Q148.867 1461.2 148.867 1468.33 Q148.867 1475.44 150.672 1479.01 Q152.501 1482.55 156.112 1482.55 Q159.746 1482.55 161.552 1479.01 Q163.381 1475.44 163.381 1468.33 Q163.381 1461.2 161.552 1457.66 Q159.746 1454.1 156.112 1454.1 M156.112 1450.39 Q161.922 1450.39 164.978 1455 Q168.057 1459.58 168.057 1468.33 Q168.057 1477.06 164.978 1481.67 Q161.922 1486.25 156.112 1486.25 Q150.302 1486.25 147.223 1481.67 Q144.168 1477.06 144.168 1468.33 Q144.168 1459.58 147.223 1455 Q150.302 1450.39 156.112 1450.39 Z" fill="#000000" fill-rule="nonzero" fill-opacity="1" /><path clip-path="url(#clip690)" d="M590.094 1481.64 L606.413 1481.64 L606.413 1485.58 L584.469 1485.58 L584.469 1481.64 Q587.131 1478.89 591.714 1474.26 Q596.321 1469.61 597.501 1468.27 Q599.746 1465.74 600.626 1464.01 Q601.529 1462.25 601.529 1460.56 Q601.529 1457.8 599.584 1456.07 Q597.663 1454.33 594.561 1454.33 Q592.362 1454.33 589.909 1455.09 Q587.478 1455.86 584.7 1457.41 L584.7 1452.69 Q587.524 1451.55 589.978 1450.97 Q592.432 1450.39 594.469 1450.39 Q599.839 1450.39 603.033 1453.08 Q606.228 1455.77 606.228 1460.26 Q606.228 1462.39 605.418 1464.31 Q604.631 1466.2 602.524 1468.8 Q601.945 1469.47 598.844 1472.69 Q595.742 1475.88 590.094 1481.64 Z" fill="#000000" fill-rule="nonzero" fill-opacity="1" /><path clip-path="url(#clip690)" d="M1037.78 1455.09 L1025.97 1473.54 L1037.78 1473.54 L1037.78 1455.09 M1036.55 1451.02 L1042.43 1451.02 L1042.43 1473.54 L1047.36 1473.54 L1047.36 1477.43 L1042.43 1477.43 L1042.43 1485.58 L1037.78 1485.58 L1037.78 1477.43 L1022.18 1477.43 L1022.18 1472.92 L1036.55 1451.02 Z" fill="#000000" fill-rule="nonzero" fill-opacity="1" /><path clip-path="url(#clip690)" d="M1474.5 1466.44 Q1471.36 1466.44 1469.5 1468.59 Q1467.67 1470.74 1467.67 1474.49 Q1467.67 1478.22 1469.5 1480.39 Q1471.36 1482.55 1474.5 1482.55 Q1477.65 1482.55 1479.48 1480.39 Q1481.33 1478.22 1481.33 1474.49 Q1481.33 1470.74 1479.48 1468.59 Q1477.65 1466.44 1474.5 1466.44 M1483.79 1451.78 L1483.79 1456.04 Q1482.03 1455.21 1480.22 1454.77 Q1478.44 1454.33 1476.68 1454.33 Q1472.05 1454.33 1469.6 1457.45 Q1467.17 1460.58 1466.82 1466.9 Q1468.18 1464.89 1470.24 1463.82 Q1472.3 1462.73 1474.78 1462.73 Q1479.99 1462.73 1483 1465.9 Q1486.03 1469.05 1486.03 1474.49 Q1486.03 1479.82 1482.88 1483.03 Q1479.73 1486.25 1474.5 1486.25 Q1468.51 1486.25 1465.34 1481.67 Q1462.17 1477.06 1462.17 1468.33 Q1462.17 1460.14 1466.05 1455.28 Q1469.94 1450.39 1476.49 1450.39 Q1478.25 1450.39 1480.04 1450.74 Q1481.84 1451.09 1483.79 1451.78 Z" fill="#000000" fill-rule="nonzero" fill-opacity="1" /><path clip-path="url(#clip690)" d="M1913.43 1469.17 Q1910.09 1469.17 1908.17 1470.95 Q1906.27 1472.73 1906.27 1475.86 Q1906.27 1478.98 1908.17 1480.77 Q1910.09 1482.55 1913.43 1482.55 Q1916.76 1482.55 1918.68 1480.77 Q1920.6 1478.96 1920.6 1475.86 Q1920.6 1472.73 1918.68 1470.95 Q1916.78 1469.17 1913.43 1469.17 M1908.75 1467.18 Q1905.74 1466.44 1904.05 1464.38 Q1902.39 1462.32 1902.39 1459.35 Q1902.39 1455.21 1905.33 1452.8 Q1908.29 1450.39 1913.43 1450.39 Q1918.59 1450.39 1921.53 1452.8 Q1924.47 1455.21 1924.47 1459.35 Q1924.47 1462.32 1922.78 1464.38 Q1921.11 1466.44 1918.13 1467.18 Q1921.51 1467.96 1923.38 1470.26 Q1925.28 1472.55 1925.28 1475.86 Q1925.28 1480.88 1922.2 1483.57 Q1919.14 1486.25 1913.43 1486.25 Q1907.71 1486.25 1904.63 1483.57 Q1901.58 1480.88 1901.58 1475.86 Q1901.58 1472.55 1903.47 1470.26 Q1905.37 1467.96 1908.75 1467.18 M1907.04 1459.79 Q1907.04 1462.48 1908.7 1463.98 Q1910.39 1465.49 1913.43 1465.49 Q1916.44 1465.49 1918.13 1463.98 Q1919.84 1462.48 1919.84 1459.79 Q1919.84 1457.11 1918.13 1455.6 Q1916.44 1454.1 1913.43 1454.1 Q1910.39 1454.1 1908.7 1455.6 Q1907.04 1457.11 1907.04 1459.79 Z" fill="#000000" fill-rule="nonzero" fill-opacity="1" /><path clip-path="url(#clip690)" d="M2327.44 1481.64 L2335.08 1481.64 L2335.08 1455.28 L2326.77 1456.95 L2326.77 1452.69 L2335.04 1451.02 L2339.71 1451.02 L2339.71 1481.64 L2347.35 1481.64 L2347.35 1485.58 L2327.44 1485.58 L2327.44 1481.64 Z" fill="#000000" fill-rule="nonzero" fill-opacity="1" /><path clip-path="url(#clip690)" d="M2366.8 1454.1 Q2363.18 1454.1 2361.36 1457.66 Q2359.55 1461.2 2359.55 1468.33 Q2359.55 1475.44 2361.36 1479.01 Q2363.18 1482.55 2366.8 1482.55 Q2370.43 1482.55 2372.23 1479.01 Q2374.06 1475.44 2374.06 1468.33 Q2374.06 1461.2 2372.23 1457.66 Q2370.43 1454.1 2366.8 1454.1 M2366.8 1450.39 Q2372.61 1450.39 2375.66 1455 Q2378.74 1459.58 2378.74 1468.33 Q2378.74 1477.06 2375.66 1481.67 Q2372.61 1486.25 2366.8 1486.25 Q2360.99 1486.25 2357.91 1481.67 Q2354.85 1477.06 2354.85 1468.33 Q2354.85 1459.58 2357.91 1455 Q2360.99 1450.39 2366.8 1450.39 Z" fill="#000000" fill-rule="nonzero" fill-opacity="1" /><path clip-path="url(#clip690)" d="M1253.5 1522.27 L1253.5 1532.4 L1265.56 1532.4 L1265.56 1536.95 L1253.5 1536.95 L1253.5 1556.3 Q1253.5 1560.66 1254.67 1561.9 Q1255.88 1563.14 1259.54 1563.14 L1265.56 1563.14 L1265.56 1568.04 L1259.54 1568.04 Q1252.76 1568.04 1250.18 1565.53 Q1247.61 1562.98 1247.61 1556.3 L1247.61 1536.95 L1243.31 1536.95 L1243.31 1532.4 L1247.61 1532.4 L1247.61 1522.27 L1253.5 1522.27 Z" fill="#000000" fill-rule="nonzero" fill-opacity="1" /><polyline clip-path="url(#clip690)" style="stroke:#000000; stroke-linecap:round; stroke-linejoin:round; stroke-width:4; stroke-opacity:1; fill:none" points="156.112,1423.18 156.112,47.2441 "/>
<polyline clip-path="url(#clip690)" style="stroke:#000000; stroke-linecap:round; stroke-linejoin:round; stroke-width:4; stroke-opacity:1; fill:none" points="156.112,1354.25 175.01,1354.25 "/>
<polyline clip-path="url(#clip690)" style="stroke:#000000; stroke-linecap:round; stroke-linejoin:round; stroke-width:4; stroke-opacity:1; fill:none" points="156.112,969.585 175.01,969.585 "/>
<polyline clip-path="url(#clip690)" style="stroke:#000000; stroke-linecap:round; stroke-linejoin:round; stroke-width:4; stroke-opacity:1; fill:none" points="156.112,584.92 175.01,584.92 "/>
<polyline clip-path="url(#clip690)" style="stroke:#000000; stroke-linecap:round; stroke-linejoin:round; stroke-width:4; stroke-opacity:1; fill:none" points="156.112,200.255 175.01,200.255 "/>
<path clip-path="url(#clip690)" d="M62.9365 1340.05 Q59.3254 1340.05 57.4967 1343.61 Q55.6912 1347.15 55.6912 1354.28 Q55.6912 1361.39 57.4967 1364.96 Q59.3254 1368.5 62.9365 1368.5 Q66.5707 1368.5 68.3763 1364.96 Q70.205 1361.39 70.205 1354.28 Q70.205 1347.15 68.3763 1343.61 Q66.5707 1340.05 62.9365 1340.05 M62.9365 1336.34 Q68.7467 1336.34 71.8022 1340.95 Q74.8809 1345.53 74.8809 1354.28 Q74.8809 1363.01 71.8022 1367.62 Q68.7467 1372.2 62.9365 1372.2 Q57.1264 1372.2 54.0477 1367.62 Q50.9921 1363.01 50.9921 1354.28 Q50.9921 1345.53 54.0477 1340.95 Q57.1264 1336.34 62.9365 1336.34 Z" fill="#000000" fill-rule="nonzero" fill-opacity="1" /><path clip-path="url(#clip690)" d="M83.0984 1365.65 L87.9827 1365.65 L87.9827 1371.53 L83.0984 1371.53 L83.0984 1365.65 Z" fill="#000000" fill-rule="nonzero" fill-opacity="1" /><path clip-path="url(#clip690)" d="M108.168 1340.05 Q104.557 1340.05 102.728 1343.61 Q100.922 1347.15 100.922 1354.28 Q100.922 1361.39 102.728 1364.96 Q104.557 1368.5 108.168 1368.5 Q111.802 1368.5 113.608 1364.96 Q115.436 1361.39 115.436 1354.28 Q115.436 1347.15 113.608 1343.61 Q111.802 1340.05 108.168 1340.05 M108.168 1336.34 Q113.978 1336.34 117.033 1340.95 Q120.112 1345.53 120.112 1354.28 Q120.112 1363.01 117.033 1367.62 Q113.978 1372.2 108.168 1372.2 Q102.358 1372.2 99.2789 1367.62 Q96.2234 1363.01 96.2234 1354.28 Q96.2234 1345.53 99.2789 1340.95 Q102.358 1336.34 108.168 1336.34 Z" fill="#000000" fill-rule="nonzero" fill-opacity="1" /><path clip-path="url(#clip690)" d="M64.1634 955.383 Q60.5523 955.383 58.7236 958.948 Q56.918 962.49 56.918 969.619 Q56.918 976.726 58.7236 980.291 Q60.5523 983.832 64.1634 983.832 Q67.7976 983.832 69.6031 980.291 Q71.4318 976.726 71.4318 969.619 Q71.4318 962.49 69.6031 958.948 Q67.7976 955.383 64.1634 955.383 M64.1634 951.68 Q69.9735 951.68 73.029 956.286 Q76.1077 960.869 76.1077 969.619 Q76.1077 978.346 73.029 982.953 Q69.9735 987.536 64.1634 987.536 Q58.3532 987.536 55.2745 982.953 Q52.219 978.346 52.219 969.619 Q52.219 960.869 55.2745 956.286 Q58.3532 951.68 64.1634 951.68 Z" fill="#000000" fill-rule="nonzero" fill-opacity="1" /><path clip-path="url(#clip690)" d="M84.3253 980.985 L89.2095 980.985 L89.2095 986.865 L84.3253 986.865 L84.3253 980.985 Z" fill="#000000" fill-rule="nonzero" fill-opacity="1" /><path clip-path="url(#clip690)" d="M100.205 982.93 L107.844 982.93 L107.844 956.564 L99.5335 958.231 L99.5335 953.971 L107.797 952.305 L112.473 952.305 L112.473 982.93 L120.112 982.93 L120.112 986.865 L100.205 986.865 L100.205 982.93 Z" fill="#000000" fill-rule="nonzero" fill-opacity="1" /><path clip-path="url(#clip690)" d="M64.5337 570.718 Q60.9226 570.718 59.0939 574.283 Q57.2884 577.825 57.2884 584.955 Q57.2884 592.061 59.0939 595.626 Q60.9226 599.167 64.5337 599.167 Q68.168 599.167 69.9735 595.626 Q71.8022 592.061 71.8022 584.955 Q71.8022 577.825 69.9735 574.283 Q68.168 570.718 64.5337 570.718 M64.5337 567.015 Q70.3439 567.015 73.3994 571.621 Q76.4781 576.205 76.4781 584.955 Q76.4781 593.681 73.3994 598.288 Q70.3439 602.871 64.5337 602.871 Q58.7236 602.871 55.6449 598.288 Q52.5893 593.681 52.5893 584.955 Q52.5893 576.205 55.6449 571.621 Q58.7236 567.015 64.5337 567.015 Z" fill="#000000" fill-rule="nonzero" fill-opacity="1" /><path clip-path="url(#clip690)" d="M84.6956 596.32 L89.5799 596.32 L89.5799 602.2 L84.6956 602.2 L84.6956 596.32 Z" fill="#000000" fill-rule="nonzero" fill-opacity="1" /><path clip-path="url(#clip690)" d="M103.793 598.265 L120.112 598.265 L120.112 602.2 L98.1678 602.2 L98.1678 598.265 Q100.83 595.51 105.413 590.88 Q110.02 586.228 111.2 584.885 Q113.445 582.362 114.325 580.626 Q115.228 578.867 115.228 577.177 Q115.228 574.422 113.283 572.686 Q111.362 570.95 108.26 570.95 Q106.061 570.95 103.608 571.714 Q101.177 572.478 98.3993 574.029 L98.3993 569.306 Q101.223 568.172 103.677 567.593 Q106.131 567.015 108.168 567.015 Q113.538 567.015 116.733 569.7 Q119.927 572.385 119.927 576.876 Q119.927 579.005 119.117 580.927 Q118.33 582.825 116.223 585.417 Q115.645 586.089 112.543 589.306 Q109.441 592.501 103.793 598.265 Z" fill="#000000" fill-rule="nonzero" fill-opacity="1" /><path clip-path="url(#clip690)" d="M63.5847 186.054 Q59.9736 186.054 58.1449 189.618 Q56.3393 193.16 56.3393 200.29 Q56.3393 207.396 58.1449 210.961 Q59.9736 214.502 63.5847 214.502 Q67.2189 214.502 69.0244 210.961 Q70.8531 207.396 70.8531 200.29 Q70.8531 193.16 69.0244 189.618 Q67.2189 186.054 63.5847 186.054 M63.5847 182.35 Q69.3948 182.35 72.4503 186.956 Q75.529 191.54 75.529 200.29 Q75.529 209.016 72.4503 213.623 Q69.3948 218.206 63.5847 218.206 Q57.7745 218.206 54.6958 213.623 Q51.6403 209.016 51.6403 200.29 Q51.6403 191.54 54.6958 186.956 Q57.7745 182.35 63.5847 182.35 Z" fill="#000000" fill-rule="nonzero" fill-opacity="1" /><path clip-path="url(#clip690)" d="M83.7466 211.655 L88.6308 211.655 L88.6308 217.535 L83.7466 217.535 L83.7466 211.655 Z" fill="#000000" fill-rule="nonzero" fill-opacity="1" /><path clip-path="url(#clip690)" d="M112.983 198.901 Q116.339 199.618 118.214 201.887 Q120.112 204.155 120.112 207.489 Q120.112 212.604 116.594 215.405 Q113.075 218.206 106.594 218.206 Q104.418 218.206 102.103 217.766 Q99.8113 217.35 97.3576 216.493 L97.3576 211.979 Q99.3021 213.114 101.617 213.692 Q103.932 214.271 106.455 214.271 Q110.853 214.271 113.145 212.535 Q115.459 210.799 115.459 207.489 Q115.459 204.433 113.307 202.72 Q111.177 200.984 107.358 200.984 L103.33 200.984 L103.33 197.141 L107.543 197.141 Q110.992 197.141 112.82 195.776 Q114.649 194.387 114.649 191.794 Q114.649 189.132 112.751 187.72 Q110.876 186.285 107.358 186.285 Q105.436 186.285 103.237 186.702 Q101.038 187.118 98.3993 187.998 L98.3993 183.831 Q101.061 183.091 103.376 182.72 Q105.714 182.35 107.774 182.35 Q113.098 182.35 116.2 184.78 Q119.302 187.188 119.302 191.308 Q119.302 194.179 117.658 196.169 Q116.015 198.137 112.983 198.901 Z" fill="#000000" fill-rule="nonzero" fill-opacity="1" /><polyline clip-path="url(#clip691)" style="stroke:#009af9; stroke-linecap:round; stroke-linejoin:round; stroke-width:4; stroke-opacity:1; fill:none" points="156.112,969.585 375.777,988.818 595.441,839.445 815.105,1051.11 1034.77,1038.95 1254.43,1007.98 1474.1,835.828 1693.76,387.655 1913.43,86.1857 2133.09,125.692 2352.76,102.36 "/>
<polyline clip-path="url(#clip691)" style="stroke:#e26f46; stroke-linecap:round; stroke-linejoin:round; stroke-width:4; stroke-opacity:1; fill:none" points="156.112,1354.25 375.777,1327.21 595.441,1384.24 815.105,1349.84 1034.77,1346.71 1254.43,1323.69 1474.1,1277.78 1693.76,1297.83 1913.43,1350.4 2133.09,1340.58 2352.76,1374.89 "/>
<path clip-path="url(#clip690)" d="M229.334 248.629 L472.192 248.629 L472.192 93.1086 L229.334 93.1086  Z" fill="#ffffff" fill-rule="evenodd" fill-opacity="1"/>
<polyline clip-path="url(#clip690)" style="stroke:#000000; stroke-linecap:round; stroke-linejoin:round; stroke-width:4; stroke-opacity:1; fill:none" points="229.334,248.629 472.192,248.629 472.192,93.1086 229.334,93.1086 229.334,248.629 "/>
<polyline clip-path="url(#clip690)" style="stroke:#009af9; stroke-linecap:round; stroke-linejoin:round; stroke-width:4; stroke-opacity:1; fill:none" points="253.741,144.949 400.184,144.949 "/>
<path clip-path="url(#clip690)" d="M437.994 149.196 Q432.832 149.196 430.841 150.377 Q428.85 151.557 428.85 154.405 Q428.85 156.673 430.332 158.016 Q431.836 159.335 434.406 159.335 Q437.947 159.335 440.077 156.835 Q442.23 154.312 442.23 150.145 L442.23 149.196 L437.994 149.196 M446.489 147.437 L446.489 162.229 L442.23 162.229 L442.23 158.293 Q440.771 160.655 438.595 161.789 Q436.419 162.9 433.271 162.9 Q429.29 162.9 426.929 160.678 Q424.591 158.432 424.591 154.682 Q424.591 150.307 427.507 148.085 Q430.447 145.863 436.257 145.863 L442.23 145.863 L442.23 145.446 Q442.23 142.507 440.285 140.909 Q438.364 139.289 434.869 139.289 Q432.646 139.289 430.54 139.821 Q428.433 140.354 426.489 141.419 L426.489 137.483 Q428.827 136.581 431.026 136.141 Q433.225 135.678 435.308 135.678 Q440.933 135.678 443.711 138.594 Q446.489 141.511 446.489 147.437 Z" fill="#000000" fill-rule="nonzero" fill-opacity="1" /><polyline clip-path="url(#clip690)" style="stroke:#e26f46; stroke-linecap:round; stroke-linejoin:round; stroke-width:4; stroke-opacity:1; fill:none" points="253.741,196.789 400.184,196.789 "/>
<path clip-path="url(#clip690)" d="M443.364 201.129 Q443.364 196.43 441.419 193.768 Q439.498 191.083 436.119 191.083 Q432.739 191.083 430.794 193.768 Q428.873 196.43 428.873 201.129 Q428.873 205.828 430.794 208.513 Q432.739 211.175 436.119 211.175 Q439.498 211.175 441.419 208.513 Q443.364 205.828 443.364 201.129 M428.873 192.078 Q430.216 189.763 432.253 188.652 Q434.313 187.518 437.16 187.518 Q441.882 187.518 444.822 191.268 Q447.785 195.018 447.785 201.129 Q447.785 207.24 444.822 210.99 Q441.882 214.74 437.16 214.74 Q434.313 214.74 432.253 213.629 Q430.216 212.495 428.873 210.18 L428.873 214.069 L424.591 214.069 L424.591 178.05 L428.873 178.05 L428.873 192.078 Z" fill="#000000" fill-rule="nonzero" fill-opacity="1" /></svg>
