<?xml version="1.0" encoding="utf-8"?>
<svg xmlns="http://www.w3.org/2000/svg" xmlns:xlink="http://www.w3.org/1999/xlink" width="600" height="400" viewBox="0 0 2400 1600">
<defs>
  <clipPath id="clip780">
    <rect x="0" y="0" width="2400" height="1600"/>
  </clipPath>
</defs>
<path clip-path="url(#clip780)" d="M0 1600 L2400 1600 L2400 0 L0 0  Z" fill="#ffffff" fill-rule="evenodd" fill-opacity="1"/>
<defs>
  <clipPath id="clip781">
    <rect x="178" y="47" width="2175" height="1440"/>
  </clipPath>
</defs>
<path clip-path="url(#clip780)" d="M178.867 1486.45 L2352.76 1486.45 L2352.76 47.2441 L178.867 47.2441  Z" fill="#ffffff" fill-rule="evenodd" fill-opacity="1"/>
<polyline clip-path="url(#clip781)" style="stroke:#000000; stroke-linecap:round; stroke-linejoin:round; stroke-width:2; stroke-opacity:0.1; fill:none" points="240.392,1486.45 240.392,47.2441 "/>
<polyline clip-path="url(#clip781)" style="stroke:#000000; stroke-linecap:round; stroke-linejoin:round; stroke-width:2; stroke-opacity:0.1; fill:none" points="753.102,1486.45 753.102,47.2441 "/>
<polyline clip-path="url(#clip781)" style="stroke:#000000; stroke-linecap:round; stroke-linejoin:round; stroke-width:2; stroke-opacity:0.1; fill:none" points="1265.81,1486.45 1265.81,47.2441 "/>
<polyline clip-path="url(#clip781)" style="stroke:#000000; stroke-linecap:round; stroke-linejoin:round; stroke-width:2; stroke-opacity:0.1; fill:none" points="1778.52,1486.45 1778.52,47.2441 "/>
<polyline clip-path="url(#clip781)" style="stroke:#000000; stroke-linecap:round; stroke-linejoin:round; stroke-width:2; stroke-opacity:0.1; fill:none" points="2291.23,1486.45 2291.23,47.2441 "/>
<polyline clip-path="url(#clip781)" style="stroke:#000000; stroke-linecap:round; stroke-linejoin:round; stroke-width:2; stroke-opacity:0.1; fill:none" points="178.867,1274.37 2352.76,1274.37 "/>
<polyline clip-path="url(#clip781)" style="stroke:#000000; stroke-linecap:round; stroke-linejoin:round; stroke-width:2; stroke-opacity:0.1; fill:none" points="178.867,980.803 2352.76,980.803 "/>
<polyline clip-path="url(#clip781)" style="stroke:#000000; stroke-linecap:round; stroke-linejoin:round; stroke-width:2; stroke-opacity:0.1; fill:none" points="178.867,687.236 2352.76,687.236 "/>
<polyline clip-path="url(#clip781)" style="stroke:#000000; stroke-linecap:round; stroke-linejoin:round; stroke-width:2; stroke-opacity:0.1; fill:none" points="178.867,393.669 2352.76,393.669 "/>
<polyline clip-path="url(#clip781)" style="stroke:#000000; stroke-linecap:round; stroke-linejoin:round; stroke-width:2; stroke-opacity:0.1; fill:none" points="178.867,100.102 2352.76,100.102 "/>
<polyline clip-path="url(#clip780)" style="stroke:#000000; stroke-linecap:round; stroke-linejoin:round; stroke-width:4; stroke-opacity:1; fill:none" points="178.867,1486.45 2352.76,1486.45 "/>
<polyline clip-path="url(#clip780)" style="stroke:#000000; stroke-linecap:round; stroke-linejoin:round; stroke-width:4; stroke-opacity:1; fill:none" points="240.392,1486.45 240.392,1467.55 "/>
<polyline clip-path="url(#clip780)" style="stroke:#000000; stroke-linecap:round; stroke-linejoin:round; stroke-width:4; stroke-opacity:1; fill:none" points="753.102,1486.45 753.102,1467.55 "/>
<polyline clip-path="url(#clip780)" style="stroke:#000000; stroke-linecap:round; stroke-linejoin:round; stroke-width:4; stroke-opacity:1; fill:none" points="1265.81,1486.45 1265.81,1467.55 "/>
<polyline clip-path="url(#clip780)" style="stroke:#000000; stroke-linecap:round; stroke-linejoin:round; stroke-width:4; stroke-opacity:1; fill:none" points="1778.52,1486.45 1778.52,1467.55 "/>
<polyline clip-path="url(#clip780)" style="stroke:#000000; stroke-linecap:round; stroke-linejoin:round; stroke-width:4; stroke-opacity:1; fill:none" points="2291.23,1486.45 2291.23,1467.55 "/>
<path clip-path="url(#clip780)" d="M217.776 1517.37 Q214.165 1517.37 212.336 1520.93 Q210.531 1524.47 210.531 1531.6 Q210.531 1538.71 212.336 1542.27 Q214.165 1545.82 217.776 1545.82 Q221.41 1545.82 223.216 1542.27 Q225.045 1538.71 225.045 1531.6 Q225.045 1524.47 223.216 1520.93 Q221.41 1517.37 217.776 1517.37 M217.776 1513.66 Q223.586 1513.66 226.642 1518.27 Q229.721 1522.85 229.721 1531.6 Q229.721 1540.33 226.642 1544.94 Q223.586 1549.52 217.776 1549.52 Q211.966 1549.52 208.887 1544.94 Q205.832 1540.33 205.832 1531.6 Q205.832 1522.85 208.887 1518.27 Q211.966 1513.66 217.776 1513.66 Z" fill="#000000" fill-rule="nonzero" fill-opacity="1" /><path clip-path="url(#clip780)" d="M237.938 1542.97 L242.822 1542.97 L242.822 1548.85 L237.938 1548.85 L237.938 1542.97 Z" fill="#000000" fill-rule="nonzero" fill-opacity="1" /><path clip-path="url(#clip780)" d="M263.007 1517.37 Q259.396 1517.37 257.568 1520.93 Q255.762 1524.47 255.762 1531.6 Q255.762 1538.71 257.568 1542.27 Q259.396 1545.82 263.007 1545.82 Q266.642 1545.82 268.447 1542.27 Q270.276 1538.71 270.276 1531.6 Q270.276 1524.47 268.447 1520.93 Q266.642 1517.37 263.007 1517.37 M263.007 1513.66 Q268.818 1513.66 271.873 1518.27 Q274.952 1522.85 274.952 1531.6 Q274.952 1540.33 271.873 1544.94 Q268.818 1549.52 263.007 1549.52 Q257.197 1549.52 254.119 1544.94 Q251.063 1540.33 251.063 1531.6 Q251.063 1522.85 254.119 1518.27 Q257.197 1513.66 263.007 1513.66 Z" fill="#000000" fill-rule="nonzero" fill-opacity="1" /><path clip-path="url(#clip780)" d="M724.838 1544.91 L741.157 1544.91 L741.157 1548.85 L719.213 1548.85 L719.213 1544.91 Q721.875 1542.16 726.458 1537.53 Q731.065 1532.88 732.245 1531.53 Q734.491 1529.01 735.37 1527.27 Q736.273 1525.51 736.273 1523.82 Q736.273 1521.07 734.328 1519.33 Q732.407 1517.6 729.305 1517.6 Q727.106 1517.6 724.653 1518.36 Q722.222 1519.13 719.444 1520.68 L719.444 1515.95 Q722.268 1514.82 724.722 1514.24 Q727.176 1513.66 729.213 1513.66 Q734.583 1513.66 737.778 1516.35 Q740.972 1519.03 740.972 1523.52 Q740.972 1525.65 740.162 1527.57 Q739.375 1529.47 737.268 1532.07 Q736.69 1532.74 733.588 1535.95 Q730.486 1539.15 724.838 1544.91 Z" fill="#000000" fill-rule="nonzero" fill-opacity="1" /><path clip-path="url(#clip780)" d="M750.972 1542.97 L755.856 1542.97 L755.856 1548.85 L750.972 1548.85 L750.972 1542.97 Z" fill="#000000" fill-rule="nonzero" fill-opacity="1" /><path clip-path="url(#clip780)" d="M766.088 1514.29 L784.444 1514.29 L784.444 1518.22 L770.37 1518.22 L770.37 1526.7 Q771.388 1526.35 772.407 1526.19 Q773.426 1526 774.444 1526 Q780.231 1526 783.611 1529.17 Q786.99 1532.34 786.99 1537.76 Q786.99 1543.34 783.518 1546.44 Q780.046 1549.52 773.726 1549.52 Q771.551 1549.52 769.282 1549.15 Q767.037 1548.78 764.629 1548.04 L764.629 1543.34 Q766.713 1544.47 768.935 1545.03 Q771.157 1545.58 773.634 1545.58 Q777.638 1545.58 779.976 1543.48 Q782.314 1541.37 782.314 1537.76 Q782.314 1534.15 779.976 1532.04 Q777.638 1529.94 773.634 1529.94 Q771.759 1529.94 769.884 1530.35 Q768.032 1530.77 766.088 1531.65 L766.088 1514.29 Z" fill="#000000" fill-rule="nonzero" fill-opacity="1" /><path clip-path="url(#clip780)" d="M1232.98 1514.29 L1251.33 1514.29 L1251.33 1518.22 L1237.26 1518.22 L1237.26 1526.7 Q1238.28 1526.35 1239.3 1526.19 Q1240.31 1526 1241.33 1526 Q1247.12 1526 1250.5 1529.17 Q1253.88 1532.34 1253.88 1537.76 Q1253.88 1543.34 1250.41 1546.44 Q1246.93 1549.52 1240.61 1549.52 Q1238.44 1549.52 1236.17 1549.15 Q1233.92 1548.78 1231.52 1548.04 L1231.52 1543.34 Q1233.6 1544.47 1235.82 1545.03 Q1238.05 1545.58 1240.52 1545.58 Q1244.53 1545.58 1246.86 1543.48 Q1249.2 1541.37 1249.2 1537.76 Q1249.2 1534.15 1246.86 1532.04 Q1244.53 1529.94 1240.52 1529.94 Q1238.65 1529.94 1236.77 1530.35 Q1234.92 1530.77 1232.98 1531.65 L1232.98 1514.29 Z" fill="#000000" fill-rule="nonzero" fill-opacity="1" /><path clip-path="url(#clip780)" d="M1263.09 1542.97 L1267.98 1542.97 L1267.98 1548.85 L1263.09 1548.85 L1263.09 1542.97 Z" fill="#000000" fill-rule="nonzero" fill-opacity="1" /><path clip-path="url(#clip780)" d="M1288.16 1517.37 Q1284.55 1517.37 1282.72 1520.93 Q1280.92 1524.47 1280.92 1531.6 Q1280.92 1538.71 1282.72 1542.27 Q1284.55 1545.82 1288.16 1545.82 Q1291.79 1545.82 1293.6 1542.27 Q1295.43 1538.71 1295.43 1531.6 Q1295.43 1524.47 1293.6 1520.93 Q1291.79 1517.37 1288.16 1517.37 M1288.16 1513.66 Q1293.97 1513.66 1297.03 1518.27 Q1300.11 1522.85 1300.11 1531.6 Q1300.11 1540.33 1297.03 1544.94 Q1293.97 1549.52 1288.16 1549.52 Q1282.35 1549.52 1279.27 1544.94 Q1276.22 1540.33 1276.22 1531.6 Q1276.22 1522.85 1279.27 1518.27 Q1282.35 1513.66 1288.16 1513.66 Z" fill="#000000" fill-rule="nonzero" fill-opacity="1" /><path clip-path="url(#clip780)" d="M1744.84 1514.29 L1767.06 1514.29 L1767.06 1516.28 L1754.52 1548.85 L1749.63 1548.85 L1761.44 1518.22 L1744.84 1518.22 L1744.84 1514.29 Z" fill="#000000" fill-rule="nonzero" fill-opacity="1" /><path clip-path="url(#clip780)" d="M1776.18 1542.97 L1781.07 1542.97 L1781.07 1548.85 L1776.18 1548.85 L1776.18 1542.97 Z" fill="#000000" fill-rule="nonzero" fill-opacity="1" /><path clip-path="url(#clip780)" d="M1791.3 1514.29 L1809.66 1514.29 L1809.66 1518.22 L1795.58 1518.22 L1795.58 1526.7 Q1796.6 1526.35 1797.62 1526.19 Q1798.64 1526 1799.66 1526 Q1805.44 1526 1808.82 1529.17 Q1812.2 1532.34 1812.2 1537.76 Q1812.2 1543.34 1808.73 1546.44 Q1805.26 1549.52 1798.94 1549.52 Q1796.76 1549.52 1794.49 1549.15 Q1792.25 1548.78 1789.84 1548.04 L1789.84 1543.34 Q1791.92 1544.47 1794.15 1545.03 Q1796.37 1545.58 1798.84 1545.58 Q1802.85 1545.58 1805.19 1543.48 Q1807.53 1541.37 1807.53 1537.76 Q1807.53 1534.15 1805.19 1532.04 Q1802.85 1529.94 1798.84 1529.94 Q1796.97 1529.94 1795.09 1530.35 Q1793.24 1530.77 1791.3 1531.65 L1791.3 1514.29 Z" fill="#000000" fill-rule="nonzero" fill-opacity="1" /><path clip-path="url(#clip780)" d="M2243.3 1544.91 L2250.94 1544.91 L2250.94 1518.55 L2242.63 1520.21 L2242.63 1515.95 L2250.9 1514.29 L2255.57 1514.29 L2255.57 1544.91 L2263.21 1544.91 L2263.21 1548.85 L2243.3 1548.85 L2243.3 1544.91 Z" fill="#000000" fill-rule="nonzero" fill-opacity="1" /><path clip-path="url(#clip780)" d="M2282.65 1517.37 Q2279.04 1517.37 2277.21 1520.93 Q2275.41 1524.47 2275.41 1531.6 Q2275.41 1538.71 2277.21 1542.27 Q2279.04 1545.82 2282.65 1545.82 Q2286.29 1545.82 2288.09 1542.27 Q2289.92 1538.71 2289.92 1531.6 Q2289.92 1524.47 2288.09 1520.93 Q2286.29 1517.37 2282.65 1517.37 M2282.65 1513.66 Q2288.46 1513.66 2291.52 1518.27 Q2294.6 1522.85 2294.6 1531.6 Q2294.6 1540.33 2291.52 1544.94 Q2288.46 1549.52 2282.65 1549.52 Q2276.84 1549.52 2273.77 1544.94 Q2270.71 1540.33 2270.71 1531.6 Q2270.71 1522.85 2273.77 1518.27 Q2276.84 1513.66 2282.65 1513.66 Z" fill="#000000" fill-rule="nonzero" fill-opacity="1" /><path clip-path="url(#clip780)" d="M2302.82 1542.97 L2307.7 1542.97 L2307.7 1548.85 L2302.82 1548.85 L2302.82 1542.97 Z" fill="#000000" fill-rule="nonzero" fill-opacity="1" /><path clip-path="url(#clip780)" d="M2327.89 1517.37 Q2324.27 1517.37 2322.45 1520.93 Q2320.64 1524.47 2320.64 1531.6 Q2320.64 1538.71 2322.45 1542.27 Q2324.27 1545.82 2327.89 1545.82 Q2331.52 1545.82 2333.33 1542.27 Q2335.15 1538.71 2335.15 1531.6 Q2335.15 1524.47 2333.33 1520.93 Q2331.52 1517.37 2327.89 1517.37 M2327.89 1513.66 Q2333.7 1513.66 2336.75 1518.27 Q2339.83 1522.85 2339.83 1531.6 Q2339.83 1540.33 2336.75 1544.94 Q2333.7 1549.52 2327.89 1549.52 Q2322.08 1549.52 2319 1544.94 Q2315.94 1540.33 2315.94 1531.6 Q2315.94 1522.85 2319 1518.27 Q2322.08 1513.66 2327.89 1513.66 Z" fill="#000000" fill-rule="nonzero" fill-opacity="1" /><polyline clip-path="url(#clip780)" style="stroke:#000000; stroke-linecap:round; stroke-linejoin:round; stroke-width:4; stroke-opacity:1; fill:none" points="178.867,1486.45 178.867,47.2441 "/>
<polyline clip-path="url(#clip780)" style="stroke:#000000; stroke-linecap:round; stroke-linejoin:round; stroke-width:4; stroke-opacity:1; fill:none" points="178.867,1274.37 197.764,1274.37 "/>
<polyline clip-path="url(#clip780)" style="stroke:#000000; stroke-linecap:round; stroke-linejoin:round; stroke-width:4; stroke-opacity:1; fill:none" points="178.867,980.803 197.764,980.803 "/>
<polyline clip-path="url(#clip780)" style="stroke:#000000; stroke-linecap:round; stroke-linejoin:round; stroke-width:4; stroke-opacity:1; fill:none" points="178.867,687.236 197.764,687.236 "/>
<polyline clip-path="url(#clip780)" style="stroke:#000000; stroke-linecap:round; stroke-linejoin:round; stroke-width:4; stroke-opacity:1; fill:none" points="178.867,393.669 197.764,393.669 "/>
<polyline clip-path="url(#clip780)" style="stroke:#000000; stroke-linecap:round; stroke-linejoin:round; stroke-width:4; stroke-opacity:1; fill:none" points="178.867,100.102 197.764,100.102 "/>
<path clip-path="url(#clip780)" d="M50.9921 1274.82 L80.6679 1274.82 L80.6679 1278.76 L50.9921 1278.76 L50.9921 1274.82 Z" fill="#000000" fill-rule="nonzero" fill-opacity="1" /><path clip-path="url(#clip780)" d="M91.5706 1287.72 L99.2095 1287.72 L99.2095 1261.35 L90.8993 1263.02 L90.8993 1258.76 L99.1632 1257.09 L103.839 1257.09 L103.839 1287.72 L111.478 1287.72 L111.478 1291.65 L91.5706 1291.65 L91.5706 1287.72 Z" fill="#000000" fill-rule="nonzero" fill-opacity="1" /><path clip-path="url(#clip780)" d="M130.922 1260.17 Q127.311 1260.17 125.482 1263.73 Q123.677 1267.28 123.677 1274.41 Q123.677 1281.51 125.482 1285.08 Q127.311 1288.62 130.922 1288.62 Q134.556 1288.62 136.362 1285.08 Q138.191 1281.51 138.191 1274.41 Q138.191 1267.28 136.362 1263.73 Q134.556 1260.17 130.922 1260.17 M130.922 1256.47 Q136.732 1256.47 139.788 1261.07 Q142.867 1265.66 142.867 1274.41 Q142.867 1283.13 139.788 1287.74 Q136.732 1292.32 130.922 1292.32 Q125.112 1292.32 122.033 1287.74 Q118.978 1283.13 118.978 1274.41 Q118.978 1265.66 122.033 1261.07 Q125.112 1256.47 130.922 1256.47 Z" fill="#000000" fill-rule="nonzero" fill-opacity="1" /><path clip-path="url(#clip780)" d="M82.1494 981.255 L111.825 981.255 L111.825 985.19 L82.1494 985.19 L82.1494 981.255 Z" fill="#000000" fill-rule="nonzero" fill-opacity="1" /><path clip-path="url(#clip780)" d="M121.964 963.523 L140.32 963.523 L140.32 967.458 L126.246 967.458 L126.246 975.931 Q127.265 975.583 128.283 975.421 Q129.302 975.236 130.32 975.236 Q136.107 975.236 139.487 978.407 Q142.867 981.579 142.867 986.995 Q142.867 992.574 139.394 995.676 Q135.922 998.755 129.603 998.755 Q127.427 998.755 125.158 998.384 Q122.913 998.014 120.506 997.273 L120.506 992.574 Q122.589 993.708 124.811 994.264 Q127.033 994.819 129.51 994.819 Q133.515 994.819 135.853 992.713 Q138.191 990.606 138.191 986.995 Q138.191 983.384 135.853 981.278 Q133.515 979.171 129.51 979.171 Q127.635 979.171 125.76 979.588 Q123.908 980.005 121.964 980.884 L121.964 963.523 Z" fill="#000000" fill-rule="nonzero" fill-opacity="1" /><path clip-path="url(#clip780)" d="M130.922 673.035 Q127.311 673.035 125.482 676.6 Q123.677 680.141 123.677 687.271 Q123.677 694.377 125.482 697.942 Q127.311 701.484 130.922 701.484 Q134.556 701.484 136.362 697.942 Q138.191 694.377 138.191 687.271 Q138.191 680.141 136.362 676.6 Q134.556 673.035 130.922 673.035 M130.922 669.331 Q136.732 669.331 139.788 673.937 Q142.867 678.521 142.867 687.271 Q142.867 695.998 139.788 700.604 Q136.732 705.187 130.922 705.187 Q125.112 705.187 122.033 700.604 Q118.978 695.998 118.978 687.271 Q118.978 678.521 122.033 673.937 Q125.112 669.331 130.922 669.331 Z" fill="#000000" fill-rule="nonzero" fill-opacity="1" /><path clip-path="url(#clip780)" d="M121.964 376.389 L140.32 376.389 L140.32 380.324 L126.246 380.324 L126.246 388.796 Q127.265 388.449 128.283 388.287 Q129.302 388.102 130.32 388.102 Q136.107 388.102 139.487 391.273 Q142.867 394.444 142.867 399.861 Q142.867 405.44 139.394 408.541 Q135.922 411.62 129.603 411.62 Q127.427 411.62 125.158 411.25 Q122.913 410.879 120.506 410.139 L120.506 405.44 Q122.589 406.574 124.811 407.129 Q127.033 407.685 129.51 407.685 Q133.515 407.685 135.853 405.578 Q138.191 403.472 138.191 399.861 Q138.191 396.25 135.853 394.143 Q133.515 392.037 129.51 392.037 Q127.635 392.037 125.76 392.454 Q123.908 392.87 121.964 393.75 L121.964 376.389 Z" fill="#000000" fill-rule="nonzero" fill-opacity="1" /><path clip-path="url(#clip780)" d="M91.5706 113.446 L99.2095 113.446 L99.2095 87.0808 L90.8993 88.7475 L90.8993 84.4882 L99.1632 82.8216 L103.839 82.8216 L103.839 113.446 L111.478 113.446 L111.478 117.382 L91.5706 117.382 L91.5706 113.446 Z" fill="#000000" fill-rule="nonzero" fill-opacity="1" /><path clip-path="url(#clip780)" d="M130.922 85.9003 Q127.311 85.9003 125.482 89.4651 Q123.677 93.0067 123.677 100.136 Q123.677 107.243 125.482 110.808 Q127.311 114.349 130.922 114.349 Q134.556 114.349 136.362 110.808 Q138.191 107.243 138.191 100.136 Q138.191 93.0067 136.362 89.4651 Q134.556 85.9003 130.922 85.9003 M130.922 82.1966 Q136.732 82.1966 139.788 86.803 Q142.867 91.3863 142.867 100.136 Q142.867 108.863 139.788 113.47 Q136.732 118.053 130.922 118.053 Q125.112 118.053 122.033 113.47 Q118.978 108.863 118.978 100.136 Q118.978 91.3863 122.033 86.803 Q125.112 82.1966 130.922 82.1966 Z" fill="#000000" fill-rule="nonzero" fill-opacity="1" /><path clip-path="url(#clip781)" d="M240.392 784.716 L445.476 1355.61 L650.56 1445.72 L855.643 1432.26 L1060.73 1399.32 L1265.81 1364.09 L1470.9 1331.34 L1675.98 1295.85 L1881.06 1264.2 L2086.15 1236.13 L2291.23 1207.12 L2291.23 264.377 L2086.15 243.582 L1881.06 222.721 L1675.98 205.2 L1470.9 177.639 L1265.81 151.528 L1060.73 121.502 L855.643 99.955 L650.56 87.9763 L445.476 163.791 L240.392 575.239  Z" fill="#009af9" fill-rule="evenodd" fill-opacity="0.2"/>
<polyline clip-path="url(#clip781)" style="stroke:#009af9; stroke-linecap:round; stroke-linejoin:round; stroke-width:12; stroke-opacity:1; fill:none" points="240.392,692.519 445.476,666.155 650.56,654.893 855.643,652.794 1060.73,657.078 1265.81,654.937 1470.9,656.34 1675.98,657.776 1881.06,656.959 2086.15,659.326 2291.23,664.887 "/>
<path clip-path="url(#clip781)" d="M240.392 797.41 L445.476 708.846 L650.56 691.338 L855.643 688.254 L1060.73 687.959 L1265.81 688.039 L1470.9 687.988 L1675.98 688.021 L1881.06 688.238 L2086.15 688.238 L2291.23 688.056 L2291.23 686.166 L2086.15 686.137 L1881.06 686.291 L1675.98 686.087 L1470.9 686.279 L1265.81 686.188 L1060.73 686.186 L855.643 685.848 L650.56 684.005 L445.476 670.693 L240.392 605.29  Z" fill="#e26f46" fill-rule="evenodd" fill-opacity="0.2"/>
<polyline clip-path="url(#clip781)" style="stroke:#e26f46; stroke-linecap:round; stroke-linejoin:round; stroke-width:12; stroke-opacity:1; fill:none" points="240.392,684.768 445.476,686.622 650.56,687.197 855.643,687.377 1060.73,687.087 1265.81,687.215 1470.9,687.23 1675.98,687.124 1881.06,687.304 2086.15,687.148 2291.23,687.203 "/>
</svg>
