<?xml version="1.0" encoding="utf-8"?>
<svg xmlns="http://www.w3.org/2000/svg" xmlns:xlink="http://www.w3.org/1999/xlink" width="600" height="400" viewBox="0 0 2400 1600">
<defs>
  <clipPath id="clip750">
    <rect x="0" y="0" width="2400" height="1600"/>
  </clipPath>
</defs>
<path clip-path="url(#clip750)" d="M0 1600 L2400 1600 L2400 0 L0 0  Z" fill="#ffffff" fill-rule="evenodd" fill-opacity="1"/>
<defs>
  <clipPath id="clip751">
    <rect x="224" y="47" width="2130" height="1377"/>
  </clipPath>
</defs>
<path clip-path="url(#clip750)" d="M224.098 1423.18 L2352.76 1423.18 L2352.76 47.2441 L224.098 47.2441  Z" fill="#ffffff" fill-rule="evenodd" fill-opacity="1"/>
<polyline clip-path="url(#clip751)" style="stroke:#000000; stroke-linecap:round; stroke-linejoin:round; stroke-width:2; stroke-opacity:0.1; fill:none" points="224.098,1423.18 224.098,47.2441 "/>
<polyline clip-path="url(#clip751)" style="stroke:#000000; stroke-linecap:round; stroke-linejoin:round; stroke-width:2; stroke-opacity:0.1; fill:none" points="649.829,1423.18 649.829,47.2441 "/>
<polyline clip-path="url(#clip751)" style="stroke:#000000; stroke-linecap:round; stroke-linejoin:round; stroke-width:2; stroke-opacity:0.1; fill:none" points="1075.56,1423.18 1075.56,47.2441 "/>
<polyline clip-path="url(#clip751)" style="stroke:#000000; stroke-linecap:round; stroke-linejoin:round; stroke-width:2; stroke-opacity:0.1; fill:none" points="1501.29,1423.18 1501.29,47.2441 "/>
<polyline clip-path="url(#clip751)" style="stroke:#000000; stroke-linecap:round; stroke-linejoin:round; stroke-width:2; stroke-opacity:0.1; fill:none" points="1927.02,1423.18 1927.02,47.2441 "/>
<polyline clip-path="url(#clip751)" style="stroke:#000000; stroke-linecap:round; stroke-linejoin:round; stroke-width:2; stroke-opacity:0.1; fill:none" points="2352.76,1423.18 2352.76,47.2441 "/>
<polyline clip-path="url(#clip751)" style="stroke:#000000; stroke-linecap:round; stroke-linejoin:round; stroke-width:2; stroke-opacity:0.1; fill:none" points="224.098,1402.48 2352.76,1402.48 "/>
<polyline clip-path="url(#clip751)" style="stroke:#000000; stroke-linecap:round; stroke-linejoin:round; stroke-width:2; stroke-opacity:0.1; fill:none" points="224.098,1073.41 2352.76,1073.41 "/>
<polyline clip-path="url(#clip751)" style="stroke:#000000; stroke-linecap:round; stroke-linejoin:round; stroke-width:2; stroke-opacity:0.1; fill:none" points="224.098,744.333 2352.76,744.333 "/>
<polyline clip-path="url(#clip751)" style="stroke:#000000; stroke-linecap:round; stroke-linejoin:round; stroke-width:2; stroke-opacity:0.1; fill:none" points="224.098,415.26 2352.76,415.26 "/>
<polyline clip-path="url(#clip751)" style="stroke:#000000; stroke-linecap:round; stroke-linejoin:round; stroke-width:2; stroke-opacity:0.1; fill:none" points="224.098,86.1857 2352.76,86.1857 "/>
<polyline clip-path="url(#clip750)" style="stroke:#000000; stroke-linecap:round; stroke-linejoin:round; stroke-width:4; stroke-opacity:1; fill:none" points="224.098,1423.18 2352.76,1423.18 "/>
<polyline clip-path="url(#clip750)" style="stroke:#000000; stroke-linecap:round; stroke-linejoin:round; stroke-width:4; stroke-opacity:1; fill:none" points="224.098,1423.18 224.098,1404.28 "/>
<polyline clip-path="url(#clip750)" style="stroke:#000000; stroke-linecap:round; stroke-linejoin:round; stroke-width:4; stroke-opacity:1; fill:none" points="649.829,1423.18 649.829,1404.28 "/>
<polyline clip-path="url(#clip750)" style="stroke:#000000; stroke-linecap:round; stroke-linejoin:round; stroke-width:4; stroke-opacity:1; fill:none" points="1075.56,1423.18 1075.56,1404.28 "/>
<polyline clip-path="url(#clip750)" style="stroke:#000000; stroke-linecap:round; stroke-linejoin:round; stroke-width:4; stroke-opacity:1; fill:none" points="1501.29,1423.18 1501.29,1404.28 "/>
<polyline clip-path="url(#clip750)" style="stroke:#000000; stroke-linecap:round; stroke-linejoin:round; stroke-width:4; stroke-opacity:1; fill:none" points="1927.02,1423.18 1927.02,1404.28 "/>
<polyline clip-path="url(#clip750)" style="stroke:#000000; stroke-linecap:round; stroke-linejoin:round; stroke-width:4; stroke-opacity:1; fill:none" points="2352.76,1423.18 2352.76,1404.28 "/>
<path clip-path="url(#clip750)" d="M224.098 1454.1 Q220.487 1454.1 218.658 1457.66 Q216.853 1461.2 216.853 1468.33 Q216.853 1475.44 218.658 1479.01 Q220.487 1482.55 224.098 1482.55 Q227.732 1482.55 229.538 1479.01 Q231.366 1475.44 231.366 1468.33 Q231.366 1461.2 229.538 1457.66 Q227.732 1454.1 224.098 1454.1 M224.098 1450.39 Q229.908 1450.39 232.964 1455 Q236.042 1459.58 236.042 1468.33 Q236.042 1477.06 232.964 1481.67 Q229.908 1486.25 224.098 1486.25 Q218.288 1486.25 215.209 1481.67 Q212.153 1477.06 212.153 1468.33 Q212.153 1459.58 215.209 1455 Q218.288 1450.39 224.098 1450.39 Z" fill="#000000" fill-rule="nonzero" fill-opacity="1" /><path clip-path="url(#clip750)" d="M644.482 1481.64 L660.802 1481.64 L660.802 1485.58 L638.857 1485.58 L638.857 1481.64 Q641.519 1478.89 646.103 1474.26 Q650.709 1469.61 651.89 1468.27 Q654.135 1465.74 655.015 1464.01 Q655.917 1462.25 655.917 1460.56 Q655.917 1457.8 653.973 1456.07 Q652.052 1454.33 648.95 1454.33 Q646.751 1454.33 644.297 1455.09 Q641.867 1455.86 639.089 1457.41 L639.089 1452.69 Q641.913 1451.55 644.367 1450.97 Q646.82 1450.39 648.857 1450.39 Q654.228 1450.39 657.422 1453.08 Q660.616 1455.77 660.616 1460.26 Q660.616 1462.39 659.806 1464.31 Q659.019 1466.2 656.913 1468.8 Q656.334 1469.47 653.232 1472.69 Q650.13 1475.88 644.482 1481.64 Z" fill="#000000" fill-rule="nonzero" fill-opacity="1" /><path clip-path="url(#clip750)" d="M1078.57 1455.09 L1066.76 1473.54 L1078.57 1473.54 L1078.57 1455.09 M1077.34 1451.02 L1083.22 1451.02 L1083.22 1473.54 L1088.15 1473.54 L1088.15 1477.43 L1083.22 1477.43 L1083.22 1485.58 L1078.57 1485.58 L1078.57 1477.43 L1062.97 1477.43 L1062.97 1472.92 L1077.34 1451.02 Z" fill="#000000" fill-rule="nonzero" fill-opacity="1" /><path clip-path="url(#clip750)" d="M1501.7 1466.44 Q1498.55 1466.44 1496.7 1468.59 Q1494.87 1470.74 1494.87 1474.49 Q1494.87 1478.22 1496.7 1480.39 Q1498.55 1482.55 1501.7 1482.55 Q1504.85 1482.55 1506.67 1480.39 Q1508.53 1478.22 1508.53 1474.49 Q1508.53 1470.74 1506.67 1468.59 Q1504.85 1466.44 1501.7 1466.44 M1510.98 1451.78 L1510.98 1456.04 Q1509.22 1455.21 1507.42 1454.77 Q1505.63 1454.33 1503.87 1454.33 Q1499.24 1454.33 1496.79 1457.45 Q1494.36 1460.58 1494.01 1466.9 Q1495.38 1464.89 1497.44 1463.82 Q1499.5 1462.73 1501.98 1462.73 Q1507.18 1462.73 1510.19 1465.9 Q1513.23 1469.05 1513.23 1474.49 Q1513.23 1479.82 1510.08 1483.03 Q1506.93 1486.25 1501.7 1486.25 Q1495.7 1486.25 1492.53 1481.67 Q1489.36 1477.06 1489.36 1468.33 Q1489.36 1460.14 1493.25 1455.28 Q1497.14 1450.39 1503.69 1450.39 Q1505.45 1450.39 1507.23 1450.74 Q1509.04 1451.09 1510.98 1451.78 Z" fill="#000000" fill-rule="nonzero" fill-opacity="1" /><path clip-path="url(#clip750)" d="M1927.02 1469.17 Q1923.69 1469.17 1921.77 1470.95 Q1919.87 1472.73 1919.87 1475.86 Q1919.87 1478.98 1921.77 1480.77 Q1923.69 1482.55 1927.02 1482.55 Q1930.36 1482.55 1932.28 1480.77 Q1934.2 1478.96 1934.2 1475.86 Q1934.2 1472.73 1932.28 1470.95 Q1930.38 1469.17 1927.02 1469.17 M1922.35 1467.18 Q1919.34 1466.44 1917.65 1464.38 Q1915.98 1462.32 1915.98 1459.35 Q1915.98 1455.21 1918.92 1452.8 Q1921.89 1450.39 1927.02 1450.39 Q1932.19 1450.39 1935.13 1452.8 Q1938.07 1455.21 1938.07 1459.35 Q1938.07 1462.32 1936.38 1464.38 Q1934.71 1466.44 1931.72 1467.18 Q1935.1 1467.96 1936.98 1470.26 Q1938.88 1472.55 1938.88 1475.86 Q1938.88 1480.88 1935.8 1483.57 Q1932.74 1486.25 1927.02 1486.25 Q1921.31 1486.25 1918.23 1483.57 Q1915.17 1480.88 1915.17 1475.86 Q1915.17 1472.55 1917.07 1470.26 Q1918.97 1467.96 1922.35 1467.18 M1920.64 1459.79 Q1920.64 1462.48 1922.3 1463.98 Q1923.99 1465.49 1927.02 1465.49 Q1930.03 1465.49 1931.72 1463.98 Q1933.44 1462.48 1933.44 1459.79 Q1933.44 1457.11 1931.72 1455.6 Q1930.03 1454.1 1927.02 1454.1 Q1923.99 1454.1 1922.3 1455.6 Q1920.64 1457.11 1920.64 1459.79 Z" fill="#000000" fill-rule="nonzero" fill-opacity="1" /><path clip-path="url(#clip750)" d="M2327.44 1481.64 L2335.08 1481.64 L2335.08 1455.28 L2326.77 1456.95 L2326.77 1452.69 L2335.04 1451.02 L2339.71 1451.02 L2339.71 1481.64 L2347.35 1481.64 L2347.35 1485.58 L2327.44 1485.58 L2327.44 1481.64 Z" fill="#000000" fill-rule="nonzero" fill-opacity="1" /><path clip-path="url(#clip750)" d="M2366.8 1454.1 Q2363.18 1454.1 2361.36 1457.66 Q2359.55 1461.2 2359.55 1468.33 Q2359.55 1475.44 2361.36 1479.01 Q2363.18 1482.55 2366.8 1482.55 Q2370.43 1482.55 2372.23 1479.01 Q2374.06 1475.44 2374.06 1468.33 Q2374.06 1461.2 2372.23 1457.66 Q2370.43 1454.1 2366.8 1454.1 M2366.8 1450.39 Q2372.61 1450.39 2375.66 1455 Q2378.74 1459.58 2378.74 1468.33 Q2378.74 1477.06 2375.66 1481.67 Q2372.61 1486.25 2366.8 1486.25 Q2360.99 1486.25 2357.91 1481.67 Q2354.85 1477.06 2354.85 1468.33 Q2354.85 1459.58 2357.91 1455 Q2360.99 1450.39 2366.8 1450.39 Z" fill="#000000" fill-rule="nonzero" fill-opacity="1" /><path clip-path="url(#clip750)" d="M1287.49 1522.27 L1287.49 1532.4 L1299.55 1532.4 L1299.55 1536.95 L1287.49 1536.95 L1287.49 1556.3 Q1287.49 1560.66 1288.67 1561.9 Q1289.88 1563.14 1293.54 1563.14 L1299.55 1563.14 L1299.55 1568.04 L1293.54 1568.04 Q1286.76 1568.04 1284.18 1565.53 Q1281.6 1562.98 1281.6 1556.3 L1281.6 1536.95 L1277.3 1536.95 L1277.3 1532.4 L1281.6 1532.4 L1281.6 1522.27 L1287.49 1522.27 Z" fill="#000000" fill-rule="nonzero" fill-opacity="1" /><polyline clip-path="url(#clip750)" style="stroke:#000000; stroke-linecap:round; stroke-linejoin:round; stroke-width:4; stroke-opacity:1; fill:none" points="224.098,1423.18 224.098,47.2441 "/>
<polyline clip-path="url(#clip750)" style="stroke:#000000; stroke-linecap:round; stroke-linejoin:round; stroke-width:4; stroke-opacity:1; fill:none" points="224.098,1402.48 242.996,1402.48 "/>
<polyline clip-path="url(#clip750)" style="stroke:#000000; stroke-linecap:round; stroke-linejoin:round; stroke-width:4; stroke-opacity:1; fill:none" points="224.098,1073.41 242.996,1073.41 "/>
<polyline clip-path="url(#clip750)" style="stroke:#000000; stroke-linecap:round; stroke-linejoin:round; stroke-width:4; stroke-opacity:1; fill:none" points="224.098,744.333 242.996,744.333 "/>
<polyline clip-path="url(#clip750)" style="stroke:#000000; stroke-linecap:round; stroke-linejoin:round; stroke-width:4; stroke-opacity:1; fill:none" points="224.098,415.26 242.996,415.26 "/>
<polyline clip-path="url(#clip750)" style="stroke:#000000; stroke-linecap:round; stroke-linejoin:round; stroke-width:4; stroke-opacity:1; fill:none" points="224.098,86.1857 242.996,86.1857 "/>
<path clip-path="url(#clip750)" d="M50.9921 1402.93 L80.6679 1402.93 L80.6679 1406.87 L50.9921 1406.87 L50.9921 1402.93 Z" fill="#000000" fill-rule="nonzero" fill-opacity="1" /><path clip-path="url(#clip750)" d="M91.5706 1415.83 L99.2095 1415.83 L99.2095 1389.46 L90.8993 1391.13 L90.8993 1386.87 L99.1632 1385.2 L103.839 1385.2 L103.839 1415.83 L111.478 1415.83 L111.478 1419.76 L91.5706 1419.76 L91.5706 1415.83 Z" fill="#000000" fill-rule="nonzero" fill-opacity="1" /><path clip-path="url(#clip750)" d="M130.922 1388.28 Q127.311 1388.28 125.482 1391.84 Q123.677 1395.39 123.677 1402.52 Q123.677 1409.62 125.482 1413.19 Q127.311 1416.73 130.922 1416.73 Q134.556 1416.73 136.362 1413.19 Q138.191 1409.62 138.191 1402.52 Q138.191 1395.39 136.362 1391.84 Q134.556 1388.28 130.922 1388.28 M130.922 1384.58 Q136.732 1384.58 139.788 1389.18 Q142.867 1393.77 142.867 1402.52 Q142.867 1411.24 139.788 1415.85 Q136.732 1420.43 130.922 1420.43 Q125.112 1420.43 122.033 1415.85 Q118.978 1411.24 118.978 1402.52 Q118.978 1393.77 122.033 1389.18 Q125.112 1384.58 130.922 1384.58 Z" fill="#000000" fill-rule="nonzero" fill-opacity="1" /><path clip-path="url(#clip750)" d="M151.084 1413.88 L155.968 1413.88 L155.968 1419.76 L151.084 1419.76 L151.084 1413.88 Z" fill="#000000" fill-rule="nonzero" fill-opacity="1" /><path clip-path="url(#clip750)" d="M176.153 1388.28 Q172.542 1388.28 170.714 1391.84 Q168.908 1395.39 168.908 1402.52 Q168.908 1409.62 170.714 1413.19 Q172.542 1416.73 176.153 1416.73 Q179.788 1416.73 181.593 1413.19 Q183.422 1409.62 183.422 1402.52 Q183.422 1395.39 181.593 1391.84 Q179.788 1388.28 176.153 1388.28 M176.153 1384.58 Q181.964 1384.58 185.019 1389.18 Q188.098 1393.77 188.098 1402.52 Q188.098 1411.24 185.019 1415.85 Q181.964 1420.43 176.153 1420.43 Q170.343 1420.43 167.265 1415.85 Q164.209 1411.24 164.209 1402.52 Q164.209 1393.77 167.265 1389.18 Q170.343 1384.58 176.153 1384.58 Z" fill="#000000" fill-rule="nonzero" fill-opacity="1" /><path clip-path="url(#clip750)" d="M82.1494 1073.86 L111.825 1073.86 L111.825 1077.79 L82.1494 1077.79 L82.1494 1073.86 Z" fill="#000000" fill-rule="nonzero" fill-opacity="1" /><path clip-path="url(#clip750)" d="M120.737 1056.13 L142.959 1056.13 L142.959 1058.12 L130.413 1090.69 L125.529 1090.69 L137.334 1060.06 L120.737 1060.06 L120.737 1056.13 Z" fill="#000000" fill-rule="nonzero" fill-opacity="1" /><path clip-path="url(#clip750)" d="M152.08 1084.81 L156.964 1084.81 L156.964 1090.69 L152.08 1090.69 L152.08 1084.81 Z" fill="#000000" fill-rule="nonzero" fill-opacity="1" /><path clip-path="url(#clip750)" d="M167.195 1056.13 L185.552 1056.13 L185.552 1060.06 L171.478 1060.06 L171.478 1068.53 Q172.496 1068.19 173.515 1068.03 Q174.533 1067.84 175.552 1067.84 Q181.339 1067.84 184.718 1071.01 Q188.098 1074.18 188.098 1079.6 Q188.098 1085.18 184.626 1088.28 Q181.153 1091.36 174.834 1091.36 Q172.658 1091.36 170.39 1090.99 Q168.144 1090.62 165.737 1089.88 L165.737 1085.18 Q167.82 1086.31 170.042 1086.87 Q172.265 1087.42 174.741 1087.42 Q178.746 1087.42 181.084 1085.32 Q183.422 1083.21 183.422 1079.6 Q183.422 1075.99 181.084 1073.88 Q178.746 1071.78 174.741 1071.78 Q172.866 1071.78 170.991 1072.19 Q169.14 1072.61 167.195 1073.49 L167.195 1056.13 Z" fill="#000000" fill-rule="nonzero" fill-opacity="1" /><path clip-path="url(#clip750)" d="M81.154 744.785 L110.83 744.785 L110.83 748.72 L81.154 748.72 L81.154 744.785 Z" fill="#000000" fill-rule="nonzero" fill-opacity="1" /><path clip-path="url(#clip750)" d="M120.969 727.053 L139.325 727.053 L139.325 730.989 L125.251 730.989 L125.251 739.461 Q126.27 739.114 127.288 738.952 Q128.307 738.766 129.325 738.766 Q135.112 738.766 138.492 741.938 Q141.871 745.109 141.871 750.526 Q141.871 756.104 138.399 759.206 Q134.927 762.285 128.607 762.285 Q126.432 762.285 124.163 761.914 Q121.918 761.544 119.51 760.803 L119.51 756.104 Q121.594 757.238 123.816 757.794 Q126.038 758.35 128.515 758.35 Q132.519 758.35 134.857 756.243 Q137.195 754.137 137.195 750.526 Q137.195 746.914 134.857 744.808 Q132.519 742.702 128.515 742.702 Q126.64 742.702 124.765 743.118 Q122.913 743.535 120.969 744.414 L120.969 727.053 Z" fill="#000000" fill-rule="nonzero" fill-opacity="1" /><path clip-path="url(#clip750)" d="M151.084 755.734 L155.968 755.734 L155.968 761.613 L151.084 761.613 L151.084 755.734 Z" fill="#000000" fill-rule="nonzero" fill-opacity="1" /><path clip-path="url(#clip750)" d="M176.153 730.132 Q172.542 730.132 170.714 733.697 Q168.908 737.239 168.908 744.368 Q168.908 751.475 170.714 755.039 Q172.542 758.581 176.153 758.581 Q179.788 758.581 181.593 755.039 Q183.422 751.475 183.422 744.368 Q183.422 737.239 181.593 733.697 Q179.788 730.132 176.153 730.132 M176.153 726.428 Q181.964 726.428 185.019 731.035 Q188.098 735.618 188.098 744.368 Q188.098 753.095 185.019 757.701 Q181.964 762.285 176.153 762.285 Q170.343 762.285 167.265 757.701 Q164.209 753.095 164.209 744.368 Q164.209 735.618 167.265 731.035 Q170.343 726.428 176.153 726.428 Z" fill="#000000" fill-rule="nonzero" fill-opacity="1" /><path clip-path="url(#clip750)" d="M82.1494 415.711 L111.825 415.711 L111.825 419.646 L82.1494 419.646 L82.1494 415.711 Z" fill="#000000" fill-rule="nonzero" fill-opacity="1" /><path clip-path="url(#clip750)" d="M125.945 428.604 L142.265 428.604 L142.265 432.54 L120.32 432.54 L120.32 428.604 Q122.982 425.85 127.566 421.22 Q132.172 416.567 133.353 415.225 Q135.598 412.702 136.478 410.966 Q137.381 409.206 137.381 407.517 Q137.381 404.762 135.436 403.026 Q133.515 401.29 130.413 401.29 Q128.214 401.29 125.76 402.054 Q123.33 402.817 120.552 404.368 L120.552 399.646 Q123.376 398.512 125.83 397.933 Q128.283 397.355 130.32 397.355 Q135.691 397.355 138.885 400.04 Q142.08 402.725 142.08 407.216 Q142.08 409.345 141.269 411.267 Q140.482 413.165 138.376 415.757 Q137.797 416.429 134.695 419.646 Q131.594 422.841 125.945 428.604 Z" fill="#000000" fill-rule="nonzero" fill-opacity="1" /><path clip-path="url(#clip750)" d="M152.08 426.66 L156.964 426.66 L156.964 432.54 L152.08 432.54 L152.08 426.66 Z" fill="#000000" fill-rule="nonzero" fill-opacity="1" /><path clip-path="url(#clip750)" d="M167.195 397.98 L185.552 397.98 L185.552 401.915 L171.478 401.915 L171.478 410.387 Q172.496 410.04 173.515 409.878 Q174.533 409.692 175.552 409.692 Q181.339 409.692 184.718 412.864 Q188.098 416.035 188.098 421.452 Q188.098 427.03 184.626 430.132 Q181.153 433.211 174.834 433.211 Q172.658 433.211 170.39 432.84 Q168.144 432.47 165.737 431.729 L165.737 427.03 Q167.82 428.165 170.042 428.72 Q172.265 429.276 174.741 429.276 Q178.746 429.276 181.084 427.169 Q183.422 425.063 183.422 421.452 Q183.422 417.841 181.084 415.734 Q178.746 413.628 174.741 413.628 Q172.866 413.628 170.991 414.044 Q169.14 414.461 167.195 415.341 L167.195 397.98 Z" fill="#000000" fill-rule="nonzero" fill-opacity="1" /><path clip-path="url(#clip750)" d="M130.922 71.9843 Q127.311 71.9843 125.482 75.5491 Q123.677 79.0908 123.677 86.2204 Q123.677 93.3268 125.482 96.8916 Q127.311 100.433 130.922 100.433 Q134.556 100.433 136.362 96.8916 Q138.191 93.3268 138.191 86.2204 Q138.191 79.0908 136.362 75.5491 Q134.556 71.9843 130.922 71.9843 M130.922 68.2807 Q136.732 68.2807 139.788 72.8871 Q142.867 77.4704 142.867 86.2204 Q142.867 94.9472 139.788 99.5536 Q136.732 104.137 130.922 104.137 Q125.112 104.137 122.033 99.5536 Q118.978 94.9472 118.978 86.2204 Q118.978 77.4704 122.033 72.8871 Q125.112 68.2807 130.922 68.2807 Z" fill="#000000" fill-rule="nonzero" fill-opacity="1" /><path clip-path="url(#clip750)" d="M151.084 97.5861 L155.968 97.5861 L155.968 103.466 L151.084 103.466 L151.084 97.5861 Z" fill="#000000" fill-rule="nonzero" fill-opacity="1" /><path clip-path="url(#clip750)" d="M176.153 71.9843 Q172.542 71.9843 170.714 75.5491 Q168.908 79.0908 168.908 86.2204 Q168.908 93.3268 170.714 96.8916 Q172.542 100.433 176.153 100.433 Q179.788 100.433 181.593 96.8916 Q183.422 93.3268 183.422 86.2204 Q183.422 79.0908 181.593 75.5491 Q179.788 71.9843 176.153 71.9843 M176.153 68.2807 Q181.964 68.2807 185.019 72.8871 Q188.098 77.4704 188.098 86.2204 Q188.098 94.9472 185.019 99.5536 Q181.964 104.137 176.153 104.137 Q170.343 104.137 167.265 99.5536 Q164.209 94.9472 164.209 86.2204 Q164.209 77.4704 167.265 72.8871 Q170.343 68.2807 176.153 68.2807 Z" fill="#000000" fill-rule="nonzero" fill-opacity="1" /><polyline clip-path="url(#clip751)" style="stroke:#009af9; stroke-linecap:round; stroke-linejoin:round; stroke-width:4; stroke-opacity:1; fill:none" points="224.098,235.743 436.964,1239.64 649.829,1384.24 862.695,1359.79 1075.56,1304.2 1288.43,1244.92 1501.29,1187.31 1714.16,1132.31 1927.02,1080.02 2139.89,1030.33 2352.76,983.125 "/>
<polyline clip-path="url(#clip751)" style="stroke:#e26f46; stroke-linecap:round; stroke-linejoin:round; stroke-width:4; stroke-opacity:1; fill:none" points="224.098,249.31 436.964,118.811 649.829,92.7106 862.695,87.4907 1075.56,86.4467 1288.43,86.2379 1501.29,86.1961 1714.16,86.1877 1927.02,86.1861 2139.89,86.1857 2352.76,86.1857 "/>
<path clip-path="url(#clip750)" d="M1961.25 1377.32 L2281.8 1377.32 L2281.8 1221.8 L1961.25 1221.8  Z" fill="#ffffff" fill-rule="evenodd" fill-opacity="1"/>
<polyline clip-path="url(#clip750)" style="stroke:#000000; stroke-linecap:round; stroke-linejoin:round; stroke-width:4; stroke-opacity:1; fill:none" points="1961.25,1377.32 2281.8,1377.32 2281.8,1221.8 1961.25,1221.8 1961.25,1377.32 "/>
<polyline clip-path="url(#clip750)" style="stroke:#009af9; stroke-linecap:round; stroke-linejoin:round; stroke-width:4; stroke-opacity:1; fill:none" points="1984.9,1273.64 2126.81,1273.64 "/>
<path clip-path="url(#clip750)" d="M2150.46 1280.68 L2150.46 1264.99 L2154.72 1264.99 L2154.72 1280.52 Q2154.72 1284.2 2156.16 1286.05 Q2157.59 1287.88 2160.46 1287.88 Q2163.91 1287.88 2165.9 1285.68 Q2167.92 1283.48 2167.92 1279.69 L2167.92 1264.99 L2172.18 1264.99 L2172.18 1290.92 L2167.92 1290.92 L2167.92 1286.93 Q2166.37 1289.29 2164.31 1290.45 Q2162.27 1291.59 2159.56 1291.59 Q2155.09 1291.59 2152.78 1288.81 Q2150.46 1286.03 2150.46 1280.68 M2161.18 1264.36 L2161.18 1264.36 Z" fill="#000000" fill-rule="nonzero" fill-opacity="1" /><path clip-path="url(#clip750)" d="M2182.36 1286.98 L2190 1286.98 L2190 1260.61 L2181.69 1262.28 L2181.69 1258.02 L2189.95 1256.36 L2194.63 1256.36 L2194.63 1286.98 L2202.27 1286.98 L2202.27 1290.92 L2182.36 1290.92 L2182.36 1286.98 Z" fill="#000000" fill-rule="nonzero" fill-opacity="1" /><path clip-path="url(#clip750)" d="M2221.34 1254.94 Q2218.24 1260.27 2216.74 1265.48 Q2215.23 1270.68 2215.23 1276.03 Q2215.23 1281.38 2216.74 1286.63 Q2218.26 1291.86 2221.34 1297.17 L2217.64 1297.17 Q2214.17 1291.73 2212.43 1286.47 Q2210.72 1281.22 2210.72 1276.03 Q2210.72 1270.87 2212.43 1265.64 Q2214.14 1260.41 2217.64 1254.94 L2221.34 1254.94 Z" fill="#000000" fill-rule="nonzero" fill-opacity="1" /><path clip-path="url(#clip750)" d="M2233.82 1257.63 L2233.82 1264.99 L2242.59 1264.99 L2242.59 1268.3 L2233.82 1268.3 L2233.82 1282.37 Q2233.82 1285.54 2234.68 1286.45 Q2235.56 1287.35 2238.22 1287.35 L2242.59 1287.35 L2242.59 1290.92 L2238.22 1290.92 Q2233.29 1290.92 2231.41 1289.09 Q2229.54 1287.23 2229.54 1282.37 L2229.54 1268.3 L2226.41 1268.3 L2226.41 1264.99 L2229.54 1264.99 L2229.54 1257.63 L2233.82 1257.63 Z" fill="#000000" fill-rule="nonzero" fill-opacity="1" /><path clip-path="url(#clip750)" d="M2247.52 1254.94 L2251.23 1254.94 Q2254.7 1260.41 2256.41 1265.64 Q2258.15 1270.87 2258.15 1276.03 Q2258.15 1281.22 2256.41 1286.47 Q2254.7 1291.73 2251.23 1297.17 L2247.52 1297.17 Q2250.6 1291.86 2252.11 1286.63 Q2253.64 1281.38 2253.64 1276.03 Q2253.64 1270.68 2252.11 1265.48 Q2250.6 1260.27 2247.52 1254.94 Z" fill="#000000" fill-rule="nonzero" fill-opacity="1" /><polyline clip-path="url(#clip750)" style="stroke:#e26f46; stroke-linecap:round; stroke-linejoin:round; stroke-width:4; stroke-opacity:1; fill:none" points="1984.9,1325.48 2126.81,1325.48 "/>
<path clip-path="url(#clip750)" d="M2150.46 1332.52 L2150.46 1316.83 L2154.72 1316.83 L2154.72 1332.36 Q2154.72 1336.04 2156.16 1337.89 Q2157.59 1339.72 2160.46 1339.72 Q2163.91 1339.72 2165.9 1337.52 Q2167.92 1335.32 2167.92 1331.53 L2167.92 1316.83 L2172.18 1316.83 L2172.18 1342.76 L2167.92 1342.76 L2167.92 1338.77 Q2166.37 1341.13 2164.31 1342.29 Q2162.27 1343.43 2159.56 1343.43 Q2155.09 1343.43 2152.78 1340.65 Q2150.46 1337.87 2150.46 1332.52 M2161.18 1316.2 L2161.18 1316.2 Z" fill="#000000" fill-rule="nonzero" fill-opacity="1" /><path clip-path="url(#clip750)" d="M2185.58 1338.82 L2201.9 1338.82 L2201.9 1342.76 L2179.95 1342.76 L2179.95 1338.82 Q2182.62 1336.07 2187.2 1331.44 Q2191.81 1326.78 2192.99 1325.44 Q2195.23 1322.92 2196.11 1321.18 Q2197.01 1319.42 2197.01 1317.73 Q2197.01 1314.98 2195.07 1313.24 Q2193.15 1311.51 2190.05 1311.51 Q2187.85 1311.51 2185.39 1312.27 Q2182.96 1313.03 2180.19 1314.58 L2180.19 1309.86 Q2183.01 1308.73 2185.46 1308.15 Q2187.92 1307.57 2189.95 1307.57 Q2195.33 1307.57 2198.52 1310.26 Q2201.71 1312.94 2201.71 1317.43 Q2201.71 1319.56 2200.9 1321.48 Q2200.12 1323.38 2198.01 1325.97 Q2197.43 1326.64 2194.33 1329.86 Q2191.23 1333.06 2185.58 1338.82 Z" fill="#000000" fill-rule="nonzero" fill-opacity="1" /><path clip-path="url(#clip750)" d="M2221.34 1306.78 Q2218.24 1312.11 2216.74 1317.32 Q2215.23 1322.52 2215.23 1327.87 Q2215.23 1333.22 2216.74 1338.47 Q2218.26 1343.7 2221.34 1349.01 L2217.64 1349.01 Q2214.17 1343.57 2212.43 1338.31 Q2210.72 1333.06 2210.72 1327.87 Q2210.72 1322.71 2212.43 1317.48 Q2214.14 1312.25 2217.64 1306.78 L2221.34 1306.78 Z" fill="#000000" fill-rule="nonzero" fill-opacity="1" /><path clip-path="url(#clip750)" d="M2233.82 1309.47 L2233.82 1316.83 L2242.59 1316.83 L2242.59 1320.14 L2233.82 1320.14 L2233.82 1334.21 Q2233.82 1337.38 2234.68 1338.29 Q2235.56 1339.19 2238.22 1339.19 L2242.59 1339.19 L2242.59 1342.76 L2238.22 1342.76 Q2233.29 1342.76 2231.41 1340.93 Q2229.54 1339.07 2229.54 1334.21 L2229.54 1320.14 L2226.41 1320.14 L2226.41 1316.83 L2229.54 1316.83 L2229.54 1309.47 L2233.82 1309.47 Z" fill="#000000" fill-rule="nonzero" fill-opacity="1" /><path clip-path="url(#clip750)" d="M2247.52 1306.78 L2251.23 1306.78 Q2254.7 1312.25 2256.41 1317.48 Q2258.15 1322.71 2258.15 1327.87 Q2258.15 1333.06 2256.41 1338.31 Q2254.7 1343.57 2251.23 1349.01 L2247.52 1349.01 Q2250.6 1343.7 2252.11 1338.47 Q2253.64 1333.22 2253.64 1327.87 Q2253.64 1322.52 2252.11 1317.32 Q2250.6 1312.11 2247.52 1306.78 Z" fill="#000000" fill-rule="nonzero" fill-opacity="1" /></svg>
