<?xml version="1.0" encoding="utf-8"?>
<svg xmlns="http://www.w3.org/2000/svg" xmlns:xlink="http://www.w3.org/1999/xlink" width="600" height="400" viewBox="0 0 2400 1600">
<defs>
  <clipPath id="clip660">
    <rect x="0" y="0" width="2400" height="1600"/>
  </clipPath>
</defs>
<path clip-path="url(#clip660)" d="M0 1600 L2400 1600 L2400 0 L0 0  Z" fill="#ffffff" fill-rule="evenodd" fill-opacity="1"/>
<defs>
  <clipPath id="clip661">
    <rect x="186" y="47" width="2167" height="1377"/>
  </clipPath>
</defs>
<path clip-path="url(#clip660)" d="M186.274 1423.18 L2352.76 1423.18 L2352.76 47.2441 L186.274 47.2441  Z" fill="#ffffff" fill-rule="evenodd" fill-opacity="1"/>
<polyline clip-path="url(#clip661)" style="stroke:#000000; stroke-linecap:round; stroke-linejoin:round; stroke-width:2; stroke-opacity:0.1; fill:none" points="186.274,1423.18 186.274,47.2441 "/>
<polyline clip-path="url(#clip661)" style="stroke:#000000; stroke-linecap:round; stroke-linejoin:round; stroke-width:2; stroke-opacity:0.1; fill:none" points="619.57,1423.18 619.57,47.2441 "/>
<polyline clip-path="url(#clip661)" style="stroke:#000000; stroke-linecap:round; stroke-linejoin:round; stroke-width:2; stroke-opacity:0.1; fill:none" points="1052.87,1423.18 1052.87,47.2441 "/>
<polyline clip-path="url(#clip661)" style="stroke:#000000; stroke-linecap:round; stroke-linejoin:round; stroke-width:2; stroke-opacity:0.1; fill:none" points="1486.16,1423.18 1486.16,47.2441 "/>
<polyline clip-path="url(#clip661)" style="stroke:#000000; stroke-linecap:round; stroke-linejoin:round; stroke-width:2; stroke-opacity:0.1; fill:none" points="1919.46,1423.18 1919.46,47.2441 "/>
<polyline clip-path="url(#clip661)" style="stroke:#000000; stroke-linecap:round; stroke-linejoin:round; stroke-width:2; stroke-opacity:0.1; fill:none" points="2352.76,1423.18 2352.76,47.2441 "/>
<polyline clip-path="url(#clip661)" style="stroke:#000000; stroke-linecap:round; stroke-linejoin:round; stroke-width:2; stroke-opacity:0.1; fill:none" points="186.274,1347.22 2352.76,1347.22 "/>
<polyline clip-path="url(#clip661)" style="stroke:#000000; stroke-linecap:round; stroke-linejoin:round; stroke-width:2; stroke-opacity:0.1; fill:none" points="186.274,1109.81 2352.76,1109.81 "/>
<polyline clip-path="url(#clip661)" style="stroke:#000000; stroke-linecap:round; stroke-linejoin:round; stroke-width:2; stroke-opacity:0.1; fill:none" points="186.274,872.39 2352.76,872.39 "/>
<polyline clip-path="url(#clip661)" style="stroke:#000000; stroke-linecap:round; stroke-linejoin:round; stroke-width:2; stroke-opacity:0.1; fill:none" points="186.274,634.975 2352.76,634.975 "/>
<polyline clip-path="url(#clip661)" style="stroke:#000000; stroke-linecap:round; stroke-linejoin:round; stroke-width:2; stroke-opacity:0.1; fill:none" points="186.274,397.559 2352.76,397.559 "/>
<polyline clip-path="url(#clip661)" style="stroke:#000000; stroke-linecap:round; stroke-linejoin:round; stroke-width:2; stroke-opacity:0.1; fill:none" points="186.274,160.144 2352.76,160.144 "/>
<polyline clip-path="url(#clip660)" style="stroke:#000000; stroke-linecap:round; stroke-linejoin:round; stroke-width:4; stroke-opacity:1; fill:none" points="186.274,1423.18 2352.76,1423.18 "/>
<polyline clip-path="url(#clip660)" style="stroke:#000000; stroke-linecap:round; stroke-linejoin:round; stroke-width:4; stroke-opacity:1; fill:none" points="186.274,1423.18 186.274,1404.28 "/>
<polyline clip-path="url(#clip660)" style="stroke:#000000; stroke-linecap:round; stroke-linejoin:round; stroke-width:4; stroke-opacity:1; fill:none" points="619.57,1423.18 619.57,1404.28 "/>
<polyline clip-path="url(#clip660)" style="stroke:#000000; stroke-linecap:round; stroke-linejoin:round; stroke-width:4; stroke-opacity:1; fill:none" points="1052.87,1423.18 1052.87,1404.28 "/>
<polyline clip-path="url(#clip660)" style="stroke:#000000; stroke-linecap:round; stroke-linejoin:round; stroke-width:4; stroke-opacity:1; fill:none" points="1486.16,1423.18 1486.16,1404.28 "/>
<polyline clip-path="url(#clip660)" style="stroke:#000000; stroke-linecap:round; stroke-linejoin:round; stroke-width:4; stroke-opacity:1; fill:none" points="1919.46,1423.18 1919.46,1404.28 "/>
<polyline clip-path="url(#clip660)" style="stroke:#000000; stroke-linecap:round; stroke-linejoin:round; stroke-width:4; stroke-opacity:1; fill:none" points="2352.76,1423.18 2352.76,1404.28 "/>
<path clip-path="url(#clip660)" d="M186.274 1454.1 Q182.663 1454.1 180.834 1457.66 Q179.029 1461.2 179.029 1468.33 Q179.029 1475.44 180.834 1479.01 Q182.663 1482.55 186.274 1482.55 Q189.908 1482.55 191.714 1479.01 Q193.542 1475.44 193.542 1468.33 Q193.542 1461.2 191.714 1457.66 Q189.908 1454.1 186.274 1454.1 M186.274 1450.39 Q192.084 1450.39 195.14 1455 Q198.218 1459.58 198.218 1468.33 Q198.218 1477.06 195.14 1481.67 Q192.084 1486.25 186.274 1486.25 Q180.464 1486.25 177.385 1481.67 Q174.33 1477.06 174.33 1468.33 Q174.33 1459.58 177.385 1455 Q180.464 1450.39 186.274 1450.39 Z" fill="#000000" fill-rule="nonzero" fill-opacity="1" /><path clip-path="url(#clip660)" d="M614.223 1481.64 L630.543 1481.64 L630.543 1485.58 L608.598 1485.58 L608.598 1481.64 Q611.26 1478.89 615.844 1474.26 Q620.45 1469.61 621.631 1468.27 Q623.876 1465.74 624.756 1464.01 Q625.658 1462.25 625.658 1460.56 Q625.658 1457.8 623.714 1456.07 Q621.793 1454.33 618.691 1454.33 Q616.492 1454.33 614.038 1455.09 Q611.607 1455.86 608.83 1457.41 L608.83 1452.69 Q611.654 1451.55 614.107 1450.97 Q616.561 1450.39 618.598 1450.39 Q623.969 1450.39 627.163 1453.08 Q630.357 1455.77 630.357 1460.26 Q630.357 1462.39 629.547 1464.31 Q628.76 1466.2 626.654 1468.8 Q626.075 1469.47 622.973 1472.69 Q619.871 1475.88 614.223 1481.64 Z" fill="#000000" fill-rule="nonzero" fill-opacity="1" /><path clip-path="url(#clip660)" d="M1055.88 1455.09 L1044.07 1473.54 L1055.88 1473.54 L1055.88 1455.09 M1054.65 1451.02 L1060.53 1451.02 L1060.53 1473.54 L1065.46 1473.54 L1065.46 1477.43 L1060.53 1477.43 L1060.53 1485.58 L1055.88 1485.58 L1055.88 1477.43 L1040.27 1477.43 L1040.27 1472.92 L1054.65 1451.02 Z" fill="#000000" fill-rule="nonzero" fill-opacity="1" /><path clip-path="url(#clip660)" d="M1486.57 1466.44 Q1483.42 1466.44 1481.57 1468.59 Q1479.74 1470.74 1479.74 1474.49 Q1479.74 1478.22 1481.57 1480.39 Q1483.42 1482.55 1486.57 1482.55 Q1489.72 1482.55 1491.55 1480.39 Q1493.4 1478.22 1493.4 1474.49 Q1493.4 1470.74 1491.55 1468.59 Q1489.72 1466.44 1486.57 1466.44 M1495.85 1451.78 L1495.85 1456.04 Q1494.09 1455.21 1492.29 1454.77 Q1490.5 1454.33 1488.74 1454.33 Q1484.11 1454.33 1481.66 1457.45 Q1479.23 1460.58 1478.88 1466.9 Q1480.25 1464.89 1482.31 1463.82 Q1484.37 1462.73 1486.85 1462.73 Q1492.05 1462.73 1495.06 1465.9 Q1498.1 1469.05 1498.1 1474.49 Q1498.1 1479.82 1494.95 1483.03 Q1491.8 1486.25 1486.57 1486.25 Q1480.57 1486.25 1477.4 1481.67 Q1474.23 1477.06 1474.23 1468.33 Q1474.23 1460.14 1478.12 1455.28 Q1482.01 1450.39 1488.56 1450.39 Q1490.32 1450.39 1492.1 1450.74 Q1493.91 1451.09 1495.85 1451.78 Z" fill="#000000" fill-rule="nonzero" fill-opacity="1" /><path clip-path="url(#clip660)" d="M1919.46 1469.17 Q1916.13 1469.17 1914.2 1470.95 Q1912.31 1472.73 1912.31 1475.86 Q1912.31 1478.98 1914.2 1480.77 Q1916.13 1482.55 1919.46 1482.55 Q1922.79 1482.55 1924.71 1480.77 Q1926.64 1478.96 1926.64 1475.86 Q1926.64 1472.73 1924.71 1470.95 Q1922.82 1469.17 1919.46 1469.17 M1914.78 1467.18 Q1911.77 1466.44 1910.08 1464.38 Q1908.42 1462.32 1908.42 1459.35 Q1908.42 1455.21 1911.36 1452.8 Q1914.32 1450.39 1919.46 1450.39 Q1924.62 1450.39 1927.56 1452.8 Q1930.5 1455.21 1930.5 1459.35 Q1930.5 1462.32 1928.81 1464.38 Q1927.14 1466.44 1924.16 1467.18 Q1927.54 1467.96 1929.41 1470.26 Q1931.31 1472.55 1931.31 1475.86 Q1931.31 1480.88 1928.23 1483.57 Q1925.18 1486.25 1919.46 1486.25 Q1913.74 1486.25 1910.66 1483.57 Q1907.61 1480.88 1907.61 1475.86 Q1907.61 1472.55 1909.51 1470.26 Q1911.4 1467.96 1914.78 1467.18 M1913.07 1459.79 Q1913.07 1462.48 1914.74 1463.98 Q1916.43 1465.49 1919.46 1465.49 Q1922.47 1465.49 1924.16 1463.98 Q1925.87 1462.48 1925.87 1459.79 Q1925.87 1457.11 1924.16 1455.6 Q1922.47 1454.1 1919.46 1454.1 Q1916.43 1454.1 1914.74 1455.6 Q1913.07 1457.11 1913.07 1459.79 Z" fill="#000000" fill-rule="nonzero" fill-opacity="1" /><path clip-path="url(#clip660)" d="M2327.44 1481.64 L2335.08 1481.64 L2335.08 1455.28 L2326.77 1456.95 L2326.77 1452.69 L2335.04 1451.02 L2339.71 1451.02 L2339.71 1481.64 L2347.35 1481.64 L2347.35 1485.58 L2327.44 1485.58 L2327.44 1481.64 Z" fill="#000000" fill-rule="nonzero" fill-opacity="1" /><path clip-path="url(#clip660)" d="M2366.8 1454.1 Q2363.18 1454.1 2361.36 1457.66 Q2359.55 1461.2 2359.55 1468.33 Q2359.55 1475.44 2361.36 1479.01 Q2363.18 1482.55 2366.8 1482.55 Q2370.43 1482.55 2372.23 1479.01 Q2374.06 1475.44 2374.06 1468.33 Q2374.06 1461.2 2372.23 1457.66 Q2370.43 1454.1 2366.8 1454.1 M2366.8 1450.39 Q2372.61 1450.39 2375.66 1455 Q2378.74 1459.58 2378.74 1468.33 Q2378.74 1477.06 2375.66 1481.67 Q2372.61 1486.25 2366.8 1486.25 Q2360.99 1486.25 2357.91 1481.67 Q2354.85 1477.06 2354.85 1468.33 Q2354.85 1459.58 2357.91 1455 Q2360.99 1450.39 2366.8 1450.39 Z" fill="#000000" fill-rule="nonzero" fill-opacity="1" /><path clip-path="url(#clip660)" d="M1268.58 1522.27 L1268.58 1532.4 L1280.64 1532.4 L1280.64 1536.95 L1268.58 1536.95 L1268.58 1556.3 Q1268.58 1560.66 1269.75 1561.9 Q1270.96 1563.14 1274.62 1563.14 L1280.64 1563.14 L1280.64 1568.04 L1274.62 1568.04 Q1267.84 1568.04 1265.27 1565.53 Q1262.69 1562.98 1262.69 1556.3 L1262.69 1536.95 L1258.39 1536.95 L1258.39 1532.4 L1262.69 1532.4 L1262.69 1522.27 L1268.58 1522.27 Z" fill="#000000" fill-rule="nonzero" fill-opacity="1" /><polyline clip-path="url(#clip660)" style="stroke:#000000; stroke-linecap:round; stroke-linejoin:round; stroke-width:4; stroke-opacity:1; fill:none" points="186.274,1423.18 186.274,47.2441 "/>
<polyline clip-path="url(#clip660)" style="stroke:#000000; stroke-linecap:round; stroke-linejoin:round; stroke-width:4; stroke-opacity:1; fill:none" points="186.274,1347.22 205.172,1347.22 "/>
<polyline clip-path="url(#clip660)" style="stroke:#000000; stroke-linecap:round; stroke-linejoin:round; stroke-width:4; stroke-opacity:1; fill:none" points="186.274,1109.81 205.172,1109.81 "/>
<polyline clip-path="url(#clip660)" style="stroke:#000000; stroke-linecap:round; stroke-linejoin:round; stroke-width:4; stroke-opacity:1; fill:none" points="186.274,872.39 205.172,872.39 "/>
<polyline clip-path="url(#clip660)" style="stroke:#000000; stroke-linecap:round; stroke-linejoin:round; stroke-width:4; stroke-opacity:1; fill:none" points="186.274,634.975 205.172,634.975 "/>
<polyline clip-path="url(#clip660)" style="stroke:#000000; stroke-linecap:round; stroke-linejoin:round; stroke-width:4; stroke-opacity:1; fill:none" points="186.274,397.559 205.172,397.559 "/>
<polyline clip-path="url(#clip660)" style="stroke:#000000; stroke-linecap:round; stroke-linejoin:round; stroke-width:4; stroke-opacity:1; fill:none" points="186.274,160.144 205.172,160.144 "/>
<path clip-path="url(#clip660)" d="M62.9365 1333.02 Q59.3254 1333.02 57.4967 1336.58 Q55.6912 1340.13 55.6912 1347.26 Q55.6912 1354.36 57.4967 1357.93 Q59.3254 1361.47 62.9365 1361.47 Q66.5707 1361.47 68.3763 1357.93 Q70.205 1354.36 70.205 1347.26 Q70.205 1340.13 68.3763 1336.58 Q66.5707 1333.02 62.9365 1333.02 M62.9365 1329.32 Q68.7467 1329.32 71.8022 1333.92 Q74.8809 1338.51 74.8809 1347.26 Q74.8809 1355.98 71.8022 1360.59 Q68.7467 1365.17 62.9365 1365.17 Q57.1264 1365.17 54.0477 1360.59 Q50.9921 1355.98 50.9921 1347.26 Q50.9921 1338.51 54.0477 1333.92 Q57.1264 1329.32 62.9365 1329.32 Z" fill="#000000" fill-rule="nonzero" fill-opacity="1" /><path clip-path="url(#clip660)" d="M83.0984 1358.62 L87.9827 1358.62 L87.9827 1364.5 L83.0984 1364.5 L83.0984 1358.62 Z" fill="#000000" fill-rule="nonzero" fill-opacity="1" /><path clip-path="url(#clip660)" d="M108.168 1333.02 Q104.557 1333.02 102.728 1336.58 Q100.922 1340.13 100.922 1347.26 Q100.922 1354.36 102.728 1357.93 Q104.557 1361.47 108.168 1361.47 Q111.802 1361.47 113.608 1357.93 Q115.436 1354.36 115.436 1347.26 Q115.436 1340.13 113.608 1336.58 Q111.802 1333.02 108.168 1333.02 M108.168 1329.32 Q113.978 1329.32 117.033 1333.92 Q120.112 1338.51 120.112 1347.26 Q120.112 1355.98 117.033 1360.59 Q113.978 1365.17 108.168 1365.17 Q102.358 1365.17 99.2789 1360.59 Q96.2234 1355.98 96.2234 1347.26 Q96.2234 1338.51 99.2789 1333.92 Q102.358 1329.32 108.168 1329.32 Z" fill="#000000" fill-rule="nonzero" fill-opacity="1" /><path clip-path="url(#clip660)" d="M138.33 1333.02 Q134.719 1333.02 132.89 1336.58 Q131.084 1340.13 131.084 1347.26 Q131.084 1354.36 132.89 1357.93 Q134.719 1361.47 138.33 1361.47 Q141.964 1361.47 143.769 1357.93 Q145.598 1354.36 145.598 1347.26 Q145.598 1340.13 143.769 1336.58 Q141.964 1333.02 138.33 1333.02 M138.33 1329.32 Q144.14 1329.32 147.195 1333.92 Q150.274 1338.51 150.274 1347.26 Q150.274 1355.98 147.195 1360.59 Q144.14 1365.17 138.33 1365.17 Q132.519 1365.17 129.441 1360.59 Q126.385 1355.98 126.385 1347.26 Q126.385 1338.51 129.441 1333.92 Q132.519 1329.32 138.33 1329.32 Z" fill="#000000" fill-rule="nonzero" fill-opacity="1" /><path clip-path="url(#clip660)" d="M63.9319 1095.6 Q60.3208 1095.6 58.4921 1099.17 Q56.6865 1102.71 56.6865 1109.84 Q56.6865 1116.95 58.4921 1120.51 Q60.3208 1124.05 63.9319 1124.05 Q67.5661 1124.05 69.3717 1120.51 Q71.2004 1116.95 71.2004 1109.84 Q71.2004 1102.71 69.3717 1099.17 Q67.5661 1095.6 63.9319 1095.6 M63.9319 1091.9 Q69.742 1091.9 72.7976 1096.51 Q75.8763 1101.09 75.8763 1109.84 Q75.8763 1118.57 72.7976 1123.17 Q69.742 1127.76 63.9319 1127.76 Q58.1217 1127.76 55.043 1123.17 Q51.9875 1118.57 51.9875 1109.84 Q51.9875 1101.09 55.043 1096.51 Q58.1217 1091.9 63.9319 1091.9 Z" fill="#000000" fill-rule="nonzero" fill-opacity="1" /><path clip-path="url(#clip660)" d="M84.0938 1121.21 L88.978 1121.21 L88.978 1127.09 L84.0938 1127.09 L84.0938 1121.21 Z" fill="#000000" fill-rule="nonzero" fill-opacity="1" /><path clip-path="url(#clip660)" d="M109.163 1095.6 Q105.552 1095.6 103.723 1099.17 Q101.918 1102.71 101.918 1109.84 Q101.918 1116.95 103.723 1120.51 Q105.552 1124.05 109.163 1124.05 Q112.797 1124.05 114.603 1120.51 Q116.432 1116.95 116.432 1109.84 Q116.432 1102.71 114.603 1099.17 Q112.797 1095.6 109.163 1095.6 M109.163 1091.9 Q114.973 1091.9 118.029 1096.51 Q121.107 1101.09 121.107 1109.84 Q121.107 1118.57 118.029 1123.17 Q114.973 1127.76 109.163 1127.76 Q103.353 1127.76 100.274 1123.17 Q97.2187 1118.57 97.2187 1109.84 Q97.2187 1101.09 100.274 1096.51 Q103.353 1091.9 109.163 1091.9 Z" fill="#000000" fill-rule="nonzero" fill-opacity="1" /><path clip-path="url(#clip660)" d="M129.371 1092.53 L147.728 1092.53 L147.728 1096.46 L133.654 1096.46 L133.654 1104.93 Q134.672 1104.59 135.691 1104.42 Q136.709 1104.24 137.728 1104.24 Q143.515 1104.24 146.894 1107.41 Q150.274 1110.58 150.274 1116 Q150.274 1121.58 146.802 1124.68 Q143.33 1127.76 137.01 1127.76 Q134.834 1127.76 132.566 1127.39 Q130.32 1127.02 127.913 1126.27 L127.913 1121.58 Q129.996 1122.71 132.219 1123.27 Q134.441 1123.82 136.918 1123.82 Q140.922 1123.82 143.26 1121.71 Q145.598 1119.61 145.598 1116 Q145.598 1112.39 143.26 1110.28 Q140.922 1108.17 136.918 1108.17 Q135.043 1108.17 133.168 1108.59 Q131.316 1109.01 129.371 1109.89 L129.371 1092.53 Z" fill="#000000" fill-rule="nonzero" fill-opacity="1" /><path clip-path="url(#clip660)" d="M62.9365 858.188 Q59.3254 858.188 57.4967 861.753 Q55.6912 865.295 55.6912 872.425 Q55.6912 879.531 57.4967 883.096 Q59.3254 886.637 62.9365 886.637 Q66.5707 886.637 68.3763 883.096 Q70.205 879.531 70.205 872.425 Q70.205 865.295 68.3763 861.753 Q66.5707 858.188 62.9365 858.188 M62.9365 854.485 Q68.7467 854.485 71.8022 859.091 Q74.8809 863.675 74.8809 872.425 Q74.8809 881.151 71.8022 885.758 Q68.7467 890.341 62.9365 890.341 Q57.1264 890.341 54.0477 885.758 Q50.9921 881.151 50.9921 872.425 Q50.9921 863.675 54.0477 859.091 Q57.1264 854.485 62.9365 854.485 Z" fill="#000000" fill-rule="nonzero" fill-opacity="1" /><path clip-path="url(#clip660)" d="M83.0984 883.79 L87.9827 883.79 L87.9827 889.67 L83.0984 889.67 L83.0984 883.79 Z" fill="#000000" fill-rule="nonzero" fill-opacity="1" /><path clip-path="url(#clip660)" d="M98.978 885.735 L106.617 885.735 L106.617 859.369 L98.3067 861.036 L98.3067 856.776 L106.571 855.11 L111.246 855.11 L111.246 885.735 L118.885 885.735 L118.885 889.67 L98.978 889.67 L98.978 885.735 Z" fill="#000000" fill-rule="nonzero" fill-opacity="1" /><path clip-path="url(#clip660)" d="M138.33 858.188 Q134.719 858.188 132.89 861.753 Q131.084 865.295 131.084 872.425 Q131.084 879.531 132.89 883.096 Q134.719 886.637 138.33 886.637 Q141.964 886.637 143.769 883.096 Q145.598 879.531 145.598 872.425 Q145.598 865.295 143.769 861.753 Q141.964 858.188 138.33 858.188 M138.33 854.485 Q144.14 854.485 147.195 859.091 Q150.274 863.675 150.274 872.425 Q150.274 881.151 147.195 885.758 Q144.14 890.341 138.33 890.341 Q132.519 890.341 129.441 885.758 Q126.385 881.151 126.385 872.425 Q126.385 863.675 129.441 859.091 Q132.519 854.485 138.33 854.485 Z" fill="#000000" fill-rule="nonzero" fill-opacity="1" /><path clip-path="url(#clip660)" d="M63.9319 620.773 Q60.3208 620.773 58.4921 624.338 Q56.6865 627.88 56.6865 635.009 Q56.6865 642.116 58.4921 645.681 Q60.3208 649.222 63.9319 649.222 Q67.5661 649.222 69.3717 645.681 Q71.2004 642.116 71.2004 635.009 Q71.2004 627.88 69.3717 624.338 Q67.5661 620.773 63.9319 620.773 M63.9319 617.07 Q69.742 617.07 72.7976 621.676 Q75.8763 626.259 75.8763 635.009 Q75.8763 643.736 72.7976 648.343 Q69.742 652.926 63.9319 652.926 Q58.1217 652.926 55.043 648.343 Q51.9875 643.736 51.9875 635.009 Q51.9875 626.259 55.043 621.676 Q58.1217 617.07 63.9319 617.07 Z" fill="#000000" fill-rule="nonzero" fill-opacity="1" /><path clip-path="url(#clip660)" d="M84.0938 646.375 L88.978 646.375 L88.978 652.255 L84.0938 652.255 L84.0938 646.375 Z" fill="#000000" fill-rule="nonzero" fill-opacity="1" /><path clip-path="url(#clip660)" d="M99.9733 648.319 L107.612 648.319 L107.612 621.954 L99.3021 623.62 L99.3021 619.361 L107.566 617.695 L112.242 617.695 L112.242 648.319 L119.881 648.319 L119.881 652.255 L99.9733 652.255 L99.9733 648.319 Z" fill="#000000" fill-rule="nonzero" fill-opacity="1" /><path clip-path="url(#clip660)" d="M129.371 617.695 L147.728 617.695 L147.728 621.63 L133.654 621.63 L133.654 630.102 Q134.672 629.755 135.691 629.593 Q136.709 629.407 137.728 629.407 Q143.515 629.407 146.894 632.579 Q150.274 635.75 150.274 641.167 Q150.274 646.745 146.802 649.847 Q143.33 652.926 137.01 652.926 Q134.834 652.926 132.566 652.555 Q130.32 652.185 127.913 651.444 L127.913 646.745 Q129.996 647.88 132.219 648.435 Q134.441 648.991 136.918 648.991 Q140.922 648.991 143.26 646.884 Q145.598 644.778 145.598 641.167 Q145.598 637.556 143.26 635.449 Q140.922 633.343 136.918 633.343 Q135.043 633.343 133.168 633.759 Q131.316 634.176 129.371 635.056 L129.371 617.695 Z" fill="#000000" fill-rule="nonzero" fill-opacity="1" /><path clip-path="url(#clip660)" d="M62.9365 383.358 Q59.3254 383.358 57.4967 386.923 Q55.6912 390.464 55.6912 397.594 Q55.6912 404.7 57.4967 408.265 Q59.3254 411.807 62.9365 411.807 Q66.5707 411.807 68.3763 408.265 Q70.205 404.7 70.205 397.594 Q70.205 390.464 68.3763 386.923 Q66.5707 383.358 62.9365 383.358 M62.9365 379.654 Q68.7467 379.654 71.8022 384.261 Q74.8809 388.844 74.8809 397.594 Q74.8809 406.321 71.8022 410.927 Q68.7467 415.511 62.9365 415.511 Q57.1264 415.511 54.0477 410.927 Q50.9921 406.321 50.9921 397.594 Q50.9921 388.844 54.0477 384.261 Q57.1264 379.654 62.9365 379.654 Z" fill="#000000" fill-rule="nonzero" fill-opacity="1" /><path clip-path="url(#clip660)" d="M83.0984 408.96 L87.9827 408.96 L87.9827 414.839 L83.0984 414.839 L83.0984 408.96 Z" fill="#000000" fill-rule="nonzero" fill-opacity="1" /><path clip-path="url(#clip660)" d="M102.196 410.904 L118.515 410.904 L118.515 414.839 L96.5706 414.839 L96.5706 410.904 Q99.2326 408.15 103.816 403.52 Q108.422 398.867 109.603 397.525 Q111.848 395.001 112.728 393.265 Q113.631 391.506 113.631 389.816 Q113.631 387.062 111.686 385.326 Q109.765 383.589 106.663 383.589 Q104.464 383.589 102.01 384.353 Q99.5798 385.117 96.8021 386.668 L96.8021 381.946 Q99.6261 380.812 102.08 380.233 Q104.534 379.654 106.571 379.654 Q111.941 379.654 115.135 382.339 Q118.33 385.025 118.33 389.515 Q118.33 391.645 117.52 393.566 Q116.733 395.464 114.626 398.057 Q114.047 398.728 110.946 401.946 Q107.844 405.14 102.196 410.904 Z" fill="#000000" fill-rule="nonzero" fill-opacity="1" /><path clip-path="url(#clip660)" d="M138.33 383.358 Q134.719 383.358 132.89 386.923 Q131.084 390.464 131.084 397.594 Q131.084 404.7 132.89 408.265 Q134.719 411.807 138.33 411.807 Q141.964 411.807 143.769 408.265 Q145.598 404.7 145.598 397.594 Q145.598 390.464 143.769 386.923 Q141.964 383.358 138.33 383.358 M138.33 379.654 Q144.14 379.654 147.195 384.261 Q150.274 388.844 150.274 397.594 Q150.274 406.321 147.195 410.927 Q144.14 415.511 138.33 415.511 Q132.519 415.511 129.441 410.927 Q126.385 406.321 126.385 397.594 Q126.385 388.844 129.441 384.261 Q132.519 379.654 138.33 379.654 Z" fill="#000000" fill-rule="nonzero" fill-opacity="1" /><path clip-path="url(#clip660)" d="M63.9319 145.943 Q60.3208 145.943 58.4921 149.508 Q56.6865 153.049 56.6865 160.179 Q56.6865 167.285 58.4921 170.85 Q60.3208 174.392 63.9319 174.392 Q67.5661 174.392 69.3717 170.85 Q71.2004 167.285 71.2004 160.179 Q71.2004 153.049 69.3717 149.508 Q67.5661 145.943 63.9319 145.943 M63.9319 142.239 Q69.742 142.239 72.7976 146.845 Q75.8763 151.429 75.8763 160.179 Q75.8763 168.906 72.7976 173.512 Q69.742 178.095 63.9319 178.095 Q58.1217 178.095 55.043 173.512 Q51.9875 168.906 51.9875 160.179 Q51.9875 151.429 55.043 146.845 Q58.1217 142.239 63.9319 142.239 Z" fill="#000000" fill-rule="nonzero" fill-opacity="1" /><path clip-path="url(#clip660)" d="M84.0938 171.544 L88.978 171.544 L88.978 177.424 L84.0938 177.424 L84.0938 171.544 Z" fill="#000000" fill-rule="nonzero" fill-opacity="1" /><path clip-path="url(#clip660)" d="M103.191 173.489 L119.51 173.489 L119.51 177.424 L97.566 177.424 L97.566 173.489 Q100.228 170.734 104.811 166.105 Q109.418 161.452 110.598 160.109 Q112.844 157.586 113.723 155.85 Q114.626 154.091 114.626 152.401 Q114.626 149.646 112.682 147.91 Q110.76 146.174 107.658 146.174 Q105.459 146.174 103.006 146.938 Q100.575 147.702 97.7974 149.253 L97.7974 144.531 Q100.621 143.396 103.075 142.818 Q105.529 142.239 107.566 142.239 Q112.936 142.239 116.131 144.924 Q119.325 147.609 119.325 152.1 Q119.325 154.23 118.515 156.151 Q117.728 158.049 115.621 160.642 Q115.043 161.313 111.941 164.531 Q108.839 167.725 103.191 173.489 Z" fill="#000000" fill-rule="nonzero" fill-opacity="1" /><path clip-path="url(#clip660)" d="M129.371 142.864 L147.728 142.864 L147.728 146.799 L133.654 146.799 L133.654 155.271 Q134.672 154.924 135.691 154.762 Q136.709 154.577 137.728 154.577 Q143.515 154.577 146.894 157.748 Q150.274 160.919 150.274 166.336 Q150.274 171.915 146.802 175.017 Q143.33 178.095 137.01 178.095 Q134.834 178.095 132.566 177.725 Q130.32 177.355 127.913 176.614 L127.913 171.915 Q129.996 173.049 132.219 173.605 Q134.441 174.16 136.918 174.16 Q140.922 174.16 143.26 172.054 Q145.598 169.947 145.598 166.336 Q145.598 162.725 143.26 160.619 Q140.922 158.512 136.918 158.512 Q135.043 158.512 133.168 158.929 Q131.316 159.345 129.371 160.225 L129.371 142.864 Z" fill="#000000" fill-rule="nonzero" fill-opacity="1" /><polyline clip-path="url(#clip661)" style="stroke:#009af9; stroke-linecap:round; stroke-linejoin:round; stroke-width:4; stroke-opacity:1; fill:none" points="186.274,1347.22 402.922,1347.22 619.57,1140.28 836.219,1380.14 1052.87,1344.76 1269.51,1287.2 1486.16,1056.32 1702.81,485.647 1919.46,96.934 2136.11,129.949 2352.76,86.1857 "/>
<polyline clip-path="url(#clip661)" style="stroke:#e26f46; stroke-linecap:round; stroke-linejoin:round; stroke-width:4; stroke-opacity:1; fill:none" points="186.274,1347.22 402.922,1313.84 619.57,1384.24 836.219,1341.78 1052.87,1337.92 1269.51,1309.5 1486.16,1252.83 1702.81,1277.58 1919.46,1342.46 2136.11,1330.34 2352.76,1372.7 "/>
<path clip-path="url(#clip660)" d="M258.49 248.629 L498.333 248.629 L498.333 93.1086 L258.49 93.1086  Z" fill="#ffffff" fill-rule="evenodd" fill-opacity="1"/>
<polyline clip-path="url(#clip660)" style="stroke:#000000; stroke-linecap:round; stroke-linejoin:round; stroke-width:4; stroke-opacity:1; fill:none" points="258.49,248.629 498.333,248.629 498.333,93.1086 258.49,93.1086 258.49,248.629 "/>
<polyline clip-path="url(#clip660)" style="stroke:#009af9; stroke-linecap:round; stroke-linejoin:round; stroke-width:4; stroke-opacity:1; fill:none" points="282.562,144.949 426.994,144.949 "/>
<path clip-path="url(#clip660)" d="M464.469 149.196 Q459.307 149.196 457.316 150.377 Q455.325 151.557 455.325 154.405 Q455.325 156.673 456.807 158.016 Q458.312 159.335 460.881 159.335 Q464.423 159.335 466.552 156.835 Q468.705 154.312 468.705 150.145 L468.705 149.196 L464.469 149.196 M472.964 147.437 L472.964 162.229 L468.705 162.229 L468.705 158.293 Q467.247 160.655 465.071 161.789 Q462.895 162.9 459.747 162.9 Q455.765 162.9 453.404 160.678 Q451.066 158.432 451.066 154.682 Q451.066 150.307 453.983 148.085 Q456.923 145.863 462.733 145.863 L468.705 145.863 L468.705 145.446 Q468.705 142.507 466.761 140.909 Q464.839 139.289 461.344 139.289 Q459.122 139.289 457.015 139.821 Q454.909 140.354 452.964 141.419 L452.964 137.483 Q455.302 136.581 457.501 136.141 Q459.7 135.678 461.784 135.678 Q467.409 135.678 470.187 138.594 Q472.964 141.511 472.964 147.437 Z" fill="#000000" fill-rule="nonzero" fill-opacity="1" /><polyline clip-path="url(#clip660)" style="stroke:#e26f46; stroke-linecap:round; stroke-linejoin:round; stroke-width:4; stroke-opacity:1; fill:none" points="282.562,196.789 426.994,196.789 "/>
<path clip-path="url(#clip660)" d="M469.839 201.129 Q469.839 196.43 467.895 193.768 Q465.974 191.083 462.594 191.083 Q459.214 191.083 457.27 193.768 Q455.349 196.43 455.349 201.129 Q455.349 205.828 457.27 208.513 Q459.214 211.175 462.594 211.175 Q465.974 211.175 467.895 208.513 Q469.839 205.828 469.839 201.129 M455.349 192.078 Q456.691 189.763 458.728 188.652 Q460.788 187.518 463.636 187.518 Q468.358 187.518 471.298 191.268 Q474.261 195.018 474.261 201.129 Q474.261 207.24 471.298 210.99 Q468.358 214.74 463.636 214.74 Q460.788 214.74 458.728 213.629 Q456.691 212.495 455.349 210.18 L455.349 214.069 L451.066 214.069 L451.066 178.05 L455.349 178.05 L455.349 192.078 Z" fill="#000000" fill-rule="nonzero" fill-opacity="1" /></svg>
