<?xml version="1.0" encoding="utf-8"?>
<svg xmlns="http://www.w3.org/2000/svg" xmlns:xlink="http://www.w3.org/1999/xlink" width="600" height="400" viewBox="0 0 2400 1600">
<defs>
  <clipPath id="clip340">
    <rect x="0" y="0" width="2400" height="1600"/>
  </clipPath>
</defs>
<path clip-path="url(#clip340)" d="M0 1600 L2400 1600 L2400 0 L0 0  Z" fill="#ffffff" fill-rule="evenodd" fill-opacity="1"/>
<defs>
  <clipPath id="clip341">
    <rect x="480" y="0" width="1681" height="1600"/>
  </clipPath>
</defs>
<path clip-path="url(#clip340)" d="M86.9921 1505.26 L2352.76 1505.26 L2352.76 47.2441 L86.9921 47.2441  Z" fill="#ffffff" fill-rule="evenodd" fill-opacity="1"/>
<defs>
  <clipPath id="clip342">
    <rect x="86" y="47" width="2267" height="1459"/>
  </clipPath>
</defs>
<polyline clip-path="url(#clip342)" style="stroke:#000000; stroke-linecap:round; stroke-linejoin:round; stroke-width:2; stroke-opacity:0.1; fill:none" points="86.9921,1505.26 86.9921,47.2441 "/>
<polyline clip-path="url(#clip342)" style="stroke:#000000; stroke-linecap:round; stroke-linejoin:round; stroke-width:2; stroke-opacity:0.1; fill:none" points="540.145,1505.26 540.145,47.2441 "/>
<polyline clip-path="url(#clip342)" style="stroke:#000000; stroke-linecap:round; stroke-linejoin:round; stroke-width:2; stroke-opacity:0.1; fill:none" points="993.298,1505.26 993.298,47.2441 "/>
<polyline clip-path="url(#clip342)" style="stroke:#000000; stroke-linecap:round; stroke-linejoin:round; stroke-width:2; stroke-opacity:0.1; fill:none" points="1446.45,1505.26 1446.45,47.2441 "/>
<polyline clip-path="url(#clip342)" style="stroke:#000000; stroke-linecap:round; stroke-linejoin:round; stroke-width:2; stroke-opacity:0.1; fill:none" points="1899.6,1505.26 1899.6,47.2441 "/>
<polyline clip-path="url(#clip342)" style="stroke:#000000; stroke-linecap:round; stroke-linejoin:round; stroke-width:2; stroke-opacity:0.1; fill:none" points="2352.76,1505.26 2352.76,47.2441 "/>
<polyline clip-path="url(#clip340)" style="stroke:#000000; stroke-linecap:round; stroke-linejoin:round; stroke-width:4; stroke-opacity:1; fill:none" points="86.9921,1505.26 2352.76,1505.26 "/>
<polyline clip-path="url(#clip340)" style="stroke:#000000; stroke-linecap:round; stroke-linejoin:round; stroke-width:4; stroke-opacity:1; fill:none" points="86.9921,1505.26 86.9921,1486.36 "/>
<polyline clip-path="url(#clip340)" style="stroke:#000000; stroke-linecap:round; stroke-linejoin:round; stroke-width:4; stroke-opacity:1; fill:none" points="540.145,1505.26 540.145,1486.36 "/>
<polyline clip-path="url(#clip340)" style="stroke:#000000; stroke-linecap:round; stroke-linejoin:round; stroke-width:4; stroke-opacity:1; fill:none" points="993.298,1505.26 993.298,1486.36 "/>
<polyline clip-path="url(#clip340)" style="stroke:#000000; stroke-linecap:round; stroke-linejoin:round; stroke-width:4; stroke-opacity:1; fill:none" points="1446.45,1505.26 1446.45,1486.36 "/>
<polyline clip-path="url(#clip340)" style="stroke:#000000; stroke-linecap:round; stroke-linejoin:round; stroke-width:4; stroke-opacity:1; fill:none" points="1899.6,1505.26 1899.6,1486.36 "/>
<polyline clip-path="url(#clip340)" style="stroke:#000000; stroke-linecap:round; stroke-linejoin:round; stroke-width:4; stroke-opacity:1; fill:none" points="2352.76,1505.26 2352.76,1486.36 "/>
<path clip-path="url(#clip340)" d="M86.9921 1536.18 Q83.381 1536.18 81.5523 1539.74 Q79.7468 1543.28 79.7468 1550.41 Q79.7468 1557.52 81.5523 1561.09 Q83.381 1564.63 86.9921 1564.63 Q90.6264 1564.63 92.4319 1561.09 Q94.2606 1557.52 94.2606 1550.41 Q94.2606 1543.28 92.4319 1539.74 Q90.6264 1536.18 86.9921 1536.18 M86.9921 1532.47 Q92.8023 1532.47 95.8578 1537.08 Q98.9365 1541.66 98.9365 1550.41 Q98.9365 1559.14 95.8578 1563.75 Q92.8023 1568.33 86.9921 1568.33 Q81.182 1568.33 78.1033 1563.75 Q75.0477 1559.14 75.0477 1550.41 Q75.0477 1541.66 78.1033 1537.08 Q81.182 1532.47 86.9921 1532.47 Z" fill="#000000" fill-rule="nonzero" fill-opacity="1" /><path clip-path="url(#clip340)" d="M534.798 1563.72 L551.117 1563.72 L551.117 1567.66 L529.173 1567.66 L529.173 1563.72 Q531.835 1560.97 536.418 1556.34 Q541.025 1551.69 542.205 1550.35 Q544.45 1547.82 545.33 1546.09 Q546.233 1544.33 546.233 1542.64 Q546.233 1539.88 544.288 1538.15 Q542.367 1536.41 539.265 1536.41 Q537.066 1536.41 534.613 1537.17 Q532.182 1537.94 529.404 1539.49 L529.404 1534.77 Q532.228 1533.63 534.682 1533.05 Q537.136 1532.47 539.173 1532.47 Q544.543 1532.47 547.737 1535.16 Q550.932 1537.85 550.932 1542.34 Q550.932 1544.47 550.122 1546.39 Q549.335 1548.28 547.228 1550.88 Q546.649 1551.55 543.548 1554.77 Q540.446 1557.96 534.798 1563.72 Z" fill="#000000" fill-rule="nonzero" fill-opacity="1" /><path clip-path="url(#clip340)" d="M996.307 1537.17 L984.501 1555.62 L996.307 1555.62 L996.307 1537.17 M995.08 1533.1 L1000.96 1533.1 L1000.96 1555.62 L1005.89 1555.62 L1005.89 1559.51 L1000.96 1559.51 L1000.96 1567.66 L996.307 1567.66 L996.307 1559.51 L980.705 1559.51 L980.705 1555 L995.08 1533.1 Z" fill="#000000" fill-rule="nonzero" fill-opacity="1" /><path clip-path="url(#clip340)" d="M1446.86 1548.52 Q1443.71 1548.52 1441.86 1550.67 Q1440.03 1552.82 1440.03 1556.57 Q1440.03 1560.3 1441.86 1562.47 Q1443.71 1564.63 1446.86 1564.63 Q1450 1564.63 1451.83 1562.47 Q1453.68 1560.3 1453.68 1556.57 Q1453.68 1552.82 1451.83 1550.67 Q1450 1548.52 1446.86 1548.52 M1456.14 1533.86 L1456.14 1538.12 Q1454.38 1537.29 1452.57 1536.85 Q1450.79 1536.41 1449.03 1536.41 Q1444.4 1536.41 1441.95 1539.53 Q1439.52 1542.66 1439.17 1548.98 Q1440.54 1546.97 1442.6 1545.9 Q1444.66 1544.81 1447.13 1544.81 Q1452.34 1544.81 1455.35 1547.98 Q1458.38 1551.13 1458.38 1556.57 Q1458.38 1561.9 1455.24 1565.11 Q1452.09 1568.33 1446.86 1568.33 Q1440.86 1568.33 1437.69 1563.75 Q1434.52 1559.14 1434.52 1550.41 Q1434.52 1542.22 1438.41 1537.36 Q1442.3 1532.47 1448.85 1532.47 Q1450.61 1532.47 1452.39 1532.82 Q1454.19 1533.17 1456.14 1533.86 Z" fill="#000000" fill-rule="nonzero" fill-opacity="1" /><path clip-path="url(#clip340)" d="M1899.6 1551.25 Q1896.27 1551.25 1894.35 1553.03 Q1892.45 1554.81 1892.45 1557.94 Q1892.45 1561.06 1894.35 1562.85 Q1896.27 1564.63 1899.6 1564.63 Q1902.94 1564.63 1904.86 1562.85 Q1906.78 1561.04 1906.78 1557.94 Q1906.78 1554.81 1904.86 1553.03 Q1902.96 1551.25 1899.6 1551.25 M1894.93 1549.26 Q1891.92 1548.52 1890.23 1546.46 Q1888.56 1544.4 1888.56 1541.43 Q1888.56 1537.29 1891.5 1534.88 Q1894.46 1532.47 1899.6 1532.47 Q1904.77 1532.47 1907.7 1534.88 Q1910.64 1537.29 1910.64 1541.43 Q1910.64 1544.4 1908.95 1546.46 Q1907.29 1548.52 1904.3 1549.26 Q1907.68 1550.04 1909.56 1552.34 Q1911.45 1554.63 1911.45 1557.94 Q1911.45 1562.96 1908.38 1565.65 Q1905.32 1568.33 1899.6 1568.33 Q1893.89 1568.33 1890.81 1565.65 Q1887.75 1562.96 1887.75 1557.94 Q1887.75 1554.63 1889.65 1552.34 Q1891.55 1550.04 1894.93 1549.26 M1893.21 1541.87 Q1893.21 1544.56 1894.88 1546.06 Q1896.57 1547.57 1899.6 1547.57 Q1902.61 1547.57 1904.3 1546.06 Q1906.02 1544.56 1906.02 1541.87 Q1906.02 1539.19 1904.3 1537.68 Q1902.61 1536.18 1899.6 1536.18 Q1896.57 1536.18 1894.88 1537.68 Q1893.21 1539.19 1893.21 1541.87 Z" fill="#000000" fill-rule="nonzero" fill-opacity="1" /><path clip-path="url(#clip340)" d="M2327.44 1563.72 L2335.08 1563.72 L2335.08 1537.36 L2326.77 1539.03 L2326.77 1534.77 L2335.04 1533.1 L2339.71 1533.1 L2339.71 1563.72 L2347.35 1563.72 L2347.35 1567.66 L2327.44 1567.66 L2327.44 1563.72 Z" fill="#000000" fill-rule="nonzero" fill-opacity="1" /><path clip-path="url(#clip340)" d="M2366.8 1536.18 Q2363.18 1536.18 2361.36 1539.74 Q2359.55 1543.28 2359.55 1550.41 Q2359.55 1557.52 2361.36 1561.09 Q2363.18 1564.63 2366.8 1564.63 Q2370.43 1564.63 2372.23 1561.09 Q2374.06 1557.52 2374.06 1550.41 Q2374.06 1543.28 2372.23 1539.74 Q2370.43 1536.18 2366.8 1536.18 M2366.8 1532.47 Q2372.61 1532.47 2375.66 1537.08 Q2378.74 1541.66 2378.74 1550.41 Q2378.74 1559.14 2375.66 1563.75 Q2372.61 1568.33 2366.8 1568.33 Q2360.99 1568.33 2357.91 1563.75 Q2354.85 1559.14 2354.85 1550.41 Q2354.85 1541.66 2357.91 1537.08 Q2360.99 1532.47 2366.8 1532.47 Z" fill="#000000" fill-rule="nonzero" fill-opacity="1" /><path clip-path="url(#clip340)" d="M1218.94 1604.35 L1218.94 1614.48 L1231 1614.48 L1231 1619.03 L1218.94 1619.03 L1218.94 1638.38 Q1218.94 1642.74 1220.11 1643.98 Q1221.32 1645.22 1224.98 1645.22 L1231 1645.22 L1231 1650.12 L1224.98 1650.12 Q1218.2 1650.12 1215.62 1647.61 Q1213.05 1645.06 1213.05 1638.38 L1213.05 1619.03 L1208.75 1619.03 L1208.75 1614.48 L1213.05 1614.48 L1213.05 1604.35 L1218.94 1604.35 Z" fill="#000000" fill-rule="nonzero" fill-opacity="1" /><polyline clip-path="url(#clip342)" style="stroke:#000000; stroke-linecap:round; stroke-linejoin:round; stroke-width:2; stroke-opacity:0.1; fill:none" points="86.9921,1389.42 2352.76,1389.42 "/>
<polyline clip-path="url(#clip342)" style="stroke:#000000; stroke-linecap:round; stroke-linejoin:round; stroke-width:2; stroke-opacity:0.1; fill:none" points="86.9921,1003.7 2352.76,1003.7 "/>
<polyline clip-path="url(#clip342)" style="stroke:#000000; stroke-linecap:round; stroke-linejoin:round; stroke-width:2; stroke-opacity:0.1; fill:none" points="86.9921,617.989 2352.76,617.989 "/>
<polyline clip-path="url(#clip342)" style="stroke:#000000; stroke-linecap:round; stroke-linejoin:round; stroke-width:2; stroke-opacity:0.1; fill:none" points="86.9921,232.274 2352.76,232.274 "/>
<polyline clip-path="url(#clip340)" style="stroke:#000000; stroke-linecap:round; stroke-linejoin:round; stroke-width:4; stroke-opacity:1; fill:none" points="86.9921,1505.26 86.9921,47.2441 "/>
<polyline clip-path="url(#clip340)" style="stroke:#000000; stroke-linecap:round; stroke-linejoin:round; stroke-width:4; stroke-opacity:1; fill:none" points="86.9921,1389.42 105.89,1389.42 "/>
<polyline clip-path="url(#clip340)" style="stroke:#000000; stroke-linecap:round; stroke-linejoin:round; stroke-width:4; stroke-opacity:1; fill:none" points="86.9921,1003.7 105.89,1003.7 "/>
<polyline clip-path="url(#clip340)" style="stroke:#000000; stroke-linecap:round; stroke-linejoin:round; stroke-width:4; stroke-opacity:1; fill:none" points="86.9921,617.989 105.89,617.989 "/>
<polyline clip-path="url(#clip340)" style="stroke:#000000; stroke-linecap:round; stroke-linejoin:round; stroke-width:4; stroke-opacity:1; fill:none" points="86.9921,232.274 105.89,232.274 "/>
<path clip-path="url(#clip340)" d="M-54.3545 1389.87 L-24.6788 1389.87 L-24.6788 1393.8 L-54.3545 1393.8 L-54.3545 1389.87 Z" fill="#000000" fill-rule="nonzero" fill-opacity="1" /><path clip-path="url(#clip340)" d="M-4.58628 1375.22 Q-8.19737 1375.22 -10.0261 1378.78 Q-11.8316 1382.32 -11.8316 1389.45 Q-11.8316 1396.56 -10.0261 1400.12 Q-8.19737 1403.67 -4.58628 1403.67 Q-0.95204 1403.67 0.853506 1400.12 Q2.6822 1396.56 2.6822 1389.45 Q2.6822 1382.32 0.853506 1378.78 Q-0.95204 1375.22 -4.58628 1375.22 M-4.58628 1371.51 Q1.22387 1371.51 4.27941 1376.12 Q7.3581 1380.7 7.3581 1389.45 Q7.3581 1398.18 4.27941 1402.79 Q1.22387 1407.37 -4.58628 1407.37 Q-10.3964 1407.37 -13.4751 1402.79 Q-16.5307 1398.18 -16.5307 1389.45 Q-16.5307 1380.7 -13.4751 1376.12 Q-10.3964 1371.51 -4.58628 1371.51 Z" fill="#000000" fill-rule="nonzero" fill-opacity="1" /><path clip-path="url(#clip340)" d="M15.5756 1400.82 L20.4599 1400.82 L20.4599 1406.7 L15.5756 1406.7 L15.5756 1400.82 Z" fill="#000000" fill-rule="nonzero" fill-opacity="1" /><path clip-path="url(#clip340)" d="M34.6728 1402.76 L50.9921 1402.76 L50.9921 1406.7 L29.0478 1406.7 L29.0478 1402.76 Q31.7098 1400.01 36.2931 1395.38 Q40.8996 1390.73 42.0801 1389.38 Q44.3255 1386.86 45.2051 1385.12 Q46.1079 1383.36 46.1079 1381.67 Q46.1079 1378.92 44.1635 1377.18 Q42.2422 1375.45 39.1403 1375.45 Q36.9413 1375.45 34.4876 1376.21 Q32.057 1376.98 29.2793 1378.53 L29.2793 1373.8 Q32.1033 1372.67 34.557 1372.09 Q37.0107 1371.51 39.0477 1371.51 Q44.4181 1371.51 47.6125 1374.2 Q50.8069 1376.88 50.8069 1381.37 Q50.8069 1383.5 49.9968 1385.42 Q49.2097 1387.32 47.1033 1389.92 Q46.5246 1390.59 43.4227 1393.8 Q40.3209 1397 34.6728 1402.76 Z" fill="#000000" fill-rule="nonzero" fill-opacity="1" /><path clip-path="url(#clip340)" d="M-54.7249 1004.15 L-25.0491 1004.15 L-25.0491 1008.09 L-54.7249 1008.09 L-54.7249 1004.15 Z" fill="#000000" fill-rule="nonzero" fill-opacity="1" /><path clip-path="url(#clip340)" d="M-4.95665 989.502 Q-8.56774 989.502 -10.3964 993.067 Q-12.202 996.608 -12.202 1003.74 Q-12.202 1010.84 -10.3964 1014.41 Q-8.56774 1017.95 -4.95665 1017.95 Q-1.32241 1017.95 0.483137 1014.41 Q2.31183 1010.84 2.31183 1003.74 Q2.31183 996.608 0.483137 993.067 Q-1.32241 989.502 -4.95665 989.502 M-4.95665 985.798 Q0.853506 985.798 3.90904 990.405 Q6.98773 994.988 6.98773 1003.74 Q6.98773 1012.46 3.90904 1017.07 Q0.853506 1021.65 -4.95665 1021.65 Q-10.7668 1021.65 -13.8455 1017.07 Q-16.901 1012.46 -16.901 1003.74 Q-16.901 994.988 -13.8455 990.405 Q-10.7668 985.798 -4.95665 985.798 Z" fill="#000000" fill-rule="nonzero" fill-opacity="1" /><path clip-path="url(#clip340)" d="M15.2053 1015.1 L20.0895 1015.1 L20.0895 1020.98 L15.2053 1020.98 L15.2053 1015.1 Z" fill="#000000" fill-rule="nonzero" fill-opacity="1" /><path clip-path="url(#clip340)" d="M31.0848 1017.05 L38.7237 1017.05 L38.7237 990.682 L30.4135 992.349 L30.4135 988.09 L38.6774 986.423 L43.3533 986.423 L43.3533 1017.05 L50.9921 1017.05 L50.9921 1020.98 L31.0848 1020.98 L31.0848 1017.05 Z" fill="#000000" fill-rule="nonzero" fill-opacity="1" /><path clip-path="url(#clip340)" d="M-6.18349 603.787 Q-9.79459 603.787 -11.6233 607.352 Q-13.4288 610.894 -13.4288 618.024 Q-13.4288 625.13 -11.6233 628.695 Q-9.79459 632.236 -6.18349 632.236 Q-2.54925 632.236 -0.743708 628.695 Q1.08499 625.13 1.08499 618.024 Q1.08499 610.894 -0.743708 607.352 Q-2.54925 603.787 -6.18349 603.787 M-6.18349 600.084 Q-0.37334 600.084 2.6822 604.69 Q5.76089 609.274 5.76089 618.024 Q5.76089 626.75 2.6822 631.357 Q-0.37334 635.94 -6.18349 635.94 Q-11.9936 635.94 -15.0723 631.357 Q-18.1279 626.75 -18.1279 618.024 Q-18.1279 609.274 -15.0723 604.69 Q-11.9936 600.084 -6.18349 600.084 Z" fill="#000000" fill-rule="nonzero" fill-opacity="1" /><path clip-path="url(#clip340)" d="M13.9784 629.389 L18.8627 629.389 L18.8627 635.269 L13.9784 635.269 L13.9784 629.389 Z" fill="#000000" fill-rule="nonzero" fill-opacity="1" /><path clip-path="url(#clip340)" d="M39.0477 603.787 Q35.4367 603.787 33.608 607.352 Q31.8024 610.894 31.8024 618.024 Q31.8024 625.13 33.608 628.695 Q35.4367 632.236 39.0477 632.236 Q42.682 632.236 44.4875 628.695 Q46.3162 625.13 46.3162 618.024 Q46.3162 610.894 44.4875 607.352 Q42.682 603.787 39.0477 603.787 M39.0477 600.084 Q44.8579 600.084 47.9134 604.69 Q50.9921 609.274 50.9921 618.024 Q50.9921 626.75 47.9134 631.357 Q44.8579 635.94 39.0477 635.94 Q33.2376 635.94 30.1589 631.357 Q27.1034 626.75 27.1034 618.024 Q27.1034 609.274 30.1589 604.69 Q33.2376 600.084 39.0477 600.084 Z" fill="#000000" fill-rule="nonzero" fill-opacity="1" /><path clip-path="url(#clip340)" d="M-4.95665 218.073 Q-8.56774 218.073 -10.3964 221.638 Q-12.202 225.18 -12.202 232.309 Q-12.202 239.416 -10.3964 242.98 Q-8.56774 246.522 -4.95665 246.522 Q-1.32241 246.522 0.483137 242.98 Q2.31183 239.416 2.31183 232.309 Q2.31183 225.18 0.483137 221.638 Q-1.32241 218.073 -4.95665 218.073 M-4.95665 214.369 Q0.853506 214.369 3.90904 218.976 Q6.98773 223.559 6.98773 232.309 Q6.98773 241.036 3.90904 245.642 Q0.853506 250.226 -4.95665 250.226 Q-10.7668 250.226 -13.8455 245.642 Q-16.901 241.036 -16.901 232.309 Q-16.901 223.559 -13.8455 218.976 Q-10.7668 214.369 -4.95665 214.369 Z" fill="#000000" fill-rule="nonzero" fill-opacity="1" /><path clip-path="url(#clip340)" d="M15.2053 243.675 L20.0895 243.675 L20.0895 249.554 L15.2053 249.554 L15.2053 243.675 Z" fill="#000000" fill-rule="nonzero" fill-opacity="1" /><path clip-path="url(#clip340)" d="M31.0848 245.619 L38.7237 245.619 L38.7237 219.254 L30.4135 220.92 L30.4135 216.661 L38.6774 214.994 L43.3533 214.994 L43.3533 245.619 L50.9921 245.619 L50.9921 249.554 L31.0848 249.554 L31.0848 245.619 Z" fill="#000000" fill-rule="nonzero" fill-opacity="1" /><polyline clip-path="url(#clip342)" style="stroke:#009af9; stroke-linecap:round; stroke-linejoin:round; stroke-width:4; stroke-opacity:1; fill:none" points="86.9921,617.989 313.569,617.989 540.145,1284.53 766.721,1464 993.298,1237.18 1219.87,1370.18 1446.45,821.248 1673.03,572.387 1899.6,496.166 2126.18,342.788 2352.76,88.5087 "/>
<polyline clip-path="url(#clip342)" style="stroke:#e26f46; stroke-linecap:round; stroke-linejoin:round; stroke-width:4; stroke-opacity:1; fill:none" points="86.9921,617.989 313.569,725.495 540.145,652.311 766.721,588.228 993.298,644.435 1219.87,535.517 1446.45,579.489 1673.03,605.327 1899.6,592.268 2126.18,574.757 2352.76,584.351 "/>
<path clip-path="url(#clip340)" d="M162.518 251.365 L412.288 251.365 L412.288 95.8446 L162.518 95.8446  Z" fill="#ffffff" fill-rule="evenodd" fill-opacity="1"/>
<polyline clip-path="url(#clip340)" style="stroke:#000000; stroke-linecap:round; stroke-linejoin:round; stroke-width:4; stroke-opacity:1; fill:none" points="162.518,251.365 412.288,251.365 412.288,95.8446 162.518,95.8446 162.518,251.365 "/>
<polyline clip-path="url(#clip340)" style="stroke:#009af9; stroke-linecap:round; stroke-linejoin:round; stroke-width:4; stroke-opacity:1; fill:none" points="187.693,147.685 338.744,147.685 "/>
<path clip-path="url(#clip340)" d="M377.322 151.932 Q372.16 151.932 370.169 153.113 Q368.178 154.293 368.178 157.141 Q368.178 159.409 369.66 160.752 Q371.164 162.071 373.734 162.071 Q377.275 162.071 379.405 159.571 Q381.558 157.048 381.558 152.881 L381.558 151.932 L377.322 151.932 M385.817 150.173 L385.817 164.965 L381.558 164.965 L381.558 161.029 Q380.099 163.391 377.923 164.525 Q375.747 165.636 372.599 165.636 Q368.618 165.636 366.257 163.414 Q363.919 161.168 363.919 157.418 Q363.919 153.043 366.835 150.821 Q369.775 148.599 375.585 148.599 L381.558 148.599 L381.558 148.182 Q381.558 145.243 379.613 143.645 Q377.692 142.025 374.197 142.025 Q371.974 142.025 369.868 142.557 Q367.761 143.09 365.817 144.155 L365.817 140.219 Q368.155 139.317 370.354 138.877 Q372.553 138.414 374.636 138.414 Q380.261 138.414 383.039 141.33 Q385.817 144.247 385.817 150.173 Z" fill="#000000" fill-rule="nonzero" fill-opacity="1" /><polyline clip-path="url(#clip340)" style="stroke:#e26f46; stroke-linecap:round; stroke-linejoin:round; stroke-width:4; stroke-opacity:1; fill:none" points="187.693,199.525 338.744,199.525 "/>
<path clip-path="url(#clip340)" d="M382.692 203.865 Q382.692 199.166 380.747 196.504 Q378.826 193.819 375.447 193.819 Q372.067 193.819 370.122 196.504 Q368.201 199.166 368.201 203.865 Q368.201 208.564 370.122 211.249 Q372.067 213.911 375.447 213.911 Q378.826 213.911 380.747 211.249 Q382.692 208.564 382.692 203.865 M368.201 194.814 Q369.544 192.499 371.581 191.388 Q373.641 190.254 376.488 190.254 Q381.21 190.254 384.15 194.004 Q387.113 197.754 387.113 203.865 Q387.113 209.976 384.15 213.726 Q381.21 217.476 376.488 217.476 Q373.641 217.476 371.581 216.365 Q369.544 215.231 368.201 212.916 L368.201 216.805 L363.919 216.805 L363.919 180.786 L368.201 180.786 L368.201 194.814 Z" fill="#000000" fill-rule="nonzero" fill-opacity="1" /></svg>
