<?xml version="1.0" encoding="utf-8"?>
<svg xmlns="http://www.w3.org/2000/svg" xmlns:xlink="http://www.w3.org/1999/xlink" width="600" height="400" viewBox="0 0 2400 1600">
<defs>
  <clipPath id="clip580">
    <rect x="0" y="0" width="2400" height="1600"/>
  </clipPath>
</defs>
<path clip-path="url(#clip580)" d="M0 1600 L2400 1600 L2400 0 L0 0  Z" fill="#ffffff" fill-rule="evenodd" fill-opacity="1"/>
<defs>
  <clipPath id="clip581">
    <rect x="480" y="0" width="1681" height="1600"/>
  </clipPath>
</defs>
<path clip-path="url(#clip580)" d="M86.9921 1521.01 L2352.76 1521.01 L2352.76 47.2441 L86.9921 47.2441  Z" fill="#ffffff" fill-rule="evenodd" fill-opacity="1"/>
<defs>
  <clipPath id="clip582">
    <rect x="86" y="47" width="2267" height="1475"/>
  </clipPath>
</defs>
<polyline clip-path="url(#clip582)" style="stroke:#000000; stroke-linecap:round; stroke-linejoin:round; stroke-width:2; stroke-opacity:0.1; fill:none" points="151.118,1521.01 151.118,47.2441 "/>
<polyline clip-path="url(#clip582)" style="stroke:#000000; stroke-linecap:round; stroke-linejoin:round; stroke-width:2; stroke-opacity:0.1; fill:none" points="685.496,1521.01 685.496,47.2441 "/>
<polyline clip-path="url(#clip582)" style="stroke:#000000; stroke-linecap:round; stroke-linejoin:round; stroke-width:2; stroke-opacity:0.1; fill:none" points="1219.87,1521.01 1219.87,47.2441 "/>
<polyline clip-path="url(#clip582)" style="stroke:#000000; stroke-linecap:round; stroke-linejoin:round; stroke-width:2; stroke-opacity:0.1; fill:none" points="1754.25,1521.01 1754.25,47.2441 "/>
<polyline clip-path="url(#clip582)" style="stroke:#000000; stroke-linecap:round; stroke-linejoin:round; stroke-width:2; stroke-opacity:0.1; fill:none" points="2288.63,1521.01 2288.63,47.2441 "/>
<polyline clip-path="url(#clip580)" style="stroke:#000000; stroke-linecap:round; stroke-linejoin:round; stroke-width:4; stroke-opacity:1; fill:none" points="86.9921,1521.01 2352.76,1521.01 "/>
<polyline clip-path="url(#clip580)" style="stroke:#000000; stroke-linecap:round; stroke-linejoin:round; stroke-width:4; stroke-opacity:1; fill:none" points="151.118,1521.01 151.118,1502.11 "/>
<polyline clip-path="url(#clip580)" style="stroke:#000000; stroke-linecap:round; stroke-linejoin:round; stroke-width:4; stroke-opacity:1; fill:none" points="685.496,1521.01 685.496,1502.11 "/>
<polyline clip-path="url(#clip580)" style="stroke:#000000; stroke-linecap:round; stroke-linejoin:round; stroke-width:4; stroke-opacity:1; fill:none" points="1219.87,1521.01 1219.87,1502.11 "/>
<polyline clip-path="url(#clip580)" style="stroke:#000000; stroke-linecap:round; stroke-linejoin:round; stroke-width:4; stroke-opacity:1; fill:none" points="1754.25,1521.01 1754.25,1502.11 "/>
<polyline clip-path="url(#clip580)" style="stroke:#000000; stroke-linecap:round; stroke-linejoin:round; stroke-width:4; stroke-opacity:1; fill:none" points="2288.63,1521.01 2288.63,1502.11 "/>
<path clip-path="url(#clip580)" d="M128.502 1551.93 Q124.891 1551.93 123.062 1555.49 Q121.257 1559.03 121.257 1566.16 Q121.257 1573.27 123.062 1576.83 Q124.891 1580.38 128.502 1580.38 Q132.136 1580.38 133.942 1576.83 Q135.77 1573.27 135.77 1566.16 Q135.77 1559.03 133.942 1555.49 Q132.136 1551.93 128.502 1551.93 M128.502 1548.22 Q134.312 1548.22 137.368 1552.83 Q140.446 1557.41 140.446 1566.16 Q140.446 1574.89 137.368 1579.5 Q134.312 1584.08 128.502 1584.08 Q122.692 1584.08 119.613 1579.5 Q116.558 1574.89 116.558 1566.16 Q116.558 1557.41 119.613 1552.83 Q122.692 1548.22 128.502 1548.22 Z" fill="#000000" fill-rule="nonzero" fill-opacity="1" /><path clip-path="url(#clip580)" d="M148.664 1577.53 L153.548 1577.53 L153.548 1583.41 L148.664 1583.41 L148.664 1577.53 Z" fill="#000000" fill-rule="nonzero" fill-opacity="1" /><path clip-path="url(#clip580)" d="M173.733 1551.93 Q170.122 1551.93 168.293 1555.49 Q166.488 1559.03 166.488 1566.16 Q166.488 1573.27 168.293 1576.83 Q170.122 1580.38 173.733 1580.38 Q177.367 1580.38 179.173 1576.83 Q181.002 1573.27 181.002 1566.16 Q181.002 1559.03 179.173 1555.49 Q177.367 1551.93 173.733 1551.93 M173.733 1548.22 Q179.543 1548.22 182.599 1552.83 Q185.678 1557.41 185.678 1566.16 Q185.678 1574.89 182.599 1579.5 Q179.543 1584.08 173.733 1584.08 Q167.923 1584.08 164.844 1579.5 Q161.789 1574.89 161.789 1566.16 Q161.789 1557.41 164.844 1552.83 Q167.923 1548.22 173.733 1548.22 Z" fill="#000000" fill-rule="nonzero" fill-opacity="1" /><path clip-path="url(#clip580)" d="M657.232 1579.47 L673.551 1579.47 L673.551 1583.41 L651.607 1583.41 L651.607 1579.47 Q654.269 1576.72 658.852 1572.09 Q663.459 1567.44 664.639 1566.09 Q666.885 1563.57 667.764 1561.83 Q668.667 1560.07 668.667 1558.38 Q668.667 1555.63 666.723 1553.89 Q664.801 1552.16 661.7 1552.16 Q659.501 1552.16 657.047 1552.92 Q654.616 1553.69 651.839 1555.24 L651.839 1550.51 Q654.663 1549.38 657.116 1548.8 Q659.57 1548.22 661.607 1548.22 Q666.977 1548.22 670.172 1550.91 Q673.366 1553.59 673.366 1558.08 Q673.366 1560.21 672.556 1562.13 Q671.769 1564.03 669.663 1566.63 Q669.084 1567.3 665.982 1570.51 Q662.88 1573.71 657.232 1579.47 Z" fill="#000000" fill-rule="nonzero" fill-opacity="1" /><path clip-path="url(#clip580)" d="M683.366 1577.53 L688.25 1577.53 L688.25 1583.41 L683.366 1583.41 L683.366 1577.53 Z" fill="#000000" fill-rule="nonzero" fill-opacity="1" /><path clip-path="url(#clip580)" d="M698.482 1548.85 L716.838 1548.85 L716.838 1552.78 L702.764 1552.78 L702.764 1561.26 Q703.783 1560.91 704.801 1560.75 Q705.82 1560.56 706.838 1560.56 Q712.625 1560.56 716.005 1563.73 Q719.384 1566.9 719.384 1572.32 Q719.384 1577.9 715.912 1581 Q712.44 1584.08 706.121 1584.08 Q703.945 1584.08 701.676 1583.71 Q699.431 1583.34 697.023 1582.6 L697.023 1577.9 Q699.107 1579.03 701.329 1579.59 Q703.551 1580.14 706.028 1580.14 Q710.033 1580.14 712.371 1578.04 Q714.709 1575.93 714.709 1572.32 Q714.709 1568.71 712.371 1566.6 Q710.033 1564.5 706.028 1564.5 Q704.153 1564.5 702.278 1564.91 Q700.426 1565.33 698.482 1566.21 L698.482 1548.85 Z" fill="#000000" fill-rule="nonzero" fill-opacity="1" /><path clip-path="url(#clip580)" d="M1187.04 1548.85 L1205.39 1548.85 L1205.39 1552.78 L1191.32 1552.78 L1191.32 1561.26 Q1192.34 1560.91 1193.36 1560.75 Q1194.38 1560.56 1195.39 1560.56 Q1201.18 1560.56 1204.56 1563.73 Q1207.94 1566.9 1207.94 1572.32 Q1207.94 1577.9 1204.47 1581 Q1201 1584.08 1194.68 1584.08 Q1192.5 1584.08 1190.23 1583.71 Q1187.99 1583.34 1185.58 1582.6 L1185.58 1577.9 Q1187.66 1579.03 1189.89 1579.59 Q1192.11 1580.14 1194.58 1580.14 Q1198.59 1580.14 1200.93 1578.04 Q1203.27 1575.93 1203.27 1572.32 Q1203.27 1568.71 1200.93 1566.6 Q1198.59 1564.5 1194.58 1564.5 Q1192.71 1564.5 1190.83 1564.91 Q1188.98 1565.33 1187.04 1566.21 L1187.04 1548.85 Z" fill="#000000" fill-rule="nonzero" fill-opacity="1" /><path clip-path="url(#clip580)" d="M1217.15 1577.53 L1222.04 1577.53 L1222.04 1583.41 L1217.15 1583.41 L1217.15 1577.53 Z" fill="#000000" fill-rule="nonzero" fill-opacity="1" /><path clip-path="url(#clip580)" d="M1242.22 1551.93 Q1238.61 1551.93 1236.78 1555.49 Q1234.98 1559.03 1234.98 1566.16 Q1234.98 1573.27 1236.78 1576.83 Q1238.61 1580.38 1242.22 1580.38 Q1245.86 1580.38 1247.66 1576.83 Q1249.49 1573.27 1249.49 1566.16 Q1249.49 1559.03 1247.66 1555.49 Q1245.86 1551.93 1242.22 1551.93 M1242.22 1548.22 Q1248.03 1548.22 1251.09 1552.83 Q1254.17 1557.41 1254.17 1566.16 Q1254.17 1574.89 1251.09 1579.5 Q1248.03 1584.08 1242.22 1584.08 Q1236.41 1584.08 1233.33 1579.5 Q1230.28 1574.89 1230.28 1566.16 Q1230.28 1557.41 1233.33 1552.83 Q1236.41 1548.22 1242.22 1548.22 Z" fill="#000000" fill-rule="nonzero" fill-opacity="1" /><path clip-path="url(#clip580)" d="M1720.57 1548.85 L1742.79 1548.85 L1742.79 1550.84 L1730.25 1583.41 L1725.36 1583.41 L1737.17 1552.78 L1720.57 1552.78 L1720.57 1548.85 Z" fill="#000000" fill-rule="nonzero" fill-opacity="1" /><path clip-path="url(#clip580)" d="M1751.91 1577.53 L1756.8 1577.53 L1756.8 1583.41 L1751.91 1583.41 L1751.91 1577.53 Z" fill="#000000" fill-rule="nonzero" fill-opacity="1" /><path clip-path="url(#clip580)" d="M1767.03 1548.85 L1785.39 1548.85 L1785.39 1552.78 L1771.31 1552.78 L1771.31 1561.26 Q1772.33 1560.91 1773.35 1560.75 Q1774.37 1560.56 1775.39 1560.56 Q1781.17 1560.56 1784.55 1563.73 Q1787.93 1566.9 1787.93 1572.32 Q1787.93 1577.9 1784.46 1581 Q1780.99 1584.08 1774.67 1584.08 Q1772.49 1584.08 1770.22 1583.71 Q1767.98 1583.34 1765.57 1582.6 L1765.57 1577.9 Q1767.65 1579.03 1769.88 1579.59 Q1772.1 1580.14 1774.58 1580.14 Q1778.58 1580.14 1780.92 1578.04 Q1783.26 1575.93 1783.26 1572.32 Q1783.26 1568.71 1780.92 1566.6 Q1778.58 1564.5 1774.58 1564.5 Q1772.7 1564.5 1770.83 1564.91 Q1768.97 1565.33 1767.03 1566.21 L1767.03 1548.85 Z" fill="#000000" fill-rule="nonzero" fill-opacity="1" /><path clip-path="url(#clip580)" d="M2240.7 1579.47 L2248.34 1579.47 L2248.34 1553.11 L2240.03 1554.77 L2240.03 1550.51 L2248.3 1548.85 L2252.97 1548.85 L2252.97 1579.47 L2260.61 1579.47 L2260.61 1583.41 L2240.7 1583.41 L2240.7 1579.47 Z" fill="#000000" fill-rule="nonzero" fill-opacity="1" /><path clip-path="url(#clip580)" d="M2280.05 1551.93 Q2276.44 1551.93 2274.61 1555.49 Q2272.81 1559.03 2272.81 1566.16 Q2272.81 1573.27 2274.61 1576.83 Q2276.44 1580.38 2280.05 1580.38 Q2283.69 1580.38 2285.49 1576.83 Q2287.32 1573.27 2287.32 1566.16 Q2287.32 1559.03 2285.49 1555.49 Q2283.69 1551.93 2280.05 1551.93 M2280.05 1548.22 Q2285.86 1548.22 2288.92 1552.83 Q2292 1557.41 2292 1566.16 Q2292 1574.89 2288.92 1579.5 Q2285.86 1584.08 2280.05 1584.08 Q2274.24 1584.08 2271.17 1579.5 Q2268.11 1574.89 2268.11 1566.16 Q2268.11 1557.41 2271.17 1552.83 Q2274.24 1548.22 2280.05 1548.22 Z" fill="#000000" fill-rule="nonzero" fill-opacity="1" /><path clip-path="url(#clip580)" d="M2300.22 1577.53 L2305.1 1577.53 L2305.1 1583.41 L2300.22 1583.41 L2300.22 1577.53 Z" fill="#000000" fill-rule="nonzero" fill-opacity="1" /><path clip-path="url(#clip580)" d="M2325.29 1551.93 Q2321.67 1551.93 2319.85 1555.49 Q2318.04 1559.03 2318.04 1566.16 Q2318.04 1573.27 2319.85 1576.83 Q2321.67 1580.38 2325.29 1580.38 Q2328.92 1580.38 2330.73 1576.83 Q2332.55 1573.27 2332.55 1566.16 Q2332.55 1559.03 2330.73 1555.49 Q2328.92 1551.93 2325.29 1551.93 M2325.29 1548.22 Q2331.1 1548.22 2334.15 1552.83 Q2337.23 1557.41 2337.23 1566.16 Q2337.23 1574.89 2334.15 1579.5 Q2331.1 1584.08 2325.29 1584.08 Q2319.48 1584.08 2316.4 1579.5 Q2313.34 1574.89 2313.34 1566.16 Q2313.34 1557.41 2316.4 1552.83 Q2319.48 1548.22 2325.29 1548.22 Z" fill="#000000" fill-rule="nonzero" fill-opacity="1" /><polyline clip-path="url(#clip582)" style="stroke:#000000; stroke-linecap:round; stroke-linejoin:round; stroke-width:2; stroke-opacity:0.1; fill:none" points="86.9921,1261.04 2352.76,1261.04 "/>
<polyline clip-path="url(#clip582)" style="stroke:#000000; stroke-linecap:round; stroke-linejoin:round; stroke-width:2; stroke-opacity:0.1; fill:none" points="86.9921,970.745 2352.76,970.745 "/>
<polyline clip-path="url(#clip582)" style="stroke:#000000; stroke-linecap:round; stroke-linejoin:round; stroke-width:2; stroke-opacity:0.1; fill:none" points="86.9921,680.446 2352.76,680.446 "/>
<polyline clip-path="url(#clip582)" style="stroke:#000000; stroke-linecap:round; stroke-linejoin:round; stroke-width:2; stroke-opacity:0.1; fill:none" points="86.9921,390.147 2352.76,390.147 "/>
<polyline clip-path="url(#clip582)" style="stroke:#000000; stroke-linecap:round; stroke-linejoin:round; stroke-width:2; stroke-opacity:0.1; fill:none" points="86.9921,99.8479 2352.76,99.8479 "/>
<polyline clip-path="url(#clip580)" style="stroke:#000000; stroke-linecap:round; stroke-linejoin:round; stroke-width:4; stroke-opacity:1; fill:none" points="86.9921,1521.01 86.9921,47.2441 "/>
<polyline clip-path="url(#clip580)" style="stroke:#000000; stroke-linecap:round; stroke-linejoin:round; stroke-width:4; stroke-opacity:1; fill:none" points="86.9921,1261.04 105.89,1261.04 "/>
<polyline clip-path="url(#clip580)" style="stroke:#000000; stroke-linecap:round; stroke-linejoin:round; stroke-width:4; stroke-opacity:1; fill:none" points="86.9921,970.745 105.89,970.745 "/>
<polyline clip-path="url(#clip580)" style="stroke:#000000; stroke-linecap:round; stroke-linejoin:round; stroke-width:4; stroke-opacity:1; fill:none" points="86.9921,680.446 105.89,680.446 "/>
<polyline clip-path="url(#clip580)" style="stroke:#000000; stroke-linecap:round; stroke-linejoin:round; stroke-width:4; stroke-opacity:1; fill:none" points="86.9921,390.147 105.89,390.147 "/>
<polyline clip-path="url(#clip580)" style="stroke:#000000; stroke-linecap:round; stroke-linejoin:round; stroke-width:4; stroke-opacity:1; fill:none" points="86.9921,99.8479 105.89,99.8479 "/>
<path clip-path="url(#clip580)" d="M-40.8824 1261.49 L-11.2066 1261.49 L-11.2066 1265.43 L-40.8824 1265.43 L-40.8824 1261.49 Z" fill="#000000" fill-rule="nonzero" fill-opacity="1" /><path clip-path="url(#clip580)" d="M-0.303895 1274.39 L7.33495 1274.39 L7.33495 1248.02 L-0.975188 1249.69 L-0.975188 1245.43 L7.28866 1243.76 L11.9646 1243.76 L11.9646 1274.39 L19.6034 1274.39 L19.6034 1278.32 L-0.303895 1278.32 L-0.303895 1274.39 Z" fill="#000000" fill-rule="nonzero" fill-opacity="1" /><path clip-path="url(#clip580)" d="M39.0477 1246.84 Q35.4367 1246.84 33.608 1250.41 Q31.8024 1253.95 31.8024 1261.08 Q31.8024 1268.18 33.608 1271.75 Q35.4367 1275.29 39.0477 1275.29 Q42.682 1275.29 44.4875 1271.75 Q46.3162 1268.18 46.3162 1261.08 Q46.3162 1253.95 44.4875 1250.41 Q42.682 1246.84 39.0477 1246.84 M39.0477 1243.14 Q44.8579 1243.14 47.9134 1247.74 Q50.9921 1252.33 50.9921 1261.08 Q50.9921 1269.81 47.9134 1274.41 Q44.8579 1278.99 39.0477 1278.99 Q33.2376 1278.99 30.1589 1274.41 Q27.1034 1269.81 27.1034 1261.08 Q27.1034 1252.33 30.1589 1247.74 Q33.2376 1243.14 39.0477 1243.14 Z" fill="#000000" fill-rule="nonzero" fill-opacity="1" /><path clip-path="url(#clip580)" d="M-9.72514 971.196 L19.9506 971.196 L19.9506 975.131 L-9.72514 975.131 L-9.72514 971.196 Z" fill="#000000" fill-rule="nonzero" fill-opacity="1" /><path clip-path="url(#clip580)" d="M30.0895 953.465 L48.4458 953.465 L48.4458 957.4 L34.3718 957.4 L34.3718 965.872 Q35.3904 965.525 36.4089 965.363 Q37.4274 965.177 38.4459 965.177 Q44.2329 965.177 47.6125 968.349 Q50.9921 971.52 50.9921 976.937 Q50.9921 982.515 47.5199 985.617 Q44.0477 988.696 37.7283 988.696 Q35.5524 988.696 33.2839 988.326 Q31.0385 987.955 28.6311 987.214 L28.6311 982.515 Q30.7145 983.65 32.9367 984.205 Q35.1589 984.761 37.6357 984.761 Q41.6403 984.761 43.9783 982.654 Q46.3162 980.548 46.3162 976.937 Q46.3162 973.326 43.9783 971.219 Q41.6403 969.113 37.6357 969.113 Q35.7607 969.113 33.8857 969.529 Q32.0339 969.946 30.0895 970.826 L30.0895 953.465 Z" fill="#000000" fill-rule="nonzero" fill-opacity="1" /><path clip-path="url(#clip580)" d="M39.0477 666.244 Q35.4367 666.244 33.608 669.809 Q31.8024 673.351 31.8024 680.48 Q31.8024 687.587 33.608 691.152 Q35.4367 694.693 39.0477 694.693 Q42.682 694.693 44.4875 691.152 Q46.3162 687.587 46.3162 680.48 Q46.3162 673.351 44.4875 669.809 Q42.682 666.244 39.0477 666.244 M39.0477 662.541 Q44.8579 662.541 47.9134 667.147 Q50.9921 671.73 50.9921 680.48 Q50.9921 689.207 47.9134 693.814 Q44.8579 698.397 39.0477 698.397 Q33.2376 698.397 30.1589 693.814 Q27.1034 689.207 27.1034 680.48 Q27.1034 671.73 30.1589 667.147 Q33.2376 662.541 39.0477 662.541 Z" fill="#000000" fill-rule="nonzero" fill-opacity="1" /><path clip-path="url(#clip580)" d="M30.0895 372.867 L48.4458 372.867 L48.4458 376.802 L34.3718 376.802 L34.3718 385.274 Q35.3904 384.927 36.4089 384.765 Q37.4274 384.58 38.4459 384.58 Q44.2329 384.58 47.6125 387.751 Q50.9921 390.922 50.9921 396.339 Q50.9921 401.918 47.5199 405.019 Q44.0477 408.098 37.7283 408.098 Q35.5524 408.098 33.2839 407.728 Q31.0385 407.357 28.6311 406.617 L28.6311 401.918 Q30.7145 403.052 32.9367 403.607 Q35.1589 404.163 37.6357 404.163 Q41.6403 404.163 43.9783 402.056 Q46.3162 399.95 46.3162 396.339 Q46.3162 392.728 43.9783 390.621 Q41.6403 388.515 37.6357 388.515 Q35.7607 388.515 33.8857 388.931 Q32.0339 389.348 30.0895 390.228 L30.0895 372.867 Z" fill="#000000" fill-rule="nonzero" fill-opacity="1" /><path clip-path="url(#clip580)" d="M-0.303895 113.193 L7.33495 113.193 L7.33495 86.8271 L-0.975188 88.4938 L-0.975188 84.2345 L7.28866 82.5679 L11.9646 82.5679 L11.9646 113.193 L19.6034 113.193 L19.6034 117.128 L-0.303895 117.128 L-0.303895 113.193 Z" fill="#000000" fill-rule="nonzero" fill-opacity="1" /><path clip-path="url(#clip580)" d="M39.0477 85.6466 Q35.4367 85.6466 33.608 89.2113 Q31.8024 92.753 31.8024 99.8826 Q31.8024 106.989 33.608 110.554 Q35.4367 114.095 39.0477 114.095 Q42.682 114.095 44.4875 110.554 Q46.3162 106.989 46.3162 99.8826 Q46.3162 92.753 44.4875 89.2113 Q42.682 85.6466 39.0477 85.6466 M39.0477 81.9429 Q44.8579 81.9429 47.9134 86.5493 Q50.9921 91.1326 50.9921 99.8826 Q50.9921 108.609 47.9134 113.216 Q44.8579 117.799 39.0477 117.799 Q33.2376 117.799 30.1589 113.216 Q27.1034 108.609 27.1034 99.8826 Q27.1034 91.1326 30.1589 86.5493 Q33.2376 81.9429 39.0477 81.9429 Z" fill="#000000" fill-rule="nonzero" fill-opacity="1" /><path clip-path="url(#clip582)" d="M151.118 771.07 L364.869 1386.66 L578.62 1479.3 L792.371 1463.06 L1006.12 1428.05 L1219.87 1394.19 L1433.63 1359.14 L1647.38 1324.62 L1861.13 1292.82 L2074.88 1263.91 L2288.63 1232.13 L2288.63 260.674 L2074.88 239.844 L1861.13 220.058 L1647.38 196.533 L1433.63 172.737 L1219.87 147.19 L1006.12 126.8 L792.371 99.9346 L578.62 88.9544 L364.869 164.934 L151.118 575.649  Z" fill="#009af9" fill-rule="evenodd" fill-opacity="0.2"/>
<polyline clip-path="url(#clip582)" style="stroke:#009af9; stroke-linecap:round; stroke-linejoin:round; stroke-width:12; stroke-opacity:1; fill:none" points="151.118,680.596 364.869,794.637 578.62,809.766 792.371,805.557 1006.12,800.109 1219.87,792.904 1433.63,781.391 1647.38,772.747 1861.13,764.816 2074.88,761.397 2288.63,760.393 "/>
<path clip-path="url(#clip582)" d="M151.118 785.359 L364.869 702.086 L578.62 685.419 L792.371 681.735 L1006.12 681.324 L1219.87 681.422 L1433.63 681.307 L1647.38 681.454 L1861.13 681.49 L2074.88 681.416 L2288.63 681.698 L2288.63 679.334 L2074.88 679.5 L1861.13 679.847 L1647.38 679.516 L1433.63 679.61 L1219.87 679.382 L1006.12 679.48 L792.371 679.588 L578.62 677.267 L364.869 663.976 L151.118 599.424  Z" fill="#e26f46" fill-rule="evenodd" fill-opacity="0.2"/>
<polyline clip-path="url(#clip582)" style="stroke:#e26f46; stroke-linecap:round; stroke-linejoin:round; stroke-width:12; stroke-opacity:1; fill:none" points="151.118,699.09 364.869,683.963 578.62,681.073 792.371,680.488 1006.12,680.605 1219.87,680.462 1433.63,680.361 1647.38,680.492 1861.13,680.722 2074.88,680.428 2288.63,680.425 "/>
</svg>
