<?xml version="1.0" encoding="utf-8"?>
<svg xmlns="http://www.w3.org/2000/svg" xmlns:xlink="http://www.w3.org/1999/xlink" width="600" height="400" viewBox="0 0 2400 1600">
<defs>
  <clipPath id="clip840">
    <rect x="0" y="0" width="2400" height="1600"/>
  </clipPath>
</defs>
<path clip-path="url(#clip840)" d="M0 1600 L2400 1600 L2400 0 L0 0  Z" fill="#ffffff" fill-rule="evenodd" fill-opacity="1"/>
<defs>
  <clipPath id="clip841">
    <rect x="147" y="47" width="2206" height="1440"/>
  </clipPath>
</defs>
<path clip-path="url(#clip840)" d="M147.709 1486.45 L2352.76 1486.45 L2352.76 47.2441 L147.709 47.2441  Z" fill="#ffffff" fill-rule="evenodd" fill-opacity="1"/>
<polyline clip-path="url(#clip841)" style="stroke:#000000; stroke-linecap:round; stroke-linejoin:round; stroke-width:2; stroke-opacity:0.1; fill:none" points="210.116,1486.45 210.116,47.2441 "/>
<polyline clip-path="url(#clip841)" style="stroke:#000000; stroke-linecap:round; stroke-linejoin:round; stroke-width:2; stroke-opacity:0.1; fill:none" points="903.527,1486.45 903.527,47.2441 "/>
<polyline clip-path="url(#clip841)" style="stroke:#000000; stroke-linecap:round; stroke-linejoin:round; stroke-width:2; stroke-opacity:0.1; fill:none" points="1596.94,1486.45 1596.94,47.2441 "/>
<polyline clip-path="url(#clip841)" style="stroke:#000000; stroke-linecap:round; stroke-linejoin:round; stroke-width:2; stroke-opacity:0.1; fill:none" points="2290.35,1486.45 2290.35,47.2441 "/>
<polyline clip-path="url(#clip841)" style="stroke:#000000; stroke-linecap:round; stroke-linejoin:round; stroke-width:2; stroke-opacity:0.1; fill:none" points="147.709,1466.04 2352.76,1466.04 "/>
<polyline clip-path="url(#clip841)" style="stroke:#000000; stroke-linecap:round; stroke-linejoin:round; stroke-width:2; stroke-opacity:0.1; fill:none" points="147.709,1165.85 2352.76,1165.85 "/>
<polyline clip-path="url(#clip841)" style="stroke:#000000; stroke-linecap:round; stroke-linejoin:round; stroke-width:2; stroke-opacity:0.1; fill:none" points="147.709,865.663 2352.76,865.663 "/>
<polyline clip-path="url(#clip841)" style="stroke:#000000; stroke-linecap:round; stroke-linejoin:round; stroke-width:2; stroke-opacity:0.1; fill:none" points="147.709,565.474 2352.76,565.474 "/>
<polyline clip-path="url(#clip841)" style="stroke:#000000; stroke-linecap:round; stroke-linejoin:round; stroke-width:2; stroke-opacity:0.1; fill:none" points="147.709,265.285 2352.76,265.285 "/>
<polyline clip-path="url(#clip840)" style="stroke:#000000; stroke-linecap:round; stroke-linejoin:round; stroke-width:4; stroke-opacity:1; fill:none" points="147.709,1486.45 2352.76,1486.45 "/>
<polyline clip-path="url(#clip840)" style="stroke:#000000; stroke-linecap:round; stroke-linejoin:round; stroke-width:4; stroke-opacity:1; fill:none" points="210.116,1486.45 210.116,1467.55 "/>
<polyline clip-path="url(#clip840)" style="stroke:#000000; stroke-linecap:round; stroke-linejoin:round; stroke-width:4; stroke-opacity:1; fill:none" points="903.527,1486.45 903.527,1467.55 "/>
<polyline clip-path="url(#clip840)" style="stroke:#000000; stroke-linecap:round; stroke-linejoin:round; stroke-width:4; stroke-opacity:1; fill:none" points="1596.94,1486.45 1596.94,1467.55 "/>
<polyline clip-path="url(#clip840)" style="stroke:#000000; stroke-linecap:round; stroke-linejoin:round; stroke-width:4; stroke-opacity:1; fill:none" points="2290.35,1486.45 2290.35,1467.55 "/>
<path clip-path="url(#clip840)" d="M210.116 1517.37 Q206.505 1517.37 204.677 1520.93 Q202.871 1524.47 202.871 1531.6 Q202.871 1538.71 204.677 1542.27 Q206.505 1545.82 210.116 1545.82 Q213.751 1545.82 215.556 1542.27 Q217.385 1538.71 217.385 1531.6 Q217.385 1524.47 215.556 1520.93 Q213.751 1517.37 210.116 1517.37 M210.116 1513.66 Q215.927 1513.66 218.982 1518.27 Q222.061 1522.85 222.061 1531.6 Q222.061 1540.33 218.982 1544.94 Q215.927 1549.52 210.116 1549.52 Q204.306 1549.52 201.228 1544.94 Q198.172 1540.33 198.172 1531.6 Q198.172 1522.85 201.228 1518.27 Q204.306 1513.66 210.116 1513.66 Z" fill="#000000" fill-rule="nonzero" fill-opacity="1" /><path clip-path="url(#clip840)" d="M878.215 1544.91 L885.854 1544.91 L885.854 1518.55 L877.544 1520.21 L877.544 1515.95 L885.807 1514.29 L890.483 1514.29 L890.483 1544.91 L898.122 1544.91 L898.122 1548.85 L878.215 1548.85 L878.215 1544.91 Z" fill="#000000" fill-rule="nonzero" fill-opacity="1" /><path clip-path="url(#clip840)" d="M917.566 1517.37 Q913.955 1517.37 912.127 1520.93 Q910.321 1524.47 910.321 1531.6 Q910.321 1538.71 912.127 1542.27 Q913.955 1545.82 917.566 1545.82 Q921.201 1545.82 923.006 1542.27 Q924.835 1538.71 924.835 1531.6 Q924.835 1524.47 923.006 1520.93 Q921.201 1517.37 917.566 1517.37 M917.566 1513.66 Q923.377 1513.66 926.432 1518.27 Q929.511 1522.85 929.511 1531.6 Q929.511 1540.33 926.432 1544.94 Q923.377 1549.52 917.566 1549.52 Q911.756 1549.52 908.678 1544.94 Q905.622 1540.33 905.622 1531.6 Q905.622 1522.85 908.678 1518.27 Q911.756 1513.66 917.566 1513.66 Z" fill="#000000" fill-rule="nonzero" fill-opacity="1" /><path clip-path="url(#clip840)" d="M1575.71 1544.91 L1592.03 1544.91 L1592.03 1548.85 L1570.09 1548.85 L1570.09 1544.91 Q1572.75 1542.16 1577.33 1537.53 Q1581.94 1532.88 1583.12 1531.53 Q1585.36 1529.01 1586.24 1527.27 Q1587.15 1525.51 1587.15 1523.82 Q1587.15 1521.07 1585.2 1519.33 Q1583.28 1517.6 1580.18 1517.6 Q1577.98 1517.6 1575.53 1518.36 Q1573.1 1519.13 1570.32 1520.68 L1570.32 1515.95 Q1573.14 1514.82 1575.6 1514.24 Q1578.05 1513.66 1580.09 1513.66 Q1585.46 1513.66 1588.65 1516.35 Q1591.85 1519.03 1591.85 1523.52 Q1591.85 1525.65 1591.04 1527.57 Q1590.25 1529.47 1588.14 1532.07 Q1587.56 1532.74 1584.46 1535.95 Q1581.36 1539.15 1575.71 1544.91 Z" fill="#000000" fill-rule="nonzero" fill-opacity="1" /><path clip-path="url(#clip840)" d="M1611.85 1517.37 Q1608.23 1517.37 1606.41 1520.93 Q1604.6 1524.47 1604.6 1531.6 Q1604.6 1538.71 1606.41 1542.27 Q1608.23 1545.82 1611.85 1545.82 Q1615.48 1545.82 1617.29 1542.27 Q1619.11 1538.71 1619.11 1531.6 Q1619.11 1524.47 1617.29 1520.93 Q1615.48 1517.37 1611.85 1517.37 M1611.85 1513.66 Q1617.66 1513.66 1620.71 1518.27 Q1623.79 1522.85 1623.79 1531.6 Q1623.79 1540.33 1620.71 1544.94 Q1617.66 1549.52 1611.85 1549.52 Q1606.04 1549.52 1602.96 1544.94 Q1599.9 1540.33 1599.9 1531.6 Q1599.9 1522.85 1602.96 1518.27 Q1606.04 1513.66 1611.85 1513.66 Z" fill="#000000" fill-rule="nonzero" fill-opacity="1" /><path clip-path="url(#clip840)" d="M2279.19 1530.21 Q2282.55 1530.93 2284.42 1533.2 Q2286.32 1535.47 2286.32 1538.8 Q2286.32 1543.92 2282.8 1546.72 Q2279.28 1549.52 2272.8 1549.52 Q2270.63 1549.52 2268.31 1549.08 Q2266.02 1548.66 2263.57 1547.81 L2263.57 1543.29 Q2265.51 1544.43 2267.83 1545.01 Q2270.14 1545.58 2272.66 1545.58 Q2277.06 1545.58 2279.35 1543.85 Q2281.67 1542.11 2281.67 1538.8 Q2281.67 1535.75 2279.52 1534.03 Q2277.39 1532.3 2273.57 1532.3 L2269.54 1532.3 L2269.54 1528.45 L2273.75 1528.45 Q2277.2 1528.45 2279.03 1527.09 Q2280.86 1525.7 2280.86 1523.11 Q2280.86 1520.45 2278.96 1519.03 Q2277.09 1517.6 2273.57 1517.6 Q2271.65 1517.6 2269.45 1518.01 Q2267.25 1518.43 2264.61 1519.31 L2264.61 1515.14 Q2267.27 1514.4 2269.59 1514.03 Q2271.92 1513.66 2273.98 1513.66 Q2279.31 1513.66 2282.41 1516.09 Q2285.51 1518.5 2285.51 1522.62 Q2285.51 1525.49 2283.87 1527.48 Q2282.22 1529.45 2279.19 1530.21 Z" fill="#000000" fill-rule="nonzero" fill-opacity="1" /><path clip-path="url(#clip840)" d="M2305.19 1517.37 Q2301.58 1517.37 2299.75 1520.93 Q2297.94 1524.47 2297.94 1531.6 Q2297.94 1538.71 2299.75 1542.27 Q2301.58 1545.82 2305.19 1545.82 Q2308.82 1545.82 2310.63 1542.27 Q2312.46 1538.71 2312.46 1531.6 Q2312.46 1524.47 2310.63 1520.93 Q2308.82 1517.37 2305.19 1517.37 M2305.19 1513.66 Q2311 1513.66 2314.05 1518.27 Q2317.13 1522.85 2317.13 1531.6 Q2317.13 1540.33 2314.05 1544.94 Q2311 1549.52 2305.19 1549.52 Q2299.38 1549.52 2296.3 1544.94 Q2293.24 1540.33 2293.24 1531.6 Q2293.24 1522.85 2296.3 1518.27 Q2299.38 1513.66 2305.19 1513.66 Z" fill="#000000" fill-rule="nonzero" fill-opacity="1" /><polyline clip-path="url(#clip840)" style="stroke:#000000; stroke-linecap:round; stroke-linejoin:round; stroke-width:4; stroke-opacity:1; fill:none" points="147.709,1486.45 147.709,47.2441 "/>
<polyline clip-path="url(#clip840)" style="stroke:#000000; stroke-linecap:round; stroke-linejoin:round; stroke-width:4; stroke-opacity:1; fill:none" points="147.709,1466.04 166.607,1466.04 "/>
<polyline clip-path="url(#clip840)" style="stroke:#000000; stroke-linecap:round; stroke-linejoin:round; stroke-width:4; stroke-opacity:1; fill:none" points="147.709,1165.85 166.607,1165.85 "/>
<polyline clip-path="url(#clip840)" style="stroke:#000000; stroke-linecap:round; stroke-linejoin:round; stroke-width:4; stroke-opacity:1; fill:none" points="147.709,865.663 166.607,865.663 "/>
<polyline clip-path="url(#clip840)" style="stroke:#000000; stroke-linecap:round; stroke-linejoin:round; stroke-width:4; stroke-opacity:1; fill:none" points="147.709,565.474 166.607,565.474 "/>
<polyline clip-path="url(#clip840)" style="stroke:#000000; stroke-linecap:round; stroke-linejoin:round; stroke-width:4; stroke-opacity:1; fill:none" points="147.709,265.285 166.607,265.285 "/>
<path clip-path="url(#clip840)" d="M50.9921 1466.49 L80.6679 1466.49 L80.6679 1470.43 L50.9921 1470.43 L50.9921 1466.49 Z" fill="#000000" fill-rule="nonzero" fill-opacity="1" /><path clip-path="url(#clip840)" d="M90.8067 1448.76 L109.163 1448.76 L109.163 1452.7 L95.0891 1452.7 L95.0891 1461.17 Q96.1076 1460.82 97.1261 1460.66 Q98.1447 1460.47 99.1632 1460.47 Q104.95 1460.47 108.33 1463.64 Q111.709 1466.82 111.709 1472.23 Q111.709 1477.81 108.237 1480.91 Q104.765 1483.99 98.4456 1483.99 Q96.2697 1483.99 94.0012 1483.62 Q91.7558 1483.25 89.3484 1482.51 L89.3484 1477.81 Q91.4317 1478.95 93.6539 1479.5 Q95.8761 1480.06 98.353 1480.06 Q102.358 1480.06 104.696 1477.95 Q107.033 1475.84 107.033 1472.23 Q107.033 1468.62 104.696 1466.52 Q102.358 1464.41 98.353 1464.41 Q96.478 1464.41 94.603 1464.83 Q92.7512 1465.24 90.8067 1466.12 L90.8067 1448.76 Z" fill="#000000" fill-rule="nonzero" fill-opacity="1" /><path clip-path="url(#clip840)" d="M99.765 1151.65 Q96.1539 1151.65 94.3252 1155.22 Q92.5197 1158.76 92.5197 1165.89 Q92.5197 1172.99 94.3252 1176.56 Q96.1539 1180.1 99.765 1180.1 Q103.399 1180.1 105.205 1176.56 Q107.033 1172.99 107.033 1165.89 Q107.033 1158.76 105.205 1155.22 Q103.399 1151.65 99.765 1151.65 M99.765 1147.95 Q105.575 1147.95 108.631 1152.55 Q111.709 1157.14 111.709 1165.89 Q111.709 1174.61 108.631 1179.22 Q105.575 1183.8 99.765 1183.8 Q93.9549 1183.8 90.8762 1179.22 Q87.8206 1174.61 87.8206 1165.89 Q87.8206 1157.14 90.8762 1152.55 Q93.9549 1147.95 99.765 1147.95 Z" fill="#000000" fill-rule="nonzero" fill-opacity="1" /><path clip-path="url(#clip840)" d="M90.8067 848.383 L109.163 848.383 L109.163 852.318 L95.0891 852.318 L95.0891 860.79 Q96.1076 860.443 97.1261 860.281 Q98.1447 860.096 99.1632 860.096 Q104.95 860.096 108.33 863.267 Q111.709 866.438 111.709 871.855 Q111.709 877.434 108.237 880.535 Q104.765 883.614 98.4456 883.614 Q96.2697 883.614 94.0012 883.244 Q91.7558 882.873 89.3484 882.133 L89.3484 877.434 Q91.4317 878.568 93.6539 879.123 Q95.8761 879.679 98.353 879.679 Q102.358 879.679 104.696 877.572 Q107.033 875.466 107.033 871.855 Q107.033 868.244 104.696 866.137 Q102.358 864.031 98.353 864.031 Q96.478 864.031 94.603 864.447 Q92.7512 864.864 90.8067 865.744 L90.8067 848.383 Z" fill="#000000" fill-rule="nonzero" fill-opacity="1" /><path clip-path="url(#clip840)" d="M60.4134 578.819 L68.0522 578.819 L68.0522 552.453 L59.7421 554.12 L59.7421 549.86 L68.0059 548.194 L72.6818 548.194 L72.6818 578.819 L80.3207 578.819 L80.3207 582.754 L60.4134 582.754 L60.4134 578.819 Z" fill="#000000" fill-rule="nonzero" fill-opacity="1" /><path clip-path="url(#clip840)" d="M99.765 551.272 Q96.1539 551.272 94.3252 554.837 Q92.5197 558.379 92.5197 565.509 Q92.5197 572.615 94.3252 576.18 Q96.1539 579.721 99.765 579.721 Q103.399 579.721 105.205 576.18 Q107.033 572.615 107.033 565.509 Q107.033 558.379 105.205 554.837 Q103.399 551.272 99.765 551.272 M99.765 547.569 Q105.575 547.569 108.631 552.175 Q111.709 556.759 111.709 565.509 Q111.709 574.235 108.631 578.842 Q105.575 583.425 99.765 583.425 Q93.9549 583.425 90.8762 578.842 Q87.8206 574.235 87.8206 565.509 Q87.8206 556.759 90.8762 552.175 Q93.9549 547.569 99.765 547.569 Z" fill="#000000" fill-rule="nonzero" fill-opacity="1" /><path clip-path="url(#clip840)" d="M61.4087 278.63 L69.0476 278.63 L69.0476 252.264 L60.7374 253.931 L60.7374 249.671 L69.0013 248.005 L73.6772 248.005 L73.6772 278.63 L81.316 278.63 L81.316 282.565 L61.4087 282.565 L61.4087 278.63 Z" fill="#000000" fill-rule="nonzero" fill-opacity="1" /><path clip-path="url(#clip840)" d="M90.8067 248.005 L109.163 248.005 L109.163 251.94 L95.0891 251.94 L95.0891 260.412 Q96.1076 260.065 97.1261 259.903 Q98.1447 259.718 99.1632 259.718 Q104.95 259.718 108.33 262.889 Q111.709 266.06 111.709 271.477 Q111.709 277.056 108.237 280.157 Q104.765 283.236 98.4456 283.236 Q96.2697 283.236 94.0012 282.866 Q91.7558 282.495 89.3484 281.755 L89.3484 277.056 Q91.4317 278.19 93.6539 278.745 Q95.8761 279.301 98.353 279.301 Q102.358 279.301 104.696 277.194 Q107.033 275.088 107.033 271.477 Q107.033 267.866 104.696 265.759 Q102.358 263.653 98.353 263.653 Q96.478 263.653 94.603 264.07 Q92.7512 264.486 90.8067 265.366 L90.8067 248.005 Z" fill="#000000" fill-rule="nonzero" fill-opacity="1" /><path clip-path="url(#clip841)" d="M210.116 1288.93 L279.457 1397.46 L348.799 1441.52 L418.14 1445.72 L487.481 1434.05 L556.822 1425.67 L626.163 1413.03 L695.504 1403.99 L764.845 1392.05 L834.186 1377.02 L903.527 1367.41 L972.868 1361.41 L1042.21 1349.63 L1111.55 1341.98 L1180.89 1333.93 L1250.23 1326.09 L1319.57 1319.61 L1388.91 1313.52 L1458.26 1307.64 L1527.6 1300.99 L1596.94 1298.3 L1666.28 1291.93 L1735.62 1288.8 L1804.96 1278.03 L1874.3 1270.46 L1943.64 1265.74 L2012.98 1259 L2082.33 1255.23 L2151.67 1250.1 L2221.01 1246.44 L2290.35 1240.71 L2290.35 900.114 L2221.01 885.602 L2151.67 868.3 L2082.33 853.546 L2012.98 839.827 L1943.64 830.639 L1874.3 816.216 L1804.96 799.549 L1735.62 781.152 L1666.28 759.83 L1596.94 739.946 L1527.6 716.759 L1458.26 691.123 L1388.91 661.75 L1319.57 634.03 L1250.23 611.281 L1180.89 582.502 L1111.55 551.627 L1042.21 511.46 L972.868 475.867 L903.527 434.255 L834.186 394.486 L764.845 354.319 L695.504 307.301 L626.163 262.268 L556.822 216.85 L487.481 166.282 L418.14 117.542 L348.799 87.9763 L279.457 170.454 L210.116 1051.86  Z" fill="#009af9" fill-rule="evenodd" fill-opacity="0.2"/>
<polyline clip-path="url(#clip841)" style="stroke:#009af9; stroke-linecap:round; stroke-linejoin:round; stroke-width:12; stroke-opacity:1; fill:none" points="210.116,1155.37 279.457,1146.43 348.799,1155.54 418.14,1154.51 487.481,1158.1 556.822,1161.57 626.163,1162.88 695.504,1159 764.845,1156.57 834.186,1157.5 903.527,1159.6 972.868,1155.44 1042.21,1159.42 1111.55,1158.91 1180.89,1163.47 1250.23,1162.01 1319.57,1159.18 1388.91,1163.73 1458.26,1164.36 1527.6,1165.43 1596.94,1168.53 1666.28,1170.07 1735.62,1166.82 1804.96,1164.96 1874.3,1164.35 1943.64,1159.32 2012.98,1158.3 2082.33,1158.6 2151.67,1161.06 2221.01,1159.76 2290.35,1158.49 "/>
<path clip-path="url(#clip841)" d="M210.116 1253.18 L279.457 1183.25 L348.799 1169.81 L418.14 1166.72 L487.481 1166.62 L556.822 1166.41 L626.163 1166.55 L695.504 1166.74 L764.845 1166.96 L834.186 1166.91 L903.527 1166.65 L972.868 1166.86 L1042.21 1166.7 L1111.55 1166.83 L1180.89 1166.76 L1250.23 1166.48 L1319.57 1166.77 L1388.91 1167.01 L1458.26 1166.81 L1527.6 1166.84 L1596.94 1167.34 L1666.28 1166.61 L1735.62 1166.84 L1804.96 1166.97 L1874.3 1166.79 L1943.64 1166.61 L2012.98 1166.59 L2082.33 1166.85 L2151.67 1166.99 L2221.01 1166.72 L2290.35 1166.8 L2290.35 1165.09 L2221.01 1165.05 L2151.67 1164.95 L2082.33 1164.96 L2012.98 1164.85 L1943.64 1164.87 L1874.3 1164.85 L1804.96 1164.89 L1735.62 1164.94 L1666.28 1165.03 L1596.94 1164.78 L1527.6 1165.09 L1458.26 1164.92 L1388.91 1164.73 L1319.57 1164.83 L1250.23 1164.59 L1180.89 1164.82 L1111.55 1164.72 L1042.21 1165.14 L972.868 1164.75 L903.527 1164.91 L834.186 1164.97 L764.845 1165.06 L695.504 1164.84 L626.163 1164.92 L556.822 1165.01 L487.481 1164.93 L418.14 1164.56 L348.799 1162.24 L279.457 1148.67 L210.116 1079.03  Z" fill="#e26f46" fill-rule="evenodd" fill-opacity="0.2"/>
<polyline clip-path="url(#clip841)" style="stroke:#e26f46; stroke-linecap:round; stroke-linejoin:round; stroke-width:12; stroke-opacity:1; fill:none" points="210.116,1165.6 279.457,1165.74 348.799,1165.6 418.14,1165.66 487.481,1165.86 556.822,1165.86 626.163,1165.79 695.504,1165.77 764.845,1165.88 834.186,1165.95 903.527,1165.75 972.868,1165.86 1042.21,1165.9 1111.55,1165.84 1180.89,1165.85 1250.23,1165.91 1319.57,1165.87 1388.91,1166.05 1458.26,1165.86 1527.6,1166.1 1596.94,1165.79 1666.28,1165.92 1735.62,1165.81 1804.96,1165.75 1874.3,1165.88 1943.64,1165.84 2012.98,1165.76 2082.33,1165.65 2151.67,1165.79 2221.01,1165.69 2290.35,1165.98 "/>
</svg>
