<?xml version="1.0" encoding="utf-8"?>
<svg xmlns="http://www.w3.org/2000/svg" xmlns:xlink="http://www.w3.org/1999/xlink" width="600" height="400" viewBox="0 0 2400 1600">
<defs>
  <clipPath id="clip810">
    <rect x="0" y="0" width="2400" height="1600"/>
  </clipPath>
</defs>
<path clip-path="url(#clip810)" d="M0 1600 L2400 1600 L2400 0 L0 0  Z" fill="#ffffff" fill-rule="evenodd" fill-opacity="1"/>
<defs>
  <clipPath id="clip811">
    <rect x="192" y="47" width="2161" height="1377"/>
  </clipPath>
</defs>
<path clip-path="url(#clip810)" d="M192.709 1423.18 L2352.76 1423.18 L2352.76 47.2441 L192.709 47.2441  Z" fill="#ffffff" fill-rule="evenodd" fill-opacity="1"/>
<polyline clip-path="url(#clip811)" style="stroke:#000000; stroke-linecap:round; stroke-linejoin:round; stroke-width:2; stroke-opacity:0.1; fill:none" points="192.709,1423.18 192.709,47.2441 "/>
<polyline clip-path="url(#clip811)" style="stroke:#000000; stroke-linecap:round; stroke-linejoin:round; stroke-width:2; stroke-opacity:0.1; fill:none" points="912.725,1423.18 912.725,47.2441 "/>
<polyline clip-path="url(#clip811)" style="stroke:#000000; stroke-linecap:round; stroke-linejoin:round; stroke-width:2; stroke-opacity:0.1; fill:none" points="1632.74,1423.18 1632.74,47.2441 "/>
<polyline clip-path="url(#clip811)" style="stroke:#000000; stroke-linecap:round; stroke-linejoin:round; stroke-width:2; stroke-opacity:0.1; fill:none" points="2352.76,1423.18 2352.76,47.2441 "/>
<polyline clip-path="url(#clip811)" style="stroke:#000000; stroke-linecap:round; stroke-linejoin:round; stroke-width:2; stroke-opacity:0.1; fill:none" points="192.709,1378.31 2352.76,1378.31 "/>
<polyline clip-path="url(#clip811)" style="stroke:#000000; stroke-linecap:round; stroke-linejoin:round; stroke-width:2; stroke-opacity:0.1; fill:none" points="192.709,1135.99 2352.76,1135.99 "/>
<polyline clip-path="url(#clip811)" style="stroke:#000000; stroke-linecap:round; stroke-linejoin:round; stroke-width:2; stroke-opacity:0.1; fill:none" points="192.709,893.674 2352.76,893.674 "/>
<polyline clip-path="url(#clip811)" style="stroke:#000000; stroke-linecap:round; stroke-linejoin:round; stroke-width:2; stroke-opacity:0.1; fill:none" points="192.709,651.358 2352.76,651.358 "/>
<polyline clip-path="url(#clip811)" style="stroke:#000000; stroke-linecap:round; stroke-linejoin:round; stroke-width:2; stroke-opacity:0.1; fill:none" points="192.709,409.043 2352.76,409.043 "/>
<polyline clip-path="url(#clip811)" style="stroke:#000000; stroke-linecap:round; stroke-linejoin:round; stroke-width:2; stroke-opacity:0.1; fill:none" points="192.709,166.727 2352.76,166.727 "/>
<polyline clip-path="url(#clip810)" style="stroke:#000000; stroke-linecap:round; stroke-linejoin:round; stroke-width:4; stroke-opacity:1; fill:none" points="192.709,1423.18 2352.76,1423.18 "/>
<polyline clip-path="url(#clip810)" style="stroke:#000000; stroke-linecap:round; stroke-linejoin:round; stroke-width:4; stroke-opacity:1; fill:none" points="192.709,1423.18 192.709,1404.28 "/>
<polyline clip-path="url(#clip810)" style="stroke:#000000; stroke-linecap:round; stroke-linejoin:round; stroke-width:4; stroke-opacity:1; fill:none" points="912.725,1423.18 912.725,1404.28 "/>
<polyline clip-path="url(#clip810)" style="stroke:#000000; stroke-linecap:round; stroke-linejoin:round; stroke-width:4; stroke-opacity:1; fill:none" points="1632.74,1423.18 1632.74,1404.28 "/>
<polyline clip-path="url(#clip810)" style="stroke:#000000; stroke-linecap:round; stroke-linejoin:round; stroke-width:4; stroke-opacity:1; fill:none" points="2352.76,1423.18 2352.76,1404.28 "/>
<path clip-path="url(#clip810)" d="M192.709 1454.1 Q189.098 1454.1 187.269 1457.66 Q185.464 1461.2 185.464 1468.33 Q185.464 1475.44 187.269 1479.01 Q189.098 1482.55 192.709 1482.55 Q196.343 1482.55 198.149 1479.01 Q199.978 1475.44 199.978 1468.33 Q199.978 1461.2 198.149 1457.66 Q196.343 1454.1 192.709 1454.1 M192.709 1450.39 Q198.519 1450.39 201.575 1455 Q204.654 1459.58 204.654 1468.33 Q204.654 1477.06 201.575 1481.67 Q198.519 1486.25 192.709 1486.25 Q186.899 1486.25 183.82 1481.67 Q180.765 1477.06 180.765 1468.33 Q180.765 1459.58 183.82 1455 Q186.899 1450.39 192.709 1450.39 Z" fill="#000000" fill-rule="nonzero" fill-opacity="1" /><path clip-path="url(#clip810)" d="M887.412 1481.64 L895.051 1481.64 L895.051 1455.28 L886.741 1456.95 L886.741 1452.69 L895.005 1451.02 L899.681 1451.02 L899.681 1481.64 L907.32 1481.64 L907.32 1485.58 L887.412 1485.58 L887.412 1481.64 Z" fill="#000000" fill-rule="nonzero" fill-opacity="1" /><path clip-path="url(#clip810)" d="M926.764 1454.1 Q923.153 1454.1 921.324 1457.66 Q919.519 1461.2 919.519 1468.33 Q919.519 1475.44 921.324 1479.01 Q923.153 1482.55 926.764 1482.55 Q930.398 1482.55 932.204 1479.01 Q934.032 1475.44 934.032 1468.33 Q934.032 1461.2 932.204 1457.66 Q930.398 1454.1 926.764 1454.1 M926.764 1450.39 Q932.574 1450.39 935.63 1455 Q938.708 1459.58 938.708 1468.33 Q938.708 1477.06 935.63 1481.67 Q932.574 1486.25 926.764 1486.25 Q920.954 1486.25 917.875 1481.67 Q914.82 1477.06 914.82 1468.33 Q914.82 1459.58 917.875 1455 Q920.954 1450.39 926.764 1450.39 Z" fill="#000000" fill-rule="nonzero" fill-opacity="1" /><path clip-path="url(#clip810)" d="M1611.51 1481.64 L1627.83 1481.64 L1627.83 1485.58 L1605.89 1485.58 L1605.89 1481.64 Q1608.55 1478.89 1613.13 1474.26 Q1617.74 1469.61 1618.92 1468.27 Q1621.17 1465.74 1622.05 1464.01 Q1622.95 1462.25 1622.95 1460.56 Q1622.95 1457.8 1621 1456.07 Q1619.08 1454.33 1615.98 1454.33 Q1613.78 1454.33 1611.33 1455.09 Q1608.9 1455.86 1606.12 1457.41 L1606.12 1452.69 Q1608.94 1451.55 1611.4 1450.97 Q1613.85 1450.39 1615.89 1450.39 Q1621.26 1450.39 1624.45 1453.08 Q1627.65 1455.77 1627.65 1460.26 Q1627.65 1462.39 1626.84 1464.31 Q1626.05 1466.2 1623.94 1468.8 Q1623.37 1469.47 1620.26 1472.69 Q1617.16 1475.88 1611.51 1481.64 Z" fill="#000000" fill-rule="nonzero" fill-opacity="1" /><path clip-path="url(#clip810)" d="M1647.65 1454.1 Q1644.04 1454.1 1642.21 1457.66 Q1640.4 1461.2 1640.4 1468.33 Q1640.4 1475.44 1642.21 1479.01 Q1644.04 1482.55 1647.65 1482.55 Q1651.28 1482.55 1653.09 1479.01 Q1654.92 1475.44 1654.92 1468.33 Q1654.92 1461.2 1653.09 1457.66 Q1651.28 1454.1 1647.65 1454.1 M1647.65 1450.39 Q1653.46 1450.39 1656.51 1455 Q1659.59 1459.58 1659.59 1468.33 Q1659.59 1477.06 1656.51 1481.67 Q1653.46 1486.25 1647.65 1486.25 Q1641.84 1486.25 1638.76 1481.67 Q1635.7 1477.06 1635.7 1468.33 Q1635.7 1459.58 1638.76 1455 Q1641.84 1450.39 1647.65 1450.39 Z" fill="#000000" fill-rule="nonzero" fill-opacity="1" /><path clip-path="url(#clip810)" d="M2341.6 1466.95 Q2344.96 1467.66 2346.83 1469.93 Q2348.73 1472.2 2348.73 1475.53 Q2348.73 1480.65 2345.21 1483.45 Q2341.69 1486.25 2335.21 1486.25 Q2333.03 1486.25 2330.72 1485.81 Q2328.43 1485.39 2325.97 1484.54 L2325.97 1480.02 Q2327.92 1481.16 2330.23 1481.74 Q2332.55 1482.32 2335.07 1482.32 Q2339.47 1482.32 2341.76 1480.58 Q2344.08 1478.84 2344.08 1475.53 Q2344.08 1472.48 2341.92 1470.77 Q2339.79 1469.03 2335.97 1469.03 L2331.95 1469.03 L2331.95 1465.19 L2336.16 1465.19 Q2339.61 1465.19 2341.44 1463.82 Q2343.27 1462.43 2343.27 1459.84 Q2343.27 1457.18 2341.37 1455.77 Q2339.49 1454.33 2335.97 1454.33 Q2334.05 1454.33 2331.85 1454.75 Q2329.65 1455.16 2327.02 1456.04 L2327.02 1451.88 Q2329.68 1451.14 2331.99 1450.77 Q2334.33 1450.39 2336.39 1450.39 Q2341.71 1450.39 2344.82 1452.83 Q2347.92 1455.23 2347.92 1459.35 Q2347.92 1462.22 2346.27 1464.21 Q2344.63 1466.18 2341.6 1466.95 Z" fill="#000000" fill-rule="nonzero" fill-opacity="1" /><path clip-path="url(#clip810)" d="M2367.59 1454.1 Q2363.98 1454.1 2362.15 1457.66 Q2360.35 1461.2 2360.35 1468.33 Q2360.35 1475.44 2362.15 1479.01 Q2363.98 1482.55 2367.59 1482.55 Q2371.23 1482.55 2373.03 1479.01 Q2374.86 1475.44 2374.86 1468.33 Q2374.86 1461.2 2373.03 1457.66 Q2371.23 1454.1 2367.59 1454.1 M2367.59 1450.39 Q2373.4 1450.39 2376.46 1455 Q2379.54 1459.58 2379.54 1468.33 Q2379.54 1477.06 2376.46 1481.67 Q2373.4 1486.25 2367.59 1486.25 Q2361.78 1486.25 2358.7 1481.67 Q2355.65 1477.06 2355.65 1468.33 Q2355.65 1459.58 2358.7 1455 Q2361.78 1450.39 2367.59 1450.39 Z" fill="#000000" fill-rule="nonzero" fill-opacity="1" /><path clip-path="url(#clip810)" d="M1271.79 1522.27 L1271.79 1532.4 L1283.86 1532.4 L1283.86 1536.95 L1271.79 1536.95 L1271.79 1556.3 Q1271.79 1560.66 1272.97 1561.9 Q1274.18 1563.14 1277.84 1563.14 L1283.86 1563.14 L1283.86 1568.04 L1277.84 1568.04 Q1271.06 1568.04 1268.48 1565.53 Q1265.91 1562.98 1265.91 1556.3 L1265.91 1536.95 L1261.61 1536.95 L1261.61 1532.4 L1265.91 1532.4 L1265.91 1522.27 L1271.79 1522.27 Z" fill="#000000" fill-rule="nonzero" fill-opacity="1" /><polyline clip-path="url(#clip810)" style="stroke:#000000; stroke-linecap:round; stroke-linejoin:round; stroke-width:4; stroke-opacity:1; fill:none" points="192.709,1423.18 192.709,47.2441 "/>
<polyline clip-path="url(#clip810)" style="stroke:#000000; stroke-linecap:round; stroke-linejoin:round; stroke-width:4; stroke-opacity:1; fill:none" points="192.709,1378.31 211.607,1378.31 "/>
<polyline clip-path="url(#clip810)" style="stroke:#000000; stroke-linecap:round; stroke-linejoin:round; stroke-width:4; stroke-opacity:1; fill:none" points="192.709,1135.99 211.607,1135.99 "/>
<polyline clip-path="url(#clip810)" style="stroke:#000000; stroke-linecap:round; stroke-linejoin:round; stroke-width:4; stroke-opacity:1; fill:none" points="192.709,893.674 211.607,893.674 "/>
<polyline clip-path="url(#clip810)" style="stroke:#000000; stroke-linecap:round; stroke-linejoin:round; stroke-width:4; stroke-opacity:1; fill:none" points="192.709,651.358 211.607,651.358 "/>
<polyline clip-path="url(#clip810)" style="stroke:#000000; stroke-linecap:round; stroke-linejoin:round; stroke-width:4; stroke-opacity:1; fill:none" points="192.709,409.043 211.607,409.043 "/>
<polyline clip-path="url(#clip810)" style="stroke:#000000; stroke-linecap:round; stroke-linejoin:round; stroke-width:4; stroke-opacity:1; fill:none" points="192.709,166.727 211.607,166.727 "/>
<path clip-path="url(#clip810)" d="M50.9921 1378.76 L80.6679 1378.76 L80.6679 1382.69 L50.9921 1382.69 L50.9921 1378.76 Z" fill="#000000" fill-rule="nonzero" fill-opacity="1" /><path clip-path="url(#clip810)" d="M100.76 1364.1 Q97.1493 1364.1 95.3206 1367.67 Q93.515 1371.21 93.515 1378.34 Q93.515 1385.45 95.3206 1389.01 Q97.1493 1392.55 100.76 1392.55 Q104.395 1392.55 106.2 1389.01 Q108.029 1385.45 108.029 1378.34 Q108.029 1371.21 106.2 1367.67 Q104.395 1364.1 100.76 1364.1 M100.76 1360.4 Q106.571 1360.4 109.626 1365.01 Q112.705 1369.59 112.705 1378.34 Q112.705 1387.07 109.626 1391.67 Q106.571 1396.26 100.76 1396.26 Q94.9502 1396.26 91.8715 1391.67 Q88.816 1387.07 88.816 1378.34 Q88.816 1369.59 91.8715 1365.01 Q94.9502 1360.4 100.76 1360.4 Z" fill="#000000" fill-rule="nonzero" fill-opacity="1" /><path clip-path="url(#clip810)" d="M120.922 1389.71 L125.807 1389.71 L125.807 1395.59 L120.922 1395.59 L120.922 1389.71 Z" fill="#000000" fill-rule="nonzero" fill-opacity="1" /><path clip-path="url(#clip810)" d="M136.802 1391.65 L144.441 1391.65 L144.441 1365.28 L136.131 1366.95 L136.131 1362.69 L144.394 1361.03 L149.07 1361.03 L149.07 1391.65 L156.709 1391.65 L156.709 1395.59 L136.802 1395.59 L136.802 1391.65 Z" fill="#000000" fill-rule="nonzero" fill-opacity="1" /><path clip-path="url(#clip810)" d="M99.5335 1121.79 Q95.9224 1121.79 94.0937 1125.35 Q92.2882 1128.89 92.2882 1136.02 Q92.2882 1143.13 94.0937 1146.7 Q95.9224 1150.24 99.5335 1150.24 Q103.168 1150.24 104.973 1146.7 Q106.802 1143.13 106.802 1136.02 Q106.802 1128.89 104.973 1125.35 Q103.168 1121.79 99.5335 1121.79 M99.5335 1118.08 Q105.344 1118.08 108.399 1122.69 Q111.478 1127.27 111.478 1136.02 Q111.478 1144.75 108.399 1149.36 Q105.344 1153.94 99.5335 1153.94 Q93.7234 1153.94 90.6447 1149.36 Q87.5892 1144.75 87.5892 1136.02 Q87.5892 1127.27 90.6447 1122.69 Q93.7234 1118.08 99.5335 1118.08 Z" fill="#000000" fill-rule="nonzero" fill-opacity="1" /><path clip-path="url(#clip810)" d="M119.695 1147.39 L124.58 1147.39 L124.58 1153.27 L119.695 1153.27 L119.695 1147.39 Z" fill="#000000" fill-rule="nonzero" fill-opacity="1" /><path clip-path="url(#clip810)" d="M144.765 1121.79 Q141.154 1121.79 139.325 1125.35 Q137.519 1128.89 137.519 1136.02 Q137.519 1143.13 139.325 1146.7 Q141.154 1150.24 144.765 1150.24 Q148.399 1150.24 150.205 1146.7 Q152.033 1143.13 152.033 1136.02 Q152.033 1128.89 150.205 1125.35 Q148.399 1121.79 144.765 1121.79 M144.765 1118.08 Q150.575 1118.08 153.63 1122.69 Q156.709 1127.27 156.709 1136.02 Q156.709 1144.75 153.63 1149.36 Q150.575 1153.94 144.765 1153.94 Q138.955 1153.94 135.876 1149.36 Q132.82 1144.75 132.82 1136.02 Q132.82 1127.27 135.876 1122.69 Q138.955 1118.08 144.765 1118.08 Z" fill="#000000" fill-rule="nonzero" fill-opacity="1" /><path clip-path="url(#clip810)" d="M100.76 879.473 Q97.1493 879.473 95.3206 883.037 Q93.515 886.579 93.515 893.709 Q93.515 900.815 95.3206 904.38 Q97.1493 907.922 100.76 907.922 Q104.395 907.922 106.2 904.38 Q108.029 900.815 108.029 893.709 Q108.029 886.579 106.2 883.037 Q104.395 879.473 100.76 879.473 M100.76 875.769 Q106.571 875.769 109.626 880.375 Q112.705 884.959 112.705 893.709 Q112.705 902.436 109.626 907.042 Q106.571 911.625 100.76 911.625 Q94.9502 911.625 91.8715 907.042 Q88.816 902.436 88.816 893.709 Q88.816 884.959 91.8715 880.375 Q94.9502 875.769 100.76 875.769 Z" fill="#000000" fill-rule="nonzero" fill-opacity="1" /><path clip-path="url(#clip810)" d="M120.922 905.074 L125.807 905.074 L125.807 910.954 L120.922 910.954 L120.922 905.074 Z" fill="#000000" fill-rule="nonzero" fill-opacity="1" /><path clip-path="url(#clip810)" d="M136.802 907.019 L144.441 907.019 L144.441 880.653 L136.131 882.32 L136.131 878.061 L144.394 876.394 L149.07 876.394 L149.07 907.019 L156.709 907.019 L156.709 910.954 L136.802 910.954 L136.802 907.019 Z" fill="#000000" fill-rule="nonzero" fill-opacity="1" /><path clip-path="url(#clip810)" d="M101.131 637.157 Q97.5197 637.157 95.691 640.722 Q93.8854 644.263 93.8854 651.393 Q93.8854 658.5 95.691 662.064 Q97.5197 665.606 101.131 665.606 Q104.765 665.606 106.571 662.064 Q108.399 658.5 108.399 651.393 Q108.399 644.263 106.571 640.722 Q104.765 637.157 101.131 637.157 M101.131 633.453 Q106.941 633.453 109.996 638.06 Q113.075 642.643 113.075 651.393 Q113.075 660.12 109.996 664.726 Q106.941 669.31 101.131 669.31 Q95.3206 669.31 92.2419 664.726 Q89.1864 660.12 89.1864 651.393 Q89.1864 642.643 92.2419 638.06 Q95.3206 633.453 101.131 633.453 Z" fill="#000000" fill-rule="nonzero" fill-opacity="1" /><path clip-path="url(#clip810)" d="M121.293 662.759 L126.177 662.759 L126.177 668.638 L121.293 668.638 L121.293 662.759 Z" fill="#000000" fill-rule="nonzero" fill-opacity="1" /><path clip-path="url(#clip810)" d="M140.39 664.703 L156.709 664.703 L156.709 668.638 L134.765 668.638 L134.765 664.703 Q137.427 661.949 142.01 657.319 Q146.617 652.666 147.797 651.324 Q150.043 648.801 150.922 647.064 Q151.825 645.305 151.825 643.615 Q151.825 640.861 149.88 639.125 Q147.959 637.389 144.857 637.389 Q142.658 637.389 140.205 638.152 Q137.774 638.916 134.996 640.467 L134.996 635.745 Q137.82 634.611 140.274 634.032 Q142.728 633.453 144.765 633.453 Q150.135 633.453 153.33 636.139 Q156.524 638.824 156.524 643.314 Q156.524 645.444 155.714 647.365 Q154.927 649.263 152.82 651.856 Q152.242 652.527 149.14 655.745 Q146.038 658.939 140.39 664.703 Z" fill="#000000" fill-rule="nonzero" fill-opacity="1" /><path clip-path="url(#clip810)" d="M100.182 394.841 Q96.5706 394.841 94.7419 398.406 Q92.9363 401.948 92.9363 409.077 Q92.9363 416.184 94.7419 419.749 Q96.5706 423.29 100.182 423.29 Q103.816 423.29 105.621 419.749 Q107.45 416.184 107.45 409.077 Q107.45 401.948 105.621 398.406 Q103.816 394.841 100.182 394.841 M100.182 391.138 Q105.992 391.138 109.047 395.744 Q112.126 400.327 112.126 409.077 Q112.126 417.804 109.047 422.411 Q105.992 426.994 100.182 426.994 Q94.3715 426.994 91.2928 422.411 Q88.2373 417.804 88.2373 409.077 Q88.2373 400.327 91.2928 395.744 Q94.3715 391.138 100.182 391.138 Z" fill="#000000" fill-rule="nonzero" fill-opacity="1" /><path clip-path="url(#clip810)" d="M120.344 420.443 L125.228 420.443 L125.228 426.323 L120.344 426.323 L120.344 420.443 Z" fill="#000000" fill-rule="nonzero" fill-opacity="1" /><path clip-path="url(#clip810)" d="M149.58 407.689 Q152.936 408.406 154.811 410.675 Q156.709 412.943 156.709 416.276 Q156.709 421.392 153.191 424.193 Q149.672 426.994 143.191 426.994 Q141.015 426.994 138.7 426.554 Q136.408 426.138 133.955 425.281 L133.955 420.767 Q135.899 421.901 138.214 422.48 Q140.529 423.059 143.052 423.059 Q147.45 423.059 149.742 421.323 Q152.056 419.587 152.056 416.276 Q152.056 413.221 149.904 411.508 Q147.774 409.772 143.955 409.772 L139.927 409.772 L139.927 405.929 L144.14 405.929 Q147.589 405.929 149.418 404.564 Q151.246 403.175 151.246 400.582 Q151.246 397.92 149.348 396.508 Q147.473 395.073 143.955 395.073 Q142.033 395.073 139.834 395.49 Q137.635 395.906 134.996 396.786 L134.996 392.619 Q137.658 391.878 139.973 391.508 Q142.311 391.138 144.371 391.138 Q149.695 391.138 152.797 393.568 Q155.899 395.976 155.899 400.096 Q155.899 402.966 154.255 404.957 Q152.612 406.925 149.58 407.689 Z" fill="#000000" fill-rule="nonzero" fill-opacity="1" /><path clip-path="url(#clip810)" d="M99.0474 152.526 Q95.4363 152.526 93.6076 156.091 Q91.8021 159.632 91.8021 166.762 Q91.8021 173.868 93.6076 177.433 Q95.4363 180.975 99.0474 180.975 Q102.682 180.975 104.487 177.433 Q106.316 173.868 106.316 166.762 Q106.316 159.632 104.487 156.091 Q102.682 152.526 99.0474 152.526 M99.0474 148.822 Q104.858 148.822 107.913 153.429 Q110.992 158.012 110.992 166.762 Q110.992 175.489 107.913 180.095 Q104.858 184.678 99.0474 184.678 Q93.2373 184.678 90.1586 180.095 Q87.103 175.489 87.103 166.762 Q87.103 158.012 90.1586 153.429 Q93.2373 148.822 99.0474 148.822 Z" fill="#000000" fill-rule="nonzero" fill-opacity="1" /><path clip-path="url(#clip810)" d="M119.209 178.127 L124.094 178.127 L124.094 184.007 L119.209 184.007 L119.209 178.127 Z" fill="#000000" fill-rule="nonzero" fill-opacity="1" /><path clip-path="url(#clip810)" d="M147.126 153.521 L135.32 171.97 L147.126 171.97 L147.126 153.521 M145.899 149.447 L151.779 149.447 L151.779 171.97 L156.709 171.97 L156.709 175.859 L151.779 175.859 L151.779 184.007 L147.126 184.007 L147.126 175.859 L131.524 175.859 L131.524 171.345 L145.899 149.447 Z" fill="#000000" fill-rule="nonzero" fill-opacity="1" /><polyline clip-path="url(#clip811)" style="stroke:#009af9; stroke-linecap:round; stroke-linejoin:round; stroke-width:4; stroke-opacity:1; fill:none" points="192.709,1135.99 264.711,1136.18 336.712,1384.24 408.714,1294.14 480.715,1191.15 552.717,801.053 624.719,778.934 696.72,722.672 768.722,963.124 840.723,936.443 912.725,874.798 984.726,988.955 1056.73,1003.65 1128.73,1184.6 1200.73,1199.66 1272.73,975.626 1344.73,1253.06 1416.74,1273.87 1488.74,1218.76 1560.74,1100.47 1632.74,926.987 1704.74,701.885 1776.74,652.292 1848.74,581.292 1920.75,515.512 1992.75,555.967 2064.75,278.066 2136.75,145.498 2208.75,86.1857 2280.75,155.645 2352.76,140.217 "/>
<polyline clip-path="url(#clip811)" style="stroke:#e26f46; stroke-linecap:round; stroke-linejoin:round; stroke-width:4; stroke-opacity:1; fill:none" points="192.709,1135.99 264.711,1176.31 336.712,1123.45 408.714,1120.66 480.715,1074.26 552.717,1129.71 624.719,1124.05 696.72,1171.61 768.722,1130.27 840.723,1124.44 912.725,1152.3 984.726,1137.14 1056.73,1164.23 1128.73,1138.78 1200.73,1100.59 1272.73,1179.78 1344.73,1140.27 1416.74,1128.19 1488.74,1117.61 1560.74,1107.86 1632.74,1098.3 1704.74,1124.51 1776.74,1120.69 1848.74,1120.96 1920.75,1137.47 1992.75,1087.08 2064.75,1107.92 2136.75,1118.53 2208.75,1138.67 2280.75,1125.62 2352.76,1090.71 "/>
<path clip-path="url(#clip810)" d="M264.711 248.629 L503.91 248.629 L503.91 93.1086 L264.711 93.1086  Z" fill="#ffffff" fill-rule="evenodd" fill-opacity="1"/>
<polyline clip-path="url(#clip810)" style="stroke:#000000; stroke-linecap:round; stroke-linejoin:round; stroke-width:4; stroke-opacity:1; fill:none" points="264.711,248.629 503.91,248.629 503.91,93.1086 264.711,93.1086 264.711,248.629 "/>
<polyline clip-path="url(#clip810)" style="stroke:#009af9; stroke-linecap:round; stroke-linejoin:round; stroke-width:4; stroke-opacity:1; fill:none" points="288.711,144.949 432.714,144.949 "/>
<path clip-path="url(#clip810)" d="M470.118 149.196 Q464.956 149.196 462.965 150.377 Q460.974 151.557 460.974 154.405 Q460.974 156.673 462.456 158.016 Q463.96 159.335 466.53 159.335 Q470.071 159.335 472.201 156.835 Q474.354 154.312 474.354 150.145 L474.354 149.196 L470.118 149.196 M478.613 147.437 L478.613 162.229 L474.354 162.229 L474.354 158.293 Q472.895 160.655 470.719 161.789 Q468.544 162.9 465.395 162.9 Q461.414 162.9 459.053 160.678 Q456.715 158.432 456.715 154.682 Q456.715 150.307 459.632 148.085 Q462.571 145.863 468.381 145.863 L474.354 145.863 L474.354 145.446 Q474.354 142.507 472.409 140.909 Q470.488 139.289 466.993 139.289 Q464.77 139.289 462.664 139.821 Q460.557 140.354 458.613 141.419 L458.613 137.483 Q460.951 136.581 463.15 136.141 Q465.349 135.678 467.432 135.678 Q473.057 135.678 475.835 138.594 Q478.613 141.511 478.613 147.437 Z" fill="#000000" fill-rule="nonzero" fill-opacity="1" /><polyline clip-path="url(#clip810)" style="stroke:#e26f46; stroke-linecap:round; stroke-linejoin:round; stroke-width:4; stroke-opacity:1; fill:none" points="288.711,196.789 432.714,196.789 "/>
<path clip-path="url(#clip810)" d="M475.488 201.129 Q475.488 196.43 473.543 193.768 Q471.622 191.083 468.243 191.083 Q464.863 191.083 462.919 193.768 Q460.997 196.43 460.997 201.129 Q460.997 205.828 462.919 208.513 Q464.863 211.175 468.243 211.175 Q471.622 211.175 473.543 208.513 Q475.488 205.828 475.488 201.129 M460.997 192.078 Q462.34 189.763 464.377 188.652 Q466.437 187.518 469.284 187.518 Q474.006 187.518 476.946 191.268 Q479.909 195.018 479.909 201.129 Q479.909 207.24 476.946 210.99 Q474.006 214.74 469.284 214.74 Q466.437 214.74 464.377 213.629 Q462.34 212.495 460.997 210.18 L460.997 214.069 L456.715 214.069 L456.715 178.05 L460.997 178.05 L460.997 192.078 Z" fill="#000000" fill-rule="nonzero" fill-opacity="1" /></svg>
