<?xml version="1.0" encoding="utf-8"?>
<svg xmlns="http://www.w3.org/2000/svg" xmlns:xlink="http://www.w3.org/1999/xlink" width="600" height="400" viewBox="0 0 2400 1600">
<defs>
  <clipPath id="clip660">
    <rect x="0" y="0" width="2400" height="1600"/>
  </clipPath>
</defs>
<path clip-path="url(#clip660)" d="M0 1600 L2400 1600 L2400 0 L0 0  Z" fill="#ffffff" fill-rule="evenodd" fill-opacity="1"/>
<defs>
  <clipPath id="clip661">
    <rect x="480" y="0" width="1681" height="1600"/>
  </clipPath>
</defs>
<path clip-path="url(#clip660)" d="M147.709 1486.45 L2352.76 1486.45 L2352.76 47.2441 L147.709 47.2441  Z" fill="#ffffff" fill-rule="evenodd" fill-opacity="1"/>
<defs>
  <clipPath id="clip662">
    <rect x="147" y="47" width="2206" height="1440"/>
  </clipPath>
</defs>
<polyline clip-path="url(#clip662)" style="stroke:#000000; stroke-linecap:round; stroke-linejoin:round; stroke-width:2; stroke-opacity:0.1; fill:none" points="210.116,1486.45 210.116,47.2441 "/>
<polyline clip-path="url(#clip662)" style="stroke:#000000; stroke-linecap:round; stroke-linejoin:round; stroke-width:2; stroke-opacity:0.1; fill:none" points="903.527,1486.45 903.527,47.2441 "/>
<polyline clip-path="url(#clip662)" style="stroke:#000000; stroke-linecap:round; stroke-linejoin:round; stroke-width:2; stroke-opacity:0.1; fill:none" points="1596.94,1486.45 1596.94,47.2441 "/>
<polyline clip-path="url(#clip662)" style="stroke:#000000; stroke-linecap:round; stroke-linejoin:round; stroke-width:2; stroke-opacity:0.1; fill:none" points="2290.35,1486.45 2290.35,47.2441 "/>
<polyline clip-path="url(#clip660)" style="stroke:#000000; stroke-linecap:round; stroke-linejoin:round; stroke-width:4; stroke-opacity:1; fill:none" points="147.709,1486.45 2352.76,1486.45 "/>
<polyline clip-path="url(#clip660)" style="stroke:#000000; stroke-linecap:round; stroke-linejoin:round; stroke-width:4; stroke-opacity:1; fill:none" points="210.116,1486.45 210.116,1467.55 "/>
<polyline clip-path="url(#clip660)" style="stroke:#000000; stroke-linecap:round; stroke-linejoin:round; stroke-width:4; stroke-opacity:1; fill:none" points="903.527,1486.45 903.527,1467.55 "/>
<polyline clip-path="url(#clip660)" style="stroke:#000000; stroke-linecap:round; stroke-linejoin:round; stroke-width:4; stroke-opacity:1; fill:none" points="1596.94,1486.45 1596.94,1467.55 "/>
<polyline clip-path="url(#clip660)" style="stroke:#000000; stroke-linecap:round; stroke-linejoin:round; stroke-width:4; stroke-opacity:1; fill:none" points="2290.35,1486.45 2290.35,1467.55 "/>
<path clip-path="url(#clip660)" d="M210.116 1517.37 Q206.505 1517.37 204.677 1520.93 Q202.871 1524.47 202.871 1531.6 Q202.871 1538.71 204.677 1542.27 Q206.505 1545.82 210.116 1545.82 Q213.751 1545.82 215.556 1542.27 Q217.385 1538.71 217.385 1531.6 Q217.385 1524.47 215.556 1520.93 Q213.751 1517.37 210.116 1517.37 M210.116 1513.66 Q215.927 1513.66 218.982 1518.27 Q222.061 1522.85 222.061 1531.6 Q222.061 1540.33 218.982 1544.94 Q215.927 1549.52 210.116 1549.52 Q204.306 1549.52 201.228 1544.94 Q198.172 1540.33 198.172 1531.6 Q198.172 1522.85 201.228 1518.27 Q204.306 1513.66 210.116 1513.66 Z" fill="#000000" fill-rule="nonzero" fill-opacity="1" /><path clip-path="url(#clip660)" d="M878.215 1544.91 L885.854 1544.91 L885.854 1518.55 L877.544 1520.21 L877.544 1515.95 L885.807 1514.29 L890.483 1514.29 L890.483 1544.91 L898.122 1544.91 L898.122 1548.85 L878.215 1548.85 L878.215 1544.91 Z" fill="#000000" fill-rule="nonzero" fill-opacity="1" /><path clip-path="url(#clip660)" d="M917.566 1517.37 Q913.955 1517.37 912.127 1520.93 Q910.321 1524.47 910.321 1531.6 Q910.321 1538.71 912.127 1542.27 Q913.955 1545.82 917.566 1545.82 Q921.201 1545.82 923.006 1542.27 Q924.835 1538.71 924.835 1531.6 Q924.835 1524.47 923.006 1520.93 Q921.201 1517.37 917.566 1517.37 M917.566 1513.66 Q923.377 1513.66 926.432 1518.27 Q929.511 1522.85 929.511 1531.6 Q929.511 1540.33 926.432 1544.94 Q923.377 1549.52 917.566 1549.52 Q911.756 1549.52 908.678 1544.94 Q905.622 1540.33 905.622 1531.6 Q905.622 1522.85 908.678 1518.27 Q911.756 1513.66 917.566 1513.66 Z" fill="#000000" fill-rule="nonzero" fill-opacity="1" /><path clip-path="url(#clip660)" d="M1575.71 1544.91 L1592.03 1544.91 L1592.03 1548.85 L1570.09 1548.85 L1570.09 1544.91 Q1572.75 1542.16 1577.33 1537.53 Q1581.94 1532.88 1583.12 1531.53 Q1585.36 1529.01 1586.24 1527.27 Q1587.15 1525.51 1587.15 1523.82 Q1587.15 1521.07 1585.2 1519.33 Q1583.28 1517.6 1580.18 1517.6 Q1577.98 1517.6 1575.53 1518.36 Q1573.1 1519.13 1570.32 1520.68 L1570.32 1515.95 Q1573.14 1514.82 1575.6 1514.24 Q1578.05 1513.66 1580.09 1513.66 Q1585.46 1513.66 1588.65 1516.35 Q1591.85 1519.03 1591.85 1523.52 Q1591.85 1525.65 1591.04 1527.57 Q1590.25 1529.47 1588.14 1532.07 Q1587.56 1532.74 1584.46 1535.95 Q1581.36 1539.15 1575.71 1544.91 Z" fill="#000000" fill-rule="nonzero" fill-opacity="1" /><path clip-path="url(#clip660)" d="M1611.85 1517.37 Q1608.23 1517.37 1606.41 1520.93 Q1604.6 1524.47 1604.6 1531.6 Q1604.6 1538.71 1606.41 1542.27 Q1608.23 1545.82 1611.85 1545.82 Q1615.48 1545.82 1617.29 1542.27 Q1619.11 1538.71 1619.11 1531.6 Q1619.11 1524.47 1617.29 1520.93 Q1615.48 1517.37 1611.85 1517.37 M1611.85 1513.66 Q1617.66 1513.66 1620.71 1518.27 Q1623.79 1522.85 1623.79 1531.6 Q1623.79 1540.33 1620.71 1544.94 Q1617.66 1549.52 1611.85 1549.52 Q1606.04 1549.52 1602.96 1544.94 Q1599.9 1540.33 1599.9 1531.6 Q1599.9 1522.85 1602.96 1518.27 Q1606.04 1513.66 1611.85 1513.66 Z" fill="#000000" fill-rule="nonzero" fill-opacity="1" /><path clip-path="url(#clip660)" d="M2279.19 1530.21 Q2282.55 1530.93 2284.42 1533.2 Q2286.32 1535.47 2286.32 1538.8 Q2286.32 1543.92 2282.8 1546.72 Q2279.28 1549.52 2272.8 1549.52 Q2270.63 1549.52 2268.31 1549.08 Q2266.02 1548.66 2263.57 1547.81 L2263.57 1543.29 Q2265.51 1544.43 2267.83 1545.01 Q2270.14 1545.58 2272.66 1545.58 Q2277.06 1545.58 2279.35 1543.85 Q2281.67 1542.11 2281.67 1538.8 Q2281.67 1535.75 2279.52 1534.03 Q2277.39 1532.3 2273.57 1532.3 L2269.54 1532.3 L2269.54 1528.45 L2273.75 1528.45 Q2277.2 1528.45 2279.03 1527.09 Q2280.86 1525.7 2280.86 1523.11 Q2280.86 1520.45 2278.96 1519.03 Q2277.09 1517.6 2273.57 1517.6 Q2271.65 1517.6 2269.45 1518.01 Q2267.25 1518.43 2264.61 1519.31 L2264.61 1515.14 Q2267.27 1514.4 2269.59 1514.03 Q2271.92 1513.66 2273.98 1513.66 Q2279.31 1513.66 2282.41 1516.09 Q2285.51 1518.5 2285.51 1522.62 Q2285.51 1525.49 2283.87 1527.48 Q2282.22 1529.45 2279.19 1530.21 Z" fill="#000000" fill-rule="nonzero" fill-opacity="1" /><path clip-path="url(#clip660)" d="M2305.19 1517.37 Q2301.58 1517.37 2299.75 1520.93 Q2297.94 1524.47 2297.94 1531.6 Q2297.94 1538.71 2299.75 1542.27 Q2301.58 1545.82 2305.19 1545.82 Q2308.82 1545.82 2310.63 1542.27 Q2312.46 1538.71 2312.46 1531.6 Q2312.46 1524.47 2310.63 1520.93 Q2308.82 1517.37 2305.19 1517.37 M2305.19 1513.66 Q2311 1513.66 2314.05 1518.27 Q2317.13 1522.85 2317.13 1531.6 Q2317.13 1540.33 2314.05 1544.94 Q2311 1549.52 2305.19 1549.52 Q2299.38 1549.52 2296.3 1544.94 Q2293.24 1540.33 2293.24 1531.6 Q2293.24 1522.85 2296.3 1518.27 Q2299.38 1513.66 2305.19 1513.66 Z" fill="#000000" fill-rule="nonzero" fill-opacity="1" /><polyline clip-path="url(#clip662)" style="stroke:#000000; stroke-linecap:round; stroke-linejoin:round; stroke-width:2; stroke-opacity:0.1; fill:none" points="147.709,1466.75 2352.76,1466.75 "/>
<polyline clip-path="url(#clip662)" style="stroke:#000000; stroke-linecap:round; stroke-linejoin:round; stroke-width:2; stroke-opacity:0.1; fill:none" points="147.709,1151.46 2352.76,1151.46 "/>
<polyline clip-path="url(#clip662)" style="stroke:#000000; stroke-linecap:round; stroke-linejoin:round; stroke-width:2; stroke-opacity:0.1; fill:none" points="147.709,836.182 2352.76,836.182 "/>
<polyline clip-path="url(#clip662)" style="stroke:#000000; stroke-linecap:round; stroke-linejoin:round; stroke-width:2; stroke-opacity:0.1; fill:none" points="147.709,520.901 2352.76,520.901 "/>
<polyline clip-path="url(#clip662)" style="stroke:#000000; stroke-linecap:round; stroke-linejoin:round; stroke-width:2; stroke-opacity:0.1; fill:none" points="147.709,205.619 2352.76,205.619 "/>
<polyline clip-path="url(#clip660)" style="stroke:#000000; stroke-linecap:round; stroke-linejoin:round; stroke-width:4; stroke-opacity:1; fill:none" points="147.709,1486.45 147.709,47.2441 "/>
<polyline clip-path="url(#clip660)" style="stroke:#000000; stroke-linecap:round; stroke-linejoin:round; stroke-width:4; stroke-opacity:1; fill:none" points="147.709,1466.75 166.607,1466.75 "/>
<polyline clip-path="url(#clip660)" style="stroke:#000000; stroke-linecap:round; stroke-linejoin:round; stroke-width:4; stroke-opacity:1; fill:none" points="147.709,1151.46 166.607,1151.46 "/>
<polyline clip-path="url(#clip660)" style="stroke:#000000; stroke-linecap:round; stroke-linejoin:round; stroke-width:4; stroke-opacity:1; fill:none" points="147.709,836.182 166.607,836.182 "/>
<polyline clip-path="url(#clip660)" style="stroke:#000000; stroke-linecap:round; stroke-linejoin:round; stroke-width:4; stroke-opacity:1; fill:none" points="147.709,520.901 166.607,520.901 "/>
<polyline clip-path="url(#clip660)" style="stroke:#000000; stroke-linecap:round; stroke-linejoin:round; stroke-width:4; stroke-opacity:1; fill:none" points="147.709,205.619 166.607,205.619 "/>
<path clip-path="url(#clip660)" d="M50.9921 1467.2 L80.6679 1467.2 L80.6679 1471.13 L50.9921 1471.13 L50.9921 1467.2 Z" fill="#000000" fill-rule="nonzero" fill-opacity="1" /><path clip-path="url(#clip660)" d="M90.8067 1449.47 L109.163 1449.47 L109.163 1453.4 L95.0891 1453.4 L95.0891 1461.87 Q96.1076 1461.53 97.1261 1461.36 Q98.1447 1461.18 99.1632 1461.18 Q104.95 1461.18 108.33 1464.35 Q111.709 1467.52 111.709 1472.94 Q111.709 1478.52 108.237 1481.62 Q104.765 1484.7 98.4456 1484.7 Q96.2697 1484.7 94.0012 1484.33 Q91.7558 1483.96 89.3484 1483.22 L89.3484 1478.52 Q91.4317 1479.65 93.6539 1480.21 Q95.8761 1480.76 98.353 1480.76 Q102.358 1480.76 104.696 1478.66 Q107.033 1476.55 107.033 1472.94 Q107.033 1469.33 104.696 1467.22 Q102.358 1465.11 98.353 1465.11 Q96.478 1465.11 94.603 1465.53 Q92.7512 1465.95 90.8067 1466.83 L90.8067 1449.47 Z" fill="#000000" fill-rule="nonzero" fill-opacity="1" /><path clip-path="url(#clip660)" d="M99.765 1137.26 Q96.1539 1137.26 94.3252 1140.83 Q92.5197 1144.37 92.5197 1151.5 Q92.5197 1158.61 94.3252 1162.17 Q96.1539 1165.71 99.765 1165.71 Q103.399 1165.71 105.205 1162.17 Q107.033 1158.61 107.033 1151.5 Q107.033 1144.37 105.205 1140.83 Q103.399 1137.26 99.765 1137.26 M99.765 1133.56 Q105.575 1133.56 108.631 1138.17 Q111.709 1142.75 111.709 1151.5 Q111.709 1160.23 108.631 1164.83 Q105.575 1169.42 99.765 1169.42 Q93.9549 1169.42 90.8762 1164.83 Q87.8206 1160.23 87.8206 1151.5 Q87.8206 1142.75 90.8762 1138.17 Q93.9549 1133.56 99.765 1133.56 Z" fill="#000000" fill-rule="nonzero" fill-opacity="1" /><path clip-path="url(#clip660)" d="M90.8067 818.902 L109.163 818.902 L109.163 822.838 L95.0891 822.838 L95.0891 831.31 Q96.1076 830.963 97.1261 830.8 Q98.1447 830.615 99.1632 830.615 Q104.95 830.615 108.33 833.787 Q111.709 836.958 111.709 842.375 Q111.709 847.953 108.237 851.055 Q104.765 854.134 98.4456 854.134 Q96.2697 854.134 94.0012 853.763 Q91.7558 853.393 89.3484 852.652 L89.3484 847.953 Q91.4317 849.087 93.6539 849.643 Q95.8761 850.199 98.353 850.199 Q102.358 850.199 104.696 848.092 Q107.033 845.986 107.033 842.375 Q107.033 838.763 104.696 836.657 Q102.358 834.55 98.353 834.55 Q96.478 834.55 94.603 834.967 Q92.7512 835.384 90.8067 836.263 L90.8067 818.902 Z" fill="#000000" fill-rule="nonzero" fill-opacity="1" /><path clip-path="url(#clip660)" d="M60.4134 534.246 L68.0522 534.246 L68.0522 507.88 L59.7421 509.547 L59.7421 505.288 L68.0059 503.621 L72.6818 503.621 L72.6818 534.246 L80.3207 534.246 L80.3207 538.181 L60.4134 538.181 L60.4134 534.246 Z" fill="#000000" fill-rule="nonzero" fill-opacity="1" /><path clip-path="url(#clip660)" d="M99.765 506.7 Q96.1539 506.7 94.3252 510.264 Q92.5197 513.806 92.5197 520.936 Q92.5197 528.042 94.3252 531.607 Q96.1539 535.148 99.765 535.148 Q103.399 535.148 105.205 531.607 Q107.033 528.042 107.033 520.936 Q107.033 513.806 105.205 510.264 Q103.399 506.7 99.765 506.7 M99.765 502.996 Q105.575 502.996 108.631 507.602 Q111.709 512.186 111.709 520.936 Q111.709 529.662 108.631 534.269 Q105.575 538.852 99.765 538.852 Q93.9549 538.852 90.8762 534.269 Q87.8206 529.662 87.8206 520.936 Q87.8206 512.186 90.8762 507.602 Q93.9549 502.996 99.765 502.996 Z" fill="#000000" fill-rule="nonzero" fill-opacity="1" /><path clip-path="url(#clip660)" d="M61.4087 218.964 L69.0476 218.964 L69.0476 192.599 L60.7374 194.265 L60.7374 190.006 L69.0013 188.339 L73.6772 188.339 L73.6772 218.964 L81.316 218.964 L81.316 222.899 L61.4087 222.899 L61.4087 218.964 Z" fill="#000000" fill-rule="nonzero" fill-opacity="1" /><path clip-path="url(#clip660)" d="M90.8067 188.339 L109.163 188.339 L109.163 192.275 L95.0891 192.275 L95.0891 200.747 Q96.1076 200.399 97.1261 200.237 Q98.1447 200.052 99.1632 200.052 Q104.95 200.052 108.33 203.224 Q111.709 206.395 111.709 211.811 Q111.709 217.39 108.237 220.492 Q104.765 223.571 98.4456 223.571 Q96.2697 223.571 94.0012 223.2 Q91.7558 222.83 89.3484 222.089 L89.3484 217.39 Q91.4317 218.524 93.6539 219.08 Q95.8761 219.635 98.353 219.635 Q102.358 219.635 104.696 217.529 Q107.033 215.423 107.033 211.811 Q107.033 208.2 104.696 206.094 Q102.358 203.987 98.353 203.987 Q96.478 203.987 94.603 204.404 Q92.7512 204.821 90.8067 205.7 L90.8067 188.339 Z" fill="#000000" fill-rule="nonzero" fill-opacity="1" /><path clip-path="url(#clip662)" d="M210.116 1282.03 L279.457 1384.6 L348.799 1441.72 L418.14 1445.72 L487.481 1439.76 L556.822 1427.84 L626.163 1412.56 L695.504 1395.59 L764.845 1384.24 L834.186 1369.51 L903.527 1354.81 L972.868 1347.05 L1042.21 1341.24 L1111.55 1331.97 L1180.89 1326.26 L1250.23 1314.38 L1319.57 1307.15 L1388.91 1304.42 L1458.26 1297.91 L1527.6 1292.27 L1596.94 1283.7 L1666.28 1276.63 L1735.62 1272.2 L1804.96 1269.77 L1874.3 1263.78 L1943.64 1260.49 L2012.98 1257.15 L2082.33 1251.01 L2151.67 1248.8 L2221.01 1245.6 L2290.35 1247.64 L2290.35 905.735 L2221.01 891.872 L2151.67 875.918 L2082.33 860.813 L2012.98 844.746 L1943.64 831.237 L1874.3 816.873 L1804.96 797.777 L1735.62 778.515 L1666.28 754.718 L1596.94 732.179 L1527.6 706.955 L1458.26 682.188 L1388.91 652.277 L1319.57 625.19 L1250.23 598.616 L1180.89 570.654 L1111.55 543.307 L1042.21 513.378 L972.868 479.516 L903.527 442.055 L834.186 405.775 L764.845 367.829 L695.504 319.31 L626.163 270.825 L556.822 223.123 L487.481 166.691 L418.14 113.302 L348.799 87.9763 L279.457 169.356 L210.116 1052.55  Z" fill="#009af9" fill-rule="evenodd" fill-opacity="0.2"/>
<polyline clip-path="url(#clip662)" style="stroke:#009af9; stroke-linecap:round; stroke-linejoin:round; stroke-width:12; stroke-opacity:1; fill:none" points="210.116,1162.99 279.457,1187.41 348.799,1203.03 418.14,1202.36 487.481,1196.07 556.822,1192.66 626.163,1187.32 695.504,1182.86 764.845,1183.1 834.186,1181.96 903.527,1182.12 972.868,1179.82 1042.21,1179.65 1111.55,1178.94 1180.89,1177.8 1250.23,1181.78 1319.57,1180.49 1388.91,1179.5 1458.26,1179.19 1527.6,1175.45 1596.94,1174.17 1666.28,1174.55 1735.62,1172.95 1804.96,1172.79 1874.3,1173.3 1943.64,1168.23 2012.98,1164.49 2082.33,1162.96 2151.67,1159.73 2221.01,1157.94 2290.35,1164.34 "/>
<path clip-path="url(#clip662)" d="M210.116 1246.07 L279.457 1170.67 L348.799 1155.19 L418.14 1152.87 L487.481 1152.86 L556.822 1152.46 L626.163 1152.33 L695.504 1152.7 L764.845 1152.53 L834.186 1152.29 L903.527 1152.43 L972.868 1152.31 L1042.21 1152.62 L1111.55 1152.37 L1180.89 1152.47 L1250.23 1152.32 L1319.57 1152.61 L1388.91 1152.56 L1458.26 1152.48 L1527.6 1152.54 L1596.94 1152.38 L1666.28 1152.84 L1735.62 1152.63 L1804.96 1152.64 L1874.3 1152.6 L1943.64 1152.41 L2012.98 1152.54 L2082.33 1152.33 L2151.67 1152.55 L2221.01 1152.71 L2290.35 1152.67 L2290.35 1150.19 L2221.01 1150.06 L2151.67 1150.36 L2082.33 1150.82 L2012.98 1150.64 L1943.64 1150.65 L1874.3 1150.39 L1804.96 1150.6 L1735.62 1150.7 L1666.28 1150.76 L1596.94 1150.38 L1527.6 1150.75 L1458.26 1150.92 L1388.91 1150.81 L1319.57 1150.84 L1250.23 1150.33 L1180.89 1150.46 L1111.55 1150.73 L1042.21 1150.5 L972.868 1150.65 L903.527 1150.5 L834.186 1150.34 L764.845 1150.56 L695.504 1150.45 L626.163 1150.13 L556.822 1150.43 L487.481 1150.28 L418.14 1150.17 L348.799 1147.32 L279.457 1134.22 L210.116 1064.53  Z" fill="#e26f46" fill-rule="evenodd" fill-opacity="0.2"/>
<polyline clip-path="url(#clip662)" style="stroke:#e26f46; stroke-linecap:round; stroke-linejoin:round; stroke-width:12; stroke-opacity:1; fill:none" points="210.116,1153.29 279.457,1152.21 348.799,1151.61 418.14,1151.49 487.481,1151.45 556.822,1151.56 626.163,1151.62 695.504,1151.48 764.845,1151.47 834.186,1151.44 903.527,1151.66 972.868,1151.24 1042.21,1151.46 1111.55,1151.57 1180.89,1151.39 1250.23,1151.49 1319.57,1151.47 1388.91,1151.68 1458.26,1151.56 1527.6,1151.42 1596.94,1151.58 1666.28,1151.67 1735.62,1151.54 1804.96,1151.62 1874.3,1151.42 1943.64,1151.41 2012.98,1151.48 2082.33,1151.44 2151.67,1151.47 2221.01,1151.53 2290.35,1151.38 "/>
</svg>
