<?xml version="1.0" encoding="utf-8"?>
<svg xmlns="http://www.w3.org/2000/svg" xmlns:xlink="http://www.w3.org/1999/xlink" width="600" height="400" viewBox="0 0 2400 1600">
<defs>
  <clipPath id="clip600">
    <rect x="0" y="0" width="2400" height="1600"/>
  </clipPath>
</defs>
<path clip-path="url(#clip600)" d="M0 1600 L2400 1600 L2400 0 L0 0  Z" fill="#ffffff" fill-rule="evenodd" fill-opacity="1"/>
<defs>
  <clipPath id="clip601">
    <rect x="480" y="0" width="1681" height="1600"/>
  </clipPath>
</defs>
<path clip-path="url(#clip600)" d="M194.422 1423.18 L2352.76 1423.18 L2352.76 47.2441 L194.422 47.2441  Z" fill="#ffffff" fill-rule="evenodd" fill-opacity="1"/>
<defs>
  <clipPath id="clip602">
    <rect x="194" y="47" width="2159" height="1377"/>
  </clipPath>
</defs>
<polyline clip-path="url(#clip602)" style="stroke:#000000; stroke-linecap:round; stroke-linejoin:round; stroke-width:2; stroke-opacity:0.1; fill:none" points="194.422,1423.18 194.422,47.2441 "/>
<polyline clip-path="url(#clip602)" style="stroke:#000000; stroke-linecap:round; stroke-linejoin:round; stroke-width:2; stroke-opacity:0.1; fill:none" points="913.867,1423.18 913.867,47.2441 "/>
<polyline clip-path="url(#clip602)" style="stroke:#000000; stroke-linecap:round; stroke-linejoin:round; stroke-width:2; stroke-opacity:0.1; fill:none" points="1633.31,1423.18 1633.31,47.2441 "/>
<polyline clip-path="url(#clip602)" style="stroke:#000000; stroke-linecap:round; stroke-linejoin:round; stroke-width:2; stroke-opacity:0.1; fill:none" points="2352.76,1423.18 2352.76,47.2441 "/>
<polyline clip-path="url(#clip600)" style="stroke:#000000; stroke-linecap:round; stroke-linejoin:round; stroke-width:4; stroke-opacity:1; fill:none" points="194.422,1423.18 2352.76,1423.18 "/>
<polyline clip-path="url(#clip600)" style="stroke:#000000; stroke-linecap:round; stroke-linejoin:round; stroke-width:4; stroke-opacity:1; fill:none" points="194.422,1423.18 194.422,1404.28 "/>
<polyline clip-path="url(#clip600)" style="stroke:#000000; stroke-linecap:round; stroke-linejoin:round; stroke-width:4; stroke-opacity:1; fill:none" points="913.867,1423.18 913.867,1404.28 "/>
<polyline clip-path="url(#clip600)" style="stroke:#000000; stroke-linecap:round; stroke-linejoin:round; stroke-width:4; stroke-opacity:1; fill:none" points="1633.31,1423.18 1633.31,1404.28 "/>
<polyline clip-path="url(#clip600)" style="stroke:#000000; stroke-linecap:round; stroke-linejoin:round; stroke-width:4; stroke-opacity:1; fill:none" points="2352.76,1423.18 2352.76,1404.28 "/>
<path clip-path="url(#clip600)" d="M194.422 1454.1 Q190.811 1454.1 188.982 1457.66 Q187.177 1461.2 187.177 1468.33 Q187.177 1475.44 188.982 1479.01 Q190.811 1482.55 194.422 1482.55 Q198.056 1482.55 199.862 1479.01 Q201.691 1475.44 201.691 1468.33 Q201.691 1461.2 199.862 1457.66 Q198.056 1454.1 194.422 1454.1 M194.422 1450.39 Q200.232 1450.39 203.288 1455 Q206.366 1459.58 206.366 1468.33 Q206.366 1477.06 203.288 1481.67 Q200.232 1486.25 194.422 1486.25 Q188.612 1486.25 185.533 1481.67 Q182.478 1477.06 182.478 1468.33 Q182.478 1459.58 185.533 1455 Q188.612 1450.39 194.422 1450.39 Z" fill="#000000" fill-rule="nonzero" fill-opacity="1" /><path clip-path="url(#clip600)" d="M888.554 1481.64 L896.193 1481.64 L896.193 1455.28 L887.883 1456.95 L887.883 1452.69 L896.147 1451.02 L900.823 1451.02 L900.823 1481.64 L908.462 1481.64 L908.462 1485.58 L888.554 1485.58 L888.554 1481.64 Z" fill="#000000" fill-rule="nonzero" fill-opacity="1" /><path clip-path="url(#clip600)" d="M927.906 1454.1 Q924.295 1454.1 922.466 1457.66 Q920.661 1461.2 920.661 1468.33 Q920.661 1475.44 922.466 1479.01 Q924.295 1482.55 927.906 1482.55 Q931.54 1482.55 933.346 1479.01 Q935.174 1475.44 935.174 1468.33 Q935.174 1461.2 933.346 1457.66 Q931.54 1454.1 927.906 1454.1 M927.906 1450.39 Q933.716 1450.39 936.772 1455 Q939.85 1459.58 939.85 1468.33 Q939.85 1477.06 936.772 1481.67 Q933.716 1486.25 927.906 1486.25 Q922.096 1486.25 919.017 1481.67 Q915.962 1477.06 915.962 1468.33 Q915.962 1459.58 919.017 1455 Q922.096 1450.39 927.906 1450.39 Z" fill="#000000" fill-rule="nonzero" fill-opacity="1" /><path clip-path="url(#clip600)" d="M1612.08 1481.64 L1628.4 1481.64 L1628.4 1485.58 L1606.46 1485.58 L1606.46 1481.64 Q1609.12 1478.89 1613.7 1474.26 Q1618.31 1469.61 1619.49 1468.27 Q1621.74 1465.74 1622.62 1464.01 Q1623.52 1462.25 1623.52 1460.56 Q1623.52 1457.8 1621.58 1456.07 Q1619.65 1454.33 1616.55 1454.33 Q1614.35 1454.33 1611.9 1455.09 Q1609.47 1455.86 1606.69 1457.41 L1606.69 1452.69 Q1609.52 1451.55 1611.97 1450.97 Q1614.42 1450.39 1616.46 1450.39 Q1621.83 1450.39 1625.02 1453.08 Q1628.22 1455.77 1628.22 1460.26 Q1628.22 1462.39 1627.41 1464.31 Q1626.62 1466.2 1624.52 1468.8 Q1623.94 1469.47 1620.83 1472.69 Q1617.73 1475.88 1612.08 1481.64 Z" fill="#000000" fill-rule="nonzero" fill-opacity="1" /><path clip-path="url(#clip600)" d="M1648.22 1454.1 Q1644.61 1454.1 1642.78 1457.66 Q1640.97 1461.2 1640.97 1468.33 Q1640.97 1475.44 1642.78 1479.01 Q1644.61 1482.55 1648.22 1482.55 Q1651.85 1482.55 1653.66 1479.01 Q1655.49 1475.44 1655.49 1468.33 Q1655.49 1461.2 1653.66 1457.66 Q1651.85 1454.1 1648.22 1454.1 M1648.22 1450.39 Q1654.03 1450.39 1657.08 1455 Q1660.16 1459.58 1660.16 1468.33 Q1660.16 1477.06 1657.08 1481.67 Q1654.03 1486.25 1648.22 1486.25 Q1642.41 1486.25 1639.33 1481.67 Q1636.27 1477.06 1636.27 1468.33 Q1636.27 1459.58 1639.33 1455 Q1642.41 1450.39 1648.22 1450.39 Z" fill="#000000" fill-rule="nonzero" fill-opacity="1" /><path clip-path="url(#clip600)" d="M2341.6 1466.95 Q2344.96 1467.66 2346.83 1469.93 Q2348.73 1472.2 2348.73 1475.53 Q2348.73 1480.65 2345.21 1483.45 Q2341.69 1486.25 2335.21 1486.25 Q2333.03 1486.25 2330.72 1485.81 Q2328.43 1485.39 2325.97 1484.54 L2325.97 1480.02 Q2327.92 1481.16 2330.23 1481.74 Q2332.55 1482.32 2335.07 1482.32 Q2339.47 1482.32 2341.76 1480.58 Q2344.08 1478.84 2344.08 1475.53 Q2344.08 1472.48 2341.92 1470.77 Q2339.79 1469.03 2335.97 1469.03 L2331.95 1469.03 L2331.95 1465.19 L2336.16 1465.19 Q2339.61 1465.19 2341.44 1463.82 Q2343.27 1462.43 2343.27 1459.84 Q2343.27 1457.18 2341.37 1455.77 Q2339.49 1454.33 2335.97 1454.33 Q2334.05 1454.33 2331.85 1454.75 Q2329.65 1455.16 2327.02 1456.04 L2327.02 1451.88 Q2329.68 1451.14 2331.99 1450.77 Q2334.33 1450.39 2336.39 1450.39 Q2341.71 1450.39 2344.82 1452.83 Q2347.92 1455.23 2347.92 1459.35 Q2347.92 1462.22 2346.27 1464.21 Q2344.63 1466.18 2341.6 1466.95 Z" fill="#000000" fill-rule="nonzero" fill-opacity="1" /><path clip-path="url(#clip600)" d="M2367.59 1454.1 Q2363.98 1454.1 2362.15 1457.66 Q2360.35 1461.2 2360.35 1468.33 Q2360.35 1475.44 2362.15 1479.01 Q2363.98 1482.55 2367.59 1482.55 Q2371.23 1482.55 2373.03 1479.01 Q2374.86 1475.44 2374.86 1468.33 Q2374.86 1461.2 2373.03 1457.66 Q2371.23 1454.1 2367.59 1454.1 M2367.59 1450.39 Q2373.4 1450.39 2376.46 1455 Q2379.54 1459.58 2379.54 1468.33 Q2379.54 1477.06 2376.46 1481.67 Q2373.4 1486.25 2367.59 1486.25 Q2361.78 1486.25 2358.7 1481.67 Q2355.65 1477.06 2355.65 1468.33 Q2355.65 1459.58 2358.7 1455 Q2361.78 1450.39 2367.59 1450.39 Z" fill="#000000" fill-rule="nonzero" fill-opacity="1" /><path clip-path="url(#clip600)" d="M1272.65 1522.27 L1272.65 1532.4 L1284.71 1532.4 L1284.71 1536.95 L1272.65 1536.95 L1272.65 1556.3 Q1272.65 1560.66 1273.83 1561.9 Q1275.04 1563.14 1278.7 1563.14 L1284.71 1563.14 L1284.71 1568.04 L1278.7 1568.04 Q1271.92 1568.04 1269.34 1565.53 Q1266.76 1562.98 1266.76 1556.3 L1266.76 1536.95 L1262.46 1536.95 L1262.46 1532.4 L1266.76 1532.4 L1266.76 1522.27 L1272.65 1522.27 Z" fill="#000000" fill-rule="nonzero" fill-opacity="1" /><polyline clip-path="url(#clip602)" style="stroke:#000000; stroke-linecap:round; stroke-linejoin:round; stroke-width:2; stroke-opacity:0.1; fill:none" points="194.422,1206.58 2352.76,1206.58 "/>
<polyline clip-path="url(#clip602)" style="stroke:#000000; stroke-linecap:round; stroke-linejoin:round; stroke-width:2; stroke-opacity:0.1; fill:none" points="194.422,874.623 2352.76,874.623 "/>
<polyline clip-path="url(#clip602)" style="stroke:#000000; stroke-linecap:round; stroke-linejoin:round; stroke-width:2; stroke-opacity:0.1; fill:none" points="194.422,542.667 2352.76,542.667 "/>
<polyline clip-path="url(#clip602)" style="stroke:#000000; stroke-linecap:round; stroke-linejoin:round; stroke-width:2; stroke-opacity:0.1; fill:none" points="194.422,210.71 2352.76,210.71 "/>
<polyline clip-path="url(#clip600)" style="stroke:#000000; stroke-linecap:round; stroke-linejoin:round; stroke-width:4; stroke-opacity:1; fill:none" points="194.422,1423.18 194.422,47.2441 "/>
<polyline clip-path="url(#clip600)" style="stroke:#000000; stroke-linecap:round; stroke-linejoin:round; stroke-width:4; stroke-opacity:1; fill:none" points="194.422,1206.58 213.32,1206.58 "/>
<polyline clip-path="url(#clip600)" style="stroke:#000000; stroke-linecap:round; stroke-linejoin:round; stroke-width:4; stroke-opacity:1; fill:none" points="194.422,874.623 213.32,874.623 "/>
<polyline clip-path="url(#clip600)" style="stroke:#000000; stroke-linecap:round; stroke-linejoin:round; stroke-width:4; stroke-opacity:1; fill:none" points="194.422,542.667 213.32,542.667 "/>
<polyline clip-path="url(#clip600)" style="stroke:#000000; stroke-linecap:round; stroke-linejoin:round; stroke-width:4; stroke-opacity:1; fill:none" points="194.422,210.71 213.32,210.71 "/>
<path clip-path="url(#clip600)" d="M50.9921 1207.03 L80.6679 1207.03 L80.6679 1210.97 L50.9921 1210.97 L50.9921 1207.03 Z" fill="#000000" fill-rule="nonzero" fill-opacity="1" /><path clip-path="url(#clip600)" d="M100.76 1192.38 Q97.1493 1192.38 95.3206 1195.94 Q93.515 1199.48 93.515 1206.61 Q93.515 1213.72 95.3206 1217.29 Q97.1493 1220.83 100.76 1220.83 Q104.395 1220.83 106.2 1217.29 Q108.029 1213.72 108.029 1206.61 Q108.029 1199.48 106.2 1195.94 Q104.395 1192.38 100.76 1192.38 M100.76 1188.67 Q106.571 1188.67 109.626 1193.28 Q112.705 1197.86 112.705 1206.61 Q112.705 1215.34 109.626 1219.95 Q106.571 1224.53 100.76 1224.53 Q94.9502 1224.53 91.8715 1219.95 Q88.816 1215.34 88.816 1206.61 Q88.816 1197.86 91.8715 1193.28 Q94.9502 1188.67 100.76 1188.67 Z" fill="#000000" fill-rule="nonzero" fill-opacity="1" /><path clip-path="url(#clip600)" d="M120.922 1217.98 L125.807 1217.98 L125.807 1223.86 L120.922 1223.86 L120.922 1217.98 Z" fill="#000000" fill-rule="nonzero" fill-opacity="1" /><path clip-path="url(#clip600)" d="M148.839 1193.37 L137.033 1211.82 L148.839 1211.82 L148.839 1193.37 M147.612 1189.3 L153.492 1189.3 L153.492 1211.82 L158.422 1211.82 L158.422 1215.71 L153.492 1215.71 L153.492 1223.86 L148.839 1223.86 L148.839 1215.71 L133.237 1215.71 L133.237 1211.2 L147.612 1189.3 Z" fill="#000000" fill-rule="nonzero" fill-opacity="1" /><path clip-path="url(#clip600)" d="M53.0754 875.074 L82.7512 875.074 L82.7512 879.009 L53.0754 879.009 L53.0754 875.074 Z" fill="#000000" fill-rule="nonzero" fill-opacity="1" /><path clip-path="url(#clip600)" d="M102.844 860.422 Q99.2326 860.422 97.4039 863.986 Q95.5984 867.528 95.5984 874.658 Q95.5984 881.764 97.4039 885.329 Q99.2326 888.871 102.844 888.871 Q106.478 888.871 108.283 885.329 Q110.112 881.764 110.112 874.658 Q110.112 867.528 108.283 863.986 Q106.478 860.422 102.844 860.422 M102.844 856.718 Q108.654 856.718 111.709 861.324 Q114.788 865.908 114.788 874.658 Q114.788 883.384 111.709 887.991 Q108.654 892.574 102.844 892.574 Q97.0335 892.574 93.9549 887.991 Q90.8993 883.384 90.8993 874.658 Q90.8993 865.908 93.9549 861.324 Q97.0335 856.718 102.844 856.718 Z" fill="#000000" fill-rule="nonzero" fill-opacity="1" /><path clip-path="url(#clip600)" d="M123.006 886.023 L127.89 886.023 L127.89 891.903 L123.006 891.903 L123.006 886.023 Z" fill="#000000" fill-rule="nonzero" fill-opacity="1" /><path clip-path="url(#clip600)" d="M142.103 887.968 L158.422 887.968 L158.422 891.903 L136.478 891.903 L136.478 887.968 Q139.14 885.213 143.723 880.584 Q148.33 875.931 149.51 874.588 Q151.755 872.065 152.635 870.329 Q153.538 868.57 153.538 866.88 Q153.538 864.125 151.593 862.389 Q149.672 860.653 146.57 860.653 Q144.371 860.653 141.918 861.417 Q139.487 862.181 136.709 863.732 L136.709 859.01 Q139.533 857.875 141.987 857.297 Q144.441 856.718 146.478 856.718 Q151.848 856.718 155.042 859.403 Q158.237 862.088 158.237 866.579 Q158.237 868.709 157.427 870.63 Q156.64 872.528 154.533 875.121 Q153.955 875.792 150.853 879.009 Q147.751 882.204 142.103 887.968 Z" fill="#000000" fill-rule="nonzero" fill-opacity="1" /><path clip-path="url(#clip600)" d="M101.246 528.465 Q97.6354 528.465 95.8067 532.03 Q94.0012 535.572 94.0012 542.701 Q94.0012 549.808 95.8067 553.373 Q97.6354 556.914 101.246 556.914 Q104.881 556.914 106.686 553.373 Q108.515 549.808 108.515 542.701 Q108.515 535.572 106.686 532.03 Q104.881 528.465 101.246 528.465 M101.246 524.762 Q107.057 524.762 110.112 529.368 Q113.191 533.951 113.191 542.701 Q113.191 551.428 110.112 556.035 Q107.057 560.618 101.246 560.618 Q95.4363 560.618 92.3576 556.035 Q89.3021 551.428 89.3021 542.701 Q89.3021 533.951 92.3576 529.368 Q95.4363 524.762 101.246 524.762 Z" fill="#000000" fill-rule="nonzero" fill-opacity="1" /><path clip-path="url(#clip600)" d="M121.408 554.067 L126.293 554.067 L126.293 559.947 L121.408 559.947 L121.408 554.067 Z" fill="#000000" fill-rule="nonzero" fill-opacity="1" /><path clip-path="url(#clip600)" d="M146.478 528.465 Q142.867 528.465 141.038 532.03 Q139.232 535.572 139.232 542.701 Q139.232 549.808 141.038 553.373 Q142.867 556.914 146.478 556.914 Q150.112 556.914 151.918 553.373 Q153.746 549.808 153.746 542.701 Q153.746 535.572 151.918 532.03 Q150.112 528.465 146.478 528.465 M146.478 524.762 Q152.288 524.762 155.343 529.368 Q158.422 533.951 158.422 542.701 Q158.422 551.428 155.343 556.035 Q152.288 560.618 146.478 560.618 Q140.668 560.618 137.589 556.035 Q134.533 551.428 134.533 542.701 Q134.533 533.951 137.589 529.368 Q140.668 524.762 146.478 524.762 Z" fill="#000000" fill-rule="nonzero" fill-opacity="1" /><path clip-path="url(#clip600)" d="M102.844 196.509 Q99.2326 196.509 97.4039 200.074 Q95.5984 203.615 95.5984 210.745 Q95.5984 217.851 97.4039 221.416 Q99.2326 224.958 102.844 224.958 Q106.478 224.958 108.283 221.416 Q110.112 217.851 110.112 210.745 Q110.112 203.615 108.283 200.074 Q106.478 196.509 102.844 196.509 M102.844 192.805 Q108.654 192.805 111.709 197.412 Q114.788 201.995 114.788 210.745 Q114.788 219.472 111.709 224.078 Q108.654 228.662 102.844 228.662 Q97.0335 228.662 93.9549 224.078 Q90.8993 219.472 90.8993 210.745 Q90.8993 201.995 93.9549 197.412 Q97.0335 192.805 102.844 192.805 Z" fill="#000000" fill-rule="nonzero" fill-opacity="1" /><path clip-path="url(#clip600)" d="M123.006 222.111 L127.89 222.111 L127.89 227.99 L123.006 227.99 L123.006 222.111 Z" fill="#000000" fill-rule="nonzero" fill-opacity="1" /><path clip-path="url(#clip600)" d="M142.103 224.055 L158.422 224.055 L158.422 227.99 L136.478 227.99 L136.478 224.055 Q139.14 221.3 143.723 216.671 Q148.33 212.018 149.51 210.676 Q151.755 208.152 152.635 206.416 Q153.538 204.657 153.538 202.967 Q153.538 200.213 151.593 198.477 Q149.672 196.74 146.57 196.74 Q144.371 196.74 141.918 197.504 Q139.487 198.268 136.709 199.819 L136.709 195.097 Q139.533 193.963 141.987 193.384 Q144.441 192.805 146.478 192.805 Q151.848 192.805 155.042 195.49 Q158.237 198.176 158.237 202.666 Q158.237 204.796 157.427 206.717 Q156.64 208.615 154.533 211.208 Q153.955 211.879 150.853 215.097 Q147.751 218.291 142.103 224.055 Z" fill="#000000" fill-rule="nonzero" fill-opacity="1" /><polyline clip-path="url(#clip602)" style="stroke:#009af9; stroke-linecap:round; stroke-linejoin:round; stroke-width:4; stroke-opacity:1; fill:none" points="194.422,542.667 266.367,542.796 338.311,633.998 410.255,470.801 482.2,430.673 554.144,435.956 626.089,530.905 698.033,395.358 769.978,361.415 841.922,246.777 913.867,250.265 985.811,288.4 1057.76,372.599 1129.7,173.082 1201.64,129.687 1273.59,116.087 1345.53,126.432 1417.48,86.1857 1489.42,331.809 1561.37,507.102 1633.31,638.075 1705.26,765.237 1777.2,944.212 1849.14,985.169 1921.09,1231.64 1993.03,1384.24 2064.98,1306.69 2136.92,1165.79 2208.87,1195.41 2280.81,1109.63 2352.76,1072.1 "/>
<polyline clip-path="url(#clip602)" style="stroke:#e26f46; stroke-linecap:round; stroke-linejoin:round; stroke-width:4; stroke-opacity:1; fill:none" points="194.422,542.667 266.367,557.423 338.311,517.241 410.255,535.612 482.2,542.594 554.144,557.153 626.089,520.835 698.033,536.002 769.978,522.836 841.922,540.825 913.867,546.434 985.811,554.196 1057.76,509.465 1129.7,532.717 1201.64,537.142 1273.59,540.877 1345.53,532.85 1417.48,578.868 1489.42,569.399 1561.37,563.613 1633.31,564.078 1705.26,573.645 1777.2,552.543 1849.14,586.683 1921.09,573.229 1993.03,536.888 2064.98,526.07 2136.92,552.511 2208.87,534.049 2280.81,541.154 2352.76,503.863 "/>
<path clip-path="url(#clip600)" d="M2041.78 248.629 L2280.81 248.629 L2280.81 93.1086 L2041.78 93.1086  Z" fill="#ffffff" fill-rule="evenodd" fill-opacity="1"/>
<polyline clip-path="url(#clip600)" style="stroke:#000000; stroke-linecap:round; stroke-linejoin:round; stroke-width:4; stroke-opacity:1; fill:none" points="2041.78,248.629 2280.81,248.629 2280.81,93.1086 2041.78,93.1086 2041.78,248.629 "/>
<polyline clip-path="url(#clip600)" style="stroke:#009af9; stroke-linecap:round; stroke-linejoin:round; stroke-width:4; stroke-opacity:1; fill:none" points="2065.77,144.949 2209.65,144.949 "/>
<path clip-path="url(#clip600)" d="M2247.04 149.196 Q2241.88 149.196 2239.89 150.377 Q2237.89 151.557 2237.89 154.405 Q2237.89 156.673 2239.38 158.016 Q2240.88 159.335 2243.45 159.335 Q2246.99 159.335 2249.12 156.835 Q2251.27 154.312 2251.27 150.145 L2251.27 149.196 L2247.04 149.196 M2255.53 147.437 L2255.53 162.229 L2251.27 162.229 L2251.27 158.293 Q2249.82 160.655 2247.64 161.789 Q2245.46 162.9 2242.32 162.9 Q2238.33 162.9 2235.97 160.678 Q2233.64 158.432 2233.64 154.682 Q2233.64 150.307 2236.55 148.085 Q2239.49 145.863 2245.3 145.863 L2251.27 145.863 L2251.27 145.446 Q2251.27 142.507 2249.33 140.909 Q2247.41 139.289 2243.91 139.289 Q2241.69 139.289 2239.58 139.821 Q2237.48 140.354 2235.53 141.419 L2235.53 137.483 Q2237.87 136.581 2240.07 136.141 Q2242.27 135.678 2244.35 135.678 Q2249.98 135.678 2252.76 138.594 Q2255.53 141.511 2255.53 147.437 Z" fill="#000000" fill-rule="nonzero" fill-opacity="1" /><polyline clip-path="url(#clip600)" style="stroke:#e26f46; stroke-linecap:round; stroke-linejoin:round; stroke-width:4; stroke-opacity:1; fill:none" points="2065.77,196.789 2209.65,196.789 "/>
<path clip-path="url(#clip600)" d="M2252.41 201.129 Q2252.41 196.43 2250.46 193.768 Q2248.54 191.083 2245.16 191.083 Q2241.78 191.083 2239.84 193.768 Q2237.92 196.43 2237.92 201.129 Q2237.92 205.828 2239.84 208.513 Q2241.78 211.175 2245.16 211.175 Q2248.54 211.175 2250.46 208.513 Q2252.41 205.828 2252.41 201.129 M2237.92 192.078 Q2239.26 189.763 2241.3 188.652 Q2243.36 187.518 2246.21 187.518 Q2250.93 187.518 2253.87 191.268 Q2256.83 195.018 2256.83 201.129 Q2256.83 207.24 2253.87 210.99 Q2250.93 214.74 2246.21 214.74 Q2243.36 214.74 2241.3 213.629 Q2239.26 212.495 2237.92 210.18 L2237.92 214.069 L2233.64 214.069 L2233.64 178.05 L2237.92 178.05 L2237.92 192.078 Z" fill="#000000" fill-rule="nonzero" fill-opacity="1" /></svg>
