<?xml version="1.0" encoding="utf-8"?>
<svg xmlns="http://www.w3.org/2000/svg" xmlns:xlink="http://www.w3.org/1999/xlink" width="600" height="400" viewBox="0 0 2400 1600">
<defs>
  <clipPath id="clip240">
    <rect x="0" y="0" width="2400" height="1600"/>
  </clipPath>
</defs>
<path clip-path="url(#clip240)" d="M0 1600 L2400 1600 L2400 0 L0 0  Z" fill="#ffffff" fill-rule="evenodd" fill-opacity="1"/>
<defs>
  <clipPath id="clip241">
    <rect x="480" y="0" width="1681" height="1600"/>
  </clipPath>
</defs>
<path clip-path="url(#clip240)" d="M86.9921 1505.26 L2352.76 1505.26 L2352.76 47.2441 L86.9921 47.2441  Z" fill="#ffffff" fill-rule="evenodd" fill-opacity="1"/>
<defs>
  <clipPath id="clip242">
    <rect x="86" y="47" width="2267" height="1459"/>
  </clipPath>
</defs>
<polyline clip-path="url(#clip242)" style="stroke:#000000; stroke-linecap:round; stroke-linejoin:round; stroke-width:2; stroke-opacity:0.1; fill:none" points="86.9921,1505.26 86.9921,47.2441 "/>
<polyline clip-path="url(#clip242)" style="stroke:#000000; stroke-linecap:round; stroke-linejoin:round; stroke-width:2; stroke-opacity:0.1; fill:none" points="842.247,1505.26 842.247,47.2441 "/>
<polyline clip-path="url(#clip242)" style="stroke:#000000; stroke-linecap:round; stroke-linejoin:round; stroke-width:2; stroke-opacity:0.1; fill:none" points="1597.5,1505.26 1597.5,47.2441 "/>
<polyline clip-path="url(#clip242)" style="stroke:#000000; stroke-linecap:round; stroke-linejoin:round; stroke-width:2; stroke-opacity:0.1; fill:none" points="2352.76,1505.26 2352.76,47.2441 "/>
<polyline clip-path="url(#clip240)" style="stroke:#000000; stroke-linecap:round; stroke-linejoin:round; stroke-width:4; stroke-opacity:1; fill:none" points="86.9921,1505.26 2352.76,1505.26 "/>
<polyline clip-path="url(#clip240)" style="stroke:#000000; stroke-linecap:round; stroke-linejoin:round; stroke-width:4; stroke-opacity:1; fill:none" points="86.9921,1505.26 86.9921,1486.36 "/>
<polyline clip-path="url(#clip240)" style="stroke:#000000; stroke-linecap:round; stroke-linejoin:round; stroke-width:4; stroke-opacity:1; fill:none" points="842.247,1505.26 842.247,1486.36 "/>
<polyline clip-path="url(#clip240)" style="stroke:#000000; stroke-linecap:round; stroke-linejoin:round; stroke-width:4; stroke-opacity:1; fill:none" points="1597.5,1505.26 1597.5,1486.36 "/>
<polyline clip-path="url(#clip240)" style="stroke:#000000; stroke-linecap:round; stroke-linejoin:round; stroke-width:4; stroke-opacity:1; fill:none" points="2352.76,1505.26 2352.76,1486.36 "/>
<path clip-path="url(#clip240)" d="M86.9921 1536.18 Q83.381 1536.18 81.5523 1539.74 Q79.7468 1543.28 79.7468 1550.41 Q79.7468 1557.52 81.5523 1561.09 Q83.381 1564.63 86.9921 1564.63 Q90.6264 1564.63 92.4319 1561.09 Q94.2606 1557.52 94.2606 1550.41 Q94.2606 1543.28 92.4319 1539.74 Q90.6264 1536.18 86.9921 1536.18 M86.9921 1532.47 Q92.8023 1532.47 95.8578 1537.08 Q98.9365 1541.66 98.9365 1550.41 Q98.9365 1559.14 95.8578 1563.75 Q92.8023 1568.33 86.9921 1568.33 Q81.182 1568.33 78.1033 1563.75 Q75.0477 1559.14 75.0477 1550.41 Q75.0477 1541.66 78.1033 1537.08 Q81.182 1532.47 86.9921 1532.47 Z" fill="#000000" fill-rule="nonzero" fill-opacity="1" /><path clip-path="url(#clip240)" d="M816.934 1563.72 L824.573 1563.72 L824.573 1537.36 L816.263 1539.03 L816.263 1534.77 L824.527 1533.1 L829.203 1533.1 L829.203 1563.72 L836.842 1563.72 L836.842 1567.66 L816.934 1567.66 L816.934 1563.72 Z" fill="#000000" fill-rule="nonzero" fill-opacity="1" /><path clip-path="url(#clip240)" d="M856.286 1536.18 Q852.675 1536.18 850.846 1539.74 Q849.041 1543.28 849.041 1550.41 Q849.041 1557.52 850.846 1561.09 Q852.675 1564.63 856.286 1564.63 Q859.92 1564.63 861.726 1561.09 Q863.554 1557.52 863.554 1550.41 Q863.554 1543.28 861.726 1539.74 Q859.92 1536.18 856.286 1536.18 M856.286 1532.47 Q862.096 1532.47 865.152 1537.08 Q868.23 1541.66 868.23 1550.41 Q868.23 1559.14 865.152 1563.75 Q862.096 1568.33 856.286 1568.33 Q850.476 1568.33 847.397 1563.75 Q844.342 1559.14 844.342 1550.41 Q844.342 1541.66 847.397 1537.08 Q850.476 1532.47 856.286 1532.47 Z" fill="#000000" fill-rule="nonzero" fill-opacity="1" /><path clip-path="url(#clip240)" d="M1576.27 1563.72 L1592.59 1563.72 L1592.59 1567.66 L1570.65 1567.66 L1570.65 1563.72 Q1573.31 1560.97 1577.89 1556.34 Q1582.5 1551.69 1583.68 1550.35 Q1585.93 1547.82 1586.81 1546.09 Q1587.71 1544.33 1587.71 1542.64 Q1587.71 1539.88 1585.77 1538.15 Q1583.84 1536.41 1580.74 1536.41 Q1578.54 1536.41 1576.09 1537.17 Q1573.66 1537.94 1570.88 1539.49 L1570.88 1534.77 Q1573.71 1533.63 1576.16 1533.05 Q1578.61 1532.47 1580.65 1532.47 Q1586.02 1532.47 1589.21 1535.16 Q1592.41 1537.85 1592.41 1542.34 Q1592.41 1544.47 1591.6 1546.39 Q1590.81 1548.28 1588.71 1550.88 Q1588.13 1551.55 1585.02 1554.77 Q1581.92 1557.96 1576.27 1563.72 Z" fill="#000000" fill-rule="nonzero" fill-opacity="1" /><path clip-path="url(#clip240)" d="M1612.41 1536.18 Q1608.8 1536.18 1606.97 1539.74 Q1605.16 1543.28 1605.16 1550.41 Q1605.16 1557.52 1606.97 1561.09 Q1608.8 1564.63 1612.41 1564.63 Q1616.04 1564.63 1617.85 1561.09 Q1619.68 1557.52 1619.68 1550.41 Q1619.68 1543.28 1617.85 1539.74 Q1616.04 1536.18 1612.41 1536.18 M1612.41 1532.47 Q1618.22 1532.47 1621.27 1537.08 Q1624.35 1541.66 1624.35 1550.41 Q1624.35 1559.14 1621.27 1563.75 Q1618.22 1568.33 1612.41 1568.33 Q1606.6 1568.33 1603.52 1563.75 Q1600.46 1559.14 1600.46 1550.41 Q1600.46 1541.66 1603.52 1537.08 Q1606.6 1532.47 1612.41 1532.47 Z" fill="#000000" fill-rule="nonzero" fill-opacity="1" /><path clip-path="url(#clip240)" d="M2341.6 1549.03 Q2344.96 1549.74 2346.83 1552.01 Q2348.73 1554.28 2348.73 1557.61 Q2348.73 1562.73 2345.21 1565.53 Q2341.69 1568.33 2335.21 1568.33 Q2333.03 1568.33 2330.72 1567.89 Q2328.43 1567.47 2325.97 1566.62 L2325.97 1562.1 Q2327.92 1563.24 2330.23 1563.82 Q2332.55 1564.4 2335.07 1564.4 Q2339.47 1564.4 2341.76 1562.66 Q2344.08 1560.92 2344.08 1557.61 Q2344.08 1554.56 2341.92 1552.85 Q2339.79 1551.11 2335.97 1551.11 L2331.95 1551.11 L2331.95 1547.27 L2336.16 1547.27 Q2339.61 1547.27 2341.44 1545.9 Q2343.27 1544.51 2343.27 1541.92 Q2343.27 1539.26 2341.37 1537.85 Q2339.49 1536.41 2335.97 1536.41 Q2334.05 1536.41 2331.85 1536.83 Q2329.65 1537.24 2327.02 1538.12 L2327.02 1533.96 Q2329.68 1533.22 2331.99 1532.85 Q2334.33 1532.47 2336.39 1532.47 Q2341.71 1532.47 2344.82 1534.91 Q2347.92 1537.31 2347.92 1541.43 Q2347.92 1544.3 2346.27 1546.29 Q2344.63 1548.26 2341.6 1549.03 Z" fill="#000000" fill-rule="nonzero" fill-opacity="1" /><path clip-path="url(#clip240)" d="M2367.59 1536.18 Q2363.98 1536.18 2362.15 1539.74 Q2360.35 1543.28 2360.35 1550.41 Q2360.35 1557.52 2362.15 1561.09 Q2363.98 1564.63 2367.59 1564.63 Q2371.23 1564.63 2373.03 1561.09 Q2374.86 1557.52 2374.86 1550.41 Q2374.86 1543.28 2373.03 1539.74 Q2371.23 1536.18 2367.59 1536.18 M2367.59 1532.47 Q2373.4 1532.47 2376.46 1537.08 Q2379.54 1541.66 2379.54 1550.41 Q2379.54 1559.14 2376.46 1563.75 Q2373.4 1568.33 2367.59 1568.33 Q2361.78 1568.33 2358.7 1563.75 Q2355.65 1559.14 2355.65 1550.41 Q2355.65 1541.66 2358.7 1537.08 Q2361.78 1532.47 2367.59 1532.47 Z" fill="#000000" fill-rule="nonzero" fill-opacity="1" /><path clip-path="url(#clip240)" d="M1218.94 1604.35 L1218.94 1614.48 L1231 1614.48 L1231 1619.03 L1218.94 1619.03 L1218.94 1638.38 Q1218.94 1642.74 1220.11 1643.98 Q1221.32 1645.22 1224.98 1645.22 L1231 1645.22 L1231 1650.12 L1224.98 1650.12 Q1218.2 1650.12 1215.62 1647.61 Q1213.05 1645.06 1213.05 1638.38 L1213.05 1619.03 L1208.75 1619.03 L1208.75 1614.48 L1213.05 1614.48 L1213.05 1604.35 L1218.94 1604.35 Z" fill="#000000" fill-rule="nonzero" fill-opacity="1" /><polyline clip-path="url(#clip242)" style="stroke:#000000; stroke-linecap:round; stroke-linejoin:round; stroke-width:2; stroke-opacity:0.1; fill:none" points="86.9921,1360.87 2352.76,1360.87 "/>
<polyline clip-path="url(#clip242)" style="stroke:#000000; stroke-linecap:round; stroke-linejoin:round; stroke-width:2; stroke-opacity:0.1; fill:none" points="86.9921,1095.46 2352.76,1095.46 "/>
<polyline clip-path="url(#clip242)" style="stroke:#000000; stroke-linecap:round; stroke-linejoin:round; stroke-width:2; stroke-opacity:0.1; fill:none" points="86.9921,830.055 2352.76,830.055 "/>
<polyline clip-path="url(#clip242)" style="stroke:#000000; stroke-linecap:round; stroke-linejoin:round; stroke-width:2; stroke-opacity:0.1; fill:none" points="86.9921,564.647 2352.76,564.647 "/>
<polyline clip-path="url(#clip242)" style="stroke:#000000; stroke-linecap:round; stroke-linejoin:round; stroke-width:2; stroke-opacity:0.1; fill:none" points="86.9921,299.239 2352.76,299.239 "/>
<polyline clip-path="url(#clip240)" style="stroke:#000000; stroke-linecap:round; stroke-linejoin:round; stroke-width:4; stroke-opacity:1; fill:none" points="86.9921,1505.26 86.9921,47.2441 "/>
<polyline clip-path="url(#clip240)" style="stroke:#000000; stroke-linecap:round; stroke-linejoin:round; stroke-width:4; stroke-opacity:1; fill:none" points="86.9921,1360.87 105.89,1360.87 "/>
<polyline clip-path="url(#clip240)" style="stroke:#000000; stroke-linecap:round; stroke-linejoin:round; stroke-width:4; stroke-opacity:1; fill:none" points="86.9921,1095.46 105.89,1095.46 "/>
<polyline clip-path="url(#clip240)" style="stroke:#000000; stroke-linecap:round; stroke-linejoin:round; stroke-width:4; stroke-opacity:1; fill:none" points="86.9921,830.055 105.89,830.055 "/>
<polyline clip-path="url(#clip240)" style="stroke:#000000; stroke-linecap:round; stroke-linejoin:round; stroke-width:4; stroke-opacity:1; fill:none" points="86.9921,564.647 105.89,564.647 "/>
<polyline clip-path="url(#clip240)" style="stroke:#000000; stroke-linecap:round; stroke-linejoin:round; stroke-width:4; stroke-opacity:1; fill:none" points="86.9921,299.239 105.89,299.239 "/>
<path clip-path="url(#clip240)" d="M-54.3545 1361.32 L-24.6788 1361.32 L-24.6788 1365.26 L-54.3545 1365.26 L-54.3545 1361.32 Z" fill="#000000" fill-rule="nonzero" fill-opacity="1" /><path clip-path="url(#clip240)" d="M-4.58628 1346.67 Q-8.19737 1346.67 -10.0261 1350.24 Q-11.8316 1353.78 -11.8316 1360.91 Q-11.8316 1368.01 -10.0261 1371.58 Q-8.19737 1375.12 -4.58628 1375.12 Q-0.95204 1375.12 0.853506 1371.58 Q2.6822 1368.01 2.6822 1360.91 Q2.6822 1353.78 0.853506 1350.24 Q-0.95204 1346.67 -4.58628 1346.67 M-4.58628 1342.97 Q1.22387 1342.97 4.27941 1347.57 Q7.3581 1352.16 7.3581 1360.91 Q7.3581 1369.63 4.27941 1374.24 Q1.22387 1378.82 -4.58628 1378.82 Q-10.3964 1378.82 -13.4751 1374.24 Q-16.5307 1369.63 -16.5307 1360.91 Q-16.5307 1352.16 -13.4751 1347.57 Q-10.3964 1342.97 -4.58628 1342.97 Z" fill="#000000" fill-rule="nonzero" fill-opacity="1" /><path clip-path="url(#clip240)" d="M15.5756 1372.27 L20.4599 1372.27 L20.4599 1378.15 L15.5756 1378.15 L15.5756 1372.27 Z" fill="#000000" fill-rule="nonzero" fill-opacity="1" /><path clip-path="url(#clip240)" d="M34.6728 1374.22 L50.9921 1374.22 L50.9921 1378.15 L29.0478 1378.15 L29.0478 1374.22 Q31.7098 1371.46 36.2931 1366.83 Q40.8996 1362.18 42.0801 1360.84 Q44.3255 1358.31 45.2051 1356.58 Q46.1079 1354.82 46.1079 1353.13 Q46.1079 1350.37 44.1635 1348.64 Q42.2422 1346.9 39.1403 1346.9 Q36.9413 1346.9 34.4876 1347.67 Q32.057 1348.43 29.2793 1349.98 L29.2793 1345.26 Q32.1033 1344.12 34.557 1343.55 Q37.0107 1342.97 39.0477 1342.97 Q44.4181 1342.97 47.6125 1345.65 Q50.8069 1348.34 50.8069 1352.83 Q50.8069 1354.96 49.9968 1356.88 Q49.2097 1358.78 47.1033 1361.37 Q46.5246 1362.04 43.4227 1365.26 Q40.3209 1368.45 34.6728 1374.22 Z" fill="#000000" fill-rule="nonzero" fill-opacity="1" /><path clip-path="url(#clip240)" d="M-54.7249 1095.92 L-25.0491 1095.92 L-25.0491 1099.85 L-54.7249 1099.85 L-54.7249 1095.92 Z" fill="#000000" fill-rule="nonzero" fill-opacity="1" /><path clip-path="url(#clip240)" d="M-4.95665 1081.26 Q-8.56774 1081.26 -10.3964 1084.83 Q-12.202 1088.37 -12.202 1095.5 Q-12.202 1102.6 -10.3964 1106.17 Q-8.56774 1109.71 -4.95665 1109.71 Q-1.32241 1109.71 0.483137 1106.17 Q2.31183 1102.6 2.31183 1095.5 Q2.31183 1088.37 0.483137 1084.83 Q-1.32241 1081.26 -4.95665 1081.26 M-4.95665 1077.56 Q0.853506 1077.56 3.90904 1082.17 Q6.98773 1086.75 6.98773 1095.5 Q6.98773 1104.23 3.90904 1108.83 Q0.853506 1113.41 -4.95665 1113.41 Q-10.7668 1113.41 -13.8455 1108.83 Q-16.901 1104.23 -16.901 1095.5 Q-16.901 1086.75 -13.8455 1082.17 Q-10.7668 1077.56 -4.95665 1077.56 Z" fill="#000000" fill-rule="nonzero" fill-opacity="1" /><path clip-path="url(#clip240)" d="M15.2053 1106.86 L20.0895 1106.86 L20.0895 1112.74 L15.2053 1112.74 L15.2053 1106.86 Z" fill="#000000" fill-rule="nonzero" fill-opacity="1" /><path clip-path="url(#clip240)" d="M31.0848 1108.81 L38.7237 1108.81 L38.7237 1082.44 L30.4135 1084.11 L30.4135 1079.85 L38.6774 1078.18 L43.3533 1078.18 L43.3533 1108.81 L50.9921 1108.81 L50.9921 1112.74 L31.0848 1112.74 L31.0848 1108.81 Z" fill="#000000" fill-rule="nonzero" fill-opacity="1" /><path clip-path="url(#clip240)" d="M-6.18349 815.854 Q-9.79459 815.854 -11.6233 819.419 Q-13.4288 822.961 -13.4288 830.09 Q-13.4288 837.197 -11.6233 840.761 Q-9.79459 844.303 -6.18349 844.303 Q-2.54925 844.303 -0.743708 840.761 Q1.08499 837.197 1.08499 830.09 Q1.08499 822.961 -0.743708 819.419 Q-2.54925 815.854 -6.18349 815.854 M-6.18349 812.15 Q-0.37334 812.15 2.6822 816.757 Q5.76089 821.34 5.76089 830.09 Q5.76089 838.817 2.6822 843.423 Q-0.37334 848.007 -6.18349 848.007 Q-11.9936 848.007 -15.0723 843.423 Q-18.1279 838.817 -18.1279 830.09 Q-18.1279 821.34 -15.0723 816.757 Q-11.9936 812.15 -6.18349 812.15 Z" fill="#000000" fill-rule="nonzero" fill-opacity="1" /><path clip-path="url(#clip240)" d="M13.9784 841.456 L18.8627 841.456 L18.8627 847.335 L13.9784 847.335 L13.9784 841.456 Z" fill="#000000" fill-rule="nonzero" fill-opacity="1" /><path clip-path="url(#clip240)" d="M39.0477 815.854 Q35.4367 815.854 33.608 819.419 Q31.8024 822.961 31.8024 830.09 Q31.8024 837.197 33.608 840.761 Q35.4367 844.303 39.0477 844.303 Q42.682 844.303 44.4875 840.761 Q46.3162 837.197 46.3162 830.09 Q46.3162 822.961 44.4875 819.419 Q42.682 815.854 39.0477 815.854 M39.0477 812.15 Q44.8579 812.15 47.9134 816.757 Q50.9921 821.34 50.9921 830.09 Q50.9921 838.817 47.9134 843.423 Q44.8579 848.007 39.0477 848.007 Q33.2376 848.007 30.1589 843.423 Q27.1034 838.817 27.1034 830.09 Q27.1034 821.34 30.1589 816.757 Q33.2376 812.15 39.0477 812.15 Z" fill="#000000" fill-rule="nonzero" fill-opacity="1" /><path clip-path="url(#clip240)" d="M-4.95665 550.446 Q-8.56774 550.446 -10.3964 554.011 Q-12.202 557.552 -12.202 564.682 Q-12.202 571.788 -10.3964 575.353 Q-8.56774 578.895 -4.95665 578.895 Q-1.32241 578.895 0.483137 575.353 Q2.31183 571.788 2.31183 564.682 Q2.31183 557.552 0.483137 554.011 Q-1.32241 550.446 -4.95665 550.446 M-4.95665 546.742 Q0.853506 546.742 3.90904 551.349 Q6.98773 555.932 6.98773 564.682 Q6.98773 573.409 3.90904 578.015 Q0.853506 582.599 -4.95665 582.599 Q-10.7668 582.599 -13.8455 578.015 Q-16.901 573.409 -16.901 564.682 Q-16.901 555.932 -13.8455 551.349 Q-10.7668 546.742 -4.95665 546.742 Z" fill="#000000" fill-rule="nonzero" fill-opacity="1" /><path clip-path="url(#clip240)" d="M15.2053 576.048 L20.0895 576.048 L20.0895 581.927 L15.2053 581.927 L15.2053 576.048 Z" fill="#000000" fill-rule="nonzero" fill-opacity="1" /><path clip-path="url(#clip240)" d="M31.0848 577.992 L38.7237 577.992 L38.7237 551.627 L30.4135 553.293 L30.4135 549.034 L38.6774 547.367 L43.3533 547.367 L43.3533 577.992 L50.9921 577.992 L50.9921 581.927 L31.0848 581.927 L31.0848 577.992 Z" fill="#000000" fill-rule="nonzero" fill-opacity="1" /><path clip-path="url(#clip240)" d="M-4.58628 285.038 Q-8.19737 285.038 -10.0261 288.603 Q-11.8316 292.144 -11.8316 299.274 Q-11.8316 306.38 -10.0261 309.945 Q-8.19737 313.487 -4.58628 313.487 Q-0.95204 313.487 0.853506 309.945 Q2.6822 306.38 2.6822 299.274 Q2.6822 292.144 0.853506 288.603 Q-0.95204 285.038 -4.58628 285.038 M-4.58628 281.334 Q1.22387 281.334 4.27941 285.941 Q7.3581 290.524 7.3581 299.274 Q7.3581 308.001 4.27941 312.607 Q1.22387 317.19 -4.58628 317.19 Q-10.3964 317.19 -13.4751 312.607 Q-16.5307 308.001 -16.5307 299.274 Q-16.5307 290.524 -13.4751 285.941 Q-10.3964 281.334 -4.58628 281.334 Z" fill="#000000" fill-rule="nonzero" fill-opacity="1" /><path clip-path="url(#clip240)" d="M15.5756 310.64 L20.4599 310.64 L20.4599 316.519 L15.5756 316.519 L15.5756 310.64 Z" fill="#000000" fill-rule="nonzero" fill-opacity="1" /><path clip-path="url(#clip240)" d="M34.6728 312.584 L50.9921 312.584 L50.9921 316.519 L29.0478 316.519 L29.0478 312.584 Q31.7098 309.829 36.2931 305.2 Q40.8996 300.547 42.0801 299.204 Q44.3255 296.681 45.2051 294.945 Q46.1079 293.186 46.1079 291.496 Q46.1079 288.742 44.1635 287.005 Q42.2422 285.269 39.1403 285.269 Q36.9413 285.269 34.4876 286.033 Q32.057 286.797 29.2793 288.348 L29.2793 283.626 Q32.1033 282.492 34.557 281.913 Q37.0107 281.334 39.0477 281.334 Q44.4181 281.334 47.6125 284.019 Q50.8069 286.704 50.8069 291.195 Q50.8069 293.325 49.9968 295.246 Q49.2097 297.144 47.1033 299.737 Q46.5246 300.408 43.4227 303.626 Q40.3209 306.82 34.6728 312.584 Z" fill="#000000" fill-rule="nonzero" fill-opacity="1" /><polyline clip-path="url(#clip242)" style="stroke:#009af9; stroke-linecap:round; stroke-linejoin:round; stroke-width:4; stroke-opacity:1; fill:none" points="86.9921,830.055 162.518,830.263 238.043,552.988 313.569,630.325 389.094,691.206 464.619,850.453 540.145,864.134 615.67,953.317 691.196,1056.74 766.721,1464 842.247,1247 917.772,922.657 993.298,839.575 1068.82,472.764 1144.35,173.686 1219.87,88.5087 1295.4,158.358 1370.92,389.097 1446.45,535.926 1521.98,592.637 1597.5,510.933 1673.03,674.16 1748.55,689.734 1824.08,881.733 1899.6,696.832 1975.13,590.684 2050.65,398.315 2126.18,191.422 2201.7,161.538 2277.23,107.381 2352.76,116.506 "/>
<polyline clip-path="url(#clip242)" style="stroke:#e26f46; stroke-linecap:round; stroke-linejoin:round; stroke-width:4; stroke-opacity:1; fill:none" points="86.9921,830.055 162.518,785.676 238.043,840.269 313.569,838.236 389.094,854.688 464.619,832.394 540.145,844.724 615.67,847.766 691.196,898.49 766.721,800.22 842.247,781.434 917.772,817.394 993.298,771.582 1068.82,779.459 1144.35,811.104 1219.87,835.291 1295.4,861.923 1370.92,850.188 1446.45,836.797 1521.98,814.986 1597.5,853.852 1673.03,831.276 1748.55,860.012 1824.08,800.772 1899.6,811.899 1975.13,797.298 2050.65,793.486 2126.18,820.091 2201.7,815.966 2277.23,825.676 2352.76,843.941 "/>
<path clip-path="url(#clip240)" d="M162.518 251.365 L412.288 251.365 L412.288 95.8446 L162.518 95.8446  Z" fill="#ffffff" fill-rule="evenodd" fill-opacity="1"/>
<polyline clip-path="url(#clip240)" style="stroke:#000000; stroke-linecap:round; stroke-linejoin:round; stroke-width:4; stroke-opacity:1; fill:none" points="162.518,251.365 412.288,251.365 412.288,95.8446 162.518,95.8446 162.518,251.365 "/>
<polyline clip-path="url(#clip240)" style="stroke:#009af9; stroke-linecap:round; stroke-linejoin:round; stroke-width:4; stroke-opacity:1; fill:none" points="187.693,147.685 338.744,147.685 "/>
<path clip-path="url(#clip240)" d="M377.322 151.932 Q372.16 151.932 370.169 153.113 Q368.178 154.293 368.178 157.141 Q368.178 159.409 369.66 160.752 Q371.164 162.071 373.734 162.071 Q377.275 162.071 379.405 159.571 Q381.558 157.048 381.558 152.881 L381.558 151.932 L377.322 151.932 M385.817 150.173 L385.817 164.965 L381.558 164.965 L381.558 161.029 Q380.099 163.391 377.923 164.525 Q375.747 165.636 372.599 165.636 Q368.618 165.636 366.257 163.414 Q363.919 161.168 363.919 157.418 Q363.919 153.043 366.835 150.821 Q369.775 148.599 375.585 148.599 L381.558 148.599 L381.558 148.182 Q381.558 145.243 379.613 143.645 Q377.692 142.025 374.197 142.025 Q371.974 142.025 369.868 142.557 Q367.761 143.09 365.817 144.155 L365.817 140.219 Q368.155 139.317 370.354 138.877 Q372.553 138.414 374.636 138.414 Q380.261 138.414 383.039 141.33 Q385.817 144.247 385.817 150.173 Z" fill="#000000" fill-rule="nonzero" fill-opacity="1" /><polyline clip-path="url(#clip240)" style="stroke:#e26f46; stroke-linecap:round; stroke-linejoin:round; stroke-width:4; stroke-opacity:1; fill:none" points="187.693,199.525 338.744,199.525 "/>
<path clip-path="url(#clip240)" d="M382.692 203.865 Q382.692 199.166 380.747 196.504 Q378.826 193.819 375.447 193.819 Q372.067 193.819 370.122 196.504 Q368.201 199.166 368.201 203.865 Q368.201 208.564 370.122 211.249 Q372.067 213.911 375.447 213.911 Q378.826 213.911 380.747 211.249 Q382.692 208.564 382.692 203.865 M368.201 194.814 Q369.544 192.499 371.581 191.388 Q373.641 190.254 376.488 190.254 Q381.21 190.254 384.15 194.004 Q387.113 197.754 387.113 203.865 Q387.113 209.976 384.15 213.726 Q381.21 217.476 376.488 217.476 Q373.641 217.476 371.581 216.365 Q369.544 215.231 368.201 212.916 L368.201 216.805 L363.919 216.805 L363.919 180.786 L368.201 180.786 L368.201 194.814 Z" fill="#000000" fill-rule="nonzero" fill-opacity="1" /></svg>
