<?xml version="1.0" encoding="utf-8"?>
<svg xmlns="http://www.w3.org/2000/svg" xmlns:xlink="http://www.w3.org/1999/xlink" width="600" height="400" viewBox="0 0 2400 1600">
<defs>
  <clipPath id="clip300">
    <rect x="0" y="0" width="2400" height="1600"/>
  </clipPath>
</defs>
<path clip-path="url(#clip300)" d="M0 1600 L2400 1600 L2400 0 L0 0  Z" fill="#ffffff" fill-rule="evenodd" fill-opacity="1"/>
<defs>
  <clipPath id="clip301">
    <rect x="480" y="0" width="1681" height="1600"/>
  </clipPath>
</defs>
<path clip-path="url(#clip300)" d="M86.9921 1521.01 L2352.76 1521.01 L2352.76 47.2441 L86.9921 47.2441  Z" fill="#ffffff" fill-rule="evenodd" fill-opacity="1"/>
<defs>
  <clipPath id="clip302">
    <rect x="86" y="47" width="2267" height="1475"/>
  </clipPath>
</defs>
<polyline clip-path="url(#clip302)" style="stroke:#000000; stroke-linecap:round; stroke-linejoin:round; stroke-width:2; stroke-opacity:0.1; fill:none" points="151.118,1521.01 151.118,47.2441 "/>
<polyline clip-path="url(#clip302)" style="stroke:#000000; stroke-linecap:round; stroke-linejoin:round; stroke-width:2; stroke-opacity:0.1; fill:none" points="863.622,1521.01 863.622,47.2441 "/>
<polyline clip-path="url(#clip302)" style="stroke:#000000; stroke-linecap:round; stroke-linejoin:round; stroke-width:2; stroke-opacity:0.1; fill:none" points="1576.13,1521.01 1576.13,47.2441 "/>
<polyline clip-path="url(#clip302)" style="stroke:#000000; stroke-linecap:round; stroke-linejoin:round; stroke-width:2; stroke-opacity:0.1; fill:none" points="2288.63,1521.01 2288.63,47.2441 "/>
<polyline clip-path="url(#clip300)" style="stroke:#000000; stroke-linecap:round; stroke-linejoin:round; stroke-width:4; stroke-opacity:1; fill:none" points="86.9921,1521.01 2352.76,1521.01 "/>
<polyline clip-path="url(#clip300)" style="stroke:#000000; stroke-linecap:round; stroke-linejoin:round; stroke-width:4; stroke-opacity:1; fill:none" points="151.118,1521.01 151.118,1502.11 "/>
<polyline clip-path="url(#clip300)" style="stroke:#000000; stroke-linecap:round; stroke-linejoin:round; stroke-width:4; stroke-opacity:1; fill:none" points="863.622,1521.01 863.622,1502.11 "/>
<polyline clip-path="url(#clip300)" style="stroke:#000000; stroke-linecap:round; stroke-linejoin:round; stroke-width:4; stroke-opacity:1; fill:none" points="1576.13,1521.01 1576.13,1502.11 "/>
<polyline clip-path="url(#clip300)" style="stroke:#000000; stroke-linecap:round; stroke-linejoin:round; stroke-width:4; stroke-opacity:1; fill:none" points="2288.63,1521.01 2288.63,1502.11 "/>
<path clip-path="url(#clip300)" d="M151.118 1551.93 Q147.506 1551.93 145.678 1555.49 Q143.872 1559.03 143.872 1566.16 Q143.872 1573.27 145.678 1576.83 Q147.506 1580.38 151.118 1580.38 Q154.752 1580.38 156.557 1576.83 Q158.386 1573.27 158.386 1566.16 Q158.386 1559.03 156.557 1555.49 Q154.752 1551.93 151.118 1551.93 M151.118 1548.22 Q156.928 1548.22 159.983 1552.83 Q163.062 1557.41 163.062 1566.16 Q163.062 1574.89 159.983 1579.5 Q156.928 1584.08 151.118 1584.08 Q145.307 1584.08 142.229 1579.5 Q139.173 1574.89 139.173 1566.16 Q139.173 1557.41 142.229 1552.83 Q145.307 1548.22 151.118 1548.22 Z" fill="#000000" fill-rule="nonzero" fill-opacity="1" /><path clip-path="url(#clip300)" d="M838.309 1579.47 L845.948 1579.47 L845.948 1553.11 L837.638 1554.77 L837.638 1550.51 L845.902 1548.85 L850.578 1548.85 L850.578 1579.47 L858.217 1579.47 L858.217 1583.41 L838.309 1583.41 L838.309 1579.47 Z" fill="#000000" fill-rule="nonzero" fill-opacity="1" /><path clip-path="url(#clip300)" d="M877.661 1551.93 Q874.05 1551.93 872.221 1555.49 Q870.416 1559.03 870.416 1566.16 Q870.416 1573.27 872.221 1576.83 Q874.05 1580.38 877.661 1580.38 Q881.295 1580.38 883.101 1576.83 Q884.93 1573.27 884.93 1566.16 Q884.93 1559.03 883.101 1555.49 Q881.295 1551.93 877.661 1551.93 M877.661 1548.22 Q883.471 1548.22 886.527 1552.83 Q889.606 1557.41 889.606 1566.16 Q889.606 1574.89 886.527 1579.5 Q883.471 1584.08 877.661 1584.08 Q871.851 1584.08 868.772 1579.5 Q865.717 1574.89 865.717 1566.16 Q865.717 1557.41 868.772 1552.83 Q871.851 1548.22 877.661 1548.22 Z" fill="#000000" fill-rule="nonzero" fill-opacity="1" /><path clip-path="url(#clip300)" d="M1554.9 1579.47 L1571.22 1579.47 L1571.22 1583.41 L1549.27 1583.41 L1549.27 1579.47 Q1551.94 1576.72 1556.52 1572.09 Q1561.13 1567.44 1562.31 1566.09 Q1564.55 1563.57 1565.43 1561.83 Q1566.33 1560.07 1566.33 1558.38 Q1566.33 1555.63 1564.39 1553.89 Q1562.47 1552.16 1559.37 1552.16 Q1557.17 1552.16 1554.71 1552.92 Q1552.28 1553.69 1549.51 1555.24 L1549.51 1550.51 Q1552.33 1549.38 1554.78 1548.8 Q1557.24 1548.22 1559.27 1548.22 Q1564.64 1548.22 1567.84 1550.91 Q1571.03 1553.59 1571.03 1558.08 Q1571.03 1560.21 1570.22 1562.13 Q1569.44 1564.03 1567.33 1566.63 Q1566.75 1567.3 1563.65 1570.51 Q1560.55 1573.71 1554.9 1579.47 Z" fill="#000000" fill-rule="nonzero" fill-opacity="1" /><path clip-path="url(#clip300)" d="M1591.03 1551.93 Q1587.42 1551.93 1585.59 1555.49 Q1583.79 1559.03 1583.79 1566.16 Q1583.79 1573.27 1585.59 1576.83 Q1587.42 1580.38 1591.03 1580.38 Q1594.67 1580.38 1596.47 1576.83 Q1598.3 1573.27 1598.3 1566.16 Q1598.3 1559.03 1596.47 1555.49 Q1594.67 1551.93 1591.03 1551.93 M1591.03 1548.22 Q1596.84 1548.22 1599.9 1552.83 Q1602.98 1557.41 1602.98 1566.16 Q1602.98 1574.89 1599.9 1579.5 Q1596.84 1584.08 1591.03 1584.08 Q1585.22 1584.08 1582.14 1579.5 Q1579.09 1574.89 1579.09 1566.16 Q1579.09 1557.41 1582.14 1552.83 Q1585.22 1548.22 1591.03 1548.22 Z" fill="#000000" fill-rule="nonzero" fill-opacity="1" /><path clip-path="url(#clip300)" d="M2277.47 1564.77 Q2280.83 1565.49 2282.7 1567.76 Q2284.6 1570.03 2284.6 1573.36 Q2284.6 1578.48 2281.08 1581.28 Q2277.57 1584.08 2271.08 1584.08 Q2268.91 1584.08 2266.59 1583.64 Q2264.3 1583.22 2261.85 1582.37 L2261.85 1577.85 Q2263.79 1578.99 2266.11 1579.57 Q2268.42 1580.14 2270.95 1580.14 Q2275.34 1580.14 2277.64 1578.41 Q2279.95 1576.67 2279.95 1573.36 Q2279.95 1570.31 2277.8 1568.59 Q2275.67 1566.86 2271.85 1566.86 L2267.82 1566.86 L2267.82 1563.01 L2272.03 1563.01 Q2275.48 1563.01 2277.31 1561.65 Q2279.14 1560.26 2279.14 1557.67 Q2279.14 1555.01 2277.24 1553.59 Q2275.37 1552.16 2271.85 1552.16 Q2269.93 1552.16 2267.73 1552.57 Q2265.53 1552.99 2262.89 1553.87 L2262.89 1549.7 Q2265.55 1548.96 2267.87 1548.59 Q2270.2 1548.22 2272.26 1548.22 Q2277.59 1548.22 2280.69 1550.65 Q2283.79 1553.06 2283.79 1557.18 Q2283.79 1560.05 2282.15 1562.04 Q2280.51 1564.01 2277.47 1564.77 Z" fill="#000000" fill-rule="nonzero" fill-opacity="1" /><path clip-path="url(#clip300)" d="M2303.47 1551.93 Q2299.86 1551.93 2298.03 1555.49 Q2296.22 1559.03 2296.22 1566.16 Q2296.22 1573.27 2298.03 1576.83 Q2299.86 1580.38 2303.47 1580.38 Q2307.1 1580.38 2308.91 1576.83 Q2310.74 1573.27 2310.74 1566.16 Q2310.74 1559.03 2308.91 1555.49 Q2307.1 1551.93 2303.47 1551.93 M2303.47 1548.22 Q2309.28 1548.22 2312.33 1552.83 Q2315.41 1557.41 2315.41 1566.16 Q2315.41 1574.89 2312.33 1579.5 Q2309.28 1584.08 2303.47 1584.08 Q2297.66 1584.08 2294.58 1579.5 Q2291.52 1574.89 2291.52 1566.16 Q2291.52 1557.41 2294.58 1552.83 Q2297.66 1548.22 2303.47 1548.22 Z" fill="#000000" fill-rule="nonzero" fill-opacity="1" /><polyline clip-path="url(#clip302)" style="stroke:#000000; stroke-linecap:round; stroke-linejoin:round; stroke-width:2; stroke-opacity:0.1; fill:none" points="86.9921,1493.73 2352.76,1493.73 "/>
<polyline clip-path="url(#clip302)" style="stroke:#000000; stroke-linecap:round; stroke-linejoin:round; stroke-width:2; stroke-opacity:0.1; fill:none" points="86.9921,1199.19 2352.76,1199.19 "/>
<polyline clip-path="url(#clip302)" style="stroke:#000000; stroke-linecap:round; stroke-linejoin:round; stroke-width:2; stroke-opacity:0.1; fill:none" points="86.9921,904.655 2352.76,904.655 "/>
<polyline clip-path="url(#clip302)" style="stroke:#000000; stroke-linecap:round; stroke-linejoin:round; stroke-width:2; stroke-opacity:0.1; fill:none" points="86.9921,610.117 2352.76,610.117 "/>
<polyline clip-path="url(#clip302)" style="stroke:#000000; stroke-linecap:round; stroke-linejoin:round; stroke-width:2; stroke-opacity:0.1; fill:none" points="86.9921,315.58 2352.76,315.58 "/>
<polyline clip-path="url(#clip300)" style="stroke:#000000; stroke-linecap:round; stroke-linejoin:round; stroke-width:4; stroke-opacity:1; fill:none" points="86.9921,1521.01 86.9921,47.2441 "/>
<polyline clip-path="url(#clip300)" style="stroke:#000000; stroke-linecap:round; stroke-linejoin:round; stroke-width:4; stroke-opacity:1; fill:none" points="86.9921,1493.73 105.89,1493.73 "/>
<polyline clip-path="url(#clip300)" style="stroke:#000000; stroke-linecap:round; stroke-linejoin:round; stroke-width:4; stroke-opacity:1; fill:none" points="86.9921,1199.19 105.89,1199.19 "/>
<polyline clip-path="url(#clip300)" style="stroke:#000000; stroke-linecap:round; stroke-linejoin:round; stroke-width:4; stroke-opacity:1; fill:none" points="86.9921,904.655 105.89,904.655 "/>
<polyline clip-path="url(#clip300)" style="stroke:#000000; stroke-linecap:round; stroke-linejoin:round; stroke-width:4; stroke-opacity:1; fill:none" points="86.9921,610.117 105.89,610.117 "/>
<polyline clip-path="url(#clip300)" style="stroke:#000000; stroke-linecap:round; stroke-linejoin:round; stroke-width:4; stroke-opacity:1; fill:none" points="86.9921,315.58 105.89,315.58 "/>
<path clip-path="url(#clip300)" d="M-9.72514 1494.18 L19.9506 1494.18 L19.9506 1498.12 L-9.72514 1498.12 L-9.72514 1494.18 Z" fill="#000000" fill-rule="nonzero" fill-opacity="1" /><path clip-path="url(#clip300)" d="M30.0895 1476.45 L48.4458 1476.45 L48.4458 1480.39 L34.3718 1480.39 L34.3718 1488.86 Q35.3904 1488.51 36.4089 1488.35 Q37.4274 1488.16 38.4459 1488.16 Q44.2329 1488.16 47.6125 1491.33 Q50.9921 1494.51 50.9921 1499.92 Q50.9921 1505.5 47.5199 1508.6 Q44.0477 1511.68 37.7283 1511.68 Q35.5524 1511.68 33.2839 1511.31 Q31.0385 1510.94 28.6311 1510.2 L28.6311 1505.5 Q30.7145 1506.64 32.9367 1507.19 Q35.1589 1507.75 37.6357 1507.75 Q41.6403 1507.75 43.9783 1505.64 Q46.3162 1503.53 46.3162 1499.92 Q46.3162 1496.31 43.9783 1494.2 Q41.6403 1492.1 37.6357 1492.1 Q35.7607 1492.1 33.8857 1492.51 Q32.0339 1492.93 30.0895 1493.81 L30.0895 1476.45 Z" fill="#000000" fill-rule="nonzero" fill-opacity="1" /><path clip-path="url(#clip300)" d="M39.0477 1184.99 Q35.4367 1184.99 33.608 1188.56 Q31.8024 1192.1 31.8024 1199.23 Q31.8024 1206.33 33.608 1209.9 Q35.4367 1213.44 39.0477 1213.44 Q42.682 1213.44 44.4875 1209.9 Q46.3162 1206.33 46.3162 1199.23 Q46.3162 1192.1 44.4875 1188.56 Q42.682 1184.99 39.0477 1184.99 M39.0477 1181.29 Q44.8579 1181.29 47.9134 1185.89 Q50.9921 1190.48 50.9921 1199.23 Q50.9921 1207.95 47.9134 1212.56 Q44.8579 1217.14 39.0477 1217.14 Q33.2376 1217.14 30.1589 1212.56 Q27.1034 1207.95 27.1034 1199.23 Q27.1034 1190.48 30.1589 1185.89 Q33.2376 1181.29 39.0477 1181.29 Z" fill="#000000" fill-rule="nonzero" fill-opacity="1" /><path clip-path="url(#clip300)" d="M30.0895 887.375 L48.4458 887.375 L48.4458 891.31 L34.3718 891.31 L34.3718 899.782 Q35.3904 899.435 36.4089 899.273 Q37.4274 899.088 38.4459 899.088 Q44.2329 899.088 47.6125 902.259 Q50.9921 905.43 50.9921 910.847 Q50.9921 916.426 47.5199 919.528 Q44.0477 922.606 37.7283 922.606 Q35.5524 922.606 33.2839 922.236 Q31.0385 921.865 28.6311 921.125 L28.6311 916.426 Q30.7145 917.56 32.9367 918.115 Q35.1589 918.671 37.6357 918.671 Q41.6403 918.671 43.9783 916.565 Q46.3162 914.458 46.3162 910.847 Q46.3162 907.236 43.9783 905.129 Q41.6403 903.023 37.6357 903.023 Q35.7607 903.023 33.8857 903.44 Q32.0339 903.856 30.0895 904.736 L30.0895 887.375 Z" fill="#000000" fill-rule="nonzero" fill-opacity="1" /><path clip-path="url(#clip300)" d="M-0.303895 623.462 L7.33495 623.462 L7.33495 597.097 L-0.975188 598.763 L-0.975188 594.504 L7.28866 592.837 L11.9646 592.837 L11.9646 623.462 L19.6034 623.462 L19.6034 627.397 L-0.303895 627.397 L-0.303895 623.462 Z" fill="#000000" fill-rule="nonzero" fill-opacity="1" /><path clip-path="url(#clip300)" d="M39.0477 595.916 Q35.4367 595.916 33.608 599.481 Q31.8024 603.022 31.8024 610.152 Q31.8024 617.258 33.608 620.823 Q35.4367 624.365 39.0477 624.365 Q42.682 624.365 44.4875 620.823 Q46.3162 617.258 46.3162 610.152 Q46.3162 603.022 44.4875 599.481 Q42.682 595.916 39.0477 595.916 M39.0477 592.212 Q44.8579 592.212 47.9134 596.819 Q50.9921 601.402 50.9921 610.152 Q50.9921 618.879 47.9134 623.485 Q44.8579 628.069 39.0477 628.069 Q33.2376 628.069 30.1589 623.485 Q27.1034 618.879 27.1034 610.152 Q27.1034 601.402 30.1589 596.819 Q33.2376 592.212 39.0477 592.212 Z" fill="#000000" fill-rule="nonzero" fill-opacity="1" /><path clip-path="url(#clip300)" d="M0.69147 328.925 L8.33032 328.925 L8.33032 302.559 L0.0201769 304.226 L0.0201769 299.966 L8.28402 298.3 L12.9599 298.3 L12.9599 328.925 L20.5988 328.925 L20.5988 332.86 L0.69147 332.86 L0.69147 328.925 Z" fill="#000000" fill-rule="nonzero" fill-opacity="1" /><path clip-path="url(#clip300)" d="M30.0895 298.3 L48.4458 298.3 L48.4458 302.235 L34.3718 302.235 L34.3718 310.707 Q35.3904 310.36 36.4089 310.198 Q37.4274 310.013 38.4459 310.013 Q44.2329 310.013 47.6125 313.184 Q50.9921 316.355 50.9921 321.772 Q50.9921 327.35 47.5199 330.452 Q44.0477 333.531 37.7283 333.531 Q35.5524 333.531 33.2839 333.161 Q31.0385 332.79 28.6311 332.05 L28.6311 327.35 Q30.7145 328.485 32.9367 329.04 Q35.1589 329.596 37.6357 329.596 Q41.6403 329.596 43.9783 327.489 Q46.3162 325.383 46.3162 321.772 Q46.3162 318.161 43.9783 316.054 Q41.6403 313.948 37.6357 313.948 Q35.7607 313.948 33.8857 314.364 Q32.0339 314.781 30.0895 315.661 L30.0895 298.3 Z" fill="#000000" fill-rule="nonzero" fill-opacity="1" /><path clip-path="url(#clip302)" d="M151.118 1294.73 L222.368 1422.57 L293.618 1473.96 L364.869 1479.3 L436.119 1467.29 L507.37 1457.61 L578.62 1444.58 L649.871 1431.47 L721.121 1421.29 L792.371 1413.03 L863.622 1402.4 L934.872 1392.74 L1006.12 1377.93 L1077.37 1367.1 L1148.62 1359.55 L1219.87 1353.16 L1291.12 1345.63 L1362.37 1341.52 L1433.63 1339.25 L1504.88 1331.3 L1576.13 1326.75 L1647.38 1318.07 L1718.63 1311.46 L1789.88 1306.32 L1861.13 1299.86 L1932.38 1293.22 L2003.63 1288.45 L2074.88 1283.33 L2146.13 1279.97 L2217.38 1275.11 L2288.63 1273.93 L2288.63 924.425 L2217.38 912.671 L2146.13 900.363 L2074.88 882.581 L2003.63 861.6 L1932.38 843.184 L1861.13 825.348 L1789.88 807.259 L1718.63 790.829 L1647.38 770.733 L1576.13 747.467 L1504.88 728.222 L1433.63 704.472 L1362.37 675.913 L1291.12 650.99 L1219.87 619.267 L1148.62 588.008 L1077.37 558.081 L1006.12 528.877 L934.872 488.885 L863.622 445.742 L792.371 403.155 L721.121 357.522 L649.871 308.39 L578.62 262.913 L507.37 219.775 L436.119 168.773 L364.869 116.715 L293.618 88.9544 L222.368 173.895 L151.118 1123.75  Z" fill="#009af9" fill-rule="evenodd" fill-opacity="0.2"/>
<polyline clip-path="url(#clip302)" style="stroke:#009af9; stroke-linecap:round; stroke-linejoin:round; stroke-width:12; stroke-opacity:1; fill:none" points="151.118,1200.64 222.368,1203.5 293.618,1191.46 364.869,1191.13 436.119,1188.31 507.37,1190.77 578.62,1191.84 649.871,1189.34 721.121,1189.63 792.371,1189.26 863.622,1190.7 934.872,1192.71 1006.12,1197.28 1077.37,1197.6 1148.62,1197.03 1219.87,1195.75 1291.12,1196.65 1362.37,1192.45 1433.63,1191.89 1504.88,1188.52 1576.13,1187.53 1647.38,1184.64 1718.63,1187.11 1789.88,1188.35 1861.13,1189.66 1932.38,1190.19 2003.63,1191.41 2074.88,1191.91 2146.13,1190.26 2217.38,1191.29 2288.63,1194.14 "/>
<path clip-path="url(#clip302)" d="M151.118 1291.66 L222.368 1218.02 L293.618 1203.02 L364.869 1199.87 L436.119 1200.34 L507.37 1200.13 L578.62 1200.69 L649.871 1199.87 L721.121 1200.13 L792.371 1199.99 L863.622 1200.07 L934.872 1200.22 L1006.12 1200.2 L1077.37 1200.22 L1148.62 1199.91 L1219.87 1199.95 L1291.12 1200.01 L1362.37 1200.25 L1433.63 1200.3 L1504.88 1199.91 L1576.13 1199.98 L1647.38 1199.91 L1718.63 1199.79 L1789.88 1199.86 L1861.13 1200.13 L1932.38 1200.25 L2003.63 1199.8 L2074.88 1200.11 L2146.13 1199.98 L2217.38 1200.15 L2288.63 1200.06 L2288.63 1198.12 L2217.38 1198.35 L2146.13 1198.49 L2074.88 1198.17 L2003.63 1198.39 L1932.38 1198.12 L1861.13 1198.34 L1789.88 1198.36 L1718.63 1198.2 L1647.38 1198.29 L1576.13 1198.2 L1504.88 1198.2 L1433.63 1198.13 L1362.37 1198.34 L1291.12 1198.24 L1219.87 1198.21 L1148.62 1198.21 L1077.37 1198.2 L1006.12 1197.86 L934.872 1198.28 L863.622 1198.21 L792.371 1198.39 L721.121 1198.31 L649.871 1198.7 L578.62 1198.13 L507.37 1198.13 L436.119 1198.22 L364.869 1197.87 L293.618 1195.5 L222.368 1181.63 L151.118 1109.6  Z" fill="#e26f46" fill-rule="evenodd" fill-opacity="0.2"/>
<polyline clip-path="url(#clip302)" style="stroke:#e26f46; stroke-linecap:round; stroke-linejoin:round; stroke-width:12; stroke-opacity:1; fill:none" points="151.118,1193.6 222.368,1197.93 293.618,1199.23 364.869,1199.22 436.119,1199.26 507.37,1199.08 578.62,1199.16 649.871,1199.11 721.121,1199.28 792.371,1199.37 863.622,1199.38 934.872,1199.18 1006.12,1199.17 1077.37,1199.2 1148.62,1199.03 1219.87,1199.24 1291.12,1199.22 1362.37,1199.38 1433.63,1199 1504.88,1199.12 1576.13,1199.07 1647.38,1198.93 1718.63,1199.1 1789.88,1199.07 1861.13,1199.28 1932.38,1199.12 2003.63,1199.03 2074.88,1199.2 2146.13,1199.16 2217.38,1199.14 2288.63,1199.33 "/>
</svg>
