<?xml version="1.0" encoding="utf-8"?>
<svg xmlns="http://www.w3.org/2000/svg" xmlns:xlink="http://www.w3.org/1999/xlink" width="600" height="400" viewBox="0 0 2400 1600">
<defs>
  <clipPath id="clip970">
    <rect x="0" y="0" width="2400" height="1600"/>
  </clipPath>
</defs>
<path clip-path="url(#clip970)" d="M0 1600 L2400 1600 L2400 0 L0 0  Z" fill="#ffffff" fill-rule="evenodd" fill-opacity="1"/>
<defs>
  <clipPath id="clip971">
    <rect x="480" y="0" width="1681" height="1600"/>
  </clipPath>
</defs>
<path clip-path="url(#clip970)" d="M86.9921 1505.26 L2352.76 1505.26 L2352.76 47.2441 L86.9921 47.2441  Z" fill="#ffffff" fill-rule="evenodd" fill-opacity="1"/>
<defs>
  <clipPath id="clip972">
    <rect x="86" y="47" width="2267" height="1459"/>
  </clipPath>
</defs>
<polyline clip-path="url(#clip972)" style="stroke:#000000; stroke-linecap:round; stroke-linejoin:round; stroke-width:2; stroke-opacity:0.1; fill:none" points="86.9921,1505.26 86.9921,47.2441 "/>
<polyline clip-path="url(#clip972)" style="stroke:#000000; stroke-linecap:round; stroke-linejoin:round; stroke-width:2; stroke-opacity:0.1; fill:none" points="842.247,1505.26 842.247,47.2441 "/>
<polyline clip-path="url(#clip972)" style="stroke:#000000; stroke-linecap:round; stroke-linejoin:round; stroke-width:2; stroke-opacity:0.1; fill:none" points="1597.5,1505.26 1597.5,47.2441 "/>
<polyline clip-path="url(#clip972)" style="stroke:#000000; stroke-linecap:round; stroke-linejoin:round; stroke-width:2; stroke-opacity:0.1; fill:none" points="2352.76,1505.26 2352.76,47.2441 "/>
<polyline clip-path="url(#clip970)" style="stroke:#000000; stroke-linecap:round; stroke-linejoin:round; stroke-width:4; stroke-opacity:1; fill:none" points="86.9921,1505.26 2352.76,1505.26 "/>
<polyline clip-path="url(#clip970)" style="stroke:#000000; stroke-linecap:round; stroke-linejoin:round; stroke-width:4; stroke-opacity:1; fill:none" points="86.9921,1505.26 86.9921,1486.36 "/>
<polyline clip-path="url(#clip970)" style="stroke:#000000; stroke-linecap:round; stroke-linejoin:round; stroke-width:4; stroke-opacity:1; fill:none" points="842.247,1505.26 842.247,1486.36 "/>
<polyline clip-path="url(#clip970)" style="stroke:#000000; stroke-linecap:round; stroke-linejoin:round; stroke-width:4; stroke-opacity:1; fill:none" points="1597.5,1505.26 1597.5,1486.36 "/>
<polyline clip-path="url(#clip970)" style="stroke:#000000; stroke-linecap:round; stroke-linejoin:round; stroke-width:4; stroke-opacity:1; fill:none" points="2352.76,1505.26 2352.76,1486.36 "/>
<path clip-path="url(#clip970)" d="M86.9921 1536.18 Q83.381 1536.18 81.5523 1539.74 Q79.7468 1543.28 79.7468 1550.41 Q79.7468 1557.52 81.5523 1561.09 Q83.381 1564.63 86.9921 1564.63 Q90.6264 1564.63 92.4319 1561.09 Q94.2606 1557.52 94.2606 1550.41 Q94.2606 1543.28 92.4319 1539.74 Q90.6264 1536.18 86.9921 1536.18 M86.9921 1532.47 Q92.8023 1532.47 95.8578 1537.08 Q98.9365 1541.66 98.9365 1550.41 Q98.9365 1559.14 95.8578 1563.75 Q92.8023 1568.33 86.9921 1568.33 Q81.182 1568.33 78.1033 1563.75 Q75.0477 1559.14 75.0477 1550.41 Q75.0477 1541.66 78.1033 1537.08 Q81.182 1532.47 86.9921 1532.47 Z" fill="#000000" fill-rule="nonzero" fill-opacity="1" /><path clip-path="url(#clip970)" d="M816.934 1563.72 L824.573 1563.72 L824.573 1537.36 L816.263 1539.03 L816.263 1534.77 L824.527 1533.1 L829.203 1533.1 L829.203 1563.72 L836.842 1563.72 L836.842 1567.66 L816.934 1567.66 L816.934 1563.72 Z" fill="#000000" fill-rule="nonzero" fill-opacity="1" /><path clip-path="url(#clip970)" d="M856.286 1536.18 Q852.675 1536.18 850.846 1539.74 Q849.041 1543.28 849.041 1550.41 Q849.041 1557.52 850.846 1561.09 Q852.675 1564.63 856.286 1564.63 Q859.92 1564.63 861.726 1561.09 Q863.554 1557.52 863.554 1550.41 Q863.554 1543.28 861.726 1539.74 Q859.92 1536.18 856.286 1536.18 M856.286 1532.47 Q862.096 1532.47 865.152 1537.08 Q868.23 1541.66 868.23 1550.41 Q868.23 1559.14 865.152 1563.75 Q862.096 1568.33 856.286 1568.33 Q850.476 1568.33 847.397 1563.75 Q844.342 1559.14 844.342 1550.41 Q844.342 1541.66 847.397 1537.08 Q850.476 1532.47 856.286 1532.47 Z" fill="#000000" fill-rule="nonzero" fill-opacity="1" /><path clip-path="url(#clip970)" d="M1576.27 1563.72 L1592.59 1563.72 L1592.59 1567.66 L1570.65 1567.66 L1570.65 1563.72 Q1573.31 1560.97 1577.89 1556.34 Q1582.5 1551.69 1583.68 1550.35 Q1585.93 1547.82 1586.81 1546.09 Q1587.71 1544.33 1587.71 1542.64 Q1587.71 1539.88 1585.77 1538.15 Q1583.84 1536.41 1580.74 1536.41 Q1578.54 1536.41 1576.09 1537.17 Q1573.66 1537.94 1570.88 1539.49 L1570.88 1534.77 Q1573.71 1533.63 1576.16 1533.05 Q1578.61 1532.47 1580.65 1532.47 Q1586.02 1532.47 1589.21 1535.16 Q1592.41 1537.85 1592.41 1542.34 Q1592.41 1544.47 1591.6 1546.39 Q1590.81 1548.28 1588.71 1550.88 Q1588.13 1551.55 1585.02 1554.77 Q1581.92 1557.96 1576.27 1563.72 Z" fill="#000000" fill-rule="nonzero" fill-opacity="1" /><path clip-path="url(#clip970)" d="M1612.41 1536.18 Q1608.8 1536.18 1606.97 1539.74 Q1605.16 1543.28 1605.16 1550.41 Q1605.16 1557.52 1606.97 1561.09 Q1608.8 1564.63 1612.41 1564.63 Q1616.04 1564.63 1617.85 1561.09 Q1619.68 1557.52 1619.68 1550.41 Q1619.68 1543.28 1617.85 1539.74 Q1616.04 1536.18 1612.41 1536.18 M1612.41 1532.47 Q1618.22 1532.47 1621.27 1537.08 Q1624.35 1541.66 1624.35 1550.41 Q1624.35 1559.14 1621.27 1563.75 Q1618.22 1568.33 1612.41 1568.33 Q1606.6 1568.33 1603.52 1563.75 Q1600.46 1559.14 1600.46 1550.41 Q1600.46 1541.66 1603.52 1537.08 Q1606.6 1532.47 1612.41 1532.47 Z" fill="#000000" fill-rule="nonzero" fill-opacity="1" /><path clip-path="url(#clip970)" d="M2341.6 1549.03 Q2344.96 1549.74 2346.83 1552.01 Q2348.73 1554.28 2348.73 1557.61 Q2348.73 1562.73 2345.21 1565.53 Q2341.69 1568.33 2335.21 1568.33 Q2333.03 1568.33 2330.72 1567.89 Q2328.43 1567.47 2325.97 1566.62 L2325.97 1562.1 Q2327.92 1563.24 2330.23 1563.82 Q2332.55 1564.4 2335.07 1564.4 Q2339.47 1564.4 2341.76 1562.66 Q2344.08 1560.92 2344.08 1557.61 Q2344.08 1554.56 2341.92 1552.85 Q2339.79 1551.11 2335.97 1551.11 L2331.95 1551.11 L2331.95 1547.27 L2336.16 1547.27 Q2339.61 1547.27 2341.44 1545.9 Q2343.27 1544.51 2343.27 1541.92 Q2343.27 1539.26 2341.37 1537.85 Q2339.49 1536.41 2335.97 1536.41 Q2334.05 1536.41 2331.85 1536.83 Q2329.65 1537.24 2327.02 1538.12 L2327.02 1533.96 Q2329.68 1533.22 2331.99 1532.85 Q2334.33 1532.47 2336.39 1532.47 Q2341.71 1532.47 2344.82 1534.91 Q2347.92 1537.31 2347.92 1541.43 Q2347.92 1544.3 2346.27 1546.29 Q2344.63 1548.26 2341.6 1549.03 Z" fill="#000000" fill-rule="nonzero" fill-opacity="1" /><path clip-path="url(#clip970)" d="M2367.59 1536.18 Q2363.98 1536.18 2362.15 1539.74 Q2360.35 1543.28 2360.35 1550.41 Q2360.35 1557.52 2362.15 1561.09 Q2363.98 1564.63 2367.59 1564.63 Q2371.23 1564.63 2373.03 1561.09 Q2374.86 1557.52 2374.86 1550.41 Q2374.86 1543.28 2373.03 1539.74 Q2371.23 1536.18 2367.59 1536.18 M2367.59 1532.47 Q2373.4 1532.47 2376.46 1537.08 Q2379.54 1541.66 2379.54 1550.41 Q2379.54 1559.14 2376.46 1563.75 Q2373.4 1568.33 2367.59 1568.33 Q2361.78 1568.33 2358.7 1563.75 Q2355.65 1559.14 2355.65 1550.41 Q2355.65 1541.66 2358.7 1537.08 Q2361.78 1532.47 2367.59 1532.47 Z" fill="#000000" fill-rule="nonzero" fill-opacity="1" /><path clip-path="url(#clip970)" d="M1218.94 1604.35 L1218.94 1614.48 L1231 1614.48 L1231 1619.03 L1218.94 1619.03 L1218.94 1638.38 Q1218.94 1642.74 1220.11 1643.98 Q1221.32 1645.22 1224.98 1645.22 L1231 1645.22 L1231 1650.12 L1224.98 1650.12 Q1218.2 1650.12 1215.62 1647.61 Q1213.05 1645.06 1213.05 1638.38 L1213.05 1619.03 L1208.75 1619.03 L1208.75 1614.48 L1213.05 1614.48 L1213.05 1604.35 L1218.94 1604.35 Z" fill="#000000" fill-rule="nonzero" fill-opacity="1" /><polyline clip-path="url(#clip972)" style="stroke:#000000; stroke-linecap:round; stroke-linejoin:round; stroke-width:2; stroke-opacity:0.1; fill:none" points="86.9921,1231 2352.76,1231 "/>
<polyline clip-path="url(#clip972)" style="stroke:#000000; stroke-linecap:round; stroke-linejoin:round; stroke-width:2; stroke-opacity:0.1; fill:none" points="86.9921,844.629 2352.76,844.629 "/>
<polyline clip-path="url(#clip972)" style="stroke:#000000; stroke-linecap:round; stroke-linejoin:round; stroke-width:2; stroke-opacity:0.1; fill:none" points="86.9921,458.258 2352.76,458.258 "/>
<polyline clip-path="url(#clip972)" style="stroke:#000000; stroke-linecap:round; stroke-linejoin:round; stroke-width:2; stroke-opacity:0.1; fill:none" points="86.9921,71.8867 2352.76,71.8867 "/>
<polyline clip-path="url(#clip970)" style="stroke:#000000; stroke-linecap:round; stroke-linejoin:round; stroke-width:4; stroke-opacity:1; fill:none" points="86.9921,1505.26 86.9921,47.2441 "/>
<polyline clip-path="url(#clip970)" style="stroke:#000000; stroke-linecap:round; stroke-linejoin:round; stroke-width:4; stroke-opacity:1; fill:none" points="86.9921,1231 105.89,1231 "/>
<polyline clip-path="url(#clip970)" style="stroke:#000000; stroke-linecap:round; stroke-linejoin:round; stroke-width:4; stroke-opacity:1; fill:none" points="86.9921,844.629 105.89,844.629 "/>
<polyline clip-path="url(#clip970)" style="stroke:#000000; stroke-linecap:round; stroke-linejoin:round; stroke-width:4; stroke-opacity:1; fill:none" points="86.9921,458.258 105.89,458.258 "/>
<polyline clip-path="url(#clip970)" style="stroke:#000000; stroke-linecap:round; stroke-linejoin:round; stroke-width:4; stroke-opacity:1; fill:none" points="86.9921,71.8867 105.89,71.8867 "/>
<path clip-path="url(#clip970)" d="M-6.18349 1216.8 Q-9.79459 1216.8 -11.6233 1220.36 Q-13.4288 1223.91 -13.4288 1231.03 Q-13.4288 1238.14 -11.6233 1241.71 Q-9.79459 1245.25 -6.18349 1245.25 Q-2.54925 1245.25 -0.743708 1241.71 Q1.08499 1238.14 1.08499 1231.03 Q1.08499 1223.91 -0.743708 1220.36 Q-2.54925 1216.8 -6.18349 1216.8 M-6.18349 1213.1 Q-0.37334 1213.1 2.6822 1217.7 Q5.76089 1222.29 5.76089 1231.03 Q5.76089 1239.76 2.6822 1244.37 Q-0.37334 1248.95 -6.18349 1248.95 Q-11.9936 1248.95 -15.0723 1244.37 Q-18.1279 1239.76 -18.1279 1231.03 Q-18.1279 1222.29 -15.0723 1217.7 Q-11.9936 1213.1 -6.18349 1213.1 Z" fill="#000000" fill-rule="nonzero" fill-opacity="1" /><path clip-path="url(#clip970)" d="M13.9784 1242.4 L18.8627 1242.4 L18.8627 1248.28 L13.9784 1248.28 L13.9784 1242.4 Z" fill="#000000" fill-rule="nonzero" fill-opacity="1" /><path clip-path="url(#clip970)" d="M39.0477 1216.8 Q35.4367 1216.8 33.608 1220.36 Q31.8024 1223.91 31.8024 1231.03 Q31.8024 1238.14 33.608 1241.71 Q35.4367 1245.25 39.0477 1245.25 Q42.682 1245.25 44.4875 1241.71 Q46.3162 1238.14 46.3162 1231.03 Q46.3162 1223.91 44.4875 1220.36 Q42.682 1216.8 39.0477 1216.8 M39.0477 1213.1 Q44.8579 1213.1 47.9134 1217.7 Q50.9921 1222.29 50.9921 1231.03 Q50.9921 1239.76 47.9134 1244.37 Q44.8579 1248.95 39.0477 1248.95 Q33.2376 1248.95 30.1589 1244.37 Q27.1034 1239.76 27.1034 1231.03 Q27.1034 1222.29 30.1589 1217.7 Q33.2376 1213.1 39.0477 1213.1 Z" fill="#000000" fill-rule="nonzero" fill-opacity="1" /><path clip-path="url(#clip970)" d="M-4.58628 830.428 Q-8.19737 830.428 -10.0261 833.993 Q-11.8316 837.534 -11.8316 844.664 Q-11.8316 851.77 -10.0261 855.335 Q-8.19737 858.877 -4.58628 858.877 Q-0.95204 858.877 0.853506 855.335 Q2.6822 851.77 2.6822 844.664 Q2.6822 837.534 0.853506 833.993 Q-0.95204 830.428 -4.58628 830.428 M-4.58628 826.724 Q1.22387 826.724 4.27941 831.331 Q7.3581 835.914 7.3581 844.664 Q7.3581 853.391 4.27941 857.997 Q1.22387 862.58 -4.58628 862.58 Q-10.3964 862.58 -13.4751 857.997 Q-16.5307 853.391 -16.5307 844.664 Q-16.5307 835.914 -13.4751 831.331 Q-10.3964 826.724 -4.58628 826.724 Z" fill="#000000" fill-rule="nonzero" fill-opacity="1" /><path clip-path="url(#clip970)" d="M15.5756 856.029 L20.4599 856.029 L20.4599 861.909 L15.5756 861.909 L15.5756 856.029 Z" fill="#000000" fill-rule="nonzero" fill-opacity="1" /><path clip-path="url(#clip970)" d="M34.6728 857.974 L50.9921 857.974 L50.9921 861.909 L29.0478 861.909 L29.0478 857.974 Q31.7098 855.219 36.2931 850.59 Q40.8996 845.937 42.0801 844.594 Q44.3255 842.071 45.2051 840.335 Q46.1079 838.576 46.1079 836.886 Q46.1079 834.131 44.1635 832.395 Q42.2422 830.659 39.1403 830.659 Q36.9413 830.659 34.4876 831.423 Q32.057 832.187 29.2793 833.738 L29.2793 829.016 Q32.1033 827.881 34.557 827.303 Q37.0107 826.724 39.0477 826.724 Q44.4181 826.724 47.6125 829.409 Q50.8069 832.094 50.8069 836.585 Q50.8069 838.715 49.9968 840.636 Q49.2097 842.534 47.1033 845.127 Q46.5246 845.798 43.4227 849.016 Q40.3209 852.21 34.6728 857.974 Z" fill="#000000" fill-rule="nonzero" fill-opacity="1" /><path clip-path="url(#clip970)" d="M-6.6696 444.057 Q-10.2807 444.057 -12.1094 447.621 Q-13.9149 451.163 -13.9149 458.293 Q-13.9149 465.399 -12.1094 468.964 Q-10.2807 472.506 -6.6696 472.506 Q-3.03536 472.506 -1.22982 468.964 Q0.598877 465.399 0.598877 458.293 Q0.598877 451.163 -1.22982 447.621 Q-3.03536 444.057 -6.6696 444.057 M-6.6696 440.353 Q-0.859448 440.353 2.19609 444.959 Q5.27478 449.543 5.27478 458.293 Q5.27478 467.019 2.19609 471.626 Q-0.859448 476.209 -6.6696 476.209 Q-12.4798 476.209 -15.5584 471.626 Q-18.614 467.019 -18.614 458.293 Q-18.614 449.543 -15.5584 444.959 Q-12.4798 440.353 -6.6696 440.353 Z" fill="#000000" fill-rule="nonzero" fill-opacity="1" /><path clip-path="url(#clip970)" d="M13.4923 469.658 L18.3766 469.658 L18.3766 475.538 L13.4923 475.538 L13.4923 469.658 Z" fill="#000000" fill-rule="nonzero" fill-opacity="1" /><path clip-path="url(#clip970)" d="M41.4088 445.052 L29.6034 463.501 L41.4088 463.501 L41.4088 445.052 M40.182 440.978 L46.0616 440.978 L46.0616 463.501 L50.9921 463.501 L50.9921 467.39 L46.0616 467.39 L46.0616 475.538 L41.4088 475.538 L41.4088 467.39 L25.8071 467.39 L25.8071 462.876 L40.182 440.978 Z" fill="#000000" fill-rule="nonzero" fill-opacity="1" /><path clip-path="url(#clip970)" d="M-6.34553 57.6854 Q-9.95662 57.6854 -11.7853 61.2502 Q-13.5909 64.7919 -13.5909 71.9214 Q-13.5909 79.0279 -11.7853 82.5927 Q-9.95662 86.1343 -6.34553 86.1343 Q-2.71129 86.1343 -0.905744 82.5927 Q0.92295 79.0279 0.92295 71.9214 Q0.92295 64.7919 -0.905744 61.2502 Q-2.71129 57.6854 -6.34553 57.6854 M-6.34553 53.9817 Q-0.535376 53.9817 2.52016 58.5882 Q5.59885 63.1715 5.59885 71.9214 Q5.59885 80.6483 2.52016 85.2547 Q-0.535376 89.838 -6.34553 89.838 Q-12.1557 89.838 -15.2344 85.2547 Q-18.2899 80.6483 -18.2899 71.9214 Q-18.2899 63.1715 -15.2344 58.5882 Q-12.1557 53.9817 -6.34553 53.9817 Z" fill="#000000" fill-rule="nonzero" fill-opacity="1" /><path clip-path="url(#clip970)" d="M13.8164 83.2871 L18.7006 83.2871 L18.7006 89.1667 L13.8164 89.1667 L13.8164 83.2871 Z" fill="#000000" fill-rule="nonzero" fill-opacity="1" /><path clip-path="url(#clip970)" d="M39.4644 70.0233 Q36.3163 70.0233 34.4644 72.1761 Q32.6357 74.3288 32.6357 78.0788 Q32.6357 81.8057 34.4644 83.9816 Q36.3163 86.1343 39.4644 86.1343 Q42.6125 86.1343 44.4412 83.9816 Q46.2931 81.8057 46.2931 78.0788 Q46.2931 74.3288 44.4412 72.1761 Q42.6125 70.0233 39.4644 70.0233 M48.7468 55.3706 L48.7468 59.6298 Q46.9875 58.7965 45.182 58.3567 Q43.3996 57.9169 41.6403 57.9169 Q37.0107 57.9169 34.557 61.0419 Q32.1265 64.1669 31.7793 70.4863 Q33.145 68.4724 35.2052 67.4076 Q37.2653 66.3196 39.7422 66.3196 Q44.9505 66.3196 47.9597 69.4909 Q50.9921 72.639 50.9921 78.0788 Q50.9921 83.4029 47.844 86.6204 Q44.6959 89.838 39.4644 89.838 Q33.4691 89.838 30.2978 85.2547 Q27.1265 80.6483 27.1265 71.9214 Q27.1265 63.727 31.0154 58.866 Q34.9042 53.9817 41.4551 53.9817 Q43.2144 53.9817 44.9968 54.3289 Q46.8023 54.6762 48.7468 55.3706 Z" fill="#000000" fill-rule="nonzero" fill-opacity="1" /><polyline clip-path="url(#clip972)" style="stroke:#009af9; stroke-linecap:round; stroke-linejoin:round; stroke-width:4; stroke-opacity:1; fill:none" points="86.9921,1231 162.518,1231.15 238.043,1165.97 313.569,1157.38 389.094,1445.92 464.619,1434.68 540.145,1300.32 615.67,1432.44 691.196,1381.21 766.721,1328.14 842.247,1416.5 917.772,1345.22 993.298,1464 1068.82,1429.18 1144.35,1426.93 1219.87,1311.75 1295.4,1064.42 1370.92,901.507 1446.45,999.838 1521.98,727.371 1597.5,604.596 1673.03,520.939 1748.55,612.859 1824.08,567.962 1899.6,312.155 1975.13,308.1 2050.65,302.731 2126.18,313.822 2201.7,201.004 2277.23,236.876 2352.76,88.5087 "/>
<polyline clip-path="url(#clip972)" style="stroke:#e26f46; stroke-linecap:round; stroke-linejoin:round; stroke-width:4; stroke-opacity:1; fill:none" points="86.9921,1231 162.518,1220.49 238.043,1229.07 313.569,1277.47 389.094,1230.89 464.619,1211.03 540.145,1252.98 615.67,1224.34 691.196,1223.64 766.721,1246.08 842.247,1220.99 917.772,1251.17 993.298,1227.24 1068.82,1232.21 1144.35,1214.03 1219.87,1192.11 1295.4,1203.58 1370.92,1244.2 1446.45,1185.76 1521.98,1207.32 1597.5,1212.58 1673.03,1240.05 1748.55,1218.82 1824.08,1185.08 1899.6,1222.96 1975.13,1222.71 2050.65,1225.3 2126.18,1205.67 2201.7,1228.45 2277.23,1199.45 2352.76,1231.84 "/>
<path clip-path="url(#clip970)" d="M162.518 251.365 L412.288 251.365 L412.288 95.8446 L162.518 95.8446  Z" fill="#ffffff" fill-rule="evenodd" fill-opacity="1"/>
<polyline clip-path="url(#clip970)" style="stroke:#000000; stroke-linecap:round; stroke-linejoin:round; stroke-width:4; stroke-opacity:1; fill:none" points="162.518,251.365 412.288,251.365 412.288,95.8446 162.518,95.8446 162.518,251.365 "/>
<polyline clip-path="url(#clip970)" style="stroke:#009af9; stroke-linecap:round; stroke-linejoin:round; stroke-width:4; stroke-opacity:1; fill:none" points="187.693,147.685 338.744,147.685 "/>
<path clip-path="url(#clip970)" d="M377.322 151.932 Q372.16 151.932 370.169 153.113 Q368.178 154.293 368.178 157.141 Q368.178 159.409 369.66 160.752 Q371.164 162.071 373.734 162.071 Q377.275 162.071 379.405 159.571 Q381.558 157.048 381.558 152.881 L381.558 151.932 L377.322 151.932 M385.817 150.173 L385.817 164.965 L381.558 164.965 L381.558 161.029 Q380.099 163.391 377.923 164.525 Q375.747 165.636 372.599 165.636 Q368.618 165.636 366.257 163.414 Q363.919 161.168 363.919 157.418 Q363.919 153.043 366.835 150.821 Q369.775 148.599 375.585 148.599 L381.558 148.599 L381.558 148.182 Q381.558 145.243 379.613 143.645 Q377.692 142.025 374.197 142.025 Q371.974 142.025 369.868 142.557 Q367.761 143.09 365.817 144.155 L365.817 140.219 Q368.155 139.317 370.354 138.877 Q372.553 138.414 374.636 138.414 Q380.261 138.414 383.039 141.33 Q385.817 144.247 385.817 150.173 Z" fill="#000000" fill-rule="nonzero" fill-opacity="1" /><polyline clip-path="url(#clip970)" style="stroke:#e26f46; stroke-linecap:round; stroke-linejoin:round; stroke-width:4; stroke-opacity:1; fill:none" points="187.693,199.525 338.744,199.525 "/>
<path clip-path="url(#clip970)" d="M382.692 203.865 Q382.692 199.166 380.747 196.504 Q378.826 193.819 375.447 193.819 Q372.067 193.819 370.122 196.504 Q368.201 199.166 368.201 203.865 Q368.201 208.564 370.122 211.249 Q372.067 213.911 375.447 213.911 Q378.826 213.911 380.747 211.249 Q382.692 208.564 382.692 203.865 M368.201 194.814 Q369.544 192.499 371.581 191.388 Q373.641 190.254 376.488 190.254 Q381.21 190.254 384.15 194.004 Q387.113 197.754 387.113 203.865 Q387.113 209.976 384.15 213.726 Q381.21 217.476 376.488 217.476 Q373.641 217.476 371.581 216.365 Q369.544 215.231 368.201 212.916 L368.201 216.805 L363.919 216.805 L363.919 180.786 L368.201 180.786 L368.201 194.814 Z" fill="#000000" fill-rule="nonzero" fill-opacity="1" /></svg>
