<?xml version="1.0" encoding="utf-8"?>
<svg xmlns="http://www.w3.org/2000/svg" xmlns:xlink="http://www.w3.org/1999/xlink" width="600" height="400" viewBox="0 0 2400 1600">
<defs>
  <clipPath id="clip030">
    <rect x="0" y="0" width="2400" height="1600"/>
  </clipPath>
</defs>
<path clip-path="url(#clip030)" d="M0 1600 L2400 1600 L2400 0 L0 0  Z" fill="#ffffff" fill-rule="evenodd" fill-opacity="1"/>
<defs>
  <clipPath id="clip031">
    <rect x="480" y="0" width="1681" height="1600"/>
  </clipPath>
</defs>
<path clip-path="url(#clip030)" d="M86.9921 1521.01 L2352.76 1521.01 L2352.76 47.2441 L86.9921 47.2441  Z" fill="#ffffff" fill-rule="evenodd" fill-opacity="1"/>
<defs>
  <clipPath id="clip032">
    <rect x="86" y="47" width="2267" height="1475"/>
  </clipPath>
</defs>
<polyline clip-path="url(#clip032)" style="stroke:#000000; stroke-linecap:round; stroke-linejoin:round; stroke-width:2; stroke-opacity:0.1; fill:none" points="151.118,1521.01 151.118,47.2441 "/>
<polyline clip-path="url(#clip032)" style="stroke:#000000; stroke-linecap:round; stroke-linejoin:round; stroke-width:2; stroke-opacity:0.1; fill:none" points="863.622,1521.01 863.622,47.2441 "/>
<polyline clip-path="url(#clip032)" style="stroke:#000000; stroke-linecap:round; stroke-linejoin:round; stroke-width:2; stroke-opacity:0.1; fill:none" points="1576.13,1521.01 1576.13,47.2441 "/>
<polyline clip-path="url(#clip032)" style="stroke:#000000; stroke-linecap:round; stroke-linejoin:round; stroke-width:2; stroke-opacity:0.1; fill:none" points="2288.63,1521.01 2288.63,47.2441 "/>
<polyline clip-path="url(#clip030)" style="stroke:#000000; stroke-linecap:round; stroke-linejoin:round; stroke-width:4; stroke-opacity:1; fill:none" points="86.9921,1521.01 2352.76,1521.01 "/>
<polyline clip-path="url(#clip030)" style="stroke:#000000; stroke-linecap:round; stroke-linejoin:round; stroke-width:4; stroke-opacity:1; fill:none" points="151.118,1521.01 151.118,1502.11 "/>
<polyline clip-path="url(#clip030)" style="stroke:#000000; stroke-linecap:round; stroke-linejoin:round; stroke-width:4; stroke-opacity:1; fill:none" points="863.622,1521.01 863.622,1502.11 "/>
<polyline clip-path="url(#clip030)" style="stroke:#000000; stroke-linecap:round; stroke-linejoin:round; stroke-width:4; stroke-opacity:1; fill:none" points="1576.13,1521.01 1576.13,1502.11 "/>
<polyline clip-path="url(#clip030)" style="stroke:#000000; stroke-linecap:round; stroke-linejoin:round; stroke-width:4; stroke-opacity:1; fill:none" points="2288.63,1521.01 2288.63,1502.11 "/>
<path clip-path="url(#clip030)" d="M151.118 1551.93 Q147.506 1551.93 145.678 1555.49 Q143.872 1559.03 143.872 1566.16 Q143.872 1573.27 145.678 1576.83 Q147.506 1580.38 151.118 1580.38 Q154.752 1580.38 156.557 1576.83 Q158.386 1573.27 158.386 1566.16 Q158.386 1559.03 156.557 1555.49 Q154.752 1551.93 151.118 1551.93 M151.118 1548.22 Q156.928 1548.22 159.983 1552.83 Q163.062 1557.41 163.062 1566.16 Q163.062 1574.89 159.983 1579.5 Q156.928 1584.08 151.118 1584.08 Q145.307 1584.08 142.229 1579.5 Q139.173 1574.89 139.173 1566.16 Q139.173 1557.41 142.229 1552.83 Q145.307 1548.22 151.118 1548.22 Z" fill="#000000" fill-rule="nonzero" fill-opacity="1" /><path clip-path="url(#clip030)" d="M838.309 1579.47 L845.948 1579.47 L845.948 1553.11 L837.638 1554.77 L837.638 1550.51 L845.902 1548.85 L850.578 1548.85 L850.578 1579.47 L858.217 1579.47 L858.217 1583.41 L838.309 1583.41 L838.309 1579.47 Z" fill="#000000" fill-rule="nonzero" fill-opacity="1" /><path clip-path="url(#clip030)" d="M877.661 1551.93 Q874.05 1551.93 872.221 1555.49 Q870.416 1559.03 870.416 1566.16 Q870.416 1573.27 872.221 1576.83 Q874.05 1580.38 877.661 1580.38 Q881.295 1580.38 883.101 1576.83 Q884.93 1573.27 884.93 1566.16 Q884.93 1559.03 883.101 1555.49 Q881.295 1551.93 877.661 1551.93 M877.661 1548.22 Q883.471 1548.22 886.527 1552.83 Q889.606 1557.41 889.606 1566.16 Q889.606 1574.89 886.527 1579.5 Q883.471 1584.08 877.661 1584.08 Q871.851 1584.08 868.772 1579.5 Q865.717 1574.89 865.717 1566.16 Q865.717 1557.41 868.772 1552.83 Q871.851 1548.22 877.661 1548.22 Z" fill="#000000" fill-rule="nonzero" fill-opacity="1" /><path clip-path="url(#clip030)" d="M1554.9 1579.47 L1571.22 1579.47 L1571.22 1583.41 L1549.27 1583.41 L1549.27 1579.47 Q1551.94 1576.72 1556.52 1572.09 Q1561.13 1567.44 1562.31 1566.09 Q1564.55 1563.57 1565.43 1561.83 Q1566.33 1560.07 1566.33 1558.38 Q1566.33 1555.63 1564.39 1553.89 Q1562.47 1552.16 1559.37 1552.16 Q1557.17 1552.16 1554.71 1552.92 Q1552.28 1553.69 1549.51 1555.24 L1549.51 1550.51 Q1552.33 1549.38 1554.78 1548.8 Q1557.24 1548.22 1559.27 1548.22 Q1564.64 1548.22 1567.84 1550.91 Q1571.03 1553.59 1571.03 1558.08 Q1571.03 1560.21 1570.22 1562.13 Q1569.44 1564.03 1567.33 1566.63 Q1566.75 1567.3 1563.65 1570.51 Q1560.55 1573.71 1554.9 1579.47 Z" fill="#000000" fill-rule="nonzero" fill-opacity="1" /><path clip-path="url(#clip030)" d="M1591.03 1551.93 Q1587.42 1551.93 1585.59 1555.49 Q1583.79 1559.03 1583.79 1566.16 Q1583.79 1573.27 1585.59 1576.83 Q1587.42 1580.38 1591.03 1580.38 Q1594.67 1580.38 1596.47 1576.83 Q1598.3 1573.27 1598.3 1566.16 Q1598.3 1559.03 1596.47 1555.49 Q1594.67 1551.93 1591.03 1551.93 M1591.03 1548.22 Q1596.84 1548.22 1599.9 1552.83 Q1602.98 1557.41 1602.98 1566.16 Q1602.98 1574.89 1599.9 1579.5 Q1596.84 1584.08 1591.03 1584.08 Q1585.22 1584.08 1582.14 1579.5 Q1579.09 1574.89 1579.09 1566.16 Q1579.09 1557.41 1582.14 1552.83 Q1585.22 1548.22 1591.03 1548.22 Z" fill="#000000" fill-rule="nonzero" fill-opacity="1" /><path clip-path="url(#clip030)" d="M2277.47 1564.77 Q2280.83 1565.49 2282.7 1567.76 Q2284.6 1570.03 2284.6 1573.36 Q2284.6 1578.48 2281.08 1581.28 Q2277.57 1584.08 2271.08 1584.08 Q2268.91 1584.08 2266.59 1583.64 Q2264.3 1583.22 2261.85 1582.37 L2261.85 1577.85 Q2263.79 1578.99 2266.11 1579.57 Q2268.42 1580.14 2270.95 1580.14 Q2275.34 1580.14 2277.64 1578.41 Q2279.95 1576.67 2279.95 1573.36 Q2279.95 1570.31 2277.8 1568.59 Q2275.67 1566.86 2271.85 1566.86 L2267.82 1566.86 L2267.82 1563.01 L2272.03 1563.01 Q2275.48 1563.01 2277.31 1561.65 Q2279.14 1560.26 2279.14 1557.67 Q2279.14 1555.01 2277.24 1553.59 Q2275.37 1552.16 2271.85 1552.16 Q2269.93 1552.16 2267.73 1552.57 Q2265.53 1552.99 2262.89 1553.87 L2262.89 1549.7 Q2265.55 1548.96 2267.87 1548.59 Q2270.2 1548.22 2272.26 1548.22 Q2277.59 1548.22 2280.69 1550.65 Q2283.79 1553.06 2283.79 1557.18 Q2283.79 1560.05 2282.15 1562.04 Q2280.51 1564.01 2277.47 1564.77 Z" fill="#000000" fill-rule="nonzero" fill-opacity="1" /><path clip-path="url(#clip030)" d="M2303.47 1551.93 Q2299.86 1551.93 2298.03 1555.49 Q2296.22 1559.03 2296.22 1566.16 Q2296.22 1573.27 2298.03 1576.83 Q2299.86 1580.38 2303.47 1580.38 Q2307.1 1580.38 2308.91 1576.83 Q2310.74 1573.27 2310.74 1566.16 Q2310.74 1559.03 2308.91 1555.49 Q2307.1 1551.93 2303.47 1551.93 M2303.47 1548.22 Q2309.28 1548.22 2312.33 1552.83 Q2315.41 1557.41 2315.41 1566.16 Q2315.41 1574.89 2312.33 1579.5 Q2309.28 1584.08 2303.47 1584.08 Q2297.66 1584.08 2294.58 1579.5 Q2291.52 1574.89 2291.52 1566.16 Q2291.52 1557.41 2294.58 1552.83 Q2297.66 1548.22 2303.47 1548.22 Z" fill="#000000" fill-rule="nonzero" fill-opacity="1" /><polyline clip-path="url(#clip032)" style="stroke:#000000; stroke-linecap:round; stroke-linejoin:round; stroke-width:2; stroke-opacity:0.1; fill:none" points="86.9921,1339.3 2352.76,1339.3 "/>
<polyline clip-path="url(#clip032)" style="stroke:#000000; stroke-linecap:round; stroke-linejoin:round; stroke-width:2; stroke-opacity:0.1; fill:none" points="86.9921,1137.09 2352.76,1137.09 "/>
<polyline clip-path="url(#clip032)" style="stroke:#000000; stroke-linecap:round; stroke-linejoin:round; stroke-width:2; stroke-opacity:0.1; fill:none" points="86.9921,934.881 2352.76,934.881 "/>
<polyline clip-path="url(#clip032)" style="stroke:#000000; stroke-linecap:round; stroke-linejoin:round; stroke-width:2; stroke-opacity:0.1; fill:none" points="86.9921,732.67 2352.76,732.67 "/>
<polyline clip-path="url(#clip032)" style="stroke:#000000; stroke-linecap:round; stroke-linejoin:round; stroke-width:2; stroke-opacity:0.1; fill:none" points="86.9921,530.458 2352.76,530.458 "/>
<polyline clip-path="url(#clip032)" style="stroke:#000000; stroke-linecap:round; stroke-linejoin:round; stroke-width:2; stroke-opacity:0.1; fill:none" points="86.9921,328.247 2352.76,328.247 "/>
<polyline clip-path="url(#clip032)" style="stroke:#000000; stroke-linecap:round; stroke-linejoin:round; stroke-width:2; stroke-opacity:0.1; fill:none" points="86.9921,126.035 2352.76,126.035 "/>
<polyline clip-path="url(#clip030)" style="stroke:#000000; stroke-linecap:round; stroke-linejoin:round; stroke-width:4; stroke-opacity:1; fill:none" points="86.9921,1521.01 86.9921,47.2441 "/>
<polyline clip-path="url(#clip030)" style="stroke:#000000; stroke-linecap:round; stroke-linejoin:round; stroke-width:4; stroke-opacity:1; fill:none" points="86.9921,1339.3 105.89,1339.3 "/>
<polyline clip-path="url(#clip030)" style="stroke:#000000; stroke-linecap:round; stroke-linejoin:round; stroke-width:4; stroke-opacity:1; fill:none" points="86.9921,1137.09 105.89,1137.09 "/>
<polyline clip-path="url(#clip030)" style="stroke:#000000; stroke-linecap:round; stroke-linejoin:round; stroke-width:4; stroke-opacity:1; fill:none" points="86.9921,934.881 105.89,934.881 "/>
<polyline clip-path="url(#clip030)" style="stroke:#000000; stroke-linecap:round; stroke-linejoin:round; stroke-width:4; stroke-opacity:1; fill:none" points="86.9921,732.67 105.89,732.67 "/>
<polyline clip-path="url(#clip030)" style="stroke:#000000; stroke-linecap:round; stroke-linejoin:round; stroke-width:4; stroke-opacity:1; fill:none" points="86.9921,530.458 105.89,530.458 "/>
<polyline clip-path="url(#clip030)" style="stroke:#000000; stroke-linecap:round; stroke-linejoin:round; stroke-width:4; stroke-opacity:1; fill:none" points="86.9921,328.247 105.89,328.247 "/>
<polyline clip-path="url(#clip030)" style="stroke:#000000; stroke-linecap:round; stroke-linejoin:round; stroke-width:4; stroke-opacity:1; fill:none" points="86.9921,126.035 105.89,126.035 "/>
<path clip-path="url(#clip030)" d="M-54.9564 1339.76 L-25.2806 1339.76 L-25.2806 1343.69 L-54.9564 1343.69 L-54.9564 1339.76 Z" fill="#000000" fill-rule="nonzero" fill-opacity="1" /><path clip-path="url(#clip030)" d="M-11.1603 1352.65 L5.15904 1352.65 L5.15904 1356.58 L-16.7853 1356.58 L-16.7853 1352.65 Q-14.1233 1349.89 -9.53996 1345.26 Q-4.9335 1340.61 -3.75295 1339.27 Q-1.50759 1336.75 -0.627968 1335.01 Q0.274805 1333.25 0.274805 1331.56 Q0.274805 1328.81 -1.66963 1327.07 Q-3.59091 1325.33 -6.69275 1325.33 Q-8.89181 1325.33 -11.3455 1326.1 Q-13.776 1326.86 -16.5538 1328.41 L-16.5538 1323.69 Q-13.7297 1322.56 -11.2761 1321.98 Q-8.82237 1321.4 -6.78534 1321.4 Q-1.415 1321.4 1.77943 1324.08 Q4.97385 1326.77 4.97385 1331.26 Q4.97385 1333.39 4.16367 1335.31 Q3.37664 1337.21 1.27017 1339.8 Q0.69147 1340.47 -2.41037 1343.69 Q-5.5122 1346.88 -11.1603 1352.65 Z" fill="#000000" fill-rule="nonzero" fill-opacity="1" /><path clip-path="url(#clip030)" d="M14.9738 1350.7 L19.858 1350.7 L19.858 1356.58 L14.9738 1356.58 L14.9738 1350.7 Z" fill="#000000" fill-rule="nonzero" fill-opacity="1" /><path clip-path="url(#clip030)" d="M30.0895 1322.02 L48.4458 1322.02 L48.4458 1325.96 L34.3718 1325.96 L34.3718 1334.43 Q35.3904 1334.08 36.4089 1333.92 Q37.4274 1333.74 38.4459 1333.74 Q44.2329 1333.74 47.6125 1336.91 Q50.9921 1340.08 50.9921 1345.5 Q50.9921 1351.07 47.5199 1354.18 Q44.0477 1357.26 37.7283 1357.26 Q35.5524 1357.26 33.2839 1356.88 Q31.0385 1356.51 28.6311 1355.77 L28.6311 1351.07 Q30.7145 1352.21 32.9367 1352.76 Q35.1589 1353.32 37.6357 1353.32 Q41.6403 1353.32 43.9783 1351.21 Q46.3162 1349.11 46.3162 1345.5 Q46.3162 1341.88 43.9783 1339.78 Q41.6403 1337.67 37.6357 1337.67 Q35.7607 1337.67 33.8857 1338.09 Q32.0339 1338.51 30.0895 1339.38 L30.0895 1322.02 Z" fill="#000000" fill-rule="nonzero" fill-opacity="1" /><path clip-path="url(#clip030)" d="M-6.18349 1122.89 Q-9.79459 1122.89 -11.6233 1126.46 Q-13.4288 1130 -13.4288 1137.13 Q-13.4288 1144.23 -11.6233 1147.8 Q-9.79459 1151.34 -6.18349 1151.34 Q-2.54925 1151.34 -0.743708 1147.8 Q1.08499 1144.23 1.08499 1137.13 Q1.08499 1130 -0.743708 1126.46 Q-2.54925 1122.89 -6.18349 1122.89 M-6.18349 1119.19 Q-0.37334 1119.19 2.6822 1123.79 Q5.76089 1128.38 5.76089 1137.13 Q5.76089 1145.85 2.6822 1150.46 Q-0.37334 1155.04 -6.18349 1155.04 Q-11.9936 1155.04 -15.0723 1150.46 Q-18.1279 1145.85 -18.1279 1137.13 Q-18.1279 1128.38 -15.0723 1123.79 Q-11.9936 1119.19 -6.18349 1119.19 Z" fill="#000000" fill-rule="nonzero" fill-opacity="1" /><path clip-path="url(#clip030)" d="M13.9784 1148.49 L18.8627 1148.49 L18.8627 1154.37 L13.9784 1154.37 L13.9784 1148.49 Z" fill="#000000" fill-rule="nonzero" fill-opacity="1" /><path clip-path="url(#clip030)" d="M39.0477 1122.89 Q35.4367 1122.89 33.608 1126.46 Q31.8024 1130 31.8024 1137.13 Q31.8024 1144.23 33.608 1147.8 Q35.4367 1151.34 39.0477 1151.34 Q42.682 1151.34 44.4875 1147.8 Q46.3162 1144.23 46.3162 1137.13 Q46.3162 1130 44.4875 1126.46 Q42.682 1122.89 39.0477 1122.89 M39.0477 1119.19 Q44.8579 1119.19 47.9134 1123.79 Q50.9921 1128.38 50.9921 1137.13 Q50.9921 1145.85 47.9134 1150.46 Q44.8579 1155.04 39.0477 1155.04 Q33.2376 1155.04 30.1589 1150.46 Q27.1034 1145.85 27.1034 1137.13 Q27.1034 1128.38 30.1589 1123.79 Q33.2376 1119.19 39.0477 1119.19 Z" fill="#000000" fill-rule="nonzero" fill-opacity="1" /><path clip-path="url(#clip030)" d="M-11.1603 948.226 L5.15904 948.226 L5.15904 952.161 L-16.7853 952.161 L-16.7853 948.226 Q-14.1233 945.471 -9.53996 940.842 Q-4.9335 936.189 -3.75295 934.846 Q-1.50759 932.323 -0.627968 930.587 Q0.274805 928.828 0.274805 927.138 Q0.274805 924.383 -1.66963 922.647 Q-3.59091 920.911 -6.69275 920.911 Q-8.89181 920.911 -11.3455 921.675 Q-13.776 922.439 -16.5538 923.99 L-16.5538 919.268 Q-13.7297 918.133 -11.2761 917.555 Q-8.82237 916.976 -6.78534 916.976 Q-1.415 916.976 1.77943 919.661 Q4.97385 922.346 4.97385 926.837 Q4.97385 928.967 4.16367 930.888 Q3.37664 932.786 1.27017 935.379 Q0.69147 936.05 -2.41037 939.268 Q-5.5122 942.462 -11.1603 948.226 Z" fill="#000000" fill-rule="nonzero" fill-opacity="1" /><path clip-path="url(#clip030)" d="M14.9738 946.281 L19.858 946.281 L19.858 952.161 L14.9738 952.161 L14.9738 946.281 Z" fill="#000000" fill-rule="nonzero" fill-opacity="1" /><path clip-path="url(#clip030)" d="M30.0895 917.601 L48.4458 917.601 L48.4458 921.536 L34.3718 921.536 L34.3718 930.008 Q35.3904 929.661 36.4089 929.499 Q37.4274 929.314 38.4459 929.314 Q44.2329 929.314 47.6125 932.485 Q50.9921 935.656 50.9921 941.073 Q50.9921 946.652 47.5199 949.754 Q44.0477 952.832 37.7283 952.832 Q35.5524 952.832 33.2839 952.462 Q31.0385 952.092 28.6311 951.351 L28.6311 946.652 Q30.7145 947.786 32.9367 948.342 Q35.1589 948.897 37.6357 948.897 Q41.6403 948.897 43.9783 946.791 Q46.3162 944.684 46.3162 941.073 Q46.3162 937.462 43.9783 935.356 Q41.6403 933.249 37.6357 933.249 Q35.7607 933.249 33.8857 933.666 Q32.0339 934.082 30.0895 934.962 L30.0895 917.601 Z" fill="#000000" fill-rule="nonzero" fill-opacity="1" /><path clip-path="url(#clip030)" d="M-16.1371 715.39 L2.21924 715.39 L2.21924 719.325 L-11.8548 719.325 L-11.8548 727.797 Q-10.8362 727.45 -9.81773 727.288 Q-8.79922 727.102 -7.78071 727.102 Q-1.9937 727.102 1.38591 730.274 Q4.76552 733.445 4.76552 738.862 Q4.76552 744.44 1.29332 747.542 Q-2.17889 750.621 -8.4983 750.621 Q-10.6742 750.621 -12.9427 750.251 Q-15.1881 749.88 -17.5955 749.139 L-17.5955 744.44 Q-15.5121 745.575 -13.2899 746.13 Q-11.0677 746.686 -8.59089 746.686 Q-4.58628 746.686 -2.24833 744.579 Q0.089621 742.473 0.089621 738.862 Q0.089621 735.251 -2.24833 733.144 Q-4.58628 731.038 -8.59089 731.038 Q-10.4659 731.038 -12.3409 731.454 Q-14.1927 731.871 -16.1371 732.751 L-16.1371 715.39 Z" fill="#000000" fill-rule="nonzero" fill-opacity="1" /><path clip-path="url(#clip030)" d="M13.9784 744.07 L18.8627 744.07 L18.8627 749.95 L13.9784 749.95 L13.9784 744.07 Z" fill="#000000" fill-rule="nonzero" fill-opacity="1" /><path clip-path="url(#clip030)" d="M39.0477 718.468 Q35.4367 718.468 33.608 722.033 Q31.8024 725.575 31.8024 732.704 Q31.8024 739.811 33.608 743.376 Q35.4367 746.917 39.0477 746.917 Q42.682 746.917 44.4875 743.376 Q46.3162 739.811 46.3162 732.704 Q46.3162 725.575 44.4875 722.033 Q42.682 718.468 39.0477 718.468 M39.0477 714.765 Q44.8579 714.765 47.9134 719.371 Q50.9921 723.954 50.9921 732.704 Q50.9921 741.431 47.9134 746.038 Q44.8579 750.621 39.0477 750.621 Q33.2376 750.621 30.1589 746.038 Q27.1034 741.431 27.1034 732.704 Q27.1034 723.954 30.1589 719.371 Q33.2376 714.765 39.0477 714.765 Z" fill="#000000" fill-rule="nonzero" fill-opacity="1" /><path clip-path="url(#clip030)" d="M-16.3686 513.178 L5.85348 513.178 L5.85348 515.169 L-6.69275 547.738 L-11.577 547.738 L0.228509 517.113 L-16.3686 517.113 L-16.3686 513.178 Z" fill="#000000" fill-rule="nonzero" fill-opacity="1" /><path clip-path="url(#clip030)" d="M14.9738 541.859 L19.858 541.859 L19.858 547.738 L14.9738 547.738 L14.9738 541.859 Z" fill="#000000" fill-rule="nonzero" fill-opacity="1" /><path clip-path="url(#clip030)" d="M30.0895 513.178 L48.4458 513.178 L48.4458 517.113 L34.3718 517.113 L34.3718 525.585 Q35.3904 525.238 36.4089 525.076 Q37.4274 524.891 38.4459 524.891 Q44.2329 524.891 47.6125 528.062 Q50.9921 531.234 50.9921 536.65 Q50.9921 542.229 47.5199 545.331 Q44.0477 548.409 37.7283 548.409 Q35.5524 548.409 33.2839 548.039 Q31.0385 547.669 28.6311 546.928 L28.6311 542.229 Q30.7145 543.363 32.9367 543.919 Q35.1589 544.474 37.6357 544.474 Q41.6403 544.474 43.9783 542.368 Q46.3162 540.261 46.3162 536.65 Q46.3162 533.039 43.9783 530.933 Q41.6403 528.826 37.6357 528.826 Q35.7607 528.826 33.8857 529.243 Q32.0339 529.66 30.0895 530.539 L30.0895 513.178 Z" fill="#000000" fill-rule="nonzero" fill-opacity="1" /><path clip-path="url(#clip030)" d="M-45.5351 341.592 L-37.8963 341.592 L-37.8963 315.226 L-46.2064 316.893 L-46.2064 312.633 L-37.9426 310.967 L-33.2667 310.967 L-33.2667 341.592 L-25.6278 341.592 L-25.6278 345.527 L-45.5351 345.527 L-45.5351 341.592 Z" fill="#000000" fill-rule="nonzero" fill-opacity="1" /><path clip-path="url(#clip030)" d="M-6.18349 314.045 Q-9.79459 314.045 -11.6233 317.61 Q-13.4288 321.152 -13.4288 328.281 Q-13.4288 335.388 -11.6233 338.953 Q-9.79459 342.494 -6.18349 342.494 Q-2.54925 342.494 -0.743708 338.953 Q1.08499 335.388 1.08499 328.281 Q1.08499 321.152 -0.743708 317.61 Q-2.54925 314.045 -6.18349 314.045 M-6.18349 310.342 Q-0.37334 310.342 2.6822 314.948 Q5.76089 319.531 5.76089 328.281 Q5.76089 337.008 2.6822 341.615 Q-0.37334 346.198 -6.18349 346.198 Q-11.9936 346.198 -15.0723 341.615 Q-18.1279 337.008 -18.1279 328.281 Q-18.1279 319.531 -15.0723 314.948 Q-11.9936 310.342 -6.18349 310.342 Z" fill="#000000" fill-rule="nonzero" fill-opacity="1" /><path clip-path="url(#clip030)" d="M13.9784 339.647 L18.8627 339.647 L18.8627 345.527 L13.9784 345.527 L13.9784 339.647 Z" fill="#000000" fill-rule="nonzero" fill-opacity="1" /><path clip-path="url(#clip030)" d="M39.0477 314.045 Q35.4367 314.045 33.608 317.61 Q31.8024 321.152 31.8024 328.281 Q31.8024 335.388 33.608 338.953 Q35.4367 342.494 39.0477 342.494 Q42.682 342.494 44.4875 338.953 Q46.3162 335.388 46.3162 328.281 Q46.3162 321.152 44.4875 317.61 Q42.682 314.045 39.0477 314.045 M39.0477 310.342 Q44.8579 310.342 47.9134 314.948 Q50.9921 319.531 50.9921 328.281 Q50.9921 337.008 47.9134 341.615 Q44.8579 346.198 39.0477 346.198 Q33.2376 346.198 30.1589 341.615 Q27.1034 337.008 27.1034 328.281 Q27.1034 319.531 30.1589 314.948 Q33.2376 310.342 39.0477 310.342 Z" fill="#000000" fill-rule="nonzero" fill-opacity="1" /><path clip-path="url(#clip030)" d="M-44.5398 139.38 L-36.9009 139.38 L-36.9009 113.014 L-45.2111 114.681 L-45.2111 110.422 L-36.9472 108.755 L-32.2713 108.755 L-32.2713 139.38 L-24.6325 139.38 L-24.6325 143.315 L-44.5398 143.315 L-44.5398 139.38 Z" fill="#000000" fill-rule="nonzero" fill-opacity="1" /><path clip-path="url(#clip030)" d="M-11.1603 139.38 L5.15904 139.38 L5.15904 143.315 L-16.7853 143.315 L-16.7853 139.38 Q-14.1233 136.625 -9.53996 131.996 Q-4.9335 127.343 -3.75295 126.001 Q-1.50759 123.477 -0.627968 121.741 Q0.274805 119.982 0.274805 118.292 Q0.274805 115.538 -1.66963 113.802 Q-3.59091 112.065 -6.69275 112.065 Q-8.89181 112.065 -11.3455 112.829 Q-13.776 113.593 -16.5538 115.144 L-16.5538 110.422 Q-13.7297 109.288 -11.2761 108.709 Q-8.82237 108.13 -6.78534 108.13 Q-1.415 108.13 1.77943 110.815 Q4.97385 113.501 4.97385 117.991 Q4.97385 120.121 4.16367 122.042 Q3.37664 123.94 1.27017 126.533 Q0.69147 127.204 -2.41037 130.422 Q-5.5122 133.616 -11.1603 139.38 Z" fill="#000000" fill-rule="nonzero" fill-opacity="1" /><path clip-path="url(#clip030)" d="M14.9738 137.436 L19.858 137.436 L19.858 143.315 L14.9738 143.315 L14.9738 137.436 Z" fill="#000000" fill-rule="nonzero" fill-opacity="1" /><path clip-path="url(#clip030)" d="M30.0895 108.755 L48.4458 108.755 L48.4458 112.69 L34.3718 112.69 L34.3718 121.163 Q35.3904 120.815 36.4089 120.653 Q37.4274 120.468 38.4459 120.468 Q44.2329 120.468 47.6125 123.639 Q50.9921 126.811 50.9921 132.227 Q50.9921 137.806 47.5199 140.908 Q44.0477 143.987 37.7283 143.987 Q35.5524 143.987 33.2839 143.616 Q31.0385 143.246 28.6311 142.505 L28.6311 137.806 Q30.7145 138.94 32.9367 139.496 Q35.1589 140.051 37.6357 140.051 Q41.6403 140.051 43.9783 137.945 Q46.3162 135.838 46.3162 132.227 Q46.3162 128.616 43.9783 126.51 Q41.6403 124.403 37.6357 124.403 Q35.7607 124.403 33.8857 124.82 Q32.0339 125.237 30.0895 126.116 L30.0895 108.755 Z" fill="#000000" fill-rule="nonzero" fill-opacity="1" /><path clip-path="url(#clip032)" d="M151.118 1267.96 L222.368 1425.25 L293.618 1479.3 L364.869 1477.83 L436.119 1462.46 L507.37 1447.67 L578.62 1432.04 L649.871 1421.9 L721.121 1409.49 L792.371 1394.36 L863.622 1381.7 L934.872 1372.02 L1006.12 1364.24 L1077.37 1356.63 L1148.62 1344.85 L1219.87 1336.56 L1291.12 1315.85 L1362.37 1306.99 L1433.63 1297.35 L1504.88 1285.67 L1576.13 1274.37 L1647.38 1267.67 L1718.63 1263.03 L1789.88 1255.89 L1861.13 1255.93 L1932.38 1251.82 L2003.63 1249.95 L2074.88 1247.66 L2146.13 1235.2 L2217.38 1231.21 L2288.63 1229.16 L2288.63 892.969 L2217.38 880.206 L2146.13 864.232 L2074.88 850.55 L2003.63 829.222 L1932.38 808.401 L1861.13 793.947 L1789.88 774.529 L1718.63 762.293 L1647.38 738.741 L1576.13 723.223 L1504.88 697.895 L1433.63 674.25 L1362.37 641.24 L1291.12 616.402 L1219.87 589.28 L1148.62 556.952 L1077.37 519.751 L1006.12 491.147 L934.872 470.444 L863.622 436.149 L792.371 396.268 L721.121 353.191 L649.871 307.523 L578.62 262.104 L507.37 218.645 L436.119 167.777 L364.869 116.396 L293.618 88.9544 L222.368 180.259 L151.118 1010.43  Z" fill="#009af9" fill-rule="evenodd" fill-opacity="0.2"/>
<polyline clip-path="url(#clip032)" style="stroke:#009af9; stroke-linecap:round; stroke-linejoin:round; stroke-width:12; stroke-opacity:1; fill:none" points="151.118,1129.12 222.368,950.948 293.618,927.403 364.869,961.634 436.119,975.128 507.37,985.648 578.62,993.274 649.871,1005.45 721.121,1009.24 792.371,1012.26 863.622,1018.47 934.872,1023.84 1006.12,1032.38 1077.37,1036.66 1148.62,1038.69 1219.87,1042.49 1291.12,1051.39 1362.37,1058.13 1433.63,1067.19 1504.88,1073.21 1576.13,1078.71 1647.38,1079.68 1718.63,1082.71 1789.88,1085.68 1861.13,1091.11 1932.38,1088.68 2003.63,1089.33 2074.88,1097.24 2146.13,1103.11 2217.38,1102.2 2288.63,1106.52 "/>
<path clip-path="url(#clip032)" d="M151.118 1260.64 L222.368 1162.17 L293.618 1140.71 L364.869 1138.24 L436.119 1138.4 L507.37 1138.48 L578.62 1138.36 L649.871 1138.72 L721.121 1138.48 L792.371 1138.14 L863.622 1138.19 L934.872 1138.41 L1006.12 1138.65 L1077.37 1138.65 L1148.62 1138.14 L1219.87 1138.26 L1291.12 1138.09 L1362.37 1138.78 L1433.63 1138.34 L1504.88 1138.61 L1576.13 1138.32 L1647.38 1138.32 L1718.63 1138.33 L1789.88 1138.31 L1861.13 1138.45 L1932.38 1137.92 L2003.63 1138.49 L2074.88 1138.6 L2146.13 1138.16 L2217.38 1138.53 L2288.63 1138.5 L2288.63 1135.91 L2217.38 1135.69 L2146.13 1135.83 L2074.88 1135.94 L2003.63 1136.25 L1932.38 1135.57 L1861.13 1135.67 L1789.88 1135.95 L1718.63 1136.12 L1647.38 1135.54 L1576.13 1135.48 L1504.88 1136.08 L1433.63 1135.9 L1362.37 1135.46 L1291.12 1135.79 L1219.87 1135.05 L1148.62 1135.46 L1077.37 1135.75 L1006.12 1135.9 L934.872 1135.49 L863.622 1135.81 L792.371 1135.56 L721.121 1135.44 L649.871 1135.92 L578.62 1136.21 L507.37 1136.37 L436.119 1135.54 L364.869 1135.78 L293.618 1132.61 L222.368 1117.36 L151.118 1037.74  Z" fill="#e26f46" fill-rule="evenodd" fill-opacity="0.2"/>
<polyline clip-path="url(#clip032)" style="stroke:#e26f46; stroke-linecap:round; stroke-linejoin:round; stroke-width:12; stroke-opacity:1; fill:none" points="151.118,1117.84 222.368,1133.22 293.618,1136.86 364.869,1137.1 436.119,1136.98 507.37,1137.37 578.62,1137.36 649.871,1137.32 721.121,1137.36 792.371,1137.16 863.622,1136.74 934.872,1137.1 1006.12,1137.16 1077.37,1137.31 1148.62,1137.03 1219.87,1137.12 1291.12,1136.92 1362.37,1137.16 1433.63,1137.08 1504.88,1137.25 1576.13,1137.09 1647.38,1137.11 1718.63,1137.18 1789.88,1137.15 1861.13,1137.03 1932.38,1136.93 2003.63,1137.38 2074.88,1137.23 2146.13,1137.11 2217.38,1137.04 2288.63,1136.97 "/>
</svg>
