<?xml version="1.0" encoding="utf-8"?>
<svg xmlns="http://www.w3.org/2000/svg" xmlns:xlink="http://www.w3.org/1999/xlink" width="600" height="400" viewBox="0 0 2400 1600">
<defs>
  <clipPath id="clip780">
    <rect x="0" y="0" width="2400" height="1600"/>
  </clipPath>
</defs>
<path clip-path="url(#clip780)" d="M0 1600 L2400 1600 L2400 0 L0 0  Z" fill="#ffffff" fill-rule="evenodd" fill-opacity="1"/>
<defs>
  <clipPath id="clip781">
    <rect x="480" y="0" width="1681" height="1600"/>
  </clipPath>
</defs>
<path clip-path="url(#clip780)" d="M86.9921 1505.26 L2352.76 1505.26 L2352.76 47.2441 L86.9921 47.2441  Z" fill="#ffffff" fill-rule="evenodd" fill-opacity="1"/>
<defs>
  <clipPath id="clip782">
    <rect x="86" y="47" width="2267" height="1459"/>
  </clipPath>
</defs>
<polyline clip-path="url(#clip782)" style="stroke:#000000; stroke-linecap:round; stroke-linejoin:round; stroke-width:2; stroke-opacity:0.1; fill:none" points="86.9921,1505.26 86.9921,47.2441 "/>
<polyline clip-path="url(#clip782)" style="stroke:#000000; stroke-linecap:round; stroke-linejoin:round; stroke-width:2; stroke-opacity:0.1; fill:none" points="540.145,1505.26 540.145,47.2441 "/>
<polyline clip-path="url(#clip782)" style="stroke:#000000; stroke-linecap:round; stroke-linejoin:round; stroke-width:2; stroke-opacity:0.1; fill:none" points="993.298,1505.26 993.298,47.2441 "/>
<polyline clip-path="url(#clip782)" style="stroke:#000000; stroke-linecap:round; stroke-linejoin:round; stroke-width:2; stroke-opacity:0.1; fill:none" points="1446.45,1505.26 1446.45,47.2441 "/>
<polyline clip-path="url(#clip782)" style="stroke:#000000; stroke-linecap:round; stroke-linejoin:round; stroke-width:2; stroke-opacity:0.1; fill:none" points="1899.6,1505.26 1899.6,47.2441 "/>
<polyline clip-path="url(#clip782)" style="stroke:#000000; stroke-linecap:round; stroke-linejoin:round; stroke-width:2; stroke-opacity:0.1; fill:none" points="2352.76,1505.26 2352.76,47.2441 "/>
<polyline clip-path="url(#clip780)" style="stroke:#000000; stroke-linecap:round; stroke-linejoin:round; stroke-width:4; stroke-opacity:1; fill:none" points="86.9921,1505.26 2352.76,1505.26 "/>
<polyline clip-path="url(#clip780)" style="stroke:#000000; stroke-linecap:round; stroke-linejoin:round; stroke-width:4; stroke-opacity:1; fill:none" points="86.9921,1505.26 86.9921,1486.36 "/>
<polyline clip-path="url(#clip780)" style="stroke:#000000; stroke-linecap:round; stroke-linejoin:round; stroke-width:4; stroke-opacity:1; fill:none" points="540.145,1505.26 540.145,1486.36 "/>
<polyline clip-path="url(#clip780)" style="stroke:#000000; stroke-linecap:round; stroke-linejoin:round; stroke-width:4; stroke-opacity:1; fill:none" points="993.298,1505.26 993.298,1486.36 "/>
<polyline clip-path="url(#clip780)" style="stroke:#000000; stroke-linecap:round; stroke-linejoin:round; stroke-width:4; stroke-opacity:1; fill:none" points="1446.45,1505.26 1446.45,1486.36 "/>
<polyline clip-path="url(#clip780)" style="stroke:#000000; stroke-linecap:round; stroke-linejoin:round; stroke-width:4; stroke-opacity:1; fill:none" points="1899.6,1505.26 1899.6,1486.36 "/>
<polyline clip-path="url(#clip780)" style="stroke:#000000; stroke-linecap:round; stroke-linejoin:round; stroke-width:4; stroke-opacity:1; fill:none" points="2352.76,1505.26 2352.76,1486.36 "/>
<path clip-path="url(#clip780)" d="M86.9921 1536.18 Q83.381 1536.18 81.5523 1539.74 Q79.7468 1543.28 79.7468 1550.41 Q79.7468 1557.52 81.5523 1561.09 Q83.381 1564.63 86.9921 1564.63 Q90.6264 1564.63 92.4319 1561.09 Q94.2606 1557.52 94.2606 1550.41 Q94.2606 1543.28 92.4319 1539.74 Q90.6264 1536.18 86.9921 1536.18 M86.9921 1532.47 Q92.8023 1532.47 95.8578 1537.08 Q98.9365 1541.66 98.9365 1550.41 Q98.9365 1559.14 95.8578 1563.75 Q92.8023 1568.33 86.9921 1568.33 Q81.182 1568.33 78.1033 1563.75 Q75.0477 1559.14 75.0477 1550.41 Q75.0477 1541.66 78.1033 1537.08 Q81.182 1532.47 86.9921 1532.47 Z" fill="#000000" fill-rule="nonzero" fill-opacity="1" /><path clip-path="url(#clip780)" d="M534.798 1563.72 L551.117 1563.72 L551.117 1567.66 L529.173 1567.66 L529.173 1563.72 Q531.835 1560.97 536.418 1556.34 Q541.025 1551.69 542.205 1550.35 Q544.45 1547.82 545.33 1546.09 Q546.233 1544.33 546.233 1542.64 Q546.233 1539.88 544.288 1538.15 Q542.367 1536.41 539.265 1536.41 Q537.066 1536.41 534.613 1537.17 Q532.182 1537.94 529.404 1539.49 L529.404 1534.77 Q532.228 1533.63 534.682 1533.05 Q537.136 1532.47 539.173 1532.47 Q544.543 1532.47 547.737 1535.16 Q550.932 1537.85 550.932 1542.34 Q550.932 1544.47 550.122 1546.39 Q549.335 1548.28 547.228 1550.88 Q546.649 1551.55 543.548 1554.77 Q540.446 1557.96 534.798 1563.72 Z" fill="#000000" fill-rule="nonzero" fill-opacity="1" /><path clip-path="url(#clip780)" d="M996.307 1537.17 L984.501 1555.62 L996.307 1555.62 L996.307 1537.17 M995.08 1533.1 L1000.96 1533.1 L1000.96 1555.62 L1005.89 1555.62 L1005.89 1559.51 L1000.96 1559.51 L1000.96 1567.66 L996.307 1567.66 L996.307 1559.51 L980.705 1559.51 L980.705 1555 L995.08 1533.1 Z" fill="#000000" fill-rule="nonzero" fill-opacity="1" /><path clip-path="url(#clip780)" d="M1446.86 1548.52 Q1443.71 1548.52 1441.86 1550.67 Q1440.03 1552.82 1440.03 1556.57 Q1440.03 1560.3 1441.86 1562.47 Q1443.71 1564.63 1446.86 1564.63 Q1450 1564.63 1451.83 1562.47 Q1453.68 1560.3 1453.68 1556.57 Q1453.68 1552.82 1451.83 1550.67 Q1450 1548.52 1446.86 1548.52 M1456.14 1533.86 L1456.14 1538.12 Q1454.38 1537.29 1452.57 1536.85 Q1450.79 1536.41 1449.03 1536.41 Q1444.4 1536.41 1441.95 1539.53 Q1439.52 1542.66 1439.17 1548.98 Q1440.54 1546.97 1442.6 1545.9 Q1444.66 1544.81 1447.13 1544.81 Q1452.34 1544.81 1455.35 1547.98 Q1458.38 1551.13 1458.38 1556.57 Q1458.38 1561.9 1455.24 1565.11 Q1452.09 1568.33 1446.86 1568.33 Q1440.86 1568.33 1437.69 1563.75 Q1434.52 1559.14 1434.52 1550.41 Q1434.52 1542.22 1438.41 1537.36 Q1442.3 1532.47 1448.85 1532.47 Q1450.61 1532.47 1452.39 1532.82 Q1454.19 1533.17 1456.14 1533.86 Z" fill="#000000" fill-rule="nonzero" fill-opacity="1" /><path clip-path="url(#clip780)" d="M1899.6 1551.25 Q1896.27 1551.25 1894.35 1553.03 Q1892.45 1554.81 1892.45 1557.94 Q1892.45 1561.06 1894.35 1562.85 Q1896.27 1564.63 1899.6 1564.63 Q1902.94 1564.63 1904.86 1562.85 Q1906.78 1561.04 1906.78 1557.94 Q1906.78 1554.81 1904.86 1553.03 Q1902.96 1551.25 1899.6 1551.25 M1894.93 1549.26 Q1891.92 1548.52 1890.23 1546.46 Q1888.56 1544.4 1888.56 1541.43 Q1888.56 1537.29 1891.5 1534.88 Q1894.46 1532.47 1899.6 1532.47 Q1904.77 1532.47 1907.7 1534.88 Q1910.64 1537.29 1910.64 1541.43 Q1910.64 1544.4 1908.95 1546.46 Q1907.29 1548.52 1904.3 1549.26 Q1907.68 1550.04 1909.56 1552.34 Q1911.45 1554.63 1911.45 1557.94 Q1911.45 1562.96 1908.38 1565.65 Q1905.32 1568.33 1899.6 1568.33 Q1893.89 1568.33 1890.81 1565.65 Q1887.75 1562.96 1887.75 1557.94 Q1887.75 1554.63 1889.65 1552.34 Q1891.55 1550.04 1894.93 1549.26 M1893.21 1541.87 Q1893.21 1544.56 1894.88 1546.06 Q1896.57 1547.57 1899.6 1547.57 Q1902.61 1547.57 1904.3 1546.06 Q1906.02 1544.56 1906.02 1541.87 Q1906.02 1539.19 1904.3 1537.68 Q1902.61 1536.18 1899.6 1536.18 Q1896.57 1536.18 1894.88 1537.68 Q1893.21 1539.19 1893.21 1541.87 Z" fill="#000000" fill-rule="nonzero" fill-opacity="1" /><path clip-path="url(#clip780)" d="M2327.44 1563.72 L2335.08 1563.72 L2335.08 1537.36 L2326.77 1539.03 L2326.77 1534.77 L2335.04 1533.1 L2339.71 1533.1 L2339.71 1563.72 L2347.35 1563.72 L2347.35 1567.66 L2327.44 1567.66 L2327.44 1563.72 Z" fill="#000000" fill-rule="nonzero" fill-opacity="1" /><path clip-path="url(#clip780)" d="M2366.8 1536.18 Q2363.18 1536.18 2361.36 1539.74 Q2359.55 1543.28 2359.55 1550.41 Q2359.55 1557.52 2361.36 1561.09 Q2363.18 1564.63 2366.8 1564.63 Q2370.43 1564.63 2372.23 1561.09 Q2374.06 1557.52 2374.06 1550.41 Q2374.06 1543.28 2372.23 1539.74 Q2370.43 1536.18 2366.8 1536.18 M2366.8 1532.47 Q2372.61 1532.47 2375.66 1537.08 Q2378.74 1541.66 2378.74 1550.41 Q2378.74 1559.14 2375.66 1563.75 Q2372.61 1568.33 2366.8 1568.33 Q2360.99 1568.33 2357.91 1563.75 Q2354.85 1559.14 2354.85 1550.41 Q2354.85 1541.66 2357.91 1537.08 Q2360.99 1532.47 2366.8 1532.47 Z" fill="#000000" fill-rule="nonzero" fill-opacity="1" /><path clip-path="url(#clip780)" d="M1218.94 1604.35 L1218.94 1614.48 L1231 1614.48 L1231 1619.03 L1218.94 1619.03 L1218.94 1638.38 Q1218.94 1642.74 1220.11 1643.98 Q1221.32 1645.22 1224.98 1645.22 L1231 1645.22 L1231 1650.12 L1224.98 1650.12 Q1218.2 1650.12 1215.62 1647.61 Q1213.05 1645.06 1213.05 1638.38 L1213.05 1619.03 L1208.75 1619.03 L1208.75 1614.48 L1213.05 1614.48 L1213.05 1604.35 L1218.94 1604.35 Z" fill="#000000" fill-rule="nonzero" fill-opacity="1" /><polyline clip-path="url(#clip782)" style="stroke:#000000; stroke-linecap:round; stroke-linejoin:round; stroke-width:2; stroke-opacity:0.1; fill:none" points="86.9921,1464 2352.76,1464 "/>
<polyline clip-path="url(#clip782)" style="stroke:#000000; stroke-linecap:round; stroke-linejoin:round; stroke-width:2; stroke-opacity:0.1; fill:none" points="86.9921,1229.25 2352.76,1229.25 "/>
<polyline clip-path="url(#clip782)" style="stroke:#000000; stroke-linecap:round; stroke-linejoin:round; stroke-width:2; stroke-opacity:0.1; fill:none" points="86.9921,994.509 2352.76,994.509 "/>
<polyline clip-path="url(#clip782)" style="stroke:#000000; stroke-linecap:round; stroke-linejoin:round; stroke-width:2; stroke-opacity:0.1; fill:none" points="86.9921,759.766 2352.76,759.766 "/>
<polyline clip-path="url(#clip782)" style="stroke:#000000; stroke-linecap:round; stroke-linejoin:round; stroke-width:2; stroke-opacity:0.1; fill:none" points="86.9921,525.023 2352.76,525.023 "/>
<polyline clip-path="url(#clip782)" style="stroke:#000000; stroke-linecap:round; stroke-linejoin:round; stroke-width:2; stroke-opacity:0.1; fill:none" points="86.9921,290.28 2352.76,290.28 "/>
<polyline clip-path="url(#clip782)" style="stroke:#000000; stroke-linecap:round; stroke-linejoin:round; stroke-width:2; stroke-opacity:0.1; fill:none" points="86.9921,55.5371 2352.76,55.5371 "/>
<polyline clip-path="url(#clip780)" style="stroke:#000000; stroke-linecap:round; stroke-linejoin:round; stroke-width:4; stroke-opacity:1; fill:none" points="86.9921,1505.26 86.9921,47.2441 "/>
<polyline clip-path="url(#clip780)" style="stroke:#000000; stroke-linecap:round; stroke-linejoin:round; stroke-width:4; stroke-opacity:1; fill:none" points="86.9921,1464 105.89,1464 "/>
<polyline clip-path="url(#clip780)" style="stroke:#000000; stroke-linecap:round; stroke-linejoin:round; stroke-width:4; stroke-opacity:1; fill:none" points="86.9921,1229.25 105.89,1229.25 "/>
<polyline clip-path="url(#clip780)" style="stroke:#000000; stroke-linecap:round; stroke-linejoin:round; stroke-width:4; stroke-opacity:1; fill:none" points="86.9921,994.509 105.89,994.509 "/>
<polyline clip-path="url(#clip780)" style="stroke:#000000; stroke-linecap:round; stroke-linejoin:round; stroke-width:4; stroke-opacity:1; fill:none" points="86.9921,759.766 105.89,759.766 "/>
<polyline clip-path="url(#clip780)" style="stroke:#000000; stroke-linecap:round; stroke-linejoin:round; stroke-width:4; stroke-opacity:1; fill:none" points="86.9921,525.023 105.89,525.023 "/>
<polyline clip-path="url(#clip780)" style="stroke:#000000; stroke-linecap:round; stroke-linejoin:round; stroke-width:4; stroke-opacity:1; fill:none" points="86.9921,290.28 105.89,290.28 "/>
<polyline clip-path="url(#clip780)" style="stroke:#000000; stroke-linecap:round; stroke-linejoin:round; stroke-width:4; stroke-opacity:1; fill:none" points="86.9921,55.5371 105.89,55.5371 "/>
<path clip-path="url(#clip780)" d="M39.0477 1449.79 Q35.4367 1449.79 33.608 1453.36 Q31.8024 1456.9 31.8024 1464.03 Q31.8024 1471.14 33.608 1474.7 Q35.4367 1478.24 39.0477 1478.24 Q42.682 1478.24 44.4875 1474.7 Q46.3162 1471.14 46.3162 1464.03 Q46.3162 1456.9 44.4875 1453.36 Q42.682 1449.79 39.0477 1449.79 M39.0477 1446.09 Q44.8579 1446.09 47.9134 1450.7 Q50.9921 1455.28 50.9921 1464.03 Q50.9921 1472.76 47.9134 1477.36 Q44.8579 1481.95 39.0477 1481.95 Q33.2376 1481.95 30.1589 1477.36 Q27.1034 1472.76 27.1034 1464.03 Q27.1034 1455.28 30.1589 1450.7 Q33.2376 1446.09 39.0477 1446.09 Z" fill="#000000" fill-rule="nonzero" fill-opacity="1" /><path clip-path="url(#clip780)" d="M31.0848 1242.6 L38.7237 1242.6 L38.7237 1216.23 L30.4135 1217.9 L30.4135 1213.64 L38.6774 1211.97 L43.3533 1211.97 L43.3533 1242.6 L50.9921 1242.6 L50.9921 1246.53 L31.0848 1246.53 L31.0848 1242.6 Z" fill="#000000" fill-rule="nonzero" fill-opacity="1" /><path clip-path="url(#clip780)" d="M34.6728 1007.85 L50.9921 1007.85 L50.9921 1011.79 L29.0478 1011.79 L29.0478 1007.85 Q31.7098 1005.1 36.2931 1000.47 Q40.8996 995.817 42.0801 994.474 Q44.3255 991.951 45.2051 990.215 Q46.1079 988.456 46.1079 986.766 Q46.1079 984.012 44.1635 982.275 Q42.2422 980.539 39.1403 980.539 Q36.9413 980.539 34.4876 981.303 Q32.057 982.067 29.2793 983.618 L29.2793 978.896 Q32.1033 977.762 34.557 977.183 Q37.0107 976.604 39.0477 976.604 Q44.4181 976.604 47.6125 979.289 Q50.8069 981.975 50.8069 986.465 Q50.8069 988.595 49.9968 990.516 Q49.2097 992.414 47.1033 995.007 Q46.5246 995.678 43.4227 998.896 Q40.3209 1002.09 34.6728 1007.85 Z" fill="#000000" fill-rule="nonzero" fill-opacity="1" /><path clip-path="url(#clip780)" d="M43.8625 758.412 Q47.219 759.13 49.094 761.398 Q50.9921 763.667 50.9921 767 Q50.9921 772.116 47.4736 774.917 Q43.9551 777.717 37.4737 777.717 Q35.2978 777.717 32.983 777.278 Q30.6913 776.861 28.2376 776.005 L28.2376 771.491 Q30.1821 772.625 32.4969 773.204 Q34.8117 773.782 37.3348 773.782 Q41.7329 773.782 44.0246 772.046 Q46.3394 770.31 46.3394 767 Q46.3394 763.944 44.1866 762.231 Q42.057 760.495 38.2376 760.495 L34.2098 760.495 L34.2098 756.653 L38.4227 756.653 Q41.8718 756.653 43.7005 755.287 Q45.5292 753.898 45.5292 751.306 Q45.5292 748.644 43.6311 747.232 Q41.7561 745.796 38.2376 745.796 Q36.3163 745.796 34.1172 746.213 Q31.9182 746.63 29.2793 747.509 L29.2793 743.343 Q31.9413 742.602 34.2561 742.232 Q36.5941 741.861 38.6542 741.861 Q43.9783 741.861 47.0801 744.292 Q50.1819 746.699 50.1819 750.819 Q50.1819 753.69 48.5384 755.681 Q46.8949 757.648 43.8625 758.412 Z" fill="#000000" fill-rule="nonzero" fill-opacity="1" /><path clip-path="url(#clip780)" d="M41.4088 511.817 L29.6034 530.266 L41.4088 530.266 L41.4088 511.817 M40.182 507.743 L46.0616 507.743 L46.0616 530.266 L50.9921 530.266 L50.9921 534.155 L46.0616 534.155 L46.0616 542.303 L41.4088 542.303 L41.4088 534.155 L25.8071 534.155 L25.8071 529.641 L40.182 507.743 Z" fill="#000000" fill-rule="nonzero" fill-opacity="1" /><path clip-path="url(#clip780)" d="M30.0895 273 L48.4458 273 L48.4458 276.935 L34.3718 276.935 L34.3718 285.407 Q35.3904 285.06 36.4089 284.898 Q37.4274 284.713 38.4459 284.713 Q44.2329 284.713 47.6125 287.884 Q50.9921 291.056 50.9921 296.472 Q50.9921 302.051 47.5199 305.153 Q44.0477 308.231 37.7283 308.231 Q35.5524 308.231 33.2839 307.861 Q31.0385 307.491 28.6311 306.75 L28.6311 302.051 Q30.7145 303.185 32.9367 303.741 Q35.1589 304.296 37.6357 304.296 Q41.6403 304.296 43.9783 302.19 Q46.3162 300.083 46.3162 296.472 Q46.3162 292.861 43.9783 290.755 Q41.6403 288.648 37.6357 288.648 Q35.7607 288.648 33.8857 289.065 Q32.0339 289.482 30.0895 290.361 L30.0895 273 Z" fill="#000000" fill-rule="nonzero" fill-opacity="1" /><path clip-path="url(#clip780)" d="M39.4644 53.6737 Q36.3163 53.6737 34.4644 55.8265 Q32.6357 57.9792 32.6357 61.7292 Q32.6357 65.4561 34.4644 67.632 Q36.3163 69.7847 39.4644 69.7847 Q42.6125 69.7847 44.4412 67.632 Q46.2931 65.4561 46.2931 61.7292 Q46.2931 57.9792 44.4412 55.8265 Q42.6125 53.6737 39.4644 53.6737 M48.7468 39.021 L48.7468 43.2802 Q46.9875 42.4469 45.182 42.0071 Q43.3996 41.5673 41.6403 41.5673 Q37.0107 41.5673 34.557 44.6923 Q32.1265 47.8173 31.7793 54.1367 Q33.145 52.1228 35.2052 51.058 Q37.2653 49.97 39.7422 49.97 Q44.9505 49.97 47.9597 53.1413 Q50.9921 56.2894 50.9921 61.7292 Q50.9921 67.0533 47.844 70.2708 Q44.6959 73.4884 39.4644 73.4884 Q33.4691 73.4884 30.2978 68.9051 Q27.1265 64.2986 27.1265 55.5718 Q27.1265 47.3774 31.0154 42.5164 Q34.9042 37.6321 41.4551 37.6321 Q43.2144 37.6321 44.9968 37.9793 Q46.8023 38.3266 48.7468 39.021 Z" fill="#000000" fill-rule="nonzero" fill-opacity="1" /><polyline clip-path="url(#clip782)" style="stroke:#009af9; stroke-linecap:round; stroke-linejoin:round; stroke-width:4; stroke-opacity:1; fill:none" points="86.9921,1092.43 313.569,206.531 540.145,88.5087 766.721,121.104 993.298,181.013 1219.87,243.715 1446.45,304.439 1673.03,362.359 1899.6,417.429 2126.18,469.755 2352.76,519.467 "/>
<polyline clip-path="url(#clip782)" style="stroke:#e26f46; stroke-linecap:round; stroke-linejoin:round; stroke-width:4; stroke-opacity:1; fill:none" points="86.9921,1318.11 313.569,1434.82 540.145,1458.16 766.721,1462.83 993.298,1463.76 1219.87,1463.95 1446.45,1463.99 1673.03,1463.99 1899.6,1463.99 2126.18,1464 2352.76,1464 "/>
<path clip-path="url(#clip780)" d="M1942.97 251.365 L2277.23 251.365 L2277.23 95.8446 L1942.97 95.8446  Z" fill="#ffffff" fill-rule="evenodd" fill-opacity="1"/>
<polyline clip-path="url(#clip780)" style="stroke:#000000; stroke-linecap:round; stroke-linejoin:round; stroke-width:4; stroke-opacity:1; fill:none" points="1942.97,251.365 2277.23,251.365 2277.23,95.8446 1942.97,95.8446 1942.97,251.365 "/>
<polyline clip-path="url(#clip780)" style="stroke:#009af9; stroke-linecap:round; stroke-linejoin:round; stroke-width:4; stroke-opacity:1; fill:none" points="1968.14,147.685 2119.2,147.685 "/>
<path clip-path="url(#clip780)" d="M2144.37 154.733 L2144.37 139.039 L2148.63 139.039 L2148.63 154.571 Q2148.63 158.252 2150.07 160.104 Q2151.5 161.932 2154.37 161.932 Q2157.82 161.932 2159.81 159.733 Q2161.82 157.534 2161.82 153.738 L2161.82 139.039 L2166.08 139.039 L2166.08 164.965 L2161.82 164.965 L2161.82 160.983 Q2160.27 163.344 2158.21 164.502 Q2156.18 165.636 2153.47 165.636 Q2149 165.636 2146.69 162.858 Q2144.37 160.08 2144.37 154.733 M2155.09 138.414 L2155.09 138.414 Z" fill="#000000" fill-rule="nonzero" fill-opacity="1" /><path clip-path="url(#clip780)" d="M2176.27 161.029 L2183.91 161.029 L2183.91 134.664 L2175.6 136.331 L2175.6 132.071 L2183.86 130.405 L2188.54 130.405 L2188.54 161.029 L2196.18 161.029 L2196.18 164.965 L2176.27 164.965 L2176.27 161.029 Z" fill="#000000" fill-rule="nonzero" fill-opacity="1" /><path clip-path="url(#clip780)" d="M2215.25 128.993 Q2212.15 134.317 2210.64 139.525 Q2209.14 144.733 2209.14 150.08 Q2209.14 155.428 2210.64 160.682 Q2212.17 165.914 2215.25 171.215 L2211.55 171.215 Q2208.07 165.775 2206.34 160.52 Q2204.62 155.266 2204.62 150.08 Q2204.62 144.918 2206.34 139.687 Q2208.05 134.456 2211.55 128.993 L2215.25 128.993 Z" fill="#000000" fill-rule="nonzero" fill-opacity="1" /><path clip-path="url(#clip780)" d="M2227.73 131.678 L2227.73 139.039 L2236.5 139.039 L2236.5 142.349 L2227.73 142.349 L2227.73 156.423 Q2227.73 159.594 2228.58 160.497 Q2229.46 161.4 2232.12 161.4 L2236.5 161.4 L2236.5 164.965 L2232.12 164.965 Q2227.19 164.965 2225.32 163.136 Q2223.44 161.284 2223.44 156.423 L2223.44 142.349 L2220.32 142.349 L2220.32 139.039 L2223.44 139.039 L2223.44 131.678 L2227.73 131.678 Z" fill="#000000" fill-rule="nonzero" fill-opacity="1" /><path clip-path="url(#clip780)" d="M2241.43 128.993 L2245.13 128.993 Q2248.61 134.456 2250.32 139.687 Q2252.06 144.918 2252.06 150.08 Q2252.06 155.266 2250.32 160.52 Q2248.61 165.775 2245.13 171.215 L2241.43 171.215 Q2244.51 165.914 2246.01 160.682 Q2247.54 155.428 2247.54 150.08 Q2247.54 144.733 2246.01 139.525 Q2244.51 134.317 2241.43 128.993 Z" fill="#000000" fill-rule="nonzero" fill-opacity="1" /><polyline clip-path="url(#clip780)" style="stroke:#e26f46; stroke-linecap:round; stroke-linejoin:round; stroke-width:4; stroke-opacity:1; fill:none" points="1968.14,199.525 2119.2,199.525 "/>
<path clip-path="url(#clip780)" d="M2144.37 206.573 L2144.37 190.879 L2148.63 190.879 L2148.63 206.411 Q2148.63 210.092 2150.07 211.944 Q2151.5 213.772 2154.37 213.772 Q2157.82 213.772 2159.81 211.573 Q2161.82 209.374 2161.82 205.578 L2161.82 190.879 L2166.08 190.879 L2166.08 216.805 L2161.82 216.805 L2161.82 212.823 Q2160.27 215.184 2158.21 216.342 Q2156.18 217.476 2153.47 217.476 Q2149 217.476 2146.69 214.698 Q2144.37 211.92 2144.37 206.573 M2155.09 190.254 L2155.09 190.254 Z" fill="#000000" fill-rule="nonzero" fill-opacity="1" /><path clip-path="url(#clip780)" d="M2179.49 212.869 L2195.81 212.869 L2195.81 216.805 L2173.86 216.805 L2173.86 212.869 Q2176.52 210.115 2181.11 205.485 Q2185.71 200.832 2186.89 199.49 Q2189.14 196.967 2190.02 195.231 Q2190.92 193.471 2190.92 191.782 Q2190.92 189.027 2188.98 187.291 Q2187.06 185.555 2183.95 185.555 Q2181.75 185.555 2179.3 186.319 Q2176.87 187.083 2174.09 188.633 L2174.09 183.911 Q2176.92 182.777 2179.37 182.198 Q2181.82 181.62 2183.86 181.62 Q2189.23 181.62 2192.43 184.305 Q2195.62 186.99 2195.62 191.481 Q2195.62 193.61 2194.81 195.532 Q2194.02 197.43 2191.92 200.022 Q2191.34 200.694 2188.24 203.911 Q2185.13 207.106 2179.49 212.869 Z" fill="#000000" fill-rule="nonzero" fill-opacity="1" /><path clip-path="url(#clip780)" d="M2215.25 180.833 Q2212.15 186.157 2210.64 191.365 Q2209.14 196.573 2209.14 201.92 Q2209.14 207.268 2210.64 212.522 Q2212.17 217.754 2215.25 223.055 L2211.55 223.055 Q2208.07 217.615 2206.34 212.36 Q2204.62 207.106 2204.62 201.92 Q2204.62 196.758 2206.34 191.527 Q2208.05 186.296 2211.55 180.833 L2215.25 180.833 Z" fill="#000000" fill-rule="nonzero" fill-opacity="1" /><path clip-path="url(#clip780)" d="M2227.73 183.518 L2227.73 190.879 L2236.5 190.879 L2236.5 194.189 L2227.73 194.189 L2227.73 208.263 Q2227.73 211.434 2228.58 212.337 Q2229.46 213.24 2232.12 213.24 L2236.5 213.24 L2236.5 216.805 L2232.12 216.805 Q2227.19 216.805 2225.32 214.976 Q2223.44 213.124 2223.44 208.263 L2223.44 194.189 L2220.32 194.189 L2220.32 190.879 L2223.44 190.879 L2223.44 183.518 L2227.73 183.518 Z" fill="#000000" fill-rule="nonzero" fill-opacity="1" /><path clip-path="url(#clip780)" d="M2241.43 180.833 L2245.13 180.833 Q2248.61 186.296 2250.32 191.527 Q2252.06 196.758 2252.06 201.92 Q2252.06 207.106 2250.32 212.36 Q2248.61 217.615 2245.13 223.055 L2241.43 223.055 Q2244.51 217.754 2246.01 212.522 Q2247.54 207.268 2247.54 201.92 Q2247.54 196.573 2246.01 191.365 Q2244.51 186.157 2241.43 180.833 Z" fill="#000000" fill-rule="nonzero" fill-opacity="1" /></svg>
