<?xml version="1.0" encoding="utf-8"?>
<svg xmlns="http://www.w3.org/2000/svg" xmlns:xlink="http://www.w3.org/1999/xlink" width="600" height="400" viewBox="0 0 2400 1600">
<defs>
  <clipPath id="clip660">
    <rect x="0" y="0" width="2400" height="1600"/>
  </clipPath>
</defs>
<path clip-path="url(#clip660)" d="M0 1600 L2400 1600 L2400 0 L0 0  Z" fill="#ffffff" fill-rule="evenodd" fill-opacity="1"/>
<defs>
  <clipPath id="clip661">
    <rect x="480" y="0" width="1681" height="1600"/>
  </clipPath>
</defs>
<path clip-path="url(#clip660)" d="M86.9921 1505.26 L2352.76 1505.26 L2352.76 47.2441 L86.9921 47.2441  Z" fill="#ffffff" fill-rule="evenodd" fill-opacity="1"/>
<defs>
  <clipPath id="clip662">
    <rect x="86" y="47" width="2267" height="1459"/>
  </clipPath>
</defs>
<polyline clip-path="url(#clip662)" style="stroke:#000000; stroke-linecap:round; stroke-linejoin:round; stroke-width:2; stroke-opacity:0.1; fill:none" points="86.9921,1505.26 86.9921,47.2441 "/>
<polyline clip-path="url(#clip662)" style="stroke:#000000; stroke-linecap:round; stroke-linejoin:round; stroke-width:2; stroke-opacity:0.1; fill:none" points="540.145,1505.26 540.145,47.2441 "/>
<polyline clip-path="url(#clip662)" style="stroke:#000000; stroke-linecap:round; stroke-linejoin:round; stroke-width:2; stroke-opacity:0.1; fill:none" points="993.298,1505.26 993.298,47.2441 "/>
<polyline clip-path="url(#clip662)" style="stroke:#000000; stroke-linecap:round; stroke-linejoin:round; stroke-width:2; stroke-opacity:0.1; fill:none" points="1446.45,1505.26 1446.45,47.2441 "/>
<polyline clip-path="url(#clip662)" style="stroke:#000000; stroke-linecap:round; stroke-linejoin:round; stroke-width:2; stroke-opacity:0.1; fill:none" points="1899.6,1505.26 1899.6,47.2441 "/>
<polyline clip-path="url(#clip662)" style="stroke:#000000; stroke-linecap:round; stroke-linejoin:round; stroke-width:2; stroke-opacity:0.1; fill:none" points="2352.76,1505.26 2352.76,47.2441 "/>
<polyline clip-path="url(#clip660)" style="stroke:#000000; stroke-linecap:round; stroke-linejoin:round; stroke-width:4; stroke-opacity:1; fill:none" points="86.9921,1505.26 2352.76,1505.26 "/>
<polyline clip-path="url(#clip660)" style="stroke:#000000; stroke-linecap:round; stroke-linejoin:round; stroke-width:4; stroke-opacity:1; fill:none" points="86.9921,1505.26 86.9921,1486.36 "/>
<polyline clip-path="url(#clip660)" style="stroke:#000000; stroke-linecap:round; stroke-linejoin:round; stroke-width:4; stroke-opacity:1; fill:none" points="540.145,1505.26 540.145,1486.36 "/>
<polyline clip-path="url(#clip660)" style="stroke:#000000; stroke-linecap:round; stroke-linejoin:round; stroke-width:4; stroke-opacity:1; fill:none" points="993.298,1505.26 993.298,1486.36 "/>
<polyline clip-path="url(#clip660)" style="stroke:#000000; stroke-linecap:round; stroke-linejoin:round; stroke-width:4; stroke-opacity:1; fill:none" points="1446.45,1505.26 1446.45,1486.36 "/>
<polyline clip-path="url(#clip660)" style="stroke:#000000; stroke-linecap:round; stroke-linejoin:round; stroke-width:4; stroke-opacity:1; fill:none" points="1899.6,1505.26 1899.6,1486.36 "/>
<polyline clip-path="url(#clip660)" style="stroke:#000000; stroke-linecap:round; stroke-linejoin:round; stroke-width:4; stroke-opacity:1; fill:none" points="2352.76,1505.26 2352.76,1486.36 "/>
<path clip-path="url(#clip660)" d="M86.9921 1536.18 Q83.381 1536.18 81.5523 1539.74 Q79.7468 1543.28 79.7468 1550.41 Q79.7468 1557.52 81.5523 1561.09 Q83.381 1564.63 86.9921 1564.63 Q90.6264 1564.63 92.4319 1561.09 Q94.2606 1557.52 94.2606 1550.41 Q94.2606 1543.28 92.4319 1539.74 Q90.6264 1536.18 86.9921 1536.18 M86.9921 1532.47 Q92.8023 1532.47 95.8578 1537.08 Q98.9365 1541.66 98.9365 1550.41 Q98.9365 1559.14 95.8578 1563.75 Q92.8023 1568.33 86.9921 1568.33 Q81.182 1568.33 78.1033 1563.75 Q75.0477 1559.14 75.0477 1550.41 Q75.0477 1541.66 78.1033 1537.08 Q81.182 1532.47 86.9921 1532.47 Z" fill="#000000" fill-rule="nonzero" fill-opacity="1" /><path clip-path="url(#clip660)" d="M534.798 1563.72 L551.117 1563.72 L551.117 1567.66 L529.173 1567.66 L529.173 1563.72 Q531.835 1560.97 536.418 1556.34 Q541.025 1551.69 542.205 1550.35 Q544.45 1547.82 545.33 1546.09 Q546.233 1544.33 546.233 1542.64 Q546.233 1539.88 544.288 1538.15 Q542.367 1536.41 539.265 1536.41 Q537.066 1536.41 534.613 1537.17 Q532.182 1537.94 529.404 1539.49 L529.404 1534.77 Q532.228 1533.63 534.682 1533.05 Q537.136 1532.47 539.173 1532.47 Q544.543 1532.47 547.737 1535.16 Q550.932 1537.85 550.932 1542.34 Q550.932 1544.47 550.122 1546.39 Q549.335 1548.28 547.228 1550.88 Q546.649 1551.55 543.548 1554.77 Q540.446 1557.96 534.798 1563.72 Z" fill="#000000" fill-rule="nonzero" fill-opacity="1" /><path clip-path="url(#clip660)" d="M996.307 1537.17 L984.501 1555.62 L996.307 1555.62 L996.307 1537.17 M995.08 1533.1 L1000.96 1533.1 L1000.96 1555.62 L1005.89 1555.62 L1005.89 1559.51 L1000.96 1559.51 L1000.96 1567.66 L996.307 1567.66 L996.307 1559.51 L980.705 1559.51 L980.705 1555 L995.08 1533.1 Z" fill="#000000" fill-rule="nonzero" fill-opacity="1" /><path clip-path="url(#clip660)" d="M1446.86 1548.52 Q1443.71 1548.52 1441.86 1550.67 Q1440.03 1552.82 1440.03 1556.57 Q1440.03 1560.3 1441.86 1562.47 Q1443.71 1564.63 1446.86 1564.63 Q1450 1564.63 1451.83 1562.47 Q1453.68 1560.3 1453.68 1556.57 Q1453.68 1552.82 1451.83 1550.67 Q1450 1548.52 1446.86 1548.52 M1456.14 1533.86 L1456.14 1538.12 Q1454.38 1537.29 1452.57 1536.85 Q1450.79 1536.41 1449.03 1536.41 Q1444.4 1536.41 1441.95 1539.53 Q1439.52 1542.66 1439.17 1548.98 Q1440.54 1546.97 1442.6 1545.9 Q1444.66 1544.81 1447.13 1544.81 Q1452.34 1544.81 1455.35 1547.98 Q1458.38 1551.13 1458.38 1556.57 Q1458.38 1561.9 1455.24 1565.11 Q1452.09 1568.33 1446.86 1568.33 Q1440.86 1568.33 1437.69 1563.75 Q1434.52 1559.14 1434.52 1550.41 Q1434.52 1542.22 1438.41 1537.36 Q1442.3 1532.47 1448.85 1532.47 Q1450.61 1532.47 1452.39 1532.82 Q1454.19 1533.17 1456.14 1533.86 Z" fill="#000000" fill-rule="nonzero" fill-opacity="1" /><path clip-path="url(#clip660)" d="M1899.6 1551.25 Q1896.27 1551.25 1894.35 1553.03 Q1892.45 1554.81 1892.45 1557.94 Q1892.45 1561.06 1894.35 1562.85 Q1896.27 1564.63 1899.6 1564.63 Q1902.94 1564.63 1904.86 1562.85 Q1906.78 1561.04 1906.78 1557.94 Q1906.78 1554.81 1904.86 1553.03 Q1902.96 1551.25 1899.6 1551.25 M1894.93 1549.26 Q1891.92 1548.52 1890.23 1546.46 Q1888.56 1544.4 1888.56 1541.43 Q1888.56 1537.29 1891.5 1534.88 Q1894.46 1532.47 1899.6 1532.47 Q1904.77 1532.47 1907.7 1534.88 Q1910.64 1537.29 1910.64 1541.43 Q1910.64 1544.4 1908.95 1546.46 Q1907.29 1548.52 1904.3 1549.26 Q1907.68 1550.04 1909.56 1552.34 Q1911.45 1554.63 1911.45 1557.94 Q1911.45 1562.96 1908.38 1565.65 Q1905.32 1568.33 1899.6 1568.33 Q1893.89 1568.33 1890.81 1565.65 Q1887.75 1562.96 1887.75 1557.94 Q1887.75 1554.63 1889.65 1552.34 Q1891.55 1550.04 1894.93 1549.26 M1893.21 1541.87 Q1893.21 1544.56 1894.88 1546.06 Q1896.57 1547.57 1899.6 1547.57 Q1902.61 1547.57 1904.3 1546.06 Q1906.02 1544.56 1906.02 1541.87 Q1906.02 1539.19 1904.3 1537.68 Q1902.61 1536.18 1899.6 1536.18 Q1896.57 1536.18 1894.88 1537.68 Q1893.21 1539.19 1893.21 1541.87 Z" fill="#000000" fill-rule="nonzero" fill-opacity="1" /><path clip-path="url(#clip660)" d="M2327.44 1563.72 L2335.08 1563.72 L2335.08 1537.36 L2326.77 1539.03 L2326.77 1534.77 L2335.04 1533.1 L2339.71 1533.1 L2339.71 1563.72 L2347.35 1563.72 L2347.35 1567.66 L2327.44 1567.66 L2327.44 1563.72 Z" fill="#000000" fill-rule="nonzero" fill-opacity="1" /><path clip-path="url(#clip660)" d="M2366.8 1536.18 Q2363.18 1536.18 2361.36 1539.74 Q2359.55 1543.28 2359.55 1550.41 Q2359.55 1557.52 2361.36 1561.09 Q2363.18 1564.63 2366.8 1564.63 Q2370.43 1564.63 2372.23 1561.09 Q2374.06 1557.52 2374.06 1550.41 Q2374.06 1543.28 2372.23 1539.74 Q2370.43 1536.18 2366.8 1536.18 M2366.8 1532.47 Q2372.61 1532.47 2375.66 1537.08 Q2378.74 1541.66 2378.74 1550.41 Q2378.74 1559.14 2375.66 1563.75 Q2372.61 1568.33 2366.8 1568.33 Q2360.99 1568.33 2357.91 1563.75 Q2354.85 1559.14 2354.85 1550.41 Q2354.85 1541.66 2357.91 1537.08 Q2360.99 1532.47 2366.8 1532.47 Z" fill="#000000" fill-rule="nonzero" fill-opacity="1" /><path clip-path="url(#clip660)" d="M1218.94 1604.35 L1218.94 1614.48 L1231 1614.48 L1231 1619.03 L1218.94 1619.03 L1218.94 1638.38 Q1218.94 1642.74 1220.11 1643.98 Q1221.32 1645.22 1224.98 1645.22 L1231 1645.22 L1231 1650.12 L1224.98 1650.12 Q1218.2 1650.12 1215.62 1647.61 Q1213.05 1645.06 1213.05 1638.38 L1213.05 1619.03 L1208.75 1619.03 L1208.75 1614.48 L1213.05 1614.48 L1213.05 1604.35 L1218.94 1604.35 Z" fill="#000000" fill-rule="nonzero" fill-opacity="1" /><polyline clip-path="url(#clip662)" style="stroke:#000000; stroke-linecap:round; stroke-linejoin:round; stroke-width:2; stroke-opacity:0.1; fill:none" points="86.9921,1411.66 2352.76,1411.66 "/>
<polyline clip-path="url(#clip662)" style="stroke:#000000; stroke-linecap:round; stroke-linejoin:round; stroke-width:2; stroke-opacity:0.1; fill:none" points="86.9921,1169.95 2352.76,1169.95 "/>
<polyline clip-path="url(#clip662)" style="stroke:#000000; stroke-linecap:round; stroke-linejoin:round; stroke-width:2; stroke-opacity:0.1; fill:none" points="86.9921,928.231 2352.76,928.231 "/>
<polyline clip-path="url(#clip662)" style="stroke:#000000; stroke-linecap:round; stroke-linejoin:round; stroke-width:2; stroke-opacity:0.1; fill:none" points="86.9921,686.516 2352.76,686.516 "/>
<polyline clip-path="url(#clip662)" style="stroke:#000000; stroke-linecap:round; stroke-linejoin:round; stroke-width:2; stroke-opacity:0.1; fill:none" points="86.9921,444.801 2352.76,444.801 "/>
<polyline clip-path="url(#clip662)" style="stroke:#000000; stroke-linecap:round; stroke-linejoin:round; stroke-width:2; stroke-opacity:0.1; fill:none" points="86.9921,203.086 2352.76,203.086 "/>
<polyline clip-path="url(#clip660)" style="stroke:#000000; stroke-linecap:round; stroke-linejoin:round; stroke-width:4; stroke-opacity:1; fill:none" points="86.9921,1505.26 86.9921,47.2441 "/>
<polyline clip-path="url(#clip660)" style="stroke:#000000; stroke-linecap:round; stroke-linejoin:round; stroke-width:4; stroke-opacity:1; fill:none" points="86.9921,1411.66 105.89,1411.66 "/>
<polyline clip-path="url(#clip660)" style="stroke:#000000; stroke-linecap:round; stroke-linejoin:round; stroke-width:4; stroke-opacity:1; fill:none" points="86.9921,1169.95 105.89,1169.95 "/>
<polyline clip-path="url(#clip660)" style="stroke:#000000; stroke-linecap:round; stroke-linejoin:round; stroke-width:4; stroke-opacity:1; fill:none" points="86.9921,928.231 105.89,928.231 "/>
<polyline clip-path="url(#clip660)" style="stroke:#000000; stroke-linecap:round; stroke-linejoin:round; stroke-width:4; stroke-opacity:1; fill:none" points="86.9921,686.516 105.89,686.516 "/>
<polyline clip-path="url(#clip660)" style="stroke:#000000; stroke-linecap:round; stroke-linejoin:round; stroke-width:4; stroke-opacity:1; fill:none" points="86.9921,444.801 105.89,444.801 "/>
<polyline clip-path="url(#clip660)" style="stroke:#000000; stroke-linecap:round; stroke-linejoin:round; stroke-width:4; stroke-opacity:1; fill:none" points="86.9921,203.086 105.89,203.086 "/>
<path clip-path="url(#clip660)" d="M-36.3454 1397.46 Q-39.9565 1397.46 -41.7852 1401.02 Q-43.5907 1404.57 -43.5907 1411.7 Q-43.5907 1418.8 -41.7852 1422.37 Q-39.9565 1425.91 -36.3454 1425.91 Q-32.7111 1425.91 -30.9056 1422.37 Q-29.0769 1418.8 -29.0769 1411.7 Q-29.0769 1404.57 -30.9056 1401.02 Q-32.7111 1397.46 -36.3454 1397.46 M-36.3454 1393.76 Q-30.5352 1393.76 -27.4797 1398.36 Q-24.401 1402.95 -24.401 1411.7 Q-24.401 1420.42 -27.4797 1425.03 Q-30.5352 1429.61 -36.3454 1429.61 Q-42.1555 1429.61 -45.2342 1425.03 Q-48.2897 1420.42 -48.2897 1411.7 Q-48.2897 1402.95 -45.2342 1398.36 Q-42.1555 1393.76 -36.3454 1393.76 Z" fill="#000000" fill-rule="nonzero" fill-opacity="1" /><path clip-path="url(#clip660)" d="M-16.1834 1423.06 L-11.2992 1423.06 L-11.2992 1428.94 L-16.1834 1428.94 L-16.1834 1423.06 Z" fill="#000000" fill-rule="nonzero" fill-opacity="1" /><path clip-path="url(#clip660)" d="M8.88587 1397.46 Q5.27478 1397.46 3.44608 1401.02 Q1.64054 1404.57 1.64054 1411.7 Q1.64054 1418.8 3.44608 1422.37 Q5.27478 1425.91 8.88587 1425.91 Q12.5201 1425.91 14.3257 1422.37 Q16.1543 1418.8 16.1543 1411.7 Q16.1543 1404.57 14.3257 1401.02 Q12.5201 1397.46 8.88587 1397.46 M8.88587 1393.76 Q14.696 1393.76 17.7516 1398.36 Q20.8303 1402.95 20.8303 1411.7 Q20.8303 1420.42 17.7516 1425.03 Q14.696 1429.61 8.88587 1429.61 Q3.07572 1429.61 -0.00297114 1425.03 Q-3.05851 1420.42 -3.05851 1411.7 Q-3.05851 1402.95 -0.00297114 1398.36 Q3.07572 1393.76 8.88587 1393.76 Z" fill="#000000" fill-rule="nonzero" fill-opacity="1" /><path clip-path="url(#clip660)" d="M39.0477 1397.46 Q35.4367 1397.46 33.608 1401.02 Q31.8024 1404.57 31.8024 1411.7 Q31.8024 1418.8 33.608 1422.37 Q35.4367 1425.91 39.0477 1425.91 Q42.682 1425.91 44.4875 1422.37 Q46.3162 1418.8 46.3162 1411.7 Q46.3162 1404.57 44.4875 1401.02 Q42.682 1397.46 39.0477 1397.46 M39.0477 1393.76 Q44.8579 1393.76 47.9134 1398.36 Q50.9921 1402.95 50.9921 1411.7 Q50.9921 1420.42 47.9134 1425.03 Q44.8579 1429.61 39.0477 1429.61 Q33.2376 1429.61 30.1589 1425.03 Q27.1034 1420.42 27.1034 1411.7 Q27.1034 1402.95 30.1589 1398.36 Q33.2376 1393.76 39.0477 1393.76 Z" fill="#000000" fill-rule="nonzero" fill-opacity="1" /><path clip-path="url(#clip660)" d="M-35.35 1155.74 Q-38.9611 1155.74 -40.7898 1159.31 Q-42.5953 1162.85 -42.5953 1169.98 Q-42.5953 1177.09 -40.7898 1180.65 Q-38.9611 1184.19 -35.35 1184.19 Q-31.7158 1184.19 -29.9102 1180.65 Q-28.0815 1177.09 -28.0815 1169.98 Q-28.0815 1162.85 -29.9102 1159.31 Q-31.7158 1155.74 -35.35 1155.74 M-35.35 1152.04 Q-29.5398 1152.04 -26.4843 1156.65 Q-23.4056 1161.23 -23.4056 1169.98 Q-23.4056 1178.71 -26.4843 1183.31 Q-29.5398 1187.9 -35.35 1187.9 Q-41.1602 1187.9 -44.2388 1183.31 Q-47.2944 1178.71 -47.2944 1169.98 Q-47.2944 1161.23 -44.2388 1156.65 Q-41.1602 1152.04 -35.35 1152.04 Z" fill="#000000" fill-rule="nonzero" fill-opacity="1" /><path clip-path="url(#clip660)" d="M-15.1881 1181.35 L-10.3038 1181.35 L-10.3038 1187.23 L-15.1881 1187.23 L-15.1881 1181.35 Z" fill="#000000" fill-rule="nonzero" fill-opacity="1" /><path clip-path="url(#clip660)" d="M9.88124 1155.74 Q6.27014 1155.74 4.44145 1159.31 Q2.6359 1162.85 2.6359 1169.98 Q2.6359 1177.09 4.44145 1180.65 Q6.27014 1184.19 9.88124 1184.19 Q13.5155 1184.19 15.321 1180.65 Q17.1497 1177.09 17.1497 1169.98 Q17.1497 1162.85 15.321 1159.31 Q13.5155 1155.74 9.88124 1155.74 M9.88124 1152.04 Q15.6914 1152.04 18.7469 1156.65 Q21.8256 1161.23 21.8256 1169.98 Q21.8256 1178.71 18.7469 1183.31 Q15.6914 1187.9 9.88124 1187.9 Q4.07108 1187.9 0.992394 1183.31 Q-2.06315 1178.71 -2.06315 1169.98 Q-2.06315 1161.23 0.992394 1156.65 Q4.07108 1152.04 9.88124 1152.04 Z" fill="#000000" fill-rule="nonzero" fill-opacity="1" /><path clip-path="url(#clip660)" d="M30.0895 1152.67 L48.4458 1152.67 L48.4458 1156.6 L34.3718 1156.6 L34.3718 1165.07 Q35.3904 1164.73 36.4089 1164.56 Q37.4274 1164.38 38.4459 1164.38 Q44.2329 1164.38 47.6125 1167.55 Q50.9921 1170.72 50.9921 1176.14 Q50.9921 1181.72 47.5199 1184.82 Q44.0477 1187.9 37.7283 1187.9 Q35.5524 1187.9 33.2839 1187.53 Q31.0385 1187.16 28.6311 1186.42 L28.6311 1181.72 Q30.7145 1182.85 32.9367 1183.41 Q35.1589 1183.96 37.6357 1183.96 Q41.6403 1183.96 43.9783 1181.86 Q46.3162 1179.75 46.3162 1176.14 Q46.3162 1172.53 43.9783 1170.42 Q41.6403 1168.31 37.6357 1168.31 Q35.7607 1168.31 33.8857 1168.73 Q32.0339 1169.15 30.0895 1170.03 L30.0895 1152.67 Z" fill="#000000" fill-rule="nonzero" fill-opacity="1" /><path clip-path="url(#clip660)" d="M-36.3454 914.03 Q-39.9565 914.03 -41.7852 917.594 Q-43.5907 921.136 -43.5907 928.266 Q-43.5907 935.372 -41.7852 938.937 Q-39.9565 942.479 -36.3454 942.479 Q-32.7111 942.479 -30.9056 938.937 Q-29.0769 935.372 -29.0769 928.266 Q-29.0769 921.136 -30.9056 917.594 Q-32.7111 914.03 -36.3454 914.03 M-36.3454 910.326 Q-30.5352 910.326 -27.4797 914.932 Q-24.401 919.516 -24.401 928.266 Q-24.401 936.992 -27.4797 941.599 Q-30.5352 946.182 -36.3454 946.182 Q-42.1555 946.182 -45.2342 941.599 Q-48.2897 936.992 -48.2897 928.266 Q-48.2897 919.516 -45.2342 914.932 Q-42.1555 910.326 -36.3454 910.326 Z" fill="#000000" fill-rule="nonzero" fill-opacity="1" /><path clip-path="url(#clip660)" d="M-16.1834 939.631 L-11.2992 939.631 L-11.2992 945.511 L-16.1834 945.511 L-16.1834 939.631 Z" fill="#000000" fill-rule="nonzero" fill-opacity="1" /><path clip-path="url(#clip660)" d="M-0.303895 941.576 L7.33495 941.576 L7.33495 915.21 L-0.975188 916.877 L-0.975188 912.618 L7.28866 910.951 L11.9646 910.951 L11.9646 941.576 L19.6034 941.576 L19.6034 945.511 L-0.303895 945.511 L-0.303895 941.576 Z" fill="#000000" fill-rule="nonzero" fill-opacity="1" /><path clip-path="url(#clip660)" d="M39.0477 914.03 Q35.4367 914.03 33.608 917.594 Q31.8024 921.136 31.8024 928.266 Q31.8024 935.372 33.608 938.937 Q35.4367 942.479 39.0477 942.479 Q42.682 942.479 44.4875 938.937 Q46.3162 935.372 46.3162 928.266 Q46.3162 921.136 44.4875 917.594 Q42.682 914.03 39.0477 914.03 M39.0477 910.326 Q44.8579 910.326 47.9134 914.932 Q50.9921 919.516 50.9921 928.266 Q50.9921 936.992 47.9134 941.599 Q44.8579 946.182 39.0477 946.182 Q33.2376 946.182 30.1589 941.599 Q27.1034 936.992 27.1034 928.266 Q27.1034 919.516 30.1589 914.932 Q33.2376 910.326 39.0477 910.326 Z" fill="#000000" fill-rule="nonzero" fill-opacity="1" /><path clip-path="url(#clip660)" d="M-35.35 672.315 Q-38.9611 672.315 -40.7898 675.879 Q-42.5953 679.421 -42.5953 686.551 Q-42.5953 693.657 -40.7898 697.222 Q-38.9611 700.764 -35.35 700.764 Q-31.7158 700.764 -29.9102 697.222 Q-28.0815 693.657 -28.0815 686.551 Q-28.0815 679.421 -29.9102 675.879 Q-31.7158 672.315 -35.35 672.315 M-35.35 668.611 Q-29.5398 668.611 -26.4843 673.217 Q-23.4056 677.801 -23.4056 686.551 Q-23.4056 695.278 -26.4843 699.884 Q-29.5398 704.467 -35.35 704.467 Q-41.1602 704.467 -44.2388 699.884 Q-47.2944 695.278 -47.2944 686.551 Q-47.2944 677.801 -44.2388 673.217 Q-41.1602 668.611 -35.35 668.611 Z" fill="#000000" fill-rule="nonzero" fill-opacity="1" /><path clip-path="url(#clip660)" d="M-15.1881 697.916 L-10.3038 697.916 L-10.3038 703.796 L-15.1881 703.796 L-15.1881 697.916 Z" fill="#000000" fill-rule="nonzero" fill-opacity="1" /><path clip-path="url(#clip660)" d="M0.69147 699.861 L8.33032 699.861 L8.33032 673.495 L0.0201769 675.162 L0.0201769 670.903 L8.28402 669.236 L12.9599 669.236 L12.9599 699.861 L20.5988 699.861 L20.5988 703.796 L0.69147 703.796 L0.69147 699.861 Z" fill="#000000" fill-rule="nonzero" fill-opacity="1" /><path clip-path="url(#clip660)" d="M30.0895 669.236 L48.4458 669.236 L48.4458 673.171 L34.3718 673.171 L34.3718 681.643 Q35.3904 681.296 36.4089 681.134 Q37.4274 680.949 38.4459 680.949 Q44.2329 680.949 47.6125 684.12 Q50.9921 687.291 50.9921 692.708 Q50.9921 698.287 47.5199 701.389 Q44.0477 704.467 37.7283 704.467 Q35.5524 704.467 33.2839 704.097 Q31.0385 703.727 28.6311 702.986 L28.6311 698.287 Q30.7145 699.421 32.9367 699.977 Q35.1589 700.532 37.6357 700.532 Q41.6403 700.532 43.9783 698.426 Q46.3162 696.319 46.3162 692.708 Q46.3162 689.097 43.9783 686.991 Q41.6403 684.884 37.6357 684.884 Q35.7607 684.884 33.8857 685.301 Q32.0339 685.717 30.0895 686.597 L30.0895 669.236 Z" fill="#000000" fill-rule="nonzero" fill-opacity="1" /><path clip-path="url(#clip660)" d="M-36.3454 430.6 Q-39.9565 430.6 -41.7852 434.165 Q-43.5907 437.706 -43.5907 444.836 Q-43.5907 451.942 -41.7852 455.507 Q-39.9565 459.049 -36.3454 459.049 Q-32.7111 459.049 -30.9056 455.507 Q-29.0769 451.942 -29.0769 444.836 Q-29.0769 437.706 -30.9056 434.165 Q-32.7111 430.6 -36.3454 430.6 M-36.3454 426.896 Q-30.5352 426.896 -27.4797 431.503 Q-24.401 436.086 -24.401 444.836 Q-24.401 453.563 -27.4797 458.169 Q-30.5352 462.752 -36.3454 462.752 Q-42.1555 462.752 -45.2342 458.169 Q-48.2897 453.563 -48.2897 444.836 Q-48.2897 436.086 -45.2342 431.503 Q-42.1555 426.896 -36.3454 426.896 Z" fill="#000000" fill-rule="nonzero" fill-opacity="1" /><path clip-path="url(#clip660)" d="M-16.1834 456.201 L-11.2992 456.201 L-11.2992 462.081 L-16.1834 462.081 L-16.1834 456.201 Z" fill="#000000" fill-rule="nonzero" fill-opacity="1" /><path clip-path="url(#clip660)" d="M2.91368 458.146 L19.233 458.146 L19.233 462.081 L-2.71129 462.081 L-2.71129 458.146 Q-0.0492672 455.391 4.53404 450.762 Q9.1405 446.109 10.321 444.766 Q12.5664 442.243 13.446 440.507 Q14.3488 438.748 14.3488 437.058 Q14.3488 434.303 12.4044 432.567 Q10.4831 430.831 7.38125 430.831 Q5.18219 430.831 2.7285 431.595 Q0.297953 432.359 -2.47981 433.91 L-2.47981 429.188 Q0.344249 428.053 2.79794 427.475 Q5.25163 426.896 7.28866 426.896 Q12.659 426.896 15.8534 429.581 Q19.0479 432.266 19.0479 436.757 Q19.0479 438.887 18.2377 440.808 Q17.4506 442.706 15.3442 445.299 Q14.7655 445.97 11.6636 449.188 Q8.5618 452.382 2.91368 458.146 Z" fill="#000000" fill-rule="nonzero" fill-opacity="1" /><path clip-path="url(#clip660)" d="M39.0477 430.6 Q35.4367 430.6 33.608 434.165 Q31.8024 437.706 31.8024 444.836 Q31.8024 451.942 33.608 455.507 Q35.4367 459.049 39.0477 459.049 Q42.682 459.049 44.4875 455.507 Q46.3162 451.942 46.3162 444.836 Q46.3162 437.706 44.4875 434.165 Q42.682 430.6 39.0477 430.6 M39.0477 426.896 Q44.8579 426.896 47.9134 431.503 Q50.9921 436.086 50.9921 444.836 Q50.9921 453.563 47.9134 458.169 Q44.8579 462.752 39.0477 462.752 Q33.2376 462.752 30.1589 458.169 Q27.1034 453.563 27.1034 444.836 Q27.1034 436.086 30.1589 431.503 Q33.2376 426.896 39.0477 426.896 Z" fill="#000000" fill-rule="nonzero" fill-opacity="1" /><path clip-path="url(#clip660)" d="M-35.35 188.885 Q-38.9611 188.885 -40.7898 192.45 Q-42.5953 195.991 -42.5953 203.121 Q-42.5953 210.227 -40.7898 213.792 Q-38.9611 217.334 -35.35 217.334 Q-31.7158 217.334 -29.9102 213.792 Q-28.0815 210.227 -28.0815 203.121 Q-28.0815 195.991 -29.9102 192.45 Q-31.7158 188.885 -35.35 188.885 M-35.35 185.181 Q-29.5398 185.181 -26.4843 189.788 Q-23.4056 194.371 -23.4056 203.121 Q-23.4056 211.848 -26.4843 216.454 Q-29.5398 221.037 -35.35 221.037 Q-41.1602 221.037 -44.2388 216.454 Q-47.2944 211.848 -47.2944 203.121 Q-47.2944 194.371 -44.2388 189.788 Q-41.1602 185.181 -35.35 185.181 Z" fill="#000000" fill-rule="nonzero" fill-opacity="1" /><path clip-path="url(#clip660)" d="M-15.1881 214.487 L-10.3038 214.487 L-10.3038 220.366 L-15.1881 220.366 L-15.1881 214.487 Z" fill="#000000" fill-rule="nonzero" fill-opacity="1" /><path clip-path="url(#clip660)" d="M3.90904 216.431 L20.2284 216.431 L20.2284 220.366 L-1.71592 220.366 L-1.71592 216.431 Q0.946098 213.676 5.52941 209.047 Q10.1359 204.394 11.3164 203.051 Q13.5618 200.528 14.4414 198.792 Q15.3442 197.033 15.3442 195.343 Q15.3442 192.588 13.3997 190.852 Q11.4784 189.116 8.37661 189.116 Q6.17755 189.116 3.72386 189.88 Q1.29332 190.644 -1.48444 192.195 L-1.48444 187.473 Q1.33961 186.339 3.7933 185.76 Q6.247 185.181 8.28402 185.181 Q13.6544 185.181 16.8488 187.866 Q20.0432 190.551 20.0432 195.042 Q20.0432 197.172 19.233 199.093 Q18.446 200.991 16.3395 203.584 Q15.7608 204.255 12.659 207.473 Q9.55716 210.667 3.90904 216.431 Z" fill="#000000" fill-rule="nonzero" fill-opacity="1" /><path clip-path="url(#clip660)" d="M30.0895 185.806 L48.4458 185.806 L48.4458 189.741 L34.3718 189.741 L34.3718 198.213 Q35.3904 197.866 36.4089 197.704 Q37.4274 197.519 38.4459 197.519 Q44.2329 197.519 47.6125 200.69 Q50.9921 203.862 50.9921 209.278 Q50.9921 214.857 47.5199 217.959 Q44.0477 221.037 37.7283 221.037 Q35.5524 221.037 33.2839 220.667 Q31.0385 220.297 28.6311 219.556 L28.6311 214.857 Q30.7145 215.991 32.9367 216.547 Q35.1589 217.102 37.6357 217.102 Q41.6403 217.102 43.9783 214.996 Q46.3162 212.889 46.3162 209.278 Q46.3162 205.667 43.9783 203.561 Q41.6403 201.454 37.6357 201.454 Q35.7607 201.454 33.8857 201.871 Q32.0339 202.288 30.0895 203.167 L30.0895 185.806 Z" fill="#000000" fill-rule="nonzero" fill-opacity="1" /><polyline clip-path="url(#clip662)" style="stroke:#009af9; stroke-linecap:round; stroke-linejoin:round; stroke-width:4; stroke-opacity:1; fill:none" points="86.9921,928.231 313.569,952.402 540.145,527.277 766.721,591.205 993.298,236.815 1219.87,338.745 1446.45,716.864 1673.03,915.243 1899.6,665.448 2126.18,236.858 2352.76,88.5087 "/>
<polyline clip-path="url(#clip662)" style="stroke:#e26f46; stroke-linecap:round; stroke-linejoin:round; stroke-width:4; stroke-opacity:1; fill:none" points="86.9921,1411.66 313.569,1339.39 540.145,1414.84 766.721,1347.88 993.298,1418.63 1219.87,1464 1446.45,1438.05 1673.03,1367.37 1899.6,1336.52 2126.18,1378.26 2352.76,1418.49 "/>
<path clip-path="url(#clip660)" d="M162.518 251.365 L412.288 251.365 L412.288 95.8446 L162.518 95.8446  Z" fill="#ffffff" fill-rule="evenodd" fill-opacity="1"/>
<polyline clip-path="url(#clip660)" style="stroke:#000000; stroke-linecap:round; stroke-linejoin:round; stroke-width:4; stroke-opacity:1; fill:none" points="162.518,251.365 412.288,251.365 412.288,95.8446 162.518,95.8446 162.518,251.365 "/>
<polyline clip-path="url(#clip660)" style="stroke:#009af9; stroke-linecap:round; stroke-linejoin:round; stroke-width:4; stroke-opacity:1; fill:none" points="187.693,147.685 338.744,147.685 "/>
<path clip-path="url(#clip660)" d="M377.322 151.932 Q372.16 151.932 370.169 153.113 Q368.178 154.293 368.178 157.141 Q368.178 159.409 369.66 160.752 Q371.164 162.071 373.734 162.071 Q377.275 162.071 379.405 159.571 Q381.558 157.048 381.558 152.881 L381.558 151.932 L377.322 151.932 M385.817 150.173 L385.817 164.965 L381.558 164.965 L381.558 161.029 Q380.099 163.391 377.923 164.525 Q375.747 165.636 372.599 165.636 Q368.618 165.636 366.257 163.414 Q363.919 161.168 363.919 157.418 Q363.919 153.043 366.835 150.821 Q369.775 148.599 375.585 148.599 L381.558 148.599 L381.558 148.182 Q381.558 145.243 379.613 143.645 Q377.692 142.025 374.197 142.025 Q371.974 142.025 369.868 142.557 Q367.761 143.09 365.817 144.155 L365.817 140.219 Q368.155 139.317 370.354 138.877 Q372.553 138.414 374.636 138.414 Q380.261 138.414 383.039 141.33 Q385.817 144.247 385.817 150.173 Z" fill="#000000" fill-rule="nonzero" fill-opacity="1" /><polyline clip-path="url(#clip660)" style="stroke:#e26f46; stroke-linecap:round; stroke-linejoin:round; stroke-width:4; stroke-opacity:1; fill:none" points="187.693,199.525 338.744,199.525 "/>
<path clip-path="url(#clip660)" d="M382.692 203.865 Q382.692 199.166 380.747 196.504 Q378.826 193.819 375.447 193.819 Q372.067 193.819 370.122 196.504 Q368.201 199.166 368.201 203.865 Q368.201 208.564 370.122 211.249 Q372.067 213.911 375.447 213.911 Q378.826 213.911 380.747 211.249 Q382.692 208.564 382.692 203.865 M368.201 194.814 Q369.544 192.499 371.581 191.388 Q373.641 190.254 376.488 190.254 Q381.21 190.254 384.15 194.004 Q387.113 197.754 387.113 203.865 Q387.113 209.976 384.15 213.726 Q381.21 217.476 376.488 217.476 Q373.641 217.476 371.581 216.365 Q369.544 215.231 368.201 212.916 L368.201 216.805 L363.919 216.805 L363.919 180.786 L368.201 180.786 L368.201 194.814 Z" fill="#000000" fill-rule="nonzero" fill-opacity="1" /></svg>
