<?xml version="1.0" encoding="utf-8"?>
<svg xmlns="http://www.w3.org/2000/svg" xmlns:xlink="http://www.w3.org/1999/xlink" width="600" height="400" viewBox="0 0 2400 1600">
<defs>
  <clipPath id="clip960">
    <rect x="0" y="0" width="2400" height="1600"/>
  </clipPath>
</defs>
<path clip-path="url(#clip960)" d="M0 1600 L2400 1600 L2400 0 L0 0  Z" fill="#ffffff" fill-rule="evenodd" fill-opacity="1"/>
<defs>
  <clipPath id="clip961">
    <rect x="480" y="0" width="1681" height="1600"/>
  </clipPath>
</defs>
<path clip-path="url(#clip960)" d="M192.709 1423.18 L2352.76 1423.18 L2352.76 47.2441 L192.709 47.2441  Z" fill="#ffffff" fill-rule="evenodd" fill-opacity="1"/>
<defs>
  <clipPath id="clip962">
    <rect x="192" y="47" width="2161" height="1377"/>
  </clipPath>
</defs>
<polyline clip-path="url(#clip962)" style="stroke:#000000; stroke-linecap:round; stroke-linejoin:round; stroke-width:2; stroke-opacity:0.1; fill:none" points="192.709,1423.18 192.709,47.2441 "/>
<polyline clip-path="url(#clip962)" style="stroke:#000000; stroke-linecap:round; stroke-linejoin:round; stroke-width:2; stroke-opacity:0.1; fill:none" points="912.725,1423.18 912.725,47.2441 "/>
<polyline clip-path="url(#clip962)" style="stroke:#000000; stroke-linecap:round; stroke-linejoin:round; stroke-width:2; stroke-opacity:0.1; fill:none" points="1632.74,1423.18 1632.74,47.2441 "/>
<polyline clip-path="url(#clip962)" style="stroke:#000000; stroke-linecap:round; stroke-linejoin:round; stroke-width:2; stroke-opacity:0.1; fill:none" points="2352.76,1423.18 2352.76,47.2441 "/>
<polyline clip-path="url(#clip960)" style="stroke:#000000; stroke-linecap:round; stroke-linejoin:round; stroke-width:4; stroke-opacity:1; fill:none" points="192.709,1423.18 2352.76,1423.18 "/>
<polyline clip-path="url(#clip960)" style="stroke:#000000; stroke-linecap:round; stroke-linejoin:round; stroke-width:4; stroke-opacity:1; fill:none" points="192.709,1423.18 192.709,1404.28 "/>
<polyline clip-path="url(#clip960)" style="stroke:#000000; stroke-linecap:round; stroke-linejoin:round; stroke-width:4; stroke-opacity:1; fill:none" points="912.725,1423.18 912.725,1404.28 "/>
<polyline clip-path="url(#clip960)" style="stroke:#000000; stroke-linecap:round; stroke-linejoin:round; stroke-width:4; stroke-opacity:1; fill:none" points="1632.74,1423.18 1632.74,1404.28 "/>
<polyline clip-path="url(#clip960)" style="stroke:#000000; stroke-linecap:round; stroke-linejoin:round; stroke-width:4; stroke-opacity:1; fill:none" points="2352.76,1423.18 2352.76,1404.28 "/>
<path clip-path="url(#clip960)" d="M192.709 1454.1 Q189.098 1454.1 187.269 1457.66 Q185.464 1461.2 185.464 1468.33 Q185.464 1475.44 187.269 1479.01 Q189.098 1482.55 192.709 1482.55 Q196.343 1482.55 198.149 1479.01 Q199.978 1475.44 199.978 1468.33 Q199.978 1461.2 198.149 1457.66 Q196.343 1454.1 192.709 1454.1 M192.709 1450.39 Q198.519 1450.39 201.575 1455 Q204.654 1459.58 204.654 1468.33 Q204.654 1477.06 201.575 1481.67 Q198.519 1486.25 192.709 1486.25 Q186.899 1486.25 183.82 1481.67 Q180.765 1477.06 180.765 1468.33 Q180.765 1459.58 183.82 1455 Q186.899 1450.39 192.709 1450.39 Z" fill="#000000" fill-rule="nonzero" fill-opacity="1" /><path clip-path="url(#clip960)" d="M887.412 1481.64 L895.051 1481.64 L895.051 1455.28 L886.741 1456.95 L886.741 1452.69 L895.005 1451.02 L899.681 1451.02 L899.681 1481.64 L907.32 1481.64 L907.32 1485.58 L887.412 1485.58 L887.412 1481.64 Z" fill="#000000" fill-rule="nonzero" fill-opacity="1" /><path clip-path="url(#clip960)" d="M926.764 1454.1 Q923.153 1454.1 921.324 1457.66 Q919.519 1461.2 919.519 1468.33 Q919.519 1475.44 921.324 1479.01 Q923.153 1482.55 926.764 1482.55 Q930.398 1482.55 932.204 1479.01 Q934.032 1475.44 934.032 1468.33 Q934.032 1461.2 932.204 1457.66 Q930.398 1454.1 926.764 1454.1 M926.764 1450.39 Q932.574 1450.39 935.63 1455 Q938.708 1459.58 938.708 1468.33 Q938.708 1477.06 935.63 1481.67 Q932.574 1486.25 926.764 1486.25 Q920.954 1486.25 917.875 1481.67 Q914.82 1477.06 914.82 1468.33 Q914.82 1459.58 917.875 1455 Q920.954 1450.39 926.764 1450.39 Z" fill="#000000" fill-rule="nonzero" fill-opacity="1" /><path clip-path="url(#clip960)" d="M1611.51 1481.64 L1627.83 1481.64 L1627.83 1485.58 L1605.89 1485.58 L1605.89 1481.64 Q1608.55 1478.89 1613.13 1474.26 Q1617.74 1469.61 1618.92 1468.27 Q1621.17 1465.74 1622.05 1464.01 Q1622.95 1462.25 1622.95 1460.56 Q1622.95 1457.8 1621 1456.07 Q1619.08 1454.33 1615.98 1454.33 Q1613.78 1454.33 1611.33 1455.09 Q1608.9 1455.86 1606.12 1457.41 L1606.12 1452.69 Q1608.94 1451.55 1611.4 1450.97 Q1613.85 1450.39 1615.89 1450.39 Q1621.26 1450.39 1624.45 1453.08 Q1627.65 1455.77 1627.65 1460.26 Q1627.65 1462.39 1626.84 1464.31 Q1626.05 1466.2 1623.94 1468.8 Q1623.37 1469.47 1620.26 1472.69 Q1617.16 1475.88 1611.51 1481.64 Z" fill="#000000" fill-rule="nonzero" fill-opacity="1" /><path clip-path="url(#clip960)" d="M1647.65 1454.1 Q1644.04 1454.1 1642.21 1457.66 Q1640.4 1461.2 1640.4 1468.33 Q1640.4 1475.44 1642.21 1479.01 Q1644.04 1482.55 1647.65 1482.55 Q1651.28 1482.55 1653.09 1479.01 Q1654.92 1475.44 1654.92 1468.33 Q1654.92 1461.2 1653.09 1457.66 Q1651.28 1454.1 1647.65 1454.1 M1647.65 1450.39 Q1653.46 1450.39 1656.51 1455 Q1659.59 1459.58 1659.59 1468.33 Q1659.59 1477.06 1656.51 1481.67 Q1653.46 1486.25 1647.65 1486.25 Q1641.84 1486.25 1638.76 1481.67 Q1635.7 1477.06 1635.7 1468.33 Q1635.7 1459.58 1638.76 1455 Q1641.84 1450.39 1647.65 1450.39 Z" fill="#000000" fill-rule="nonzero" fill-opacity="1" /><path clip-path="url(#clip960)" d="M2341.6 1466.95 Q2344.96 1467.66 2346.83 1469.93 Q2348.73 1472.2 2348.73 1475.53 Q2348.73 1480.65 2345.21 1483.45 Q2341.69 1486.25 2335.21 1486.25 Q2333.03 1486.25 2330.72 1485.81 Q2328.43 1485.39 2325.97 1484.54 L2325.97 1480.02 Q2327.92 1481.16 2330.23 1481.74 Q2332.55 1482.32 2335.07 1482.32 Q2339.47 1482.32 2341.76 1480.58 Q2344.08 1478.84 2344.08 1475.53 Q2344.08 1472.48 2341.92 1470.77 Q2339.79 1469.03 2335.97 1469.03 L2331.95 1469.03 L2331.95 1465.19 L2336.16 1465.19 Q2339.61 1465.19 2341.44 1463.82 Q2343.27 1462.43 2343.27 1459.84 Q2343.27 1457.18 2341.37 1455.77 Q2339.49 1454.33 2335.97 1454.33 Q2334.05 1454.33 2331.85 1454.75 Q2329.65 1455.16 2327.02 1456.04 L2327.02 1451.88 Q2329.68 1451.14 2331.99 1450.77 Q2334.33 1450.39 2336.39 1450.39 Q2341.71 1450.39 2344.82 1452.83 Q2347.92 1455.23 2347.92 1459.35 Q2347.92 1462.22 2346.27 1464.21 Q2344.63 1466.18 2341.6 1466.95 Z" fill="#000000" fill-rule="nonzero" fill-opacity="1" /><path clip-path="url(#clip960)" d="M2367.59 1454.1 Q2363.98 1454.1 2362.15 1457.66 Q2360.35 1461.2 2360.35 1468.33 Q2360.35 1475.44 2362.15 1479.01 Q2363.98 1482.55 2367.59 1482.55 Q2371.23 1482.55 2373.03 1479.01 Q2374.86 1475.44 2374.86 1468.33 Q2374.86 1461.2 2373.03 1457.66 Q2371.23 1454.1 2367.59 1454.1 M2367.59 1450.39 Q2373.4 1450.39 2376.46 1455 Q2379.54 1459.58 2379.54 1468.33 Q2379.54 1477.06 2376.46 1481.67 Q2373.4 1486.25 2367.59 1486.25 Q2361.78 1486.25 2358.7 1481.67 Q2355.65 1477.06 2355.65 1468.33 Q2355.65 1459.58 2358.7 1455 Q2361.78 1450.39 2367.59 1450.39 Z" fill="#000000" fill-rule="nonzero" fill-opacity="1" /><path clip-path="url(#clip960)" d="M1271.79 1522.27 L1271.79 1532.4 L1283.86 1532.4 L1283.86 1536.95 L1271.79 1536.95 L1271.79 1556.3 Q1271.79 1560.66 1272.97 1561.9 Q1274.18 1563.14 1277.84 1563.14 L1283.86 1563.14 L1283.86 1568.04 L1277.84 1568.04 Q1271.06 1568.04 1268.48 1565.53 Q1265.91 1562.98 1265.91 1556.3 L1265.91 1536.95 L1261.61 1536.95 L1261.61 1532.4 L1265.91 1532.4 L1265.91 1522.27 L1271.79 1522.27 Z" fill="#000000" fill-rule="nonzero" fill-opacity="1" /><polyline clip-path="url(#clip962)" style="stroke:#000000; stroke-linecap:round; stroke-linejoin:round; stroke-width:2; stroke-opacity:0.1; fill:none" points="192.709,1222.38 2352.76,1222.38 "/>
<polyline clip-path="url(#clip962)" style="stroke:#000000; stroke-linecap:round; stroke-linejoin:round; stroke-width:2; stroke-opacity:0.1; fill:none" points="192.709,942.202 2352.76,942.202 "/>
<polyline clip-path="url(#clip962)" style="stroke:#000000; stroke-linecap:round; stroke-linejoin:round; stroke-width:2; stroke-opacity:0.1; fill:none" points="192.709,662.019 2352.76,662.019 "/>
<polyline clip-path="url(#clip962)" style="stroke:#000000; stroke-linecap:round; stroke-linejoin:round; stroke-width:2; stroke-opacity:0.1; fill:none" points="192.709,381.837 2352.76,381.837 "/>
<polyline clip-path="url(#clip962)" style="stroke:#000000; stroke-linecap:round; stroke-linejoin:round; stroke-width:2; stroke-opacity:0.1; fill:none" points="192.709,101.654 2352.76,101.654 "/>
<polyline clip-path="url(#clip960)" style="stroke:#000000; stroke-linecap:round; stroke-linejoin:round; stroke-width:4; stroke-opacity:1; fill:none" points="192.709,1423.18 192.709,47.2441 "/>
<polyline clip-path="url(#clip960)" style="stroke:#000000; stroke-linecap:round; stroke-linejoin:round; stroke-width:4; stroke-opacity:1; fill:none" points="192.709,1222.38 211.607,1222.38 "/>
<polyline clip-path="url(#clip960)" style="stroke:#000000; stroke-linecap:round; stroke-linejoin:round; stroke-width:4; stroke-opacity:1; fill:none" points="192.709,942.202 211.607,942.202 "/>
<polyline clip-path="url(#clip960)" style="stroke:#000000; stroke-linecap:round; stroke-linejoin:round; stroke-width:4; stroke-opacity:1; fill:none" points="192.709,662.019 211.607,662.019 "/>
<polyline clip-path="url(#clip960)" style="stroke:#000000; stroke-linecap:round; stroke-linejoin:round; stroke-width:4; stroke-opacity:1; fill:none" points="192.709,381.837 211.607,381.837 "/>
<polyline clip-path="url(#clip960)" style="stroke:#000000; stroke-linecap:round; stroke-linejoin:round; stroke-width:4; stroke-opacity:1; fill:none" points="192.709,101.654 211.607,101.654 "/>
<path clip-path="url(#clip960)" d="M50.9921 1222.84 L80.6679 1222.84 L80.6679 1226.77 L50.9921 1226.77 L50.9921 1222.84 Z" fill="#000000" fill-rule="nonzero" fill-opacity="1" /><path clip-path="url(#clip960)" d="M100.76 1208.18 Q97.1493 1208.18 95.3206 1211.75 Q93.515 1215.29 93.515 1222.42 Q93.515 1229.53 95.3206 1233.09 Q97.1493 1236.63 100.76 1236.63 Q104.395 1236.63 106.2 1233.09 Q108.029 1229.53 108.029 1222.42 Q108.029 1215.29 106.2 1211.75 Q104.395 1208.18 100.76 1208.18 M100.76 1204.48 Q106.571 1204.48 109.626 1209.09 Q112.705 1213.67 112.705 1222.42 Q112.705 1231.15 109.626 1235.75 Q106.571 1240.34 100.76 1240.34 Q94.9502 1240.34 91.8715 1235.75 Q88.816 1231.15 88.816 1222.42 Q88.816 1213.67 91.8715 1209.09 Q94.9502 1204.48 100.76 1204.48 Z" fill="#000000" fill-rule="nonzero" fill-opacity="1" /><path clip-path="url(#clip960)" d="M120.922 1233.79 L125.807 1233.79 L125.807 1239.66 L120.922 1239.66 L120.922 1233.79 Z" fill="#000000" fill-rule="nonzero" fill-opacity="1" /><path clip-path="url(#clip960)" d="M136.802 1235.73 L144.441 1235.73 L144.441 1209.36 L136.131 1211.03 L136.131 1206.77 L144.394 1205.1 L149.07 1205.1 L149.07 1235.73 L156.709 1235.73 L156.709 1239.66 L136.802 1239.66 L136.802 1235.73 Z" fill="#000000" fill-rule="nonzero" fill-opacity="1" /><path clip-path="url(#clip960)" d="M99.5335 928.001 Q95.9224 928.001 94.0937 931.566 Q92.2882 935.107 92.2882 942.237 Q92.2882 949.343 94.0937 952.908 Q95.9224 956.45 99.5335 956.45 Q103.168 956.45 104.973 952.908 Q106.802 949.343 106.802 942.237 Q106.802 935.107 104.973 931.566 Q103.168 928.001 99.5335 928.001 M99.5335 924.297 Q105.344 924.297 108.399 928.904 Q111.478 933.487 111.478 942.237 Q111.478 950.964 108.399 955.57 Q105.344 960.154 99.5335 960.154 Q93.7234 960.154 90.6447 955.57 Q87.5892 950.964 87.5892 942.237 Q87.5892 933.487 90.6447 928.904 Q93.7234 924.297 99.5335 924.297 Z" fill="#000000" fill-rule="nonzero" fill-opacity="1" /><path clip-path="url(#clip960)" d="M119.695 953.603 L124.58 953.603 L124.58 959.482 L119.695 959.482 L119.695 953.603 Z" fill="#000000" fill-rule="nonzero" fill-opacity="1" /><path clip-path="url(#clip960)" d="M144.765 928.001 Q141.154 928.001 139.325 931.566 Q137.519 935.107 137.519 942.237 Q137.519 949.343 139.325 952.908 Q141.154 956.45 144.765 956.45 Q148.399 956.45 150.205 952.908 Q152.033 949.343 152.033 942.237 Q152.033 935.107 150.205 931.566 Q148.399 928.001 144.765 928.001 M144.765 924.297 Q150.575 924.297 153.63 928.904 Q156.709 933.487 156.709 942.237 Q156.709 950.964 153.63 955.57 Q150.575 960.154 144.765 960.154 Q138.955 960.154 135.876 955.57 Q132.82 950.964 132.82 942.237 Q132.82 933.487 135.876 928.904 Q138.955 924.297 144.765 924.297 Z" fill="#000000" fill-rule="nonzero" fill-opacity="1" /><path clip-path="url(#clip960)" d="M100.76 647.818 Q97.1493 647.818 95.3206 651.383 Q93.515 654.925 93.515 662.054 Q93.515 669.161 95.3206 672.725 Q97.1493 676.267 100.76 676.267 Q104.395 676.267 106.2 672.725 Q108.029 669.161 108.029 662.054 Q108.029 654.925 106.2 651.383 Q104.395 647.818 100.76 647.818 M100.76 644.114 Q106.571 644.114 109.626 648.721 Q112.705 653.304 112.705 662.054 Q112.705 670.781 109.626 675.387 Q106.571 679.971 100.76 679.971 Q94.9502 679.971 91.8715 675.387 Q88.816 670.781 88.816 662.054 Q88.816 653.304 91.8715 648.721 Q94.9502 644.114 100.76 644.114 Z" fill="#000000" fill-rule="nonzero" fill-opacity="1" /><path clip-path="url(#clip960)" d="M120.922 673.42 L125.807 673.42 L125.807 679.299 L120.922 679.299 L120.922 673.42 Z" fill="#000000" fill-rule="nonzero" fill-opacity="1" /><path clip-path="url(#clip960)" d="M136.802 675.364 L144.441 675.364 L144.441 648.999 L136.131 650.665 L136.131 646.406 L144.394 644.739 L149.07 644.739 L149.07 675.364 L156.709 675.364 L156.709 679.299 L136.802 679.299 L136.802 675.364 Z" fill="#000000" fill-rule="nonzero" fill-opacity="1" /><path clip-path="url(#clip960)" d="M101.131 367.635 Q97.5197 367.635 95.691 371.2 Q93.8854 374.742 93.8854 381.871 Q93.8854 388.978 95.691 392.543 Q97.5197 396.084 101.131 396.084 Q104.765 396.084 106.571 392.543 Q108.399 388.978 108.399 381.871 Q108.399 374.742 106.571 371.2 Q104.765 367.635 101.131 367.635 M101.131 363.932 Q106.941 363.932 109.996 368.538 Q113.075 373.121 113.075 381.871 Q113.075 390.598 109.996 395.205 Q106.941 399.788 101.131 399.788 Q95.3206 399.788 92.2419 395.205 Q89.1864 390.598 89.1864 381.871 Q89.1864 373.121 92.2419 368.538 Q95.3206 363.932 101.131 363.932 Z" fill="#000000" fill-rule="nonzero" fill-opacity="1" /><path clip-path="url(#clip960)" d="M121.293 393.237 L126.177 393.237 L126.177 399.117 L121.293 399.117 L121.293 393.237 Z" fill="#000000" fill-rule="nonzero" fill-opacity="1" /><path clip-path="url(#clip960)" d="M140.39 395.181 L156.709 395.181 L156.709 399.117 L134.765 399.117 L134.765 395.181 Q137.427 392.427 142.01 387.797 Q146.617 383.145 147.797 381.802 Q150.043 379.279 150.922 377.543 Q151.825 375.783 151.825 374.094 Q151.825 371.339 149.88 369.603 Q147.959 367.867 144.857 367.867 Q142.658 367.867 140.205 368.631 Q137.774 369.395 134.996 370.946 L134.996 366.223 Q137.82 365.089 140.274 364.51 Q142.728 363.932 144.765 363.932 Q150.135 363.932 153.33 366.617 Q156.524 369.302 156.524 373.793 Q156.524 375.922 155.714 377.844 Q154.927 379.742 152.82 382.334 Q152.242 383.006 149.14 386.223 Q146.038 389.418 140.39 395.181 Z" fill="#000000" fill-rule="nonzero" fill-opacity="1" /><path clip-path="url(#clip960)" d="M100.182 87.4526 Q96.5706 87.4526 94.7419 91.0173 Q92.9363 94.559 92.9363 101.689 Q92.9363 108.795 94.7419 112.36 Q96.5706 115.901 100.182 115.901 Q103.816 115.901 105.621 112.36 Q107.45 108.795 107.45 101.689 Q107.45 94.559 105.621 91.0173 Q103.816 87.4526 100.182 87.4526 M100.182 83.7489 Q105.992 83.7489 109.047 88.3553 Q112.126 92.9386 112.126 101.689 Q112.126 110.415 109.047 115.022 Q105.992 119.605 100.182 119.605 Q94.3715 119.605 91.2928 115.022 Q88.2373 110.415 88.2373 101.689 Q88.2373 92.9386 91.2928 88.3553 Q94.3715 83.7489 100.182 83.7489 Z" fill="#000000" fill-rule="nonzero" fill-opacity="1" /><path clip-path="url(#clip960)" d="M120.344 113.054 L125.228 113.054 L125.228 118.934 L120.344 118.934 L120.344 113.054 Z" fill="#000000" fill-rule="nonzero" fill-opacity="1" /><path clip-path="url(#clip960)" d="M149.58 100.3 Q152.936 101.017 154.811 103.286 Q156.709 105.554 156.709 108.888 Q156.709 114.003 153.191 116.804 Q149.672 119.605 143.191 119.605 Q141.015 119.605 138.7 119.165 Q136.408 118.749 133.955 117.892 L133.955 113.378 Q135.899 114.513 138.214 115.091 Q140.529 115.67 143.052 115.67 Q147.45 115.67 149.742 113.934 Q152.056 112.198 152.056 108.888 Q152.056 105.832 149.904 104.119 Q147.774 102.383 143.955 102.383 L139.927 102.383 L139.927 98.5405 L144.14 98.5405 Q147.589 98.5405 149.418 97.1747 Q151.246 95.7858 151.246 93.1933 Q151.246 90.5312 149.348 89.1192 Q147.473 87.684 143.955 87.684 Q142.033 87.684 139.834 88.1007 Q137.635 88.5174 134.996 89.397 L134.996 85.2303 Q137.658 84.4896 139.973 84.1192 Q142.311 83.7489 144.371 83.7489 Q149.695 83.7489 152.797 86.1794 Q155.899 88.5868 155.899 92.7072 Q155.899 95.5775 154.255 97.5682 Q152.612 99.5358 149.58 100.3 Z" fill="#000000" fill-rule="nonzero" fill-opacity="1" /><polyline clip-path="url(#clip962)" style="stroke:#009af9; stroke-linecap:round; stroke-linejoin:round; stroke-width:4; stroke-opacity:1; fill:none" points="192.709,942.202 264.711,942.421 336.712,854.505 408.714,712.497 480.715,685.534 552.717,583.082 624.719,846.409 696.72,1029.94 768.722,830.904 840.723,702.194 912.725,640.841 984.726,439.067 1056.73,166.313 1128.73,167.552 1200.73,132.008 1272.73,264.605 1344.73,86.1857 1416.74,180.397 1488.74,361.26 1560.74,353.322 1632.74,391.406 1704.74,392.695 1776.74,303.485 1848.74,557.081 1920.75,903.893 1992.75,1160.73 2064.75,1284.82 2136.75,1243 2208.75,1384.24 2280.75,1064.85 2352.76,1065.46 "/>
<polyline clip-path="url(#clip962)" style="stroke:#e26f46; stroke-linecap:round; stroke-linejoin:round; stroke-width:4; stroke-opacity:1; fill:none" points="192.709,942.202 264.711,928.025 336.712,918.663 408.714,935.977 480.715,923.652 552.717,981.971 624.719,971.136 696.72,910.938 768.722,920.603 840.723,930.371 912.725,907.449 984.726,894.614 1056.73,936.127 1128.73,930.241 1200.73,957.006 1272.73,908.217 1344.73,950.436 1416.74,965.216 1488.74,936.217 1560.74,943.554 1632.74,937.942 1704.74,923.446 1776.74,978.057 1848.74,995.429 1920.75,983.586 1992.75,964.049 2064.75,938.181 2136.75,967.518 2208.75,894.541 2280.75,943.255 2352.76,976.525 "/>
<path clip-path="url(#clip960)" d="M2041.56 248.629 L2280.75 248.629 L2280.75 93.1086 L2041.56 93.1086  Z" fill="#ffffff" fill-rule="evenodd" fill-opacity="1"/>
<polyline clip-path="url(#clip960)" style="stroke:#000000; stroke-linecap:round; stroke-linejoin:round; stroke-width:4; stroke-opacity:1; fill:none" points="2041.56,248.629 2280.75,248.629 2280.75,93.1086 2041.56,93.1086 2041.56,248.629 "/>
<polyline clip-path="url(#clip960)" style="stroke:#009af9; stroke-linecap:round; stroke-linejoin:round; stroke-width:4; stroke-opacity:1; fill:none" points="2065.56,144.949 2209.56,144.949 "/>
<path clip-path="url(#clip960)" d="M2246.96 149.196 Q2241.8 149.196 2239.81 150.377 Q2237.82 151.557 2237.82 154.405 Q2237.82 156.673 2239.3 158.016 Q2240.8 159.335 2243.37 159.335 Q2246.92 159.335 2249.05 156.835 Q2251.2 154.312 2251.2 150.145 L2251.2 149.196 L2246.96 149.196 M2255.46 147.437 L2255.46 162.229 L2251.2 162.229 L2251.2 158.293 Q2249.74 160.655 2247.56 161.789 Q2245.39 162.9 2242.24 162.9 Q2238.26 162.9 2235.9 160.678 Q2233.56 158.432 2233.56 154.682 Q2233.56 150.307 2236.48 148.085 Q2239.42 145.863 2245.23 145.863 L2251.2 145.863 L2251.2 145.446 Q2251.2 142.507 2249.25 140.909 Q2247.33 139.289 2243.84 139.289 Q2241.62 139.289 2239.51 139.821 Q2237.4 140.354 2235.46 141.419 L2235.46 137.483 Q2237.8 136.581 2239.99 136.141 Q2242.19 135.678 2244.28 135.678 Q2249.9 135.678 2252.68 138.594 Q2255.46 141.511 2255.46 147.437 Z" fill="#000000" fill-rule="nonzero" fill-opacity="1" /><polyline clip-path="url(#clip960)" style="stroke:#e26f46; stroke-linecap:round; stroke-linejoin:round; stroke-width:4; stroke-opacity:1; fill:none" points="2065.56,196.789 2209.56,196.789 "/>
<path clip-path="url(#clip960)" d="M2252.33 201.129 Q2252.33 196.43 2250.39 193.768 Q2248.47 191.083 2245.09 191.083 Q2241.71 191.083 2239.76 193.768 Q2237.84 196.43 2237.84 201.129 Q2237.84 205.828 2239.76 208.513 Q2241.71 211.175 2245.09 211.175 Q2248.47 211.175 2250.39 208.513 Q2252.33 205.828 2252.33 201.129 M2237.84 192.078 Q2239.18 189.763 2241.22 188.652 Q2243.28 187.518 2246.13 187.518 Q2250.85 187.518 2253.79 191.268 Q2256.75 195.018 2256.75 201.129 Q2256.75 207.24 2253.79 210.99 Q2250.85 214.74 2246.13 214.74 Q2243.28 214.74 2241.22 213.629 Q2239.18 212.495 2237.84 210.18 L2237.84 214.069 L2233.56 214.069 L2233.56 178.05 L2237.84 178.05 L2237.84 192.078 Z" fill="#000000" fill-rule="nonzero" fill-opacity="1" /></svg>
