<?xml version="1.0" encoding="utf-8"?>
<svg xmlns="http://www.w3.org/2000/svg" xmlns:xlink="http://www.w3.org/1999/xlink" width="600" height="400" viewBox="0 0 2400 1600">
<defs>
  <clipPath id="clip870">
    <rect x="0" y="0" width="2400" height="1600"/>
  </clipPath>
</defs>
<path clip-path="url(#clip870)" d="M0 1600 L2400 1600 L2400 0 L0 0  Z" fill="#ffffff" fill-rule="evenodd" fill-opacity="1"/>
<defs>
  <clipPath id="clip871">
    <rect x="480" y="0" width="1681" height="1600"/>
  </clipPath>
</defs>
<path clip-path="url(#clip870)" d="M147.709 1486.45 L2352.76 1486.45 L2352.76 47.2441 L147.709 47.2441  Z" fill="#ffffff" fill-rule="evenodd" fill-opacity="1"/>
<defs>
  <clipPath id="clip872">
    <rect x="147" y="47" width="2206" height="1440"/>
  </clipPath>
</defs>
<polyline clip-path="url(#clip872)" style="stroke:#000000; stroke-linecap:round; stroke-linejoin:round; stroke-width:2; stroke-opacity:0.1; fill:none" points="210.116,1486.45 210.116,47.2441 "/>
<polyline clip-path="url(#clip872)" style="stroke:#000000; stroke-linecap:round; stroke-linejoin:round; stroke-width:2; stroke-opacity:0.1; fill:none" points="903.527,1486.45 903.527,47.2441 "/>
<polyline clip-path="url(#clip872)" style="stroke:#000000; stroke-linecap:round; stroke-linejoin:round; stroke-width:2; stroke-opacity:0.1; fill:none" points="1596.94,1486.45 1596.94,47.2441 "/>
<polyline clip-path="url(#clip872)" style="stroke:#000000; stroke-linecap:round; stroke-linejoin:round; stroke-width:2; stroke-opacity:0.1; fill:none" points="2290.35,1486.45 2290.35,47.2441 "/>
<polyline clip-path="url(#clip870)" style="stroke:#000000; stroke-linecap:round; stroke-linejoin:round; stroke-width:4; stroke-opacity:1; fill:none" points="147.709,1486.45 2352.76,1486.45 "/>
<polyline clip-path="url(#clip870)" style="stroke:#000000; stroke-linecap:round; stroke-linejoin:round; stroke-width:4; stroke-opacity:1; fill:none" points="210.116,1486.45 210.116,1467.55 "/>
<polyline clip-path="url(#clip870)" style="stroke:#000000; stroke-linecap:round; stroke-linejoin:round; stroke-width:4; stroke-opacity:1; fill:none" points="903.527,1486.45 903.527,1467.55 "/>
<polyline clip-path="url(#clip870)" style="stroke:#000000; stroke-linecap:round; stroke-linejoin:round; stroke-width:4; stroke-opacity:1; fill:none" points="1596.94,1486.45 1596.94,1467.55 "/>
<polyline clip-path="url(#clip870)" style="stroke:#000000; stroke-linecap:round; stroke-linejoin:round; stroke-width:4; stroke-opacity:1; fill:none" points="2290.35,1486.45 2290.35,1467.55 "/>
<path clip-path="url(#clip870)" d="M210.116 1517.37 Q206.505 1517.37 204.677 1520.93 Q202.871 1524.47 202.871 1531.6 Q202.871 1538.71 204.677 1542.27 Q206.505 1545.82 210.116 1545.82 Q213.751 1545.82 215.556 1542.27 Q217.385 1538.71 217.385 1531.6 Q217.385 1524.47 215.556 1520.93 Q213.751 1517.37 210.116 1517.37 M210.116 1513.66 Q215.927 1513.66 218.982 1518.27 Q222.061 1522.85 222.061 1531.6 Q222.061 1540.33 218.982 1544.94 Q215.927 1549.52 210.116 1549.52 Q204.306 1549.52 201.228 1544.94 Q198.172 1540.33 198.172 1531.6 Q198.172 1522.85 201.228 1518.27 Q204.306 1513.66 210.116 1513.66 Z" fill="#000000" fill-rule="nonzero" fill-opacity="1" /><path clip-path="url(#clip870)" d="M878.215 1544.91 L885.854 1544.91 L885.854 1518.55 L877.544 1520.21 L877.544 1515.95 L885.807 1514.29 L890.483 1514.29 L890.483 1544.91 L898.122 1544.91 L898.122 1548.85 L878.215 1548.85 L878.215 1544.91 Z" fill="#000000" fill-rule="nonzero" fill-opacity="1" /><path clip-path="url(#clip870)" d="M917.566 1517.37 Q913.955 1517.37 912.127 1520.93 Q910.321 1524.47 910.321 1531.6 Q910.321 1538.71 912.127 1542.27 Q913.955 1545.82 917.566 1545.82 Q921.201 1545.82 923.006 1542.27 Q924.835 1538.71 924.835 1531.6 Q924.835 1524.47 923.006 1520.93 Q921.201 1517.37 917.566 1517.37 M917.566 1513.66 Q923.377 1513.66 926.432 1518.27 Q929.511 1522.85 929.511 1531.6 Q929.511 1540.33 926.432 1544.94 Q923.377 1549.52 917.566 1549.52 Q911.756 1549.52 908.678 1544.94 Q905.622 1540.33 905.622 1531.6 Q905.622 1522.85 908.678 1518.27 Q911.756 1513.66 917.566 1513.66 Z" fill="#000000" fill-rule="nonzero" fill-opacity="1" /><path clip-path="url(#clip870)" d="M1575.71 1544.91 L1592.03 1544.91 L1592.03 1548.85 L1570.09 1548.85 L1570.09 1544.91 Q1572.75 1542.16 1577.33 1537.53 Q1581.94 1532.88 1583.12 1531.53 Q1585.36 1529.01 1586.24 1527.27 Q1587.15 1525.51 1587.15 1523.82 Q1587.15 1521.07 1585.2 1519.33 Q1583.28 1517.6 1580.18 1517.6 Q1577.98 1517.6 1575.53 1518.36 Q1573.1 1519.13 1570.32 1520.68 L1570.32 1515.95 Q1573.14 1514.82 1575.6 1514.24 Q1578.05 1513.66 1580.09 1513.66 Q1585.46 1513.66 1588.65 1516.35 Q1591.85 1519.03 1591.85 1523.52 Q1591.85 1525.65 1591.04 1527.57 Q1590.25 1529.47 1588.14 1532.07 Q1587.56 1532.74 1584.46 1535.95 Q1581.36 1539.15 1575.71 1544.91 Z" fill="#000000" fill-rule="nonzero" fill-opacity="1" /><path clip-path="url(#clip870)" d="M1611.85 1517.37 Q1608.23 1517.37 1606.41 1520.93 Q1604.6 1524.47 1604.6 1531.6 Q1604.6 1538.71 1606.41 1542.27 Q1608.23 1545.82 1611.85 1545.82 Q1615.48 1545.82 1617.29 1542.27 Q1619.11 1538.71 1619.11 1531.6 Q1619.11 1524.47 1617.29 1520.93 Q1615.48 1517.37 1611.85 1517.37 M1611.85 1513.66 Q1617.66 1513.66 1620.71 1518.27 Q1623.79 1522.85 1623.79 1531.6 Q1623.79 1540.33 1620.71 1544.94 Q1617.66 1549.52 1611.85 1549.52 Q1606.04 1549.52 1602.96 1544.94 Q1599.9 1540.33 1599.9 1531.6 Q1599.9 1522.85 1602.96 1518.27 Q1606.04 1513.66 1611.85 1513.66 Z" fill="#000000" fill-rule="nonzero" fill-opacity="1" /><path clip-path="url(#clip870)" d="M2279.19 1530.21 Q2282.55 1530.93 2284.42 1533.2 Q2286.32 1535.47 2286.32 1538.8 Q2286.32 1543.92 2282.8 1546.72 Q2279.28 1549.52 2272.8 1549.52 Q2270.63 1549.52 2268.31 1549.08 Q2266.02 1548.66 2263.57 1547.81 L2263.57 1543.29 Q2265.51 1544.43 2267.83 1545.01 Q2270.14 1545.58 2272.66 1545.58 Q2277.06 1545.58 2279.35 1543.85 Q2281.67 1542.11 2281.67 1538.8 Q2281.67 1535.75 2279.52 1534.03 Q2277.39 1532.3 2273.57 1532.3 L2269.54 1532.3 L2269.54 1528.45 L2273.75 1528.45 Q2277.2 1528.45 2279.03 1527.09 Q2280.86 1525.7 2280.86 1523.11 Q2280.86 1520.45 2278.96 1519.03 Q2277.09 1517.6 2273.57 1517.6 Q2271.65 1517.6 2269.45 1518.01 Q2267.25 1518.43 2264.61 1519.31 L2264.61 1515.14 Q2267.27 1514.4 2269.59 1514.03 Q2271.92 1513.66 2273.98 1513.66 Q2279.31 1513.66 2282.41 1516.09 Q2285.51 1518.5 2285.51 1522.62 Q2285.51 1525.49 2283.87 1527.48 Q2282.22 1529.45 2279.19 1530.21 Z" fill="#000000" fill-rule="nonzero" fill-opacity="1" /><path clip-path="url(#clip870)" d="M2305.19 1517.37 Q2301.58 1517.37 2299.75 1520.93 Q2297.94 1524.47 2297.94 1531.6 Q2297.94 1538.71 2299.75 1542.27 Q2301.58 1545.82 2305.19 1545.82 Q2308.82 1545.82 2310.63 1542.27 Q2312.46 1538.71 2312.46 1531.6 Q2312.46 1524.47 2310.63 1520.93 Q2308.82 1517.37 2305.19 1517.37 M2305.19 1513.66 Q2311 1513.66 2314.05 1518.27 Q2317.13 1522.85 2317.13 1531.6 Q2317.13 1540.33 2314.05 1544.94 Q2311 1549.52 2305.19 1549.52 Q2299.38 1549.52 2296.3 1544.94 Q2293.24 1540.33 2293.24 1531.6 Q2293.24 1522.85 2296.3 1518.27 Q2299.38 1513.66 2305.19 1513.66 Z" fill="#000000" fill-rule="nonzero" fill-opacity="1" /><polyline clip-path="url(#clip872)" style="stroke:#000000; stroke-linecap:round; stroke-linejoin:round; stroke-width:2; stroke-opacity:0.1; fill:none" points="147.709,1440.27 2352.76,1440.27 "/>
<polyline clip-path="url(#clip872)" style="stroke:#000000; stroke-linecap:round; stroke-linejoin:round; stroke-width:2; stroke-opacity:0.1; fill:none" points="147.709,1170.37 2352.76,1170.37 "/>
<polyline clip-path="url(#clip872)" style="stroke:#000000; stroke-linecap:round; stroke-linejoin:round; stroke-width:2; stroke-opacity:0.1; fill:none" points="147.709,900.464 2352.76,900.464 "/>
<polyline clip-path="url(#clip872)" style="stroke:#000000; stroke-linecap:round; stroke-linejoin:round; stroke-width:2; stroke-opacity:0.1; fill:none" points="147.709,630.56 2352.76,630.56 "/>
<polyline clip-path="url(#clip872)" style="stroke:#000000; stroke-linecap:round; stroke-linejoin:round; stroke-width:2; stroke-opacity:0.1; fill:none" points="147.709,360.656 2352.76,360.656 "/>
<polyline clip-path="url(#clip872)" style="stroke:#000000; stroke-linecap:round; stroke-linejoin:round; stroke-width:2; stroke-opacity:0.1; fill:none" points="147.709,90.7514 2352.76,90.7514 "/>
<polyline clip-path="url(#clip870)" style="stroke:#000000; stroke-linecap:round; stroke-linejoin:round; stroke-width:4; stroke-opacity:1; fill:none" points="147.709,1486.45 147.709,47.2441 "/>
<polyline clip-path="url(#clip870)" style="stroke:#000000; stroke-linecap:round; stroke-linejoin:round; stroke-width:4; stroke-opacity:1; fill:none" points="147.709,1440.27 166.607,1440.27 "/>
<polyline clip-path="url(#clip870)" style="stroke:#000000; stroke-linecap:round; stroke-linejoin:round; stroke-width:4; stroke-opacity:1; fill:none" points="147.709,1170.37 166.607,1170.37 "/>
<polyline clip-path="url(#clip870)" style="stroke:#000000; stroke-linecap:round; stroke-linejoin:round; stroke-width:4; stroke-opacity:1; fill:none" points="147.709,900.464 166.607,900.464 "/>
<polyline clip-path="url(#clip870)" style="stroke:#000000; stroke-linecap:round; stroke-linejoin:round; stroke-width:4; stroke-opacity:1; fill:none" points="147.709,630.56 166.607,630.56 "/>
<polyline clip-path="url(#clip870)" style="stroke:#000000; stroke-linecap:round; stroke-linejoin:round; stroke-width:4; stroke-opacity:1; fill:none" points="147.709,360.656 166.607,360.656 "/>
<polyline clip-path="url(#clip870)" style="stroke:#000000; stroke-linecap:round; stroke-linejoin:round; stroke-width:4; stroke-opacity:1; fill:none" points="147.709,90.7514 166.607,90.7514 "/>
<path clip-path="url(#clip870)" d="M50.9921 1440.72 L80.6679 1440.72 L80.6679 1444.66 L50.9921 1444.66 L50.9921 1440.72 Z" fill="#000000" fill-rule="nonzero" fill-opacity="1" /><path clip-path="url(#clip870)" d="M90.8067 1422.99 L109.163 1422.99 L109.163 1426.93 L95.0891 1426.93 L95.0891 1435.4 Q96.1076 1435.05 97.1261 1434.89 Q98.1447 1434.7 99.1632 1434.7 Q104.95 1434.7 108.33 1437.88 Q111.709 1441.05 111.709 1446.46 Q111.709 1452.04 108.237 1455.14 Q104.765 1458.22 98.4456 1458.22 Q96.2697 1458.22 94.0012 1457.85 Q91.7558 1457.48 89.3484 1456.74 L89.3484 1452.04 Q91.4317 1453.18 93.6539 1453.73 Q95.8761 1454.29 98.353 1454.29 Q102.358 1454.29 104.696 1452.18 Q107.033 1450.08 107.033 1446.46 Q107.033 1442.85 104.696 1440.75 Q102.358 1438.64 98.353 1438.64 Q96.478 1438.64 94.603 1439.06 Q92.7512 1439.47 90.8067 1440.35 L90.8067 1422.99 Z" fill="#000000" fill-rule="nonzero" fill-opacity="1" /><path clip-path="url(#clip870)" d="M99.765 1156.17 Q96.1539 1156.17 94.3252 1159.73 Q92.5197 1163.27 92.5197 1170.4 Q92.5197 1177.51 94.3252 1181.07 Q96.1539 1184.62 99.765 1184.62 Q103.399 1184.62 105.205 1181.07 Q107.033 1177.51 107.033 1170.4 Q107.033 1163.27 105.205 1159.73 Q103.399 1156.17 99.765 1156.17 M99.765 1152.46 Q105.575 1152.46 108.631 1157.07 Q111.709 1161.65 111.709 1170.4 Q111.709 1179.13 108.631 1183.74 Q105.575 1188.32 99.765 1188.32 Q93.9549 1188.32 90.8762 1183.74 Q87.8206 1179.13 87.8206 1170.4 Q87.8206 1161.65 90.8762 1157.07 Q93.9549 1152.46 99.765 1152.46 Z" fill="#000000" fill-rule="nonzero" fill-opacity="1" /><path clip-path="url(#clip870)" d="M90.8067 883.184 L109.163 883.184 L109.163 887.119 L95.0891 887.119 L95.0891 895.591 Q96.1076 895.244 97.1261 895.082 Q98.1447 894.897 99.1632 894.897 Q104.95 894.897 108.33 898.068 Q111.709 901.239 111.709 906.656 Q111.709 912.235 108.237 915.336 Q104.765 918.415 98.4456 918.415 Q96.2697 918.415 94.0012 918.045 Q91.7558 917.674 89.3484 916.934 L89.3484 912.235 Q91.4317 913.369 93.6539 913.924 Q95.8761 914.48 98.353 914.48 Q102.358 914.48 104.696 912.373 Q107.033 910.267 107.033 906.656 Q107.033 903.045 104.696 900.938 Q102.358 898.832 98.353 898.832 Q96.478 898.832 94.603 899.248 Q92.7512 899.665 90.8067 900.545 L90.8067 883.184 Z" fill="#000000" fill-rule="nonzero" fill-opacity="1" /><path clip-path="url(#clip870)" d="M60.4134 643.904 L68.0522 643.904 L68.0522 617.539 L59.7421 619.206 L59.7421 614.946 L68.0059 613.28 L72.6818 613.28 L72.6818 643.904 L80.3207 643.904 L80.3207 647.84 L60.4134 647.84 L60.4134 643.904 Z" fill="#000000" fill-rule="nonzero" fill-opacity="1" /><path clip-path="url(#clip870)" d="M99.765 616.358 Q96.1539 616.358 94.3252 619.923 Q92.5197 623.465 92.5197 630.594 Q92.5197 637.701 94.3252 641.266 Q96.1539 644.807 99.765 644.807 Q103.399 644.807 105.205 641.266 Q107.033 637.701 107.033 630.594 Q107.033 623.465 105.205 619.923 Q103.399 616.358 99.765 616.358 M99.765 612.655 Q105.575 612.655 108.631 617.261 Q111.709 621.844 111.709 630.594 Q111.709 639.321 108.631 643.928 Q105.575 648.511 99.765 648.511 Q93.9549 648.511 90.8762 643.928 Q87.8206 639.321 87.8206 630.594 Q87.8206 621.844 90.8762 617.261 Q93.9549 612.655 99.765 612.655 Z" fill="#000000" fill-rule="nonzero" fill-opacity="1" /><path clip-path="url(#clip870)" d="M61.4087 374 L69.0476 374 L69.0476 347.635 L60.7374 349.301 L60.7374 345.042 L69.0013 343.376 L73.6772 343.376 L73.6772 374 L81.316 374 L81.316 377.936 L61.4087 377.936 L61.4087 374 Z" fill="#000000" fill-rule="nonzero" fill-opacity="1" /><path clip-path="url(#clip870)" d="M90.8067 343.376 L109.163 343.376 L109.163 347.311 L95.0891 347.311 L95.0891 355.783 Q96.1076 355.436 97.1261 355.274 Q98.1447 355.088 99.1632 355.088 Q104.95 355.088 108.33 358.26 Q111.709 361.431 111.709 366.848 Q111.709 372.426 108.237 375.528 Q104.765 378.607 98.4456 378.607 Q96.2697 378.607 94.0012 378.236 Q91.7558 377.866 89.3484 377.125 L89.3484 372.426 Q91.4317 373.561 93.6539 374.116 Q95.8761 374.672 98.353 374.672 Q102.358 374.672 104.696 372.565 Q107.033 370.459 107.033 366.848 Q107.033 363.237 104.696 361.13 Q102.358 359.024 98.353 359.024 Q96.478 359.024 94.603 359.44 Q92.7512 359.857 90.8067 360.737 L90.8067 343.376 Z" fill="#000000" fill-rule="nonzero" fill-opacity="1" /><path clip-path="url(#clip870)" d="M63.6309 104.096 L79.9503 104.096 L79.9503 108.031 L58.006 108.031 L58.006 104.096 Q60.668 101.342 65.2513 96.712 Q69.8578 92.0592 71.0383 90.7167 Q73.2837 88.1935 74.1633 86.4574 Q75.0661 84.6982 75.0661 83.0084 Q75.0661 80.2538 73.1216 78.5177 Q71.2004 76.7816 68.0985 76.7816 Q65.8995 76.7816 63.4458 77.5454 Q61.0152 78.3093 58.2375 79.8602 L58.2375 75.138 Q61.0615 74.0038 63.5152 73.4251 Q65.9689 72.8464 68.0059 72.8464 Q73.3763 72.8464 76.5707 75.5316 Q79.7651 78.2167 79.7651 82.7074 Q79.7651 84.8371 78.9549 86.7583 Q78.1679 88.6565 76.0614 91.2491 Q75.4827 91.9204 72.3809 95.1379 Q69.2791 98.3324 63.6309 104.096 Z" fill="#000000" fill-rule="nonzero" fill-opacity="1" /><path clip-path="url(#clip870)" d="M99.765 76.5501 Q96.1539 76.5501 94.3252 80.1149 Q92.5197 83.6565 92.5197 90.7861 Q92.5197 97.8925 94.3252 101.457 Q96.1539 104.999 99.765 104.999 Q103.399 104.999 105.205 101.457 Q107.033 97.8925 107.033 90.7861 Q107.033 83.6565 105.205 80.1149 Q103.399 76.5501 99.765 76.5501 M99.765 72.8464 Q105.575 72.8464 108.631 77.4528 Q111.709 82.0362 111.709 90.7861 Q111.709 99.5129 108.631 104.119 Q105.575 108.703 99.765 108.703 Q93.9549 108.703 90.8762 104.119 Q87.8206 99.5129 87.8206 90.7861 Q87.8206 82.0362 90.8762 77.4528 Q93.9549 72.8464 99.765 72.8464 Z" fill="#000000" fill-rule="nonzero" fill-opacity="1" /><path clip-path="url(#clip872)" d="M210.116 1291.94 L279.457 1409.48 L348.799 1445.72 L418.14 1443.05 L487.481 1431.32 L556.822 1413.89 L626.163 1402.4 L695.504 1391.97 L764.845 1380.39 L834.186 1369.14 L903.527 1361.03 L972.868 1351.64 L1042.21 1343.48 L1111.55 1332.15 L1180.89 1325.86 L1250.23 1317.51 L1319.57 1307.34 L1388.91 1297.94 L1458.26 1291.84 L1527.6 1284.51 L1596.94 1277.21 L1666.28 1270.99 L1735.62 1263.45 L1804.96 1262.67 L1874.3 1259.38 L1943.64 1259.69 L2012.98 1256.14 L2082.33 1251.91 L2151.67 1245.75 L2221.01 1243.33 L2290.35 1241.15 L2290.35 904.605 L2221.01 890.609 L2151.67 876.706 L2082.33 858.236 L2012.98 842.776 L1943.64 825.822 L1874.3 811.31 L1804.96 791.019 L1735.62 772.527 L1666.28 752.451 L1596.94 732.805 L1527.6 703.777 L1458.26 678.975 L1388.91 655.139 L1319.57 629.424 L1250.23 602.54 L1180.89 571.585 L1111.55 535.695 L1042.21 500.658 L972.868 468.11 L903.527 429.194 L834.186 385.762 L764.845 343.735 L695.504 303.074 L626.163 256.892 L556.822 209.428 L487.481 163.019 L418.14 116.756 L348.799 87.9763 L279.457 160.593 L210.116 1058.12  Z" fill="#009af9" fill-rule="evenodd" fill-opacity="0.2"/>
<polyline clip-path="url(#clip872)" style="stroke:#009af9; stroke-linecap:round; stroke-linejoin:round; stroke-width:12; stroke-opacity:1; fill:none" points="210.116,1155.36 279.457,1124.34 348.799,1119.31 418.14,1119.8 487.481,1121.41 556.822,1126.75 626.163,1128.9 695.504,1128.93 764.845,1129.43 834.186,1132.62 903.527,1128.14 972.868,1130.27 1042.21,1134.11 1111.55,1135.66 1180.89,1140.23 1250.23,1145.73 1319.57,1148.73 1388.91,1145.34 1458.26,1143.52 1527.6,1143.94 1596.94,1148.99 1666.28,1148.67 1735.62,1149.6 1804.96,1150.45 1874.3,1151.19 1943.64,1151.54 2012.98,1150.33 2082.33,1149.94 2151.67,1153.47 2221.01,1155.82 2290.35,1154.45 "/>
<path clip-path="url(#clip872)" d="M210.116 1222.03 L279.457 1181.18 L348.799 1172.86 L418.14 1171.35 L487.481 1171.28 L556.822 1171.42 L626.163 1171.21 L695.504 1171.19 L764.845 1171.23 L834.186 1171.13 L903.527 1171.13 L972.868 1171.54 L1042.21 1171.2 L1111.55 1171.28 L1180.89 1170.98 L1250.23 1171.27 L1319.57 1170.93 L1388.91 1171.23 L1458.26 1171.11 L1527.6 1171.15 L1596.94 1171.03 L1666.28 1171.21 L1735.62 1171.09 L1804.96 1171.28 L1874.3 1171.13 L1943.64 1171.11 L2012.98 1171.13 L2082.33 1171.3 L2151.67 1171.57 L2221.01 1171.12 L2290.35 1171.01 L2290.35 1169.51 L2221.01 1169.38 L2151.67 1169.67 L2082.33 1169.52 L2012.98 1169.52 L1943.64 1169.29 L1874.3 1169.36 L1804.96 1169.61 L1735.62 1169.4 L1666.28 1169.69 L1596.94 1169.16 L1527.6 1169.47 L1458.26 1169.59 L1388.91 1169.57 L1319.57 1169.36 L1250.23 1169.69 L1180.89 1169.73 L1111.55 1169.66 L1042.21 1169.84 L972.868 1169.81 L903.527 1169.43 L834.186 1169.59 L764.845 1169.68 L695.504 1169.71 L626.163 1169.41 L556.822 1169.28 L487.481 1169.27 L418.14 1169.2 L348.799 1167.02 L279.457 1154.04 L210.116 1087.27  Z" fill="#e26f46" fill-rule="evenodd" fill-opacity="0.2"/>
<polyline clip-path="url(#clip872)" style="stroke:#e26f46; stroke-linecap:round; stroke-linejoin:round; stroke-width:12; stroke-opacity:1; fill:none" points="210.116,1163.84 279.457,1168.97 348.799,1170.16 418.14,1170.3 487.481,1170.33 556.822,1170.41 626.163,1170.21 695.504,1170.4 764.845,1170.27 834.186,1170.53 903.527,1170.24 972.868,1170.48 1042.21,1170.56 1111.55,1170.63 1180.89,1170.42 1250.23,1170.39 1319.57,1170.16 1388.91,1170.35 1458.26,1170.29 1527.6,1170.36 1596.94,1170.29 1666.28,1170.31 1735.62,1170.32 1804.96,1170.3 1874.3,1170.28 1943.64,1170.33 2012.98,1170.19 2082.33,1170.34 2151.67,1170.4 2221.01,1170.37 2290.35,1170.17 "/>
</svg>
