<?xml version="1.0" encoding="utf-8"?>
<svg xmlns="http://www.w3.org/2000/svg" xmlns:xlink="http://www.w3.org/1999/xlink" width="600" height="400" viewBox="0 0 2400 1600">
<defs>
  <clipPath id="clip020">
    <rect x="0" y="0" width="2400" height="1600"/>
  </clipPath>
</defs>
<path clip-path="url(#clip020)" d="M0 1600 L2400 1600 L2400 0 L0 0  Z" fill="#ffffff" fill-rule="evenodd" fill-opacity="1"/>
<defs>
  <clipPath id="clip021">
    <rect x="480" y="0" width="1681" height="1600"/>
  </clipPath>
</defs>
<path clip-path="url(#clip020)" d="M138.959 1486.45 L2352.76 1486.45 L2352.76 47.2441 L138.959 47.2441  Z" fill="#ffffff" fill-rule="evenodd" fill-opacity="1"/>
<defs>
  <clipPath id="clip022">
    <rect x="138" y="47" width="2215" height="1440"/>
  </clipPath>
</defs>
<polyline clip-path="url(#clip022)" style="stroke:#000000; stroke-linecap:round; stroke-linejoin:round; stroke-width:2; stroke-opacity:0.1; fill:none" points="201.614,1486.45 201.614,47.2441 "/>
<polyline clip-path="url(#clip022)" style="stroke:#000000; stroke-linecap:round; stroke-linejoin:round; stroke-width:2; stroke-opacity:0.1; fill:none" points="897.776,1486.45 897.776,47.2441 "/>
<polyline clip-path="url(#clip022)" style="stroke:#000000; stroke-linecap:round; stroke-linejoin:round; stroke-width:2; stroke-opacity:0.1; fill:none" points="1593.94,1486.45 1593.94,47.2441 "/>
<polyline clip-path="url(#clip022)" style="stroke:#000000; stroke-linecap:round; stroke-linejoin:round; stroke-width:2; stroke-opacity:0.1; fill:none" points="2290.1,1486.45 2290.1,47.2441 "/>
<polyline clip-path="url(#clip020)" style="stroke:#000000; stroke-linecap:round; stroke-linejoin:round; stroke-width:4; stroke-opacity:1; fill:none" points="138.959,1486.45 2352.76,1486.45 "/>
<polyline clip-path="url(#clip020)" style="stroke:#000000; stroke-linecap:round; stroke-linejoin:round; stroke-width:4; stroke-opacity:1; fill:none" points="201.614,1486.45 201.614,1467.55 "/>
<polyline clip-path="url(#clip020)" style="stroke:#000000; stroke-linecap:round; stroke-linejoin:round; stroke-width:4; stroke-opacity:1; fill:none" points="897.776,1486.45 897.776,1467.55 "/>
<polyline clip-path="url(#clip020)" style="stroke:#000000; stroke-linecap:round; stroke-linejoin:round; stroke-width:4; stroke-opacity:1; fill:none" points="1593.94,1486.45 1593.94,1467.55 "/>
<polyline clip-path="url(#clip020)" style="stroke:#000000; stroke-linecap:round; stroke-linejoin:round; stroke-width:4; stroke-opacity:1; fill:none" points="2290.1,1486.45 2290.1,1467.55 "/>
<path clip-path="url(#clip020)" d="M201.614 1517.37 Q198.003 1517.37 196.174 1520.93 Q194.369 1524.47 194.369 1531.6 Q194.369 1538.71 196.174 1542.27 Q198.003 1545.82 201.614 1545.82 Q205.248 1545.82 207.054 1542.27 Q208.883 1538.71 208.883 1531.6 Q208.883 1524.47 207.054 1520.93 Q205.248 1517.37 201.614 1517.37 M201.614 1513.66 Q207.424 1513.66 210.48 1518.27 Q213.558 1522.85 213.558 1531.6 Q213.558 1540.33 210.48 1544.94 Q207.424 1549.52 201.614 1549.52 Q195.804 1549.52 192.725 1544.94 Q189.67 1540.33 189.67 1531.6 Q189.67 1522.85 192.725 1518.27 Q195.804 1513.66 201.614 1513.66 Z" fill="#000000" fill-rule="nonzero" fill-opacity="1" /><path clip-path="url(#clip020)" d="M872.464 1544.91 L880.103 1544.91 L880.103 1518.55 L871.793 1520.21 L871.793 1515.95 L880.057 1514.29 L884.733 1514.29 L884.733 1544.91 L892.371 1544.91 L892.371 1548.85 L872.464 1548.85 L872.464 1544.91 Z" fill="#000000" fill-rule="nonzero" fill-opacity="1" /><path clip-path="url(#clip020)" d="M911.816 1517.37 Q908.205 1517.37 906.376 1520.93 Q904.57 1524.47 904.57 1531.6 Q904.57 1538.71 906.376 1542.27 Q908.205 1545.82 911.816 1545.82 Q915.45 1545.82 917.256 1542.27 Q919.084 1538.71 919.084 1531.6 Q919.084 1524.47 917.256 1520.93 Q915.45 1517.37 911.816 1517.37 M911.816 1513.66 Q917.626 1513.66 920.681 1518.27 Q923.76 1522.85 923.76 1531.6 Q923.76 1540.33 920.681 1544.94 Q917.626 1549.52 911.816 1549.52 Q906.006 1549.52 902.927 1544.94 Q899.871 1540.33 899.871 1531.6 Q899.871 1522.85 902.927 1518.27 Q906.006 1513.66 911.816 1513.66 Z" fill="#000000" fill-rule="nonzero" fill-opacity="1" /><path clip-path="url(#clip020)" d="M1572.71 1544.91 L1589.03 1544.91 L1589.03 1548.85 L1567.09 1548.85 L1567.09 1544.91 Q1569.75 1542.16 1574.33 1537.53 Q1578.94 1532.88 1580.12 1531.53 Q1582.36 1529.01 1583.24 1527.27 Q1584.15 1525.51 1584.15 1523.82 Q1584.15 1521.07 1582.2 1519.33 Q1580.28 1517.6 1577.18 1517.6 Q1574.98 1517.6 1572.53 1518.36 Q1570.1 1519.13 1567.32 1520.68 L1567.32 1515.95 Q1570.14 1514.82 1572.6 1514.24 Q1575.05 1513.66 1577.09 1513.66 Q1582.46 1513.66 1585.65 1516.35 Q1588.85 1519.03 1588.85 1523.52 Q1588.85 1525.65 1588.04 1527.57 Q1587.25 1529.47 1585.14 1532.07 Q1584.56 1532.74 1581.46 1535.95 Q1578.36 1539.15 1572.71 1544.91 Z" fill="#000000" fill-rule="nonzero" fill-opacity="1" /><path clip-path="url(#clip020)" d="M1608.85 1517.37 Q1605.24 1517.37 1603.41 1520.93 Q1601.6 1524.47 1601.6 1531.6 Q1601.6 1538.71 1603.41 1542.27 Q1605.24 1545.82 1608.85 1545.82 Q1612.48 1545.82 1614.29 1542.27 Q1616.11 1538.71 1616.11 1531.6 Q1616.11 1524.47 1614.29 1520.93 Q1612.48 1517.37 1608.85 1517.37 M1608.85 1513.66 Q1614.66 1513.66 1617.71 1518.27 Q1620.79 1522.85 1620.79 1531.6 Q1620.79 1540.33 1617.71 1544.94 Q1614.66 1549.52 1608.85 1549.52 Q1603.04 1549.52 1599.96 1544.94 Q1596.9 1540.33 1596.9 1531.6 Q1596.9 1522.85 1599.96 1518.27 Q1603.04 1513.66 1608.85 1513.66 Z" fill="#000000" fill-rule="nonzero" fill-opacity="1" /><path clip-path="url(#clip020)" d="M2278.94 1530.21 Q2282.3 1530.93 2284.18 1533.2 Q2286.07 1535.47 2286.07 1538.8 Q2286.07 1543.92 2282.56 1546.72 Q2279.04 1549.52 2272.56 1549.52 Q2270.38 1549.52 2268.06 1549.08 Q2265.77 1548.66 2263.32 1547.81 L2263.32 1543.29 Q2265.26 1544.43 2267.58 1545.01 Q2269.89 1545.58 2272.42 1545.58 Q2276.81 1545.58 2279.11 1543.85 Q2281.42 1542.11 2281.42 1538.8 Q2281.42 1535.75 2279.27 1534.03 Q2277.14 1532.3 2273.32 1532.3 L2269.29 1532.3 L2269.29 1528.45 L2273.5 1528.45 Q2276.95 1528.45 2278.78 1527.09 Q2280.61 1525.7 2280.61 1523.11 Q2280.61 1520.45 2278.71 1519.03 Q2276.84 1517.6 2273.32 1517.6 Q2271.4 1517.6 2269.2 1518.01 Q2267 1518.43 2264.36 1519.31 L2264.36 1515.14 Q2267.02 1514.4 2269.34 1514.03 Q2271.68 1513.66 2273.74 1513.66 Q2279.06 1513.66 2282.16 1516.09 Q2285.26 1518.5 2285.26 1522.62 Q2285.26 1525.49 2283.62 1527.48 Q2281.98 1529.45 2278.94 1530.21 Z" fill="#000000" fill-rule="nonzero" fill-opacity="1" /><path clip-path="url(#clip020)" d="M2304.94 1517.37 Q2301.33 1517.37 2299.5 1520.93 Q2297.69 1524.47 2297.69 1531.6 Q2297.69 1538.71 2299.5 1542.27 Q2301.33 1545.82 2304.94 1545.82 Q2308.57 1545.82 2310.38 1542.27 Q2312.21 1538.71 2312.21 1531.6 Q2312.21 1524.47 2310.38 1520.93 Q2308.57 1517.37 2304.94 1517.37 M2304.94 1513.66 Q2310.75 1513.66 2313.8 1518.27 Q2316.88 1522.85 2316.88 1531.6 Q2316.88 1540.33 2313.8 1544.94 Q2310.75 1549.52 2304.94 1549.52 Q2299.13 1549.52 2296.05 1544.94 Q2292.99 1540.33 2292.99 1531.6 Q2292.99 1522.85 2296.05 1518.27 Q2299.13 1513.66 2304.94 1513.66 Z" fill="#000000" fill-rule="nonzero" fill-opacity="1" /><polyline clip-path="url(#clip022)" style="stroke:#000000; stroke-linecap:round; stroke-linejoin:round; stroke-width:2; stroke-opacity:0.1; fill:none" points="138.959,1169.87 2352.76,1169.87 "/>
<polyline clip-path="url(#clip022)" style="stroke:#000000; stroke-linecap:round; stroke-linejoin:round; stroke-width:2; stroke-opacity:0.1; fill:none" points="138.959,834.042 2352.76,834.042 "/>
<polyline clip-path="url(#clip022)" style="stroke:#000000; stroke-linecap:round; stroke-linejoin:round; stroke-width:2; stroke-opacity:0.1; fill:none" points="138.959,498.211 2352.76,498.211 "/>
<polyline clip-path="url(#clip022)" style="stroke:#000000; stroke-linecap:round; stroke-linejoin:round; stroke-width:2; stroke-opacity:0.1; fill:none" points="138.959,162.38 2352.76,162.38 "/>
<polyline clip-path="url(#clip020)" style="stroke:#000000; stroke-linecap:round; stroke-linejoin:round; stroke-width:4; stroke-opacity:1; fill:none" points="138.959,1486.45 138.959,47.2441 "/>
<polyline clip-path="url(#clip020)" style="stroke:#000000; stroke-linecap:round; stroke-linejoin:round; stroke-width:4; stroke-opacity:1; fill:none" points="138.959,1169.87 157.857,1169.87 "/>
<polyline clip-path="url(#clip020)" style="stroke:#000000; stroke-linecap:round; stroke-linejoin:round; stroke-width:4; stroke-opacity:1; fill:none" points="138.959,834.042 157.857,834.042 "/>
<polyline clip-path="url(#clip020)" style="stroke:#000000; stroke-linecap:round; stroke-linejoin:round; stroke-width:4; stroke-opacity:1; fill:none" points="138.959,498.211 157.857,498.211 "/>
<polyline clip-path="url(#clip020)" style="stroke:#000000; stroke-linecap:round; stroke-linejoin:round; stroke-width:4; stroke-opacity:1; fill:none" points="138.959,162.38 157.857,162.38 "/>
<path clip-path="url(#clip020)" d="M91.0151 1155.67 Q87.404 1155.67 85.5753 1159.24 Q83.7697 1162.78 83.7697 1169.91 Q83.7697 1177.01 85.5753 1180.58 Q87.404 1184.12 91.0151 1184.12 Q94.6493 1184.12 96.4548 1180.58 Q98.2835 1177.01 98.2835 1169.91 Q98.2835 1162.78 96.4548 1159.24 Q94.6493 1155.67 91.0151 1155.67 M91.0151 1151.97 Q96.8252 1151.97 99.8808 1156.57 Q102.959 1161.16 102.959 1169.91 Q102.959 1178.63 99.8808 1183.24 Q96.8252 1187.82 91.0151 1187.82 Q85.2049 1187.82 82.1262 1183.24 Q79.0707 1178.63 79.0707 1169.91 Q79.0707 1161.16 82.1262 1156.57 Q85.2049 1151.97 91.0151 1151.97 Z" fill="#000000" fill-rule="nonzero" fill-opacity="1" /><path clip-path="url(#clip020)" d="M82.0568 816.762 L100.413 816.762 L100.413 820.697 L86.3392 820.697 L86.3392 829.169 Q87.3577 828.822 88.3762 828.66 Q89.3947 828.475 90.4132 828.475 Q96.2002 828.475 99.5798 831.646 Q102.959 834.817 102.959 840.234 Q102.959 845.813 99.4872 848.915 Q96.015 851.993 89.6956 851.993 Q87.5197 851.993 85.2512 851.623 Q83.0058 851.253 80.5984 850.512 L80.5984 845.813 Q82.6818 846.947 84.904 847.503 Q87.1262 848.058 89.603 848.058 Q93.6076 848.058 95.9456 845.952 Q98.2835 843.845 98.2835 840.234 Q98.2835 836.623 95.9456 834.517 Q93.6076 832.41 89.603 832.41 Q87.728 832.41 85.8531 832.827 Q84.0012 833.243 82.0568 834.123 L82.0568 816.762 Z" fill="#000000" fill-rule="nonzero" fill-opacity="1" /><path clip-path="url(#clip020)" d="M51.6634 511.556 L59.3023 511.556 L59.3023 485.19 L50.9921 486.857 L50.9921 482.598 L59.256 480.931 L63.9319 480.931 L63.9319 511.556 L71.5707 511.556 L71.5707 515.491 L51.6634 515.491 L51.6634 511.556 Z" fill="#000000" fill-rule="nonzero" fill-opacity="1" /><path clip-path="url(#clip020)" d="M91.0151 484.01 Q87.404 484.01 85.5753 487.574 Q83.7697 491.116 83.7697 498.246 Q83.7697 505.352 85.5753 508.917 Q87.404 512.458 91.0151 512.458 Q94.6493 512.458 96.4548 508.917 Q98.2835 505.352 98.2835 498.246 Q98.2835 491.116 96.4548 487.574 Q94.6493 484.01 91.0151 484.01 M91.0151 480.306 Q96.8252 480.306 99.8808 484.912 Q102.959 489.496 102.959 498.246 Q102.959 506.972 99.8808 511.579 Q96.8252 516.162 91.0151 516.162 Q85.2049 516.162 82.1262 511.579 Q79.0707 506.972 79.0707 498.246 Q79.0707 489.496 82.1262 484.912 Q85.2049 480.306 91.0151 480.306 Z" fill="#000000" fill-rule="nonzero" fill-opacity="1" /><path clip-path="url(#clip020)" d="M52.6588 175.725 L60.2976 175.725 L60.2976 149.359 L51.9875 151.026 L51.9875 146.766 L60.2513 145.1 L64.9272 145.1 L64.9272 175.725 L72.5661 175.725 L72.5661 179.66 L52.6588 179.66 L52.6588 175.725 Z" fill="#000000" fill-rule="nonzero" fill-opacity="1" /><path clip-path="url(#clip020)" d="M82.0568 145.1 L100.413 145.1 L100.413 149.035 L86.3392 149.035 L86.3392 157.507 Q87.3577 157.16 88.3762 156.998 Q89.3947 156.813 90.4132 156.813 Q96.2002 156.813 99.5798 159.984 Q102.959 163.155 102.959 168.572 Q102.959 174.15 99.4872 177.252 Q96.015 180.331 89.6956 180.331 Q87.5197 180.331 85.2512 179.961 Q83.0058 179.59 80.5984 178.849 L80.5984 174.15 Q82.6818 175.285 84.904 175.84 Q87.1262 176.396 89.603 176.396 Q93.6076 176.396 95.9456 174.289 Q98.2835 172.183 98.2835 168.572 Q98.2835 164.961 95.9456 162.854 Q93.6076 160.748 89.603 160.748 Q87.728 160.748 85.8531 161.164 Q84.0012 161.581 82.0568 162.461 L82.0568 145.1 Z" fill="#000000" fill-rule="nonzero" fill-opacity="1" /><path clip-path="url(#clip022)" d="M201.614 1253.93 L271.23 1377.89 L340.847 1439.5 L410.463 1445.72 L480.079 1437.41 L549.695 1426.46 L619.312 1413.51 L688.928 1403.17 L758.544 1398.14 L828.16 1388.84 L897.776 1384.3 L967.393 1369.76 L1037.01 1355.4 L1106.63 1348.06 L1176.24 1343.41 L1245.86 1331.96 L1315.47 1322.54 L1385.09 1311.1 L1454.71 1307.49 L1524.32 1305.55 L1593.94 1298.84 L1663.56 1291.41 L1733.17 1284.71 L1802.79 1283.17 L1872.4 1274.7 L1942.02 1267.51 L2011.64 1264.21 L2081.25 1259.12 L2150.87 1250.78 L2220.49 1242.9 L2290.1 1242.27 L2290.1 896.235 L2220.49 882.871 L2150.87 864.058 L2081.25 845.501 L2011.64 829.567 L1942.02 815.157 L1872.4 798.665 L1802.79 780.099 L1733.17 762.495 L1663.56 744.865 L1593.94 726.055 L1524.32 706.84 L1454.71 686.442 L1385.09 662.646 L1315.47 630.889 L1245.86 600.463 L1176.24 578.954 L1106.63 548.552 L1037.01 514.135 L967.393 472.021 L897.776 436.928 L828.16 395.75 L758.544 356.44 L688.928 318.015 L619.312 270.103 L549.695 221.77 L480.079 167.323 L410.463 121.531 L340.847 87.9763 L271.23 185.56 L201.614 1067.52  Z" fill="#009af9" fill-rule="evenodd" fill-opacity="0.2"/>
<polyline clip-path="url(#clip022)" style="stroke:#009af9; stroke-linecap:round; stroke-linejoin:round; stroke-width:12; stroke-opacity:1; fill:none" points="201.614,1156.72 271.23,1086.1 340.847,1099.81 410.463,1100.47 480.079,1102.86 549.695,1106.08 619.312,1110.73 688.928,1113 758.544,1118.41 828.16,1122.14 897.776,1124.92 967.393,1128.3 1037.01,1130.92 1106.63,1132.12 1176.24,1136.81 1245.86,1141.1 1315.47,1143.61 1385.09,1149.69 1454.71,1151.93 1524.32,1152.99 1593.94,1152.01 1663.56,1152.19 1733.17,1153.26 1802.79,1153.15 1872.4,1163.04 1942.02,1165.61 2011.64,1164.96 2081.25,1159.93 2150.87,1155.99 2220.49,1156.4 2290.1,1158.47 "/>
<path clip-path="url(#clip022)" d="M201.614 1270.66 L271.23 1190.07 L340.847 1174.34 L410.463 1170.88 L480.079 1170.9 L549.695 1170.67 L619.312 1170.62 L688.928 1171.15 L758.544 1170.8 L828.16 1171.16 L897.776 1170.75 L967.393 1171.06 L1037.01 1170.91 L1106.63 1170.86 L1176.24 1170.93 L1245.86 1170.9 L1315.47 1170.72 L1385.09 1170.73 L1454.71 1170.95 L1524.32 1171.15 L1593.94 1170.98 L1663.56 1171.34 L1733.17 1170.91 L1802.79 1171.19 L1872.4 1171.15 L1942.02 1171.02 L2011.64 1170.71 L2081.25 1170.93 L2150.87 1170.86 L2220.49 1170.77 L2290.1 1170.91 L2290.1 1168.84 L2220.49 1168.43 L2150.87 1168.92 L2081.25 1168.82 L2011.64 1168.88 L1942.02 1168.68 L1872.4 1168.8 L1802.79 1168.68 L1733.17 1169.09 L1663.56 1168.76 L1593.94 1168.89 L1524.32 1168.73 L1454.71 1168.87 L1385.09 1169 L1315.47 1169.03 L1245.86 1168.76 L1176.24 1168.93 L1106.63 1168.62 L1037.01 1168.81 L967.393 1168.63 L897.776 1168.67 L828.16 1168.55 L758.544 1168.83 L688.928 1168.78 L619.312 1168.93 L549.695 1168.61 L480.079 1168.94 L410.463 1168.25 L340.847 1166.2 L271.23 1150.62 L201.614 1075.92  Z" fill="#e26f46" fill-rule="evenodd" fill-opacity="0.2"/>
<polyline clip-path="url(#clip022)" style="stroke:#e26f46; stroke-linecap:round; stroke-linejoin:round; stroke-width:12; stroke-opacity:1; fill:none" points="201.614,1160.44 271.23,1167.72 340.847,1169.21 410.463,1169.62 480.079,1169.76 549.695,1169.75 619.312,1169.83 688.928,1169.91 758.544,1169.72 828.16,1170.05 897.776,1169.75 967.393,1169.88 1037.01,1169.77 1106.63,1169.87 1176.24,1169.81 1245.86,1169.8 1315.47,1169.71 1385.09,1169.69 1454.71,1169.9 1524.32,1170 1593.94,1169.96 1663.56,1169.99 1733.17,1169.82 1802.79,1169.79 1872.4,1169.92 1942.02,1169.87 2011.64,1169.97 2081.25,1169.9 2150.87,1169.79 2220.49,1169.79 2290.1,1169.75 "/>
</svg>
