<?xml version="1.0" encoding="utf-8"?>
<svg xmlns="http://www.w3.org/2000/svg" xmlns:xlink="http://www.w3.org/1999/xlink" width="600" height="400" viewBox="0 0 2400 1600">
<defs>
  <clipPath id="clip810">
    <rect x="0" y="0" width="2400" height="1600"/>
  </clipPath>
</defs>
<path clip-path="url(#clip810)" d="M0 1600 L2400 1600 L2400 0 L0 0  Z" fill="#ffffff" fill-rule="evenodd" fill-opacity="1"/>
<defs>
  <clipPath id="clip811">
    <rect x="480" y="0" width="1681" height="1600"/>
  </clipPath>
</defs>
<path clip-path="url(#clip810)" d="M194.422 1423.18 L2352.76 1423.18 L2352.76 47.2441 L194.422 47.2441  Z" fill="#ffffff" fill-rule="evenodd" fill-opacity="1"/>
<defs>
  <clipPath id="clip812">
    <rect x="194" y="47" width="2159" height="1377"/>
  </clipPath>
</defs>
<polyline clip-path="url(#clip812)" style="stroke:#000000; stroke-linecap:round; stroke-linejoin:round; stroke-width:2; stroke-opacity:0.1; fill:none" points="194.422,1423.18 194.422,47.2441 "/>
<polyline clip-path="url(#clip812)" style="stroke:#000000; stroke-linecap:round; stroke-linejoin:round; stroke-width:2; stroke-opacity:0.1; fill:none" points="913.867,1423.18 913.867,47.2441 "/>
<polyline clip-path="url(#clip812)" style="stroke:#000000; stroke-linecap:round; stroke-linejoin:round; stroke-width:2; stroke-opacity:0.1; fill:none" points="1633.31,1423.18 1633.31,47.2441 "/>
<polyline clip-path="url(#clip812)" style="stroke:#000000; stroke-linecap:round; stroke-linejoin:round; stroke-width:2; stroke-opacity:0.1; fill:none" points="2352.76,1423.18 2352.76,47.2441 "/>
<polyline clip-path="url(#clip810)" style="stroke:#000000; stroke-linecap:round; stroke-linejoin:round; stroke-width:4; stroke-opacity:1; fill:none" points="194.422,1423.18 2352.76,1423.18 "/>
<polyline clip-path="url(#clip810)" style="stroke:#000000; stroke-linecap:round; stroke-linejoin:round; stroke-width:4; stroke-opacity:1; fill:none" points="194.422,1423.18 194.422,1404.28 "/>
<polyline clip-path="url(#clip810)" style="stroke:#000000; stroke-linecap:round; stroke-linejoin:round; stroke-width:4; stroke-opacity:1; fill:none" points="913.867,1423.18 913.867,1404.28 "/>
<polyline clip-path="url(#clip810)" style="stroke:#000000; stroke-linecap:round; stroke-linejoin:round; stroke-width:4; stroke-opacity:1; fill:none" points="1633.31,1423.18 1633.31,1404.28 "/>
<polyline clip-path="url(#clip810)" style="stroke:#000000; stroke-linecap:round; stroke-linejoin:round; stroke-width:4; stroke-opacity:1; fill:none" points="2352.76,1423.18 2352.76,1404.28 "/>
<path clip-path="url(#clip810)" d="M194.422 1454.1 Q190.811 1454.1 188.982 1457.66 Q187.177 1461.2 187.177 1468.33 Q187.177 1475.44 188.982 1479.01 Q190.811 1482.55 194.422 1482.55 Q198.056 1482.55 199.862 1479.01 Q201.691 1475.44 201.691 1468.33 Q201.691 1461.2 199.862 1457.66 Q198.056 1454.1 194.422 1454.1 M194.422 1450.39 Q200.232 1450.39 203.288 1455 Q206.366 1459.58 206.366 1468.33 Q206.366 1477.06 203.288 1481.67 Q200.232 1486.25 194.422 1486.25 Q188.612 1486.25 185.533 1481.67 Q182.478 1477.06 182.478 1468.33 Q182.478 1459.58 185.533 1455 Q188.612 1450.39 194.422 1450.39 Z" fill="#000000" fill-rule="nonzero" fill-opacity="1" /><path clip-path="url(#clip810)" d="M888.554 1481.64 L896.193 1481.64 L896.193 1455.28 L887.883 1456.95 L887.883 1452.69 L896.147 1451.02 L900.823 1451.02 L900.823 1481.64 L908.462 1481.64 L908.462 1485.58 L888.554 1485.58 L888.554 1481.64 Z" fill="#000000" fill-rule="nonzero" fill-opacity="1" /><path clip-path="url(#clip810)" d="M927.906 1454.1 Q924.295 1454.1 922.466 1457.66 Q920.661 1461.2 920.661 1468.33 Q920.661 1475.44 922.466 1479.01 Q924.295 1482.55 927.906 1482.55 Q931.54 1482.55 933.346 1479.01 Q935.174 1475.44 935.174 1468.33 Q935.174 1461.2 933.346 1457.66 Q931.54 1454.1 927.906 1454.1 M927.906 1450.39 Q933.716 1450.39 936.772 1455 Q939.85 1459.58 939.85 1468.33 Q939.85 1477.06 936.772 1481.67 Q933.716 1486.25 927.906 1486.25 Q922.096 1486.25 919.017 1481.67 Q915.962 1477.06 915.962 1468.33 Q915.962 1459.58 919.017 1455 Q922.096 1450.39 927.906 1450.39 Z" fill="#000000" fill-rule="nonzero" fill-opacity="1" /><path clip-path="url(#clip810)" d="M1612.08 1481.64 L1628.4 1481.64 L1628.4 1485.58 L1606.46 1485.58 L1606.46 1481.64 Q1609.12 1478.89 1613.7 1474.26 Q1618.31 1469.61 1619.49 1468.27 Q1621.74 1465.74 1622.62 1464.01 Q1623.52 1462.25 1623.52 1460.56 Q1623.52 1457.8 1621.58 1456.07 Q1619.65 1454.33 1616.55 1454.33 Q1614.35 1454.33 1611.9 1455.09 Q1609.47 1455.86 1606.69 1457.41 L1606.69 1452.69 Q1609.52 1451.55 1611.97 1450.97 Q1614.42 1450.39 1616.46 1450.39 Q1621.83 1450.39 1625.02 1453.08 Q1628.22 1455.77 1628.22 1460.26 Q1628.22 1462.39 1627.41 1464.31 Q1626.62 1466.2 1624.52 1468.8 Q1623.94 1469.47 1620.83 1472.69 Q1617.73 1475.88 1612.08 1481.64 Z" fill="#000000" fill-rule="nonzero" fill-opacity="1" /><path clip-path="url(#clip810)" d="M1648.22 1454.1 Q1644.61 1454.1 1642.78 1457.66 Q1640.97 1461.2 1640.97 1468.33 Q1640.97 1475.44 1642.78 1479.01 Q1644.61 1482.55 1648.22 1482.55 Q1651.85 1482.55 1653.66 1479.01 Q1655.49 1475.44 1655.49 1468.33 Q1655.49 1461.2 1653.66 1457.66 Q1651.85 1454.1 1648.22 1454.1 M1648.22 1450.39 Q1654.03 1450.39 1657.08 1455 Q1660.16 1459.58 1660.16 1468.33 Q1660.16 1477.06 1657.08 1481.67 Q1654.03 1486.25 1648.22 1486.25 Q1642.41 1486.25 1639.33 1481.67 Q1636.27 1477.06 1636.27 1468.33 Q1636.27 1459.58 1639.33 1455 Q1642.41 1450.39 1648.22 1450.39 Z" fill="#000000" fill-rule="nonzero" fill-opacity="1" /><path clip-path="url(#clip810)" d="M2341.6 1466.95 Q2344.96 1467.66 2346.83 1469.93 Q2348.73 1472.2 2348.73 1475.53 Q2348.73 1480.65 2345.21 1483.45 Q2341.69 1486.25 2335.21 1486.25 Q2333.03 1486.25 2330.72 1485.81 Q2328.43 1485.39 2325.97 1484.54 L2325.97 1480.02 Q2327.92 1481.16 2330.23 1481.74 Q2332.55 1482.32 2335.07 1482.32 Q2339.47 1482.32 2341.76 1480.58 Q2344.08 1478.84 2344.08 1475.53 Q2344.08 1472.48 2341.92 1470.77 Q2339.79 1469.03 2335.97 1469.03 L2331.95 1469.03 L2331.95 1465.19 L2336.16 1465.19 Q2339.61 1465.19 2341.44 1463.82 Q2343.27 1462.43 2343.27 1459.84 Q2343.27 1457.18 2341.37 1455.77 Q2339.49 1454.33 2335.97 1454.33 Q2334.05 1454.33 2331.85 1454.75 Q2329.65 1455.16 2327.02 1456.04 L2327.02 1451.88 Q2329.68 1451.14 2331.99 1450.77 Q2334.33 1450.39 2336.39 1450.39 Q2341.71 1450.39 2344.82 1452.83 Q2347.92 1455.23 2347.92 1459.35 Q2347.92 1462.22 2346.27 1464.21 Q2344.63 1466.18 2341.6 1466.95 Z" fill="#000000" fill-rule="nonzero" fill-opacity="1" /><path clip-path="url(#clip810)" d="M2367.59 1454.1 Q2363.98 1454.1 2362.15 1457.66 Q2360.35 1461.2 2360.35 1468.33 Q2360.35 1475.44 2362.15 1479.01 Q2363.98 1482.55 2367.59 1482.55 Q2371.23 1482.55 2373.03 1479.01 Q2374.86 1475.44 2374.86 1468.33 Q2374.86 1461.2 2373.03 1457.66 Q2371.23 1454.1 2367.59 1454.1 M2367.59 1450.39 Q2373.4 1450.39 2376.46 1455 Q2379.54 1459.58 2379.54 1468.33 Q2379.54 1477.06 2376.46 1481.67 Q2373.4 1486.25 2367.59 1486.25 Q2361.78 1486.25 2358.7 1481.67 Q2355.65 1477.06 2355.65 1468.33 Q2355.65 1459.58 2358.7 1455 Q2361.78 1450.39 2367.59 1450.39 Z" fill="#000000" fill-rule="nonzero" fill-opacity="1" /><path clip-path="url(#clip810)" d="M1272.65 1522.27 L1272.65 1532.4 L1284.71 1532.4 L1284.71 1536.95 L1272.65 1536.95 L1272.65 1556.3 Q1272.65 1560.66 1273.83 1561.9 Q1275.04 1563.14 1278.7 1563.14 L1284.71 1563.14 L1284.71 1568.04 L1278.7 1568.04 Q1271.92 1568.04 1269.34 1565.53 Q1266.76 1562.98 1266.76 1556.3 L1266.76 1536.95 L1262.46 1536.95 L1262.46 1532.4 L1266.76 1532.4 L1266.76 1522.27 L1272.65 1522.27 Z" fill="#000000" fill-rule="nonzero" fill-opacity="1" /><polyline clip-path="url(#clip812)" style="stroke:#000000; stroke-linecap:round; stroke-linejoin:round; stroke-width:2; stroke-opacity:0.1; fill:none" points="194.422,1407.49 2352.76,1407.49 "/>
<polyline clip-path="url(#clip812)" style="stroke:#000000; stroke-linecap:round; stroke-linejoin:round; stroke-width:2; stroke-opacity:0.1; fill:none" points="194.422,1154.12 2352.76,1154.12 "/>
<polyline clip-path="url(#clip812)" style="stroke:#000000; stroke-linecap:round; stroke-linejoin:round; stroke-width:2; stroke-opacity:0.1; fill:none" points="194.422,900.74 2352.76,900.74 "/>
<polyline clip-path="url(#clip812)" style="stroke:#000000; stroke-linecap:round; stroke-linejoin:round; stroke-width:2; stroke-opacity:0.1; fill:none" points="194.422,647.363 2352.76,647.363 "/>
<polyline clip-path="url(#clip812)" style="stroke:#000000; stroke-linecap:round; stroke-linejoin:round; stroke-width:2; stroke-opacity:0.1; fill:none" points="194.422,393.986 2352.76,393.986 "/>
<polyline clip-path="url(#clip812)" style="stroke:#000000; stroke-linecap:round; stroke-linejoin:round; stroke-width:2; stroke-opacity:0.1; fill:none" points="194.422,140.61 2352.76,140.61 "/>
<polyline clip-path="url(#clip810)" style="stroke:#000000; stroke-linecap:round; stroke-linejoin:round; stroke-width:4; stroke-opacity:1; fill:none" points="194.422,1423.18 194.422,47.2441 "/>
<polyline clip-path="url(#clip810)" style="stroke:#000000; stroke-linecap:round; stroke-linejoin:round; stroke-width:4; stroke-opacity:1; fill:none" points="194.422,1407.49 213.32,1407.49 "/>
<polyline clip-path="url(#clip810)" style="stroke:#000000; stroke-linecap:round; stroke-linejoin:round; stroke-width:4; stroke-opacity:1; fill:none" points="194.422,1154.12 213.32,1154.12 "/>
<polyline clip-path="url(#clip810)" style="stroke:#000000; stroke-linecap:round; stroke-linejoin:round; stroke-width:4; stroke-opacity:1; fill:none" points="194.422,900.74 213.32,900.74 "/>
<polyline clip-path="url(#clip810)" style="stroke:#000000; stroke-linecap:round; stroke-linejoin:round; stroke-width:4; stroke-opacity:1; fill:none" points="194.422,647.363 213.32,647.363 "/>
<polyline clip-path="url(#clip810)" style="stroke:#000000; stroke-linecap:round; stroke-linejoin:round; stroke-width:4; stroke-opacity:1; fill:none" points="194.422,393.986 213.32,393.986 "/>
<polyline clip-path="url(#clip810)" style="stroke:#000000; stroke-linecap:round; stroke-linejoin:round; stroke-width:4; stroke-opacity:1; fill:none" points="194.422,140.61 213.32,140.61 "/>
<path clip-path="url(#clip810)" d="M52.4736 1407.94 L82.1494 1407.94 L82.1494 1411.88 L52.4736 1411.88 L52.4736 1407.94 Z" fill="#000000" fill-rule="nonzero" fill-opacity="1" /><path clip-path="url(#clip810)" d="M102.242 1393.29 Q98.6308 1393.29 96.8021 1396.86 Q94.9965 1400.4 94.9965 1407.53 Q94.9965 1414.63 96.8021 1418.2 Q98.6308 1421.74 102.242 1421.74 Q105.876 1421.74 107.682 1418.2 Q109.51 1414.63 109.51 1407.53 Q109.51 1400.4 107.682 1396.86 Q105.876 1393.29 102.242 1393.29 M102.242 1389.59 Q108.052 1389.59 111.108 1394.2 Q114.186 1398.78 114.186 1407.53 Q114.186 1416.26 111.108 1420.86 Q108.052 1425.44 102.242 1425.44 Q96.4317 1425.44 93.353 1420.86 Q90.2975 1416.26 90.2975 1407.53 Q90.2975 1398.78 93.353 1394.2 Q96.4317 1389.59 102.242 1389.59 Z" fill="#000000" fill-rule="nonzero" fill-opacity="1" /><path clip-path="url(#clip810)" d="M122.404 1418.89 L127.288 1418.89 L127.288 1424.77 L122.404 1424.77 L122.404 1418.89 Z" fill="#000000" fill-rule="nonzero" fill-opacity="1" /><path clip-path="url(#clip810)" d="M137.519 1390.21 L155.876 1390.21 L155.876 1394.15 L141.802 1394.15 L141.802 1402.62 Q142.82 1402.27 143.839 1402.11 Q144.857 1401.93 145.876 1401.93 Q151.663 1401.93 155.042 1405.1 Q158.422 1408.27 158.422 1413.69 Q158.422 1419.26 154.95 1422.37 Q151.478 1425.44 145.158 1425.44 Q142.982 1425.44 140.714 1425.07 Q138.469 1424.7 136.061 1423.96 L136.061 1419.26 Q138.144 1420.4 140.367 1420.95 Q142.589 1421.51 145.066 1421.51 Q149.07 1421.51 151.408 1419.4 Q153.746 1417.3 153.746 1413.69 Q153.746 1410.07 151.408 1407.97 Q149.07 1405.86 145.066 1405.86 Q143.191 1405.86 141.316 1406.28 Q139.464 1406.69 137.519 1407.57 L137.519 1390.21 Z" fill="#000000" fill-rule="nonzero" fill-opacity="1" /><path clip-path="url(#clip810)" d="M50.9921 1154.57 L80.6679 1154.57 L80.6679 1158.5 L50.9921 1158.5 L50.9921 1154.57 Z" fill="#000000" fill-rule="nonzero" fill-opacity="1" /><path clip-path="url(#clip810)" d="M100.76 1139.92 Q97.1493 1139.92 95.3206 1143.48 Q93.515 1147.02 93.515 1154.15 Q93.515 1161.26 95.3206 1164.82 Q97.1493 1168.36 100.76 1168.36 Q104.395 1168.36 106.2 1164.82 Q108.029 1161.26 108.029 1154.15 Q108.029 1147.02 106.2 1143.48 Q104.395 1139.92 100.76 1139.92 M100.76 1136.21 Q106.571 1136.21 109.626 1140.82 Q112.705 1145.4 112.705 1154.15 Q112.705 1162.88 109.626 1167.48 Q106.571 1172.07 100.76 1172.07 Q94.9502 1172.07 91.8715 1167.48 Q88.816 1162.88 88.816 1154.15 Q88.816 1145.4 91.8715 1140.82 Q94.9502 1136.21 100.76 1136.21 Z" fill="#000000" fill-rule="nonzero" fill-opacity="1" /><path clip-path="url(#clip810)" d="M120.922 1165.52 L125.807 1165.52 L125.807 1171.4 L120.922 1171.4 L120.922 1165.52 Z" fill="#000000" fill-rule="nonzero" fill-opacity="1" /><path clip-path="url(#clip810)" d="M148.839 1140.91 L137.033 1159.36 L148.839 1159.36 L148.839 1140.91 M147.612 1136.84 L153.492 1136.84 L153.492 1159.36 L158.422 1159.36 L158.422 1163.25 L153.492 1163.25 L153.492 1171.4 L148.839 1171.4 L148.839 1163.25 L133.237 1163.25 L133.237 1158.73 L147.612 1136.84 Z" fill="#000000" fill-rule="nonzero" fill-opacity="1" /><path clip-path="url(#clip810)" d="M52.1264 901.191 L81.8021 901.191 L81.8021 905.127 L52.1264 905.127 L52.1264 901.191 Z" fill="#000000" fill-rule="nonzero" fill-opacity="1" /><path clip-path="url(#clip810)" d="M101.895 886.539 Q98.2835 886.539 96.4548 890.103 Q94.6493 893.645 94.6493 900.775 Q94.6493 907.881 96.4548 911.446 Q98.2835 914.988 101.895 914.988 Q105.529 914.988 107.334 911.446 Q109.163 907.881 109.163 900.775 Q109.163 893.645 107.334 890.103 Q105.529 886.539 101.895 886.539 M101.895 882.835 Q107.705 882.835 110.76 887.441 Q113.839 892.025 113.839 900.775 Q113.839 909.501 110.76 914.108 Q107.705 918.691 101.895 918.691 Q96.0845 918.691 93.0058 914.108 Q89.9503 909.501 89.9503 900.775 Q89.9503 892.025 93.0058 887.441 Q96.0845 882.835 101.895 882.835 Z" fill="#000000" fill-rule="nonzero" fill-opacity="1" /><path clip-path="url(#clip810)" d="M122.057 912.14 L126.941 912.14 L126.941 918.02 L122.057 918.02 L122.057 912.14 Z" fill="#000000" fill-rule="nonzero" fill-opacity="1" /><path clip-path="url(#clip810)" d="M151.293 899.386 Q154.649 900.103 156.524 902.372 Q158.422 904.64 158.422 907.974 Q158.422 913.089 154.904 915.89 Q151.385 918.691 144.904 918.691 Q142.728 918.691 140.413 918.251 Q138.121 917.835 135.668 916.978 L135.668 912.464 Q137.612 913.599 139.927 914.177 Q142.242 914.756 144.765 914.756 Q149.163 914.756 151.455 913.02 Q153.769 911.284 153.769 907.974 Q153.769 904.918 151.617 903.205 Q149.487 901.469 145.668 901.469 L141.64 901.469 L141.64 897.627 L145.853 897.627 Q149.302 897.627 151.13 896.261 Q152.959 894.872 152.959 892.279 Q152.959 889.617 151.061 888.205 Q149.186 886.77 145.668 886.77 Q143.746 886.77 141.547 887.187 Q139.348 887.603 136.709 888.483 L136.709 884.316 Q139.371 883.576 141.686 883.205 Q144.024 882.835 146.084 882.835 Q151.408 882.835 154.51 885.266 Q157.612 887.673 157.612 891.793 Q157.612 894.664 155.968 896.654 Q154.325 898.622 151.293 899.386 Z" fill="#000000" fill-rule="nonzero" fill-opacity="1" /><path clip-path="url(#clip810)" d="M53.0754 647.815 L82.7512 647.815 L82.7512 651.75 L53.0754 651.75 L53.0754 647.815 Z" fill="#000000" fill-rule="nonzero" fill-opacity="1" /><path clip-path="url(#clip810)" d="M102.844 633.162 Q99.2326 633.162 97.4039 636.727 Q95.5984 640.268 95.5984 647.398 Q95.5984 654.504 97.4039 658.069 Q99.2326 661.611 102.844 661.611 Q106.478 661.611 108.283 658.069 Q110.112 654.504 110.112 647.398 Q110.112 640.268 108.283 636.727 Q106.478 633.162 102.844 633.162 M102.844 629.458 Q108.654 629.458 111.709 634.065 Q114.788 638.648 114.788 647.398 Q114.788 656.125 111.709 660.731 Q108.654 665.314 102.844 665.314 Q97.0335 665.314 93.9549 660.731 Q90.8993 656.125 90.8993 647.398 Q90.8993 638.648 93.9549 634.065 Q97.0335 629.458 102.844 629.458 Z" fill="#000000" fill-rule="nonzero" fill-opacity="1" /><path clip-path="url(#clip810)" d="M123.006 658.764 L127.89 658.764 L127.89 664.643 L123.006 664.643 L123.006 658.764 Z" fill="#000000" fill-rule="nonzero" fill-opacity="1" /><path clip-path="url(#clip810)" d="M142.103 660.708 L158.422 660.708 L158.422 664.643 L136.478 664.643 L136.478 660.708 Q139.14 657.953 143.723 653.324 Q148.33 648.671 149.51 647.328 Q151.755 644.805 152.635 643.069 Q153.538 641.31 153.538 639.62 Q153.538 636.866 151.593 635.129 Q149.672 633.393 146.57 633.393 Q144.371 633.393 141.918 634.157 Q139.487 634.921 136.709 636.472 L136.709 631.75 Q139.533 630.616 141.987 630.037 Q144.441 629.458 146.478 629.458 Q151.848 629.458 155.042 632.143 Q158.237 634.829 158.237 639.319 Q158.237 641.449 157.427 643.37 Q156.64 645.268 154.533 647.861 Q153.955 648.532 150.853 651.75 Q147.751 654.944 142.103 660.708 Z" fill="#000000" fill-rule="nonzero" fill-opacity="1" /><path clip-path="url(#clip810)" d="M52.7051 394.438 L82.3808 394.438 L82.3808 398.373 L52.7051 398.373 L52.7051 394.438 Z" fill="#000000" fill-rule="nonzero" fill-opacity="1" /><path clip-path="url(#clip810)" d="M102.473 379.785 Q98.8622 379.785 97.0335 383.35 Q95.228 386.892 95.228 394.021 Q95.228 401.128 97.0335 404.692 Q98.8622 408.234 102.473 408.234 Q106.108 408.234 107.913 404.692 Q109.742 401.128 109.742 394.021 Q109.742 386.892 107.913 383.35 Q106.108 379.785 102.473 379.785 M102.473 376.081 Q108.283 376.081 111.339 380.688 Q114.418 385.271 114.418 394.021 Q114.418 402.748 111.339 407.354 Q108.283 411.938 102.473 411.938 Q96.6632 411.938 93.5845 407.354 Q90.529 402.748 90.529 394.021 Q90.529 385.271 93.5845 380.688 Q96.6632 376.081 102.473 376.081 Z" fill="#000000" fill-rule="nonzero" fill-opacity="1" /><path clip-path="url(#clip810)" d="M122.635 405.387 L127.519 405.387 L127.519 411.266 L122.635 411.266 L122.635 405.387 Z" fill="#000000" fill-rule="nonzero" fill-opacity="1" /><path clip-path="url(#clip810)" d="M138.515 407.331 L146.154 407.331 L146.154 380.966 L137.844 382.632 L137.844 378.373 L146.107 376.706 L150.783 376.706 L150.783 407.331 L158.422 407.331 L158.422 411.266 L138.515 411.266 L138.515 407.331 Z" fill="#000000" fill-rule="nonzero" fill-opacity="1" /><path clip-path="url(#clip810)" d="M101.246 126.408 Q97.6354 126.408 95.8067 129.973 Q94.0012 133.515 94.0012 140.644 Q94.0012 147.751 95.8067 151.316 Q97.6354 154.857 101.246 154.857 Q104.881 154.857 106.686 151.316 Q108.515 147.751 108.515 140.644 Q108.515 133.515 106.686 129.973 Q104.881 126.408 101.246 126.408 M101.246 122.705 Q107.057 122.705 110.112 127.311 Q113.191 131.894 113.191 140.644 Q113.191 149.371 110.112 153.978 Q107.057 158.561 101.246 158.561 Q95.4363 158.561 92.3576 153.978 Q89.3021 149.371 89.3021 140.644 Q89.3021 131.894 92.3576 127.311 Q95.4363 122.705 101.246 122.705 Z" fill="#000000" fill-rule="nonzero" fill-opacity="1" /><path clip-path="url(#clip810)" d="M121.408 152.01 L126.293 152.01 L126.293 157.89 L121.408 157.89 L121.408 152.01 Z" fill="#000000" fill-rule="nonzero" fill-opacity="1" /><path clip-path="url(#clip810)" d="M146.478 126.408 Q142.867 126.408 141.038 129.973 Q139.232 133.515 139.232 140.644 Q139.232 147.751 141.038 151.316 Q142.867 154.857 146.478 154.857 Q150.112 154.857 151.918 151.316 Q153.746 147.751 153.746 140.644 Q153.746 133.515 151.918 129.973 Q150.112 126.408 146.478 126.408 M146.478 122.705 Q152.288 122.705 155.343 127.311 Q158.422 131.894 158.422 140.644 Q158.422 149.371 155.343 153.978 Q152.288 158.561 146.478 158.561 Q140.668 158.561 137.589 153.978 Q134.533 149.371 134.533 140.644 Q134.533 131.894 137.589 127.311 Q140.668 122.705 146.478 122.705 Z" fill="#000000" fill-rule="nonzero" fill-opacity="1" /><polyline clip-path="url(#clip812)" style="stroke:#009af9; stroke-linecap:round; stroke-linejoin:round; stroke-width:4; stroke-opacity:1; fill:none" points="194.422,140.61 266.367,140.808 338.311,320.509 410.255,138.957 482.2,175.97 554.144,232.457 626.089,285.591 698.033,424.562 769.978,483.77 841.922,126.232 913.867,139.576 985.811,130.454 1057.76,408.185 1129.7,608.312 1201.64,659.379 1273.59,799.389 1345.53,848.401 1417.48,1213.63 1489.42,1342.95 1561.37,1182.62 1633.31,1040.6 1705.26,983.237 1777.2,618.989 1849.14,563.995 1921.09,804.581 1993.03,888.443 2064.98,1055.52 2136.92,1243.72 2208.87,1384.24 2280.81,1295.49 2352.76,1273.23 "/>
<polyline clip-path="url(#clip812)" style="stroke:#e26f46; stroke-linecap:round; stroke-linejoin:round; stroke-width:4; stroke-opacity:1; fill:none" points="194.422,140.61 266.367,169.732 338.311,112.877 410.255,146.541 482.2,149.993 554.144,149.909 626.089,164.288 698.033,152.459 769.978,86.1857 841.922,142.615 913.867,139.098 985.811,185.695 1057.76,175.293 1129.7,152.636 1201.64,167.545 1273.59,153.863 1345.53,206.247 1417.48,170.389 1489.42,124.362 1561.37,126.038 1633.31,138.565 1705.26,88.9562 1777.2,135.557 1849.14,183.235 1921.09,159.579 1993.03,173.879 2064.98,178.741 2136.92,172.477 2208.87,136.253 2280.81,146.319 2352.76,187.112 "/>
<path clip-path="url(#clip810)" d="M266.367 1377.32 L505.394 1377.32 L505.394 1221.8 L266.367 1221.8  Z" fill="#ffffff" fill-rule="evenodd" fill-opacity="1"/>
<polyline clip-path="url(#clip810)" style="stroke:#000000; stroke-linecap:round; stroke-linejoin:round; stroke-width:4; stroke-opacity:1; fill:none" points="266.367,1377.32 505.394,1377.32 505.394,1221.8 266.367,1221.8 266.367,1377.32 "/>
<polyline clip-path="url(#clip810)" style="stroke:#009af9; stroke-linecap:round; stroke-linejoin:round; stroke-width:4; stroke-opacity:1; fill:none" points="290.348,1273.64 434.237,1273.64 "/>
<path clip-path="url(#clip810)" d="M471.621 1277.88 Q466.459 1277.88 464.468 1279.06 Q462.478 1280.24 462.478 1283.09 Q462.478 1285.36 463.959 1286.7 Q465.464 1288.02 468.033 1288.02 Q471.575 1288.02 473.704 1285.52 Q475.857 1283 475.857 1278.83 L475.857 1277.88 L471.621 1277.88 M480.116 1276.12 L480.116 1290.92 L475.857 1290.92 L475.857 1286.98 Q474.399 1289.34 472.223 1290.48 Q470.047 1291.59 466.899 1291.59 Q462.918 1291.59 460.556 1289.36 Q458.218 1287.12 458.218 1283.37 Q458.218 1278.99 461.135 1276.77 Q464.075 1274.55 469.885 1274.55 L475.857 1274.55 L475.857 1274.13 Q475.857 1271.19 473.913 1269.6 Q471.992 1267.98 468.496 1267.98 Q466.274 1267.98 464.168 1268.51 Q462.061 1269.04 460.117 1270.11 L460.117 1266.17 Q462.455 1265.27 464.654 1264.83 Q466.853 1264.36 468.936 1264.36 Q474.561 1264.36 477.339 1267.28 Q480.116 1270.2 480.116 1276.12 Z" fill="#000000" fill-rule="nonzero" fill-opacity="1" /><polyline clip-path="url(#clip810)" style="stroke:#e26f46; stroke-linecap:round; stroke-linejoin:round; stroke-width:4; stroke-opacity:1; fill:none" points="290.348,1325.48 434.237,1325.48 "/>
<path clip-path="url(#clip810)" d="M476.992 1329.82 Q476.992 1325.12 475.047 1322.45 Q473.126 1319.77 469.746 1319.77 Q466.367 1319.77 464.422 1322.45 Q462.501 1325.12 462.501 1329.82 Q462.501 1334.51 464.422 1337.2 Q466.367 1339.86 469.746 1339.86 Q473.126 1339.86 475.047 1337.2 Q476.992 1334.51 476.992 1329.82 M462.501 1320.76 Q463.843 1318.45 465.88 1317.34 Q467.941 1316.2 470.788 1316.2 Q475.51 1316.2 478.45 1319.95 Q481.413 1323.7 481.413 1329.82 Q481.413 1335.93 478.45 1339.68 Q475.51 1343.43 470.788 1343.43 Q467.941 1343.43 465.88 1342.32 Q463.843 1341.18 462.501 1338.87 L462.501 1342.76 L458.218 1342.76 L458.218 1306.74 L462.501 1306.74 L462.501 1320.76 Z" fill="#000000" fill-rule="nonzero" fill-opacity="1" /></svg>
