<?xml version="1.0" encoding="utf-8"?>
<svg xmlns="http://www.w3.org/2000/svg" xmlns:xlink="http://www.w3.org/1999/xlink" width="600" height="400" viewBox="0 0 2400 1600">
<defs>
  <clipPath id="clip050">
    <rect x="0" y="0" width="2400" height="1600"/>
  </clipPath>
</defs>
<path clip-path="url(#clip050)" d="M0 1600 L2400 1600 L2400 0 L0 0  Z" fill="#ffffff" fill-rule="evenodd" fill-opacity="1"/>
<defs>
  <clipPath id="clip051">
    <rect x="178" y="47" width="2175" height="1440"/>
  </clipPath>
</defs>
<path clip-path="url(#clip050)" d="M178.867 1486.45 L2352.76 1486.45 L2352.76 47.2441 L178.867 47.2441  Z" fill="#ffffff" fill-rule="evenodd" fill-opacity="1"/>
<polyline clip-path="url(#clip051)" style="stroke:#000000; stroke-linecap:round; stroke-linejoin:round; stroke-width:2; stroke-opacity:0.1; fill:none" points="240.392,1486.45 240.392,47.2441 "/>
<polyline clip-path="url(#clip051)" style="stroke:#000000; stroke-linecap:round; stroke-linejoin:round; stroke-width:2; stroke-opacity:0.1; fill:none" points="753.102,1486.45 753.102,47.2441 "/>
<polyline clip-path="url(#clip051)" style="stroke:#000000; stroke-linecap:round; stroke-linejoin:round; stroke-width:2; stroke-opacity:0.1; fill:none" points="1265.81,1486.45 1265.81,47.2441 "/>
<polyline clip-path="url(#clip051)" style="stroke:#000000; stroke-linecap:round; stroke-linejoin:round; stroke-width:2; stroke-opacity:0.1; fill:none" points="1778.52,1486.45 1778.52,47.2441 "/>
<polyline clip-path="url(#clip051)" style="stroke:#000000; stroke-linecap:round; stroke-linejoin:round; stroke-width:2; stroke-opacity:0.1; fill:none" points="2291.23,1486.45 2291.23,47.2441 "/>
<polyline clip-path="url(#clip051)" style="stroke:#000000; stroke-linecap:round; stroke-linejoin:round; stroke-width:2; stroke-opacity:0.1; fill:none" points="178.867,1309.86 2352.76,1309.86 "/>
<polyline clip-path="url(#clip051)" style="stroke:#000000; stroke-linecap:round; stroke-linejoin:round; stroke-width:2; stroke-opacity:0.1; fill:none" points="178.867,1027.4 2352.76,1027.4 "/>
<polyline clip-path="url(#clip051)" style="stroke:#000000; stroke-linecap:round; stroke-linejoin:round; stroke-width:2; stroke-opacity:0.1; fill:none" points="178.867,744.942 2352.76,744.942 "/>
<polyline clip-path="url(#clip051)" style="stroke:#000000; stroke-linecap:round; stroke-linejoin:round; stroke-width:2; stroke-opacity:0.1; fill:none" points="178.867,462.48 2352.76,462.48 "/>
<polyline clip-path="url(#clip051)" style="stroke:#000000; stroke-linecap:round; stroke-linejoin:round; stroke-width:2; stroke-opacity:0.1; fill:none" points="178.867,180.019 2352.76,180.019 "/>
<polyline clip-path="url(#clip050)" style="stroke:#000000; stroke-linecap:round; stroke-linejoin:round; stroke-width:4; stroke-opacity:1; fill:none" points="178.867,1486.45 2352.76,1486.45 "/>
<polyline clip-path="url(#clip050)" style="stroke:#000000; stroke-linecap:round; stroke-linejoin:round; stroke-width:4; stroke-opacity:1; fill:none" points="240.392,1486.45 240.392,1467.55 "/>
<polyline clip-path="url(#clip050)" style="stroke:#000000; stroke-linecap:round; stroke-linejoin:round; stroke-width:4; stroke-opacity:1; fill:none" points="753.102,1486.45 753.102,1467.55 "/>
<polyline clip-path="url(#clip050)" style="stroke:#000000; stroke-linecap:round; stroke-linejoin:round; stroke-width:4; stroke-opacity:1; fill:none" points="1265.81,1486.45 1265.81,1467.55 "/>
<polyline clip-path="url(#clip050)" style="stroke:#000000; stroke-linecap:round; stroke-linejoin:round; stroke-width:4; stroke-opacity:1; fill:none" points="1778.52,1486.45 1778.52,1467.55 "/>
<polyline clip-path="url(#clip050)" style="stroke:#000000; stroke-linecap:round; stroke-linejoin:round; stroke-width:4; stroke-opacity:1; fill:none" points="2291.23,1486.45 2291.23,1467.55 "/>
<path clip-path="url(#clip050)" d="M217.776 1517.37 Q214.165 1517.37 212.336 1520.93 Q210.531 1524.47 210.531 1531.6 Q210.531 1538.71 212.336 1542.27 Q214.165 1545.82 217.776 1545.82 Q221.41 1545.82 223.216 1542.27 Q225.045 1538.71 225.045 1531.6 Q225.045 1524.47 223.216 1520.93 Q221.41 1517.37 217.776 1517.37 M217.776 1513.66 Q223.586 1513.66 226.642 1518.27 Q229.721 1522.85 229.721 1531.6 Q229.721 1540.33 226.642 1544.94 Q223.586 1549.52 217.776 1549.52 Q211.966 1549.52 208.887 1544.94 Q205.832 1540.33 205.832 1531.6 Q205.832 1522.85 208.887 1518.27 Q211.966 1513.66 217.776 1513.66 Z" fill="#000000" fill-rule="nonzero" fill-opacity="1" /><path clip-path="url(#clip050)" d="M237.938 1542.97 L242.822 1542.97 L242.822 1548.85 L237.938 1548.85 L237.938 1542.97 Z" fill="#000000" fill-rule="nonzero" fill-opacity="1" /><path clip-path="url(#clip050)" d="M263.007 1517.37 Q259.396 1517.37 257.568 1520.93 Q255.762 1524.47 255.762 1531.6 Q255.762 1538.71 257.568 1542.27 Q259.396 1545.82 263.007 1545.82 Q266.642 1545.82 268.447 1542.27 Q270.276 1538.71 270.276 1531.6 Q270.276 1524.47 268.447 1520.93 Q266.642 1517.37 263.007 1517.37 M263.007 1513.66 Q268.818 1513.66 271.873 1518.27 Q274.952 1522.85 274.952 1531.6 Q274.952 1540.33 271.873 1544.94 Q268.818 1549.52 263.007 1549.52 Q257.197 1549.52 254.119 1544.94 Q251.063 1540.33 251.063 1531.6 Q251.063 1522.85 254.119 1518.27 Q257.197 1513.66 263.007 1513.66 Z" fill="#000000" fill-rule="nonzero" fill-opacity="1" /><path clip-path="url(#clip050)" d="M724.838 1544.91 L741.157 1544.91 L741.157 1548.85 L719.213 1548.85 L719.213 1544.91 Q721.875 1542.16 726.458 1537.53 Q731.065 1532.88 732.245 1531.53 Q734.491 1529.01 735.37 1527.27 Q736.273 1525.51 736.273 1523.82 Q736.273 1521.07 734.328 1519.33 Q732.407 1517.6 729.305 1517.6 Q727.106 1517.6 724.653 1518.36 Q722.222 1519.13 719.444 1520.68 L719.444 1515.95 Q722.268 1514.82 724.722 1514.24 Q727.176 1513.66 729.213 1513.66 Q734.583 1513.66 737.778 1516.35 Q740.972 1519.03 740.972 1523.52 Q740.972 1525.65 740.162 1527.57 Q739.375 1529.47 737.268 1532.07 Q736.69 1532.74 733.588 1535.95 Q730.486 1539.15 724.838 1544.91 Z" fill="#000000" fill-rule="nonzero" fill-opacity="1" /><path clip-path="url(#clip050)" d="M750.972 1542.97 L755.856 1542.97 L755.856 1548.85 L750.972 1548.85 L750.972 1542.97 Z" fill="#000000" fill-rule="nonzero" fill-opacity="1" /><path clip-path="url(#clip050)" d="M766.088 1514.29 L784.444 1514.29 L784.444 1518.22 L770.37 1518.22 L770.37 1526.7 Q771.388 1526.35 772.407 1526.19 Q773.426 1526 774.444 1526 Q780.231 1526 783.611 1529.17 Q786.99 1532.34 786.99 1537.76 Q786.99 1543.34 783.518 1546.44 Q780.046 1549.52 773.726 1549.52 Q771.551 1549.52 769.282 1549.15 Q767.037 1548.78 764.629 1548.04 L764.629 1543.34 Q766.713 1544.47 768.935 1545.03 Q771.157 1545.58 773.634 1545.58 Q777.638 1545.58 779.976 1543.48 Q782.314 1541.37 782.314 1537.76 Q782.314 1534.15 779.976 1532.04 Q777.638 1529.94 773.634 1529.94 Q771.759 1529.94 769.884 1530.35 Q768.032 1530.77 766.088 1531.65 L766.088 1514.29 Z" fill="#000000" fill-rule="nonzero" fill-opacity="1" /><path clip-path="url(#clip050)" d="M1232.98 1514.29 L1251.33 1514.29 L1251.33 1518.22 L1237.26 1518.22 L1237.26 1526.7 Q1238.28 1526.35 1239.3 1526.19 Q1240.31 1526 1241.33 1526 Q1247.12 1526 1250.5 1529.17 Q1253.88 1532.34 1253.88 1537.76 Q1253.88 1543.34 1250.41 1546.44 Q1246.93 1549.52 1240.61 1549.52 Q1238.44 1549.52 1236.17 1549.15 Q1233.92 1548.78 1231.52 1548.04 L1231.52 1543.34 Q1233.6 1544.47 1235.82 1545.03 Q1238.05 1545.58 1240.52 1545.58 Q1244.53 1545.58 1246.86 1543.48 Q1249.2 1541.37 1249.2 1537.76 Q1249.2 1534.15 1246.86 1532.04 Q1244.53 1529.94 1240.52 1529.94 Q1238.65 1529.94 1236.77 1530.35 Q1234.92 1530.77 1232.98 1531.65 L1232.98 1514.29 Z" fill="#000000" fill-rule="nonzero" fill-opacity="1" /><path clip-path="url(#clip050)" d="M1263.09 1542.97 L1267.98 1542.97 L1267.98 1548.85 L1263.09 1548.85 L1263.09 1542.97 Z" fill="#000000" fill-rule="nonzero" fill-opacity="1" /><path clip-path="url(#clip050)" d="M1288.16 1517.37 Q1284.55 1517.37 1282.72 1520.93 Q1280.92 1524.47 1280.92 1531.6 Q1280.92 1538.71 1282.72 1542.27 Q1284.55 1545.82 1288.16 1545.82 Q1291.79 1545.82 1293.6 1542.27 Q1295.43 1538.71 1295.43 1531.6 Q1295.43 1524.47 1293.6 1520.93 Q1291.79 1517.37 1288.16 1517.37 M1288.16 1513.66 Q1293.97 1513.66 1297.03 1518.27 Q1300.11 1522.85 1300.11 1531.6 Q1300.11 1540.33 1297.03 1544.94 Q1293.97 1549.52 1288.16 1549.52 Q1282.35 1549.52 1279.27 1544.94 Q1276.22 1540.33 1276.22 1531.6 Q1276.22 1522.85 1279.27 1518.27 Q1282.35 1513.66 1288.16 1513.66 Z" fill="#000000" fill-rule="nonzero" fill-opacity="1" /><path clip-path="url(#clip050)" d="M1744.84 1514.29 L1767.06 1514.29 L1767.06 1516.28 L1754.52 1548.85 L1749.63 1548.85 L1761.44 1518.22 L1744.84 1518.22 L1744.84 1514.29 Z" fill="#000000" fill-rule="nonzero" fill-opacity="1" /><path clip-path="url(#clip050)" d="M1776.18 1542.97 L1781.07 1542.97 L1781.07 1548.85 L1776.18 1548.85 L1776.18 1542.97 Z" fill="#000000" fill-rule="nonzero" fill-opacity="1" /><path clip-path="url(#clip050)" d="M1791.3 1514.29 L1809.66 1514.29 L1809.66 1518.22 L1795.58 1518.22 L1795.58 1526.7 Q1796.6 1526.35 1797.62 1526.19 Q1798.64 1526 1799.66 1526 Q1805.44 1526 1808.82 1529.17 Q1812.2 1532.34 1812.2 1537.76 Q1812.2 1543.34 1808.73 1546.44 Q1805.26 1549.52 1798.94 1549.52 Q1796.76 1549.52 1794.49 1549.15 Q1792.25 1548.78 1789.84 1548.04 L1789.84 1543.34 Q1791.92 1544.47 1794.15 1545.03 Q1796.37 1545.58 1798.84 1545.58 Q1802.85 1545.58 1805.19 1543.48 Q1807.53 1541.37 1807.53 1537.76 Q1807.53 1534.15 1805.19 1532.04 Q1802.85 1529.94 1798.84 1529.94 Q1796.97 1529.94 1795.09 1530.35 Q1793.24 1530.77 1791.3 1531.65 L1791.3 1514.29 Z" fill="#000000" fill-rule="nonzero" fill-opacity="1" /><path clip-path="url(#clip050)" d="M2243.3 1544.91 L2250.94 1544.91 L2250.94 1518.55 L2242.63 1520.21 L2242.63 1515.95 L2250.9 1514.29 L2255.57 1514.29 L2255.57 1544.91 L2263.21 1544.91 L2263.21 1548.85 L2243.3 1548.85 L2243.3 1544.91 Z" fill="#000000" fill-rule="nonzero" fill-opacity="1" /><path clip-path="url(#clip050)" d="M2282.65 1517.37 Q2279.04 1517.37 2277.21 1520.93 Q2275.41 1524.47 2275.41 1531.6 Q2275.41 1538.71 2277.21 1542.27 Q2279.04 1545.82 2282.65 1545.82 Q2286.29 1545.82 2288.09 1542.27 Q2289.92 1538.71 2289.92 1531.6 Q2289.92 1524.47 2288.09 1520.93 Q2286.29 1517.37 2282.65 1517.37 M2282.65 1513.66 Q2288.46 1513.66 2291.52 1518.27 Q2294.6 1522.85 2294.6 1531.6 Q2294.6 1540.33 2291.52 1544.94 Q2288.46 1549.52 2282.65 1549.52 Q2276.84 1549.52 2273.77 1544.94 Q2270.71 1540.33 2270.71 1531.6 Q2270.71 1522.85 2273.77 1518.27 Q2276.84 1513.66 2282.65 1513.66 Z" fill="#000000" fill-rule="nonzero" fill-opacity="1" /><path clip-path="url(#clip050)" d="M2302.82 1542.97 L2307.7 1542.97 L2307.7 1548.85 L2302.82 1548.85 L2302.82 1542.97 Z" fill="#000000" fill-rule="nonzero" fill-opacity="1" /><path clip-path="url(#clip050)" d="M2327.89 1517.37 Q2324.27 1517.37 2322.45 1520.93 Q2320.64 1524.47 2320.64 1531.6 Q2320.64 1538.71 2322.45 1542.27 Q2324.27 1545.82 2327.89 1545.82 Q2331.52 1545.82 2333.33 1542.27 Q2335.15 1538.71 2335.15 1531.6 Q2335.15 1524.47 2333.33 1520.93 Q2331.52 1517.37 2327.89 1517.37 M2327.89 1513.66 Q2333.7 1513.66 2336.75 1518.27 Q2339.83 1522.85 2339.83 1531.6 Q2339.83 1540.33 2336.75 1544.94 Q2333.7 1549.52 2327.89 1549.52 Q2322.08 1549.52 2319 1544.94 Q2315.94 1540.33 2315.94 1531.6 Q2315.94 1522.85 2319 1518.27 Q2322.08 1513.66 2327.89 1513.66 Z" fill="#000000" fill-rule="nonzero" fill-opacity="1" /><polyline clip-path="url(#clip050)" style="stroke:#000000; stroke-linecap:round; stroke-linejoin:round; stroke-width:4; stroke-opacity:1; fill:none" points="178.867,1486.45 178.867,47.2441 "/>
<polyline clip-path="url(#clip050)" style="stroke:#000000; stroke-linecap:round; stroke-linejoin:round; stroke-width:4; stroke-opacity:1; fill:none" points="178.867,1309.86 197.764,1309.86 "/>
<polyline clip-path="url(#clip050)" style="stroke:#000000; stroke-linecap:round; stroke-linejoin:round; stroke-width:4; stroke-opacity:1; fill:none" points="178.867,1027.4 197.764,1027.4 "/>
<polyline clip-path="url(#clip050)" style="stroke:#000000; stroke-linecap:round; stroke-linejoin:round; stroke-width:4; stroke-opacity:1; fill:none" points="178.867,744.942 197.764,744.942 "/>
<polyline clip-path="url(#clip050)" style="stroke:#000000; stroke-linecap:round; stroke-linejoin:round; stroke-width:4; stroke-opacity:1; fill:none" points="178.867,462.48 197.764,462.48 "/>
<polyline clip-path="url(#clip050)" style="stroke:#000000; stroke-linecap:round; stroke-linejoin:round; stroke-width:4; stroke-opacity:1; fill:none" points="178.867,180.019 197.764,180.019 "/>
<path clip-path="url(#clip050)" d="M50.9921 1310.32 L80.6679 1310.32 L80.6679 1314.25 L50.9921 1314.25 L50.9921 1310.32 Z" fill="#000000" fill-rule="nonzero" fill-opacity="1" /><path clip-path="url(#clip050)" d="M91.5706 1323.21 L99.2095 1323.21 L99.2095 1296.84 L90.8993 1298.51 L90.8993 1294.25 L99.1632 1292.58 L103.839 1292.58 L103.839 1323.21 L111.478 1323.21 L111.478 1327.14 L91.5706 1327.14 L91.5706 1323.21 Z" fill="#000000" fill-rule="nonzero" fill-opacity="1" /><path clip-path="url(#clip050)" d="M130.922 1295.66 Q127.311 1295.66 125.482 1299.23 Q123.677 1302.77 123.677 1309.9 Q123.677 1317.01 125.482 1320.57 Q127.311 1324.11 130.922 1324.11 Q134.556 1324.11 136.362 1320.57 Q138.191 1317.01 138.191 1309.9 Q138.191 1302.77 136.362 1299.23 Q134.556 1295.66 130.922 1295.66 M130.922 1291.96 Q136.732 1291.96 139.788 1296.57 Q142.867 1301.15 142.867 1309.9 Q142.867 1318.63 139.788 1323.23 Q136.732 1327.82 130.922 1327.82 Q125.112 1327.82 122.033 1323.23 Q118.978 1318.63 118.978 1309.9 Q118.978 1301.15 122.033 1296.57 Q125.112 1291.96 130.922 1291.96 Z" fill="#000000" fill-rule="nonzero" fill-opacity="1" /><path clip-path="url(#clip050)" d="M82.1494 1027.85 L111.825 1027.85 L111.825 1031.79 L82.1494 1031.79 L82.1494 1027.85 Z" fill="#000000" fill-rule="nonzero" fill-opacity="1" /><path clip-path="url(#clip050)" d="M121.964 1010.12 L140.32 1010.12 L140.32 1014.06 L126.246 1014.06 L126.246 1022.53 Q127.265 1022.18 128.283 1022.02 Q129.302 1021.84 130.32 1021.84 Q136.107 1021.84 139.487 1025.01 Q142.867 1028.18 142.867 1033.6 Q142.867 1039.17 139.394 1042.28 Q135.922 1045.35 129.603 1045.35 Q127.427 1045.35 125.158 1044.98 Q122.913 1044.61 120.506 1043.87 L120.506 1039.17 Q122.589 1040.31 124.811 1040.86 Q127.033 1041.42 129.51 1041.42 Q133.515 1041.42 135.853 1039.31 Q138.191 1037.21 138.191 1033.6 Q138.191 1029.98 135.853 1027.88 Q133.515 1025.77 129.51 1025.77 Q127.635 1025.77 125.76 1026.19 Q123.908 1026.6 121.964 1027.48 L121.964 1010.12 Z" fill="#000000" fill-rule="nonzero" fill-opacity="1" /><path clip-path="url(#clip050)" d="M130.922 730.741 Q127.311 730.741 125.482 734.305 Q123.677 737.847 123.677 744.977 Q123.677 752.083 125.482 755.648 Q127.311 759.189 130.922 759.189 Q134.556 759.189 136.362 755.648 Q138.191 752.083 138.191 744.977 Q138.191 737.847 136.362 734.305 Q134.556 730.741 130.922 730.741 M130.922 727.037 Q136.732 727.037 139.788 731.643 Q142.867 736.227 142.867 744.977 Q142.867 753.703 139.788 758.31 Q136.732 762.893 130.922 762.893 Q125.112 762.893 122.033 758.31 Q118.978 753.703 118.978 744.977 Q118.978 736.227 122.033 731.643 Q125.112 727.037 130.922 727.037 Z" fill="#000000" fill-rule="nonzero" fill-opacity="1" /><path clip-path="url(#clip050)" d="M121.964 445.2 L140.32 445.2 L140.32 449.136 L126.246 449.136 L126.246 457.608 Q127.265 457.261 128.283 457.099 Q129.302 456.913 130.32 456.913 Q136.107 456.913 139.487 460.085 Q142.867 463.256 142.867 468.673 Q142.867 474.251 139.394 477.353 Q135.922 480.432 129.603 480.432 Q127.427 480.432 125.158 480.061 Q122.913 479.691 120.506 478.95 L120.506 474.251 Q122.589 475.385 124.811 475.941 Q127.033 476.497 129.51 476.497 Q133.515 476.497 135.853 474.39 Q138.191 472.284 138.191 468.673 Q138.191 465.061 135.853 462.955 Q133.515 460.849 129.51 460.849 Q127.635 460.849 125.76 461.265 Q123.908 461.682 121.964 462.561 L121.964 445.2 Z" fill="#000000" fill-rule="nonzero" fill-opacity="1" /><path clip-path="url(#clip050)" d="M91.5706 193.364 L99.2095 193.364 L99.2095 166.998 L90.8993 168.665 L90.8993 164.406 L99.1632 162.739 L103.839 162.739 L103.839 193.364 L111.478 193.364 L111.478 197.299 L91.5706 197.299 L91.5706 193.364 Z" fill="#000000" fill-rule="nonzero" fill-opacity="1" /><path clip-path="url(#clip050)" d="M130.922 165.818 Q127.311 165.818 125.482 169.382 Q123.677 172.924 123.677 180.054 Q123.677 187.16 125.482 190.725 Q127.311 194.267 130.922 194.267 Q134.556 194.267 136.362 190.725 Q138.191 187.16 138.191 180.054 Q138.191 172.924 136.362 169.382 Q134.556 165.818 130.922 165.818 M130.922 162.114 Q136.732 162.114 139.788 166.72 Q142.867 171.304 142.867 180.054 Q142.867 188.781 139.788 193.387 Q136.732 197.97 130.922 197.97 Q125.112 197.97 122.033 193.387 Q118.978 188.781 118.978 180.054 Q118.978 171.304 122.033 166.72 Q125.112 162.114 130.922 162.114 Z" fill="#000000" fill-rule="nonzero" fill-opacity="1" /><path clip-path="url(#clip051)" d="M240.392 834.454 L445.476 1342.15 L650.56 1445.72 L855.643 1437.92 L1060.73 1408.08 L1265.81 1372.77 L1470.9 1340.55 L1675.98 1310.29 L1881.06 1281.9 L2086.15 1254.08 L2291.23 1231.29 L2291.23 276.797 L2086.15 254.658 L1881.06 230.91 L1675.98 206.549 L1470.9 180.248 L1265.81 153.989 L1060.73 126.318 L855.643 95.4248 L650.56 87.9763 L445.476 171.925 L240.392 681.347  Z" fill="#009af9" fill-rule="evenodd" fill-opacity="0.2"/>
<polyline clip-path="url(#clip051)" style="stroke:#009af9; stroke-linecap:round; stroke-linejoin:round; stroke-width:12; stroke-opacity:1; fill:none" points="240.392,753.795 445.476,699.42 650.56,695.83 855.643,689.143 1060.73,692.583 1265.81,695.038 1470.9,696.026 1675.98,698.804 1881.06,699.138 2086.15,700.937 2291.23,701.123 "/>
<path clip-path="url(#clip051)" d="M240.392 852.837 L445.476 766.462 L650.56 749.337 L855.643 745.976 L1060.73 745.836 L1265.81 745.921 L1470.9 745.717 L1675.98 745.753 L1881.06 745.828 L2086.15 745.986 L2291.23 745.681 L2291.23 743.706 L2086.15 744.358 L1881.06 744.03 L1675.98 743.942 L1470.9 744.185 L1265.81 743.935 L1060.73 743.843 L855.643 743.919 L650.56 740.959 L445.476 726.053 L240.392 651.662  Z" fill="#e26f46" fill-rule="evenodd" fill-opacity="0.2"/>
<polyline clip-path="url(#clip051)" style="stroke:#e26f46; stroke-linecap:round; stroke-linejoin:round; stroke-width:12; stroke-opacity:1; fill:none" points="240.392,735.298 445.476,743.089 650.56,744.477 855.643,744.867 1060.73,744.844 1265.81,744.887 1470.9,744.944 1675.98,745.018 1881.06,744.977 2086.15,745.21 2291.23,744.785 "/>
</svg>
