<?xml version="1.0" encoding="utf-8"?>
<svg xmlns="http://www.w3.org/2000/svg" xmlns:xlink="http://www.w3.org/1999/xlink" width="600" height="400" viewBox="0 0 2400 1600">
<defs>
  <clipPath id="clip050">
    <rect x="0" y="0" width="2400" height="1600"/>
  </clipPath>
</defs>
<path clip-path="url(#clip050)" d="M0 1600 L2400 1600 L2400 0 L0 0  Z" fill="#ffffff" fill-rule="evenodd" fill-opacity="1"/>
<defs>
  <clipPath id="clip051">
    <rect x="140" y="47" width="2213" height="1440"/>
  </clipPath>
</defs>
<path clip-path="url(#clip050)" d="M140.696 1486.45 L2352.76 1486.45 L2352.76 47.2441 L140.696 47.2441  Z" fill="#ffffff" fill-rule="evenodd" fill-opacity="1"/>
<polyline clip-path="url(#clip051)" style="stroke:#000000; stroke-linecap:round; stroke-linejoin:round; stroke-width:2; stroke-opacity:0.1; fill:none" points="203.301,1486.45 203.301,47.2441 "/>
<polyline clip-path="url(#clip051)" style="stroke:#000000; stroke-linecap:round; stroke-linejoin:round; stroke-width:2; stroke-opacity:0.1; fill:none" points="898.917,1486.45 898.917,47.2441 "/>
<polyline clip-path="url(#clip051)" style="stroke:#000000; stroke-linecap:round; stroke-linejoin:round; stroke-width:2; stroke-opacity:0.1; fill:none" points="1594.53,1486.45 1594.53,47.2441 "/>
<polyline clip-path="url(#clip051)" style="stroke:#000000; stroke-linecap:round; stroke-linejoin:round; stroke-width:2; stroke-opacity:0.1; fill:none" points="2290.15,1486.45 2290.15,47.2441 "/>
<polyline clip-path="url(#clip051)" style="stroke:#000000; stroke-linecap:round; stroke-linejoin:round; stroke-width:2; stroke-opacity:0.1; fill:none" points="140.696,1234.76 2352.76,1234.76 "/>
<polyline clip-path="url(#clip051)" style="stroke:#000000; stroke-linecap:round; stroke-linejoin:round; stroke-width:2; stroke-opacity:0.1; fill:none" points="140.696,963.062 2352.76,963.062 "/>
<polyline clip-path="url(#clip051)" style="stroke:#000000; stroke-linecap:round; stroke-linejoin:round; stroke-width:2; stroke-opacity:0.1; fill:none" points="140.696,691.362 2352.76,691.362 "/>
<polyline clip-path="url(#clip051)" style="stroke:#000000; stroke-linecap:round; stroke-linejoin:round; stroke-width:2; stroke-opacity:0.1; fill:none" points="140.696,419.661 2352.76,419.661 "/>
<polyline clip-path="url(#clip051)" style="stroke:#000000; stroke-linecap:round; stroke-linejoin:round; stroke-width:2; stroke-opacity:0.1; fill:none" points="140.696,147.96 2352.76,147.96 "/>
<polyline clip-path="url(#clip050)" style="stroke:#000000; stroke-linecap:round; stroke-linejoin:round; stroke-width:4; stroke-opacity:1; fill:none" points="140.696,1486.45 2352.76,1486.45 "/>
<polyline clip-path="url(#clip050)" style="stroke:#000000; stroke-linecap:round; stroke-linejoin:round; stroke-width:4; stroke-opacity:1; fill:none" points="203.301,1486.45 203.301,1467.55 "/>
<polyline clip-path="url(#clip050)" style="stroke:#000000; stroke-linecap:round; stroke-linejoin:round; stroke-width:4; stroke-opacity:1; fill:none" points="898.917,1486.45 898.917,1467.55 "/>
<polyline clip-path="url(#clip050)" style="stroke:#000000; stroke-linecap:round; stroke-linejoin:round; stroke-width:4; stroke-opacity:1; fill:none" points="1594.53,1486.45 1594.53,1467.55 "/>
<polyline clip-path="url(#clip050)" style="stroke:#000000; stroke-linecap:round; stroke-linejoin:round; stroke-width:4; stroke-opacity:1; fill:none" points="2290.15,1486.45 2290.15,1467.55 "/>
<path clip-path="url(#clip050)" d="M203.301 1517.37 Q199.69 1517.37 197.861 1520.93 Q196.056 1524.47 196.056 1531.6 Q196.056 1538.71 197.861 1542.27 Q199.69 1545.82 203.301 1545.82 Q206.935 1545.82 208.741 1542.27 Q210.57 1538.71 210.57 1531.6 Q210.57 1524.47 208.741 1520.93 Q206.935 1517.37 203.301 1517.37 M203.301 1513.66 Q209.111 1513.66 212.167 1518.27 Q215.245 1522.85 215.245 1531.6 Q215.245 1540.33 212.167 1544.94 Q209.111 1549.52 203.301 1549.52 Q197.491 1549.52 194.412 1544.94 Q191.357 1540.33 191.357 1531.6 Q191.357 1522.85 194.412 1518.27 Q197.491 1513.66 203.301 1513.66 Z" fill="#000000" fill-rule="nonzero" fill-opacity="1" /><path clip-path="url(#clip050)" d="M873.605 1544.91 L881.244 1544.91 L881.244 1518.55 L872.934 1520.21 L872.934 1515.95 L881.198 1514.29 L885.874 1514.29 L885.874 1544.91 L893.512 1544.91 L893.512 1548.85 L873.605 1548.85 L873.605 1544.91 Z" fill="#000000" fill-rule="nonzero" fill-opacity="1" /><path clip-path="url(#clip050)" d="M912.957 1517.37 Q909.346 1517.37 907.517 1520.93 Q905.711 1524.47 905.711 1531.6 Q905.711 1538.71 907.517 1542.27 Q909.346 1545.82 912.957 1545.82 Q916.591 1545.82 918.397 1542.27 Q920.225 1538.71 920.225 1531.6 Q920.225 1524.47 918.397 1520.93 Q916.591 1517.37 912.957 1517.37 M912.957 1513.66 Q918.767 1513.66 921.822 1518.27 Q924.901 1522.85 924.901 1531.6 Q924.901 1540.33 921.822 1544.94 Q918.767 1549.52 912.957 1549.52 Q907.147 1549.52 904.068 1544.94 Q901.012 1540.33 901.012 1531.6 Q901.012 1522.85 904.068 1518.27 Q907.147 1513.66 912.957 1513.66 Z" fill="#000000" fill-rule="nonzero" fill-opacity="1" /><path clip-path="url(#clip050)" d="M1573.31 1544.91 L1589.63 1544.91 L1589.63 1548.85 L1567.68 1548.85 L1567.68 1544.91 Q1570.34 1542.16 1574.93 1537.53 Q1579.53 1532.88 1580.71 1531.53 Q1582.96 1529.01 1583.84 1527.27 Q1584.74 1525.51 1584.74 1523.82 Q1584.74 1521.07 1582.8 1519.33 Q1580.88 1517.6 1577.77 1517.6 Q1575.58 1517.6 1573.12 1518.36 Q1570.69 1519.13 1567.91 1520.68 L1567.91 1515.95 Q1570.74 1514.82 1573.19 1514.24 Q1575.65 1513.66 1577.68 1513.66 Q1583.05 1513.66 1586.25 1516.35 Q1589.44 1519.03 1589.44 1523.52 Q1589.44 1525.65 1588.63 1527.57 Q1587.84 1529.47 1585.74 1532.07 Q1585.16 1532.74 1582.06 1535.95 Q1578.96 1539.15 1573.31 1544.91 Z" fill="#000000" fill-rule="nonzero" fill-opacity="1" /><path clip-path="url(#clip050)" d="M1609.44 1517.37 Q1605.83 1517.37 1604 1520.93 Q1602.2 1524.47 1602.2 1531.6 Q1602.2 1538.71 1604 1542.27 Q1605.83 1545.82 1609.44 1545.82 Q1613.08 1545.82 1614.88 1542.27 Q1616.71 1538.71 1616.71 1531.6 Q1616.71 1524.47 1614.88 1520.93 Q1613.08 1517.37 1609.44 1517.37 M1609.44 1513.66 Q1615.25 1513.66 1618.31 1518.27 Q1621.39 1522.85 1621.39 1531.6 Q1621.39 1540.33 1618.31 1544.94 Q1615.25 1549.52 1609.44 1549.52 Q1603.63 1549.52 1600.55 1544.94 Q1597.5 1540.33 1597.5 1531.6 Q1597.5 1522.85 1600.55 1518.27 Q1603.63 1513.66 1609.44 1513.66 Z" fill="#000000" fill-rule="nonzero" fill-opacity="1" /><path clip-path="url(#clip050)" d="M2278.99 1530.21 Q2282.35 1530.93 2284.22 1533.2 Q2286.12 1535.47 2286.12 1538.8 Q2286.12 1543.92 2282.6 1546.72 Q2279.09 1549.52 2272.6 1549.52 Q2270.43 1549.52 2268.11 1549.08 Q2265.82 1548.66 2263.37 1547.81 L2263.37 1543.29 Q2265.31 1544.43 2267.63 1545.01 Q2269.94 1545.58 2272.47 1545.58 Q2276.86 1545.58 2279.16 1543.85 Q2281.47 1542.11 2281.47 1538.8 Q2281.47 1535.75 2279.32 1534.03 Q2277.19 1532.3 2273.37 1532.3 L2269.34 1532.3 L2269.34 1528.45 L2273.55 1528.45 Q2277 1528.45 2278.83 1527.09 Q2280.66 1525.7 2280.66 1523.11 Q2280.66 1520.45 2278.76 1519.03 Q2276.89 1517.6 2273.37 1517.6 Q2271.45 1517.6 2269.25 1518.01 Q2267.05 1518.43 2264.41 1519.31 L2264.41 1515.14 Q2267.07 1514.4 2269.39 1514.03 Q2271.72 1513.66 2273.78 1513.66 Q2279.11 1513.66 2282.21 1516.09 Q2285.31 1518.5 2285.31 1522.62 Q2285.31 1525.49 2283.67 1527.48 Q2282.03 1529.45 2278.99 1530.21 Z" fill="#000000" fill-rule="nonzero" fill-opacity="1" /><path clip-path="url(#clip050)" d="M2304.99 1517.37 Q2301.38 1517.37 2299.55 1520.93 Q2297.74 1524.47 2297.74 1531.6 Q2297.74 1538.71 2299.55 1542.27 Q2301.38 1545.82 2304.99 1545.82 Q2308.62 1545.82 2310.43 1542.27 Q2312.26 1538.71 2312.26 1531.6 Q2312.26 1524.47 2310.43 1520.93 Q2308.62 1517.37 2304.99 1517.37 M2304.99 1513.66 Q2310.8 1513.66 2313.85 1518.27 Q2316.93 1522.85 2316.93 1531.6 Q2316.93 1540.33 2313.85 1544.94 Q2310.8 1549.52 2304.99 1549.52 Q2299.18 1549.52 2296.1 1544.94 Q2293.04 1540.33 2293.04 1531.6 Q2293.04 1522.85 2296.1 1518.27 Q2299.18 1513.66 2304.99 1513.66 Z" fill="#000000" fill-rule="nonzero" fill-opacity="1" /><polyline clip-path="url(#clip050)" style="stroke:#000000; stroke-linecap:round; stroke-linejoin:round; stroke-width:4; stroke-opacity:1; fill:none" points="140.696,1486.45 140.696,47.2441 "/>
<polyline clip-path="url(#clip050)" style="stroke:#000000; stroke-linecap:round; stroke-linejoin:round; stroke-width:4; stroke-opacity:1; fill:none" points="140.696,1234.76 159.593,1234.76 "/>
<polyline clip-path="url(#clip050)" style="stroke:#000000; stroke-linecap:round; stroke-linejoin:round; stroke-width:4; stroke-opacity:1; fill:none" points="140.696,963.062 159.593,963.062 "/>
<polyline clip-path="url(#clip050)" style="stroke:#000000; stroke-linecap:round; stroke-linejoin:round; stroke-width:4; stroke-opacity:1; fill:none" points="140.696,691.362 159.593,691.362 "/>
<polyline clip-path="url(#clip050)" style="stroke:#000000; stroke-linecap:round; stroke-linejoin:round; stroke-width:4; stroke-opacity:1; fill:none" points="140.696,419.661 159.593,419.661 "/>
<polyline clip-path="url(#clip050)" style="stroke:#000000; stroke-linecap:round; stroke-linejoin:round; stroke-width:4; stroke-opacity:1; fill:none" points="140.696,147.96 159.593,147.96 "/>
<path clip-path="url(#clip050)" d="M92.7512 1220.56 Q89.1401 1220.56 87.3114 1224.13 Q85.5058 1227.67 85.5058 1234.8 Q85.5058 1241.9 87.3114 1245.47 Q89.1401 1249.01 92.7512 1249.01 Q96.3854 1249.01 98.1909 1245.47 Q100.02 1241.9 100.02 1234.8 Q100.02 1227.67 98.1909 1224.13 Q96.3854 1220.56 92.7512 1220.56 M92.7512 1216.86 Q98.5613 1216.86 101.617 1221.46 Q104.696 1226.05 104.696 1234.8 Q104.696 1243.52 101.617 1248.13 Q98.5613 1252.71 92.7512 1252.71 Q86.941 1252.71 83.8623 1248.13 Q80.8068 1243.52 80.8068 1234.8 Q80.8068 1226.05 83.8623 1221.46 Q86.941 1216.86 92.7512 1216.86 Z" fill="#000000" fill-rule="nonzero" fill-opacity="1" /><path clip-path="url(#clip050)" d="M83.7929 945.782 L102.149 945.782 L102.149 949.718 L88.0753 949.718 L88.0753 958.19 Q89.0938 957.842 90.1123 957.68 Q91.1308 957.495 92.1493 957.495 Q97.9363 957.495 101.316 960.667 Q104.696 963.838 104.696 969.254 Q104.696 974.833 101.223 977.935 Q97.7511 981.014 91.4317 981.014 Q89.2558 981.014 86.9873 980.643 Q84.7419 980.273 82.3346 979.532 L82.3346 974.833 Q84.4179 975.967 86.6401 976.523 Q88.8623 977.078 91.3391 977.078 Q95.3437 977.078 97.6817 974.972 Q100.02 972.866 100.02 969.254 Q100.02 965.643 97.6817 963.537 Q95.3437 961.43 91.3391 961.43 Q89.4641 961.43 87.5892 961.847 Q85.7373 962.264 83.7929 963.143 L83.7929 945.782 Z" fill="#000000" fill-rule="nonzero" fill-opacity="1" /><path clip-path="url(#clip050)" d="M53.3995 704.706 L61.0384 704.706 L61.0384 678.341 L52.7282 680.007 L52.7282 675.748 L60.9921 674.082 L65.668 674.082 L65.668 704.706 L73.3068 704.706 L73.3068 708.642 L53.3995 708.642 L53.3995 704.706 Z" fill="#000000" fill-rule="nonzero" fill-opacity="1" /><path clip-path="url(#clip050)" d="M92.7512 677.16 Q89.1401 677.16 87.3114 680.725 Q85.5058 684.267 85.5058 691.396 Q85.5058 698.503 87.3114 702.068 Q89.1401 705.609 92.7512 705.609 Q96.3854 705.609 98.1909 702.068 Q100.02 698.503 100.02 691.396 Q100.02 684.267 98.1909 680.725 Q96.3854 677.16 92.7512 677.16 M92.7512 673.457 Q98.5613 673.457 101.617 678.063 Q104.696 682.646 104.696 691.396 Q104.696 700.123 101.617 704.73 Q98.5613 709.313 92.7512 709.313 Q86.941 709.313 83.8623 704.73 Q80.8068 700.123 80.8068 691.396 Q80.8068 682.646 83.8623 678.063 Q86.941 673.457 92.7512 673.457 Z" fill="#000000" fill-rule="nonzero" fill-opacity="1" /><path clip-path="url(#clip050)" d="M54.3949 433.006 L62.0337 433.006 L62.0337 406.64 L53.7236 408.307 L53.7236 404.047 L61.9874 402.381 L66.6633 402.381 L66.6633 433.006 L74.3022 433.006 L74.3022 436.941 L54.3949 436.941 L54.3949 433.006 Z" fill="#000000" fill-rule="nonzero" fill-opacity="1" /><path clip-path="url(#clip050)" d="M83.7929 402.381 L102.149 402.381 L102.149 406.316 L88.0753 406.316 L88.0753 414.788 Q89.0938 414.441 90.1123 414.279 Q91.1308 414.094 92.1493 414.094 Q97.9363 414.094 101.316 417.265 Q104.696 420.436 104.696 425.853 Q104.696 431.432 101.223 434.533 Q97.7511 437.612 91.4317 437.612 Q89.2558 437.612 86.9873 437.242 Q84.7419 436.871 82.3346 436.131 L82.3346 431.432 Q84.4179 432.566 86.6401 433.121 Q88.8623 433.677 91.3391 433.677 Q95.3437 433.677 97.6817 431.57 Q100.02 429.464 100.02 425.853 Q100.02 422.242 97.6817 420.135 Q95.3437 418.029 91.3391 418.029 Q89.4641 418.029 87.5892 418.445 Q85.7373 418.862 83.7929 419.742 L83.7929 402.381 Z" fill="#000000" fill-rule="nonzero" fill-opacity="1" /><path clip-path="url(#clip050)" d="M56.6171 161.305 L72.9365 161.305 L72.9365 165.24 L50.9921 165.24 L50.9921 161.305 Q53.6541 158.55 58.2375 153.921 Q62.8439 149.268 64.0245 147.925 Q66.2698 145.402 67.1494 143.666 Q68.0522 141.907 68.0522 140.217 Q68.0522 137.462 66.1078 135.726 Q64.1865 133.99 61.0847 133.99 Q58.8856 133.99 56.4319 134.754 Q54.0014 135.518 51.2236 137.069 L51.2236 132.347 Q54.0477 131.212 56.5014 130.634 Q58.955 130.055 60.9921 130.055 Q66.3624 130.055 69.5568 132.74 Q72.7513 135.425 72.7513 139.916 Q72.7513 142.046 71.9411 143.967 Q71.1541 145.865 69.0476 148.458 Q68.4689 149.129 65.367 152.347 Q62.2652 155.541 56.6171 161.305 Z" fill="#000000" fill-rule="nonzero" fill-opacity="1" /><path clip-path="url(#clip050)" d="M92.7512 133.759 Q89.1401 133.759 87.3114 137.323 Q85.5058 140.865 85.5058 147.995 Q85.5058 155.101 87.3114 158.666 Q89.1401 162.208 92.7512 162.208 Q96.3854 162.208 98.1909 158.666 Q100.02 155.101 100.02 147.995 Q100.02 140.865 98.1909 137.323 Q96.3854 133.759 92.7512 133.759 M92.7512 130.055 Q98.5613 130.055 101.617 134.661 Q104.696 139.245 104.696 147.995 Q104.696 156.721 101.617 161.328 Q98.5613 165.911 92.7512 165.911 Q86.941 165.911 83.8623 161.328 Q80.8068 156.721 80.8068 147.995 Q80.8068 139.245 83.8623 134.661 Q86.941 130.055 92.7512 130.055 Z" fill="#000000" fill-rule="nonzero" fill-opacity="1" /><path clip-path="url(#clip051)" d="M203.301 1289.8 L272.863 1385.15 L342.424 1436.28 L411.986 1445.72 L481.548 1437.25 L551.109 1430.02 L620.671 1421.5 L690.233 1413.95 L759.794 1404.2 L829.356 1395.62 L898.917 1385.45 L968.479 1377.66 L1038.04 1371.7 L1107.6 1365.94 L1177.16 1359.23 L1246.73 1352.87 L1316.29 1345.35 L1385.85 1338.16 L1455.41 1335.01 L1524.97 1328.9 L1594.53 1325.37 L1664.1 1323.65 L1733.66 1315.09 L1803.22 1312.7 L1872.78 1309.72 L1942.34 1308.67 L2011.9 1308.3 L2081.47 1305.48 L2151.03 1303.83 L2220.59 1299.29 L2290.15 1297.03 L2290.15 950.493 L2220.59 935.504 L2151.03 923.363 L2081.47 910.641 L2011.9 897.494 L1942.34 880.169 L1872.78 859.118 L1803.22 839.935 L1733.66 817.775 L1664.1 798.628 L1594.53 776.447 L1524.97 752.38 L1455.41 724.695 L1385.85 696.021 L1316.29 668.282 L1246.73 637.678 L1177.16 611.281 L1107.6 577.649 L1038.04 541.533 L968.479 505.391 L898.917 463.844 L829.356 418.7 L759.794 373.144 L690.233 328.373 L620.671 278.935 L551.109 225.835 L481.548 168.595 L411.986 118.336 L342.424 87.9763 L272.863 176.172 L203.301 1157.19  Z" fill="#009af9" fill-rule="evenodd" fill-opacity="0.2"/>
<polyline clip-path="url(#clip051)" style="stroke:#009af9; stroke-linecap:round; stroke-linejoin:round; stroke-width:12; stroke-opacity:1; fill:none" points="203.301,1229.95 272.863,1170.59 342.424,1174.06 411.986,1175.09 481.548,1173.35 551.109,1175.91 620.671,1178.4 690.233,1185.36 759.794,1190.37 829.356,1191.1 898.917,1192.23 968.479,1193.47 1038.04,1195.28 1107.6,1200.6 1177.16,1201.94 1246.73,1200.7 1316.29,1200.69 1385.85,1205.2 1455.41,1214.79 1524.97,1215.62 1594.53,1212.76 1664.1,1212.97 1733.66,1214.76 1803.22,1217.04 1872.78,1217.29 1942.34,1219.86 2011.9,1222.01 2081.47,1224.48 2151.03,1226.6 2220.59,1226.38 2290.15,1228.28 "/>
<path clip-path="url(#clip051)" d="M203.301 1309.93 L272.863 1250.08 L342.424 1237.67 L411.986 1235.85 L481.548 1235.63 L551.109 1235.64 L620.671 1235.47 L690.233 1235.6 L759.794 1235.52 L829.356 1235.57 L898.917 1235.73 L968.479 1235.54 L1038.04 1235.6 L1107.6 1235.62 L1177.16 1235.54 L1246.73 1235.59 L1316.29 1235.61 L1385.85 1235.67 L1455.41 1235.66 L1524.97 1235.56 L1594.53 1235.66 L1664.1 1235.55 L1733.66 1235.58 L1803.22 1235.64 L1872.78 1235.65 L1942.34 1235.48 L2011.9 1235.5 L2081.47 1235.62 L2151.03 1235.85 L2220.59 1235.78 L2290.15 1235.38 L2290.15 1233.95 L2220.59 1233.98 L2151.03 1233.76 L2081.47 1234.02 L2011.9 1233.83 L1942.34 1233.93 L1872.78 1233.98 L1803.22 1233.98 L1733.66 1233.59 L1664.1 1233.96 L1594.53 1233.88 L1524.97 1233.77 L1455.41 1233.99 L1385.85 1233.84 L1316.29 1233.65 L1246.73 1233.65 L1177.16 1233.66 L1107.6 1233.65 L1038.04 1233.9 L968.479 1233.68 L898.917 1233.91 L829.356 1233.84 L759.794 1234.23 L690.233 1234 L620.671 1233.85 L551.109 1233.83 L481.548 1233.89 L411.986 1233.4 L342.424 1230.93 L272.863 1216.49 L203.301 1144.23  Z" fill="#e26f46" fill-rule="evenodd" fill-opacity="0.2"/>
<polyline clip-path="url(#clip051)" style="stroke:#e26f46; stroke-linecap:round; stroke-linejoin:round; stroke-width:12; stroke-opacity:1; fill:none" points="203.301,1234.2 272.863,1234.16 342.424,1234.52 411.986,1234.69 481.548,1234.69 551.109,1234.72 620.671,1234.71 690.233,1234.72 759.794,1234.82 829.356,1234.6 898.917,1234.79 968.479,1234.84 1038.04,1234.92 1107.6,1234.75 1177.16,1234.77 1246.73,1234.72 1316.29,1234.7 1385.85,1234.85 1455.41,1234.93 1524.97,1234.6 1594.53,1234.71 1664.1,1234.63 1733.66,1234.72 1803.22,1234.78 1872.78,1234.93 1942.34,1234.72 2011.9,1234.92 2081.47,1234.76 2151.03,1234.83 2220.59,1234.91 2290.15,1234.8 "/>
</svg>
