<?xml version="1.0" encoding="utf-8"?>
<svg xmlns="http://www.w3.org/2000/svg" xmlns:xlink="http://www.w3.org/1999/xlink" width="600" height="400" viewBox="0 0 2400 1600">
<defs>
  <clipPath id="clip020">
    <rect x="0" y="0" width="2400" height="1600"/>
  </clipPath>
</defs>
<path clip-path="url(#clip020)" d="M0 1600 L2400 1600 L2400 0 L0 0  Z" fill="#ffffff" fill-rule="evenodd" fill-opacity="1"/>
<defs>
  <clipPath id="clip021">
    <rect x="156" y="47" width="2198" height="1377"/>
  </clipPath>
</defs>
<path clip-path="url(#clip020)" d="M156.112 1423.18 L2352.76 1423.18 L2352.76 47.2441 L156.112 47.2441  Z" fill="#ffffff" fill-rule="evenodd" fill-opacity="1"/>
<polyline clip-path="url(#clip021)" style="stroke:#000000; stroke-linecap:round; stroke-linejoin:round; stroke-width:2; stroke-opacity:0.1; fill:none" points="156.112,1423.18 156.112,47.2441 "/>
<polyline clip-path="url(#clip021)" style="stroke:#000000; stroke-linecap:round; stroke-linejoin:round; stroke-width:2; stroke-opacity:0.1; fill:none" points="888.327,1423.18 888.327,47.2441 "/>
<polyline clip-path="url(#clip021)" style="stroke:#000000; stroke-linecap:round; stroke-linejoin:round; stroke-width:2; stroke-opacity:0.1; fill:none" points="1620.54,1423.18 1620.54,47.2441 "/>
<polyline clip-path="url(#clip021)" style="stroke:#000000; stroke-linecap:round; stroke-linejoin:round; stroke-width:2; stroke-opacity:0.1; fill:none" points="2352.76,1423.18 2352.76,47.2441 "/>
<polyline clip-path="url(#clip021)" style="stroke:#000000; stroke-linecap:round; stroke-linejoin:round; stroke-width:2; stroke-opacity:0.1; fill:none" points="156.112,1311.53 2352.76,1311.53 "/>
<polyline clip-path="url(#clip021)" style="stroke:#000000; stroke-linecap:round; stroke-linejoin:round; stroke-width:2; stroke-opacity:0.1; fill:none" points="156.112,953.815 2352.76,953.815 "/>
<polyline clip-path="url(#clip021)" style="stroke:#000000; stroke-linecap:round; stroke-linejoin:round; stroke-width:2; stroke-opacity:0.1; fill:none" points="156.112,596.096 2352.76,596.096 "/>
<polyline clip-path="url(#clip021)" style="stroke:#000000; stroke-linecap:round; stroke-linejoin:round; stroke-width:2; stroke-opacity:0.1; fill:none" points="156.112,238.377 2352.76,238.377 "/>
<polyline clip-path="url(#clip020)" style="stroke:#000000; stroke-linecap:round; stroke-linejoin:round; stroke-width:4; stroke-opacity:1; fill:none" points="156.112,1423.18 2352.76,1423.18 "/>
<polyline clip-path="url(#clip020)" style="stroke:#000000; stroke-linecap:round; stroke-linejoin:round; stroke-width:4; stroke-opacity:1; fill:none" points="156.112,1423.18 156.112,1404.28 "/>
<polyline clip-path="url(#clip020)" style="stroke:#000000; stroke-linecap:round; stroke-linejoin:round; stroke-width:4; stroke-opacity:1; fill:none" points="888.327,1423.18 888.327,1404.28 "/>
<polyline clip-path="url(#clip020)" style="stroke:#000000; stroke-linecap:round; stroke-linejoin:round; stroke-width:4; stroke-opacity:1; fill:none" points="1620.54,1423.18 1620.54,1404.28 "/>
<polyline clip-path="url(#clip020)" style="stroke:#000000; stroke-linecap:round; stroke-linejoin:round; stroke-width:4; stroke-opacity:1; fill:none" points="2352.76,1423.18 2352.76,1404.28 "/>
<path clip-path="url(#clip020)" d="M156.112 1454.1 Q152.501 1454.1 150.672 1457.66 Q148.867 1461.2 148.867 1468.33 Q148.867 1475.44 150.672 1479.01 Q152.501 1482.55 156.112 1482.55 Q159.746 1482.55 161.552 1479.01 Q163.381 1475.44 163.381 1468.33 Q163.381 1461.2 161.552 1457.66 Q159.746 1454.1 156.112 1454.1 M156.112 1450.39 Q161.922 1450.39 164.978 1455 Q168.057 1459.58 168.057 1468.33 Q168.057 1477.06 164.978 1481.67 Q161.922 1486.25 156.112 1486.25 Q150.302 1486.25 147.223 1481.67 Q144.168 1477.06 144.168 1468.33 Q144.168 1459.58 147.223 1455 Q150.302 1450.39 156.112 1450.39 Z" fill="#000000" fill-rule="nonzero" fill-opacity="1" /><path clip-path="url(#clip020)" d="M863.014 1481.64 L870.653 1481.64 L870.653 1455.28 L862.343 1456.95 L862.343 1452.69 L870.607 1451.02 L875.283 1451.02 L875.283 1481.64 L882.922 1481.64 L882.922 1485.58 L863.014 1485.58 L863.014 1481.64 Z" fill="#000000" fill-rule="nonzero" fill-opacity="1" /><path clip-path="url(#clip020)" d="M902.366 1454.1 Q898.755 1454.1 896.926 1457.66 Q895.121 1461.2 895.121 1468.33 Q895.121 1475.44 896.926 1479.01 Q898.755 1482.55 902.366 1482.55 Q906 1482.55 907.806 1479.01 Q909.634 1475.44 909.634 1468.33 Q909.634 1461.2 907.806 1457.66 Q906 1454.1 902.366 1454.1 M902.366 1450.39 Q908.176 1450.39 911.232 1455 Q914.31 1459.58 914.31 1468.33 Q914.31 1477.06 911.232 1481.67 Q908.176 1486.25 902.366 1486.25 Q896.556 1486.25 893.477 1481.67 Q890.422 1477.06 890.422 1468.33 Q890.422 1459.58 893.477 1455 Q896.556 1450.39 902.366 1450.39 Z" fill="#000000" fill-rule="nonzero" fill-opacity="1" /><path clip-path="url(#clip020)" d="M1599.31 1481.64 L1615.63 1481.64 L1615.63 1485.58 L1593.69 1485.58 L1593.69 1481.64 Q1596.35 1478.89 1600.93 1474.26 Q1605.54 1469.61 1606.72 1468.27 Q1608.97 1465.74 1609.85 1464.01 Q1610.75 1462.25 1610.75 1460.56 Q1610.75 1457.8 1608.81 1456.07 Q1606.88 1454.33 1603.78 1454.33 Q1601.58 1454.33 1599.13 1455.09 Q1596.7 1455.86 1593.92 1457.41 L1593.92 1452.69 Q1596.75 1451.55 1599.2 1450.97 Q1601.65 1450.39 1603.69 1450.39 Q1609.06 1450.39 1612.25 1453.08 Q1615.45 1455.77 1615.45 1460.26 Q1615.45 1462.39 1614.64 1464.31 Q1613.85 1466.2 1611.75 1468.8 Q1611.17 1469.47 1608.06 1472.69 Q1604.96 1475.88 1599.31 1481.64 Z" fill="#000000" fill-rule="nonzero" fill-opacity="1" /><path clip-path="url(#clip020)" d="M1635.45 1454.1 Q1631.84 1454.1 1630.01 1457.66 Q1628.2 1461.2 1628.2 1468.33 Q1628.2 1475.44 1630.01 1479.01 Q1631.84 1482.55 1635.45 1482.55 Q1639.08 1482.55 1640.89 1479.01 Q1642.72 1475.44 1642.72 1468.33 Q1642.72 1461.2 1640.89 1457.66 Q1639.08 1454.1 1635.45 1454.1 M1635.45 1450.39 Q1641.26 1450.39 1644.31 1455 Q1647.39 1459.58 1647.39 1468.33 Q1647.39 1477.06 1644.31 1481.67 Q1641.26 1486.25 1635.45 1486.25 Q1629.64 1486.25 1626.56 1481.67 Q1623.5 1477.06 1623.5 1468.33 Q1623.5 1459.58 1626.56 1455 Q1629.64 1450.39 1635.45 1450.39 Z" fill="#000000" fill-rule="nonzero" fill-opacity="1" /><path clip-path="url(#clip020)" d="M2341.6 1466.95 Q2344.96 1467.66 2346.83 1469.93 Q2348.73 1472.2 2348.73 1475.53 Q2348.73 1480.65 2345.21 1483.45 Q2341.69 1486.25 2335.21 1486.25 Q2333.03 1486.25 2330.72 1485.81 Q2328.43 1485.39 2325.97 1484.54 L2325.97 1480.02 Q2327.92 1481.16 2330.23 1481.74 Q2332.55 1482.32 2335.07 1482.32 Q2339.47 1482.32 2341.76 1480.58 Q2344.08 1478.84 2344.08 1475.53 Q2344.08 1472.48 2341.92 1470.77 Q2339.79 1469.03 2335.97 1469.03 L2331.95 1469.03 L2331.95 1465.19 L2336.16 1465.19 Q2339.61 1465.19 2341.44 1463.82 Q2343.27 1462.43 2343.27 1459.84 Q2343.27 1457.18 2341.37 1455.77 Q2339.49 1454.33 2335.97 1454.33 Q2334.05 1454.33 2331.85 1454.75 Q2329.65 1455.16 2327.02 1456.04 L2327.02 1451.88 Q2329.68 1451.14 2331.99 1450.77 Q2334.33 1450.39 2336.39 1450.39 Q2341.71 1450.39 2344.82 1452.83 Q2347.92 1455.23 2347.92 1459.35 Q2347.92 1462.22 2346.27 1464.21 Q2344.63 1466.18 2341.6 1466.95 Z" fill="#000000" fill-rule="nonzero" fill-opacity="1" /><path clip-path="url(#clip020)" d="M2367.59 1454.1 Q2363.98 1454.1 2362.15 1457.66 Q2360.35 1461.2 2360.35 1468.33 Q2360.35 1475.44 2362.15 1479.01 Q2363.98 1482.55 2367.59 1482.55 Q2371.23 1482.55 2373.03 1479.01 Q2374.86 1475.44 2374.86 1468.33 Q2374.86 1461.2 2373.03 1457.66 Q2371.23 1454.1 2367.59 1454.1 M2367.59 1450.39 Q2373.4 1450.39 2376.46 1455 Q2379.54 1459.58 2379.54 1468.33 Q2379.54 1477.06 2376.46 1481.67 Q2373.4 1486.25 2367.59 1486.25 Q2361.78 1486.25 2358.7 1481.67 Q2355.65 1477.06 2355.65 1468.33 Q2355.65 1459.58 2358.7 1455 Q2361.78 1450.39 2367.59 1450.39 Z" fill="#000000" fill-rule="nonzero" fill-opacity="1" /><path clip-path="url(#clip020)" d="M1253.5 1522.27 L1253.5 1532.4 L1265.56 1532.4 L1265.56 1536.95 L1253.5 1536.95 L1253.5 1556.3 Q1253.5 1560.66 1254.67 1561.9 Q1255.88 1563.14 1259.54 1563.14 L1265.56 1563.14 L1265.56 1568.04 L1259.54 1568.04 Q1252.76 1568.04 1250.18 1565.53 Q1247.61 1562.98 1247.61 1556.3 L1247.61 1536.95 L1243.31 1536.95 L1243.31 1532.4 L1247.61 1532.4 L1247.61 1522.27 L1253.5 1522.27 Z" fill="#000000" fill-rule="nonzero" fill-opacity="1" /><polyline clip-path="url(#clip020)" style="stroke:#000000; stroke-linecap:round; stroke-linejoin:round; stroke-width:4; stroke-opacity:1; fill:none" points="156.112,1423.18 156.112,47.2441 "/>
<polyline clip-path="url(#clip020)" style="stroke:#000000; stroke-linecap:round; stroke-linejoin:round; stroke-width:4; stroke-opacity:1; fill:none" points="156.112,1311.53 175.01,1311.53 "/>
<polyline clip-path="url(#clip020)" style="stroke:#000000; stroke-linecap:round; stroke-linejoin:round; stroke-width:4; stroke-opacity:1; fill:none" points="156.112,953.815 175.01,953.815 "/>
<polyline clip-path="url(#clip020)" style="stroke:#000000; stroke-linecap:round; stroke-linejoin:round; stroke-width:4; stroke-opacity:1; fill:none" points="156.112,596.096 175.01,596.096 "/>
<polyline clip-path="url(#clip020)" style="stroke:#000000; stroke-linecap:round; stroke-linejoin:round; stroke-width:4; stroke-opacity:1; fill:none" points="156.112,238.377 175.01,238.377 "/>
<path clip-path="url(#clip020)" d="M62.9365 1297.33 Q59.3254 1297.33 57.4967 1300.9 Q55.6912 1304.44 55.6912 1311.57 Q55.6912 1318.68 57.4967 1322.24 Q59.3254 1325.78 62.9365 1325.78 Q66.5707 1325.78 68.3763 1322.24 Q70.205 1318.68 70.205 1311.57 Q70.205 1304.44 68.3763 1300.9 Q66.5707 1297.33 62.9365 1297.33 M62.9365 1293.63 Q68.7467 1293.63 71.8022 1298.24 Q74.8809 1302.82 74.8809 1311.57 Q74.8809 1320.3 71.8022 1324.9 Q68.7467 1329.49 62.9365 1329.49 Q57.1264 1329.49 54.0477 1324.9 Q50.9921 1320.3 50.9921 1311.57 Q50.9921 1302.82 54.0477 1298.24 Q57.1264 1293.63 62.9365 1293.63 Z" fill="#000000" fill-rule="nonzero" fill-opacity="1" /><path clip-path="url(#clip020)" d="M83.0984 1322.93 L87.9827 1322.93 L87.9827 1328.81 L83.0984 1328.81 L83.0984 1322.93 Z" fill="#000000" fill-rule="nonzero" fill-opacity="1" /><path clip-path="url(#clip020)" d="M108.168 1297.33 Q104.557 1297.33 102.728 1300.9 Q100.922 1304.44 100.922 1311.57 Q100.922 1318.68 102.728 1322.24 Q104.557 1325.78 108.168 1325.78 Q111.802 1325.78 113.608 1322.24 Q115.436 1318.68 115.436 1311.57 Q115.436 1304.44 113.608 1300.9 Q111.802 1297.33 108.168 1297.33 M108.168 1293.63 Q113.978 1293.63 117.033 1298.24 Q120.112 1302.82 120.112 1311.57 Q120.112 1320.3 117.033 1324.9 Q113.978 1329.49 108.168 1329.49 Q102.358 1329.49 99.2789 1324.9 Q96.2234 1320.3 96.2234 1311.57 Q96.2234 1302.82 99.2789 1298.24 Q102.358 1293.63 108.168 1293.63 Z" fill="#000000" fill-rule="nonzero" fill-opacity="1" /><path clip-path="url(#clip020)" d="M64.1634 939.614 Q60.5523 939.614 58.7236 943.179 Q56.918 946.72 56.918 953.85 Q56.918 960.957 58.7236 964.521 Q60.5523 968.063 64.1634 968.063 Q67.7976 968.063 69.6031 964.521 Q71.4318 960.957 71.4318 953.85 Q71.4318 946.72 69.6031 943.179 Q67.7976 939.614 64.1634 939.614 M64.1634 935.91 Q69.9735 935.91 73.029 940.517 Q76.1077 945.1 76.1077 953.85 Q76.1077 962.577 73.029 967.183 Q69.9735 971.767 64.1634 971.767 Q58.3532 971.767 55.2745 967.183 Q52.219 962.577 52.219 953.85 Q52.219 945.1 55.2745 940.517 Q58.3532 935.91 64.1634 935.91 Z" fill="#000000" fill-rule="nonzero" fill-opacity="1" /><path clip-path="url(#clip020)" d="M84.3253 965.216 L89.2095 965.216 L89.2095 971.095 L84.3253 971.095 L84.3253 965.216 Z" fill="#000000" fill-rule="nonzero" fill-opacity="1" /><path clip-path="url(#clip020)" d="M100.205 967.16 L107.844 967.16 L107.844 940.795 L99.5335 942.461 L99.5335 938.202 L107.797 936.535 L112.473 936.535 L112.473 967.16 L120.112 967.16 L120.112 971.095 L100.205 971.095 L100.205 967.16 Z" fill="#000000" fill-rule="nonzero" fill-opacity="1" /><path clip-path="url(#clip020)" d="M64.5337 581.895 Q60.9226 581.895 59.0939 585.46 Q57.2884 589.001 57.2884 596.131 Q57.2884 603.237 59.0939 606.802 Q60.9226 610.344 64.5337 610.344 Q68.168 610.344 69.9735 606.802 Q71.8022 603.237 71.8022 596.131 Q71.8022 589.001 69.9735 585.46 Q68.168 581.895 64.5337 581.895 M64.5337 578.191 Q70.3439 578.191 73.3994 582.798 Q76.4781 587.381 76.4781 596.131 Q76.4781 604.858 73.3994 609.464 Q70.3439 614.048 64.5337 614.048 Q58.7236 614.048 55.6449 609.464 Q52.5893 604.858 52.5893 596.131 Q52.5893 587.381 55.6449 582.798 Q58.7236 578.191 64.5337 578.191 Z" fill="#000000" fill-rule="nonzero" fill-opacity="1" /><path clip-path="url(#clip020)" d="M84.6956 607.497 L89.5799 607.497 L89.5799 613.376 L84.6956 613.376 L84.6956 607.497 Z" fill="#000000" fill-rule="nonzero" fill-opacity="1" /><path clip-path="url(#clip020)" d="M103.793 609.441 L120.112 609.441 L120.112 613.376 L98.1678 613.376 L98.1678 609.441 Q100.83 606.687 105.413 602.057 Q110.02 597.404 111.2 596.062 Q113.445 593.538 114.325 591.802 Q115.228 590.043 115.228 588.353 Q115.228 585.599 113.283 583.863 Q111.362 582.126 108.26 582.126 Q106.061 582.126 103.608 582.89 Q101.177 583.654 98.3993 585.205 L98.3993 580.483 Q101.223 579.349 103.677 578.77 Q106.131 578.191 108.168 578.191 Q113.538 578.191 116.733 580.876 Q119.927 583.562 119.927 588.052 Q119.927 590.182 119.117 592.103 Q118.33 594.001 116.223 596.594 Q115.645 597.265 112.543 600.483 Q109.441 603.677 103.793 609.441 Z" fill="#000000" fill-rule="nonzero" fill-opacity="1" /><path clip-path="url(#clip020)" d="M63.5847 224.176 Q59.9736 224.176 58.1449 227.741 Q56.3393 231.282 56.3393 238.412 Q56.3393 245.518 58.1449 249.083 Q59.9736 252.625 63.5847 252.625 Q67.2189 252.625 69.0244 249.083 Q70.8531 245.518 70.8531 238.412 Q70.8531 231.282 69.0244 227.741 Q67.2189 224.176 63.5847 224.176 M63.5847 220.472 Q69.3948 220.472 72.4503 225.079 Q75.529 229.662 75.529 238.412 Q75.529 247.139 72.4503 251.745 Q69.3948 256.329 63.5847 256.329 Q57.7745 256.329 54.6958 251.745 Q51.6403 247.139 51.6403 238.412 Q51.6403 229.662 54.6958 225.079 Q57.7745 220.472 63.5847 220.472 Z" fill="#000000" fill-rule="nonzero" fill-opacity="1" /><path clip-path="url(#clip020)" d="M83.7466 249.778 L88.6308 249.778 L88.6308 255.657 L83.7466 255.657 L83.7466 249.778 Z" fill="#000000" fill-rule="nonzero" fill-opacity="1" /><path clip-path="url(#clip020)" d="M112.983 237.023 Q116.339 237.741 118.214 240.009 Q120.112 242.278 120.112 245.611 Q120.112 250.727 116.594 253.528 Q113.075 256.329 106.594 256.329 Q104.418 256.329 102.103 255.889 Q99.8113 255.472 97.3576 254.616 L97.3576 250.102 Q99.3021 251.236 101.617 251.815 Q103.932 252.393 106.455 252.393 Q110.853 252.393 113.145 250.657 Q115.459 248.921 115.459 245.611 Q115.459 242.555 113.307 240.843 Q111.177 239.106 107.358 239.106 L103.33 239.106 L103.33 235.264 L107.543 235.264 Q110.992 235.264 112.82 233.898 Q114.649 232.509 114.649 229.917 Q114.649 227.255 112.751 225.843 Q110.876 224.407 107.358 224.407 Q105.436 224.407 103.237 224.824 Q101.038 225.241 98.3993 226.12 L98.3993 221.954 Q101.061 221.213 103.376 220.843 Q105.714 220.472 107.774 220.472 Q113.098 220.472 116.2 222.903 Q119.302 225.31 119.302 229.431 Q119.302 232.301 117.658 234.292 Q116.015 236.259 112.983 237.023 Z" fill="#000000" fill-rule="nonzero" fill-opacity="1" /><polyline clip-path="url(#clip021)" style="stroke:#009af9; stroke-linecap:round; stroke-linejoin:round; stroke-width:4; stroke-opacity:1; fill:none" points="156.112,1311.53 229.334,1311.81 302.555,1174.24 375.777,1165.74 448.998,1110.49 522.219,938.065 595.441,690.576 668.662,454.803 741.884,485.442 815.105,327.718 888.327,325.571 961.548,822.689 1034.77,961.403 1107.99,1045.94 1181.21,886.029 1254.43,681.902 1327.66,828.415 1400.88,678.001 1474.1,483.278 1547.32,475.215 1620.54,580.541 1693.76,520.685 1766.98,625.46 1840.21,322.959 1913.43,92.0329 1986.65,101.292 2059.87,301.448 2133.09,278.562 2206.31,86.1857 2279.53,98.4625 2352.76,557.616 "/>
<polyline clip-path="url(#clip021)" style="stroke:#e26f46; stroke-linecap:round; stroke-linejoin:round; stroke-width:4; stroke-opacity:1; fill:none" points="156.112,1311.53 229.334,1289.37 302.555,1309.01 375.777,1301.42 448.998,1282.2 522.219,1268.86 595.441,1268.79 668.662,1309.52 741.884,1279.61 815.105,1303.23 888.327,1384.24 961.548,1329.94 1034.77,1322.3 1107.99,1283.69 1181.21,1275.36 1254.43,1330.05 1327.66,1283.48 1400.88,1275.22 1474.1,1303.53 1547.32,1321.72 1620.54,1296 1693.76,1322 1766.98,1257.68 1840.21,1266.68 1913.43,1303.18 1986.65,1333.99 2059.87,1299.7 2133.09,1272.46 2206.31,1303.61 2279.53,1376.1 2352.76,1314.2 "/>
<path clip-path="url(#clip020)" d="M229.334 248.629 L472.192 248.629 L472.192 93.1086 L229.334 93.1086  Z" fill="#ffffff" fill-rule="evenodd" fill-opacity="1"/>
<polyline clip-path="url(#clip020)" style="stroke:#000000; stroke-linecap:round; stroke-linejoin:round; stroke-width:4; stroke-opacity:1; fill:none" points="229.334,248.629 472.192,248.629 472.192,93.1086 229.334,93.1086 229.334,248.629 "/>
<polyline clip-path="url(#clip020)" style="stroke:#009af9; stroke-linecap:round; stroke-linejoin:round; stroke-width:4; stroke-opacity:1; fill:none" points="253.741,144.949 400.184,144.949 "/>
<path clip-path="url(#clip020)" d="M437.994 149.196 Q432.832 149.196 430.841 150.377 Q428.85 151.557 428.85 154.405 Q428.85 156.673 430.332 158.016 Q431.836 159.335 434.406 159.335 Q437.947 159.335 440.077 156.835 Q442.23 154.312 442.23 150.145 L442.23 149.196 L437.994 149.196 M446.489 147.437 L446.489 162.229 L442.23 162.229 L442.23 158.293 Q440.771 160.655 438.595 161.789 Q436.419 162.9 433.271 162.9 Q429.29 162.9 426.929 160.678 Q424.591 158.432 424.591 154.682 Q424.591 150.307 427.507 148.085 Q430.447 145.863 436.257 145.863 L442.23 145.863 L442.23 145.446 Q442.23 142.507 440.285 140.909 Q438.364 139.289 434.869 139.289 Q432.646 139.289 430.54 139.821 Q428.433 140.354 426.489 141.419 L426.489 137.483 Q428.827 136.581 431.026 136.141 Q433.225 135.678 435.308 135.678 Q440.933 135.678 443.711 138.594 Q446.489 141.511 446.489 147.437 Z" fill="#000000" fill-rule="nonzero" fill-opacity="1" /><polyline clip-path="url(#clip020)" style="stroke:#e26f46; stroke-linecap:round; stroke-linejoin:round; stroke-width:4; stroke-opacity:1; fill:none" points="253.741,196.789 400.184,196.789 "/>
<path clip-path="url(#clip020)" d="M443.364 201.129 Q443.364 196.43 441.419 193.768 Q439.498 191.083 436.119 191.083 Q432.739 191.083 430.794 193.768 Q428.873 196.43 428.873 201.129 Q428.873 205.828 430.794 208.513 Q432.739 211.175 436.119 211.175 Q439.498 211.175 441.419 208.513 Q443.364 205.828 443.364 201.129 M428.873 192.078 Q430.216 189.763 432.253 188.652 Q434.313 187.518 437.16 187.518 Q441.882 187.518 444.822 191.268 Q447.785 195.018 447.785 201.129 Q447.785 207.24 444.822 210.99 Q441.882 214.74 437.16 214.74 Q434.313 214.74 432.253 213.629 Q430.216 212.495 428.873 210.18 L428.873 214.069 L424.591 214.069 L424.591 178.05 L428.873 178.05 L428.873 192.078 Z" fill="#000000" fill-rule="nonzero" fill-opacity="1" /></svg>
