<?xml version="1.0" encoding="utf-8"?>
<svg xmlns="http://www.w3.org/2000/svg" xmlns:xlink="http://www.w3.org/1999/xlink" width="600" height="400" viewBox="0 0 2400 1600">
<defs>
  <clipPath id="clip870">
    <rect x="0" y="0" width="2400" height="1600"/>
  </clipPath>
</defs>
<path clip-path="url(#clip870)" d="M0 1600 L2400 1600 L2400 0 L0 0  Z" fill="#ffffff" fill-rule="evenodd" fill-opacity="1"/>
<defs>
  <clipPath id="clip871">
    <rect x="224" y="47" width="2130" height="1377"/>
  </clipPath>
</defs>
<path clip-path="url(#clip870)" d="M224.098 1423.18 L2352.76 1423.18 L2352.76 47.2441 L224.098 47.2441  Z" fill="#ffffff" fill-rule="evenodd" fill-opacity="1"/>
<polyline clip-path="url(#clip871)" style="stroke:#000000; stroke-linecap:round; stroke-linejoin:round; stroke-width:2; stroke-opacity:0.1; fill:none" points="224.098,1423.18 224.098,47.2441 "/>
<polyline clip-path="url(#clip871)" style="stroke:#000000; stroke-linecap:round; stroke-linejoin:round; stroke-width:2; stroke-opacity:0.1; fill:none" points="649.829,1423.18 649.829,47.2441 "/>
<polyline clip-path="url(#clip871)" style="stroke:#000000; stroke-linecap:round; stroke-linejoin:round; stroke-width:2; stroke-opacity:0.1; fill:none" points="1075.56,1423.18 1075.56,47.2441 "/>
<polyline clip-path="url(#clip871)" style="stroke:#000000; stroke-linecap:round; stroke-linejoin:round; stroke-width:2; stroke-opacity:0.1; fill:none" points="1501.29,1423.18 1501.29,47.2441 "/>
<polyline clip-path="url(#clip871)" style="stroke:#000000; stroke-linecap:round; stroke-linejoin:round; stroke-width:2; stroke-opacity:0.1; fill:none" points="1927.02,1423.18 1927.02,47.2441 "/>
<polyline clip-path="url(#clip871)" style="stroke:#000000; stroke-linecap:round; stroke-linejoin:round; stroke-width:2; stroke-opacity:0.1; fill:none" points="2352.76,1423.18 2352.76,47.2441 "/>
<polyline clip-path="url(#clip871)" style="stroke:#000000; stroke-linecap:round; stroke-linejoin:round; stroke-width:2; stroke-opacity:0.1; fill:none" points="224.098,1224.61 2352.76,1224.61 "/>
<polyline clip-path="url(#clip871)" style="stroke:#000000; stroke-linecap:round; stroke-linejoin:round; stroke-width:2; stroke-opacity:0.1; fill:none" points="224.098,978.947 2352.76,978.947 "/>
<polyline clip-path="url(#clip871)" style="stroke:#000000; stroke-linecap:round; stroke-linejoin:round; stroke-width:2; stroke-opacity:0.1; fill:none" points="224.098,733.284 2352.76,733.284 "/>
<polyline clip-path="url(#clip871)" style="stroke:#000000; stroke-linecap:round; stroke-linejoin:round; stroke-width:2; stroke-opacity:0.1; fill:none" points="224.098,487.62 2352.76,487.62 "/>
<polyline clip-path="url(#clip871)" style="stroke:#000000; stroke-linecap:round; stroke-linejoin:round; stroke-width:2; stroke-opacity:0.1; fill:none" points="224.098,241.956 2352.76,241.956 "/>
<polyline clip-path="url(#clip870)" style="stroke:#000000; stroke-linecap:round; stroke-linejoin:round; stroke-width:4; stroke-opacity:1; fill:none" points="224.098,1423.18 2352.76,1423.18 "/>
<polyline clip-path="url(#clip870)" style="stroke:#000000; stroke-linecap:round; stroke-linejoin:round; stroke-width:4; stroke-opacity:1; fill:none" points="224.098,1423.18 224.098,1404.28 "/>
<polyline clip-path="url(#clip870)" style="stroke:#000000; stroke-linecap:round; stroke-linejoin:round; stroke-width:4; stroke-opacity:1; fill:none" points="649.829,1423.18 649.829,1404.28 "/>
<polyline clip-path="url(#clip870)" style="stroke:#000000; stroke-linecap:round; stroke-linejoin:round; stroke-width:4; stroke-opacity:1; fill:none" points="1075.56,1423.18 1075.56,1404.28 "/>
<polyline clip-path="url(#clip870)" style="stroke:#000000; stroke-linecap:round; stroke-linejoin:round; stroke-width:4; stroke-opacity:1; fill:none" points="1501.29,1423.18 1501.29,1404.28 "/>
<polyline clip-path="url(#clip870)" style="stroke:#000000; stroke-linecap:round; stroke-linejoin:round; stroke-width:4; stroke-opacity:1; fill:none" points="1927.02,1423.18 1927.02,1404.28 "/>
<polyline clip-path="url(#clip870)" style="stroke:#000000; stroke-linecap:round; stroke-linejoin:round; stroke-width:4; stroke-opacity:1; fill:none" points="2352.76,1423.18 2352.76,1404.28 "/>
<path clip-path="url(#clip870)" d="M224.098 1454.1 Q220.487 1454.1 218.658 1457.66 Q216.853 1461.2 216.853 1468.33 Q216.853 1475.44 218.658 1479.01 Q220.487 1482.55 224.098 1482.55 Q227.732 1482.55 229.538 1479.01 Q231.366 1475.44 231.366 1468.33 Q231.366 1461.2 229.538 1457.66 Q227.732 1454.1 224.098 1454.1 M224.098 1450.39 Q229.908 1450.39 232.964 1455 Q236.042 1459.58 236.042 1468.33 Q236.042 1477.06 232.964 1481.67 Q229.908 1486.25 224.098 1486.25 Q218.288 1486.25 215.209 1481.67 Q212.153 1477.06 212.153 1468.33 Q212.153 1459.58 215.209 1455 Q218.288 1450.39 224.098 1450.39 Z" fill="#000000" fill-rule="nonzero" fill-opacity="1" /><path clip-path="url(#clip870)" d="M644.482 1481.64 L660.802 1481.64 L660.802 1485.58 L638.857 1485.58 L638.857 1481.64 Q641.519 1478.89 646.103 1474.26 Q650.709 1469.61 651.89 1468.27 Q654.135 1465.74 655.015 1464.01 Q655.917 1462.25 655.917 1460.56 Q655.917 1457.8 653.973 1456.07 Q652.052 1454.33 648.95 1454.33 Q646.751 1454.33 644.297 1455.09 Q641.867 1455.86 639.089 1457.41 L639.089 1452.69 Q641.913 1451.55 644.367 1450.97 Q646.82 1450.39 648.857 1450.39 Q654.228 1450.39 657.422 1453.08 Q660.616 1455.77 660.616 1460.26 Q660.616 1462.39 659.806 1464.31 Q659.019 1466.2 656.913 1468.8 Q656.334 1469.47 653.232 1472.69 Q650.13 1475.88 644.482 1481.64 Z" fill="#000000" fill-rule="nonzero" fill-opacity="1" /><path clip-path="url(#clip870)" d="M1078.57 1455.09 L1066.76 1473.54 L1078.57 1473.54 L1078.57 1455.09 M1077.34 1451.02 L1083.22 1451.02 L1083.22 1473.54 L1088.15 1473.54 L1088.15 1477.43 L1083.22 1477.43 L1083.22 1485.58 L1078.57 1485.58 L1078.57 1477.43 L1062.97 1477.43 L1062.97 1472.92 L1077.34 1451.02 Z" fill="#000000" fill-rule="nonzero" fill-opacity="1" /><path clip-path="url(#clip870)" d="M1501.7 1466.44 Q1498.55 1466.44 1496.7 1468.59 Q1494.87 1470.74 1494.87 1474.49 Q1494.87 1478.22 1496.7 1480.39 Q1498.55 1482.55 1501.7 1482.55 Q1504.85 1482.55 1506.67 1480.39 Q1508.53 1478.22 1508.53 1474.49 Q1508.53 1470.74 1506.67 1468.59 Q1504.85 1466.44 1501.7 1466.44 M1510.98 1451.78 L1510.98 1456.04 Q1509.22 1455.21 1507.42 1454.77 Q1505.63 1454.33 1503.87 1454.33 Q1499.24 1454.33 1496.79 1457.45 Q1494.36 1460.58 1494.01 1466.9 Q1495.38 1464.89 1497.44 1463.82 Q1499.5 1462.73 1501.98 1462.73 Q1507.18 1462.73 1510.19 1465.9 Q1513.23 1469.05 1513.23 1474.49 Q1513.23 1479.82 1510.08 1483.03 Q1506.93 1486.25 1501.7 1486.25 Q1495.7 1486.25 1492.53 1481.67 Q1489.36 1477.06 1489.36 1468.33 Q1489.36 1460.14 1493.25 1455.28 Q1497.14 1450.39 1503.69 1450.39 Q1505.45 1450.39 1507.23 1450.74 Q1509.04 1451.09 1510.98 1451.78 Z" fill="#000000" fill-rule="nonzero" fill-opacity="1" /><path clip-path="url(#clip870)" d="M1927.02 1469.17 Q1923.69 1469.17 1921.77 1470.95 Q1919.87 1472.73 1919.87 1475.86 Q1919.87 1478.98 1921.77 1480.77 Q1923.69 1482.55 1927.02 1482.55 Q1930.36 1482.55 1932.28 1480.77 Q1934.2 1478.96 1934.2 1475.86 Q1934.2 1472.73 1932.28 1470.95 Q1930.38 1469.17 1927.02 1469.17 M1922.35 1467.18 Q1919.34 1466.44 1917.65 1464.38 Q1915.98 1462.32 1915.98 1459.35 Q1915.98 1455.21 1918.92 1452.8 Q1921.89 1450.39 1927.02 1450.39 Q1932.19 1450.39 1935.13 1452.8 Q1938.07 1455.21 1938.07 1459.35 Q1938.07 1462.32 1936.38 1464.38 Q1934.71 1466.44 1931.72 1467.18 Q1935.1 1467.96 1936.98 1470.26 Q1938.88 1472.55 1938.88 1475.86 Q1938.88 1480.88 1935.8 1483.57 Q1932.74 1486.25 1927.02 1486.25 Q1921.31 1486.25 1918.23 1483.57 Q1915.17 1480.88 1915.17 1475.86 Q1915.17 1472.55 1917.07 1470.26 Q1918.97 1467.96 1922.35 1467.18 M1920.64 1459.79 Q1920.64 1462.48 1922.3 1463.98 Q1923.99 1465.49 1927.02 1465.49 Q1930.03 1465.49 1931.72 1463.98 Q1933.44 1462.48 1933.44 1459.79 Q1933.44 1457.11 1931.72 1455.6 Q1930.03 1454.1 1927.02 1454.1 Q1923.99 1454.1 1922.3 1455.6 Q1920.64 1457.11 1920.64 1459.79 Z" fill="#000000" fill-rule="nonzero" fill-opacity="1" /><path clip-path="url(#clip870)" d="M2327.44 1481.64 L2335.08 1481.64 L2335.08 1455.28 L2326.77 1456.95 L2326.77 1452.69 L2335.04 1451.02 L2339.71 1451.02 L2339.71 1481.64 L2347.35 1481.64 L2347.35 1485.58 L2327.44 1485.58 L2327.44 1481.64 Z" fill="#000000" fill-rule="nonzero" fill-opacity="1" /><path clip-path="url(#clip870)" d="M2366.8 1454.1 Q2363.18 1454.1 2361.36 1457.66 Q2359.55 1461.2 2359.55 1468.33 Q2359.55 1475.44 2361.36 1479.01 Q2363.18 1482.55 2366.8 1482.55 Q2370.43 1482.55 2372.23 1479.01 Q2374.06 1475.44 2374.06 1468.33 Q2374.06 1461.2 2372.23 1457.66 Q2370.43 1454.1 2366.8 1454.1 M2366.8 1450.39 Q2372.61 1450.39 2375.66 1455 Q2378.74 1459.58 2378.74 1468.33 Q2378.74 1477.06 2375.66 1481.67 Q2372.61 1486.25 2366.8 1486.25 Q2360.99 1486.25 2357.91 1481.67 Q2354.85 1477.06 2354.85 1468.33 Q2354.85 1459.58 2357.91 1455 Q2360.99 1450.39 2366.8 1450.39 Z" fill="#000000" fill-rule="nonzero" fill-opacity="1" /><path clip-path="url(#clip870)" d="M1287.49 1522.27 L1287.49 1532.4 L1299.55 1532.4 L1299.55 1536.95 L1287.49 1536.95 L1287.49 1556.3 Q1287.49 1560.66 1288.67 1561.9 Q1289.88 1563.14 1293.54 1563.14 L1299.55 1563.14 L1299.55 1568.04 L1293.54 1568.04 Q1286.76 1568.04 1284.18 1565.53 Q1281.6 1562.98 1281.6 1556.3 L1281.6 1536.95 L1277.3 1536.95 L1277.3 1532.4 L1281.6 1532.4 L1281.6 1522.27 L1287.49 1522.27 Z" fill="#000000" fill-rule="nonzero" fill-opacity="1" /><polyline clip-path="url(#clip870)" style="stroke:#000000; stroke-linecap:round; stroke-linejoin:round; stroke-width:4; stroke-opacity:1; fill:none" points="224.098,1423.18 224.098,47.2441 "/>
<polyline clip-path="url(#clip870)" style="stroke:#000000; stroke-linecap:round; stroke-linejoin:round; stroke-width:4; stroke-opacity:1; fill:none" points="224.098,1224.61 242.996,1224.61 "/>
<polyline clip-path="url(#clip870)" style="stroke:#000000; stroke-linecap:round; stroke-linejoin:round; stroke-width:4; stroke-opacity:1; fill:none" points="224.098,978.947 242.996,978.947 "/>
<polyline clip-path="url(#clip870)" style="stroke:#000000; stroke-linecap:round; stroke-linejoin:round; stroke-width:4; stroke-opacity:1; fill:none" points="224.098,733.284 242.996,733.284 "/>
<polyline clip-path="url(#clip870)" style="stroke:#000000; stroke-linecap:round; stroke-linejoin:round; stroke-width:4; stroke-opacity:1; fill:none" points="224.098,487.62 242.996,487.62 "/>
<polyline clip-path="url(#clip870)" style="stroke:#000000; stroke-linecap:round; stroke-linejoin:round; stroke-width:4; stroke-opacity:1; fill:none" points="224.098,241.956 242.996,241.956 "/>
<path clip-path="url(#clip870)" d="M50.9921 1225.06 L80.6679 1225.06 L80.6679 1229 L50.9921 1229 L50.9921 1225.06 Z" fill="#000000" fill-rule="nonzero" fill-opacity="1" /><path clip-path="url(#clip870)" d="M100.76 1210.41 Q97.1493 1210.41 95.3206 1213.97 Q93.515 1217.52 93.515 1224.65 Q93.515 1231.75 95.3206 1235.32 Q97.1493 1238.86 100.76 1238.86 Q104.395 1238.86 106.2 1235.32 Q108.029 1231.75 108.029 1224.65 Q108.029 1217.52 106.2 1213.97 Q104.395 1210.41 100.76 1210.41 M100.76 1206.71 Q106.571 1206.71 109.626 1211.31 Q112.705 1215.9 112.705 1224.65 Q112.705 1233.37 109.626 1237.98 Q106.571 1242.56 100.76 1242.56 Q94.9502 1242.56 91.8715 1237.98 Q88.816 1233.37 88.816 1224.65 Q88.816 1215.9 91.8715 1211.31 Q94.9502 1206.71 100.76 1206.71 Z" fill="#000000" fill-rule="nonzero" fill-opacity="1" /><path clip-path="url(#clip870)" d="M120.922 1236.01 L125.807 1236.01 L125.807 1241.89 L120.922 1241.89 L120.922 1236.01 Z" fill="#000000" fill-rule="nonzero" fill-opacity="1" /><path clip-path="url(#clip870)" d="M136.802 1237.96 L144.441 1237.96 L144.441 1211.59 L136.131 1213.26 L136.131 1209 L144.394 1207.33 L149.07 1207.33 L149.07 1237.96 L156.709 1237.96 L156.709 1241.89 L136.802 1241.89 L136.802 1237.96 Z" fill="#000000" fill-rule="nonzero" fill-opacity="1" /><path clip-path="url(#clip870)" d="M176.153 1210.41 Q172.542 1210.41 170.714 1213.97 Q168.908 1217.52 168.908 1224.65 Q168.908 1231.75 170.714 1235.32 Q172.542 1238.86 176.153 1238.86 Q179.788 1238.86 181.593 1235.32 Q183.422 1231.75 183.422 1224.65 Q183.422 1217.52 181.593 1213.97 Q179.788 1210.41 176.153 1210.41 M176.153 1206.71 Q181.964 1206.71 185.019 1211.31 Q188.098 1215.9 188.098 1224.65 Q188.098 1233.37 185.019 1237.98 Q181.964 1242.56 176.153 1242.56 Q170.343 1242.56 167.265 1237.98 Q164.209 1233.37 164.209 1224.65 Q164.209 1215.9 167.265 1211.31 Q170.343 1206.71 176.153 1206.71 Z" fill="#000000" fill-rule="nonzero" fill-opacity="1" /><path clip-path="url(#clip870)" d="M51.9875 979.399 L81.6633 979.399 L81.6633 983.334 L51.9875 983.334 L51.9875 979.399 Z" fill="#000000" fill-rule="nonzero" fill-opacity="1" /><path clip-path="url(#clip870)" d="M101.756 964.746 Q98.1447 964.746 96.316 968.311 Q94.5104 971.852 94.5104 978.982 Q94.5104 986.089 96.316 989.653 Q98.1447 993.195 101.756 993.195 Q105.39 993.195 107.196 989.653 Q109.024 986.089 109.024 978.982 Q109.024 971.852 107.196 968.311 Q105.39 964.746 101.756 964.746 M101.756 961.042 Q107.566 961.042 110.621 965.649 Q113.7 970.232 113.7 978.982 Q113.7 987.709 110.621 992.315 Q107.566 996.899 101.756 996.899 Q95.9456 996.899 92.8669 992.315 Q89.8114 987.709 89.8114 978.982 Q89.8114 970.232 92.8669 965.649 Q95.9456 961.042 101.756 961.042 Z" fill="#000000" fill-rule="nonzero" fill-opacity="1" /><path clip-path="url(#clip870)" d="M121.918 990.348 L126.802 990.348 L126.802 996.227 L121.918 996.227 L121.918 990.348 Z" fill="#000000" fill-rule="nonzero" fill-opacity="1" /><path clip-path="url(#clip870)" d="M146.987 964.746 Q143.376 964.746 141.547 968.311 Q139.742 971.852 139.742 978.982 Q139.742 986.089 141.547 989.653 Q143.376 993.195 146.987 993.195 Q150.621 993.195 152.427 989.653 Q154.255 986.089 154.255 978.982 Q154.255 971.852 152.427 968.311 Q150.621 964.746 146.987 964.746 M146.987 961.042 Q152.797 961.042 155.853 965.649 Q158.931 970.232 158.931 978.982 Q158.931 987.709 155.853 992.315 Q152.797 996.899 146.987 996.899 Q141.177 996.899 138.098 992.315 Q135.043 987.709 135.043 978.982 Q135.043 970.232 138.098 965.649 Q141.177 961.042 146.987 961.042 Z" fill="#000000" fill-rule="nonzero" fill-opacity="1" /><path clip-path="url(#clip870)" d="M167.195 961.667 L185.552 961.667 L185.552 965.603 L171.478 965.603 L171.478 974.075 Q172.496 973.727 173.515 973.565 Q174.533 973.38 175.552 973.38 Q181.339 973.38 184.718 976.552 Q188.098 979.723 188.098 985.139 Q188.098 990.718 184.626 993.82 Q181.153 996.899 174.834 996.899 Q172.658 996.899 170.39 996.528 Q168.144 996.158 165.737 995.417 L165.737 990.718 Q167.82 991.852 170.042 992.408 Q172.265 992.963 174.741 992.963 Q178.746 992.963 181.084 990.857 Q183.422 988.751 183.422 985.139 Q183.422 981.528 181.084 979.422 Q178.746 977.315 174.741 977.315 Q172.866 977.315 170.991 977.732 Q169.14 978.149 167.195 979.028 L167.195 961.667 Z" fill="#000000" fill-rule="nonzero" fill-opacity="1" /><path clip-path="url(#clip870)" d="M100.76 719.082 Q97.1493 719.082 95.3206 722.647 Q93.515 726.189 93.515 733.318 Q93.515 740.425 95.3206 743.99 Q97.1493 747.531 100.76 747.531 Q104.395 747.531 106.2 743.99 Q108.029 740.425 108.029 733.318 Q108.029 726.189 106.2 722.647 Q104.395 719.082 100.76 719.082 M100.76 715.379 Q106.571 715.379 109.626 719.985 Q112.705 724.568 112.705 733.318 Q112.705 742.045 109.626 746.652 Q106.571 751.235 100.76 751.235 Q94.9502 751.235 91.8715 746.652 Q88.816 742.045 88.816 733.318 Q88.816 724.568 91.8715 719.985 Q94.9502 715.379 100.76 715.379 Z" fill="#000000" fill-rule="nonzero" fill-opacity="1" /><path clip-path="url(#clip870)" d="M120.922 744.684 L125.807 744.684 L125.807 750.564 L120.922 750.564 L120.922 744.684 Z" fill="#000000" fill-rule="nonzero" fill-opacity="1" /><path clip-path="url(#clip870)" d="M145.992 719.082 Q142.381 719.082 140.552 722.647 Q138.746 726.189 138.746 733.318 Q138.746 740.425 140.552 743.99 Q142.381 747.531 145.992 747.531 Q149.626 747.531 151.431 743.99 Q153.26 740.425 153.26 733.318 Q153.26 726.189 151.431 722.647 Q149.626 719.082 145.992 719.082 M145.992 715.379 Q151.802 715.379 154.857 719.985 Q157.936 724.568 157.936 733.318 Q157.936 742.045 154.857 746.652 Q151.802 751.235 145.992 751.235 Q140.181 751.235 137.103 746.652 Q134.047 742.045 134.047 733.318 Q134.047 724.568 137.103 719.985 Q140.181 715.379 145.992 715.379 Z" fill="#000000" fill-rule="nonzero" fill-opacity="1" /><path clip-path="url(#clip870)" d="M176.153 719.082 Q172.542 719.082 170.714 722.647 Q168.908 726.189 168.908 733.318 Q168.908 740.425 170.714 743.99 Q172.542 747.531 176.153 747.531 Q179.788 747.531 181.593 743.99 Q183.422 740.425 183.422 733.318 Q183.422 726.189 181.593 722.647 Q179.788 719.082 176.153 719.082 M176.153 715.379 Q181.964 715.379 185.019 719.985 Q188.098 724.568 188.098 733.318 Q188.098 742.045 185.019 746.652 Q181.964 751.235 176.153 751.235 Q170.343 751.235 167.265 746.652 Q164.209 742.045 164.209 733.318 Q164.209 724.568 167.265 719.985 Q170.343 715.379 176.153 715.379 Z" fill="#000000" fill-rule="nonzero" fill-opacity="1" /><path clip-path="url(#clip870)" d="M101.756 473.419 Q98.1447 473.419 96.316 476.984 Q94.5104 480.525 94.5104 487.655 Q94.5104 494.761 96.316 498.326 Q98.1447 501.868 101.756 501.868 Q105.39 501.868 107.196 498.326 Q109.024 494.761 109.024 487.655 Q109.024 480.525 107.196 476.984 Q105.39 473.419 101.756 473.419 M101.756 469.715 Q107.566 469.715 110.621 474.322 Q113.7 478.905 113.7 487.655 Q113.7 496.382 110.621 500.988 Q107.566 505.571 101.756 505.571 Q95.9456 505.571 92.8669 500.988 Q89.8114 496.382 89.8114 487.655 Q89.8114 478.905 92.8669 474.322 Q95.9456 469.715 101.756 469.715 Z" fill="#000000" fill-rule="nonzero" fill-opacity="1" /><path clip-path="url(#clip870)" d="M121.918 499.02 L126.802 499.02 L126.802 504.9 L121.918 504.9 L121.918 499.02 Z" fill="#000000" fill-rule="nonzero" fill-opacity="1" /><path clip-path="url(#clip870)" d="M146.987 473.419 Q143.376 473.419 141.547 476.984 Q139.742 480.525 139.742 487.655 Q139.742 494.761 141.547 498.326 Q143.376 501.868 146.987 501.868 Q150.621 501.868 152.427 498.326 Q154.255 494.761 154.255 487.655 Q154.255 480.525 152.427 476.984 Q150.621 473.419 146.987 473.419 M146.987 469.715 Q152.797 469.715 155.853 474.322 Q158.931 478.905 158.931 487.655 Q158.931 496.382 155.853 500.988 Q152.797 505.571 146.987 505.571 Q141.177 505.571 138.098 500.988 Q135.043 496.382 135.043 487.655 Q135.043 478.905 138.098 474.322 Q141.177 469.715 146.987 469.715 Z" fill="#000000" fill-rule="nonzero" fill-opacity="1" /><path clip-path="url(#clip870)" d="M167.195 470.34 L185.552 470.34 L185.552 474.275 L171.478 474.275 L171.478 482.747 Q172.496 482.4 173.515 482.238 Q174.533 482.053 175.552 482.053 Q181.339 482.053 184.718 485.224 Q188.098 488.396 188.098 493.812 Q188.098 499.391 184.626 502.493 Q181.153 505.571 174.834 505.571 Q172.658 505.571 170.39 505.201 Q168.144 504.831 165.737 504.09 L165.737 499.391 Q167.82 500.525 170.042 501.081 Q172.265 501.636 174.741 501.636 Q178.746 501.636 181.084 499.53 Q183.422 497.423 183.422 493.812 Q183.422 490.201 181.084 488.095 Q178.746 485.988 174.741 485.988 Q172.866 485.988 170.991 486.405 Q169.14 486.821 167.195 487.701 L167.195 470.34 Z" fill="#000000" fill-rule="nonzero" fill-opacity="1" /><path clip-path="url(#clip870)" d="M100.76 227.755 Q97.1493 227.755 95.3206 231.32 Q93.515 234.862 93.515 241.991 Q93.515 249.098 95.3206 252.662 Q97.1493 256.204 100.76 256.204 Q104.395 256.204 106.2 252.662 Q108.029 249.098 108.029 241.991 Q108.029 234.862 106.2 231.32 Q104.395 227.755 100.76 227.755 M100.76 224.051 Q106.571 224.051 109.626 228.658 Q112.705 233.241 112.705 241.991 Q112.705 250.718 109.626 255.324 Q106.571 259.908 100.76 259.908 Q94.9502 259.908 91.8715 255.324 Q88.816 250.718 88.816 241.991 Q88.816 233.241 91.8715 228.658 Q94.9502 224.051 100.76 224.051 Z" fill="#000000" fill-rule="nonzero" fill-opacity="1" /><path clip-path="url(#clip870)" d="M120.922 253.357 L125.807 253.357 L125.807 259.236 L120.922 259.236 L120.922 253.357 Z" fill="#000000" fill-rule="nonzero" fill-opacity="1" /><path clip-path="url(#clip870)" d="M136.802 255.301 L144.441 255.301 L144.441 228.936 L136.131 230.602 L136.131 226.343 L144.394 224.676 L149.07 224.676 L149.07 255.301 L156.709 255.301 L156.709 259.236 L136.802 259.236 L136.802 255.301 Z" fill="#000000" fill-rule="nonzero" fill-opacity="1" /><path clip-path="url(#clip870)" d="M176.153 227.755 Q172.542 227.755 170.714 231.32 Q168.908 234.862 168.908 241.991 Q168.908 249.098 170.714 252.662 Q172.542 256.204 176.153 256.204 Q179.788 256.204 181.593 252.662 Q183.422 249.098 183.422 241.991 Q183.422 234.862 181.593 231.32 Q179.788 227.755 176.153 227.755 M176.153 224.051 Q181.964 224.051 185.019 228.658 Q188.098 233.241 188.098 241.991 Q188.098 250.718 185.019 255.324 Q181.964 259.908 176.153 259.908 Q170.343 259.908 167.265 255.324 Q164.209 250.718 164.209 241.991 Q164.209 233.241 167.265 228.658 Q170.343 224.051 176.153 224.051 Z" fill="#000000" fill-rule="nonzero" fill-opacity="1" /><polyline clip-path="url(#clip871)" style="stroke:#009af9; stroke-linecap:round; stroke-linejoin:round; stroke-width:4; stroke-opacity:1; fill:none" points="224.098,733.284 436.964,733.284 649.829,930.263 862.695,1384.24 1075.56,870.272 1288.43,782.845 1501.29,569.455 1714.16,409.961 1927.02,86.1857 2139.89,510.069 2352.76,910.096 "/>
<polyline clip-path="url(#clip871)" style="stroke:#e26f46; stroke-linecap:round; stroke-linejoin:round; stroke-width:4; stroke-opacity:1; fill:none" points="224.098,733.284 436.964,765.055 649.829,808.094 862.695,655.636 1075.56,720.287 1288.43,699.266 1501.29,706.238 1714.16,678.454 1927.02,796.434 2139.89,796.004 2352.76,720.363 "/>
<path clip-path="url(#clip870)" d="M295.053 248.629 L531.113 248.629 L531.113 93.1086 L295.053 93.1086  Z" fill="#ffffff" fill-rule="evenodd" fill-opacity="1"/>
<polyline clip-path="url(#clip870)" style="stroke:#000000; stroke-linecap:round; stroke-linejoin:round; stroke-width:4; stroke-opacity:1; fill:none" points="295.053,248.629 531.113,248.629 531.113,93.1086 295.053,93.1086 295.053,248.629 "/>
<polyline clip-path="url(#clip870)" style="stroke:#009af9; stroke-linecap:round; stroke-linejoin:round; stroke-width:4; stroke-opacity:1; fill:none" points="318.705,144.949 460.615,144.949 "/>
<path clip-path="url(#clip870)" d="M497.67 149.196 Q492.508 149.196 490.517 150.377 Q488.526 151.557 488.526 154.405 Q488.526 156.673 490.008 158.016 Q491.513 159.335 494.082 159.335 Q497.624 159.335 499.753 156.835 Q501.906 154.312 501.906 150.145 L501.906 149.196 L497.67 149.196 M506.165 147.437 L506.165 162.229 L501.906 162.229 L501.906 158.293 Q500.448 160.655 498.272 161.789 Q496.096 162.9 492.948 162.9 Q488.966 162.9 486.605 160.678 Q484.267 158.432 484.267 154.682 Q484.267 150.307 487.184 148.085 Q490.124 145.863 495.934 145.863 L501.906 145.863 L501.906 145.446 Q501.906 142.507 499.962 140.909 Q498.04 139.289 494.545 139.289 Q492.323 139.289 490.216 139.821 Q488.11 140.354 486.165 141.419 L486.165 137.483 Q488.503 136.581 490.702 136.141 Q492.901 135.678 494.985 135.678 Q500.61 135.678 503.387 138.594 Q506.165 141.511 506.165 147.437 Z" fill="#000000" fill-rule="nonzero" fill-opacity="1" /><polyline clip-path="url(#clip870)" style="stroke:#e26f46; stroke-linecap:round; stroke-linejoin:round; stroke-width:4; stroke-opacity:1; fill:none" points="318.705,196.789 460.615,196.789 "/>
<path clip-path="url(#clip870)" d="M503.04 201.129 Q503.04 196.43 501.096 193.768 Q499.175 191.083 495.795 191.083 Q492.415 191.083 490.471 193.768 Q488.55 196.43 488.55 201.129 Q488.55 205.828 490.471 208.513 Q492.415 211.175 495.795 211.175 Q499.175 211.175 501.096 208.513 Q503.04 205.828 503.04 201.129 M488.55 192.078 Q489.892 189.763 491.929 188.652 Q493.989 187.518 496.837 187.518 Q501.559 187.518 504.499 191.268 Q507.462 195.018 507.462 201.129 Q507.462 207.24 504.499 210.99 Q501.559 214.74 496.837 214.74 Q493.989 214.74 491.929 213.629 Q489.892 212.495 488.55 210.18 L488.55 214.069 L484.267 214.069 L484.267 178.05 L488.55 178.05 L488.55 192.078 Z" fill="#000000" fill-rule="nonzero" fill-opacity="1" /></svg>
