<?xml version="1.0" encoding="utf-8"?>
<svg xmlns="http://www.w3.org/2000/svg" xmlns:xlink="http://www.w3.org/1999/xlink" width="600" height="400" viewBox="0 0 2400 1600">
<defs>
  <clipPath id="clip900">
    <rect x="0" y="0" width="2400" height="1600"/>
  </clipPath>
</defs>
<path clip-path="url(#clip900)" d="M0 1600 L2400 1600 L2400 0 L0 0  Z" fill="#ffffff" fill-rule="evenodd" fill-opacity="1"/>
<defs>
  <clipPath id="clip901">
    <rect x="223" y="47" width="2131" height="1377"/>
  </clipPath>
</defs>
<path clip-path="url(#clip900)" d="M223.103 1423.18 L2352.76 1423.18 L2352.76 47.2441 L223.103 47.2441  Z" fill="#ffffff" fill-rule="evenodd" fill-opacity="1"/>
<polyline clip-path="url(#clip901)" style="stroke:#000000; stroke-linecap:round; stroke-linejoin:round; stroke-width:2; stroke-opacity:0.1; fill:none" points="223.103,1423.18 223.103,47.2441 "/>
<polyline clip-path="url(#clip901)" style="stroke:#000000; stroke-linecap:round; stroke-linejoin:round; stroke-width:2; stroke-opacity:0.1; fill:none" points="649.033,1423.18 649.033,47.2441 "/>
<polyline clip-path="url(#clip901)" style="stroke:#000000; stroke-linecap:round; stroke-linejoin:round; stroke-width:2; stroke-opacity:0.1; fill:none" points="1074.96,1423.18 1074.96,47.2441 "/>
<polyline clip-path="url(#clip901)" style="stroke:#000000; stroke-linecap:round; stroke-linejoin:round; stroke-width:2; stroke-opacity:0.1; fill:none" points="1500.89,1423.18 1500.89,47.2441 "/>
<polyline clip-path="url(#clip901)" style="stroke:#000000; stroke-linecap:round; stroke-linejoin:round; stroke-width:2; stroke-opacity:0.1; fill:none" points="1926.83,1423.18 1926.83,47.2441 "/>
<polyline clip-path="url(#clip901)" style="stroke:#000000; stroke-linecap:round; stroke-linejoin:round; stroke-width:2; stroke-opacity:0.1; fill:none" points="2352.76,1423.18 2352.76,47.2441 "/>
<polyline clip-path="url(#clip901)" style="stroke:#000000; stroke-linecap:round; stroke-linejoin:round; stroke-width:2; stroke-opacity:0.1; fill:none" points="223.103,1401.46 2352.76,1401.46 "/>
<polyline clip-path="url(#clip901)" style="stroke:#000000; stroke-linecap:round; stroke-linejoin:round; stroke-width:2; stroke-opacity:0.1; fill:none" points="223.103,1136.34 2352.76,1136.34 "/>
<polyline clip-path="url(#clip901)" style="stroke:#000000; stroke-linecap:round; stroke-linejoin:round; stroke-width:2; stroke-opacity:0.1; fill:none" points="223.103,871.208 2352.76,871.208 "/>
<polyline clip-path="url(#clip901)" style="stroke:#000000; stroke-linecap:round; stroke-linejoin:round; stroke-width:2; stroke-opacity:0.1; fill:none" points="223.103,606.081 2352.76,606.081 "/>
<polyline clip-path="url(#clip901)" style="stroke:#000000; stroke-linecap:round; stroke-linejoin:round; stroke-width:2; stroke-opacity:0.1; fill:none" points="223.103,340.953 2352.76,340.953 "/>
<polyline clip-path="url(#clip901)" style="stroke:#000000; stroke-linecap:round; stroke-linejoin:round; stroke-width:2; stroke-opacity:0.1; fill:none" points="223.103,75.8251 2352.76,75.8251 "/>
<polyline clip-path="url(#clip900)" style="stroke:#000000; stroke-linecap:round; stroke-linejoin:round; stroke-width:4; stroke-opacity:1; fill:none" points="223.103,1423.18 2352.76,1423.18 "/>
<polyline clip-path="url(#clip900)" style="stroke:#000000; stroke-linecap:round; stroke-linejoin:round; stroke-width:4; stroke-opacity:1; fill:none" points="223.103,1423.18 223.103,1404.28 "/>
<polyline clip-path="url(#clip900)" style="stroke:#000000; stroke-linecap:round; stroke-linejoin:round; stroke-width:4; stroke-opacity:1; fill:none" points="649.033,1423.18 649.033,1404.28 "/>
<polyline clip-path="url(#clip900)" style="stroke:#000000; stroke-linecap:round; stroke-linejoin:round; stroke-width:4; stroke-opacity:1; fill:none" points="1074.96,1423.18 1074.96,1404.28 "/>
<polyline clip-path="url(#clip900)" style="stroke:#000000; stroke-linecap:round; stroke-linejoin:round; stroke-width:4; stroke-opacity:1; fill:none" points="1500.89,1423.18 1500.89,1404.28 "/>
<polyline clip-path="url(#clip900)" style="stroke:#000000; stroke-linecap:round; stroke-linejoin:round; stroke-width:4; stroke-opacity:1; fill:none" points="1926.83,1423.18 1926.83,1404.28 "/>
<polyline clip-path="url(#clip900)" style="stroke:#000000; stroke-linecap:round; stroke-linejoin:round; stroke-width:4; stroke-opacity:1; fill:none" points="2352.76,1423.18 2352.76,1404.28 "/>
<path clip-path="url(#clip900)" d="M223.103 1454.1 Q219.491 1454.1 217.663 1457.66 Q215.857 1461.2 215.857 1468.33 Q215.857 1475.44 217.663 1479.01 Q219.491 1482.55 223.103 1482.55 Q226.737 1482.55 228.542 1479.01 Q230.371 1475.44 230.371 1468.33 Q230.371 1461.2 228.542 1457.66 Q226.737 1454.1 223.103 1454.1 M223.103 1450.39 Q228.913 1450.39 231.968 1455 Q235.047 1459.58 235.047 1468.33 Q235.047 1477.06 231.968 1481.67 Q228.913 1486.25 223.103 1486.25 Q217.292 1486.25 214.214 1481.67 Q211.158 1477.06 211.158 1468.33 Q211.158 1459.58 214.214 1455 Q217.292 1450.39 223.103 1450.39 Z" fill="#000000" fill-rule="nonzero" fill-opacity="1" /><path clip-path="url(#clip900)" d="M643.686 1481.64 L660.005 1481.64 L660.005 1485.58 L638.061 1485.58 L638.061 1481.64 Q640.723 1478.89 645.306 1474.26 Q649.913 1469.61 651.093 1468.27 Q653.339 1465.74 654.218 1464.01 Q655.121 1462.25 655.121 1460.56 Q655.121 1457.8 653.177 1456.07 Q651.255 1454.33 648.154 1454.33 Q645.955 1454.33 643.501 1455.09 Q641.07 1455.86 638.293 1457.41 L638.293 1452.69 Q641.117 1451.55 643.57 1450.97 Q646.024 1450.39 648.061 1450.39 Q653.431 1450.39 656.626 1453.08 Q659.82 1455.77 659.82 1460.26 Q659.82 1462.39 659.01 1464.31 Q658.223 1466.2 656.116 1468.8 Q655.538 1469.47 652.436 1472.69 Q649.334 1475.88 643.686 1481.64 Z" fill="#000000" fill-rule="nonzero" fill-opacity="1" /><path clip-path="url(#clip900)" d="M1077.97 1455.09 L1066.17 1473.54 L1077.97 1473.54 L1077.97 1455.09 M1076.75 1451.02 L1082.63 1451.02 L1082.63 1473.54 L1087.56 1473.54 L1087.56 1477.43 L1082.63 1477.43 L1082.63 1485.58 L1077.97 1485.58 L1077.97 1477.43 L1062.37 1477.43 L1062.37 1472.92 L1076.75 1451.02 Z" fill="#000000" fill-rule="nonzero" fill-opacity="1" /><path clip-path="url(#clip900)" d="M1501.3 1466.44 Q1498.15 1466.44 1496.3 1468.59 Q1494.47 1470.74 1494.47 1474.49 Q1494.47 1478.22 1496.3 1480.39 Q1498.15 1482.55 1501.3 1482.55 Q1504.45 1482.55 1506.28 1480.39 Q1508.13 1478.22 1508.13 1474.49 Q1508.13 1470.74 1506.28 1468.59 Q1504.45 1466.44 1501.3 1466.44 M1510.58 1451.78 L1510.58 1456.04 Q1508.82 1455.21 1507.02 1454.77 Q1505.23 1454.33 1503.48 1454.33 Q1498.85 1454.33 1496.39 1457.45 Q1493.96 1460.58 1493.61 1466.9 Q1494.98 1464.89 1497.04 1463.82 Q1499.1 1462.73 1501.58 1462.73 Q1506.79 1462.73 1509.79 1465.9 Q1512.83 1469.05 1512.83 1474.49 Q1512.83 1479.82 1509.68 1483.03 Q1506.53 1486.25 1501.3 1486.25 Q1495.3 1486.25 1492.13 1481.67 Q1488.96 1477.06 1488.96 1468.33 Q1488.96 1460.14 1492.85 1455.28 Q1496.74 1450.39 1503.29 1450.39 Q1505.05 1450.39 1506.83 1450.74 Q1508.64 1451.09 1510.58 1451.78 Z" fill="#000000" fill-rule="nonzero" fill-opacity="1" /><path clip-path="url(#clip900)" d="M1926.83 1469.17 Q1923.49 1469.17 1921.57 1470.95 Q1919.67 1472.73 1919.67 1475.86 Q1919.67 1478.98 1921.57 1480.77 Q1923.49 1482.55 1926.83 1482.55 Q1930.16 1482.55 1932.08 1480.77 Q1934 1478.96 1934 1475.86 Q1934 1472.73 1932.08 1470.95 Q1930.18 1469.17 1926.83 1469.17 M1922.15 1467.18 Q1919.14 1466.44 1917.45 1464.38 Q1915.78 1462.32 1915.78 1459.35 Q1915.78 1455.21 1918.72 1452.8 Q1921.69 1450.39 1926.83 1450.39 Q1931.99 1450.39 1934.93 1452.8 Q1937.87 1455.21 1937.87 1459.35 Q1937.87 1462.32 1936.18 1464.38 Q1934.51 1466.44 1931.52 1467.18 Q1934.9 1467.96 1936.78 1470.26 Q1938.68 1472.55 1938.68 1475.86 Q1938.68 1480.88 1935.6 1483.57 Q1932.54 1486.25 1926.83 1486.25 Q1921.11 1486.25 1918.03 1483.57 Q1914.97 1480.88 1914.97 1475.86 Q1914.97 1472.55 1916.87 1470.26 Q1918.77 1467.96 1922.15 1467.18 M1920.44 1459.79 Q1920.44 1462.48 1922.1 1463.98 Q1923.79 1465.49 1926.83 1465.49 Q1929.83 1465.49 1931.52 1463.98 Q1933.24 1462.48 1933.24 1459.79 Q1933.24 1457.11 1931.52 1455.6 Q1929.83 1454.1 1926.83 1454.1 Q1923.79 1454.1 1922.1 1455.6 Q1920.44 1457.11 1920.44 1459.79 Z" fill="#000000" fill-rule="nonzero" fill-opacity="1" /><path clip-path="url(#clip900)" d="M2327.44 1481.64 L2335.08 1481.64 L2335.08 1455.28 L2326.77 1456.95 L2326.77 1452.69 L2335.04 1451.02 L2339.71 1451.02 L2339.71 1481.64 L2347.35 1481.64 L2347.35 1485.58 L2327.44 1485.58 L2327.44 1481.64 Z" fill="#000000" fill-rule="nonzero" fill-opacity="1" /><path clip-path="url(#clip900)" d="M2366.8 1454.1 Q2363.18 1454.1 2361.36 1457.66 Q2359.55 1461.2 2359.55 1468.33 Q2359.55 1475.44 2361.36 1479.01 Q2363.18 1482.55 2366.8 1482.55 Q2370.43 1482.55 2372.23 1479.01 Q2374.06 1475.44 2374.06 1468.33 Q2374.06 1461.2 2372.23 1457.66 Q2370.43 1454.1 2366.8 1454.1 M2366.8 1450.39 Q2372.61 1450.39 2375.66 1455 Q2378.74 1459.58 2378.74 1468.33 Q2378.74 1477.06 2375.66 1481.67 Q2372.61 1486.25 2366.8 1486.25 Q2360.99 1486.25 2357.91 1481.67 Q2354.85 1477.06 2354.85 1468.33 Q2354.85 1459.58 2357.91 1455 Q2360.99 1450.39 2366.8 1450.39 Z" fill="#000000" fill-rule="nonzero" fill-opacity="1" /><path clip-path="url(#clip900)" d="M1286.99 1522.27 L1286.99 1532.4 L1299.05 1532.4 L1299.05 1536.95 L1286.99 1536.95 L1286.99 1556.3 Q1286.99 1560.66 1288.17 1561.9 Q1289.38 1563.14 1293.04 1563.14 L1299.05 1563.14 L1299.05 1568.04 L1293.04 1568.04 Q1286.26 1568.04 1283.68 1565.53 Q1281.1 1562.98 1281.1 1556.3 L1281.1 1536.95 L1276.81 1536.95 L1276.81 1532.4 L1281.1 1532.4 L1281.1 1522.27 L1286.99 1522.27 Z" fill="#000000" fill-rule="nonzero" fill-opacity="1" /><polyline clip-path="url(#clip900)" style="stroke:#000000; stroke-linecap:round; stroke-linejoin:round; stroke-width:4; stroke-opacity:1; fill:none" points="223.103,1423.18 223.103,47.2441 "/>
<polyline clip-path="url(#clip900)" style="stroke:#000000; stroke-linecap:round; stroke-linejoin:round; stroke-width:4; stroke-opacity:1; fill:none" points="223.103,1401.46 242,1401.46 "/>
<polyline clip-path="url(#clip900)" style="stroke:#000000; stroke-linecap:round; stroke-linejoin:round; stroke-width:4; stroke-opacity:1; fill:none" points="223.103,1136.34 242,1136.34 "/>
<polyline clip-path="url(#clip900)" style="stroke:#000000; stroke-linecap:round; stroke-linejoin:round; stroke-width:4; stroke-opacity:1; fill:none" points="223.103,871.208 242,871.208 "/>
<polyline clip-path="url(#clip900)" style="stroke:#000000; stroke-linecap:round; stroke-linejoin:round; stroke-width:4; stroke-opacity:1; fill:none" points="223.103,606.081 242,606.081 "/>
<polyline clip-path="url(#clip900)" style="stroke:#000000; stroke-linecap:round; stroke-linejoin:round; stroke-width:4; stroke-opacity:1; fill:none" points="223.103,340.953 242,340.953 "/>
<polyline clip-path="url(#clip900)" style="stroke:#000000; stroke-linecap:round; stroke-linejoin:round; stroke-width:4; stroke-opacity:1; fill:none" points="223.103,75.8251 242,75.8251 "/>
<path clip-path="url(#clip900)" d="M50.9921 1401.92 L80.6679 1401.92 L80.6679 1405.85 L50.9921 1405.85 L50.9921 1401.92 Z" fill="#000000" fill-rule="nonzero" fill-opacity="1" /><path clip-path="url(#clip900)" d="M100.76 1387.26 Q97.1493 1387.26 95.3206 1390.83 Q93.515 1394.37 93.515 1401.5 Q93.515 1408.6 95.3206 1412.17 Q97.1493 1415.71 100.76 1415.71 Q104.395 1415.71 106.2 1412.17 Q108.029 1408.6 108.029 1401.5 Q108.029 1394.37 106.2 1390.83 Q104.395 1387.26 100.76 1387.26 M100.76 1383.56 Q106.571 1383.56 109.626 1388.17 Q112.705 1392.75 112.705 1401.5 Q112.705 1410.23 109.626 1414.83 Q106.571 1419.41 100.76 1419.41 Q94.9502 1419.41 91.8715 1414.83 Q88.816 1410.23 88.816 1401.5 Q88.816 1392.75 91.8715 1388.17 Q94.9502 1383.56 100.76 1383.56 Z" fill="#000000" fill-rule="nonzero" fill-opacity="1" /><path clip-path="url(#clip900)" d="M120.922 1412.86 L125.807 1412.86 L125.807 1418.74 L120.922 1418.74 L120.922 1412.86 Z" fill="#000000" fill-rule="nonzero" fill-opacity="1" /><path clip-path="url(#clip900)" d="M145.992 1387.26 Q142.381 1387.26 140.552 1390.83 Q138.746 1394.37 138.746 1401.5 Q138.746 1408.6 140.552 1412.17 Q142.381 1415.71 145.992 1415.71 Q149.626 1415.71 151.431 1412.17 Q153.26 1408.6 153.26 1401.5 Q153.26 1394.37 151.431 1390.83 Q149.626 1387.26 145.992 1387.26 M145.992 1383.56 Q151.802 1383.56 154.857 1388.17 Q157.936 1392.75 157.936 1401.5 Q157.936 1410.23 154.857 1414.83 Q151.802 1419.41 145.992 1419.41 Q140.181 1419.41 137.103 1414.83 Q134.047 1410.23 134.047 1401.5 Q134.047 1392.75 137.103 1388.17 Q140.181 1383.56 145.992 1383.56 Z" fill="#000000" fill-rule="nonzero" fill-opacity="1" /><path clip-path="url(#clip900)" d="M166.2 1384.18 L184.556 1384.18 L184.556 1388.12 L170.482 1388.12 L170.482 1396.59 Q171.501 1396.24 172.519 1396.08 Q173.538 1395.9 174.556 1395.9 Q180.343 1395.9 183.723 1399.07 Q187.103 1402.24 187.103 1407.66 Q187.103 1413.23 183.63 1416.34 Q180.158 1419.41 173.839 1419.41 Q171.663 1419.41 169.394 1419.04 Q167.149 1418.67 164.742 1417.93 L164.742 1413.23 Q166.825 1414.37 169.047 1414.92 Q171.269 1415.48 173.746 1415.48 Q177.751 1415.48 180.089 1413.37 Q182.427 1411.27 182.427 1407.66 Q182.427 1404.04 180.089 1401.94 Q177.751 1399.83 173.746 1399.83 Q171.871 1399.83 169.996 1400.25 Q168.144 1400.67 166.2 1401.54 L166.2 1384.18 Z" fill="#000000" fill-rule="nonzero" fill-opacity="1" /><path clip-path="url(#clip900)" d="M99.765 1122.13 Q96.1539 1122.13 94.3252 1125.7 Q92.5197 1129.24 92.5197 1136.37 Q92.5197 1143.48 94.3252 1147.04 Q96.1539 1150.58 99.765 1150.58 Q103.399 1150.58 105.205 1147.04 Q107.033 1143.48 107.033 1136.37 Q107.033 1129.24 105.205 1125.7 Q103.399 1122.13 99.765 1122.13 M99.765 1118.43 Q105.575 1118.43 108.631 1123.04 Q111.709 1127.62 111.709 1136.37 Q111.709 1145.1 108.631 1149.7 Q105.575 1154.29 99.765 1154.29 Q93.9549 1154.29 90.8762 1149.7 Q87.8206 1145.1 87.8206 1136.37 Q87.8206 1127.62 90.8762 1123.04 Q93.9549 1118.43 99.765 1118.43 Z" fill="#000000" fill-rule="nonzero" fill-opacity="1" /><path clip-path="url(#clip900)" d="M119.927 1147.74 L124.811 1147.74 L124.811 1153.62 L119.927 1153.62 L119.927 1147.74 Z" fill="#000000" fill-rule="nonzero" fill-opacity="1" /><path clip-path="url(#clip900)" d="M144.996 1122.13 Q141.385 1122.13 139.556 1125.7 Q137.751 1129.24 137.751 1136.37 Q137.751 1143.48 139.556 1147.04 Q141.385 1150.58 144.996 1150.58 Q148.63 1150.58 150.436 1147.04 Q152.265 1143.48 152.265 1136.37 Q152.265 1129.24 150.436 1125.7 Q148.63 1122.13 144.996 1122.13 M144.996 1118.43 Q150.806 1118.43 153.862 1123.04 Q156.941 1127.62 156.941 1136.37 Q156.941 1145.1 153.862 1149.7 Q150.806 1154.29 144.996 1154.29 Q139.186 1154.29 136.107 1149.7 Q133.052 1145.1 133.052 1136.37 Q133.052 1127.62 136.107 1123.04 Q139.186 1118.43 144.996 1118.43 Z" fill="#000000" fill-rule="nonzero" fill-opacity="1" /><path clip-path="url(#clip900)" d="M175.158 1122.13 Q171.547 1122.13 169.718 1125.7 Q167.913 1129.24 167.913 1136.37 Q167.913 1143.48 169.718 1147.04 Q171.547 1150.58 175.158 1150.58 Q178.792 1150.58 180.598 1147.04 Q182.427 1143.48 182.427 1136.37 Q182.427 1129.24 180.598 1125.7 Q178.792 1122.13 175.158 1122.13 M175.158 1118.43 Q180.968 1118.43 184.024 1123.04 Q187.103 1127.62 187.103 1136.37 Q187.103 1145.1 184.024 1149.7 Q180.968 1154.29 175.158 1154.29 Q169.348 1154.29 166.269 1149.7 Q163.214 1145.1 163.214 1136.37 Q163.214 1127.62 166.269 1123.04 Q169.348 1118.43 175.158 1118.43 Z" fill="#000000" fill-rule="nonzero" fill-opacity="1" /><path clip-path="url(#clip900)" d="M100.76 857.007 Q97.1493 857.007 95.3206 860.572 Q93.515 864.113 93.515 871.243 Q93.515 878.349 95.3206 881.914 Q97.1493 885.456 100.76 885.456 Q104.395 885.456 106.2 881.914 Q108.029 878.349 108.029 871.243 Q108.029 864.113 106.2 860.572 Q104.395 857.007 100.76 857.007 M100.76 853.303 Q106.571 853.303 109.626 857.91 Q112.705 862.493 112.705 871.243 Q112.705 879.97 109.626 884.576 Q106.571 889.16 100.76 889.16 Q94.9502 889.16 91.8715 884.576 Q88.816 879.97 88.816 871.243 Q88.816 862.493 91.8715 857.91 Q94.9502 853.303 100.76 853.303 Z" fill="#000000" fill-rule="nonzero" fill-opacity="1" /><path clip-path="url(#clip900)" d="M120.922 882.609 L125.807 882.609 L125.807 888.488 L120.922 888.488 L120.922 882.609 Z" fill="#000000" fill-rule="nonzero" fill-opacity="1" /><path clip-path="url(#clip900)" d="M145.992 857.007 Q142.381 857.007 140.552 860.572 Q138.746 864.113 138.746 871.243 Q138.746 878.349 140.552 881.914 Q142.381 885.456 145.992 885.456 Q149.626 885.456 151.431 881.914 Q153.26 878.349 153.26 871.243 Q153.26 864.113 151.431 860.572 Q149.626 857.007 145.992 857.007 M145.992 853.303 Q151.802 853.303 154.857 857.91 Q157.936 862.493 157.936 871.243 Q157.936 879.97 154.857 884.576 Q151.802 889.16 145.992 889.16 Q140.181 889.16 137.103 884.576 Q134.047 879.97 134.047 871.243 Q134.047 862.493 137.103 857.91 Q140.181 853.303 145.992 853.303 Z" fill="#000000" fill-rule="nonzero" fill-opacity="1" /><path clip-path="url(#clip900)" d="M166.2 853.928 L184.556 853.928 L184.556 857.863 L170.482 857.863 L170.482 866.336 Q171.501 865.988 172.519 865.826 Q173.538 865.641 174.556 865.641 Q180.343 865.641 183.723 868.812 Q187.103 871.984 187.103 877.4 Q187.103 882.979 183.63 886.081 Q180.158 889.16 173.839 889.16 Q171.663 889.16 169.394 888.789 Q167.149 888.419 164.742 887.678 L164.742 882.979 Q166.825 884.113 169.047 884.669 Q171.269 885.224 173.746 885.224 Q177.751 885.224 180.089 883.118 Q182.427 881.011 182.427 877.4 Q182.427 873.789 180.089 871.683 Q177.751 869.576 173.746 869.576 Q171.871 869.576 169.996 869.993 Q168.144 870.41 166.2 871.289 L166.2 853.928 Z" fill="#000000" fill-rule="nonzero" fill-opacity="1" /><path clip-path="url(#clip900)" d="M99.765 591.879 Q96.1539 591.879 94.3252 595.444 Q92.5197 598.986 92.5197 606.115 Q92.5197 613.222 94.3252 616.786 Q96.1539 620.328 99.765 620.328 Q103.399 620.328 105.205 616.786 Q107.033 613.222 107.033 606.115 Q107.033 598.986 105.205 595.444 Q103.399 591.879 99.765 591.879 M99.765 588.176 Q105.575 588.176 108.631 592.782 Q111.709 597.365 111.709 606.115 Q111.709 614.842 108.631 619.449 Q105.575 624.032 99.765 624.032 Q93.9549 624.032 90.8762 619.449 Q87.8206 614.842 87.8206 606.115 Q87.8206 597.365 90.8762 592.782 Q93.9549 588.176 99.765 588.176 Z" fill="#000000" fill-rule="nonzero" fill-opacity="1" /><path clip-path="url(#clip900)" d="M119.927 617.481 L124.811 617.481 L124.811 623.361 L119.927 623.361 L119.927 617.481 Z" fill="#000000" fill-rule="nonzero" fill-opacity="1" /><path clip-path="url(#clip900)" d="M135.806 619.425 L143.445 619.425 L143.445 593.06 L135.135 594.726 L135.135 590.467 L143.399 588.801 L148.075 588.801 L148.075 619.425 L155.714 619.425 L155.714 623.361 L135.806 623.361 L135.806 619.425 Z" fill="#000000" fill-rule="nonzero" fill-opacity="1" /><path clip-path="url(#clip900)" d="M175.158 591.879 Q171.547 591.879 169.718 595.444 Q167.913 598.986 167.913 606.115 Q167.913 613.222 169.718 616.786 Q171.547 620.328 175.158 620.328 Q178.792 620.328 180.598 616.786 Q182.427 613.222 182.427 606.115 Q182.427 598.986 180.598 595.444 Q178.792 591.879 175.158 591.879 M175.158 588.176 Q180.968 588.176 184.024 592.782 Q187.103 597.365 187.103 606.115 Q187.103 614.842 184.024 619.449 Q180.968 624.032 175.158 624.032 Q169.348 624.032 166.269 619.449 Q163.214 614.842 163.214 606.115 Q163.214 597.365 166.269 592.782 Q169.348 588.176 175.158 588.176 Z" fill="#000000" fill-rule="nonzero" fill-opacity="1" /><path clip-path="url(#clip900)" d="M100.76 326.752 Q97.1493 326.752 95.3206 330.316 Q93.515 333.858 93.515 340.988 Q93.515 348.094 95.3206 351.659 Q97.1493 355.2 100.76 355.2 Q104.395 355.2 106.2 351.659 Q108.029 348.094 108.029 340.988 Q108.029 333.858 106.2 330.316 Q104.395 326.752 100.76 326.752 M100.76 323.048 Q106.571 323.048 109.626 327.654 Q112.705 332.238 112.705 340.988 Q112.705 349.714 109.626 354.321 Q106.571 358.904 100.76 358.904 Q94.9502 358.904 91.8715 354.321 Q88.816 349.714 88.816 340.988 Q88.816 332.238 91.8715 327.654 Q94.9502 323.048 100.76 323.048 Z" fill="#000000" fill-rule="nonzero" fill-opacity="1" /><path clip-path="url(#clip900)" d="M120.922 352.353 L125.807 352.353 L125.807 358.233 L120.922 358.233 L120.922 352.353 Z" fill="#000000" fill-rule="nonzero" fill-opacity="1" /><path clip-path="url(#clip900)" d="M136.802 354.298 L144.441 354.298 L144.441 327.932 L136.131 329.599 L136.131 325.339 L144.394 323.673 L149.07 323.673 L149.07 354.298 L156.709 354.298 L156.709 358.233 L136.802 358.233 L136.802 354.298 Z" fill="#000000" fill-rule="nonzero" fill-opacity="1" /><path clip-path="url(#clip900)" d="M166.2 323.673 L184.556 323.673 L184.556 327.608 L170.482 327.608 L170.482 336.08 Q171.501 335.733 172.519 335.571 Q173.538 335.386 174.556 335.386 Q180.343 335.386 183.723 338.557 Q187.103 341.728 187.103 347.145 Q187.103 352.724 183.63 355.825 Q180.158 358.904 173.839 358.904 Q171.663 358.904 169.394 358.534 Q167.149 358.163 164.742 357.423 L164.742 352.724 Q166.825 353.858 169.047 354.413 Q171.269 354.969 173.746 354.969 Q177.751 354.969 180.089 352.862 Q182.427 350.756 182.427 347.145 Q182.427 343.534 180.089 341.427 Q177.751 339.321 173.746 339.321 Q171.871 339.321 169.996 339.738 Q168.144 340.154 166.2 341.034 L166.2 323.673 Z" fill="#000000" fill-rule="nonzero" fill-opacity="1" /><path clip-path="url(#clip900)" d="M99.765 61.6238 Q96.1539 61.6238 94.3252 65.1886 Q92.5197 68.7302 92.5197 75.8598 Q92.5197 82.9663 94.3252 86.5311 Q96.1539 90.0727 99.765 90.0727 Q103.399 90.0727 105.205 86.5311 Q107.033 82.9663 107.033 75.8598 Q107.033 68.7302 105.205 65.1886 Q103.399 61.6238 99.765 61.6238 M99.765 57.9201 Q105.575 57.9201 108.631 62.5266 Q111.709 67.1099 111.709 75.8598 Q111.709 84.5866 108.631 89.1931 Q105.575 93.7764 99.765 93.7764 Q93.9549 93.7764 90.8762 89.1931 Q87.8206 84.5866 87.8206 75.8598 Q87.8206 67.1099 90.8762 62.5266 Q93.9549 57.9201 99.765 57.9201 Z" fill="#000000" fill-rule="nonzero" fill-opacity="1" /><path clip-path="url(#clip900)" d="M119.927 87.2255 L124.811 87.2255 L124.811 93.1051 L119.927 93.1051 L119.927 87.2255 Z" fill="#000000" fill-rule="nonzero" fill-opacity="1" /><path clip-path="url(#clip900)" d="M139.024 89.1699 L155.343 89.1699 L155.343 93.1051 L133.399 93.1051 L133.399 89.1699 Q136.061 86.4153 140.644 81.7857 Q145.251 77.133 146.431 75.7904 Q148.677 73.2673 149.556 71.5312 Q150.459 69.7719 150.459 68.0821 Q150.459 65.3275 148.515 63.5914 Q146.593 61.8553 143.492 61.8553 Q141.293 61.8553 138.839 62.6192 Q136.408 63.3831 133.631 64.934 L133.631 60.2118 Q136.455 59.0775 138.908 58.4988 Q141.362 57.9201 143.399 57.9201 Q148.769 57.9201 151.964 60.6053 Q155.158 63.2905 155.158 67.7812 Q155.158 69.9108 154.348 71.8321 Q153.561 73.7302 151.455 76.3228 Q150.876 76.9941 147.774 80.2117 Q144.672 83.4061 139.024 89.1699 Z" fill="#000000" fill-rule="nonzero" fill-opacity="1" /><path clip-path="url(#clip900)" d="M175.158 61.6238 Q171.547 61.6238 169.718 65.1886 Q167.913 68.7302 167.913 75.8598 Q167.913 82.9663 169.718 86.5311 Q171.547 90.0727 175.158 90.0727 Q178.792 90.0727 180.598 86.5311 Q182.427 82.9663 182.427 75.8598 Q182.427 68.7302 180.598 65.1886 Q178.792 61.6238 175.158 61.6238 M175.158 57.9201 Q180.968 57.9201 184.024 62.5266 Q187.103 67.1099 187.103 75.8598 Q187.103 84.5866 184.024 89.1931 Q180.968 93.7764 175.158 93.7764 Q169.348 93.7764 166.269 89.1931 Q163.214 84.5866 163.214 75.8598 Q163.214 67.1099 166.269 62.5266 Q169.348 57.9201 175.158 57.9201 Z" fill="#000000" fill-rule="nonzero" fill-opacity="1" /><polyline clip-path="url(#clip901)" style="stroke:#009af9; stroke-linecap:round; stroke-linejoin:round; stroke-width:4; stroke-opacity:1; fill:none" points="223.103,606.081 436.068,632.593 649.033,870.367 861.999,1384.24 1074.96,852.281 1287.93,779.522 1500.89,569.741 1713.86,417.099 1926.83,86.1857 2139.79,561.243 2352.76,1009.67 "/>
<polyline clip-path="url(#clip901)" style="stroke:#e26f46; stroke-linecap:round; stroke-linejoin:round; stroke-width:4; stroke-opacity:1; fill:none" points="223.103,1136.34 436.068,1170.62 649.033,1217.07 861.999,1052.54 1074.96,1122.31 1287.93,1099.62 1500.89,1107.15 1713.86,1077.16 1926.83,1204.49 2139.79,1204.03 2352.76,1122.39 "/>
<path clip-path="url(#clip900)" d="M294.091 248.629 L530.251 248.629 L530.251 93.1086 L294.091 93.1086  Z" fill="#ffffff" fill-rule="evenodd" fill-opacity="1"/>
<polyline clip-path="url(#clip900)" style="stroke:#000000; stroke-linecap:round; stroke-linejoin:round; stroke-width:4; stroke-opacity:1; fill:none" points="294.091,248.629 530.251,248.629 530.251,93.1086 294.091,93.1086 294.091,248.629 "/>
<polyline clip-path="url(#clip900)" style="stroke:#009af9; stroke-linecap:round; stroke-linejoin:round; stroke-width:4; stroke-opacity:1; fill:none" points="317.754,144.949 459.731,144.949 "/>
<path clip-path="url(#clip900)" d="M496.796 149.196 Q491.634 149.196 489.643 150.377 Q487.653 151.557 487.653 154.405 Q487.653 156.673 489.134 158.016 Q490.639 159.335 493.208 159.335 Q496.75 159.335 498.88 156.835 Q501.032 154.312 501.032 150.145 L501.032 149.196 L496.796 149.196 M505.292 147.437 L505.292 162.229 L501.032 162.229 L501.032 158.293 Q499.574 160.655 497.398 161.789 Q495.222 162.9 492.074 162.9 Q488.093 162.9 485.731 160.678 Q483.393 158.432 483.393 154.682 Q483.393 150.307 486.31 148.085 Q489.25 145.863 495.06 145.863 L501.032 145.863 L501.032 145.446 Q501.032 142.507 499.088 140.909 Q497.167 139.289 493.671 139.289 Q491.449 139.289 489.343 139.821 Q487.236 140.354 485.292 141.419 L485.292 137.483 Q487.63 136.581 489.829 136.141 Q492.028 135.678 494.111 135.678 Q499.736 135.678 502.514 138.594 Q505.292 141.511 505.292 147.437 Z" fill="#000000" fill-rule="nonzero" fill-opacity="1" /><polyline clip-path="url(#clip900)" style="stroke:#e26f46; stroke-linecap:round; stroke-linejoin:round; stroke-width:4; stroke-opacity:1; fill:none" points="317.754,196.789 459.731,196.789 "/>
<path clip-path="url(#clip900)" d="M502.167 201.129 Q502.167 196.43 500.222 193.768 Q498.301 191.083 494.921 191.083 Q491.542 191.083 489.597 193.768 Q487.676 196.43 487.676 201.129 Q487.676 205.828 489.597 208.513 Q491.542 211.175 494.921 211.175 Q498.301 211.175 500.222 208.513 Q502.167 205.828 502.167 201.129 M487.676 192.078 Q489.018 189.763 491.055 188.652 Q493.116 187.518 495.963 187.518 Q500.685 187.518 503.625 191.268 Q506.588 195.018 506.588 201.129 Q506.588 207.24 503.625 210.99 Q500.685 214.74 495.963 214.74 Q493.116 214.74 491.055 213.629 Q489.018 212.495 487.676 210.18 L487.676 214.069 L483.393 214.069 L483.393 178.05 L487.676 178.05 L487.676 192.078 Z" fill="#000000" fill-rule="nonzero" fill-opacity="1" /></svg>
