<?xml version="1.0" encoding="utf-8"?>
<svg xmlns="http://www.w3.org/2000/svg" xmlns:xlink="http://www.w3.org/1999/xlink" width="600" height="400" viewBox="0 0 2400 1600">
<defs>
  <clipPath id="clip180">
    <rect x="0" y="0" width="2400" height="1600"/>
  </clipPath>
</defs>
<path clip-path="url(#clip180)" d="M0 1600 L2400 1600 L2400 0 L0 0  Z" fill="#ffffff" fill-rule="evenodd" fill-opacity="1"/>
<defs>
  <clipPath id="clip181">
    <rect x="480" y="0" width="1681" height="1600"/>
  </clipPath>
</defs>
<path clip-path="url(#clip180)" d="M86.9921 1521.01 L2352.76 1521.01 L2352.76 47.2441 L86.9921 47.2441  Z" fill="#ffffff" fill-rule="evenodd" fill-opacity="1"/>
<defs>
  <clipPath id="clip182">
    <rect x="86" y="47" width="2267" height="1475"/>
  </clipPath>
</defs>
<polyline clip-path="url(#clip182)" style="stroke:#000000; stroke-linecap:round; stroke-linejoin:round; stroke-width:2; stroke-opacity:0.1; fill:none" points="151.118,1521.01 151.118,47.2441 "/>
<polyline clip-path="url(#clip182)" style="stroke:#000000; stroke-linecap:round; stroke-linejoin:round; stroke-width:2; stroke-opacity:0.1; fill:none" points="685.496,1521.01 685.496,47.2441 "/>
<polyline clip-path="url(#clip182)" style="stroke:#000000; stroke-linecap:round; stroke-linejoin:round; stroke-width:2; stroke-opacity:0.1; fill:none" points="1219.87,1521.01 1219.87,47.2441 "/>
<polyline clip-path="url(#clip182)" style="stroke:#000000; stroke-linecap:round; stroke-linejoin:round; stroke-width:2; stroke-opacity:0.1; fill:none" points="1754.25,1521.01 1754.25,47.2441 "/>
<polyline clip-path="url(#clip182)" style="stroke:#000000; stroke-linecap:round; stroke-linejoin:round; stroke-width:2; stroke-opacity:0.1; fill:none" points="2288.63,1521.01 2288.63,47.2441 "/>
<polyline clip-path="url(#clip180)" style="stroke:#000000; stroke-linecap:round; stroke-linejoin:round; stroke-width:4; stroke-opacity:1; fill:none" points="86.9921,1521.01 2352.76,1521.01 "/>
<polyline clip-path="url(#clip180)" style="stroke:#000000; stroke-linecap:round; stroke-linejoin:round; stroke-width:4; stroke-opacity:1; fill:none" points="151.118,1521.01 151.118,1502.11 "/>
<polyline clip-path="url(#clip180)" style="stroke:#000000; stroke-linecap:round; stroke-linejoin:round; stroke-width:4; stroke-opacity:1; fill:none" points="685.496,1521.01 685.496,1502.11 "/>
<polyline clip-path="url(#clip180)" style="stroke:#000000; stroke-linecap:round; stroke-linejoin:round; stroke-width:4; stroke-opacity:1; fill:none" points="1219.87,1521.01 1219.87,1502.11 "/>
<polyline clip-path="url(#clip180)" style="stroke:#000000; stroke-linecap:round; stroke-linejoin:round; stroke-width:4; stroke-opacity:1; fill:none" points="1754.25,1521.01 1754.25,1502.11 "/>
<polyline clip-path="url(#clip180)" style="stroke:#000000; stroke-linecap:round; stroke-linejoin:round; stroke-width:4; stroke-opacity:1; fill:none" points="2288.63,1521.01 2288.63,1502.11 "/>
<path clip-path="url(#clip180)" d="M128.502 1551.93 Q124.891 1551.93 123.062 1555.49 Q121.257 1559.03 121.257 1566.16 Q121.257 1573.27 123.062 1576.83 Q124.891 1580.38 128.502 1580.38 Q132.136 1580.38 133.942 1576.83 Q135.77 1573.27 135.77 1566.16 Q135.77 1559.03 133.942 1555.49 Q132.136 1551.93 128.502 1551.93 M128.502 1548.22 Q134.312 1548.22 137.368 1552.83 Q140.446 1557.41 140.446 1566.16 Q140.446 1574.89 137.368 1579.5 Q134.312 1584.08 128.502 1584.08 Q122.692 1584.08 119.613 1579.5 Q116.558 1574.89 116.558 1566.16 Q116.558 1557.41 119.613 1552.83 Q122.692 1548.22 128.502 1548.22 Z" fill="#000000" fill-rule="nonzero" fill-opacity="1" /><path clip-path="url(#clip180)" d="M148.664 1577.53 L153.548 1577.53 L153.548 1583.41 L148.664 1583.41 L148.664 1577.53 Z" fill="#000000" fill-rule="nonzero" fill-opacity="1" /><path clip-path="url(#clip180)" d="M173.733 1551.93 Q170.122 1551.93 168.293 1555.49 Q166.488 1559.03 166.488 1566.16 Q166.488 1573.27 168.293 1576.83 Q170.122 1580.38 173.733 1580.38 Q177.367 1580.38 179.173 1576.83 Q181.002 1573.27 181.002 1566.16 Q181.002 1559.03 179.173 1555.49 Q177.367 1551.93 173.733 1551.93 M173.733 1548.22 Q179.543 1548.22 182.599 1552.83 Q185.678 1557.41 185.678 1566.16 Q185.678 1574.89 182.599 1579.5 Q179.543 1584.08 173.733 1584.08 Q167.923 1584.08 164.844 1579.5 Q161.789 1574.89 161.789 1566.16 Q161.789 1557.41 164.844 1552.83 Q167.923 1548.22 173.733 1548.22 Z" fill="#000000" fill-rule="nonzero" fill-opacity="1" /><path clip-path="url(#clip180)" d="M657.232 1579.47 L673.551 1579.47 L673.551 1583.41 L651.607 1583.41 L651.607 1579.47 Q654.269 1576.72 658.852 1572.09 Q663.459 1567.44 664.639 1566.09 Q666.885 1563.57 667.764 1561.83 Q668.667 1560.07 668.667 1558.38 Q668.667 1555.63 666.723 1553.89 Q664.801 1552.16 661.7 1552.16 Q659.501 1552.16 657.047 1552.92 Q654.616 1553.69 651.839 1555.24 L651.839 1550.51 Q654.663 1549.38 657.116 1548.8 Q659.57 1548.22 661.607 1548.22 Q666.977 1548.22 670.172 1550.91 Q673.366 1553.59 673.366 1558.08 Q673.366 1560.21 672.556 1562.13 Q671.769 1564.03 669.663 1566.63 Q669.084 1567.3 665.982 1570.51 Q662.88 1573.71 657.232 1579.47 Z" fill="#000000" fill-rule="nonzero" fill-opacity="1" /><path clip-path="url(#clip180)" d="M683.366 1577.53 L688.25 1577.53 L688.25 1583.41 L683.366 1583.41 L683.366 1577.53 Z" fill="#000000" fill-rule="nonzero" fill-opacity="1" /><path clip-path="url(#clip180)" d="M698.482 1548.85 L716.838 1548.85 L716.838 1552.78 L702.764 1552.78 L702.764 1561.26 Q703.783 1560.91 704.801 1560.75 Q705.82 1560.56 706.838 1560.56 Q712.625 1560.56 716.005 1563.73 Q719.384 1566.9 719.384 1572.32 Q719.384 1577.9 715.912 1581 Q712.44 1584.08 706.121 1584.08 Q703.945 1584.08 701.676 1583.71 Q699.431 1583.34 697.023 1582.6 L697.023 1577.9 Q699.107 1579.03 701.329 1579.59 Q703.551 1580.14 706.028 1580.14 Q710.033 1580.14 712.371 1578.04 Q714.709 1575.93 714.709 1572.32 Q714.709 1568.71 712.371 1566.6 Q710.033 1564.5 706.028 1564.5 Q704.153 1564.5 702.278 1564.91 Q700.426 1565.33 698.482 1566.21 L698.482 1548.85 Z" fill="#000000" fill-rule="nonzero" fill-opacity="1" /><path clip-path="url(#clip180)" d="M1187.04 1548.85 L1205.39 1548.85 L1205.39 1552.78 L1191.32 1552.78 L1191.32 1561.26 Q1192.34 1560.91 1193.36 1560.75 Q1194.38 1560.56 1195.39 1560.56 Q1201.18 1560.56 1204.56 1563.73 Q1207.94 1566.9 1207.94 1572.32 Q1207.94 1577.9 1204.47 1581 Q1201 1584.08 1194.68 1584.08 Q1192.5 1584.08 1190.23 1583.71 Q1187.99 1583.34 1185.58 1582.6 L1185.58 1577.9 Q1187.66 1579.03 1189.89 1579.59 Q1192.11 1580.14 1194.58 1580.14 Q1198.59 1580.14 1200.93 1578.04 Q1203.27 1575.93 1203.27 1572.32 Q1203.27 1568.71 1200.93 1566.6 Q1198.59 1564.5 1194.58 1564.5 Q1192.71 1564.5 1190.83 1564.91 Q1188.98 1565.33 1187.04 1566.21 L1187.04 1548.85 Z" fill="#000000" fill-rule="nonzero" fill-opacity="1" /><path clip-path="url(#clip180)" d="M1217.15 1577.53 L1222.04 1577.53 L1222.04 1583.41 L1217.15 1583.41 L1217.15 1577.53 Z" fill="#000000" fill-rule="nonzero" fill-opacity="1" /><path clip-path="url(#clip180)" d="M1242.22 1551.93 Q1238.61 1551.93 1236.78 1555.49 Q1234.98 1559.03 1234.98 1566.16 Q1234.98 1573.27 1236.78 1576.83 Q1238.61 1580.38 1242.22 1580.38 Q1245.86 1580.38 1247.66 1576.83 Q1249.49 1573.27 1249.49 1566.16 Q1249.49 1559.03 1247.66 1555.49 Q1245.86 1551.93 1242.22 1551.93 M1242.22 1548.22 Q1248.03 1548.22 1251.09 1552.83 Q1254.17 1557.41 1254.17 1566.16 Q1254.17 1574.89 1251.09 1579.5 Q1248.03 1584.08 1242.22 1584.08 Q1236.41 1584.08 1233.33 1579.5 Q1230.28 1574.89 1230.28 1566.16 Q1230.28 1557.41 1233.33 1552.83 Q1236.41 1548.22 1242.22 1548.22 Z" fill="#000000" fill-rule="nonzero" fill-opacity="1" /><path clip-path="url(#clip180)" d="M1720.57 1548.85 L1742.79 1548.85 L1742.79 1550.84 L1730.25 1583.41 L1725.36 1583.41 L1737.17 1552.78 L1720.57 1552.78 L1720.57 1548.85 Z" fill="#000000" fill-rule="nonzero" fill-opacity="1" /><path clip-path="url(#clip180)" d="M1751.91 1577.53 L1756.8 1577.53 L1756.8 1583.41 L1751.91 1583.41 L1751.91 1577.53 Z" fill="#000000" fill-rule="nonzero" fill-opacity="1" /><path clip-path="url(#clip180)" d="M1767.03 1548.85 L1785.39 1548.85 L1785.39 1552.78 L1771.31 1552.78 L1771.31 1561.26 Q1772.33 1560.91 1773.35 1560.75 Q1774.37 1560.56 1775.39 1560.56 Q1781.17 1560.56 1784.55 1563.73 Q1787.93 1566.9 1787.93 1572.32 Q1787.93 1577.9 1784.46 1581 Q1780.99 1584.08 1774.67 1584.08 Q1772.49 1584.08 1770.22 1583.71 Q1767.98 1583.34 1765.57 1582.6 L1765.57 1577.9 Q1767.65 1579.03 1769.88 1579.59 Q1772.1 1580.14 1774.58 1580.14 Q1778.58 1580.14 1780.92 1578.04 Q1783.26 1575.93 1783.26 1572.32 Q1783.26 1568.71 1780.92 1566.6 Q1778.58 1564.5 1774.58 1564.5 Q1772.7 1564.5 1770.83 1564.91 Q1768.97 1565.33 1767.03 1566.21 L1767.03 1548.85 Z" fill="#000000" fill-rule="nonzero" fill-opacity="1" /><path clip-path="url(#clip180)" d="M2240.7 1579.47 L2248.34 1579.47 L2248.34 1553.11 L2240.03 1554.77 L2240.03 1550.51 L2248.3 1548.85 L2252.97 1548.85 L2252.97 1579.47 L2260.61 1579.47 L2260.61 1583.41 L2240.7 1583.41 L2240.7 1579.47 Z" fill="#000000" fill-rule="nonzero" fill-opacity="1" /><path clip-path="url(#clip180)" d="M2280.05 1551.93 Q2276.44 1551.93 2274.61 1555.49 Q2272.81 1559.03 2272.81 1566.16 Q2272.81 1573.27 2274.61 1576.83 Q2276.44 1580.38 2280.05 1580.38 Q2283.69 1580.38 2285.49 1576.83 Q2287.32 1573.27 2287.32 1566.16 Q2287.32 1559.03 2285.49 1555.49 Q2283.69 1551.93 2280.05 1551.93 M2280.05 1548.22 Q2285.86 1548.22 2288.92 1552.83 Q2292 1557.41 2292 1566.16 Q2292 1574.89 2288.92 1579.5 Q2285.86 1584.08 2280.05 1584.08 Q2274.24 1584.08 2271.17 1579.5 Q2268.11 1574.89 2268.11 1566.16 Q2268.11 1557.41 2271.17 1552.83 Q2274.24 1548.22 2280.05 1548.22 Z" fill="#000000" fill-rule="nonzero" fill-opacity="1" /><path clip-path="url(#clip180)" d="M2300.22 1577.53 L2305.1 1577.53 L2305.1 1583.41 L2300.22 1583.41 L2300.22 1577.53 Z" fill="#000000" fill-rule="nonzero" fill-opacity="1" /><path clip-path="url(#clip180)" d="M2325.29 1551.93 Q2321.67 1551.93 2319.85 1555.49 Q2318.04 1559.03 2318.04 1566.16 Q2318.04 1573.27 2319.85 1576.83 Q2321.67 1580.38 2325.29 1580.38 Q2328.92 1580.38 2330.73 1576.83 Q2332.55 1573.27 2332.55 1566.16 Q2332.55 1559.03 2330.73 1555.49 Q2328.92 1551.93 2325.29 1551.93 M2325.29 1548.22 Q2331.1 1548.22 2334.15 1552.83 Q2337.23 1557.41 2337.23 1566.16 Q2337.23 1574.89 2334.15 1579.5 Q2331.1 1584.08 2325.29 1584.08 Q2319.48 1584.08 2316.4 1579.5 Q2313.34 1574.89 2313.34 1566.16 Q2313.34 1557.41 2316.4 1552.83 Q2319.48 1548.22 2325.29 1548.22 Z" fill="#000000" fill-rule="nonzero" fill-opacity="1" /><polyline clip-path="url(#clip182)" style="stroke:#000000; stroke-linecap:round; stroke-linejoin:round; stroke-width:2; stroke-opacity:0.1; fill:none" points="86.9921,1483.61 2352.76,1483.61 "/>
<polyline clip-path="url(#clip182)" style="stroke:#000000; stroke-linecap:round; stroke-linejoin:round; stroke-width:2; stroke-opacity:0.1; fill:none" points="86.9921,1157.74 2352.76,1157.74 "/>
<polyline clip-path="url(#clip182)" style="stroke:#000000; stroke-linecap:round; stroke-linejoin:round; stroke-width:2; stroke-opacity:0.1; fill:none" points="86.9921,831.875 2352.76,831.875 "/>
<polyline clip-path="url(#clip182)" style="stroke:#000000; stroke-linecap:round; stroke-linejoin:round; stroke-width:2; stroke-opacity:0.1; fill:none" points="86.9921,506.008 2352.76,506.008 "/>
<polyline clip-path="url(#clip182)" style="stroke:#000000; stroke-linecap:round; stroke-linejoin:round; stroke-width:2; stroke-opacity:0.1; fill:none" points="86.9921,180.141 2352.76,180.141 "/>
<polyline clip-path="url(#clip180)" style="stroke:#000000; stroke-linecap:round; stroke-linejoin:round; stroke-width:4; stroke-opacity:1; fill:none" points="86.9921,1521.01 86.9921,47.2441 "/>
<polyline clip-path="url(#clip180)" style="stroke:#000000; stroke-linecap:round; stroke-linejoin:round; stroke-width:4; stroke-opacity:1; fill:none" points="86.9921,1483.61 105.89,1483.61 "/>
<polyline clip-path="url(#clip180)" style="stroke:#000000; stroke-linecap:round; stroke-linejoin:round; stroke-width:4; stroke-opacity:1; fill:none" points="86.9921,1157.74 105.89,1157.74 "/>
<polyline clip-path="url(#clip180)" style="stroke:#000000; stroke-linecap:round; stroke-linejoin:round; stroke-width:4; stroke-opacity:1; fill:none" points="86.9921,831.875 105.89,831.875 "/>
<polyline clip-path="url(#clip180)" style="stroke:#000000; stroke-linecap:round; stroke-linejoin:round; stroke-width:4; stroke-opacity:1; fill:none" points="86.9921,506.008 105.89,506.008 "/>
<polyline clip-path="url(#clip180)" style="stroke:#000000; stroke-linecap:round; stroke-linejoin:round; stroke-width:4; stroke-opacity:1; fill:none" points="86.9921,180.141 105.89,180.141 "/>
<path clip-path="url(#clip180)" d="M-40.8824 1484.06 L-11.2066 1484.06 L-11.2066 1488 L-40.8824 1488 L-40.8824 1484.06 Z" fill="#000000" fill-rule="nonzero" fill-opacity="1" /><path clip-path="url(#clip180)" d="M-0.303895 1496.95 L7.33495 1496.95 L7.33495 1470.59 L-0.975188 1472.25 L-0.975188 1468 L7.28866 1466.33 L11.9646 1466.33 L11.9646 1496.95 L19.6034 1496.95 L19.6034 1500.89 L-0.303895 1500.89 L-0.303895 1496.95 Z" fill="#000000" fill-rule="nonzero" fill-opacity="1" /><path clip-path="url(#clip180)" d="M39.0477 1469.41 Q35.4367 1469.41 33.608 1472.97 Q31.8024 1476.51 31.8024 1483.64 Q31.8024 1490.75 33.608 1494.31 Q35.4367 1497.86 39.0477 1497.86 Q42.682 1497.86 44.4875 1494.31 Q46.3162 1490.75 46.3162 1483.64 Q46.3162 1476.51 44.4875 1472.97 Q42.682 1469.41 39.0477 1469.41 M39.0477 1465.7 Q44.8579 1465.7 47.9134 1470.31 Q50.9921 1474.89 50.9921 1483.64 Q50.9921 1492.37 47.9134 1496.98 Q44.8579 1501.56 39.0477 1501.56 Q33.2376 1501.56 30.1589 1496.98 Q27.1034 1492.37 27.1034 1483.64 Q27.1034 1474.89 30.1589 1470.31 Q33.2376 1465.7 39.0477 1465.7 Z" fill="#000000" fill-rule="nonzero" fill-opacity="1" /><path clip-path="url(#clip180)" d="M-9.72514 1158.19 L19.9506 1158.19 L19.9506 1162.13 L-9.72514 1162.13 L-9.72514 1158.19 Z" fill="#000000" fill-rule="nonzero" fill-opacity="1" /><path clip-path="url(#clip180)" d="M30.0895 1140.46 L48.4458 1140.46 L48.4458 1144.4 L34.3718 1144.4 L34.3718 1152.87 Q35.3904 1152.52 36.4089 1152.36 Q37.4274 1152.17 38.4459 1152.17 Q44.2329 1152.17 47.6125 1155.35 Q50.9921 1158.52 50.9921 1163.93 Q50.9921 1169.51 47.5199 1172.61 Q44.0477 1175.69 37.7283 1175.69 Q35.5524 1175.69 33.2839 1175.32 Q31.0385 1174.95 28.6311 1174.21 L28.6311 1169.51 Q30.7145 1170.65 32.9367 1171.2 Q35.1589 1171.76 37.6357 1171.76 Q41.6403 1171.76 43.9783 1169.65 Q46.3162 1167.55 46.3162 1163.93 Q46.3162 1160.32 43.9783 1158.22 Q41.6403 1156.11 37.6357 1156.11 Q35.7607 1156.11 33.8857 1156.53 Q32.0339 1156.94 30.0895 1157.82 L30.0895 1140.46 Z" fill="#000000" fill-rule="nonzero" fill-opacity="1" /><path clip-path="url(#clip180)" d="M39.0477 817.674 Q35.4367 817.674 33.608 821.238 Q31.8024 824.78 31.8024 831.91 Q31.8024 839.016 33.608 842.581 Q35.4367 846.123 39.0477 846.123 Q42.682 846.123 44.4875 842.581 Q46.3162 839.016 46.3162 831.91 Q46.3162 824.78 44.4875 821.238 Q42.682 817.674 39.0477 817.674 M39.0477 813.97 Q44.8579 813.97 47.9134 818.576 Q50.9921 823.16 50.9921 831.91 Q50.9921 840.637 47.9134 845.243 Q44.8579 849.826 39.0477 849.826 Q33.2376 849.826 30.1589 845.243 Q27.1034 840.637 27.1034 831.91 Q27.1034 823.16 30.1589 818.576 Q33.2376 813.97 39.0477 813.97 Z" fill="#000000" fill-rule="nonzero" fill-opacity="1" /><path clip-path="url(#clip180)" d="M30.0895 488.728 L48.4458 488.728 L48.4458 492.663 L34.3718 492.663 L34.3718 501.135 Q35.3904 500.788 36.4089 500.626 Q37.4274 500.441 38.4459 500.441 Q44.2329 500.441 47.6125 503.612 Q50.9921 506.783 50.9921 512.2 Q50.9921 517.779 47.5199 520.881 Q44.0477 523.959 37.7283 523.959 Q35.5524 523.959 33.2839 523.589 Q31.0385 523.219 28.6311 522.478 L28.6311 517.779 Q30.7145 518.913 32.9367 519.469 Q35.1589 520.024 37.6357 520.024 Q41.6403 520.024 43.9783 517.918 Q46.3162 515.811 46.3162 512.2 Q46.3162 508.589 43.9783 506.483 Q41.6403 504.376 37.6357 504.376 Q35.7607 504.376 33.8857 504.793 Q32.0339 505.209 30.0895 506.089 L30.0895 488.728 Z" fill="#000000" fill-rule="nonzero" fill-opacity="1" /><path clip-path="url(#clip180)" d="M-0.303895 193.486 L7.33495 193.486 L7.33495 167.12 L-0.975188 168.787 L-0.975188 164.528 L7.28866 162.861 L11.9646 162.861 L11.9646 193.486 L19.6034 193.486 L19.6034 197.421 L-0.303895 197.421 L-0.303895 193.486 Z" fill="#000000" fill-rule="nonzero" fill-opacity="1" /><path clip-path="url(#clip180)" d="M39.0477 165.94 Q35.4367 165.94 33.608 169.505 Q31.8024 173.046 31.8024 180.176 Q31.8024 187.282 33.608 190.847 Q35.4367 194.389 39.0477 194.389 Q42.682 194.389 44.4875 190.847 Q46.3162 187.282 46.3162 180.176 Q46.3162 173.046 44.4875 169.505 Q42.682 165.94 39.0477 165.94 M39.0477 162.236 Q44.8579 162.236 47.9134 166.843 Q50.9921 171.426 50.9921 180.176 Q50.9921 188.903 47.9134 193.509 Q44.8579 198.092 39.0477 198.092 Q33.2376 198.092 30.1589 193.509 Q27.1034 188.903 27.1034 180.176 Q27.1034 171.426 30.1589 166.843 Q33.2376 162.236 39.0477 162.236 Z" fill="#000000" fill-rule="nonzero" fill-opacity="1" /><path clip-path="url(#clip182)" d="M151.118 947.354 L364.869 1394.01 L578.62 1479.3 L792.371 1469.68 L1006.12 1439.15 L1219.87 1410.52 L1433.63 1383.72 L1647.38 1355.85 L1861.13 1329.68 L2074.88 1307.02 L2288.63 1282.97 L2288.63 311.938 L2074.88 282.863 L1861.13 254.722 L1647.38 225.33 L1433.63 195.453 L1219.87 165.378 L1006.12 129.592 L792.371 97.6094 L578.62 88.9544 L364.869 181.19 L151.118 713.376  Z" fill="#009af9" fill-rule="evenodd" fill-opacity="0.2"/>
<polyline clip-path="url(#clip182)" style="stroke:#009af9; stroke-linecap:round; stroke-linejoin:round; stroke-width:12; stroke-opacity:1; fill:none" points="151.118,824.7 364.869,868.818 578.62,865.899 792.371,864.32 1006.12,862.579 1219.87,856.328 1433.63,856.448 1647.38,855.979 1861.13,855.569 2074.88,853.133 2288.63,856.801 "/>
<path clip-path="url(#clip182)" d="M151.118 922.612 L364.869 850.257 L578.62 836.305 L792.371 833.14 L1006.12 832.661 L1219.87 832.955 L1433.63 833.145 L1647.38 832.906 L1861.13 832.86 L2074.88 832.992 L2288.63 832.888 L2288.63 830.857 L2074.88 830.919 L1861.13 830.811 L1647.38 830.707 L1433.63 830.971 L1219.87 830.701 L1006.12 830.865 L792.371 830.502 L578.62 827.585 L364.869 811.648 L151.118 731.893  Z" fill="#e26f46" fill-rule="evenodd" fill-opacity="0.2"/>
<polyline clip-path="url(#clip182)" style="stroke:#e26f46; stroke-linecap:round; stroke-linejoin:round; stroke-width:12; stroke-opacity:1; fill:none" points="151.118,825.885 364.869,830.962 578.62,831.734 792.371,831.792 1006.12,831.911 1219.87,832.007 1433.63,831.847 1647.38,831.828 1861.13,831.909 2074.88,831.966 2288.63,831.813 "/>
</svg>
