<?xml version="1.0" encoding="utf-8"?>
<svg xmlns="http://www.w3.org/2000/svg" xmlns:xlink="http://www.w3.org/1999/xlink" width="600" height="400" viewBox="0 0 2400 1600">
<defs>
  <clipPath id="clip000">
    <rect x="0" y="0" width="2400" height="1600"/>
  </clipPath>
</defs>
<path clip-path="url(#clip000)" d="M0 1600 L2400 1600 L2400 0 L0 0  Z" fill="#ffffff" fill-rule="evenodd" fill-opacity="1"/>
<defs>
  <clipPath id="clip001">
    <rect x="480" y="0" width="1681" height="1600"/>
  </clipPath>
</defs>
<path clip-path="url(#clip000)" d="M86.9921 1505.26 L2352.76 1505.26 L2352.76 47.2441 L86.9921 47.2441  Z" fill="#ffffff" fill-rule="evenodd" fill-opacity="1"/>
<defs>
  <clipPath id="clip002">
    <rect x="86" y="47" width="2267" height="1459"/>
  </clipPath>
</defs>
<polyline clip-path="url(#clip002)" style="stroke:#000000; stroke-linecap:round; stroke-linejoin:round; stroke-width:2; stroke-opacity:0.1; fill:none" points="86.9921,1505.26 86.9921,47.2441 "/>
<polyline clip-path="url(#clip002)" style="stroke:#000000; stroke-linecap:round; stroke-linejoin:round; stroke-width:2; stroke-opacity:0.1; fill:none" points="540.145,1505.26 540.145,47.2441 "/>
<polyline clip-path="url(#clip002)" style="stroke:#000000; stroke-linecap:round; stroke-linejoin:round; stroke-width:2; stroke-opacity:0.1; fill:none" points="993.298,1505.26 993.298,47.2441 "/>
<polyline clip-path="url(#clip002)" style="stroke:#000000; stroke-linecap:round; stroke-linejoin:round; stroke-width:2; stroke-opacity:0.1; fill:none" points="1446.45,1505.26 1446.45,47.2441 "/>
<polyline clip-path="url(#clip002)" style="stroke:#000000; stroke-linecap:round; stroke-linejoin:round; stroke-width:2; stroke-opacity:0.1; fill:none" points="1899.6,1505.26 1899.6,47.2441 "/>
<polyline clip-path="url(#clip002)" style="stroke:#000000; stroke-linecap:round; stroke-linejoin:round; stroke-width:2; stroke-opacity:0.1; fill:none" points="2352.76,1505.26 2352.76,47.2441 "/>
<polyline clip-path="url(#clip000)" style="stroke:#000000; stroke-linecap:round; stroke-linejoin:round; stroke-width:4; stroke-opacity:1; fill:none" points="86.9921,1505.26 2352.76,1505.26 "/>
<polyline clip-path="url(#clip000)" style="stroke:#000000; stroke-linecap:round; stroke-linejoin:round; stroke-width:4; stroke-opacity:1; fill:none" points="86.9921,1505.26 86.9921,1486.36 "/>
<polyline clip-path="url(#clip000)" style="stroke:#000000; stroke-linecap:round; stroke-linejoin:round; stroke-width:4; stroke-opacity:1; fill:none" points="540.145,1505.26 540.145,1486.36 "/>
<polyline clip-path="url(#clip000)" style="stroke:#000000; stroke-linecap:round; stroke-linejoin:round; stroke-width:4; stroke-opacity:1; fill:none" points="993.298,1505.26 993.298,1486.36 "/>
<polyline clip-path="url(#clip000)" style="stroke:#000000; stroke-linecap:round; stroke-linejoin:round; stroke-width:4; stroke-opacity:1; fill:none" points="1446.45,1505.26 1446.45,1486.36 "/>
<polyline clip-path="url(#clip000)" style="stroke:#000000; stroke-linecap:round; stroke-linejoin:round; stroke-width:4; stroke-opacity:1; fill:none" points="1899.6,1505.26 1899.6,1486.36 "/>
<polyline clip-path="url(#clip000)" style="stroke:#000000; stroke-linecap:round; stroke-linejoin:round; stroke-width:4; stroke-opacity:1; fill:none" points="2352.76,1505.26 2352.76,1486.36 "/>
<path clip-path="url(#clip000)" d="M86.9921 1536.18 Q83.381 1536.18 81.5523 1539.74 Q79.7468 1543.28 79.7468 1550.41 Q79.7468 1557.52 81.5523 1561.09 Q83.381 1564.63 86.9921 1564.63 Q90.6264 1564.63 92.4319 1561.09 Q94.2606 1557.52 94.2606 1550.41 Q94.2606 1543.28 92.4319 1539.74 Q90.6264 1536.18 86.9921 1536.18 M86.9921 1532.47 Q92.8023 1532.47 95.8578 1537.08 Q98.9365 1541.66 98.9365 1550.41 Q98.9365 1559.14 95.8578 1563.75 Q92.8023 1568.33 86.9921 1568.33 Q81.182 1568.33 78.1033 1563.75 Q75.0477 1559.14 75.0477 1550.41 Q75.0477 1541.66 78.1033 1537.08 Q81.182 1532.47 86.9921 1532.47 Z" fill="#000000" fill-rule="nonzero" fill-opacity="1" /><path clip-path="url(#clip000)" d="M534.798 1563.72 L551.117 1563.72 L551.117 1567.66 L529.173 1567.66 L529.173 1563.72 Q531.835 1560.97 536.418 1556.34 Q541.025 1551.69 542.205 1550.35 Q544.45 1547.82 545.33 1546.09 Q546.233 1544.33 546.233 1542.64 Q546.233 1539.88 544.288 1538.15 Q542.367 1536.41 539.265 1536.41 Q537.066 1536.41 534.613 1537.17 Q532.182 1537.94 529.404 1539.49 L529.404 1534.77 Q532.228 1533.63 534.682 1533.05 Q537.136 1532.47 539.173 1532.47 Q544.543 1532.47 547.737 1535.16 Q550.932 1537.85 550.932 1542.34 Q550.932 1544.47 550.122 1546.39 Q549.335 1548.28 547.228 1550.88 Q546.649 1551.55 543.548 1554.77 Q540.446 1557.96 534.798 1563.72 Z" fill="#000000" fill-rule="nonzero" fill-opacity="1" /><path clip-path="url(#clip000)" d="M996.307 1537.17 L984.501 1555.62 L996.307 1555.62 L996.307 1537.17 M995.08 1533.1 L1000.96 1533.1 L1000.96 1555.62 L1005.89 1555.62 L1005.89 1559.51 L1000.96 1559.51 L1000.96 1567.66 L996.307 1567.66 L996.307 1559.51 L980.705 1559.51 L980.705 1555 L995.08 1533.1 Z" fill="#000000" fill-rule="nonzero" fill-opacity="1" /><path clip-path="url(#clip000)" d="M1446.86 1548.52 Q1443.71 1548.52 1441.86 1550.67 Q1440.03 1552.82 1440.03 1556.57 Q1440.03 1560.3 1441.86 1562.47 Q1443.71 1564.63 1446.86 1564.63 Q1450 1564.63 1451.83 1562.47 Q1453.68 1560.3 1453.68 1556.57 Q1453.68 1552.82 1451.83 1550.67 Q1450 1548.52 1446.86 1548.52 M1456.14 1533.86 L1456.14 1538.12 Q1454.38 1537.29 1452.57 1536.85 Q1450.79 1536.41 1449.03 1536.41 Q1444.4 1536.41 1441.95 1539.53 Q1439.52 1542.66 1439.17 1548.98 Q1440.54 1546.97 1442.6 1545.9 Q1444.66 1544.81 1447.13 1544.81 Q1452.34 1544.81 1455.35 1547.98 Q1458.38 1551.13 1458.38 1556.57 Q1458.38 1561.9 1455.24 1565.11 Q1452.09 1568.33 1446.86 1568.33 Q1440.86 1568.33 1437.69 1563.75 Q1434.52 1559.14 1434.52 1550.41 Q1434.52 1542.22 1438.41 1537.36 Q1442.3 1532.47 1448.85 1532.47 Q1450.61 1532.47 1452.39 1532.82 Q1454.19 1533.17 1456.14 1533.86 Z" fill="#000000" fill-rule="nonzero" fill-opacity="1" /><path clip-path="url(#clip000)" d="M1899.6 1551.25 Q1896.27 1551.25 1894.35 1553.03 Q1892.45 1554.81 1892.45 1557.94 Q1892.45 1561.06 1894.35 1562.85 Q1896.27 1564.63 1899.6 1564.63 Q1902.94 1564.63 1904.86 1562.85 Q1906.78 1561.04 1906.78 1557.94 Q1906.78 1554.81 1904.86 1553.03 Q1902.96 1551.25 1899.6 1551.25 M1894.93 1549.26 Q1891.92 1548.52 1890.23 1546.46 Q1888.56 1544.4 1888.56 1541.43 Q1888.56 1537.29 1891.5 1534.88 Q1894.46 1532.47 1899.6 1532.47 Q1904.77 1532.47 1907.7 1534.88 Q1910.64 1537.29 1910.64 1541.43 Q1910.64 1544.4 1908.95 1546.46 Q1907.29 1548.52 1904.3 1549.26 Q1907.68 1550.04 1909.56 1552.34 Q1911.45 1554.63 1911.45 1557.94 Q1911.45 1562.96 1908.38 1565.65 Q1905.32 1568.33 1899.6 1568.33 Q1893.89 1568.33 1890.81 1565.65 Q1887.75 1562.96 1887.75 1557.94 Q1887.75 1554.63 1889.65 1552.34 Q1891.55 1550.04 1894.93 1549.26 M1893.21 1541.87 Q1893.21 1544.56 1894.88 1546.06 Q1896.57 1547.57 1899.6 1547.57 Q1902.61 1547.57 1904.3 1546.06 Q1906.02 1544.56 1906.02 1541.87 Q1906.02 1539.19 1904.3 1537.68 Q1902.61 1536.18 1899.6 1536.18 Q1896.57 1536.18 1894.88 1537.68 Q1893.21 1539.19 1893.21 1541.87 Z" fill="#000000" fill-rule="nonzero" fill-opacity="1" /><path clip-path="url(#clip000)" d="M2327.44 1563.72 L2335.08 1563.72 L2335.08 1537.36 L2326.77 1539.03 L2326.77 1534.77 L2335.04 1533.1 L2339.71 1533.1 L2339.71 1563.72 L2347.35 1563.72 L2347.35 1567.66 L2327.44 1567.66 L2327.44 1563.72 Z" fill="#000000" fill-rule="nonzero" fill-opacity="1" /><path clip-path="url(#clip000)" d="M2366.8 1536.18 Q2363.18 1536.18 2361.36 1539.74 Q2359.55 1543.28 2359.55 1550.41 Q2359.55 1557.52 2361.36 1561.09 Q2363.18 1564.63 2366.8 1564.63 Q2370.43 1564.63 2372.23 1561.09 Q2374.06 1557.52 2374.06 1550.41 Q2374.06 1543.28 2372.23 1539.74 Q2370.43 1536.18 2366.8 1536.18 M2366.8 1532.47 Q2372.61 1532.47 2375.66 1537.08 Q2378.74 1541.66 2378.74 1550.41 Q2378.74 1559.14 2375.66 1563.75 Q2372.61 1568.33 2366.8 1568.33 Q2360.99 1568.33 2357.91 1563.75 Q2354.85 1559.14 2354.85 1550.41 Q2354.85 1541.66 2357.91 1537.08 Q2360.99 1532.47 2366.8 1532.47 Z" fill="#000000" fill-rule="nonzero" fill-opacity="1" /><path clip-path="url(#clip000)" d="M1218.94 1604.35 L1218.94 1614.48 L1231 1614.48 L1231 1619.03 L1218.94 1619.03 L1218.94 1638.38 Q1218.94 1642.74 1220.11 1643.98 Q1221.32 1645.22 1224.98 1645.22 L1231 1645.22 L1231 1650.12 L1224.98 1650.12 Q1218.2 1650.12 1215.62 1647.61 Q1213.05 1645.06 1213.05 1638.38 L1213.05 1619.03 L1208.75 1619.03 L1208.75 1614.48 L1213.05 1614.48 L1213.05 1604.35 L1218.94 1604.35 Z" fill="#000000" fill-rule="nonzero" fill-opacity="1" /><polyline clip-path="url(#clip002)" style="stroke:#000000; stroke-linecap:round; stroke-linejoin:round; stroke-width:2; stroke-opacity:0.1; fill:none" points="86.9921,1210.27 2352.76,1210.27 "/>
<polyline clip-path="url(#clip002)" style="stroke:#000000; stroke-linecap:round; stroke-linejoin:round; stroke-width:2; stroke-opacity:0.1; fill:none" points="86.9921,836.352 2352.76,836.352 "/>
<polyline clip-path="url(#clip002)" style="stroke:#000000; stroke-linecap:round; stroke-linejoin:round; stroke-width:2; stroke-opacity:0.1; fill:none" points="86.9921,462.431 2352.76,462.431 "/>
<polyline clip-path="url(#clip002)" style="stroke:#000000; stroke-linecap:round; stroke-linejoin:round; stroke-width:2; stroke-opacity:0.1; fill:none" points="86.9921,88.5087 2352.76,88.5087 "/>
<polyline clip-path="url(#clip000)" style="stroke:#000000; stroke-linecap:round; stroke-linejoin:round; stroke-width:4; stroke-opacity:1; fill:none" points="86.9921,1505.26 86.9921,47.2441 "/>
<polyline clip-path="url(#clip000)" style="stroke:#000000; stroke-linecap:round; stroke-linejoin:round; stroke-width:4; stroke-opacity:1; fill:none" points="86.9921,1210.27 105.89,1210.27 "/>
<polyline clip-path="url(#clip000)" style="stroke:#000000; stroke-linecap:round; stroke-linejoin:round; stroke-width:4; stroke-opacity:1; fill:none" points="86.9921,836.352 105.89,836.352 "/>
<polyline clip-path="url(#clip000)" style="stroke:#000000; stroke-linecap:round; stroke-linejoin:round; stroke-width:4; stroke-opacity:1; fill:none" points="86.9921,462.431 105.89,462.431 "/>
<polyline clip-path="url(#clip000)" style="stroke:#000000; stroke-linecap:round; stroke-linejoin:round; stroke-width:4; stroke-opacity:1; fill:none" points="86.9921,88.5087 105.89,88.5087 "/>
<path clip-path="url(#clip000)" d="M-54.3545 1210.73 L-24.6788 1210.73 L-24.6788 1214.66 L-54.3545 1214.66 L-54.3545 1210.73 Z" fill="#000000" fill-rule="nonzero" fill-opacity="1" /><path clip-path="url(#clip000)" d="M-4.58628 1196.07 Q-8.19737 1196.07 -10.0261 1199.64 Q-11.8316 1203.18 -11.8316 1210.31 Q-11.8316 1217.42 -10.0261 1220.98 Q-8.19737 1224.52 -4.58628 1224.52 Q-0.95204 1224.52 0.853506 1220.98 Q2.6822 1217.42 2.6822 1210.31 Q2.6822 1203.18 0.853506 1199.64 Q-0.95204 1196.07 -4.58628 1196.07 M-4.58628 1192.37 Q1.22387 1192.37 4.27941 1196.98 Q7.3581 1201.56 7.3581 1210.31 Q7.3581 1219.04 4.27941 1223.64 Q1.22387 1228.23 -4.58628 1228.23 Q-10.3964 1228.23 -13.4751 1223.64 Q-16.5307 1219.04 -16.5307 1210.31 Q-16.5307 1201.56 -13.4751 1196.98 Q-10.3964 1192.37 -4.58628 1192.37 Z" fill="#000000" fill-rule="nonzero" fill-opacity="1" /><path clip-path="url(#clip000)" d="M15.5756 1221.67 L20.4599 1221.67 L20.4599 1227.55 L15.5756 1227.55 L15.5756 1221.67 Z" fill="#000000" fill-rule="nonzero" fill-opacity="1" /><path clip-path="url(#clip000)" d="M34.6728 1223.62 L50.9921 1223.62 L50.9921 1227.55 L29.0478 1227.55 L29.0478 1223.62 Q31.7098 1220.86 36.2931 1216.23 Q40.8996 1211.58 42.0801 1210.24 Q44.3255 1207.72 45.2051 1205.98 Q46.1079 1204.22 46.1079 1202.53 Q46.1079 1199.78 44.1635 1198.04 Q42.2422 1196.3 39.1403 1196.3 Q36.9413 1196.3 34.4876 1197.07 Q32.057 1197.83 29.2793 1199.38 L29.2793 1194.66 Q32.1033 1193.53 34.557 1192.95 Q37.0107 1192.37 39.0477 1192.37 Q44.4181 1192.37 47.6125 1195.05 Q50.8069 1197.74 50.8069 1202.23 Q50.8069 1204.36 49.9968 1206.28 Q49.2097 1208.18 47.1033 1210.77 Q46.5246 1211.44 43.4227 1214.66 Q40.3209 1217.86 34.6728 1223.62 Z" fill="#000000" fill-rule="nonzero" fill-opacity="1" /><path clip-path="url(#clip000)" d="M-54.7249 836.804 L-25.0491 836.804 L-25.0491 840.739 L-54.7249 840.739 L-54.7249 836.804 Z" fill="#000000" fill-rule="nonzero" fill-opacity="1" /><path clip-path="url(#clip000)" d="M-4.95665 822.151 Q-8.56774 822.151 -10.3964 825.716 Q-12.202 829.257 -12.202 836.387 Q-12.202 843.493 -10.3964 847.058 Q-8.56774 850.6 -4.95665 850.6 Q-1.32241 850.6 0.483137 847.058 Q2.31183 843.493 2.31183 836.387 Q2.31183 829.257 0.483137 825.716 Q-1.32241 822.151 -4.95665 822.151 M-4.95665 818.447 Q0.853506 818.447 3.90904 823.054 Q6.98773 827.637 6.98773 836.387 Q6.98773 845.114 3.90904 849.72 Q0.853506 854.304 -4.95665 854.304 Q-10.7668 854.304 -13.8455 849.72 Q-16.901 845.114 -16.901 836.387 Q-16.901 827.637 -13.8455 823.054 Q-10.7668 818.447 -4.95665 818.447 Z" fill="#000000" fill-rule="nonzero" fill-opacity="1" /><path clip-path="url(#clip000)" d="M15.2053 847.753 L20.0895 847.753 L20.0895 853.632 L15.2053 853.632 L15.2053 847.753 Z" fill="#000000" fill-rule="nonzero" fill-opacity="1" /><path clip-path="url(#clip000)" d="M31.0848 849.697 L38.7237 849.697 L38.7237 823.332 L30.4135 824.998 L30.4135 820.739 L38.6774 819.072 L43.3533 819.072 L43.3533 849.697 L50.9921 849.697 L50.9921 853.632 L31.0848 853.632 L31.0848 849.697 Z" fill="#000000" fill-rule="nonzero" fill-opacity="1" /><path clip-path="url(#clip000)" d="M-6.18349 448.229 Q-9.79459 448.229 -11.6233 451.794 Q-13.4288 455.336 -13.4288 462.465 Q-13.4288 469.572 -11.6233 473.136 Q-9.79459 476.678 -6.18349 476.678 Q-2.54925 476.678 -0.743708 473.136 Q1.08499 469.572 1.08499 462.465 Q1.08499 455.336 -0.743708 451.794 Q-2.54925 448.229 -6.18349 448.229 M-6.18349 444.526 Q-0.37334 444.526 2.6822 449.132 Q5.76089 453.715 5.76089 462.465 Q5.76089 471.192 2.6822 475.798 Q-0.37334 480.382 -6.18349 480.382 Q-11.9936 480.382 -15.0723 475.798 Q-18.1279 471.192 -18.1279 462.465 Q-18.1279 453.715 -15.0723 449.132 Q-11.9936 444.526 -6.18349 444.526 Z" fill="#000000" fill-rule="nonzero" fill-opacity="1" /><path clip-path="url(#clip000)" d="M13.9784 473.831 L18.8627 473.831 L18.8627 479.711 L13.9784 479.711 L13.9784 473.831 Z" fill="#000000" fill-rule="nonzero" fill-opacity="1" /><path clip-path="url(#clip000)" d="M39.0477 448.229 Q35.4367 448.229 33.608 451.794 Q31.8024 455.336 31.8024 462.465 Q31.8024 469.572 33.608 473.136 Q35.4367 476.678 39.0477 476.678 Q42.682 476.678 44.4875 473.136 Q46.3162 469.572 46.3162 462.465 Q46.3162 455.336 44.4875 451.794 Q42.682 448.229 39.0477 448.229 M39.0477 444.526 Q44.8579 444.526 47.9134 449.132 Q50.9921 453.715 50.9921 462.465 Q50.9921 471.192 47.9134 475.798 Q44.8579 480.382 39.0477 480.382 Q33.2376 480.382 30.1589 475.798 Q27.1034 471.192 27.1034 462.465 Q27.1034 453.715 30.1589 449.132 Q33.2376 444.526 39.0477 444.526 Z" fill="#000000" fill-rule="nonzero" fill-opacity="1" /><path clip-path="url(#clip000)" d="M-4.95665 74.3074 Q-8.56774 74.3074 -10.3964 77.8722 Q-12.202 81.4138 -12.202 88.5434 Q-12.202 95.6499 -10.3964 99.2147 Q-8.56774 102.756 -4.95665 102.756 Q-1.32241 102.756 0.483137 99.2147 Q2.31183 95.6499 2.31183 88.5434 Q2.31183 81.4138 0.483137 77.8722 Q-1.32241 74.3074 -4.95665 74.3074 M-4.95665 70.6037 Q0.853506 70.6037 3.90904 75.2102 Q6.98773 79.7935 6.98773 88.5434 Q6.98773 97.2702 3.90904 101.877 Q0.853506 106.46 -4.95665 106.46 Q-10.7668 106.46 -13.8455 101.877 Q-16.901 97.2702 -16.901 88.5434 Q-16.901 79.7935 -13.8455 75.2102 Q-10.7668 70.6037 -4.95665 70.6037 Z" fill="#000000" fill-rule="nonzero" fill-opacity="1" /><path clip-path="url(#clip000)" d="M15.2053 99.9091 L20.0895 99.9091 L20.0895 105.789 L15.2053 105.789 L15.2053 99.9091 Z" fill="#000000" fill-rule="nonzero" fill-opacity="1" /><path clip-path="url(#clip000)" d="M31.0848 101.854 L38.7237 101.854 L38.7237 75.4879 L30.4135 77.1546 L30.4135 72.8953 L38.6774 71.2287 L43.3533 71.2287 L43.3533 101.854 L50.9921 101.854 L50.9921 105.789 L31.0848 105.789 L31.0848 101.854 Z" fill="#000000" fill-rule="nonzero" fill-opacity="1" /><polyline clip-path="url(#clip002)" style="stroke:#009af9; stroke-linecap:round; stroke-linejoin:round; stroke-width:4; stroke-opacity:1; fill:none" points="86.9921,88.5087 313.569,107.205 540.145,233.648 766.721,526.021 993.298,675.256 1219.87,815.224 1446.45,802.184 1673.03,1401.61 1899.6,1464 2126.18,1310.96 2352.76,1078.39 "/>
<polyline clip-path="url(#clip002)" style="stroke:#e26f46; stroke-linecap:round; stroke-linejoin:round; stroke-width:4; stroke-opacity:1; fill:none" points="86.9921,462.431 313.569,479.96 540.145,507.743 766.721,487.013 993.298,486.722 1219.87,463.172 1446.45,561.853 1673.03,480.066 1899.6,445.825 2126.18,431.762 2352.76,464.079 "/>
<path clip-path="url(#clip000)" d="M2027.46 251.365 L2277.23 251.365 L2277.23 95.8446 L2027.46 95.8446  Z" fill="#ffffff" fill-rule="evenodd" fill-opacity="1"/>
<polyline clip-path="url(#clip000)" style="stroke:#000000; stroke-linecap:round; stroke-linejoin:round; stroke-width:4; stroke-opacity:1; fill:none" points="2027.46,251.365 2277.23,251.365 2277.23,95.8446 2027.46,95.8446 2027.46,251.365 "/>
<polyline clip-path="url(#clip000)" style="stroke:#009af9; stroke-linecap:round; stroke-linejoin:round; stroke-width:4; stroke-opacity:1; fill:none" points="2052.63,147.685 2203.69,147.685 "/>
<path clip-path="url(#clip000)" d="M2242.26 151.932 Q2237.1 151.932 2235.11 153.113 Q2233.12 154.293 2233.12 157.141 Q2233.12 159.409 2234.6 160.752 Q2236.11 162.071 2238.68 162.071 Q2242.22 162.071 2244.35 159.571 Q2246.5 157.048 2246.5 152.881 L2246.5 151.932 L2242.26 151.932 M2250.76 150.173 L2250.76 164.965 L2246.5 164.965 L2246.5 161.029 Q2245.04 163.391 2242.87 164.525 Q2240.69 165.636 2237.54 165.636 Q2233.56 165.636 2231.2 163.414 Q2228.86 161.168 2228.86 157.418 Q2228.86 153.043 2231.78 150.821 Q2234.72 148.599 2240.53 148.599 L2246.5 148.599 L2246.5 148.182 Q2246.5 145.243 2244.56 143.645 Q2242.63 142.025 2239.14 142.025 Q2236.92 142.025 2234.81 142.557 Q2232.7 143.09 2230.76 144.155 L2230.76 140.219 Q2233.1 139.317 2235.3 138.877 Q2237.5 138.414 2239.58 138.414 Q2245.2 138.414 2247.98 141.33 Q2250.76 144.247 2250.76 150.173 Z" fill="#000000" fill-rule="nonzero" fill-opacity="1" /><polyline clip-path="url(#clip000)" style="stroke:#e26f46; stroke-linecap:round; stroke-linejoin:round; stroke-width:4; stroke-opacity:1; fill:none" points="2052.63,199.525 2203.69,199.525 "/>
<path clip-path="url(#clip000)" d="M2247.63 203.865 Q2247.63 199.166 2245.69 196.504 Q2243.77 193.819 2240.39 193.819 Q2237.01 193.819 2235.06 196.504 Q2233.14 199.166 2233.14 203.865 Q2233.14 208.564 2235.06 211.249 Q2237.01 213.911 2240.39 213.911 Q2243.77 213.911 2245.69 211.249 Q2247.63 208.564 2247.63 203.865 M2233.14 194.814 Q2234.49 192.499 2236.52 191.388 Q2238.58 190.254 2241.43 190.254 Q2246.15 190.254 2249.09 194.004 Q2252.06 197.754 2252.06 203.865 Q2252.06 209.976 2249.09 213.726 Q2246.15 217.476 2241.43 217.476 Q2238.58 217.476 2236.52 216.365 Q2234.49 215.231 2233.14 212.916 L2233.14 216.805 L2228.86 216.805 L2228.86 180.786 L2233.14 180.786 L2233.14 194.814 Z" fill="#000000" fill-rule="nonzero" fill-opacity="1" /></svg>
