<?xml version="1.0" encoding="utf-8"?>
<svg xmlns="http://www.w3.org/2000/svg" xmlns:xlink="http://www.w3.org/1999/xlink" width="600" height="400" viewBox="0 0 2400 1600">
<defs>
  <clipPath id="clip940">
    <rect x="0" y="0" width="2400" height="1600"/>
  </clipPath>
</defs>
<path clip-path="url(#clip940)" d="M0 1600 L2400 1600 L2400 0 L0 0  Z" fill="#ffffff" fill-rule="evenodd" fill-opacity="1"/>
<defs>
  <clipPath id="clip941">
    <rect x="480" y="0" width="1681" height="1600"/>
  </clipPath>
</defs>
<path clip-path="url(#clip940)" d="M86.9921 1505.26 L2352.76 1505.26 L2352.76 47.2441 L86.9921 47.2441  Z" fill="#ffffff" fill-rule="evenodd" fill-opacity="1"/>
<defs>
  <clipPath id="clip942">
    <rect x="86" y="47" width="2267" height="1459"/>
  </clipPath>
</defs>
<polyline clip-path="url(#clip942)" style="stroke:#000000; stroke-linecap:round; stroke-linejoin:round; stroke-width:2; stroke-opacity:0.1; fill:none" points="86.9921,1505.26 86.9921,47.2441 "/>
<polyline clip-path="url(#clip942)" style="stroke:#000000; stroke-linecap:round; stroke-linejoin:round; stroke-width:2; stroke-opacity:0.1; fill:none" points="540.145,1505.26 540.145,47.2441 "/>
<polyline clip-path="url(#clip942)" style="stroke:#000000; stroke-linecap:round; stroke-linejoin:round; stroke-width:2; stroke-opacity:0.1; fill:none" points="993.298,1505.26 993.298,47.2441 "/>
<polyline clip-path="url(#clip942)" style="stroke:#000000; stroke-linecap:round; stroke-linejoin:round; stroke-width:2; stroke-opacity:0.1; fill:none" points="1446.45,1505.26 1446.45,47.2441 "/>
<polyline clip-path="url(#clip942)" style="stroke:#000000; stroke-linecap:round; stroke-linejoin:round; stroke-width:2; stroke-opacity:0.1; fill:none" points="1899.6,1505.26 1899.6,47.2441 "/>
<polyline clip-path="url(#clip942)" style="stroke:#000000; stroke-linecap:round; stroke-linejoin:round; stroke-width:2; stroke-opacity:0.1; fill:none" points="2352.76,1505.26 2352.76,47.2441 "/>
<polyline clip-path="url(#clip940)" style="stroke:#000000; stroke-linecap:round; stroke-linejoin:round; stroke-width:4; stroke-opacity:1; fill:none" points="86.9921,1505.26 2352.76,1505.26 "/>
<polyline clip-path="url(#clip940)" style="stroke:#000000; stroke-linecap:round; stroke-linejoin:round; stroke-width:4; stroke-opacity:1; fill:none" points="86.9921,1505.26 86.9921,1486.36 "/>
<polyline clip-path="url(#clip940)" style="stroke:#000000; stroke-linecap:round; stroke-linejoin:round; stroke-width:4; stroke-opacity:1; fill:none" points="540.145,1505.26 540.145,1486.36 "/>
<polyline clip-path="url(#clip940)" style="stroke:#000000; stroke-linecap:round; stroke-linejoin:round; stroke-width:4; stroke-opacity:1; fill:none" points="993.298,1505.26 993.298,1486.36 "/>
<polyline clip-path="url(#clip940)" style="stroke:#000000; stroke-linecap:round; stroke-linejoin:round; stroke-width:4; stroke-opacity:1; fill:none" points="1446.45,1505.26 1446.45,1486.36 "/>
<polyline clip-path="url(#clip940)" style="stroke:#000000; stroke-linecap:round; stroke-linejoin:round; stroke-width:4; stroke-opacity:1; fill:none" points="1899.6,1505.26 1899.6,1486.36 "/>
<polyline clip-path="url(#clip940)" style="stroke:#000000; stroke-linecap:round; stroke-linejoin:round; stroke-width:4; stroke-opacity:1; fill:none" points="2352.76,1505.26 2352.76,1486.36 "/>
<path clip-path="url(#clip940)" d="M86.9921 1536.18 Q83.381 1536.18 81.5523 1539.74 Q79.7468 1543.28 79.7468 1550.41 Q79.7468 1557.52 81.5523 1561.09 Q83.381 1564.63 86.9921 1564.63 Q90.6264 1564.63 92.4319 1561.09 Q94.2606 1557.52 94.2606 1550.41 Q94.2606 1543.28 92.4319 1539.74 Q90.6264 1536.18 86.9921 1536.18 M86.9921 1532.47 Q92.8023 1532.47 95.8578 1537.08 Q98.9365 1541.66 98.9365 1550.41 Q98.9365 1559.14 95.8578 1563.75 Q92.8023 1568.33 86.9921 1568.33 Q81.182 1568.33 78.1033 1563.75 Q75.0477 1559.14 75.0477 1550.41 Q75.0477 1541.66 78.1033 1537.08 Q81.182 1532.47 86.9921 1532.47 Z" fill="#000000" fill-rule="nonzero" fill-opacity="1" /><path clip-path="url(#clip940)" d="M534.798 1563.72 L551.117 1563.72 L551.117 1567.66 L529.173 1567.66 L529.173 1563.72 Q531.835 1560.97 536.418 1556.34 Q541.025 1551.69 542.205 1550.35 Q544.45 1547.82 545.33 1546.09 Q546.233 1544.33 546.233 1542.64 Q546.233 1539.88 544.288 1538.15 Q542.367 1536.41 539.265 1536.41 Q537.066 1536.41 534.613 1537.17 Q532.182 1537.94 529.404 1539.49 L529.404 1534.77 Q532.228 1533.63 534.682 1533.05 Q537.136 1532.47 539.173 1532.47 Q544.543 1532.47 547.737 1535.16 Q550.932 1537.85 550.932 1542.34 Q550.932 1544.47 550.122 1546.39 Q549.335 1548.28 547.228 1550.88 Q546.649 1551.55 543.548 1554.77 Q540.446 1557.96 534.798 1563.72 Z" fill="#000000" fill-rule="nonzero" fill-opacity="1" /><path clip-path="url(#clip940)" d="M996.307 1537.17 L984.501 1555.62 L996.307 1555.62 L996.307 1537.17 M995.08 1533.1 L1000.96 1533.1 L1000.96 1555.62 L1005.89 1555.62 L1005.89 1559.51 L1000.96 1559.51 L1000.96 1567.66 L996.307 1567.66 L996.307 1559.51 L980.705 1559.51 L980.705 1555 L995.08 1533.1 Z" fill="#000000" fill-rule="nonzero" fill-opacity="1" /><path clip-path="url(#clip940)" d="M1446.86 1548.52 Q1443.71 1548.52 1441.86 1550.67 Q1440.03 1552.82 1440.03 1556.57 Q1440.03 1560.3 1441.86 1562.47 Q1443.71 1564.63 1446.86 1564.63 Q1450 1564.63 1451.83 1562.47 Q1453.68 1560.3 1453.68 1556.57 Q1453.68 1552.82 1451.83 1550.67 Q1450 1548.52 1446.86 1548.52 M1456.14 1533.86 L1456.14 1538.12 Q1454.38 1537.29 1452.57 1536.85 Q1450.79 1536.41 1449.03 1536.41 Q1444.4 1536.41 1441.95 1539.53 Q1439.52 1542.66 1439.17 1548.98 Q1440.54 1546.97 1442.6 1545.9 Q1444.66 1544.81 1447.13 1544.81 Q1452.34 1544.81 1455.35 1547.98 Q1458.38 1551.13 1458.38 1556.57 Q1458.38 1561.9 1455.24 1565.11 Q1452.09 1568.33 1446.86 1568.33 Q1440.86 1568.33 1437.69 1563.75 Q1434.52 1559.14 1434.52 1550.41 Q1434.52 1542.22 1438.41 1537.36 Q1442.3 1532.47 1448.85 1532.47 Q1450.61 1532.47 1452.39 1532.82 Q1454.19 1533.17 1456.14 1533.86 Z" fill="#000000" fill-rule="nonzero" fill-opacity="1" /><path clip-path="url(#clip940)" d="M1899.6 1551.25 Q1896.27 1551.25 1894.35 1553.03 Q1892.45 1554.81 1892.45 1557.94 Q1892.45 1561.06 1894.35 1562.85 Q1896.27 1564.63 1899.6 1564.63 Q1902.94 1564.63 1904.86 1562.85 Q1906.78 1561.04 1906.78 1557.94 Q1906.78 1554.81 1904.86 1553.03 Q1902.96 1551.25 1899.6 1551.25 M1894.93 1549.26 Q1891.92 1548.52 1890.23 1546.46 Q1888.56 1544.4 1888.56 1541.43 Q1888.56 1537.29 1891.5 1534.88 Q1894.46 1532.47 1899.6 1532.47 Q1904.77 1532.47 1907.7 1534.88 Q1910.64 1537.29 1910.64 1541.43 Q1910.64 1544.4 1908.95 1546.46 Q1907.29 1548.52 1904.3 1549.26 Q1907.68 1550.04 1909.56 1552.34 Q1911.45 1554.63 1911.45 1557.94 Q1911.45 1562.96 1908.38 1565.65 Q1905.32 1568.33 1899.6 1568.33 Q1893.89 1568.33 1890.81 1565.65 Q1887.75 1562.96 1887.75 1557.94 Q1887.75 1554.63 1889.65 1552.34 Q1891.55 1550.04 1894.93 1549.26 M1893.21 1541.87 Q1893.21 1544.56 1894.88 1546.06 Q1896.57 1547.57 1899.6 1547.57 Q1902.61 1547.57 1904.3 1546.06 Q1906.02 1544.56 1906.02 1541.87 Q1906.02 1539.19 1904.3 1537.68 Q1902.61 1536.18 1899.6 1536.18 Q1896.57 1536.18 1894.88 1537.68 Q1893.21 1539.19 1893.21 1541.87 Z" fill="#000000" fill-rule="nonzero" fill-opacity="1" /><path clip-path="url(#clip940)" d="M2327.44 1563.72 L2335.08 1563.72 L2335.08 1537.36 L2326.77 1539.03 L2326.77 1534.77 L2335.04 1533.1 L2339.71 1533.1 L2339.71 1563.72 L2347.35 1563.72 L2347.35 1567.66 L2327.44 1567.66 L2327.44 1563.72 Z" fill="#000000" fill-rule="nonzero" fill-opacity="1" /><path clip-path="url(#clip940)" d="M2366.8 1536.18 Q2363.18 1536.18 2361.36 1539.74 Q2359.55 1543.28 2359.55 1550.41 Q2359.55 1557.52 2361.36 1561.09 Q2363.18 1564.63 2366.8 1564.63 Q2370.43 1564.63 2372.23 1561.09 Q2374.06 1557.52 2374.06 1550.41 Q2374.06 1543.28 2372.23 1539.74 Q2370.43 1536.18 2366.8 1536.18 M2366.8 1532.47 Q2372.61 1532.47 2375.66 1537.08 Q2378.74 1541.66 2378.74 1550.41 Q2378.74 1559.14 2375.66 1563.75 Q2372.61 1568.33 2366.8 1568.33 Q2360.99 1568.33 2357.91 1563.75 Q2354.85 1559.14 2354.85 1550.41 Q2354.85 1541.66 2357.91 1537.08 Q2360.99 1532.47 2366.8 1532.47 Z" fill="#000000" fill-rule="nonzero" fill-opacity="1" /><path clip-path="url(#clip940)" d="M1218.94 1604.35 L1218.94 1614.48 L1231 1614.48 L1231 1619.03 L1218.94 1619.03 L1218.94 1638.38 Q1218.94 1642.74 1220.11 1643.98 Q1221.32 1645.22 1224.98 1645.22 L1231 1645.22 L1231 1650.12 L1224.98 1650.12 Q1218.2 1650.12 1215.62 1647.61 Q1213.05 1645.06 1213.05 1638.38 L1213.05 1619.03 L1208.75 1619.03 L1208.75 1614.48 L1213.05 1614.48 L1213.05 1604.35 L1218.94 1604.35 Z" fill="#000000" fill-rule="nonzero" fill-opacity="1" /><polyline clip-path="url(#clip942)" style="stroke:#000000; stroke-linecap:round; stroke-linejoin:round; stroke-width:2; stroke-opacity:0.1; fill:none" points="86.9921,1326.62 2352.76,1326.62 "/>
<polyline clip-path="url(#clip942)" style="stroke:#000000; stroke-linecap:round; stroke-linejoin:round; stroke-width:2; stroke-opacity:0.1; fill:none" points="86.9921,924.901 2352.76,924.901 "/>
<polyline clip-path="url(#clip942)" style="stroke:#000000; stroke-linecap:round; stroke-linejoin:round; stroke-width:2; stroke-opacity:0.1; fill:none" points="86.9921,523.179 2352.76,523.179 "/>
<polyline clip-path="url(#clip942)" style="stroke:#000000; stroke-linecap:round; stroke-linejoin:round; stroke-width:2; stroke-opacity:0.1; fill:none" points="86.9921,121.457 2352.76,121.457 "/>
<polyline clip-path="url(#clip940)" style="stroke:#000000; stroke-linecap:round; stroke-linejoin:round; stroke-width:4; stroke-opacity:1; fill:none" points="86.9921,1505.26 86.9921,47.2441 "/>
<polyline clip-path="url(#clip940)" style="stroke:#000000; stroke-linecap:round; stroke-linejoin:round; stroke-width:4; stroke-opacity:1; fill:none" points="86.9921,1326.62 105.89,1326.62 "/>
<polyline clip-path="url(#clip940)" style="stroke:#000000; stroke-linecap:round; stroke-linejoin:round; stroke-width:4; stroke-opacity:1; fill:none" points="86.9921,924.901 105.89,924.901 "/>
<polyline clip-path="url(#clip940)" style="stroke:#000000; stroke-linecap:round; stroke-linejoin:round; stroke-width:4; stroke-opacity:1; fill:none" points="86.9921,523.179 105.89,523.179 "/>
<polyline clip-path="url(#clip940)" style="stroke:#000000; stroke-linecap:round; stroke-linejoin:round; stroke-width:4; stroke-opacity:1; fill:none" points="86.9921,121.457 105.89,121.457 "/>
<path clip-path="url(#clip940)" d="M-55.3036 1327.07 L-25.6278 1327.07 L-25.6278 1331.01 L-55.3036 1331.01 L-55.3036 1327.07 Z" fill="#000000" fill-rule="nonzero" fill-opacity="1" /><path clip-path="url(#clip940)" d="M-5.53535 1312.42 Q-9.14644 1312.42 -10.9751 1315.99 Q-12.7807 1319.53 -12.7807 1326.66 Q-12.7807 1333.76 -10.9751 1337.33 Q-9.14644 1340.87 -5.53535 1340.87 Q-1.90111 1340.87 -0.0955632 1337.33 Q1.73313 1333.76 1.73313 1326.66 Q1.73313 1319.53 -0.0955632 1315.99 Q-1.90111 1312.42 -5.53535 1312.42 M-5.53535 1308.72 Q0.274805 1308.72 3.33034 1313.32 Q6.40903 1317.91 6.40903 1326.66 Q6.40903 1335.38 3.33034 1339.99 Q0.274805 1344.57 -5.53535 1344.57 Q-11.3455 1344.57 -14.4242 1339.99 Q-17.4797 1335.38 -17.4797 1326.66 Q-17.4797 1317.91 -14.4242 1313.32 Q-11.3455 1308.72 -5.53535 1308.72 Z" fill="#000000" fill-rule="nonzero" fill-opacity="1" /><path clip-path="url(#clip940)" d="M14.6266 1338.02 L19.5108 1338.02 L19.5108 1343.9 L14.6266 1343.9 L14.6266 1338.02 Z" fill="#000000" fill-rule="nonzero" fill-opacity="1" /><path clip-path="url(#clip940)" d="M43.8625 1325.27 Q47.219 1325.99 49.094 1328.25 Q50.9921 1330.52 50.9921 1333.86 Q50.9921 1338.97 47.4736 1341.77 Q43.9551 1344.57 37.4737 1344.57 Q35.2978 1344.57 32.983 1344.13 Q30.6913 1343.72 28.2376 1342.86 L28.2376 1338.35 Q30.1821 1339.48 32.4969 1340.06 Q34.8117 1340.64 37.3348 1340.64 Q41.7329 1340.64 44.0246 1338.9 Q46.3394 1337.17 46.3394 1333.86 Q46.3394 1330.8 44.1866 1329.09 Q42.057 1327.35 38.2376 1327.35 L34.2098 1327.35 L34.2098 1323.51 L38.4227 1323.51 Q41.8718 1323.51 43.7005 1322.14 Q45.5292 1320.75 45.5292 1318.16 Q45.5292 1315.5 43.6311 1314.09 Q41.7561 1312.65 38.2376 1312.65 Q36.3163 1312.65 34.1172 1313.07 Q31.9182 1313.49 29.2793 1314.37 L29.2793 1310.2 Q31.9413 1309.46 34.2561 1309.09 Q36.5941 1308.72 38.6542 1308.72 Q43.9783 1308.72 47.0801 1311.15 Q50.1819 1313.56 50.1819 1317.68 Q50.1819 1320.55 48.5384 1322.54 Q46.8949 1324.5 43.8625 1325.27 Z" fill="#000000" fill-rule="nonzero" fill-opacity="1" /><path clip-path="url(#clip940)" d="M-54.3545 925.352 L-24.6788 925.352 L-24.6788 929.287 L-54.3545 929.287 L-54.3545 925.352 Z" fill="#000000" fill-rule="nonzero" fill-opacity="1" /><path clip-path="url(#clip940)" d="M-4.58628 910.699 Q-8.19737 910.699 -10.0261 914.264 Q-11.8316 917.806 -11.8316 924.935 Q-11.8316 932.042 -10.0261 935.607 Q-8.19737 939.148 -4.58628 939.148 Q-0.95204 939.148 0.853506 935.607 Q2.6822 932.042 2.6822 924.935 Q2.6822 917.806 0.853506 914.264 Q-0.95204 910.699 -4.58628 910.699 M-4.58628 906.996 Q1.22387 906.996 4.27941 911.602 Q7.3581 916.185 7.3581 924.935 Q7.3581 933.662 4.27941 938.269 Q1.22387 942.852 -4.58628 942.852 Q-10.3964 942.852 -13.4751 938.269 Q-16.5307 933.662 -16.5307 924.935 Q-16.5307 916.185 -13.4751 911.602 Q-10.3964 906.996 -4.58628 906.996 Z" fill="#000000" fill-rule="nonzero" fill-opacity="1" /><path clip-path="url(#clip940)" d="M15.5756 936.301 L20.4599 936.301 L20.4599 942.181 L15.5756 942.181 L15.5756 936.301 Z" fill="#000000" fill-rule="nonzero" fill-opacity="1" /><path clip-path="url(#clip940)" d="M34.6728 938.245 L50.9921 938.245 L50.9921 942.181 L29.0478 942.181 L29.0478 938.245 Q31.7098 935.491 36.2931 930.861 Q40.8996 926.208 42.0801 924.866 Q44.3255 922.343 45.2051 920.607 Q46.1079 918.847 46.1079 917.158 Q46.1079 914.403 44.1635 912.667 Q42.2422 910.931 39.1403 910.931 Q36.9413 910.931 34.4876 911.695 Q32.057 912.459 29.2793 914.009 L29.2793 909.287 Q32.1033 908.153 34.557 907.574 Q37.0107 906.996 39.0477 906.996 Q44.4181 906.996 47.6125 909.681 Q50.8069 912.366 50.8069 916.857 Q50.8069 918.986 49.9968 920.908 Q49.2097 922.806 47.1033 925.398 Q46.5246 926.07 43.4227 929.287 Q40.3209 932.482 34.6728 938.245 Z" fill="#000000" fill-rule="nonzero" fill-opacity="1" /><path clip-path="url(#clip940)" d="M-54.7249 523.63 L-25.0491 523.63 L-25.0491 527.566 L-54.7249 527.566 L-54.7249 523.63 Z" fill="#000000" fill-rule="nonzero" fill-opacity="1" /><path clip-path="url(#clip940)" d="M-4.95665 508.978 Q-8.56774 508.978 -10.3964 512.542 Q-12.202 516.084 -12.202 523.214 Q-12.202 530.32 -10.3964 533.885 Q-8.56774 537.427 -4.95665 537.427 Q-1.32241 537.427 0.483137 533.885 Q2.31183 530.32 2.31183 523.214 Q2.31183 516.084 0.483137 512.542 Q-1.32241 508.978 -4.95665 508.978 M-4.95665 505.274 Q0.853506 505.274 3.90904 509.88 Q6.98773 514.464 6.98773 523.214 Q6.98773 531.941 3.90904 536.547 Q0.853506 541.13 -4.95665 541.13 Q-10.7668 541.13 -13.8455 536.547 Q-16.901 531.941 -16.901 523.214 Q-16.901 514.464 -13.8455 509.88 Q-10.7668 505.274 -4.95665 505.274 Z" fill="#000000" fill-rule="nonzero" fill-opacity="1" /><path clip-path="url(#clip940)" d="M15.2053 534.579 L20.0895 534.579 L20.0895 540.459 L15.2053 540.459 L15.2053 534.579 Z" fill="#000000" fill-rule="nonzero" fill-opacity="1" /><path clip-path="url(#clip940)" d="M31.0848 536.524 L38.7237 536.524 L38.7237 510.158 L30.4135 511.825 L30.4135 507.566 L38.6774 505.899 L43.3533 505.899 L43.3533 536.524 L50.9921 536.524 L50.9921 540.459 L31.0848 540.459 L31.0848 536.524 Z" fill="#000000" fill-rule="nonzero" fill-opacity="1" /><path clip-path="url(#clip940)" d="M-6.18349 107.256 Q-9.79459 107.256 -11.6233 110.821 Q-13.4288 114.363 -13.4288 121.492 Q-13.4288 128.599 -11.6233 132.163 Q-9.79459 135.705 -6.18349 135.705 Q-2.54925 135.705 -0.743708 132.163 Q1.08499 128.599 1.08499 121.492 Q1.08499 114.363 -0.743708 110.821 Q-2.54925 107.256 -6.18349 107.256 M-6.18349 103.552 Q-0.37334 103.552 2.6822 108.159 Q5.76089 112.742 5.76089 121.492 Q5.76089 130.219 2.6822 134.825 Q-0.37334 139.409 -6.18349 139.409 Q-11.9936 139.409 -15.0723 134.825 Q-18.1279 130.219 -18.1279 121.492 Q-18.1279 112.742 -15.0723 108.159 Q-11.9936 103.552 -6.18349 103.552 Z" fill="#000000" fill-rule="nonzero" fill-opacity="1" /><path clip-path="url(#clip940)" d="M13.9784 132.858 L18.8627 132.858 L18.8627 138.737 L13.9784 138.737 L13.9784 132.858 Z" fill="#000000" fill-rule="nonzero" fill-opacity="1" /><path clip-path="url(#clip940)" d="M39.0477 107.256 Q35.4367 107.256 33.608 110.821 Q31.8024 114.363 31.8024 121.492 Q31.8024 128.599 33.608 132.163 Q35.4367 135.705 39.0477 135.705 Q42.682 135.705 44.4875 132.163 Q46.3162 128.599 46.3162 121.492 Q46.3162 114.363 44.4875 110.821 Q42.682 107.256 39.0477 107.256 M39.0477 103.552 Q44.8579 103.552 47.9134 108.159 Q50.9921 112.742 50.9921 121.492 Q50.9921 130.219 47.9134 134.825 Q44.8579 139.409 39.0477 139.409 Q33.2376 139.409 30.1589 134.825 Q27.1034 130.219 27.1034 121.492 Q27.1034 112.742 30.1589 108.159 Q33.2376 103.552 39.0477 103.552 Z" fill="#000000" fill-rule="nonzero" fill-opacity="1" /><polyline clip-path="url(#clip942)" style="stroke:#009af9; stroke-linecap:round; stroke-linejoin:round; stroke-width:4; stroke-opacity:1; fill:none" points="86.9921,121.457 313.569,121.457 540.145,238.219 766.721,534.202 993.298,677.31 1219.87,811.324 1446.45,781.773 1673.03,1411 1899.6,1464 2126.18,1286.26 2352.76,1023.74 "/>
<polyline clip-path="url(#clip942)" style="stroke:#e26f46; stroke-linecap:round; stroke-linejoin:round; stroke-width:4; stroke-opacity:1; fill:none" points="86.9921,121.457 313.569,140.29 540.145,170.138 766.721,147.868 993.298,147.555 1219.87,122.255 1446.45,228.271 1673.03,140.404 1899.6,103.617 2126.18,88.5087 2352.76,123.229 "/>
<path clip-path="url(#clip940)" d="M162.518 1456.66 L412.288 1456.66 L412.288 1301.14 L162.518 1301.14  Z" fill="#ffffff" fill-rule="evenodd" fill-opacity="1"/>
<polyline clip-path="url(#clip940)" style="stroke:#000000; stroke-linecap:round; stroke-linejoin:round; stroke-width:4; stroke-opacity:1; fill:none" points="162.518,1456.66 412.288,1456.66 412.288,1301.14 162.518,1301.14 162.518,1456.66 "/>
<polyline clip-path="url(#clip940)" style="stroke:#009af9; stroke-linecap:round; stroke-linejoin:round; stroke-width:4; stroke-opacity:1; fill:none" points="187.693,1352.98 338.744,1352.98 "/>
<path clip-path="url(#clip940)" d="M377.322 1357.23 Q372.16 1357.23 370.169 1358.41 Q368.178 1359.59 368.178 1362.44 Q368.178 1364.7 369.66 1366.05 Q371.164 1367.37 373.734 1367.37 Q377.275 1367.37 379.405 1364.87 Q381.558 1362.34 381.558 1358.18 L381.558 1357.23 L377.322 1357.23 M385.817 1355.47 L385.817 1370.26 L381.558 1370.26 L381.558 1366.32 Q380.099 1368.69 377.923 1369.82 Q375.747 1370.93 372.599 1370.93 Q368.618 1370.93 366.257 1368.71 Q363.919 1366.46 363.919 1362.71 Q363.919 1358.34 366.835 1356.12 Q369.775 1353.89 375.585 1353.89 L381.558 1353.89 L381.558 1353.48 Q381.558 1350.54 379.613 1348.94 Q377.692 1347.32 374.197 1347.32 Q371.974 1347.32 369.868 1347.85 Q367.761 1348.38 365.817 1349.45 L365.817 1345.51 Q368.155 1344.61 370.354 1344.17 Q372.553 1343.71 374.636 1343.71 Q380.261 1343.71 383.039 1346.63 Q385.817 1349.54 385.817 1355.47 Z" fill="#000000" fill-rule="nonzero" fill-opacity="1" /><polyline clip-path="url(#clip940)" style="stroke:#e26f46; stroke-linecap:round; stroke-linejoin:round; stroke-width:4; stroke-opacity:1; fill:none" points="187.693,1404.82 338.744,1404.82 "/>
<path clip-path="url(#clip940)" d="M382.692 1409.16 Q382.692 1404.46 380.747 1401.8 Q378.826 1399.11 375.447 1399.11 Q372.067 1399.11 370.122 1401.8 Q368.201 1404.46 368.201 1409.16 Q368.201 1413.86 370.122 1416.54 Q372.067 1419.21 375.447 1419.21 Q378.826 1419.21 380.747 1416.54 Q382.692 1413.86 382.692 1409.16 M368.201 1400.11 Q369.544 1397.79 371.581 1396.68 Q373.641 1395.55 376.488 1395.55 Q381.21 1395.55 384.15 1399.3 Q387.113 1403.05 387.113 1409.16 Q387.113 1415.27 384.15 1419.02 Q381.21 1422.77 376.488 1422.77 Q373.641 1422.77 371.581 1421.66 Q369.544 1420.53 368.201 1418.21 L368.201 1422.1 L363.919 1422.1 L363.919 1386.08 L368.201 1386.08 L368.201 1400.11 Z" fill="#000000" fill-rule="nonzero" fill-opacity="1" /></svg>
